<svg width="500" height="369" viewBox="0 0 500 369" fill="none" xmlns="http://www.w3.org/2000/svg">
<path d="M449.901 343.49H416.781V343.74H449.901V343.49Z" fill="#EBEBEB"/>
<path d="M331.221 346.211H322.531V346.461H331.221V346.211Z" fill="#EBEBEB"/>
<path d="M415.78 334.211H396.59V334.461H415.78V334.211Z" fill="#EBEBEB"/>
<path d="M95.6509 335.891H52.4609V336.141H95.6509V335.891Z" fill="#EBEBEB"/>
<path d="M110.889 335.891H104.559V336.141H110.889V335.891Z" fill="#EBEBEB"/>
<path d="M225.149 340.109H131.469V340.359H225.149V340.109Z" fill="#EBEBEB"/>
<path d="M237.001 282.8H43.9209C42.4066 282.8 40.9542 282.198 39.8834 281.128C38.8125 280.057 38.2109 278.604 38.2109 277.09V5.66C38.2241 4.15429 38.8315 2.71475 39.9009 1.65471C40.9703 0.594662 42.4152 -5.77259e-05 43.9209 4.20255e-09H237.001C238.515 4.20256e-09 239.968 0.601588 241.039 1.67242C242.109 2.74325 242.711 4.19561 242.711 5.71V277.09C242.711 278.604 242.109 280.057 241.039 281.128C239.968 282.198 238.515 282.8 237.001 282.8ZM43.9209 0.200001C42.4737 0.202644 41.0864 0.77874 40.0631 1.80212C39.0397 2.82549 38.4636 4.21273 38.4609 5.66V277.09C38.4636 278.537 39.0397 279.924 40.0631 280.948C41.0864 281.971 42.4737 282.547 43.9209 282.55H237.001C238.448 282.547 239.835 281.971 240.859 280.948C241.882 279.924 242.458 278.537 242.461 277.09V5.66C242.458 4.21273 241.882 2.82549 240.859 1.80212C239.835 0.77874 238.448 0.202644 237.001 0.200001H43.9209Z" fill="#EBEBEB"/>
<path d="M453.31 282.8H260.21C258.696 282.797 257.246 282.195 256.175 281.125C255.105 280.054 254.503 278.604 254.5 277.09V5.66C254.516 4.15511 255.124 2.71708 256.193 1.65759C257.262 0.598109 258.705 0.00254829 260.21 0H453.31C454.812 0.0052045 456.252 0.602249 457.317 1.66173C458.382 2.72121 458.987 4.15775 459 5.66V277.09C459 278.601 458.401 280.05 457.335 281.121C456.268 282.191 454.821 282.795 453.31 282.8ZM260.21 0.200001C258.763 0.202644 257.375 0.77874 256.352 1.80212C255.329 2.82549 254.753 4.21273 254.75 5.66V277.09C254.753 278.537 255.329 279.924 256.352 280.948C257.375 281.971 258.763 282.547 260.21 282.55H453.31C454.757 282.547 456.145 281.971 457.168 280.948C458.191 279.924 458.767 278.537 458.77 277.09V5.66C458.767 4.21273 458.191 2.82549 457.168 1.80212C456.145 0.77874 454.757 0.202644 453.31 0.200001H260.21Z" fill="#EBEBEB"/>
<path d="M500 327.4H0V327.65H500V327.4Z" fill="#EBEBEB"/>
<path d="M255.199 225.829C254.048 225.833 252.921 225.496 251.962 224.859C251.002 224.222 250.253 223.315 249.809 222.253C249.365 221.19 249.247 220.02 249.468 218.89C249.69 217.76 250.241 216.721 251.053 215.905C251.866 215.088 252.902 214.531 254.03 214.304C255.159 214.077 256.33 214.189 257.395 214.628C258.46 215.066 259.371 215.81 260.012 216.767C260.654 217.723 260.997 218.848 260.999 219.999C260.999 221.54 260.389 223.019 259.302 224.111C258.216 225.204 256.74 225.821 255.199 225.829ZM255.199 217.189C254.64 217.185 254.093 217.348 253.626 217.656C253.16 217.964 252.795 218.403 252.579 218.919C252.363 219.434 252.305 220.002 252.412 220.551C252.519 221.1 252.787 221.604 253.182 222C253.576 222.396 254.08 222.666 254.628 222.775C255.176 222.884 255.745 222.828 256.261 222.614C256.777 222.399 257.218 222.036 257.528 221.571C257.837 221.105 258.001 220.558 257.999 219.999C257.994 219.258 257.698 218.547 257.174 218.022C256.65 217.496 255.941 217.197 255.199 217.189Z" fill="#263238"/>
<path d="M259.232 222.089L257.109 224.209L263.999 231.108L266.122 228.988L259.232 222.089Z" fill="#263238"/>
<path d="M445.626 53.8953C448.279 37.5518 437.18 22.152 420.837 19.4991C404.493 16.8462 389.093 27.9446 386.44 44.2882C383.787 60.6318 394.886 76.0315 411.229 78.6844C427.573 81.3374 442.973 70.2389 445.626 53.8953Z" fill="#E0E0E0"/>
<path d="M416.099 79.7299C408.064 79.5848 400.408 76.2913 394.777 70.5582C389.147 64.825 385.992 57.1106 385.992 49.0749C385.992 41.0393 389.147 33.3248 394.777 27.5917C400.408 21.8585 408.064 18.565 416.099 18.4199V19.7699C408.42 19.9118 401.104 23.0616 395.724 28.5419C390.344 34.0222 387.33 41.3952 387.33 49.0749C387.33 56.7547 390.344 64.1276 395.724 69.6079C401.104 75.0882 408.42 78.2381 416.099 78.3799V79.7299Z" fill="white"/>
<path d="M416.102 79.7291V78.3791C419.996 78.451 423.865 77.7462 427.483 76.3058C431.102 74.8653 434.397 72.7182 437.176 69.9899C439.955 67.2615 442.163 64.0067 443.67 60.4154C445.177 56.8242 445.953 52.9687 445.953 49.0741C445.953 45.1795 445.177 41.3239 443.67 37.7327C442.163 34.1415 439.955 30.8866 437.176 28.1582C434.397 25.4299 431.102 23.2828 427.483 21.8424C423.865 20.402 419.996 19.6971 416.102 19.7691V18.4191C420.174 18.3455 424.22 19.0841 428.004 20.5916C431.787 22.0991 435.233 24.3454 438.138 27.1993C441.044 30.0532 443.353 33.4574 444.928 37.2132C446.504 40.969 447.315 45.0011 447.315 49.0741C447.315 53.147 446.504 57.1791 444.928 60.9349C443.353 64.6907 441.044 68.095 438.138 70.9488C435.233 73.8027 431.787 76.049 428.004 77.5565C424.22 79.0641 420.174 79.8026 416.102 79.7291Z" fill="white"/>
<path d="M431.768 49.0793H430.418C430.418 39.1493 425.418 25.8493 415.738 19.6693L416.468 18.5293C426.508 24.9993 431.768 38.7793 431.768 49.0793Z" fill="white"/>
<path d="M416.468 78.7199L415.738 77.5799C425.378 71.3999 430.418 58.0999 430.418 48.1699H431.768C431.768 58.4699 426.508 72.2699 416.468 78.7199Z" fill="white"/>
<path d="M401.791 49.0793H400.441C400.441 38.7693 405.691 24.9693 415.741 18.5293L416.471 19.6593C406.831 25.8493 401.791 39.1393 401.791 49.0793Z" fill="white"/>
<path d="M415.741 78.7102C405.691 72.2602 400.441 58.4602 400.441 48.1602H401.791C401.791 58.1002 406.791 71.3902 416.471 77.5702L415.741 78.7102Z" fill="white"/>
<path d="M416.78 19.0898H415.43V79.0499H416.78V19.0898Z" fill="white"/>
<path d="M441.49 32.4297H390.73V33.7797H441.49V32.4297Z" fill="white"/>
<path d="M446.081 48.9102H386.141V50.2602H446.081V48.9102Z" fill="white"/>
<path d="M440.808 65.3809H391.398V66.7309H440.808V65.3809Z" fill="white"/>
<path d="M95.5917 37.9995C95.6026 35.9665 95.3059 33.9436 94.7117 31.9995L99.9417 27.4095L96.6517 21.7094L90.0617 23.9995C87.2939 21.0241 83.706 18.9361 79.7517 17.9995L78.3817 11.1895H71.8117L70.4517 17.9995C66.4945 18.9359 62.9034 21.0238 60.1317 23.9995L53.5417 21.7694L50.2617 27.4695L55.4817 32.0594C54.3085 35.9428 54.3085 40.0861 55.4817 43.9695L50.2617 48.5495L53.5417 54.2495L60.1317 51.9995C62.9034 54.9751 66.4945 57.063 70.4517 57.9995L71.8117 64.8195H78.3817L79.7517 57.9995C83.706 57.0628 87.2939 54.9748 90.0617 51.9995L96.6517 54.2295L99.9417 48.5294L94.7117 43.9995C95.3043 42.0549 95.6009 40.0323 95.5917 37.9995ZM75.1017 49.0795C72.9929 49.0814 70.931 48.4579 69.1766 47.2878C67.4223 46.1176 66.0544 44.4535 65.246 42.5058C64.4377 40.5581 64.2251 38.4144 64.6353 36.3459C65.0455 34.2774 66.06 32.3771 67.5504 30.8852C69.0409 29.3934 70.9403 28.3771 73.0084 27.965C75.0765 27.5529 77.2204 27.7634 79.1688 28.5699C81.1173 29.3765 82.7827 30.7428 83.9545 32.496C85.1263 34.2493 85.7517 36.3107 85.7517 38.4194C85.753 39.8189 85.4785 41.2048 84.9439 42.4981C84.4093 43.7914 83.625 44.9666 82.6359 45.9566C81.6469 46.9466 80.4724 47.732 79.1796 48.2678C77.8868 48.8037 76.5011 49.0795 75.1017 49.0795Z" fill="#E0E0E0"/>
<path d="M123.788 66.3392C123.787 64.8047 123.561 63.2785 123.118 61.8092L127.118 58.3092L124.618 53.9792L119.618 55.6792C117.51 53.421 114.777 51.8407 111.768 51.1392L110.768 45.9492H105.768L104.768 51.1392C101.757 51.8406 99.0209 53.4207 96.9084 55.6792L91.9084 53.9792L89.3984 58.3092L93.3984 61.8092C92.5049 64.7665 92.5049 67.9219 93.3984 70.8792L89.3984 74.3692L91.9084 78.7092L96.9084 77.0092C99.0209 79.2677 101.757 80.8479 104.768 81.5492L105.768 86.7392H110.768L111.768 81.5492C114.777 80.8477 117.51 79.2674 119.618 77.0092L124.618 78.7092L127.118 74.3692L123.118 70.8792C123.561 69.4065 123.787 67.8771 123.788 66.3392ZM108.178 74.7692C106.572 74.7712 105 74.2964 103.663 73.4049C102.327 72.5134 101.284 71.2454 100.668 69.7612C100.053 68.2771 99.891 66.6436 100.204 65.0675C100.517 63.4915 101.291 62.0437 102.427 60.9075C103.563 59.7713 105.011 58.9978 106.587 58.6848C108.163 58.3718 109.796 58.5334 111.28 59.1492C112.765 59.7651 114.033 60.8074 114.924 62.1442C115.816 63.4811 116.29 65.0524 116.288 66.6592C116.288 68.8101 115.434 70.8729 113.913 72.3939C112.392 73.9148 110.329 74.7692 108.178 74.7692Z" fill="#E0E0E0"/>
<path d="M198.61 40.5599L201.26 35.1699L203.92 40.5499L209.86 41.4099L205.56 45.5999L206.58 51.5099L201.27 48.7199L195.97 51.5199L196.98 45.6099L192.68 41.4199L198.61 40.5599Z" fill="#EBEBEB"/>
<path d="M222.78 40.5599L225.43 35.1699L228.09 40.5499L234.02 41.4099L229.73 45.5999L230.75 51.5099L225.44 48.7199L220.13 51.5199L221.14 45.6099L216.84 41.4199L222.78 40.5599Z" fill="#EBEBEB"/>
<path d="M246.942 40.5599L249.592 35.1699L252.252 40.5499L258.192 41.4099L253.902 45.5999L254.922 51.5099L249.612 48.7199L244.302 51.5199L245.312 45.6099L241.012 41.4199L246.942 40.5599Z" fill="#EBEBEB"/>
<path d="M271.11 40.5599L273.76 35.1699L276.42 40.5499L282.36 41.4099L278.06 45.5999L279.08 51.5099L273.77 48.7199L268.47 51.5199L269.48 45.6099L265.18 41.4199L271.11 40.5599Z" fill="#EBEBEB"/>
<path d="M295.28 40.5599L297.93 35.1699L300.59 40.5499L306.52 41.4099L302.23 45.5999L303.25 51.5099L297.94 48.7199L292.63 51.5199L293.64 45.6099L289.34 41.4199L295.28 40.5599Z" fill="#EBEBEB"/>
<path d="M245.179 368.64C352.262 368.64 439.069 363.572 439.069 357.32C439.069 351.068 352.262 346 245.179 346C138.097 346 51.2891 351.068 51.2891 357.32C51.2891 363.572 138.097 368.64 245.179 368.64Z" fill="#F5F5F5"/>
<path d="M179.66 347.43L179.46 349.73C179.438 350.013 179.469 350.298 179.55 350.57C179.586 350.697 179.64 350.818 179.71 350.93C179.783 351.041 179.863 351.148 179.95 351.25C180.038 351.352 180.139 351.443 180.25 351.52C180.588 351.761 180.994 351.89 181.41 351.89H263.81C264.006 351.89 264.202 351.86 264.39 351.8C264.52 351.76 264.647 351.71 264.77 351.65C265.205 351.437 265.557 351.085 265.77 350.65C265.897 350.408 265.975 350.142 266 349.87L266.19 347.66C266.221 347.396 266.19 347.129 266.1 346.88C266.062 346.765 266.012 346.654 265.95 346.55C265.794 346.288 265.574 346.071 265.31 345.92C265.197 345.858 265.08 345.805 264.96 345.76C264.776 345.7 264.583 345.67 264.39 345.67H243.87C243.611 345.673 243.353 345.649 243.1 345.6L242.81 345.52C242.7 345.489 242.593 345.449 242.49 345.4C242.39 345.368 242.295 345.321 242.21 345.26C242.066 345.185 241.929 345.098 241.8 345C241.644 344.876 241.5 344.739 241.37 344.59C241.3 344.5 241.23 344.42 241.16 344.32L241.02 344.12L240.97 344.04C240.91 343.949 240.86 343.851 240.82 343.75L240.7 343.48C240.704 343.46 240.704 343.44 240.7 343.42C240.706 343.397 240.706 343.373 240.7 343.35C240.67 343.272 240.65 343.192 240.64 343.11C240.629 342.997 240.629 342.883 240.64 342.77C240.64 342.67 240.64 342.56 240.64 342.45C240.64 342.34 240.64 342.24 240.64 342.13V342C240.634 341.893 240.634 341.786 240.64 341.68C240.64 341.56 240.69 341.46 240.71 341.35L248.77 310.43L250.32 304.49L251.53 299.84H204.73L202.22 304.49L199.02 310.43L180.82 344.17C180.76 344.29 180.7 344.41 180.63 344.53L180.45 344.94C180.4 345.08 180.34 345.21 180.29 345.36L180.2 345.64C179.954 346.215 179.773 346.815 179.66 347.43Z" fill="#263238"/>
<path opacity="0.2" d="M266.158 347.68L265.968 349.91C265.917 350.451 265.668 350.953 265.27 351.322C264.871 351.691 264.351 351.9 263.808 351.91H181.428C181.152 351.911 180.878 351.855 180.624 351.744C180.37 351.634 180.142 351.472 179.954 351.269C179.766 351.066 179.623 350.826 179.532 350.565C179.441 350.303 179.406 350.026 179.428 349.75L179.628 347.45C179.681 346.835 179.801 346.228 179.988 345.64C180.158 345.126 180.372 344.627 180.628 344.15L204.548 299.82H251.348L240.528 341.33C240.457 341.568 240.413 341.813 240.398 342.06C240.33 342.88 240.563 343.697 241.055 344.356C241.547 345.016 242.263 345.472 243.068 345.64C243.321 345.699 243.579 345.726 243.838 345.72H264.328C264.582 345.713 264.834 345.761 265.068 345.858C265.301 345.956 265.512 346.103 265.685 346.288C265.858 346.473 265.99 346.693 266.071 346.933C266.153 347.173 266.182 347.428 266.158 347.68Z" fill="white"/>
<path d="M177.999 344.129L201.909 299.789H204.559L180.639 344.129C180.084 345.15 179.744 346.272 179.639 347.429L179.439 349.729C179.409 350.006 179.438 350.286 179.526 350.551C179.614 350.815 179.757 351.058 179.947 351.262C180.137 351.466 180.368 351.626 180.626 351.733C180.883 351.839 181.16 351.889 181.439 351.879H178.789C178.51 351.889 178.233 351.839 177.976 351.733C177.718 351.626 177.487 351.466 177.297 351.262C177.107 351.058 176.964 350.815 176.876 350.551C176.788 350.286 176.759 350.006 176.789 349.729L176.989 347.429C177.093 346.271 177.437 345.147 177.999 344.129Z" fill="#263238"/>
<path opacity="0.3" d="M204.579 299.789H251.369L248.609 310.389H198.859L204.579 299.789Z" fill="black"/>
<path d="M125.18 152.88V297.15C125.178 298.108 125.366 299.057 125.732 299.943C126.098 300.829 126.634 301.633 127.311 302.311C127.988 302.989 128.793 303.527 129.678 303.894C130.563 304.261 131.512 304.45 132.47 304.45H332.14C333.098 304.45 334.047 304.261 334.932 303.894C335.817 303.527 336.621 302.989 337.298 302.311C337.975 301.633 338.512 300.829 338.878 299.943C339.243 299.057 339.431 298.108 339.43 297.15V152.88C339.431 151.921 339.243 150.971 338.877 150.085C338.51 149.199 337.973 148.393 337.295 147.715C336.616 147.037 335.811 146.499 334.925 146.133C334.039 145.767 333.089 145.579 332.13 145.58H132.49C130.884 145.581 129.323 146.112 128.05 147.09C127.871 147.222 127.7 147.366 127.54 147.52C127.048 147.966 126.623 148.482 126.28 149.05C126.038 149.424 125.837 149.823 125.68 150.24C125.355 151.083 125.185 151.977 125.18 152.88Z" fill="#263238"/>
<path d="M339.431 281.549V297.149C339.431 299.085 338.662 300.942 337.293 302.311C335.924 303.68 334.067 304.449 332.131 304.449H132.491C130.555 304.449 128.699 303.68 127.33 302.311C125.961 300.942 125.191 299.085 125.191 297.149V281.549H339.431Z" fill="url(#paint0_linear_439_1528)"/>
<path opacity="0.6" d="M339.431 281.549V297.149C339.431 299.085 338.662 300.942 337.293 302.311C335.924 303.68 334.067 304.449 332.131 304.449H132.491C130.555 304.449 128.699 303.68 127.33 302.311C125.961 300.942 125.191 299.085 125.191 297.149V281.549H339.431Z" fill="white"/>
<path d="M132.621 277.14H332.001C333.062 277.14 334.079 276.719 334.83 275.968C335.58 275.218 336.001 274.201 336.001 273.14V154C336.001 152.939 335.58 151.922 334.83 151.172C334.079 150.421 333.062 150 332.001 150H132.621C131.56 150 130.543 150.421 129.793 151.172C129.043 151.922 128.621 152.939 128.621 154V273.18C128.632 274.234 129.058 275.241 129.807 275.983C130.556 276.724 131.567 277.14 132.621 277.14Z" fill="url(#paint1_linear_439_1528)"/>
<path d="M128.07 145.58H132.49C130.553 145.58 128.697 146.349 127.328 147.718C125.959 149.087 125.19 150.944 125.19 152.88V297.15C125.19 299.086 125.959 300.943 127.328 302.312C128.697 303.681 130.553 304.45 132.49 304.45H128.07C126.133 304.45 124.277 303.681 122.908 302.312C121.539 300.943 120.77 299.086 120.77 297.15V152.88C120.77 150.944 121.539 149.087 122.908 147.718C124.277 146.349 126.133 145.58 128.07 145.58Z" fill="#263238"/>
<g opacity="0.2">
<path d="M128.07 145.58H132.49C130.553 145.58 128.697 146.349 127.328 147.718C125.959 149.087 125.19 150.944 125.19 152.88V297.15C125.19 299.086 125.959 300.943 127.328 302.312C128.697 303.681 130.553 304.45 132.49 304.45H128.07C126.133 304.45 124.277 303.681 122.908 302.312C121.539 300.943 120.77 299.086 120.77 297.15V152.88C120.77 150.944 121.539 149.087 122.908 147.718C124.277 146.349 126.133 145.58 128.07 145.58Z" fill="white"/>
</g>
<path opacity="0.5" d="M337.179 225.919C332.039 224.919 323.899 228.249 322.379 233.249C322.55 231.723 322.278 230.179 321.595 228.803C320.913 227.427 319.848 226.277 318.529 225.489C315.879 223.959 312.409 222.879 309.969 224.719C311.126 219.805 310.891 214.666 309.291 209.877C307.69 205.089 304.788 200.841 300.909 197.609C293.089 191.279 281.679 190.609 272.649 195.019C273.954 192.512 274.694 189.749 274.818 186.925C274.942 184.101 274.446 181.284 273.365 178.672C272.285 176.06 270.646 173.716 268.563 171.805C266.48 169.894 264.004 168.462 261.309 167.609C248.749 163.235 235.317 161.962 222.159 163.899C214.549 165.019 206.789 167.399 201.259 172.739C195.729 178.079 194.259 187.739 197.979 194.469C193.687 193.083 189.096 192.899 184.707 193.937C180.317 194.975 176.296 197.197 173.079 200.359C169.978 203.598 167.831 207.63 166.873 212.011C165.915 216.391 166.183 220.951 167.649 225.189C166.469 224.489 165.133 224.095 163.762 224.042C162.391 223.99 161.029 224.281 159.799 224.889C158.588 225.504 157.553 226.416 156.792 227.541C156.031 228.666 155.569 229.966 155.449 231.319C153.85 229.209 151.768 227.513 149.377 226.376C146.986 225.238 144.357 224.691 141.711 224.781C139.065 224.871 136.479 225.596 134.171 226.894C131.863 228.192 129.901 230.025 128.449 232.239V277.139H335.999L337.179 225.919Z" fill="white"/>
<path d="M290.93 206.209H184.01C178.57 206.209 174.16 210.619 174.16 216.059C174.16 221.499 178.57 225.909 184.01 225.909H290.93C296.37 225.909 300.78 221.499 300.78 216.059C300.78 210.619 296.37 206.209 290.93 206.209Z" fill="white"/>
<path d="M183.398 219.829C182.247 219.829 181.122 219.488 180.165 218.849C179.208 218.209 178.462 217.3 178.021 216.237C177.581 215.173 177.465 214.003 177.69 212.874C177.915 211.745 178.469 210.708 179.283 209.894C180.097 209.08 181.134 208.526 182.263 208.301C183.392 208.077 184.562 208.192 185.625 208.632C186.689 209.073 187.598 209.819 188.237 210.776C188.877 211.733 189.218 212.858 189.218 214.009C189.215 215.552 188.601 217.031 187.511 218.122C186.42 219.213 184.941 219.827 183.398 219.829ZM183.398 211.189C182.84 211.189 182.295 211.355 181.831 211.665C181.368 211.975 181.006 212.415 180.793 212.93C180.579 213.446 180.523 214.013 180.632 214.56C180.741 215.107 181.01 215.609 181.404 216.003C181.798 216.398 182.301 216.666 182.848 216.775C183.395 216.884 183.962 216.828 184.477 216.615C184.993 216.401 185.433 216.04 185.743 215.576C186.053 215.112 186.218 214.567 186.218 214.009C186.215 213.262 185.918 212.547 185.389 212.018C184.861 211.49 184.145 211.192 183.398 211.189Z" fill="#263238"/>
<path d="M187.427 216.077L185.305 218.197L192.194 225.096L194.317 222.977L187.427 216.077Z" fill="#263238"/>
<g opacity="0.1">
<path d="M268.469 149.99H276.129L292.039 277.14H284.369L268.469 149.99Z" fill="white"/>
<path d="M299.791 277.14L283.891 149.99H312.701L328.601 277.14H299.791Z" fill="white"/>
</g>
<path opacity="0.2" d="M193.868 347.7L193.688 349.81C193.658 350.074 193.685 350.342 193.766 350.595C193.848 350.848 193.983 351.081 194.162 351.278C194.341 351.475 194.559 351.631 194.804 351.737C195.048 351.842 195.312 351.894 195.578 351.89H263.808C264.35 351.88 264.871 351.671 265.269 351.302C265.667 350.933 265.916 350.43 265.968 349.89L266.158 347.68C266.189 347.426 266.166 347.168 266.089 346.924C266.012 346.679 265.883 346.455 265.711 346.265C265.539 346.075 265.329 345.925 265.093 345.824C264.858 345.723 264.604 345.674 264.348 345.68H243.858C243.602 345.681 243.346 345.651 243.098 345.59H196.098C195.533 345.609 194.994 345.835 194.584 346.223C194.173 346.612 193.918 347.137 193.868 347.7Z" fill="white"/>
<path opacity="0.2" d="M180 345.619H243.1C242.293 345.455 241.576 344.999 241.085 344.338C240.594 343.677 240.364 342.859 240.44 342.039H182L180 345.619Z" fill="black"/>
<path d="M212.27 194.389L213.65 191.319C215.358 192.501 217.382 193.142 219.46 193.159C221.87 193.159 222.85 192.349 222.85 191.269C222.85 187.979 212.62 190.269 212.62 183.709C212.62 180.709 215.03 178.229 220.03 178.229C222.17 178.185 224.282 178.724 226.14 179.789L224.88 182.879C223.4 182.003 221.718 181.528 220 181.499C217.59 181.499 216.66 182.399 216.66 183.499C216.66 186.739 226.89 184.499 226.89 190.959C226.89 193.899 224.45 196.419 219.42 196.419C216.886 196.482 214.392 195.775 212.27 194.389Z" fill="#263238"/>
<path d="M243.311 192.859V196.119H229.691V178.529H243.001V181.799H233.751V185.619H241.921V188.789H233.751V192.859H243.311Z" fill="#263238"/>
<path d="M245.398 187.33C245.398 182.1 249.468 178.23 255.018 178.23C260.568 178.23 264.648 182.08 264.648 187.33C264.648 192.58 260.548 196.43 255.018 196.43C249.488 196.43 245.398 192.56 245.398 187.33ZM260.528 187.33C260.497 186.249 260.148 185.201 259.524 184.316C258.901 183.432 258.031 182.75 257.023 182.357C256.015 181.964 254.914 181.876 253.856 182.105C252.799 182.334 251.832 182.869 251.076 183.643C250.321 184.418 249.81 185.398 249.608 186.461C249.406 187.524 249.521 188.623 249.939 189.621C250.357 190.618 251.06 191.471 251.96 192.072C252.86 192.673 253.916 192.996 254.998 193C255.743 193.024 256.484 192.892 257.175 192.614C257.866 192.335 258.491 191.916 259.011 191.383C259.531 190.849 259.935 190.214 260.196 189.516C260.457 188.818 260.57 188.074 260.528 187.33Z" fill="#263238"/>
<path opacity="0.8" d="M232.218 238.84H190.018C187.892 238.84 186.168 240.564 186.168 242.69V251.61C186.168 253.736 187.892 255.46 190.018 255.46H232.218C234.344 255.46 236.068 253.736 236.068 251.61V242.69C236.068 240.564 234.344 238.84 232.218 238.84Z" fill="white"/>
<path opacity="0.8" d="M293.421 238.84H251.221C249.095 238.84 247.371 240.564 247.371 242.69V251.61C247.371 253.736 249.095 255.46 251.221 255.46H293.421C295.547 255.46 297.271 253.736 297.271 251.61V242.69C297.271 240.564 295.547 238.84 293.421 238.84Z" fill="white"/>
<path d="M209.92 155.659L234.71 111.659C234.797 111.505 234.923 111.377 235.076 111.288C235.229 111.199 235.403 111.152 235.58 111.152C235.757 111.152 235.93 111.199 236.083 111.288C236.236 111.377 236.362 111.505 236.45 111.659L261.24 155.659C261.323 155.811 261.365 155.982 261.362 156.155C261.36 156.328 261.312 156.497 261.224 156.646C261.137 156.795 261.012 156.919 260.862 157.005C260.712 157.092 260.543 157.138 260.37 157.139H210.8C210.626 157.14 210.455 157.095 210.304 157.009C210.152 156.923 210.026 156.8 209.937 156.65C209.849 156.501 209.8 156.331 209.797 156.157C209.794 155.983 209.836 155.812 209.92 155.659Z" fill="url(#paint2_linear_439_1528)"/>
<path opacity="0.3" d="M209.92 155.659L234.71 111.659C234.797 111.505 234.923 111.377 235.076 111.288C235.229 111.199 235.403 111.152 235.58 111.152C235.757 111.152 235.93 111.199 236.083 111.288C236.236 111.377 236.362 111.505 236.45 111.659L261.24 155.659C261.323 155.811 261.365 155.982 261.362 156.155C261.36 156.328 261.312 156.497 261.224 156.646C261.137 156.795 261.012 156.919 260.862 157.005C260.712 157.092 260.543 157.138 260.37 157.139H210.8C210.626 157.14 210.455 157.095 210.304 157.009C210.152 156.923 210.026 156.8 209.937 156.65C209.849 156.501 209.8 156.331 209.797 156.157C209.794 155.983 209.836 155.812 209.92 155.659Z" fill="black"/>
<path d="M223.801 163.729L222.591 158.789H218.251L217.051 163.729C219.212 164.624 221.64 164.624 223.801 163.729Z" fill="#263238"/>
<path opacity="0.2" d="M218.249 158.789L217.969 159.939C219.568 160.409 221.269 160.409 222.869 159.939L222.589 158.789H218.249Z" fill="white"/>
<path opacity="0.4" d="M217.671 161.18C217.591 161.5 217.511 161.81 217.441 162.11C219.394 162.724 221.489 162.724 223.441 162.11L223.221 161.18C221.39 161.55 219.503 161.55 217.671 161.18Z" fill="white"/>
<path d="M225 158.44C222.067 159.651 218.773 159.651 215.84 158.44V121.74C215.837 119.685 216.24 117.651 217.026 115.753C217.812 113.855 218.965 112.131 220.42 110.68C221.874 112.131 223.028 113.855 223.814 115.753C224.6 117.651 225.003 119.685 225 121.74V158.44Z" fill="url(#paint3_linear_439_1528)"/>
<path d="M215.84 121.74V156.33C218.805 157.365 222.034 157.365 225 156.33V121.74C225.003 119.685 224.6 117.651 223.814 115.753C223.028 113.855 221.874 112.131 220.42 110.68C218.965 112.131 217.812 113.855 217.026 115.753C216.24 117.651 215.837 119.685 215.84 121.74Z" fill="url(#paint4_linear_439_1528)"/>
<path opacity="0.4" d="M215.84 121.74V156.33C218.805 157.365 222.034 157.365 225 156.33V121.74C225.003 119.685 224.6 117.651 223.814 115.753C223.028 113.855 221.874 112.131 220.42 110.68C218.965 112.131 217.812 113.855 217.026 115.753C216.24 117.651 215.837 119.685 215.84 121.74Z" fill="white"/>
<path d="M215.84 121.74V147.74C218.833 148.595 222.006 148.595 225 147.74V121.74C225.003 119.685 224.6 117.651 223.814 115.753C223.028 113.855 221.874 112.131 220.42 110.68C218.965 112.131 217.812 113.855 217.026 115.753C216.24 117.651 215.837 119.685 215.84 121.74Z" fill="url(#paint5_linear_439_1528)"/>
<path opacity="0.6" d="M215.84 121.74V147.74C218.833 148.595 222.006 148.595 225 147.74V121.74C225.003 119.685 224.6 117.651 223.814 115.753C223.028 113.855 221.874 112.131 220.42 110.68C218.965 112.131 217.812 113.855 217.026 115.753C216.24 117.651 215.837 119.685 215.84 121.74Z" fill="white"/>
<path d="M215.84 121.74V135.34C218.833 136.2 222.007 136.2 225 135.34V121.74C225.003 119.685 224.6 117.651 223.814 115.753C223.028 113.855 221.874 112.131 220.42 110.68C218.965 112.131 217.812 113.855 217.026 115.753C216.24 117.651 215.837 119.685 215.84 121.74Z" fill="url(#paint6_linear_439_1528)"/>
<path opacity="0.8" d="M215.84 121.74V135.34C218.833 136.2 222.007 136.2 225 135.34V121.74C225.003 119.685 224.6 117.651 223.814 115.753C223.028 113.855 221.874 112.131 220.42 110.68C218.965 112.131 217.812 113.855 217.026 115.753C216.24 117.651 215.837 119.685 215.84 121.74Z" fill="white"/>
<path d="M215.84 121.74V123.33C218.833 124.185 222.006 124.185 225 123.33V121.74C225.003 119.685 224.6 117.651 223.814 115.753C223.028 113.855 221.874 112.131 220.42 110.68C218.965 112.131 217.812 113.855 217.026 115.753C216.24 117.651 215.837 119.685 215.84 121.74Z" fill="url(#paint7_linear_439_1528)"/>
<path opacity="0.4" d="M215.84 121.74V123.33C218.833 124.185 222.006 124.185 225 123.33V121.74C225.003 119.685 224.6 117.651 223.814 115.753C223.028 113.855 221.874 112.131 220.42 110.68C218.965 112.131 217.812 113.855 217.026 115.753C216.24 117.651 215.837 119.685 215.84 121.74Z" fill="white"/>
<path d="M253.27 163.729L252.07 158.789H247.73L246.52 163.729C248.681 164.624 251.109 164.624 253.27 163.729Z" fill="#263238"/>
<path opacity="0.2" d="M247.729 158.789L247.449 159.939C249.049 160.409 250.75 160.409 252.349 159.939L252.069 158.789H247.729Z" fill="white"/>
<path opacity="0.4" d="M247.138 161.18C247.068 161.5 246.988 161.81 246.918 162.11C248.871 162.724 250.965 162.724 252.918 162.11L252.688 161.18C250.857 161.55 248.969 161.55 247.138 161.18Z" fill="white"/>
<path d="M254.48 158.44C251.547 159.651 248.254 159.651 245.32 158.44V121.74C245.317 119.685 245.72 117.651 246.506 115.753C247.292 113.855 248.446 112.131 249.9 110.68C251.355 112.131 252.508 113.855 253.294 115.753C254.08 117.651 254.483 119.685 254.48 121.74V158.44Z" fill="url(#paint8_linear_439_1528)"/>
<path d="M245.32 121.74V156.33C248.286 157.365 251.515 157.365 254.48 156.33V121.74C254.483 119.685 254.08 117.651 253.294 115.753C252.508 113.855 251.355 112.131 249.9 110.68C248.446 112.131 247.292 113.855 246.506 115.753C245.72 117.651 245.317 119.685 245.32 121.74Z" fill="url(#paint9_linear_439_1528)"/>
<path opacity="0.4" d="M245.32 121.74V156.33C248.286 157.365 251.515 157.365 254.48 156.33V121.74C254.483 119.685 254.08 117.651 253.294 115.753C252.508 113.855 251.355 112.131 249.9 110.68C248.446 112.131 247.292 113.855 246.506 115.753C245.72 117.651 245.317 119.685 245.32 121.74Z" fill="white"/>
<path d="M245.32 121.74V147.74C248.314 148.595 251.487 148.595 254.48 147.74V121.74C254.483 119.685 254.08 117.651 253.294 115.753C252.508 113.855 251.355 112.131 249.9 110.68C248.446 112.131 247.292 113.855 246.506 115.753C245.72 117.651 245.317 119.685 245.32 121.74Z" fill="url(#paint10_linear_439_1528)"/>
<path opacity="0.6" d="M245.32 121.74V147.74C248.314 148.595 251.487 148.595 254.48 147.74V121.74C254.483 119.685 254.08 117.651 253.294 115.753C252.508 113.855 251.355 112.131 249.9 110.68C248.446 112.131 247.292 113.855 246.506 115.753C245.72 117.651 245.317 119.685 245.32 121.74Z" fill="white"/>
<path d="M245.32 121.74V135.34C248.313 136.2 251.488 136.2 254.48 135.34V121.74C254.483 119.685 254.08 117.651 253.294 115.753C252.508 113.855 251.355 112.131 249.9 110.68C248.446 112.131 247.292 113.855 246.506 115.753C245.72 117.651 245.317 119.685 245.32 121.74Z" fill="url(#paint11_linear_439_1528)"/>
<path opacity="0.8" d="M245.32 121.74V135.34C248.313 136.2 251.488 136.2 254.48 135.34V121.74C254.483 119.685 254.08 117.651 253.294 115.753C252.508 113.855 251.355 112.131 249.9 110.68C248.446 112.131 247.292 113.855 246.506 115.753C245.72 117.651 245.317 119.685 245.32 121.74Z" fill="white"/>
<path d="M245.32 121.74V123.33C248.314 124.185 251.487 124.185 254.48 123.33V121.74C254.483 119.685 254.08 117.651 253.294 115.753C252.508 113.855 251.355 112.131 249.9 110.68C248.446 112.131 247.292 113.855 246.506 115.753C245.72 117.651 245.317 119.685 245.32 121.74Z" fill="url(#paint12_linear_439_1528)"/>
<path opacity="0.4" d="M245.32 121.74V123.33C248.314 124.185 251.487 124.185 254.48 123.33V121.74C254.483 119.685 254.08 117.651 253.294 115.753C252.508 113.855 251.355 112.131 249.9 110.68C248.446 112.131 247.292 113.855 246.506 115.753C245.72 117.651 245.317 119.685 245.32 121.74Z" fill="white"/>
<path d="M240.61 166.561L238.61 158.561H231.61L229.66 166.561C231.394 167.288 233.255 167.663 235.135 167.663C237.015 167.663 238.876 167.288 240.61 166.561Z" fill="#263238"/>
<path opacity="0.2" d="M231.659 158.59C231.659 158.59 231.369 159.79 231.199 160.45C233.785 161.205 236.533 161.205 239.119 160.45L238.659 158.58L231.659 158.59Z" fill="white"/>
<path opacity="0.4" d="M230.708 162.459L230.348 163.959C233.481 164.929 236.834 164.929 239.968 163.959L239.608 162.459C236.669 163.038 233.646 163.038 230.708 162.459Z" fill="white"/>
<path d="M242.558 158C240.213 158.978 237.698 159.481 235.158 159.481C232.617 159.481 230.102 158.978 227.758 158V98.7797C227.755 95.4636 228.407 92.1796 229.677 89.1163C230.947 86.053 232.809 83.2708 235.158 80.9297C237.506 83.2708 239.369 86.053 240.639 89.1163C241.909 92.1796 242.561 95.4636 242.558 98.7797V158Z" fill="url(#paint13_linear_439_1528)"/>
<path d="M227.758 98.7797V154.63C232.551 156.29 237.764 156.29 242.558 154.63V98.7797C242.561 95.4636 241.909 92.1796 240.639 89.1163C239.369 86.053 237.506 83.2708 235.158 80.9297C232.809 83.2708 230.947 86.053 229.677 89.1163C228.407 92.1796 227.755 95.4636 227.758 98.7797Z" fill="url(#paint14_linear_439_1528)"/>
<path opacity="0.4" d="M227.758 98.7797V154.63C232.551 156.29 237.764 156.29 242.558 154.63V98.7797C242.561 95.4636 241.909 92.1796 240.639 89.1163C239.369 86.053 237.506 83.2708 235.158 80.9297C232.809 83.2708 230.947 86.053 229.677 89.1163C228.407 92.1796 227.755 95.4636 227.758 98.7797Z" fill="white"/>
<path d="M227.758 98.7797V140.72C232.595 142.098 237.721 142.098 242.558 140.72V98.7797C242.561 95.4636 241.909 92.1796 240.639 89.1163C239.369 86.053 237.506 83.2708 235.158 80.9297C232.809 83.2708 230.947 86.053 229.677 89.1163C228.407 92.1796 227.755 95.4636 227.758 98.7797Z" fill="url(#paint15_linear_439_1528)"/>
<path opacity="0.6" d="M227.758 98.7797V140.72C232.595 142.098 237.721 142.098 242.558 140.72V98.7797C242.561 95.4636 241.909 92.1796 240.639 89.1163C239.369 86.053 237.506 83.2708 235.158 80.9297C232.809 83.2708 230.947 86.053 229.677 89.1163C228.407 92.1796 227.755 95.4636 227.758 98.7797Z" fill="white"/>
<path d="M227.758 98.7797V120.78C232.595 122.158 237.721 122.158 242.558 120.78V98.7797C242.561 95.4636 241.909 92.1796 240.639 89.1163C239.369 86.053 237.506 83.2708 235.158 80.9297C232.809 83.2708 230.947 86.053 229.677 89.1163C228.407 92.1796 227.755 95.4636 227.758 98.7797Z" fill="url(#paint16_linear_439_1528)"/>
<path opacity="0.8" d="M227.758 98.7797V120.78C232.595 122.158 237.721 122.158 242.558 120.78V98.7797C242.561 95.4636 241.909 92.1796 240.639 89.1163C239.369 86.053 237.506 83.2708 235.158 80.9297C232.809 83.2708 230.947 86.053 229.677 89.1163C228.407 92.1796 227.755 95.4636 227.758 98.7797Z" fill="white"/>
<path d="M227.758 98.7797V101.35C232.595 102.728 237.721 102.728 242.558 101.35V98.7797C242.561 95.4636 241.909 92.1796 240.639 89.1163C239.369 86.053 237.506 83.2708 235.158 80.9297C232.809 83.2708 230.947 86.053 229.677 89.1163C228.407 92.1796 227.755 95.4636 227.758 98.7797Z" fill="url(#paint17_linear_439_1528)"/>
<path opacity="0.1" d="M227.758 98.7797V101.35C232.595 102.728 237.721 102.728 242.558 101.35V98.7797C242.561 95.4636 241.909 92.1796 240.639 89.1163C239.369 86.053 237.506 83.2708 235.158 80.9297C232.809 83.2708 230.947 86.053 229.677 89.1163C228.407 92.1796 227.755 95.4636 227.758 98.7797Z" fill="white"/>
<path d="M239.468 110.63C239.47 111.483 239.219 112.317 238.746 113.027C238.274 113.737 237.601 114.291 236.814 114.619C236.027 114.947 235.16 115.034 234.323 114.868C233.486 114.703 232.717 114.294 232.114 113.691C231.51 113.089 231.098 112.321 230.931 111.485C230.764 110.648 230.849 109.781 231.175 108.993C231.501 108.205 232.053 107.531 232.762 107.057C233.471 106.583 234.305 106.33 235.158 106.33C236.299 106.33 237.394 106.783 238.202 107.589C239.01 108.395 239.465 109.489 239.468 110.63Z" fill="url(#paint18_linear_439_1528)"/>
<path d="M235.161 114.939C234.072 114.942 233.022 114.53 232.226 113.787C231.429 113.044 230.945 112.026 230.871 110.939C230.871 111.049 230.871 111.159 230.871 111.259C230.871 112.403 231.325 113.499 232.133 114.307C232.942 115.115 234.038 115.569 235.181 115.569C236.324 115.569 237.42 115.115 238.229 114.307C239.037 113.499 239.491 112.403 239.491 111.259C239.491 111.159 239.491 111.049 239.491 110.939C239.415 112.032 238.924 113.055 238.119 113.798C237.315 114.542 236.257 114.95 235.161 114.939Z" fill="url(#paint19_linear_439_1528)"/>
<path opacity="0.3" d="M235.161 114.939C234.072 114.942 233.022 114.53 232.226 113.787C231.429 113.044 230.945 112.026 230.871 110.939C230.871 111.049 230.871 111.159 230.871 111.259C230.871 112.403 231.325 113.499 232.133 114.307C232.942 115.115 234.038 115.569 235.181 115.569C236.324 115.569 237.42 115.115 238.229 114.307C239.037 113.499 239.491 112.403 239.491 111.259C239.491 111.159 239.491 111.049 239.491 110.939C239.415 112.032 238.924 113.055 238.119 113.798C237.315 114.542 236.257 114.95 235.161 114.939Z" fill="black"/>
<path d="M235.159 113.68C236.844 113.68 238.209 112.315 238.209 110.63C238.209 108.946 236.844 107.58 235.159 107.58C233.475 107.58 232.109 108.946 232.109 110.63C232.109 112.315 233.475 113.68 235.159 113.68Z" fill="white"/>
<path d="M235 113.66L236.25 107.8C235.931 107.674 235.593 107.606 235.25 107.6L234 113.45C234.318 113.579 234.657 113.65 235 113.66Z" fill="url(#paint20_linear_439_1528)"/>
<path d="M236.138 113.511L237.218 108.401C237.079 108.273 236.928 108.159 236.768 108.061L235.578 113.641C235.768 113.613 235.955 113.569 236.138 113.511Z" fill="url(#paint21_linear_439_1528)"/>
<g opacity="0.7">
<path d="M235 113.66L236.25 107.8C235.931 107.674 235.593 107.606 235.25 107.6L234 113.45C234.318 113.579 234.657 113.65 235 113.66Z" fill="white"/>
<path d="M236.138 113.511L237.218 108.401C237.079 108.273 236.928 108.159 236.768 108.061L235.578 113.641C235.768 113.613 235.955 113.569 236.138 113.511Z" fill="white"/>
</g>
<path d="M364.09 122.94V122.83C364.095 122.867 364.095 122.904 364.09 122.94Z" fill="url(#paint22_linear_439_1528)"/>
<path d="M316.998 110.28C313.575 113.434 311.069 117.457 309.748 121.92H307.918C308.551 116.896 310.431 112.111 313.388 108L316.998 110.28Z" fill="url(#paint23_linear_439_1528)"/>
<path opacity="0.6" d="M316.998 110.28C313.575 113.434 311.069 117.457 309.748 121.92H307.918C308.551 116.896 310.431 112.111 313.388 108L316.998 110.28Z" fill="white"/>
<path d="M327.601 104.29C323.64 105.417 320.005 107.474 317.001 110.29L313.391 108C316.337 103.877 320.216 100.509 324.711 98.1699L327.601 104.29Z" fill="url(#paint24_linear_439_1528)"/>
<path opacity="0.5" d="M327.601 104.29C323.64 105.417 320.005 107.474 317.001 110.29L313.391 108C316.337 103.877 320.216 100.509 324.711 98.1699L327.601 104.29Z" fill="white"/>
<path d="M338.827 94.8008L337.937 103.731C336.659 103.508 335.364 103.398 334.067 103.401C331.88 103.403 329.703 103.702 327.597 104.291L324.707 98.1908C328.935 95.9757 333.634 94.8128 338.407 94.8008H338.827Z" fill="url(#paint25_linear_439_1528)"/>
<path opacity="0.4" d="M338.827 94.8008L337.937 103.731C336.659 103.508 335.364 103.398 334.067 103.401C331.88 103.403 329.703 103.702 327.597 104.291L324.707 98.1908C328.935 95.9757 333.634 94.8128 338.407 94.8008H338.827Z" fill="white"/>
<path d="M352.207 98.5908L346.378 107.141C343.847 105.401 340.966 104.237 337.938 103.731L338.827 94.8008C343.548 94.8343 348.171 96.1439 352.207 98.5908Z" fill="url(#paint26_linear_439_1528)"/>
<path opacity="0.3" d="M352.207 98.5908L346.378 107.141C343.847 105.401 340.966 104.237 337.938 103.731L338.827 94.8008C343.548 94.8343 348.171 96.1439 352.207 98.5908Z" fill="white"/>
<path d="M361.459 108.67L352.359 113.54C350.846 110.997 348.799 108.814 346.359 107.14L352.189 98.5898C356.157 101.022 359.368 104.513 361.459 108.67Z" fill="url(#paint27_linear_439_1528)"/>
<path opacity="0.2" d="M361.459 108.67L352.359 113.54C350.846 110.997 348.799 108.814 346.359 107.14L352.189 98.5898C356.157 101.022 359.368 104.513 361.459 108.67Z" fill="white"/>
<path d="M364.119 122.57L355.219 122.47C354.941 119.318 353.964 116.267 352.359 113.54L361.459 108.67C363.593 112.975 364.513 117.781 364.119 122.57Z" fill="url(#paint28_linear_439_1528)"/>
<path opacity="0.1" d="M364.119 122.57L355.219 122.47C354.941 119.318 353.964 116.267 352.359 113.54L361.459 108.67C363.593 112.975 364.513 117.781 364.119 122.57Z" fill="white"/>
<path d="M364.1 122.831C364.104 122.867 364.104 122.904 364.1 122.941C363.74 126.07 362.942 129.133 361.73 132.041L354.52 130.411L355.1 127.661C355.15 127.301 355.2 126.941 355.23 126.581V126.361C355.345 125.067 355.345 123.765 355.23 122.471L364.13 122.571C364.13 122.631 364.13 122.671 364.13 122.721C364.125 122.759 364.115 122.796 364.1 122.831Z" fill="url(#paint29_linear_439_1528)"/>
<path d="M308.999 131.47L308.469 131.59C308.299 130.9 308.159 130.2 308.039 129.49C307.702 127.324 307.621 125.126 307.799 122.94V122.83C307.794 122.794 307.794 122.757 307.799 122.72C307.799 122.45 307.849 122.17 307.889 121.9H309.719C309.294 123.35 309.006 124.837 308.859 126.34C308.859 126.34 308.859 126.41 308.859 126.45C308.859 126.49 308.859 126.52 308.859 126.56C308.792 127.449 308.776 128.34 308.809 129.23C308.849 130 308.909 130.74 308.999 131.47Z" fill="url(#paint30_linear_439_1528)"/>
<path opacity="0.7" d="M308.999 131.47L308.469 131.59C308.299 130.9 308.159 130.2 308.039 129.49C307.702 127.324 307.621 125.126 307.799 122.94V122.83C307.794 122.794 307.794 122.757 307.799 122.72C307.799 122.45 307.849 122.17 307.889 121.9H309.719C309.294 123.35 309.006 124.837 308.859 126.34C308.859 126.34 308.859 126.41 308.859 126.45C308.859 126.49 308.859 126.52 308.859 126.56C308.792 127.449 308.776 128.34 308.809 129.23C308.849 130 308.909 130.74 308.999 131.47Z" fill="white"/>
<path d="M363.517 130.001L362.758 131.881L361.217 131.541L346.867 128.291L340.688 126.891C341.116 126.335 341.473 125.727 341.747 125.081C342.062 124.327 342.251 123.526 342.307 122.711L356.008 127.421L363.517 130.001Z" fill="#263238"/>
<path d="M342.311 122.731C342.196 124.254 341.632 125.709 340.691 126.911L335.141 125.651L336.891 120.871L342.311 122.731Z" fill="#263238"/>
<path d="M342.307 122.73C342.192 124.253 341.629 125.708 340.687 126.91C339.998 127.79 339.133 128.515 338.147 129.04C334.577 130.95 330.367 129.75 328.757 126.34C328.018 124.585 327.973 122.615 328.63 120.828C329.287 119.04 330.597 117.569 332.297 116.71C335.867 114.8 340.077 116.01 341.697 119.41C342.183 120.446 342.393 121.59 342.307 122.73Z" fill="url(#paint31_linear_439_1528)"/>
<path d="M114.48 118.5H120.21V123.3H113.91L113.03 130.3H108.03L108.91 123.3H102.44L101.56 130.3H96.6595L97.5395 123.3H91.7695V118.5H98.1095L99.0295 111.37H93.2695V106.57H99.6095L100.49 99.5703H105.42L104.54 106.57H111L111.88 99.5703H116.81L115.93 106.57H121.65V111.37H115.31L114.48 118.5ZM109.48 118.5L110.4 111.37H104L103 118.5H109.48Z" fill="url(#paint32_linear_439_1528)"/>
<path d="M136.181 99.5195V130.34H129.051V105.25H122.891V99.5195H136.181Z" fill="url(#paint33_linear_439_1528)"/>
<path d="M109.458 227.689H60.1484V261.639H109.458V227.689Z" fill="#263238"/>
<path d="M109.458 227.689H60.1484V230.799H109.458V227.689Z" fill="url(#paint34_linear_439_1528)"/>
<path d="M69.1787 246.469L77.2487 250.939C77.5509 251.087 77.8224 251.291 78.0487 251.539C78.19 251.737 78.2605 251.977 78.2487 252.219C78.2511 252.388 78.2196 252.556 78.1561 252.712C78.0925 252.868 77.9982 253.01 77.8787 253.129C77.766 253.25 77.6297 253.346 77.4783 253.411C77.3269 253.477 77.1636 253.51 76.9987 253.509C76.6424 253.467 76.3004 253.344 75.9987 253.149L65.5987 247.359C65.4349 247.276 65.2975 247.148 65.2015 246.991C65.1055 246.834 65.0547 246.653 65.0547 246.469C65.0547 246.285 65.1055 246.105 65.2015 245.948C65.2975 245.791 65.4349 245.663 65.5987 245.579L75.9987 239.789C76.3028 239.602 76.644 239.482 76.9987 239.439C77.333 239.445 77.652 239.58 77.8874 239.818C78.1229 240.055 78.2562 240.375 78.2587 240.709C78.2773 240.953 78.2062 241.195 78.0587 241.389C77.8361 241.645 77.564 241.852 77.2587 241.999L69.1787 246.469Z" fill="white"/>
<path d="M89.9272 238.14L81.9272 255.329C81.8065 255.646 81.6189 255.932 81.3772 256.17C81.1625 256.343 80.8933 256.435 80.6172 256.429C80.4533 256.43 80.2909 256.397 80.1398 256.333C79.9887 256.27 79.8518 256.177 79.7372 256.059C79.6217 255.956 79.5291 255.83 79.4654 255.689C79.4017 255.547 79.3682 255.394 79.3672 255.239C79.3965 254.89 79.4951 254.55 79.6572 254.239L87.6572 237.059C87.7789 236.746 87.9625 236.46 88.1972 236.219C88.4349 236.036 88.7312 235.945 89.031 235.963C89.3308 235.982 89.6137 236.108 89.8272 236.319C89.9432 236.422 90.0361 236.549 90.0998 236.69C90.1636 236.831 90.1968 236.984 90.1972 237.14C90.1741 237.487 90.0823 237.827 89.9272 238.14Z" fill="white"/>
<path d="M99.9977 246.469L91.8977 241.999C91.5881 241.855 91.3122 241.647 91.0877 241.389C90.9478 241.191 90.8775 240.952 90.8877 240.709C90.8852 240.543 90.9177 240.377 90.9831 240.224C91.0486 240.071 91.1455 239.933 91.2677 239.819C91.3804 239.699 91.5167 239.603 91.6681 239.538C91.8195 239.472 91.9828 239.439 92.1477 239.439C92.5028 239.481 92.8443 239.6 93.1477 239.789L103.548 245.579C103.711 245.663 103.849 245.791 103.945 245.948C104.041 246.105 104.092 246.285 104.092 246.469C104.092 246.654 104.041 246.834 103.945 246.991C103.849 247.148 103.711 247.276 103.548 247.359L93.1477 253.149C92.8465 253.345 92.5043 253.468 92.1477 253.509C91.9814 253.51 91.8167 253.476 91.6638 253.411C91.5108 253.345 91.3726 253.25 91.2577 253.129C91.0201 252.886 90.8873 252.56 90.8877 252.219C90.8804 251.977 90.9505 251.739 91.0877 251.539C91.3161 251.289 91.5913 251.085 91.8977 250.939L99.9977 246.469Z" fill="white"/>
<path d="M319.949 257.106C318.076 254.883 317.389 253.154 317.127 251.486C316.865 249.819 315.941 227.628 325.869 218.824C328.035 216.901 329.846 218.443 331.332 220.616C336.328 227.896 340.268 228.24 341.061 229.982C341.854 231.724 319.949 257.106 319.949 257.106Z" fill="#E0E0E0"/>
<path d="M328.363 228.128C326.546 229.377 325.316 236.67 326.621 240.391C326.852 241.059 332.828 234.266 332.947 233.585C333.065 232.904 332.197 232.23 330.83 230.226C329.75 228.646 329.119 227.591 328.363 228.128Z" fill="#FF9BBC"/>
<path d="M358.492 229.142C358.911 227.268 361.695 223.572 369.17 219.445C375.126 216.16 379.422 215.923 381.064 216.529C383.15 217.303 382.476 222.66 382.351 229.441C382.226 236.222 383.337 244.427 382.6 244.877C381.864 245.326 358.492 229.142 358.492 229.142Z" fill="#E0E0E0"/>
<path d="M377.297 224.876C376.004 224.601 370.303 227.761 369.916 229.871C369.785 230.558 375.935 234.43 376.535 234.105C377.134 233.78 377.097 231.064 377.496 228.666C377.827 226.649 378.202 225.07 377.297 224.876Z" fill="#FF9BBC"/>
<path d="M403.317 306.111C412.015 304.107 420.713 305.73 425.446 311.4C429.505 316.264 427.638 325.811 424.197 330.969C424.197 330.969 437.99 332.174 441.025 337.668C442.898 341.078 439.514 346.891 436.354 347.659C433.195 348.427 425.433 346.779 420.594 346.897C415.755 347.016 406.526 348.146 402.099 346.685C392.452 343.444 387.52 336.832 388.138 324.512C388.288 320.201 389.857 316.061 392.602 312.733C395.347 309.406 399.113 307.078 403.317 306.111Z" fill="#E0E0E0"/>
<path d="M436.716 340.877C438.359 340.002 441.649 342.125 440.519 343.999C440.454 343.58 440.231 343.202 439.895 342.943C438.871 342.119 437.872 341.695 436.691 340.87L436.716 340.877Z" fill="#3F3F3F"/>
<path d="M437.968 337.718C439.61 336.844 442.901 338.967 441.771 340.84C441.703 340.422 441.48 340.045 441.146 339.785C440.128 338.961 439.123 338.536 437.949 337.712L437.968 337.718Z" fill="#3F3F3F"/>
<path d="M378.312 286.23C379.961 284.844 390.844 274.172 393.298 271.044C394.547 269.402 395.596 263.551 399.243 262.302C403.245 260.947 407.035 266.049 408.315 269.077C409.102 270.907 409.233 274.353 407.304 278.169C405.374 281.984 402.196 290.657 399.811 295.652C397.426 300.647 391.213 306.735 391.213 306.735L378.312 286.23Z" fill="#E0E0E0"/>
<path opacity="0.1" d="M391.218 306.736C392.908 305.02 394.506 303.218 396.007 301.335L385.193 279.605C381.883 282.671 379.286 285.419 378.324 286.237L391.218 306.736Z" fill="black"/>
<path d="M399.956 270.337C401.205 269.831 404.477 273.459 404.858 275.376C405.238 277.293 402.229 278.798 400.799 278.267C399.594 277.824 399.55 276.325 399.232 274.002C398.988 272.323 399.051 270.712 399.956 270.337Z" fill="#FF9BBC"/>
<path d="M400.711 269.598C399.974 270.022 398.95 268.205 399.462 267.843C399.974 267.481 401.798 268.967 400.711 269.598Z" fill="#FF9BBC"/>
<path d="M398.714 270.095C397.833 270.451 397.046 268.403 397.677 268.084C398.308 267.766 400.006 269.564 398.714 270.095Z" fill="#FF9BBC"/>
<path d="M398.229 272.847C397.242 273.253 396.356 270.974 397.093 270.637C397.829 270.299 399.69 272.248 398.229 272.847Z" fill="#FF9BBC"/>
<path d="M402.452 271.145C401.797 271.283 401.172 269.503 401.666 269.272C402.159 269.041 403.795 270.877 402.452 271.145Z" fill="#FF9BBC"/>
<path d="M315.088 275.929C314.838 278.62 323.205 288.311 325.515 289.372C325.515 289.372 329.93 308.042 330.454 315.991C330.979 323.94 329.717 334.854 330.454 339.718C331.191 344.582 337.766 353.393 341.475 355.722C345.184 358.051 360.444 361.423 369.667 359.731C378.889 358.038 384.078 350.427 389.167 348.835C394.256 347.242 407.181 344.913 410.253 339.612C413.325 334.311 405.882 314.417 401.462 307.942C397.041 301.467 380.6 285.264 380.6 285.264C386.852 280.405 391.458 273.741 393.794 266.176C394.762 263.054 382.005 239.42 368.712 228.974C365.746 226.645 340.838 226.901 335.649 231.097C330.666 235.13 317.192 253.038 315.088 275.929Z" fill="#E0E0E0"/>
<path d="M400.703 306.896C402.639 309.007 403.881 311.654 405.111 314.208C406.33 316.789 407.306 319.477 408.027 322.238C407.066 319.978 405.58 316.743 404.543 314.471C403.332 311.91 402.245 309.282 400.703 306.896Z" fill="#3F3F3F"/>
<path d="M399.887 345.818C402.384 344.569 404.988 343.451 407.554 342.34C405.368 344.183 402.714 345.387 399.887 345.818Z" fill="#3F3F3F"/>
<path d="M389.762 275.029C387.745 279.157 384.735 283.103 380.602 285.27C384.167 282.447 387.045 278.651 389.762 275.029Z" fill="#3F3F3F"/>
<path d="M336.633 230.471C344.6 226.388 357.007 226.219 365.668 228.049C355.946 227.999 346.08 227.899 336.633 230.471Z" fill="#3F3F3F"/>
<path d="M322.659 249.635C321.129 253.057 319.931 256.741 318.395 260.162C319.125 256.416 320.355 252.669 322.659 249.635Z" fill="#3F3F3F"/>
<path d="M380.316 241.211C382.423 243.31 384.148 245.762 385.412 248.454C383.438 246.245 381.729 243.814 380.316 241.211Z" fill="#3F3F3F"/>
<path d="M372.092 255.623C374.315 255.08 375.975 257.022 376.612 259.607C377.124 261.705 376.338 264.171 374.208 264.695C372.079 265.22 370.137 263.028 369.656 261.055C369.176 259.082 369.681 256.216 372.092 255.623Z" fill="#3F3F3F"/>
<path d="M344.576 260.167C341.454 260.017 339.799 262.315 339.662 265.094C339.645 265.71 339.75 266.324 339.972 266.9C340.194 267.475 340.528 268.001 340.955 268.446C341.383 268.891 341.894 269.247 342.46 269.492C343.026 269.738 343.635 269.869 344.251 269.877C345.517 269.904 346.746 269.446 347.684 268.596C348.622 267.746 349.2 266.568 349.297 265.306C349.33 264.657 349.234 264.008 349.014 263.397C348.794 262.786 348.454 262.225 348.015 261.746C347.575 261.268 347.045 260.882 346.454 260.61C345.864 260.339 345.225 260.189 344.576 260.167Z" fill="#3F3F3F"/>
<path d="M358.535 263.289C358.685 263.876 362.538 265.587 362.95 265.531C363.362 265.475 366.696 262.796 366.696 262.19C366.696 261.585 363.368 261.822 362.525 261.934C361.682 262.047 358.404 262.715 358.535 263.289Z" fill="#3F3F3F"/>
<path d="M369.907 266.043C369.454 266.96 368.954 267.852 368.408 268.716C368.149 269.128 367.845 269.511 367.503 269.858C367.453 269.936 367.386 270.003 367.308 270.052C367.229 270.101 367.141 270.132 367.049 270.143C366.956 270.154 366.863 270.144 366.775 270.114C366.688 270.084 366.608 270.035 366.541 269.971C366.169 269.711 365.845 269.388 365.586 269.015C365.299 268.618 365.04 268.2 364.811 267.766C364.335 266.892 363.918 265.987 363.563 265.057L362.907 263.346L362.545 265.138C362.304 266.334 361.963 267.507 361.527 268.647C361.312 269.203 361.047 269.738 360.734 270.245C360.469 270.716 360.074 271.102 359.598 271.357L359.429 271.413H359.254C359.123 271.422 358.992 271.422 358.861 271.413C358.58 271.373 358.306 271.3 358.043 271.194C357.49 270.958 356.969 270.652 356.494 270.283C355.509 269.518 354.605 268.654 353.797 267.704C354.454 268.792 355.257 269.786 356.182 270.657C356.655 271.111 357.192 271.494 357.774 271.794C358.407 272.159 359.157 272.265 359.866 272.087C360.536 271.82 361.104 271.348 361.49 270.739C361.862 270.194 362.182 269.615 362.445 269.009C362.943 267.82 363.328 266.586 363.594 265.325L362.582 265.412C362.968 266.393 363.432 267.341 363.968 268.247C364.244 268.707 364.55 269.147 364.886 269.565C365.24 270.018 365.684 270.392 366.191 270.664C366.495 270.821 366.839 270.882 367.178 270.839C367.498 270.749 367.782 270.561 367.99 270.302C368.335 269.888 368.625 269.43 368.851 268.94C369.293 268.01 369.646 267.04 369.907 266.043Z" fill="#3F3F3F"/>
<path d="M364.59 262.402C364.64 262.72 363.866 263.095 362.873 263.238C361.88 263.382 361 263.238 361 262.92C361 262.601 361.724 262.233 362.717 262.089C363.71 261.946 364.547 262.052 364.59 262.402Z" fill="#37474F"/>
<path d="M383.152 265.138C385.444 264.714 387.748 264.364 390.065 264.064C392.381 263.765 394.691 263.502 397.014 263.34C398.169 263.228 399.337 263.165 400.498 263.09C401.66 263.015 402.821 262.984 403.989 262.953C406.318 262.859 408.647 262.897 410.982 262.903C409.821 262.809 408.659 262.709 407.492 262.659C406.324 262.61 405.15 262.585 403.983 262.591C401.647 262.591 399.306 262.703 396.977 262.872C394.648 263.04 392.319 263.334 390.008 263.708C388.859 263.896 387.704 264.102 386.562 264.333C385.419 264.564 384.276 264.82 383.152 265.138Z" fill="#3F3F3F"/>
<path d="M384.238 266.381C385.287 266.319 386.336 266.256 387.392 266.219C388.447 266.181 389.49 266.119 390.514 266.094C392.618 266.025 394.716 265.975 396.814 266C397.863 266 398.918 266 399.967 266L403.089 266.094L404.663 266.156L406.236 266.25C407.291 266.287 408.334 266.406 409.389 266.456C407.31 266.125 405.212 265.875 403.108 265.738C401.004 265.601 398.899 265.526 396.789 265.513C394.678 265.501 392.574 265.569 390.47 265.713C388.366 265.857 386.318 266.063 384.238 266.381Z" fill="#3F3F3F"/>
<path d="M383.781 267.761C384.662 267.811 385.536 267.861 386.41 267.935C387.284 268.01 388.152 268.06 389.026 268.142C390.768 268.298 392.517 268.454 394.253 268.647C395.988 268.841 397.73 269.047 399.466 269.272C401.202 269.496 402.938 269.753 404.68 269.984C403.825 269.771 402.969 269.578 402.114 269.397C401.258 269.216 400.39 269.059 399.523 268.916C397.793 268.604 396.051 268.379 394.302 268.179C392.554 267.979 390.806 267.854 389.051 267.779C387.297 267.704 385.536 267.667 383.781 267.761Z" fill="#3F3F3F"/>
<path d="M332.011 273.02C330.563 273.02 329.12 273.138 327.641 273.238C326.161 273.338 324.756 273.507 323.313 273.681C320.435 274.025 317.569 274.499 314.722 275.055C311.874 275.611 309.052 276.304 306.261 277.072C304.862 277.453 303.482 277.89 302.096 278.321C301.403 278.539 300.722 278.783 300.042 279.026L298 279.769C300.779 278.945 303.545 278.102 306.355 277.415C307.753 277.053 309.164 276.729 310.569 276.391C311.974 276.054 313.392 275.767 314.815 275.505C317.644 274.918 320.504 274.449 323.363 274.031C326.223 273.613 329.127 273.257 332.011 273.02Z" fill="#3F3F3F"/>
<path d="M331.139 274.889C328.547 275.238 325.981 275.732 323.421 276.281C320.861 276.831 318.338 277.492 315.816 278.192C313.293 278.891 310.82 279.697 308.354 280.583C305.888 281.47 303.465 282.456 301.086 283.53C302.335 283.1 303.527 282.6 304.77 282.194L306.643 281.539L308.516 280.914C309.765 280.502 311.014 280.115 312.263 279.722C313.512 279.328 314.76 278.972 316.009 278.629C318.507 277.898 321.036 277.243 323.571 276.618C324.82 276.306 326.087 276.006 327.373 275.719C328.585 275.407 329.859 275.132 331.139 274.889Z" fill="#3F3F3F"/>
<path d="M332.146 276.359C330.029 276.865 327.944 277.515 325.902 278.233C323.86 278.951 321.793 279.7 319.77 280.499C317.747 281.298 315.749 282.185 313.782 283.128C312.795 283.59 311.828 284.083 310.854 284.564C309.879 285.045 308.924 285.582 307.969 286.106C309.961 285.226 311.934 284.314 313.932 283.459C315.93 282.603 317.928 281.742 319.945 280.961C321.962 280.181 323.985 279.363 326.02 278.595C327.032 278.208 328.056 277.839 329.08 277.477C330.104 277.115 331.115 276.709 332.146 276.359Z" fill="#3F3F3F"/>
<path d="M356.536 283.295C358.193 282.844 359.747 282.077 361.113 281.035C361.213 280.954 361.419 281.085 361.406 281.222C361.369 281.603 361.263 282.665 361.244 282.827L361.487 282.652C361.754 282.449 362.008 282.23 362.249 281.997C363.214 281.066 363.968 279.94 364.46 278.693C364.709 278.069 364.865 277.382 365.053 276.714C365.053 276.683 365.121 276.714 365.121 276.745C365.132 277.482 365.026 278.215 364.809 278.918C364.619 279.57 364.358 280.198 364.029 280.791C363.695 281.384 363.29 281.933 362.824 282.427C362.576 282.683 362.314 282.923 362.037 283.145C361.781 283.397 361.471 283.587 361.131 283.701C360.894 283.77 360.657 283.426 360.719 283.252C360.782 283.077 361.007 281.728 361.032 281.522C360.476 281.968 359.868 282.343 359.221 282.64C358.393 283.014 357.52 283.276 356.623 283.42C356.536 283.445 356.467 283.32 356.536 283.295Z" fill="#3F3F3F"/>
<path d="M336.552 268.351C335.378 268.144 334.171 268.245 333.049 268.645C333.03 268.65 333.014 268.661 333.002 268.676C332.991 268.691 332.984 268.71 332.984 268.729C332.984 268.748 332.991 268.767 333.002 268.782C333.014 268.797 333.03 268.808 333.049 268.813C334.217 269.027 335.42 268.95 336.552 268.589C336.62 268.532 336.633 268.382 336.552 268.351Z" fill="#3F3F3F"/>
<path d="M337.669 269.895C336.59 270.195 335.624 270.81 334.897 271.662C334.887 271.679 334.882 271.698 334.883 271.718C334.884 271.738 334.892 271.756 334.904 271.771C334.916 271.787 334.933 271.797 334.952 271.803C334.971 271.808 334.991 271.807 335.009 271.8C335.827 271.675 337.613 270.551 337.826 270.095C337.834 270.071 337.837 270.046 337.833 270.021C337.829 269.996 337.818 269.972 337.803 269.952C337.787 269.932 337.767 269.916 337.743 269.907C337.72 269.897 337.695 269.893 337.669 269.895Z" fill="#3F3F3F"/>
<path d="M339.142 271.051C338.537 271.618 338.167 272.391 338.105 273.218C338.107 273.234 338.113 273.249 338.122 273.262C338.131 273.275 338.144 273.285 338.158 273.292C338.173 273.299 338.188 273.302 338.204 273.301C338.22 273.3 338.236 273.295 338.249 273.287C338.853 272.724 339.241 271.969 339.348 271.151C339.329 271.076 339.204 271.001 339.142 271.051Z" fill="#3F3F3F"/>
<path d="M379.74 261.861C380.779 261.277 381.952 260.974 383.143 260.981C383.225 260.981 383.275 261.08 383.193 261.143C382.159 261.729 380.997 262.052 379.809 262.086C379.785 262.082 379.762 262.071 379.744 262.055C379.726 262.039 379.712 262.018 379.705 261.995C379.698 261.971 379.697 261.946 379.704 261.923C379.71 261.899 379.723 261.878 379.74 261.861Z" fill="#3F3F3F"/>
<path d="M379.171 263.71C380.29 263.635 381.406 263.896 382.375 264.459C382.391 264.471 382.403 264.488 382.408 264.508C382.414 264.527 382.414 264.548 382.407 264.567C382.399 264.586 382.387 264.602 382.369 264.613C382.352 264.624 382.332 264.629 382.312 264.628C381.494 264.784 379.452 264.328 379.09 263.947C379.075 263.928 379.065 263.904 379.061 263.88C379.057 263.855 379.059 263.83 379.067 263.807C379.075 263.783 379.089 263.762 379.107 263.745C379.125 263.728 379.147 263.716 379.171 263.71Z" fill="#3F3F3F"/>
<path d="M378.16 265.275C378.916 265.609 379.52 266.216 379.852 266.974C379.855 266.989 379.855 267.005 379.851 267.021C379.846 267.036 379.838 267.05 379.827 267.061C379.815 267.072 379.802 267.08 379.786 267.085C379.771 267.089 379.755 267.09 379.739 267.086C378.982 266.757 378.365 266.171 377.997 265.431C377.985 265.356 378.078 265.25 378.16 265.275Z" fill="#3F3F3F"/>
<path opacity="0.2" d="M349.801 291.244C358.072 291.738 366.339 290.214 373.89 286.805C367.565 291.713 357.462 293.517 349.801 291.244Z" fill="black"/>
<path opacity="0.2" d="M356.527 293.924C360.95 294.218 365.376 293.402 369.403 291.551C367.561 292.865 365.453 293.758 363.229 294.168C361.004 294.578 358.716 294.494 356.527 293.924Z" fill="black"/>
<path d="M330.535 317.582C329.287 313.973 319.733 303.377 318.153 295.428C316.574 287.479 322 277.826 332.14 276.696C337.204 276.134 342.786 283.202 343.56 287.51C344.335 291.819 340.763 295.628 335.012 295.49C333.289 295.388 331.583 295.086 329.93 294.591L330.535 317.582Z" fill="#E0E0E0"/>
<path d="M337.477 290.502C339.319 290.783 340.674 294.467 338.65 295.279C338.853 294.911 338.906 294.48 338.8 294.074C338.476 292.825 337.932 291.863 337.477 290.502Z" fill="#3F3F3F"/>
<path d="M340.367 288.709C342.203 288.996 343.564 292.674 341.541 293.492C341.737 293.122 341.791 292.693 341.691 292.287C341.366 291.038 340.817 290.07 340.367 288.709Z" fill="#3F3F3F"/>
<path d="M320.23 284.332C322.727 279.237 328.822 275.453 334.685 276.327C338.281 277.151 340.86 280.161 342.508 283.289C343.657 285.693 344.65 288.516 343.757 291.194C343.337 292.195 342.7 293.09 341.892 293.816C341.085 294.541 340.127 295.079 339.087 295.39C336.776 296.015 334.391 295.752 332.1 295.322C329.827 294.93 327.628 294.191 325.581 293.13C327.698 293.958 329.919 294.491 332.181 294.716C334.366 294.984 336.689 295.134 338.787 294.466C339.656 294.163 340.451 293.678 341.119 293.044C341.786 292.41 342.311 291.641 342.658 290.788C343.326 288.491 342.409 285.949 341.378 283.857C339.686 280.604 336.776 277.201 332.849 277.233C327.822 277.195 322.915 280.092 320.211 284.332H320.23Z" fill="#3F3F3F"/>
<path d="M337.174 327.38C339.128 323.827 344.392 317.807 354.763 319.749C359.421 320.624 364.566 326.43 364.566 326.43C364.566 326.43 366.702 322.135 368.75 320.23C370.798 318.326 380.127 316.677 382.318 322.328C384.51 327.979 379.065 338.226 378.572 341.547C378.079 344.869 378.722 347.704 376.037 349.821C373.352 351.937 367.657 351.413 366.471 351.176C364.654 350.801 364.098 350.252 364.098 350.252C364.098 350.252 352.234 360.286 343.462 355.122C337.124 351.376 329.968 340.523 337.174 327.38Z" fill="#E0E0E0"/>
<path d="M375.502 324.398C378.062 324.53 380.597 330.593 379.56 333.059C378.524 335.525 372.067 335.463 370.038 334.014C368.346 332.803 369.551 331.042 371.062 328.195C372.142 326.128 373.616 324.299 375.502 324.398Z" fill="#FF9BBC"/>
<path d="M377.243 323.981C375.607 323.781 375.776 320.628 376.987 320.69C378.198 320.753 379.634 324.274 377.243 323.981Z" fill="#FF9BBC"/>
<path d="M373.345 323.345C371.553 322.97 372.421 319.885 373.77 320.079C375.119 320.273 375.986 323.894 373.345 323.345Z" fill="#FF9BBC"/>
<path d="M369.859 326.174C367.904 325.512 369.303 322.121 370.783 322.521C372.263 322.921 372.762 327.142 369.859 326.174Z" fill="#FF9BBC"/>
<path d="M379.406 326.936C378.157 326.662 378.644 323.814 379.693 323.852C380.742 323.889 381.954 327.486 379.406 326.936Z" fill="#FF9BBC"/>
<path d="M361.66 348.095C362.626 349.18 363.823 350.033 365.163 350.593C366.506 351.117 367.998 351.055 369.415 351.024C371.913 350.83 375.522 350.612 376.846 348.201C377.888 345.079 377.764 341.708 378.825 338.554C379.687 336.232 380.648 333.715 381.273 331.33C382.172 327.665 383.664 322.22 379.4 320.191C376.809 319.042 373.913 318.777 371.157 319.435C369.793 319.747 368.606 320.583 367.854 321.764C366.094 324.088 364.635 326.627 363.515 329.319C364.419 326.511 365.713 323.843 367.361 321.396C368.149 320.046 369.433 319.058 370.939 318.642C374.554 317.724 378.962 317.886 381.835 320.565C383.577 322.289 383.589 325.048 383.352 327.265C382.934 330.949 381.641 334.502 380.336 337.942C378.85 341.339 379.056 345.129 377.726 348.595C375.903 351.898 370.471 351.779 367.205 351.473C364.957 351.292 362.978 349.819 361.66 348.077V348.095Z" fill="#3F3F3F"/>
<path d="M334.845 328.333C337.343 324.681 340.552 321.271 344.836 319.76C350.499 317.737 357.324 318.93 361.77 323.001C362.881 323.985 363.826 325.143 364.567 326.429C362.948 324.51 360.944 322.952 358.686 321.855C356.427 320.758 353.964 320.147 351.454 320.06C344.261 319.679 339.547 323.407 334.82 328.333H334.845Z" fill="#3F3F3F"/>
<path d="M355.539 355.271C358.555 353.772 361.452 352.342 364.106 350.275C362.083 352.992 358.811 354.646 355.539 355.271Z" fill="#3F3F3F"/>
<path d="M401.422 222.379C401.871 255.31 401.927 292.262 401.559 325.194C401.103 292.262 401.059 255.31 401.422 222.379Z" fill="#3F3F3F"/>
<g opacity="0.8">
<path d="M396.986 225.439C396.986 225.439 393.814 235.386 394.345 235.929C394.876 236.473 407.676 236.554 407.951 236.029C408.226 235.505 406.009 225.508 406.009 225.508L396.986 225.439Z" fill="url(#paint35_linear_439_1528)"/>
<path d="M401.793 146.001C380.101 145.839 362.399 163.085 363.417 189.56C364.435 216.035 389.199 227.536 400.107 227.617C407.987 227.673 439.351 221.442 439.601 188.105C439.807 159.619 423.41 146.163 401.793 146.001Z" fill="url(#paint36_linear_439_1528)"/>
</g>
<path opacity="0.2" d="M395.71 198.671C408.948 197.866 419.028 186.481 418.223 173.242C417.418 160.004 406.033 149.925 392.795 150.73C379.556 151.535 369.477 162.919 370.282 176.158C371.087 189.396 382.472 199.476 395.71 198.671Z" fill="white"/>
<path opacity="0.4" d="M378.531 172.213C379.335 174.938 380.928 177.364 383.11 179.183C385.292 181.002 387.965 182.133 390.79 182.433C393.615 182.733 396.465 182.189 398.981 180.869C401.496 179.548 403.564 177.512 404.922 175.016C406.279 172.521 406.867 169.679 406.609 166.85C406.351 164.021 405.26 161.331 403.474 159.122C401.688 156.913 399.286 155.284 396.574 154.44C393.861 153.595 390.959 153.575 388.235 154.38C384.584 155.46 381.511 157.944 379.692 161.288C377.872 164.632 377.455 168.562 378.531 172.213Z" fill="white"/>
<path d="M400.952 261.353C404.58 261.859 408.382 267.597 408.576 270.276C408.846 273.077 408.226 275.891 406.803 278.319L406.241 275.577C406.241 275.577 401.177 278.219 398.292 274.741C395.407 271.263 393.778 260.354 400.952 261.353Z" fill="#E0E0E0"/>
<path d="M407.406 274.959C405.027 276.395 401.73 277.425 399.101 275.914C396.679 274.166 395.68 271.057 395.48 268.197C395.315 266.262 395.817 264.33 396.904 262.721C396.046 264.396 395.717 266.293 395.961 268.159C396.997 275.346 400.488 278 407.406 274.959Z" fill="#3F3F3F"/>
<path d="M406.24 275.578C406.596 276.067 406.763 276.668 406.709 277.27C406.353 276.781 406.187 276.18 406.24 275.578Z" fill="#3F3F3F"/>
<path d="M401.064 270.6C399.19 270.394 396.843 273.679 398.629 275.027C398.526 274.605 398.586 274.159 398.797 273.779C399.459 272.605 400.252 271.818 401.064 270.588V270.6Z" fill="#3F3F3F"/>
<path d="M399.068 266.737C397.194 266.531 394.847 269.815 396.632 271.164C396.528 270.741 396.591 270.294 396.807 269.915C397.469 268.741 398.262 267.955 399.068 266.725V266.737Z" fill="#3F3F3F"/>
<defs>
<linearGradient id="paint0_linear_439_1528" x1="339.431" y1="304.449" x2="306.366" y2="214.757" gradientUnits="userSpaceOnUse">
<stop stop-color="#FB9400"/>
<stop offset="1" stop-color="#FFAB38"/>
</linearGradient>
<linearGradient id="paint1_linear_439_1528" x1="336.001" y1="277.14" x2="117.388" y2="173.752" gradientUnits="userSpaceOnUse">
<stop stop-color="#FB9400"/>
<stop offset="1" stop-color="#FFAB38"/>
</linearGradient>
<linearGradient id="paint2_linear_439_1528" x1="261.362" y1="157.139" x2="201.205" y2="137.581" gradientUnits="userSpaceOnUse">
<stop stop-color="#FB9400"/>
<stop offset="1" stop-color="#FFAB38"/>
</linearGradient>
<linearGradient id="paint3_linear_439_1528" x1="225" y1="159.348" x2="213.219" y2="158.705" gradientUnits="userSpaceOnUse">
<stop stop-color="#FB9400"/>
<stop offset="1" stop-color="#FFAB38"/>
</linearGradient>
<linearGradient id="paint4_linear_439_1528" x1="225" y1="157.106" x2="213.223" y2="156.432" gradientUnits="userSpaceOnUse">
<stop stop-color="#FB9400"/>
<stop offset="1" stop-color="#FFAB38"/>
</linearGradient>
<linearGradient id="paint5_linear_439_1528" x1="225" y1="148.381" x2="213.242" y2="147.553" gradientUnits="userSpaceOnUse">
<stop stop-color="#FB9400"/>
<stop offset="1" stop-color="#FFAB38"/>
</linearGradient>
<linearGradient id="paint6_linear_439_1528" x1="225" y1="135.985" x2="213.313" y2="134.758" gradientUnits="userSpaceOnUse">
<stop stop-color="#FB9400"/>
<stop offset="1" stop-color="#FFAB38"/>
</linearGradient>
<linearGradient id="paint7_linear_439_1528" x1="225" y1="123.971" x2="213.638" y2="121.701" gradientUnits="userSpaceOnUse">
<stop stop-color="#FB9400"/>
<stop offset="1" stop-color="#FFAB38"/>
</linearGradient>
<linearGradient id="paint8_linear_439_1528" x1="254.48" y1="159.348" x2="242.7" y2="158.705" gradientUnits="userSpaceOnUse">
<stop stop-color="#FB9400"/>
<stop offset="1" stop-color="#FFAB38"/>
</linearGradient>
<linearGradient id="paint9_linear_439_1528" x1="254.48" y1="157.106" x2="242.703" y2="156.432" gradientUnits="userSpaceOnUse">
<stop stop-color="#FB9400"/>
<stop offset="1" stop-color="#FFAB38"/>
</linearGradient>
<linearGradient id="paint10_linear_439_1528" x1="254.48" y1="148.381" x2="242.723" y2="147.553" gradientUnits="userSpaceOnUse">
<stop stop-color="#FB9400"/>
<stop offset="1" stop-color="#FFAB38"/>
</linearGradient>
<linearGradient id="paint11_linear_439_1528" x1="254.48" y1="135.985" x2="242.793" y2="134.758" gradientUnits="userSpaceOnUse">
<stop stop-color="#FB9400"/>
<stop offset="1" stop-color="#FFAB38"/>
</linearGradient>
<linearGradient id="paint12_linear_439_1528" x1="254.48" y1="123.971" x2="243.118" y2="121.701" gradientUnits="userSpaceOnUse">
<stop stop-color="#FB9400"/>
<stop offset="1" stop-color="#FFAB38"/>
</linearGradient>
<linearGradient id="paint13_linear_439_1528" x1="242.558" y1="159.481" x2="223.523" y2="158.442" gradientUnits="userSpaceOnUse">
<stop stop-color="#FB9400"/>
<stop offset="1" stop-color="#FFAB38"/>
</linearGradient>
<linearGradient id="paint14_linear_439_1528" x1="242.558" y1="155.875" x2="223.529" y2="154.785" gradientUnits="userSpaceOnUse">
<stop stop-color="#FB9400"/>
<stop offset="1" stop-color="#FFAB38"/>
</linearGradient>
<linearGradient id="paint15_linear_439_1528" x1="242.558" y1="141.754" x2="223.561" y2="140.413" gradientUnits="userSpaceOnUse">
<stop stop-color="#FB9400"/>
<stop offset="1" stop-color="#FFAB38"/>
</linearGradient>
<linearGradient id="paint16_linear_439_1528" x1="242.558" y1="121.814" x2="223.675" y2="119.832" gradientUnits="userSpaceOnUse">
<stop stop-color="#FB9400"/>
<stop offset="1" stop-color="#FFAB38"/>
</linearGradient>
<linearGradient id="paint17_linear_439_1528" x1="242.558" y1="102.384" x2="224.201" y2="98.7119" gradientUnits="userSpaceOnUse">
<stop stop-color="#FB9400"/>
<stop offset="1" stop-color="#FFAB38"/>
</linearGradient>
<linearGradient id="paint18_linear_439_1528" x1="239.468" y1="114.95" x2="229.211" y2="111.976" gradientUnits="userSpaceOnUse">
<stop stop-color="#FB9400"/>
<stop offset="1" stop-color="#FFAB38"/>
</linearGradient>
<linearGradient id="paint19_linear_439_1528" x1="239.491" y1="115.569" x2="230.881" y2="110.922" gradientUnits="userSpaceOnUse">
<stop stop-color="#FB9400"/>
<stop offset="1" stop-color="#FFAB38"/>
</linearGradient>
<linearGradient id="paint20_linear_439_1528" x1="236.25" y1="113.66" x2="233.381" y2="113.351" gradientUnits="userSpaceOnUse">
<stop stop-color="#FB9400"/>
<stop offset="1" stop-color="#FFAB38"/>
</linearGradient>
<linearGradient id="paint21_linear_439_1528" x1="237.218" y1="113.641" x2="235.118" y2="113.462" gradientUnits="userSpaceOnUse">
<stop stop-color="#FB9400"/>
<stop offset="1" stop-color="#FFAB38"/>
</linearGradient>
<linearGradient id="paint22_linear_439_1528" x1="364.094" y1="122.94" x2="364.089" y2="122.94" gradientUnits="userSpaceOnUse">
<stop stop-color="#FB9400"/>
<stop offset="1" stop-color="#FFAB38"/>
</linearGradient>
<linearGradient id="paint23_linear_439_1528" x1="316.998" y1="121.92" x2="305.69" y2="119.781" gradientUnits="userSpaceOnUse">
<stop stop-color="#FB9400"/>
<stop offset="1" stop-color="#FFAB38"/>
</linearGradient>
<linearGradient id="paint24_linear_439_1528" x1="327.601" y1="110.29" x2="311.169" y2="104.704" gradientUnits="userSpaceOnUse">
<stop stop-color="#FB9400"/>
<stop offset="1" stop-color="#FFAB38"/>
</linearGradient>
<linearGradient id="paint25_linear_439_1528" x1="338.827" y1="104.291" x2="323.471" y2="97.6662" gradientUnits="userSpaceOnUse">
<stop stop-color="#FB9400"/>
<stop offset="1" stop-color="#FFAB38"/>
</linearGradient>
<linearGradient id="paint26_linear_439_1528" x1="352.207" y1="107.141" x2="335.66" y2="101.593" gradientUnits="userSpaceOnUse">
<stop stop-color="#FB9400"/>
<stop offset="1" stop-color="#FFAB38"/>
</linearGradient>
<linearGradient id="paint27_linear_439_1528" x1="361.459" y1="113.54" x2="343.52" y2="108.286" gradientUnits="userSpaceOnUse">
<stop stop-color="#FB9400"/>
<stop offset="1" stop-color="#FFAB38"/>
</linearGradient>
<linearGradient id="paint28_linear_439_1528" x1="364.208" y1="122.57" x2="349.804" y2="119.01" gradientUnits="userSpaceOnUse">
<stop stop-color="#FB9400"/>
<stop offset="1" stop-color="#FFAB38"/>
</linearGradient>
<linearGradient id="paint29_linear_439_1528" x1="364.13" y1="132.041" x2="352.702" y2="128.714" gradientUnits="userSpaceOnUse">
<stop stop-color="#FB9400"/>
<stop offset="1" stop-color="#FFAB38"/>
</linearGradient>
<linearGradient id="paint30_linear_439_1528" x1="309.719" y1="131.59" x2="307.133" y2="131.435" gradientUnits="userSpaceOnUse">
<stop stop-color="#FB9400"/>
<stop offset="1" stop-color="#FFAB38"/>
</linearGradient>
<linearGradient id="paint31_linear_439_1528" x1="342.326" y1="129.948" x2="325.482" y2="125.059" gradientUnits="userSpaceOnUse">
<stop stop-color="#FB9400"/>
<stop offset="1" stop-color="#FFAB38"/>
</linearGradient>
<linearGradient id="paint32_linear_439_1528" x1="121.65" y1="130.3" x2="85.944" y2="120.234" gradientUnits="userSpaceOnUse">
<stop stop-color="#FB9400"/>
<stop offset="1" stop-color="#FFAB38"/>
</linearGradient>
<linearGradient id="paint33_linear_439_1528" x1="136.181" y1="130.34" x2="119.301" y2="128.229" gradientUnits="userSpaceOnUse">
<stop stop-color="#FB9400"/>
<stop offset="1" stop-color="#FFAB38"/>
</linearGradient>
<linearGradient id="paint34_linear_439_1528" x1="109.458" y1="230.799" x2="106.585" y2="217.588" gradientUnits="userSpaceOnUse">
<stop stop-color="#FB9400"/>
<stop offset="1" stop-color="#FFAB38"/>
</linearGradient>
<linearGradient id="paint35_linear_439_1528" x1="407.974" y1="236.383" x2="392.369" y2="230.723" gradientUnits="userSpaceOnUse">
<stop stop-color="#FB9400"/>
<stop offset="1" stop-color="#FFAB38"/>
</linearGradient>
<linearGradient id="paint36_linear_439_1528" x1="439.603" y1="227.618" x2="347.991" y2="202.81" gradientUnits="userSpaceOnUse">
<stop stop-color="#FB9400"/>
<stop offset="1" stop-color="#FFAB38"/>
</linearGradient>
</defs>
</svg>
