<svg width="453" height="445" viewBox="0 0 453 445" fill="none" xmlns="http://www.w3.org/2000/svg">
<path d="M203.06 443.625C203.06 443.625 285.49 456.897 350.136 398.831C414.782 340.764 432.567 246.362 448.97 170.334C465.374 94.3068 430.506 26.6554 366.076 4.97604C301.646 -16.7034 273.785 38.4299 194.312 55.8436C114.839 73.2574 90.6659 65.6556 34.809 124.301C-21.0479 182.945 -8.17846 294.141 62.6292 364.871C133.437 435.6 203.06 443.625 203.06 443.625Z" fill="#E0E0E0"/>
<path opacity="0.7" d="M203.06 443.625C203.06 443.625 285.49 456.897 350.136 398.831C414.782 340.764 432.567 246.362 448.97 170.334C465.374 94.3068 430.506 26.6554 366.076 4.97604C301.646 -16.7034 273.785 38.4299 194.312 55.8436C114.839 73.2574 90.6659 65.6556 34.809 124.301C-21.0479 182.945 -8.17846 294.141 62.6292 364.871C133.437 435.6 203.06 443.625 203.06 443.625Z" fill="white"/>
<path d="M220.374 438.934C308.375 438.934 379.713 434.269 379.713 428.514C379.713 422.759 308.375 418.094 220.374 418.094C132.374 418.094 61.0352 422.759 61.0352 428.514C61.0352 434.269 132.374 438.934 220.374 438.934Z" fill="#263238"/>
<path d="M137.908 212.007V120.25H317.089V188.449H382.813V275.872" stroke="#263238" stroke-linecap="round" stroke-linejoin="round" stroke-dasharray="3 3"/>
<path d="M265.441 135.944L273.135 104.641H249.785L265.441 135.944Z" fill="white" stroke="#263238" stroke-linecap="round" stroke-linejoin="round"/>
<path d="M265.44 135.942L267.15 105.828H252.293L265.44 135.942Z" fill="url(#paint0_linear_728_20832)" stroke="#263238" stroke-linecap="round" stroke-linejoin="round"/>
<path d="M265.438 135.943L263.849 103.484H248.992L265.438 135.943Z" fill="url(#paint1_linear_728_20832)" stroke="#263238" stroke-linecap="round" stroke-linejoin="round"/>
<path d="M237.706 101.981L233.868 97.6484H213.705L223.17 135.942H265.44L258.737 101.981H237.706Z" fill="white" stroke="#263238" stroke-linecap="round" stroke-linejoin="round"/>
<path d="M342.356 141.176H292.001C290.241 141.176 288.814 142.603 288.814 144.363V171.567C288.814 173.327 290.241 174.754 292.001 174.754H342.356C344.116 174.754 345.543 173.327 345.543 171.567V144.363C345.543 142.603 344.116 141.176 342.356 141.176Z" fill="white" stroke="#263238" stroke-linecap="round" stroke-linejoin="round"/>
<path d="M345.543 147.551H288.814V159.707H345.543V147.551Z" fill="url(#paint2_linear_728_20832)" stroke="#263238" stroke-linecap="round" stroke-linejoin="round"/>
<path d="M333.569 169.4C333.571 168.928 333.432 168.467 333.172 168.075C332.911 167.682 332.539 167.376 332.104 167.194C331.669 167.013 331.19 166.965 330.728 167.057C330.265 167.149 329.841 167.375 329.507 167.709C329.174 168.042 328.947 168.467 328.856 168.929C328.764 169.391 328.812 169.87 328.993 170.305C329.174 170.741 329.481 171.112 329.873 171.373C330.266 171.634 330.727 171.772 331.198 171.77C331.826 171.768 332.428 171.517 332.872 171.073C333.316 170.629 333.567 170.028 333.569 169.4Z" fill="white" stroke="#263238" stroke-linecap="round" stroke-linejoin="round"/>
<path d="M340.161 169.402C340.161 168.933 340.022 168.475 339.762 168.085C339.501 167.695 339.131 167.391 338.698 167.212C338.264 167.032 337.788 166.985 337.328 167.077C336.868 167.168 336.446 167.394 336.114 167.726C335.783 168.057 335.557 168.479 335.465 168.939C335.374 169.399 335.421 169.876 335.6 170.309C335.78 170.742 336.084 171.112 336.473 171.373C336.863 171.633 337.322 171.772 337.79 171.772C338.418 171.77 339.02 171.52 339.464 171.075C339.908 170.631 340.159 170.03 340.161 169.402Z" fill="white" stroke="#263238" stroke-linecap="round" stroke-linejoin="round"/>
<path d="M170.202 143.16H102.324V178.527H170.202V143.16Z" fill="white" stroke="#263238" stroke-linecap="round" stroke-linejoin="round"/>
<path d="M170.202 143.16H102.324V149.43H170.202V143.16Z" fill="#263238" stroke="#263238" stroke-linecap="round" stroke-linejoin="round"/>
<path d="M159.983 156.945H112.537V167.087H159.983V156.945Z" fill="url(#paint3_linear_728_20832)" stroke="#263238" stroke-linecap="round" stroke-linejoin="round"/>
<path d="M116.316 160.332H117.132L117.01 161.721L118.165 160.853L118.573 161.556L117.262 162.199L118.573 162.876L118.165 163.588L117.01 162.72L117.132 164.127H116.316L116.472 162.694L115.317 163.562L114.909 162.85L116.185 162.208L114.883 161.6L115.291 160.896L116.463 161.765L116.316 160.332Z" fill="#263238"/>
<path d="M121.199 160.332H122.015L121.894 161.721L123.04 160.853L123.448 161.556L122.146 162.199L123.448 162.876L123.04 163.588L121.894 162.72L122.015 164.127H121.199L121.347 162.694L120.192 163.562L119.793 162.85L121.06 162.208L119.758 161.6L120.175 160.896L121.347 161.765L121.199 160.332Z" fill="#263238"/>
<path d="M126.081 160.332H126.897L126.776 161.721L127.931 160.853L128.339 161.556L127.028 162.199L128.339 162.876L127.931 163.588L126.776 162.72L126.897 164.127H126.081L126.237 162.694L125.083 163.562L124.674 162.85L125.951 162.208L124.648 161.6L125.057 160.896L126.229 161.765L126.081 160.332Z" fill="#263238"/>
<path d="M130.971 160.332H131.787L131.665 161.721L132.812 160.853L133.22 161.556L131.917 162.199L133.22 162.876L132.812 163.588L131.665 162.72L131.787 164.127H130.971L131.118 162.694L129.963 163.562L129.564 162.85L130.832 162.208L129.529 161.6L129.946 160.896L131.118 161.765L130.971 160.332Z" fill="#263238"/>
<path d="M135.851 160.332H136.667L136.545 161.721L137.7 160.853L138.108 161.556L136.797 162.199L138.108 162.876L137.7 163.588L136.545 162.72L136.667 164.127H135.851L136.007 162.694L134.852 163.562L134.444 162.85L135.72 162.208L134.418 161.6L134.826 160.896L135.998 161.765L135.851 160.332Z" fill="#263238"/>
<path d="M140.736 160.332H141.553L141.431 161.721L142.577 160.853L142.985 161.556L141.683 162.199L142.985 162.876L142.577 163.588L141.431 162.72L141.553 164.127H140.736L140.884 162.694L139.729 163.562L139.33 162.85L140.597 162.208L139.295 161.6L139.712 160.896L140.884 161.765L140.736 160.332Z" fill="#263238"/>
<path d="M145.618 160.332H146.435L146.313 161.721L147.468 160.853L147.876 161.556L146.565 162.199L147.876 162.876L147.468 163.588L146.313 162.72L146.435 164.127H145.618L145.775 162.694L144.62 163.562L144.212 162.85L145.488 162.208L144.186 161.6L144.594 160.896L145.766 161.765L145.618 160.332Z" fill="#263238"/>
<path d="M150.507 160.332H151.332L151.21 161.721L152.357 160.853L152.765 161.556L151.462 162.199L152.765 162.876L152.357 163.588L151.21 162.72L151.332 164.127H150.516L150.663 162.694L149.508 163.562L149.109 162.85L150.377 162.208L149.074 161.6L149.491 160.896L150.663 161.765L150.507 160.332Z" fill="#263238"/>
<path d="M155.388 160.332H156.204L156.082 161.721L157.237 160.853L157.645 161.556L156.334 162.199L157.645 162.876L157.237 163.588L156.082 162.72L156.204 164.127H155.388L155.544 162.694L154.389 163.562L153.981 162.85L155.258 162.208L153.955 161.6L154.363 160.896L155.535 161.765L155.388 160.332Z" fill="#263238"/>
<path d="M196.54 120.227L180.953 113.41V127.052L196.54 120.227Z" fill="#263238"/>
<path d="M383.15 250.51C390.847 250.51 397.086 244.27 397.086 236.573C397.086 228.876 390.847 222.637 383.15 222.637C375.453 222.637 369.213 228.876 369.213 236.573C369.213 244.27 375.453 250.51 383.15 250.51Z" fill="white" stroke="#263238" stroke-linecap="round" stroke-linejoin="round"/>
<path d="M390.471 243.899C394.517 239.854 394.517 233.295 390.471 229.249C386.426 225.204 379.867 225.204 375.821 229.249C371.776 233.295 371.776 239.854 375.821 243.899C379.867 247.945 386.426 247.945 390.471 243.899Z" fill="url(#paint4_linear_728_20832)" stroke="#263238" stroke-linecap="round" stroke-linejoin="round"/>
<path d="M379.315 240.324C379.146 240.208 379.023 240.036 378.968 239.837C378.905 239.655 378.905 239.456 378.968 239.273C379.026 239.091 379.124 238.925 379.255 238.787C379.388 238.644 379.572 238.557 379.767 238.544C379.999 238.53 380.231 238.581 380.436 238.691L380.8 238.882C381 238.987 381.174 239.082 381.321 239.143C381.527 239.231 381.739 239.304 381.955 239.36C382.239 239.433 382.53 239.473 382.824 239.481C383.043 239.508 383.264 239.508 383.483 239.481C383.706 239.459 383.926 239.421 384.143 239.369C384.334 239.321 384.508 239.222 384.647 239.082C384.716 239.011 384.77 238.926 384.805 238.834C384.841 238.741 384.858 238.643 384.855 238.544C384.844 238.444 384.811 238.348 384.758 238.262C384.706 238.177 384.635 238.104 384.551 238.049C384.292 237.863 383.996 237.736 383.683 237.675L382.329 237.311C381.816 237.163 381.408 237.041 381.104 236.929C380.782 236.817 380.468 236.68 380.166 236.52C379.895 236.387 379.653 236.201 379.454 235.973C379.279 235.753 379.143 235.503 379.055 235.235C378.952 234.904 378.902 234.558 378.907 234.211C378.894 233.765 379.002 233.324 379.219 232.934C379.436 232.544 379.754 232.22 380.14 231.996C381.146 231.433 382.304 231.202 383.449 231.336C383.829 231.356 384.206 231.409 384.578 231.493C384.854 231.55 385.127 231.626 385.394 231.719L386.123 232.031C386.336 232.126 386.515 232.283 386.636 232.483C386.747 232.652 386.796 232.854 386.774 233.056C386.756 233.243 386.697 233.424 386.601 233.585C386.551 233.67 386.483 233.742 386.402 233.798C386.321 233.853 386.229 233.89 386.132 233.907C385.902 233.949 385.665 233.928 385.446 233.846C384.804 233.61 384.137 233.453 383.457 233.377C383.206 233.364 382.954 233.364 382.702 233.377C382.45 233.382 382.203 233.447 381.981 233.568C381.887 233.606 381.807 233.67 381.75 233.754C381.692 233.837 381.661 233.936 381.66 234.037C381.655 234.143 381.676 234.248 381.722 234.343C381.767 234.439 381.835 234.521 381.92 234.584C382.184 234.752 382.48 234.864 382.789 234.914L384.126 235.253C384.596 235.366 385.057 235.511 385.507 235.687C385.866 235.829 386.205 236.019 386.514 236.251C386.808 236.48 387.041 236.778 387.191 237.12C387.347 237.491 387.427 237.889 387.426 238.292C387.457 238.958 387.257 239.614 386.861 240.15C386.468 240.668 385.926 241.053 385.307 241.253C384.584 241.496 383.819 241.594 383.058 241.539C381.717 241.516 380.414 241.092 379.315 240.324ZM382.459 229.296C382.454 229.205 382.468 229.115 382.5 229.03C382.532 228.945 382.582 228.868 382.646 228.803C382.709 228.738 382.786 228.688 382.87 228.655C382.955 228.621 383.045 228.606 383.136 228.61C383.309 228.611 383.474 228.68 383.596 228.801C383.666 228.863 383.72 228.939 383.756 229.025C383.792 229.111 383.809 229.203 383.805 229.296V231.771H382.459V229.296ZM382.641 240.949H384.048V243.398C384.056 243.52 384.029 243.642 383.968 243.748C383.908 243.855 383.818 243.941 383.709 243.997C383.605 244.056 383.486 244.087 383.366 244.087C383.246 244.087 383.128 244.056 383.023 243.997C382.912 243.941 382.82 243.854 382.76 243.745C382.7 243.637 382.673 243.513 382.685 243.389L382.641 240.949Z" fill="#263238"/>
<path d="M383.15 240.186C390.847 240.186 397.086 233.946 397.086 226.249C397.086 218.552 390.847 212.312 383.15 212.312C375.453 212.312 369.213 218.552 369.213 226.249C369.213 233.946 375.453 240.186 383.15 240.186Z" fill="white" stroke="#263238" stroke-linecap="round" stroke-linejoin="round"/>
<path d="M383.152 236.609C388.873 236.609 393.511 231.971 393.511 226.25C393.511 220.529 388.873 215.891 383.152 215.891C377.431 215.891 372.793 220.529 372.793 226.25C372.793 231.971 377.431 236.609 383.152 236.609Z" fill="url(#paint5_linear_728_20832)" stroke="#263238" stroke-linecap="round" stroke-linejoin="round"/>
<path d="M379.315 230C379.146 229.884 379.023 229.711 378.968 229.513C378.905 229.33 378.905 229.132 378.968 228.949C379.026 228.767 379.124 228.601 379.255 228.463C379.388 228.32 379.572 228.233 379.767 228.219C379.999 228.205 380.231 228.257 380.436 228.367L380.8 228.558C381 228.662 381.174 228.758 381.321 228.819C381.527 228.907 381.739 228.98 381.955 229.036C382.239 229.108 382.53 229.149 382.824 229.157C383.043 229.183 383.264 229.183 383.483 229.157C383.706 229.134 383.926 229.097 384.143 229.044C384.334 228.997 384.508 228.898 384.647 228.758C384.716 228.686 384.77 228.602 384.805 228.51C384.841 228.417 384.858 228.319 384.855 228.219C384.844 228.12 384.811 228.024 384.758 227.938C384.706 227.853 384.635 227.78 384.551 227.724C384.292 227.539 383.996 227.411 383.683 227.351L382.329 226.986C381.816 226.839 381.408 226.717 381.104 226.604C380.782 226.492 380.468 226.356 380.166 226.196C379.895 226.063 379.653 225.877 379.454 225.649C379.279 225.429 379.143 225.179 379.055 224.911C378.952 224.58 378.902 224.234 378.907 223.886C378.894 223.441 379.002 222.999 379.219 222.61C379.436 222.22 379.754 221.896 380.14 221.672C381.146 221.109 382.304 220.878 383.449 221.012C383.829 221.028 384.207 221.08 384.578 221.169C384.854 221.226 385.127 221.302 385.394 221.394L386.123 221.707C386.336 221.801 386.515 221.959 386.636 222.158C386.747 222.327 386.796 222.53 386.774 222.732C386.756 222.919 386.697 223.1 386.601 223.261C386.551 223.346 386.483 223.418 386.402 223.473C386.321 223.529 386.229 223.566 386.132 223.583C385.902 223.625 385.665 223.604 385.446 223.522C384.804 223.286 384.137 223.129 383.457 223.053C383.206 223.04 382.954 223.04 382.702 223.053C382.45 223.057 382.203 223.123 381.981 223.244C381.887 223.282 381.807 223.346 381.75 223.43C381.692 223.513 381.661 223.612 381.66 223.713C381.655 223.818 381.676 223.924 381.722 224.019C381.767 224.114 381.835 224.197 381.92 224.26C382.184 224.428 382.48 224.54 382.789 224.59L384.126 224.928C384.596 225.041 385.057 225.187 385.507 225.363C385.866 225.505 386.205 225.695 386.514 225.927C386.808 226.156 387.041 226.454 387.191 226.795C387.347 227.166 387.427 227.565 387.426 227.968C387.457 228.633 387.257 229.29 386.861 229.826C386.465 230.341 385.924 230.725 385.307 230.929C384.584 231.172 383.819 231.27 383.058 231.215C381.717 231.191 380.414 230.768 379.315 230ZM382.459 218.972C382.454 218.881 382.468 218.79 382.5 218.706C382.532 218.621 382.582 218.543 382.646 218.479C382.709 218.414 382.786 218.364 382.87 218.33C382.955 218.297 383.045 218.282 383.136 218.286C383.309 218.287 383.474 218.355 383.596 218.477C383.666 218.539 383.72 218.615 383.756 218.701C383.792 218.786 383.809 218.879 383.805 218.972V221.446H382.459V218.972ZM382.641 230.625H384.048V233.073C384.056 233.195 384.029 233.317 383.968 233.424C383.908 233.53 383.818 233.617 383.709 233.673C383.605 233.732 383.486 233.763 383.366 233.763C383.246 233.763 383.128 233.732 383.023 233.673C382.912 233.617 382.82 233.529 382.76 233.421C382.7 233.313 382.673 233.188 382.685 233.065L382.641 230.625Z" fill="#263238"/>
<path d="M383.15 221.69C390.847 221.69 397.086 215.45 397.086 207.753C397.086 200.056 390.847 193.816 383.15 193.816C375.453 193.816 369.213 200.056 369.213 207.753C369.213 215.45 375.453 221.69 383.15 221.69Z" fill="white" stroke="#263238" stroke-linecap="round" stroke-linejoin="round"/>
<path d="M390.477 215.079C394.523 211.033 394.523 204.474 390.477 200.429C386.432 196.383 379.873 196.383 375.827 200.429C371.781 204.474 371.781 211.033 375.827 215.079C379.873 219.124 386.432 219.124 390.477 215.079Z" fill="url(#paint6_linear_728_20832)" stroke="#263238" stroke-linecap="round" stroke-linejoin="round"/>
<path d="M379.315 211.503C379.146 211.388 379.023 211.215 378.968 211.017C378.905 210.834 378.905 210.636 378.968 210.453C379.026 210.271 379.124 210.105 379.255 209.966C379.388 209.823 379.572 209.737 379.767 209.723C379.999 209.709 380.231 209.761 380.436 209.871L380.8 210.062C381 210.166 381.174 210.262 381.321 210.322C381.527 210.411 381.739 210.484 381.955 210.54C382.239 210.612 382.53 210.653 382.824 210.661C383.043 210.687 383.264 210.687 383.483 210.661C383.706 210.638 383.926 210.601 384.143 210.548C384.334 210.501 384.508 210.401 384.647 210.262C384.716 210.19 384.77 210.106 384.805 210.013C384.841 209.921 384.858 209.822 384.855 209.723C384.844 209.624 384.811 209.528 384.758 209.442C384.706 209.357 384.635 209.284 384.551 209.228C384.292 209.043 383.996 208.915 383.683 208.855L382.329 208.49C381.816 208.343 381.408 208.221 381.104 208.108C380.782 207.996 380.468 207.86 380.166 207.7C379.895 207.566 379.653 207.381 379.454 207.153C379.279 206.933 379.143 206.683 379.055 206.415C378.952 206.083 378.902 205.738 378.907 205.39C378.894 204.944 379.002 204.503 379.219 204.113C379.436 203.724 379.754 203.4 380.14 203.176C381.146 202.613 382.304 202.382 383.449 202.516C383.829 202.532 384.207 202.584 384.578 202.672C384.854 202.73 385.127 202.806 385.394 202.898L386.123 203.211C386.336 203.305 386.515 203.463 386.636 203.662C386.747 203.831 386.796 204.034 386.774 204.235C386.756 204.423 386.697 204.604 386.601 204.765C386.551 204.85 386.483 204.922 386.402 204.977C386.321 205.033 386.229 205.07 386.132 205.086C385.902 205.129 385.665 205.108 385.446 205.026C384.804 204.79 384.137 204.633 383.457 204.557C383.206 204.544 382.954 204.544 382.702 204.557C382.45 204.561 382.203 204.627 381.981 204.748C381.887 204.786 381.807 204.85 381.75 204.934C381.692 205.017 381.661 205.116 381.66 205.217C381.655 205.322 381.676 205.427 381.722 205.523C381.767 205.618 381.835 205.701 381.92 205.764C382.184 205.932 382.48 206.044 382.789 206.094L384.126 206.432C384.596 206.545 385.057 206.69 385.507 206.867C385.866 207.009 386.205 207.199 386.514 207.431C386.808 207.66 387.041 207.958 387.191 208.299C387.347 208.67 387.427 209.069 387.426 209.472C387.457 210.137 387.257 210.794 386.861 211.33C386.465 211.845 385.924 212.229 385.307 212.433C384.584 212.676 383.819 212.774 383.058 212.719C381.717 212.695 380.414 212.272 379.315 211.503ZM382.459 200.476C382.454 200.385 382.468 200.294 382.5 200.209C382.532 200.125 382.582 200.047 382.646 199.983C382.709 199.918 382.786 199.868 382.87 199.834C382.955 199.801 383.045 199.786 383.136 199.79C383.309 199.791 383.474 199.859 383.596 199.981C383.666 200.042 383.72 200.119 383.756 200.205C383.792 200.29 383.809 200.383 383.805 200.476V202.95H382.459V200.476ZM382.641 212.129H384.048V214.577C384.056 214.699 384.029 214.821 383.968 214.928C383.908 215.034 383.818 215.121 383.709 215.176C383.605 215.236 383.486 215.267 383.366 215.267C383.246 215.267 383.128 215.236 383.023 215.176C382.912 215.121 382.82 215.033 382.76 214.925C382.7 214.816 382.673 214.692 382.685 214.569L382.641 212.129Z" fill="#263238"/>
<path d="M352.731 256.406C352.731 256.406 351.862 262.432 351.298 262.485L348.432 262.554C348.432 262.554 347.503 265.862 345.532 267.338C343.561 268.815 340.687 267.877 339.228 266.765C338.258 265.983 337.383 265.088 336.623 264.1C336.623 264.1 348.84 255.06 352.731 256.406Z" fill="white" stroke="#263238" stroke-miterlimit="10"/>
<path d="M342.147 320.298C342.147 320.298 358.507 322.799 359.653 322.773C360.799 322.747 365.618 320.775 367.043 320.463C368.467 320.15 371.697 317.493 371.697 317.493L357.534 317.667L341.748 309.148L342.147 320.298Z" fill="#263238" stroke="#263238" stroke-miterlimit="10"/>
<path d="M367.041 320.462C368.466 320.141 371.696 317.492 371.696 317.492L357.533 317.666C356.943 317.881 356.437 318.28 356.088 318.803C355.74 319.326 355.568 319.947 355.597 320.575C355.667 320.962 355.817 321.329 356.039 321.654C356.26 321.979 356.547 322.253 356.882 322.459C358.341 322.65 359.391 322.78 359.652 322.772C360.798 322.746 365.617 320.774 367.041 320.462Z" fill="white" stroke="#263238" stroke-miterlimit="10"/>
<path d="M320.871 341.241C320.871 341.241 321.974 371.181 322.087 376.027C322.2 380.872 316.929 391.778 317.537 399.472C318.145 407.165 318.979 424.332 318.979 424.332L324.927 424.202C325.552 420.909 326.361 417.653 327.349 414.45C329.469 407.608 330.863 400.562 331.509 393.428C332.004 386.143 334.852 365.598 332.16 353.754C329.468 341.91 325.821 336.057 322.973 336.778C320.125 337.499 320.871 341.241 320.871 341.241Z" fill="#3B3B3B" stroke="#263238" stroke-miterlimit="10"/>
<path d="M317.186 324.578C317.186 324.578 315.623 333.426 317.707 338.011C319.791 342.596 323.142 354.631 325.062 361.639C326.981 368.646 327.371 376.122 325.53 382.557C323.69 388.991 324.983 397.318 326.451 404.126C327.918 410.934 330.211 425.192 330.211 425.192L335.716 425.07C335.716 425.07 338.182 397.284 339.571 390.615C341.273 381.949 342.258 373.158 342.515 364.33C342.749 355.074 342.055 333.939 342.055 333.939L342.333 326.662L317.186 324.578Z" fill="#666666" stroke="#263238" stroke-miterlimit="10"/>
<path d="M324.945 424.086C324.945 424.086 326.482 425.25 327.637 426.092C328.792 426.934 333.828 427.768 334.14 427.985C334.484 428.268 334.801 428.582 335.087 428.923V429.452H317.877C317.877 429.452 317.321 425.979 318.893 424.242L318.997 424.121L324.945 424.086Z" fill="white" stroke="#263238" stroke-miterlimit="10"/>
<path d="M317.789 428.516H334.73C334.93 428.724 335.086 428.906 335.086 428.906V429.436H317.876C317.831 429.131 317.802 428.824 317.789 428.516Z" fill="white" stroke="#263238" stroke-miterlimit="10"/>
<path d="M335.741 425.043C335.741 425.043 340.655 428.169 343.382 428.69C346.109 429.211 348.106 430.166 348.21 430.583C348.314 431 330.053 430.583 330.053 430.583C330.053 430.583 329.419 430.583 329.419 428.482C329.382 427.322 329.665 426.175 330.235 425.165L335.741 425.043Z" fill="white" stroke="#263238" stroke-miterlimit="10"/>
<path d="M330.047 430.611C330.047 430.611 329.674 430.611 329.5 429.621H346.563C347.535 430.003 348.152 430.385 348.204 430.611C348.308 431.028 330.047 430.611 330.047 430.611Z" fill="white" stroke="#263238" stroke-miterlimit="10"/>
<path d="M352.93 242.451C352.93 242.451 358.678 251.091 360.215 252.559C361.752 254.026 351.992 258.081 348.18 259.67C344.368 261.259 336.77 265.914 336.154 266.99C335.537 268.067 337.509 270.168 339.28 272.912C341.051 275.656 342.953 283.949 343.274 289.072C343.596 294.195 342.762 304.268 343.726 309.165C344.69 314.063 344.898 323.449 344.976 324.752C344.878 325.711 344.568 326.637 344.068 327.461C343.568 328.286 342.89 328.989 342.085 329.519C340.391 330.387 326.238 328.373 321.297 327.635C316.356 326.897 315.531 327.973 315.271 325.629C315.01 323.284 316.434 320.254 316.391 318.335C316.347 316.416 313.925 294.438 313.395 289.524C312.988 284.704 314.211 279.888 316.868 275.847C318.119 273.894 319.855 272.443 321.21 270.637C321.826 269.83 324.249 267.086 324.136 265.983C323.672 260.86 323.701 255.705 324.223 250.588C325.091 243.294 329.251 236.364 335.216 235.374C339.225 234.629 343.368 235.211 347.017 237.033C349.413 238.04 352.93 242.451 352.93 242.451Z" fill="#263238" stroke="#263238" stroke-miterlimit="10"/>
<path d="M322.253 281.828C322.253 281.828 318.736 284.485 318.832 288.627C318.928 292.769 323.834 313.809 324.589 315.971C325.344 318.133 328.653 318.307 329.374 318.576C330.094 318.845 358.315 307.913 358.315 307.913C358.315 307.913 361.658 310.266 362.952 310.24L367.806 310.136C367.806 310.136 369.291 312.532 369.725 312.524C370.159 312.515 369.985 311.369 369.82 310.518C369.655 309.667 368.9 307.531 368.9 307.531C368.9 307.531 364.984 305.186 363.117 304.804C361.25 304.422 359.227 303.745 358.089 304.057C356.952 304.37 334.141 308.026 334.141 308.026C334.141 308.026 334.662 292.7 334.297 289.417C333.932 286.135 332.56 282.74 329.955 282.219" fill="#263238"/>
<path d="M322.253 281.828C322.253 281.828 318.736 284.485 318.832 288.627C318.928 292.769 323.834 313.809 324.589 315.971C325.344 318.133 328.653 318.307 329.374 318.576C330.094 318.845 358.315 307.913 358.315 307.913C358.315 307.913 361.658 310.266 362.952 310.24L367.806 310.136C367.806 310.136 369.291 312.532 369.725 312.524C370.159 312.515 369.985 311.369 369.82 310.518C369.655 309.667 368.9 307.531 368.9 307.531C368.9 307.531 364.984 305.186 363.117 304.804C361.25 304.422 359.227 303.745 358.089 304.057C356.952 304.37 334.141 308.026 334.141 308.026C334.141 308.026 334.662 292.7 334.297 289.417C333.932 286.135 332.56 282.74 329.955 282.219" stroke="#263238" stroke-miterlimit="10"/>
<path d="M338.723 315.774C338.723 315.774 329.258 319.03 326.566 319.03C323.874 319.03 321.834 313.699 321.834 309.557C321.834 305.415 319.168 292.095 319.168 287.658C319.168 283.22 323.015 280.555 323.015 280.555" stroke="#666666" stroke-miterlimit="10"/>
<path d="M331.621 284.105C331.621 284.105 334.582 286.763 333.992 293.57C333.696 296.939 334.139 308.037 334.139 308.037L341.39 306.3" stroke="#666666" stroke-miterlimit="10"/>
<path d="M362.948 310.251L367.802 310.147C367.802 310.147 369.287 312.543 369.721 312.535C370.155 312.526 369.982 311.38 369.817 310.529C369.652 309.678 368.896 307.542 368.896 307.542C368.896 307.542 364.98 305.197 363.113 304.815C361.246 304.433 359.223 303.756 358.085 304.068C357.782 304.147 355.932 304.468 353.396 304.893L354.386 309.435L358.311 307.924C358.311 307.924 361.654 310.277 362.948 310.251Z" fill="white" stroke="#263238" stroke-miterlimit="10"/>
<path d="M381.202 291.048L379.67 290.699L373.762 316.641L375.294 316.99L381.202 291.048Z" fill="url(#paint7_linear_728_20832)" stroke="#263238" stroke-miterlimit="10"/>
<path d="M375.528 315.823L343.643 316.535L343.678 318.106L375.564 317.394L375.528 315.823Z" fill="url(#paint8_linear_728_20832)" stroke="#263238" stroke-miterlimit="10"/>
<path d="M382.816 280.547L389.633 264.961H376L382.816 280.547Z" fill="#263238"/>
<path d="M233.998 405.369V384.711H171.851V405.369C171.842 412.13 169.513 418.683 165.252 423.934L162.525 427.303H243.28L240.562 423.934C236.314 418.679 233.997 412.126 233.998 405.369Z" fill="white"/>
<mask id="mask0_728_20832" style="mask-type:luminance" maskUnits="userSpaceOnUse" x="162" y="384" width="82" height="44">
<path d="M234.004 405.369V384.711H171.857V405.369C171.848 412.13 169.519 418.683 165.258 423.934L162.531 427.303H243.286L240.568 423.934C236.32 418.679 234.003 412.126 234.004 405.369Z" fill="white"/>
</mask>
<g mask="url(#mask0_728_20832)">
<path d="M168.047 398.058H237.817C235.322 393.644 234.009 388.661 234.005 383.591V362.934H171.859V383.591C171.855 388.661 170.542 393.644 168.047 398.058Z" fill="#263238"/>
</g>
<path d="M233.998 405.369V384.711H171.851V405.369C171.842 412.13 169.513 418.683 165.252 423.934L162.525 427.303H243.28L240.562 423.934C236.314 418.679 233.997 412.126 233.998 405.369Z" stroke="#263238" stroke-linecap="round" stroke-linejoin="round"/>
<path d="M320.443 207.832H85.4025C81.3358 207.832 78.0391 211.129 78.0391 215.195V383.86C78.0391 387.927 81.3358 391.224 85.4025 391.224H320.443C324.509 391.224 327.806 387.927 327.806 383.86V215.195C327.806 211.129 324.509 207.832 320.443 207.832Z" fill="#263238" stroke="#263238" stroke-linecap="round" stroke-linejoin="round"/>
<path d="M78.0391 362.715H327.806V383.85C327.806 385.803 327.03 387.676 325.649 389.057C324.268 390.438 322.396 391.214 320.443 391.214H85.4112C83.4583 391.214 81.5854 390.438 80.2045 389.057C78.8235 387.676 78.0477 385.803 78.0477 383.85V362.715H78.0391Z" fill="white" stroke="#263238" stroke-linecap="round" stroke-linejoin="round"/>
<path d="M315.239 219.242H90.6016V348.806H315.239V219.242Z" fill="url(#paint9_linear_728_20832)" stroke="white" stroke-linecap="round" stroke-linejoin="round"/>
<path d="M243.332 427.305H162.525V430.995H243.332V427.305Z" fill="white" stroke="#263238" stroke-linecap="round" stroke-linejoin="round"/>
<path d="M125.123 246.241L129.126 229.969H116.986L125.123 246.241Z" fill="white" stroke="#263238" stroke-linecap="round" stroke-linejoin="round"/>
<path d="M125.121 246.238L126.015 230.582H118.287L125.121 246.238Z" fill="url(#paint10_linear_728_20832)" stroke="#263238" stroke-linecap="round" stroke-linejoin="round"/>
<path d="M125.117 246.239L124.292 229.367H116.572L125.117 246.239Z" fill="url(#paint11_linear_728_20832)" stroke="#263238" stroke-linecap="round" stroke-linejoin="round"/>
<path d="M110.706 228.586L108.709 226.328H98.2285L103.143 246.239H125.121L121.639 228.586H110.706Z" fill="white" stroke="#263238" stroke-linecap="round" stroke-linejoin="round"/>
<path d="M125.123 275.683L129.126 259.41H116.986L125.123 275.683Z" fill="white" stroke="#263238" stroke-linecap="round" stroke-linejoin="round"/>
<path d="M125.121 275.683L126.015 260.027H118.287L125.121 275.683Z" fill="url(#paint12_linear_728_20832)" stroke="#263238" stroke-linecap="round" stroke-linejoin="round"/>
<path d="M125.117 275.684L124.292 258.812H116.572L125.117 275.684Z" fill="url(#paint13_linear_728_20832)" stroke="#263238" stroke-linecap="round" stroke-linejoin="round"/>
<path d="M110.706 258.031L108.709 255.773H98.2285L103.143 275.684H125.121L121.639 258.031H110.706Z" fill="white" stroke="#263238" stroke-linecap="round" stroke-linejoin="round"/>
<path d="M125.123 305.128L129.126 288.855H116.986L125.123 305.128Z" fill="white" stroke="#263238" stroke-linecap="round" stroke-linejoin="round"/>
<path d="M125.121 305.129L126.015 289.473H118.287L125.121 305.129Z" fill="url(#paint14_linear_728_20832)" stroke="#263238" stroke-linecap="round" stroke-linejoin="round"/>
<path d="M125.117 305.126L124.292 288.246H116.572L125.117 305.126Z" fill="url(#paint15_linear_728_20832)" stroke="#263238" stroke-linecap="round" stroke-linejoin="round"/>
<path d="M110.706 287.473L108.709 285.215H98.2285L103.143 305.126H125.121L121.639 287.473H110.706Z" fill="white" stroke="#263238" stroke-linecap="round" stroke-linejoin="round"/>
<path d="M305.506 315.87L309.501 299.598H297.361L305.506 315.87Z" fill="white" stroke="#263238" stroke-linecap="round" stroke-linejoin="round"/>
<path d="M305.506 315.871L306.391 300.215H298.672L305.506 315.871Z" fill="url(#paint16_linear_728_20832)" stroke="#263238" stroke-linecap="round" stroke-linejoin="round"/>
<path d="M305.506 315.869L304.681 298.988H296.953L305.506 315.869Z" fill="url(#paint17_linear_728_20832)" stroke="#263238" stroke-linecap="round" stroke-linejoin="round"/>
<path d="M291.087 298.219L289.09 295.961H278.609L283.524 315.872H305.51L302.02 298.219H291.087Z" fill="white" stroke="#263238" stroke-linecap="round" stroke-linejoin="round"/>
<path d="M305.506 246.031L309.501 229.75H297.361L305.506 246.031Z" fill="white" stroke="#263238" stroke-linecap="round" stroke-linejoin="round"/>
<path d="M305.506 246.032L306.391 230.367H298.672L305.506 246.032Z" fill="url(#paint18_linear_728_20832)" stroke="#263238" stroke-linecap="round" stroke-linejoin="round"/>
<path d="M305.506 246.029L304.681 229.148H296.953L305.506 246.029Z" fill="url(#paint19_linear_728_20832)" stroke="#263238" stroke-linecap="round" stroke-linejoin="round"/>
<path d="M291.087 228.37L289.09 226.121H278.609L283.524 246.032H305.51L302.02 228.37H291.087Z" fill="white" stroke="#263238" stroke-linecap="round" stroke-linejoin="round"/>
<path d="M305.506 343.941L309.501 327.668H297.361L305.506 343.941Z" fill="white" stroke="#263238" stroke-linecap="round" stroke-linejoin="round"/>
<path d="M305.506 343.945L306.391 328.289H298.672L305.506 343.945Z" fill="url(#paint20_linear_728_20832)" stroke="#263238" stroke-linecap="round" stroke-linejoin="round"/>
<path d="M305.506 343.946L304.681 327.074H296.953L305.506 343.946Z" fill="url(#paint21_linear_728_20832)" stroke="#263238" stroke-linecap="round" stroke-linejoin="round"/>
<path d="M291.087 326.293L289.09 324.035H278.609L283.524 343.946H305.51L302.02 326.293H291.087Z" fill="white" stroke="#263238" stroke-linecap="round" stroke-linejoin="round"/>
<path d="M218.673 303.879H217.805V251.189H237.689V229.637H238.558V252.057H218.673V303.879Z" fill="white"/>
<path d="M226.445 229.637H225.576V251.38H226.445V229.637Z" fill="white"/>
<path d="M239.408 229.671C239.41 229.926 239.336 230.175 239.196 230.387C239.056 230.6 238.856 230.766 238.621 230.864C238.386 230.963 238.128 230.99 237.878 230.941C237.628 230.893 237.398 230.771 237.217 230.591C237.037 230.412 236.914 230.183 236.863 229.934C236.813 229.684 236.838 229.425 236.935 229.19C237.032 228.955 237.197 228.753 237.408 228.612C237.62 228.47 237.868 228.395 238.123 228.395C238.462 228.395 238.788 228.529 239.029 228.768C239.269 229.007 239.406 229.332 239.408 229.671Z" fill="white"/>
<path d="M238.168 231.356C237.825 231.356 237.489 231.254 237.203 231.063C236.918 230.873 236.695 230.601 236.564 230.284C236.432 229.967 236.398 229.618 236.465 229.281C236.532 228.944 236.697 228.634 236.94 228.391C237.183 228.149 237.493 227.983 237.83 227.916C238.166 227.849 238.516 227.884 238.833 228.015C239.15 228.146 239.421 228.369 239.612 228.655C239.803 228.94 239.905 229.276 239.905 229.619C239.905 230.08 239.722 230.522 239.396 230.847C239.071 231.173 238.629 231.356 238.168 231.356ZM238.168 228.795C237.976 228.838 237.805 228.946 237.682 229.1C237.56 229.253 237.493 229.444 237.493 229.641C237.493 229.838 237.56 230.029 237.682 230.183C237.805 230.337 237.976 230.444 238.168 230.488C238.295 230.517 238.428 230.517 238.555 230.488C238.682 230.459 238.801 230.401 238.903 230.32C239.005 230.239 239.087 230.135 239.144 230.018C239.2 229.9 239.23 229.772 239.23 229.641C239.23 229.511 239.2 229.382 239.144 229.264C239.087 229.147 239.005 229.044 238.903 228.962C238.801 228.881 238.682 228.824 238.555 228.795C238.428 228.766 238.295 228.766 238.168 228.795Z" fill="white"/>
<path d="M227.342 229.671C227.343 229.926 227.269 230.176 227.129 230.388C226.988 230.601 226.788 230.767 226.552 230.865C226.317 230.964 226.058 230.99 225.808 230.941C225.558 230.891 225.328 230.769 225.148 230.588C224.968 230.408 224.845 230.178 224.796 229.928C224.746 229.678 224.773 229.419 224.871 229.184C224.969 228.949 225.135 228.748 225.348 228.608C225.561 228.467 225.81 228.393 226.065 228.395C226.404 228.395 226.728 228.529 226.968 228.768C227.207 229.008 227.342 229.332 227.342 229.671Z" fill="white"/>
<path d="M226.061 231.356C225.717 231.356 225.382 231.254 225.096 231.063C224.81 230.873 224.588 230.601 224.456 230.284C224.325 229.967 224.291 229.618 224.358 229.281C224.425 228.944 224.59 228.634 224.833 228.391C225.076 228.149 225.385 227.983 225.722 227.916C226.059 227.849 226.408 227.884 226.725 228.015C227.043 228.146 227.314 228.369 227.505 228.655C227.696 228.94 227.798 229.276 227.798 229.619C227.798 230.08 227.615 230.522 227.289 230.847C226.963 231.173 226.521 231.356 226.061 231.356ZM226.061 228.795C225.889 228.795 225.721 228.845 225.578 228.941C225.436 229.036 225.324 229.172 225.259 229.331C225.193 229.489 225.176 229.664 225.209 229.832C225.243 230.001 225.325 230.155 225.447 230.277C225.568 230.398 225.723 230.481 225.891 230.515C226.06 230.548 226.235 230.531 226.393 230.465C226.552 230.399 226.687 230.288 226.783 230.145C226.878 230.003 226.929 229.835 226.929 229.663C226.927 229.434 226.834 229.215 226.672 229.055C226.509 228.894 226.29 228.803 226.061 228.803V228.795Z" fill="white"/>
<path d="M187.876 274.123H187.007V252.762L180.721 246.476V230.594H181.589V246.12L187.876 252.398V274.123Z" fill="white"/>
<path d="M182.449 229.941C182.451 230.195 182.377 230.445 182.236 230.658C182.096 230.87 181.895 231.036 181.66 231.135C181.425 231.233 181.166 231.259 180.915 231.21C180.665 231.161 180.436 231.038 180.255 230.858C180.075 230.678 179.952 230.448 179.903 230.198C179.854 229.948 179.88 229.689 179.978 229.453C180.077 229.218 180.243 229.018 180.455 228.877C180.668 228.737 180.918 228.662 181.173 228.664C181.511 228.664 181.836 228.799 182.075 229.038C182.315 229.277 182.449 229.602 182.449 229.941Z" fill="white"/>
<path d="M181.17 231.661C180.827 231.661 180.491 231.559 180.205 231.368C179.92 231.177 179.697 230.906 179.566 230.589C179.434 230.271 179.4 229.922 179.467 229.585C179.534 229.248 179.699 228.939 179.942 228.696C180.185 228.453 180.495 228.288 180.831 228.221C181.168 228.154 181.518 228.188 181.835 228.32C182.152 228.451 182.423 228.674 182.614 228.959C182.805 229.245 182.907 229.581 182.907 229.924C182.907 230.385 182.724 230.826 182.398 231.152C182.073 231.478 181.631 231.661 181.17 231.661ZM181.17 229.099C180.999 229.099 180.831 229.15 180.688 229.246C180.545 229.341 180.434 229.477 180.368 229.635C180.302 229.794 180.285 229.969 180.319 230.137C180.352 230.305 180.435 230.46 180.556 230.582C180.678 230.703 180.832 230.786 181.001 230.819C181.169 230.853 181.344 230.836 181.503 230.77C181.661 230.704 181.797 230.593 181.892 230.45C181.988 230.307 182.039 230.139 182.039 229.968C182.039 229.737 181.947 229.516 181.784 229.354C181.621 229.191 181.401 229.099 181.17 229.099Z" fill="white"/>
<path d="M187.134 283.935H170.097V270.919H147.199V270.051H170.965V283.067H187.134V283.935Z" fill="white"/>
<path d="M147.202 271.756C147.907 271.756 148.479 271.185 148.479 270.48C148.479 269.775 147.907 269.203 147.202 269.203C146.497 269.203 145.926 269.775 145.926 270.48C145.926 271.185 146.497 271.756 147.202 271.756Z" fill="white"/>
<path d="M147.203 272.219C146.86 272.219 146.524 272.118 146.239 271.927C145.953 271.736 145.73 271.465 145.599 271.147C145.468 270.83 145.433 270.481 145.5 270.144C145.567 269.807 145.733 269.498 145.975 269.255C146.218 269.012 146.528 268.846 146.865 268.779C147.202 268.712 147.551 268.747 147.868 268.878C148.185 269.01 148.457 269.232 148.647 269.518C148.838 269.804 148.94 270.139 148.94 270.483C148.94 270.943 148.757 271.385 148.431 271.711C148.106 272.036 147.664 272.219 147.203 272.219ZM147.203 269.614C147.032 269.614 146.864 269.665 146.721 269.761C146.578 269.856 146.467 269.992 146.401 270.15C146.336 270.309 146.318 270.484 146.352 270.652C146.385 270.821 146.468 270.975 146.589 271.097C146.711 271.218 146.866 271.301 147.034 271.334C147.202 271.368 147.377 271.351 147.536 271.285C147.694 271.219 147.83 271.108 147.925 270.965C148.021 270.822 148.072 270.655 148.072 270.483C148.072 270.252 147.98 270.032 147.817 269.869C147.655 269.706 147.434 269.614 147.203 269.614Z" fill="white"/>
<path d="M229.435 302.088H141.951V288.177H123.533V287.309H142.819V301.219H229.435V302.088Z" fill="white"/>
<path d="M124.851 287.702C124.853 287.957 124.779 288.207 124.639 288.419C124.498 288.632 124.297 288.798 124.062 288.897C123.827 288.995 123.568 289.021 123.318 288.972C123.068 288.922 122.838 288.8 122.658 288.62C122.477 288.439 122.355 288.21 122.306 287.96C122.256 287.709 122.282 287.45 122.381 287.215C122.479 286.98 122.645 286.779 122.858 286.639C123.07 286.498 123.32 286.424 123.575 286.426C123.914 286.426 124.238 286.56 124.478 286.8C124.717 287.039 124.851 287.364 124.851 287.702Z" fill="white"/>
<path d="M123.551 289.411C123.208 289.411 122.872 289.309 122.586 289.118C122.301 288.927 122.078 288.656 121.947 288.339C121.815 288.021 121.781 287.672 121.848 287.335C121.915 286.998 122.08 286.689 122.323 286.446C122.566 286.203 122.875 286.038 123.212 285.971C123.549 285.904 123.898 285.938 124.216 286.07C124.533 286.201 124.804 286.424 124.995 286.709C125.186 286.995 125.288 287.331 125.288 287.674C125.288 288.135 125.105 288.576 124.779 288.902C124.453 289.228 124.012 289.411 123.551 289.411ZM123.551 286.858C123.379 286.858 123.211 286.909 123.069 287.004C122.926 287.1 122.815 287.235 122.749 287.394C122.683 287.553 122.666 287.727 122.699 287.896C122.733 288.064 122.816 288.219 122.937 288.34C123.059 288.462 123.213 288.544 123.382 288.578C123.55 288.611 123.725 288.594 123.883 288.528C124.042 288.463 124.178 288.351 124.273 288.209C124.369 288.066 124.419 287.898 124.419 287.726C124.419 287.496 124.328 287.275 124.165 287.112C124.002 286.949 123.781 286.858 123.551 286.858Z" fill="white"/>
<path d="M182.178 334.781H159.758V333.913H181.31V320.896H188.934V309.66H189.802V321.765H182.178V334.781Z" fill="white"/>
<path d="M161.148 334.105C161.148 334.36 161.073 334.608 160.932 334.819C160.791 335.031 160.59 335.195 160.355 335.293C160.12 335.39 159.862 335.415 159.613 335.366C159.363 335.316 159.134 335.194 158.955 335.014C158.775 334.834 158.652 334.605 158.603 334.356C158.553 334.107 158.579 333.848 158.676 333.614C158.773 333.379 158.938 333.178 159.149 333.037C159.361 332.896 159.609 332.82 159.863 332.82C160.032 332.819 160.2 332.852 160.356 332.916C160.513 332.98 160.655 333.075 160.775 333.194C160.894 333.314 160.989 333.456 161.053 333.612C161.117 333.769 161.15 333.936 161.148 334.105Z" fill="white"/>
<path d="M159.864 335.817C159.52 335.817 159.184 335.715 158.899 335.524C158.613 335.334 158.391 335.062 158.259 334.745C158.128 334.428 158.093 334.078 158.16 333.742C158.227 333.405 158.393 333.095 158.636 332.852C158.878 332.61 159.188 332.444 159.525 332.377C159.862 332.31 160.211 332.344 160.528 332.476C160.846 332.607 161.117 332.83 161.308 333.116C161.498 333.401 161.6 333.737 161.6 334.08C161.6 334.541 161.417 334.983 161.092 335.308C160.766 335.634 160.324 335.817 159.864 335.817ZM159.864 333.255C159.692 333.255 159.524 333.306 159.381 333.402C159.238 333.497 159.127 333.633 159.061 333.792C158.996 333.95 158.978 334.125 159.012 334.293C159.045 334.462 159.128 334.616 159.25 334.738C159.371 334.859 159.526 334.942 159.694 334.975C159.863 335.009 160.037 334.992 160.196 334.926C160.355 334.86 160.49 334.749 160.586 334.606C160.681 334.463 160.732 334.296 160.732 334.124C160.732 333.894 160.64 333.673 160.478 333.51C160.315 333.347 160.094 333.255 159.864 333.255Z" fill="white"/>
<path d="M244.769 334.781H222.349V321.765H214.725V309.66H215.593V320.896H223.217V333.913H244.769V334.781Z" fill="white"/>
<path d="M243.381 334.105C243.381 334.36 243.456 334.609 243.598 334.82C243.74 335.032 243.941 335.197 244.176 335.294C244.412 335.391 244.67 335.416 244.92 335.365C245.169 335.315 245.398 335.192 245.578 335.011C245.757 334.83 245.879 334.601 245.928 334.351C245.976 334.101 245.949 333.842 245.851 333.608C245.752 333.373 245.586 333.173 245.374 333.033C245.161 332.893 244.912 332.819 244.657 332.82C244.489 332.82 244.322 332.854 244.167 332.918C244.011 332.983 243.87 333.078 243.752 333.197C243.633 333.317 243.539 333.458 243.476 333.614C243.412 333.77 243.38 333.937 243.381 334.105Z" fill="white"/>
<path d="M244.653 335.817C244.309 335.817 243.973 335.715 243.688 335.524C243.402 335.334 243.18 335.062 243.048 334.745C242.917 334.428 242.882 334.078 242.949 333.742C243.016 333.405 243.182 333.095 243.425 332.852C243.668 332.61 243.977 332.444 244.314 332.377C244.651 332.31 245 332.344 245.317 332.476C245.635 332.607 245.906 332.83 246.097 333.116C246.287 333.401 246.389 333.737 246.389 334.08C246.389 334.541 246.206 334.983 245.881 335.308C245.555 335.634 245.113 335.817 244.653 335.817ZM244.653 333.255C244.481 333.255 244.313 333.306 244.17 333.402C244.027 333.497 243.916 333.633 243.85 333.792C243.785 333.95 243.768 334.125 243.801 334.293C243.835 334.462 243.917 334.616 244.039 334.738C244.16 334.859 244.315 334.942 244.483 334.975C244.652 335.009 244.826 334.992 244.985 334.926C245.144 334.86 245.279 334.749 245.375 334.606C245.47 334.463 245.521 334.296 245.521 334.124C245.521 333.894 245.43 333.673 245.267 333.51C245.104 333.347 244.883 333.255 244.653 333.255Z" fill="white"/>
<path d="M242.175 293.395H226.041V292.527H241.306V282.202H251.631V276.367H261.043V277.236H252.499V283.071H242.175V293.395Z" fill="white"/>
<path d="M262.916 276.559C262.914 276.811 262.838 277.057 262.697 277.265C262.556 277.474 262.356 277.636 262.122 277.732C261.889 277.827 261.632 277.851 261.385 277.801C261.138 277.751 260.912 277.628 260.734 277.449C260.556 277.271 260.436 277.043 260.387 276.796C260.339 276.548 260.364 276.292 260.461 276.059C260.558 275.827 260.722 275.628 260.931 275.488C261.141 275.348 261.388 275.273 261.64 275.273C261.808 275.273 261.975 275.307 262.13 275.371C262.286 275.436 262.427 275.531 262.545 275.65C262.664 275.77 262.758 275.912 262.821 276.067C262.885 276.223 262.917 276.39 262.916 276.559Z" fill="white"/>
<path d="M261.614 278.247C261.27 278.247 260.934 278.145 260.649 277.954C260.363 277.763 260.141 277.492 260.009 277.175C259.878 276.857 259.843 276.508 259.91 276.171C259.977 275.834 260.143 275.525 260.386 275.282C260.628 275.039 260.938 274.874 261.275 274.807C261.612 274.74 261.961 274.774 262.278 274.906C262.596 275.037 262.867 275.26 263.058 275.545C263.248 275.831 263.35 276.167 263.35 276.51C263.35 276.971 263.167 277.412 262.842 277.738C262.516 278.064 262.074 278.247 261.614 278.247ZM261.614 275.685C261.442 275.685 261.274 275.736 261.131 275.832C260.988 275.927 260.877 276.063 260.811 276.221C260.746 276.38 260.728 276.554 260.762 276.723C260.795 276.891 260.878 277.046 261 277.168C261.121 277.289 261.276 277.372 261.444 277.405C261.613 277.439 261.787 277.421 261.946 277.356C262.105 277.29 262.24 277.179 262.336 277.036C262.431 276.893 262.482 276.725 262.482 276.554C262.48 276.325 262.387 276.106 262.225 275.945C262.062 275.784 261.842 275.694 261.614 275.694V275.685Z" fill="white"/>
<path d="M275.896 316.525H275.028V310.681H262.915V303.048H235.076V302.18H263.783V309.812H275.896V316.525Z" fill="white"/>
<path d="M275.508 318.633C275.253 318.633 275.004 318.557 274.793 318.416C274.581 318.274 274.417 318.073 274.32 317.837C274.223 317.602 274.198 317.343 274.248 317.094C274.298 316.844 274.422 316.615 274.602 316.436C274.783 316.256 275.013 316.135 275.262 316.086C275.512 316.038 275.771 316.064 276.006 316.163C276.24 316.261 276.44 316.428 276.581 316.64C276.721 316.852 276.795 317.102 276.793 317.356C276.793 317.525 276.76 317.691 276.695 317.847C276.63 318.002 276.535 318.143 276.416 318.262C276.297 318.381 276.155 318.474 275.999 318.538C275.843 318.602 275.676 318.634 275.508 318.633Z" fill="white"/>
<path d="M275.504 319.11C275.161 319.11 274.825 319.008 274.539 318.817C274.254 318.627 274.031 318.355 273.9 318.038C273.768 317.721 273.734 317.371 273.801 317.035C273.868 316.698 274.033 316.388 274.276 316.145C274.519 315.903 274.829 315.737 275.165 315.67C275.502 315.603 275.852 315.637 276.169 315.769C276.486 315.9 276.757 316.123 276.948 316.409C277.139 316.694 277.241 317.03 277.241 317.373C277.241 317.834 277.058 318.276 276.732 318.601C276.407 318.927 275.965 319.11 275.504 319.11ZM275.504 316.548C275.333 316.548 275.165 316.599 275.022 316.695C274.879 316.79 274.768 316.926 274.702 317.085C274.636 317.243 274.619 317.418 274.653 317.586C274.686 317.755 274.769 317.909 274.89 318.031C275.012 318.152 275.166 318.235 275.335 318.268C275.503 318.302 275.678 318.285 275.837 318.219C275.995 318.153 276.131 318.042 276.226 317.899C276.322 317.756 276.373 317.589 276.373 317.417C276.378 317.299 276.36 317.182 276.319 317.071C276.278 316.961 276.215 316.86 276.134 316.775C276.053 316.689 275.955 316.621 275.847 316.575C275.739 316.529 275.622 316.505 275.504 316.505V316.548Z" fill="white"/>
<path d="M205.354 249.27L239.41 308.247C239.659 308.682 239.79 309.174 239.789 309.675C239.788 310.177 239.656 310.669 239.405 311.103C239.155 311.537 238.795 311.898 238.362 312.149C237.928 312.401 237.436 312.534 236.935 312.536H168.832C168.33 312.535 167.838 312.402 167.404 312.151C166.97 311.899 166.61 311.538 166.361 311.103C166.111 310.669 165.98 310.176 165.98 309.674C165.981 309.173 166.114 308.681 166.366 308.247L200.413 249.27C200.664 248.837 201.025 248.478 201.458 248.229C201.892 247.979 202.383 247.848 202.883 247.848C203.384 247.848 203.875 247.979 204.309 248.229C204.742 248.478 205.103 248.837 205.354 249.27Z" fill="#263238" stroke="#263238" stroke-linecap="round" stroke-linejoin="round"/>
<path d="M203.477 250.813L237.107 309.061C237.169 309.165 237.201 309.285 237.202 309.406C237.202 309.528 237.17 309.647 237.109 309.752C237.048 309.857 236.96 309.944 236.855 310.004C236.749 310.064 236.629 310.095 236.508 310.094H169.256C169.135 310.093 169.017 310.06 168.913 309.999C168.809 309.939 168.723 309.852 168.662 309.748C168.602 309.644 168.569 309.525 168.568 309.405C168.567 309.285 168.598 309.166 168.657 309.061L202.287 250.813C202.347 250.708 202.434 250.621 202.538 250.561C202.643 250.501 202.761 250.469 202.882 250.469C203.002 250.469 203.121 250.501 203.225 250.561C203.33 250.621 203.417 250.708 203.477 250.813Z" fill="#263238" stroke="url(#paint22_linear_728_20832)" stroke-linecap="round" stroke-linejoin="round"/>
<path d="M197.601 269.345C197.415 268.42 197.558 267.459 198.005 266.628C198.452 265.797 199.175 265.149 200.05 264.795C200.93 264.349 201.903 264.117 202.889 264.117C203.876 264.117 204.849 264.349 205.729 264.795C206.603 265.149 207.327 265.797 207.774 266.628C208.221 267.459 208.364 268.42 208.177 269.345L205.572 289.968C205.522 290.73 205.184 291.444 204.626 291.965C204.399 292.195 204.129 292.378 203.83 292.502C203.532 292.627 203.212 292.691 202.889 292.691C202.566 292.691 202.246 292.627 201.948 292.502C201.65 292.378 201.38 292.195 201.153 291.965C200.595 291.444 200.256 290.73 200.206 289.968L197.601 269.345ZM199.642 305.285C199.196 304.844 198.845 304.318 198.609 303.737C198.373 303.157 198.258 302.534 198.27 301.907C198.26 301.287 198.373 300.67 198.602 300.093C198.832 299.517 199.173 298.991 199.607 298.547C200.037 298.09 200.558 297.729 201.138 297.488C201.717 297.247 202.34 297.132 202.967 297.149C203.59 297.144 204.207 297.265 204.782 297.503C205.358 297.741 205.879 298.093 206.316 298.537C206.752 298.981 207.095 299.508 207.324 300.087C207.553 300.666 207.663 301.285 207.648 301.907C207.656 302.528 207.54 303.144 207.308 303.72C207.075 304.295 206.73 304.819 206.293 305.259C205.869 305.715 205.354 306.076 204.781 306.318C204.208 306.561 203.59 306.679 202.967 306.666C202.348 306.675 201.734 306.557 201.162 306.319C200.59 306.082 200.073 305.73 199.642 305.285Z" fill="white"/>
<path d="M257.55 300.254L259.434 298.292L262.908 297.719C262.967 297.708 263.023 297.68 263.068 297.638C263.112 297.597 263.144 297.543 263.159 297.484L263.533 295.956L268.96 297.927C269.696 297.27 270.358 296.534 270.931 295.73L271.669 297.398C271.685 297.441 271.712 297.48 271.747 297.51L273.684 299.152L274.291 301.757C274.31 301.837 274.36 301.907 274.43 301.951C274.5 301.995 274.584 302.009 274.665 301.991C274.745 301.972 274.815 301.923 274.859 301.853C274.903 301.783 274.917 301.698 274.899 301.618L274.265 298.874C274.255 298.809 274.221 298.75 274.17 298.709L272.207 297.05L271.339 295.096C271.435 294.949 271.53 294.801 271.617 294.654L273.284 295.062L273.579 293.837L274.778 294.124C275.646 294.992 279.484 298.917 280.153 301.574C280.175 301.654 280.227 301.722 280.298 301.764C280.37 301.806 280.454 301.819 280.535 301.8C280.575 301.79 280.612 301.772 280.645 301.747C280.678 301.722 280.706 301.691 280.727 301.656C280.748 301.62 280.762 301.581 280.768 301.54C280.773 301.499 280.771 301.458 280.76 301.418C280.057 298.657 276.332 294.801 275.299 293.768L275.846 291.528C277.27 291.137 281.733 289.791 283.887 288.124C283.945 288.07 283.981 287.996 283.987 287.917C283.993 287.838 283.968 287.76 283.919 287.698C283.869 287.636 283.798 287.595 283.719 287.584C283.641 287.573 283.561 287.592 283.496 287.637C281.351 289.331 276.593 290.685 275.481 290.981L274.187 290.668L274.474 289.522L273.11 289.192C273.068 288.652 272.975 288.117 272.833 287.594L274.908 285.918L277.409 285.345C277.476 285.328 277.536 285.292 277.582 285.241L279.397 283.096C279.424 283.065 279.444 283.028 279.457 282.989C279.47 282.95 279.475 282.909 279.472 282.867C279.468 282.826 279.457 282.786 279.438 282.749C279.42 282.713 279.394 282.68 279.362 282.653C279.331 282.626 279.295 282.606 279.256 282.593C279.216 282.581 279.175 282.576 279.134 282.579C279.093 282.582 279.053 282.593 279.016 282.612C278.979 282.631 278.946 282.657 278.92 282.688L277.183 284.763L274.717 285.328C274.669 285.337 274.624 285.358 274.587 285.388L272.659 286.951C272.444 286.289 272.152 285.654 271.791 285.059C271.791 285.059 269.186 284.755 266.338 284.485L266.607 283.391C266.62 283.333 266.616 283.271 266.596 283.214C266.576 283.158 266.541 283.108 266.494 283.07L263.698 280.977L262.925 278.372C262.903 278.293 262.85 278.226 262.779 278.185C262.707 278.145 262.622 278.134 262.543 278.155C262.49 278.17 262.442 278.199 262.404 278.239C262.366 278.279 262.339 278.328 262.326 278.381C262.313 278.435 262.313 278.492 262.326 278.546L263.125 281.247C263.14 281.314 263.18 281.373 263.238 281.412L265.947 283.443L265.704 284.433C263.559 284.234 261.423 284.069 260.337 284.077L259.469 281.42C259.45 281.355 259.409 281.299 259.354 281.259C259.299 281.22 259.233 281.2 259.165 281.203L254.615 281.264L253.365 279.605C253.341 279.572 253.31 279.544 253.275 279.523C253.24 279.502 253.201 279.488 253.161 279.482C253.12 279.477 253.079 279.479 253.039 279.49C253 279.501 252.963 279.519 252.93 279.545C252.875 279.588 252.835 279.65 252.818 279.718C252.805 279.763 252.803 279.81 252.812 279.855C252.821 279.9 252.841 279.943 252.87 279.979L254.216 281.768C254.246 281.805 254.284 281.836 254.328 281.857C254.371 281.878 254.419 281.889 254.467 281.889L258.948 281.828L259.669 284.121C258.033 284.46 256.436 284.963 254.902 285.623C254.53 285.777 254.2 286.019 253.942 286.328C253.684 286.637 253.505 287.004 253.42 287.397C253.334 287.791 253.345 288.199 253.452 288.587C253.559 288.975 253.759 289.332 254.033 289.626L257.272 293.23L255.787 294.793L251.845 292.682C251.801 292.659 251.752 292.647 251.702 292.647C251.652 292.647 251.603 292.659 251.559 292.682L249.544 293.646C249.502 293.666 249.466 293.695 249.438 293.732C249.409 293.768 249.389 293.81 249.379 293.855C249.353 293.922 249.353 293.996 249.379 294.063C249.397 294.1 249.421 294.133 249.452 294.161C249.482 294.188 249.518 294.21 249.557 294.223C249.596 294.237 249.637 294.243 249.678 294.241C249.719 294.239 249.759 294.228 249.796 294.211L251.671 293.342L255.683 295.487C255.741 295.52 255.808 295.532 255.874 295.523C255.94 295.513 256.001 295.482 256.048 295.435L257.715 293.759L257.975 294.037L262.89 295.817L262.552 297.206L259.209 297.762C259.142 297.774 259.081 297.808 259.035 297.858L257.081 299.89C257.049 299.932 257.022 299.979 257.003 300.029C256.99 300.082 256.991 300.139 257.006 300.192C257.022 300.245 257.05 300.294 257.09 300.332C257.124 300.36 257.164 300.38 257.207 300.391C257.249 300.402 257.294 300.404 257.337 300.397C257.381 300.389 257.422 300.373 257.459 300.348C257.496 300.324 257.527 300.292 257.55 300.254Z" fill="#263238"/>
<path d="M260.457 284.859L261.16 287.942L259.736 289.132L260.57 290.712L258.217 293.378L268.654 296.729L267.074 290.92L271.138 285.841L260.457 284.859Z" fill="#7A7A7A"/>
<path d="M257.915 293.302C257.931 293.255 257.955 293.211 257.984 293.171L260.19 290.671L259.46 289.281C259.427 289.218 259.416 289.146 259.43 289.076C259.444 289.006 259.483 288.944 259.539 288.899L260.815 287.831L260.146 284.931C260.138 284.882 260.14 284.832 260.152 284.785C260.164 284.737 260.186 284.692 260.216 284.653C260.249 284.615 260.291 284.586 260.338 284.568C260.385 284.55 260.435 284.543 260.485 284.549L271.166 285.53C271.223 285.534 271.277 285.554 271.323 285.588C271.369 285.622 271.405 285.668 271.426 285.721C271.447 285.772 271.454 285.828 271.447 285.883C271.439 285.938 271.417 285.99 271.383 286.034L267.414 290.992L268.951 296.645C268.966 296.698 268.966 296.755 268.952 296.809C268.937 296.863 268.908 296.912 268.868 296.951C268.829 296.99 268.779 297.017 268.725 297.031C268.671 297.044 268.614 297.043 268.561 297.027L258.141 293.675C258.092 293.657 258.048 293.628 258.012 293.59C257.976 293.553 257.948 293.507 257.932 293.458C257.918 293.407 257.912 293.354 257.915 293.302ZM260.867 290.783C260.856 290.835 260.833 290.883 260.798 290.922L258.766 293.223L268.205 296.254L266.772 291C266.758 290.953 266.756 290.902 266.767 290.854C266.777 290.805 266.8 290.76 266.833 290.723L270.532 286.103L260.859 285.235L261.466 287.901C261.478 287.957 261.474 288.016 261.456 288.071C261.438 288.126 261.405 288.175 261.362 288.213L260.129 289.238L260.841 290.592C260.869 290.652 260.878 290.719 260.867 290.783Z" fill="#263238"/>
<path d="M270.606 286.684L267.072 290.921L268.548 295.488L271.918 291.937L270.606 286.684Z" fill="#7A7A7A"/>
<path d="M266.771 290.84C266.779 290.795 266.8 290.752 266.832 290.719L270.374 286.481C270.409 286.436 270.456 286.401 270.51 286.383C270.565 286.364 270.623 286.362 270.678 286.377C270.734 286.39 270.786 286.417 270.827 286.457C270.869 286.497 270.898 286.547 270.913 286.603L272.224 291.856C272.237 291.908 272.237 291.962 272.223 292.014C272.21 292.066 272.183 292.113 272.146 292.152L268.777 295.703C268.739 295.742 268.692 295.77 268.641 295.785C268.589 295.801 268.534 295.802 268.481 295.79C268.428 295.779 268.379 295.754 268.339 295.717C268.3 295.681 268.271 295.634 268.256 295.581L266.771 291.014C266.753 290.957 266.753 290.897 266.771 290.84ZM270.453 287.367L267.422 291.005L268.681 294.904L271.581 291.865L270.453 287.367Z" fill="#263238"/>
<path d="M171.151 239.146L168.789 240.492L165.315 240.066C165.256 240.058 165.195 240.068 165.141 240.094C165.087 240.12 165.042 240.162 165.012 240.214L164.221 241.569L159.567 238.147C158.676 238.565 157.835 239.081 157.058 239.684L156.832 237.878C156.825 237.831 156.807 237.787 156.78 237.748L155.39 235.621L155.564 232.92C155.566 232.879 155.561 232.838 155.547 232.799C155.533 232.76 155.512 232.724 155.485 232.694C155.458 232.663 155.424 232.638 155.387 232.62C155.35 232.603 155.31 232.592 155.269 232.59C155.186 232.588 155.106 232.617 155.045 232.672C154.983 232.727 154.945 232.803 154.939 232.885L154.765 235.69C154.744 235.752 154.744 235.819 154.765 235.881L156.172 238.026L156.441 240.145L156.05 240.492L154.565 239.624L153.94 240.709L152.872 240.092C152.29 239.033 149.72 234.17 149.833 231.409C149.821 231.336 149.783 231.27 149.727 231.222C149.67 231.175 149.599 231.148 149.525 231.148C149.451 231.148 149.379 231.175 149.323 231.222C149.267 231.27 149.229 231.336 149.217 231.409C149.095 234.257 151.57 239.016 152.273 240.301L151.11 242.289C149.633 242.289 144.979 242.246 142.426 243.271C142.351 243.301 142.291 243.36 142.258 243.435C142.226 243.51 142.224 243.594 142.253 243.67C142.267 243.709 142.289 243.745 142.318 243.775C142.346 243.805 142.381 243.829 142.419 243.845C142.457 243.861 142.498 243.87 142.54 243.869C142.582 243.869 142.623 243.86 142.661 243.844C145.196 242.836 150.146 242.888 151.292 242.915L152.447 243.583L151.848 244.608L153.063 245.311C152.948 245.839 152.884 246.377 152.872 246.918L150.467 247.907L147.905 247.751C147.844 247.729 147.776 247.729 147.714 247.751L145.361 249.297C145.322 249.317 145.287 249.344 145.259 249.378C145.232 249.412 145.211 249.452 145.2 249.494C145.188 249.537 145.186 249.581 145.193 249.625C145.2 249.668 145.216 249.71 145.239 249.746C145.263 249.783 145.295 249.815 145.332 249.839C145.369 249.862 145.41 249.878 145.454 249.885C145.497 249.892 145.542 249.889 145.584 249.878C145.626 249.866 145.666 249.846 145.7 249.818L147.966 248.333L150.493 248.498C150.539 248.507 150.586 248.507 150.632 248.498L152.933 247.551C152.956 248.25 153.061 248.944 153.246 249.618C153.246 249.618 155.686 250.651 158.308 251.711L157.735 252.683C157.701 252.735 157.682 252.795 157.682 252.857C157.682 252.919 157.701 252.979 157.735 253.031L159.81 255.827V258.544C159.81 258.627 159.843 258.707 159.902 258.766C159.96 258.824 160.04 258.857 160.123 258.857C160.178 258.858 160.232 258.844 160.279 258.816C160.326 258.788 160.365 258.749 160.392 258.701C160.406 258.65 160.406 258.596 160.392 258.544V255.731C160.395 255.662 160.373 255.595 160.331 255.54L158.308 252.822L158.82 251.954C160.817 252.753 162.823 253.517 163.865 253.821L163.909 256.599C163.908 256.667 163.93 256.732 163.971 256.786C164.012 256.839 164.07 256.877 164.134 256.895L168.52 258.128L169.24 260.073C169.255 260.112 169.277 260.148 169.305 260.178C169.334 260.208 169.368 260.233 169.406 260.25C169.444 260.267 169.485 260.276 169.527 260.277C169.568 260.278 169.61 260.27 169.648 260.255C169.714 260.232 169.77 260.185 169.805 260.125C169.824 260.083 169.834 260.037 169.834 259.99C169.834 259.944 169.824 259.898 169.805 259.856L169.023 257.763C169.007 257.717 168.979 257.675 168.943 257.642C168.906 257.608 168.862 257.585 168.815 257.572L164.473 256.365V253.951C166.136 254.091 167.809 254.065 169.466 253.873C169.868 253.836 170.255 253.702 170.593 253.482C170.931 253.262 171.211 252.963 171.407 252.61C171.604 252.258 171.712 251.863 171.722 251.46C171.731 251.056 171.643 250.657 171.463 250.295L169.292 245.954L171.185 244.92L174.372 248.072C174.407 248.108 174.449 248.134 174.496 248.149C174.543 248.164 174.593 248.168 174.641 248.159L176.847 247.803C176.892 247.796 176.935 247.78 176.972 247.754C177.01 247.729 177.041 247.695 177.064 247.656C177.1 247.593 177.116 247.52 177.107 247.447C177.095 247.366 177.05 247.292 176.983 247.243C176.916 247.195 176.833 247.174 176.751 247.187L174.693 247.517L171.463 244.313C171.414 244.267 171.351 244.237 171.285 244.228C171.218 244.219 171.15 244.23 171.09 244.26L169.015 245.398L168.85 245.051L164.647 241.951L165.368 240.718L168.728 241.126C168.79 241.147 168.857 241.147 168.919 241.126L171.368 239.728C171.417 239.704 171.457 239.665 171.481 239.615C171.508 239.567 171.522 239.513 171.522 239.459C171.522 239.404 171.508 239.35 171.481 239.302C171.449 239.245 171.4 239.199 171.341 239.171C171.282 239.143 171.215 239.134 171.151 239.146Z" fill="#263238"/>
<path d="M163.984 253.078L164.184 249.917L165.886 249.179L165.538 247.434L168.552 245.541L159.495 239.367L159.365 245.385L154.016 249.093L163.984 253.078Z" fill="#7A7A7A"/>
<path d="M168.822 245.705C168.794 245.746 168.759 245.782 168.718 245.81L165.887 247.546L166.191 249.083C166.207 249.153 166.197 249.227 166.164 249.29C166.13 249.354 166.075 249.403 166.009 249.43L164.481 250.09L164.298 253.06C164.295 253.11 164.28 253.158 164.255 253.2C164.229 253.242 164.193 253.278 164.151 253.303C164.106 253.325 164.057 253.336 164.007 253.336C163.958 253.336 163.909 253.325 163.864 253.303L153.939 249.387C153.886 249.365 153.84 249.329 153.805 249.283C153.769 249.238 153.747 249.184 153.739 249.127C153.735 249.071 153.745 249.015 153.77 248.964C153.794 248.914 153.832 248.871 153.878 248.84L159.088 245.219L159.219 239.358C159.222 239.302 159.24 239.247 159.27 239.2C159.301 239.153 159.344 239.115 159.394 239.09C159.444 239.064 159.5 239.052 159.556 239.055C159.612 239.058 159.666 239.076 159.713 239.106L168.701 245.297C168.743 245.326 168.778 245.365 168.802 245.411C168.826 245.456 168.839 245.506 168.84 245.558C168.841 245.607 168.835 245.657 168.822 245.705ZM165.271 247.277C165.298 247.233 165.334 247.195 165.375 247.164L167.98 245.532L159.8 239.948L159.679 245.393C159.676 245.441 159.662 245.489 159.638 245.531C159.614 245.573 159.58 245.609 159.54 245.636L154.668 249.022L163.699 252.626L163.873 249.899C163.876 249.841 163.896 249.785 163.93 249.738C163.964 249.69 164.01 249.653 164.064 249.63L165.531 248.996L165.236 247.494C165.22 247.42 165.233 247.342 165.271 247.277Z" fill="#263238"/>
<path d="M154.764 248.444L159.366 245.388L159.244 240.586L154.998 243.035L154.764 248.444Z" fill="#7A7A7A"/>
<path d="M159.637 245.541C159.612 245.582 159.58 245.617 159.542 245.645L154.939 248.702C154.89 248.732 154.833 248.747 154.774 248.747C154.716 248.747 154.659 248.732 154.609 248.702C154.561 248.671 154.522 248.629 154.494 248.579C154.467 248.528 154.453 248.472 154.453 248.415L154.696 243.006C154.698 242.952 154.713 242.901 154.741 242.855C154.768 242.809 154.807 242.772 154.853 242.745L159.09 240.305C159.138 240.279 159.192 240.266 159.246 240.266C159.301 240.266 159.355 240.279 159.403 240.305C159.449 240.331 159.488 240.369 159.516 240.414C159.543 240.46 159.558 240.512 159.559 240.565L159.68 245.367C159.681 245.428 159.666 245.488 159.637 245.541ZM155.104 247.842L159.047 245.237L158.951 241.13L155.313 243.231L155.104 247.842Z" fill="#263238"/>
<path d="M191.278 325.492L193.597 326.899L194.916 330.129C194.941 330.186 194.98 330.235 195.031 330.27C195.082 330.305 195.141 330.326 195.203 330.329H196.766L196.037 336.06C196.85 336.633 197.724 337.116 198.642 337.501L197.174 338.578C197.138 338.609 197.108 338.648 197.087 338.691L195.915 340.931L193.466 342.103C193.391 342.139 193.334 342.203 193.306 342.281C193.278 342.359 193.283 342.445 193.319 342.52C193.354 342.595 193.418 342.653 193.496 342.68C193.575 342.708 193.661 342.704 193.735 342.668L196.28 341.452C196.34 341.423 196.389 341.374 196.419 341.313L197.608 339.038L199.345 337.77L199.831 337.944V339.681H201.09V340.914C200.448 341.938 197.452 346.558 195.012 347.791C194.947 347.833 194.901 347.897 194.88 347.971C194.86 348.045 194.868 348.124 194.902 348.193C194.937 348.262 194.995 348.316 195.067 348.344C195.138 348.372 195.218 348.373 195.29 348.347C197.843 347.062 200.786 342.581 201.568 341.348H203.869C204.564 342.659 206.821 346.723 208.949 348.451C209.013 348.504 209.096 348.529 209.179 348.521C209.262 348.513 209.339 348.472 209.391 348.408C209.444 348.343 209.47 348.26 209.461 348.177C209.453 348.094 209.413 348.018 209.348 347.965C207.221 346.228 204.859 341.886 204.32 340.879V339.551H205.501V338.153C206.017 337.992 206.516 337.786 206.995 337.536L209.088 339.195L210.19 341.504C210.223 341.565 210.271 341.616 210.329 341.652L212.821 342.954C212.895 342.994 212.981 343.002 213.061 342.977C213.141 342.953 213.208 342.898 213.247 342.824C213.286 342.75 213.294 342.664 213.27 342.584C213.245 342.505 213.19 342.438 213.117 342.399L210.711 341.148L209.513 338.934C209.494 338.892 209.464 338.856 209.426 338.83L207.481 337.284C208.08 336.922 208.634 336.491 209.131 335.999C209.131 335.999 208.844 333.394 208.488 330.563H209.617C209.679 330.567 209.741 330.551 209.793 330.518C209.846 330.486 209.888 330.438 209.912 330.381L211.345 327.203L213.716 325.874C213.786 325.834 213.838 325.768 213.861 325.69C213.883 325.613 213.875 325.529 213.837 325.458C213.81 325.409 213.772 325.369 213.724 325.34C213.677 325.311 213.623 325.295 213.568 325.293C213.513 325.291 213.458 325.306 213.412 325.336L210.946 326.708C210.888 326.738 210.842 326.787 210.816 326.847L209.426 329.938H208.41C208.132 327.802 207.828 325.675 207.585 324.624L209.991 323.235C210.05 323.201 210.096 323.148 210.123 323.086C210.149 323.023 210.155 322.953 210.138 322.887L209.079 318.459L210.425 316.878C210.454 316.849 210.477 316.815 210.493 316.777C210.509 316.739 210.517 316.698 210.517 316.657C210.517 316.616 210.509 316.575 210.493 316.537C210.477 316.499 210.454 316.465 210.425 316.436C210.371 316.391 210.304 316.367 210.234 316.366C210.188 316.365 210.143 316.373 210.101 316.391C210.059 316.409 210.021 316.436 209.991 316.47L208.541 318.207C208.509 318.243 208.487 318.287 208.477 318.334C208.466 318.381 208.467 318.43 208.48 318.476L209.522 322.818L207.438 324.025C206.752 322.497 205.914 321.043 204.937 319.683C204.708 319.35 204.401 319.078 204.044 318.889C203.686 318.701 203.288 318.603 202.883 318.603C202.479 318.603 202.081 318.701 201.723 318.889C201.365 319.078 201.059 319.35 200.83 319.683L198.077 323.712L196.219 322.583L197.417 318.242C197.43 318.194 197.432 318.145 197.423 318.097C197.414 318.049 197.394 318.003 197.365 317.964L195.984 316.227C195.955 316.19 195.918 316.16 195.876 316.139C195.834 316.118 195.788 316.107 195.741 316.106C195.668 316.103 195.597 316.128 195.542 316.175C195.478 316.226 195.437 316.3 195.427 316.382C195.417 316.463 195.44 316.544 195.489 316.609L196.775 318.242L195.559 322.627C195.542 322.692 195.546 322.761 195.571 322.824C195.596 322.886 195.64 322.939 195.698 322.974L197.695 324.233L197.478 324.546L196.818 329.756H195.394L194.109 326.621C194.083 326.561 194.041 326.51 193.987 326.474L191.573 325.015C191.527 324.984 191.472 324.969 191.417 324.971C191.363 324.969 191.309 324.981 191.262 325.007C191.214 325.033 191.175 325.072 191.148 325.119C191.121 325.186 191.12 325.261 191.144 325.33C191.168 325.398 191.215 325.456 191.278 325.492Z" fill="#263238"/>
<path d="M206.907 324.953L204.05 326.316L202.574 325.188L201.22 326.343L198.102 324.641L197.121 335.556L202.444 332.733L208.288 335.59L206.907 324.953Z" fill="#7A7A7A"/>
<path d="M198.112 324.318C198.16 324.306 198.211 324.306 198.26 324.318L201.186 325.924L202.375 324.908C202.43 324.862 202.499 324.837 202.571 324.837C202.642 324.837 202.711 324.862 202.766 324.908L204.086 325.915L206.778 324.639C206.821 324.618 206.869 324.606 206.917 324.606C206.965 324.606 207.013 324.618 207.056 324.639C207.098 324.664 207.135 324.698 207.164 324.738C207.192 324.779 207.211 324.825 207.221 324.873L208.645 335.554C208.652 335.61 208.644 335.668 208.621 335.72C208.598 335.772 208.561 335.816 208.515 335.849C208.465 335.875 208.41 335.889 208.354 335.889C208.298 335.889 208.243 335.875 208.193 335.849L202.497 333.062L197.287 335.797C197.239 335.827 197.183 335.843 197.126 335.843C197.07 335.843 197.014 335.827 196.966 335.797C196.918 335.767 196.881 335.724 196.858 335.673C196.835 335.622 196.827 335.566 196.835 335.511L197.817 324.604C197.82 324.553 197.836 324.503 197.863 324.459C197.89 324.415 197.928 324.378 197.973 324.352C198.016 324.331 198.064 324.319 198.112 324.318ZM201.212 326.645C201.166 326.657 201.118 326.657 201.073 326.645L198.372 325.169L197.504 335.033L202.315 332.489C202.359 332.465 202.408 332.453 202.458 332.453C202.508 332.453 202.557 332.465 202.601 332.489L207.924 335.094L206.674 325.455L204.208 326.627C204.158 326.657 204.101 326.673 204.043 326.673C203.985 326.673 203.927 326.657 203.878 326.627L202.566 325.585L201.394 326.584C201.342 326.625 201.278 326.649 201.212 326.654V326.645Z" fill="#263238"/>
<path d="M207.348 335.261L202.442 332.734L198.309 335.183L202.511 337.693L207.348 335.261Z" fill="#7A7A7A"/>
<path d="M202.454 332.42H202.584L207.499 334.947C207.55 334.974 207.593 335.013 207.622 335.062C207.652 335.111 207.668 335.168 207.668 335.225C207.668 335.282 207.652 335.339 207.622 335.388C207.593 335.437 207.55 335.477 207.499 335.503L202.662 337.934C202.616 337.96 202.563 337.974 202.51 337.974C202.457 337.974 202.405 337.96 202.358 337.934L198.155 335.425C198.111 335.395 198.075 335.355 198.049 335.308C198.024 335.261 198.009 335.209 198.008 335.156C198.007 335.101 198.021 335.047 198.049 335C198.076 334.952 198.116 334.913 198.164 334.886L202.297 332.446C202.346 332.422 202.4 332.413 202.454 332.42ZM206.665 335.26L202.454 333.089L198.92 335.182L202.567 337.344L206.665 335.26Z" fill="#263238"/>
<path d="M229.754 259.122L228.616 256.673L229.302 253.252C229.314 253.192 229.307 253.129 229.284 253.072C229.261 253.015 229.222 252.966 229.172 252.931L227.878 252.062L231.647 247.677C231.289 246.763 230.835 245.89 230.292 245.072L232.116 244.985C232.162 244.994 232.209 244.994 232.255 244.985L234.469 243.761L237.152 244.135C237.193 244.141 237.234 244.138 237.274 244.128C237.314 244.118 237.351 244.099 237.383 244.074C237.416 244.049 237.443 244.018 237.463 243.982C237.483 243.946 237.495 243.906 237.499 243.865C237.509 243.785 237.488 243.704 237.439 243.639C237.391 243.574 237.319 243.531 237.239 243.518L234.452 243.127C234.389 243.109 234.323 243.109 234.261 243.127L232.012 244.369L229.884 244.482L229.563 244.065L230.535 242.65L229.502 241.938L230.197 240.93C231.3 240.427 236.345 238.23 239.071 238.542C239.147 238.542 239.221 238.513 239.277 238.462C239.334 238.411 239.37 238.341 239.378 238.265C239.387 238.189 239.367 238.113 239.323 238.05C239.28 237.988 239.215 237.944 239.141 237.926C236.301 237.596 231.378 239.663 230.04 240.314L228.147 239.011C228.286 237.535 228.642 232.933 227.817 230.285C227.806 230.245 227.786 230.209 227.76 230.177C227.734 230.145 227.702 230.119 227.665 230.099C227.629 230.08 227.589 230.068 227.548 230.064C227.507 230.06 227.466 230.064 227.427 230.076C227.387 230.088 227.351 230.108 227.32 230.134C227.288 230.16 227.262 230.192 227.244 230.229C227.225 230.265 227.214 230.305 227.211 230.346C227.208 230.387 227.214 230.428 227.227 230.467C228.043 233.072 227.618 238.004 227.505 239.15L226.749 240.244L225.777 239.576L224.987 240.731C224.468 240.578 223.936 240.473 223.398 240.418L222.529 237.883L222.885 235.347C222.907 235.282 222.907 235.212 222.885 235.147L221.522 232.69C221.502 232.654 221.475 232.622 221.443 232.597C221.411 232.571 221.374 232.552 221.335 232.541C221.295 232.53 221.254 232.526 221.213 232.531C221.172 232.536 221.133 232.548 221.097 232.568C221.026 232.61 220.974 232.678 220.951 232.757C220.928 232.836 220.937 232.921 220.975 232.994L222.286 235.364L221.939 237.874C221.926 237.919 221.926 237.967 221.939 238.013L222.712 240.375C222.013 240.343 221.314 240.396 220.628 240.531C220.628 240.531 219.412 242.884 218.162 245.42L217.224 244.786C217.175 244.75 217.115 244.73 217.055 244.73C216.994 244.73 216.934 244.75 216.885 244.786L213.933 246.653L211.224 246.444C211.183 246.441 211.142 246.445 211.103 246.458C211.065 246.471 211.029 246.491 210.998 246.518C210.967 246.544 210.942 246.577 210.924 246.614C210.906 246.65 210.896 246.69 210.894 246.731C210.889 246.813 210.916 246.894 210.969 246.958C211.023 247.021 211.098 247.061 211.18 247.069L213.994 247.278C214.06 247.284 214.127 247.269 214.185 247.234L217.041 245.42L217.91 245.993C216.963 247.929 216.043 249.874 215.67 250.881L212.891 250.716C212.823 250.714 212.757 250.733 212.701 250.77C212.645 250.808 212.602 250.862 212.578 250.925L211.024 255.206L209.027 255.779C208.987 255.791 208.951 255.81 208.919 255.836C208.887 255.863 208.861 255.895 208.841 255.931C208.822 255.967 208.81 256.007 208.806 256.048C208.802 256.089 208.806 256.13 208.818 256.17C208.826 256.204 208.841 256.236 208.862 256.265C208.883 256.293 208.91 256.317 208.94 256.335C208.981 256.354 209.025 256.364 209.07 256.364C209.115 256.364 209.16 256.354 209.2 256.335L211.345 255.709C211.393 255.697 211.437 255.673 211.473 255.64C211.509 255.606 211.537 255.565 211.554 255.518L213.082 251.316L215.487 251.455C215.227 253.102 215.131 254.772 215.201 256.439C215.206 256.842 215.31 257.238 215.503 257.592C215.696 257.946 215.973 258.248 216.31 258.47C216.646 258.693 217.032 258.83 217.433 258.869C217.835 258.909 218.24 258.849 218.613 258.696L223.137 256.864L224.006 258.827L220.619 261.77C220.583 261.803 220.554 261.843 220.536 261.888C220.518 261.933 220.511 261.982 220.515 262.031L220.706 264.254C220.71 264.3 220.724 264.344 220.747 264.384C220.769 264.425 220.8 264.46 220.836 264.488C220.898 264.528 220.971 264.546 221.044 264.54C221.126 264.532 221.201 264.491 221.253 264.428C221.305 264.364 221.33 264.283 221.322 264.202L221.149 262.135L224.622 259.148C224.673 259.104 224.707 259.044 224.721 258.979C224.736 258.913 224.728 258.844 224.7 258.783L223.684 256.586L224.04 256.439L227.444 252.479L228.625 253.295L227.956 256.612C227.939 256.678 227.939 256.747 227.956 256.812L229.163 259.356C229.186 259.406 229.222 259.448 229.268 259.478C229.315 259.505 229.369 259.52 229.424 259.52C229.479 259.52 229.533 259.505 229.58 259.478C229.646 259.448 229.699 259.396 229.731 259.331C229.762 259.266 229.77 259.192 229.754 259.122Z" fill="#263238"/>
<path d="M216.387 250.943L219.521 251.377L220.129 253.131L221.901 252.914L223.559 256.058L230.393 247.496L224.41 246.905L221.102 241.305L216.387 250.943Z" fill="#7A7A7A"/>
<path d="M223.403 256.318C223.362 256.287 223.327 256.248 223.299 256.205L221.745 253.252L220.191 253.443C220.119 253.452 220.047 253.436 219.985 253.398C219.924 253.36 219.877 253.303 219.852 253.235L219.314 251.663L216.361 251.247C216.314 251.241 216.268 251.224 216.228 251.197C216.189 251.17 216.157 251.133 216.136 251.09C216.112 251.046 216.1 250.997 216.1 250.947C216.1 250.897 216.112 250.848 216.136 250.804L220.851 241.165C220.878 241.116 220.917 241.076 220.965 241.047C221.013 241.019 221.068 241.004 221.124 241.004C221.18 241.004 221.235 241.019 221.283 241.047C221.331 241.076 221.371 241.116 221.398 241.165L224.619 246.636L230.454 247.209C230.51 247.214 230.563 247.235 230.607 247.269C230.651 247.303 230.686 247.348 230.706 247.4C230.735 247.447 230.751 247.501 230.751 247.556C230.751 247.611 230.735 247.666 230.706 247.712L223.872 256.274C223.842 256.316 223.801 256.349 223.754 256.37C223.706 256.391 223.655 256.4 223.603 256.396C223.53 256.39 223.461 256.363 223.403 256.318ZM222.092 252.662C222.135 252.687 222.171 252.723 222.196 252.766L223.629 255.493L229.812 247.747L224.393 247.217C224.346 247.213 224.3 247.197 224.259 247.171C224.218 247.145 224.184 247.111 224.159 247.07L221.146 241.955L216.874 250.691L219.583 251.064C219.64 251.072 219.694 251.096 219.738 251.133C219.783 251.17 219.816 251.218 219.835 251.273L220.364 252.792L221.884 252.601C221.953 252.598 222.02 252.62 222.075 252.662H222.092Z" fill="#263238"/>
<path d="M221.705 242.094L224.414 246.904L229.207 247.147L227.089 242.736L221.705 242.094Z" fill="#7A7A7A"/>
<path d="M224.275 247.166C224.237 247.137 224.205 247.102 224.18 247.061L221.479 242.251C221.449 242.201 221.434 242.144 221.434 242.086C221.434 242.028 221.449 241.971 221.479 241.921C221.513 241.875 221.557 241.838 221.609 241.813C221.661 241.789 221.717 241.778 221.774 241.782L227.158 242.424C227.21 242.432 227.259 242.451 227.301 242.481C227.343 242.512 227.378 242.552 227.401 242.598L229.485 247.035C229.513 247.081 229.527 247.134 229.527 247.187C229.527 247.241 229.513 247.293 229.485 247.339C229.456 247.386 229.415 247.424 229.366 247.448C229.317 247.473 229.262 247.483 229.207 247.478L224.414 247.235C224.362 247.225 224.314 247.201 224.275 247.166ZM222.321 242.477L224.64 246.61L228.738 246.81L226.88 243.024L222.321 242.477Z" fill="#263238"/>
<path d="M286.661 258.775L285.497 256.318L286.183 252.897C286.194 252.838 286.187 252.777 286.164 252.721C286.141 252.666 286.102 252.618 286.053 252.584L284.759 251.716L288.528 247.374C288.17 246.46 287.716 245.587 287.173 244.769L288.997 244.682C289.043 244.69 289.09 244.69 289.136 244.682L291.35 243.458L294.033 243.831C294.074 243.838 294.115 243.835 294.155 243.825C294.194 243.815 294.232 243.796 294.264 243.771C294.297 243.746 294.324 243.715 294.344 243.679C294.364 243.643 294.376 243.603 294.38 243.562C294.386 243.522 294.384 243.482 294.375 243.442C294.365 243.403 294.347 243.366 294.323 243.334C294.299 243.302 294.268 243.274 294.233 243.254C294.198 243.234 294.16 243.22 294.12 243.215L291.332 242.824C291.27 242.806 291.204 242.806 291.141 242.824L288.892 244.066L286.756 244.179C286.664 244.04 286.559 243.901 286.444 243.762L287.416 242.347L286.383 241.635L287.078 240.619C288.18 240.124 293.225 237.918 295.952 238.239C296.032 238.247 296.112 238.223 296.175 238.173C296.238 238.123 296.28 238.05 296.291 237.97C296.297 237.93 296.294 237.888 296.284 237.848C296.274 237.809 296.255 237.771 296.23 237.739C296.205 237.707 296.174 237.68 296.138 237.66C296.102 237.64 296.062 237.627 296.021 237.623C293.182 237.293 288.259 239.403 286.921 240.002L285.054 238.613C285.193 237.145 285.549 232.534 284.724 229.886C284.699 229.808 284.643 229.743 284.57 229.706C284.497 229.669 284.412 229.662 284.334 229.686C284.294 229.698 284.258 229.718 284.226 229.744C284.195 229.77 284.169 229.803 284.15 229.839C284.132 229.876 284.121 229.916 284.118 229.956C284.115 229.997 284.12 230.038 284.134 230.077C284.95 232.682 284.525 237.614 284.412 238.76L283.656 239.855L282.684 239.186L281.894 240.341C281.375 240.188 280.843 240.083 280.305 240.028L279.436 237.493L279.792 234.957C279.813 234.892 279.813 234.822 279.792 234.757L278.403 232.274C278.384 232.237 278.358 232.205 278.325 232.178C278.293 232.152 278.256 232.133 278.216 232.121C278.177 232.11 278.135 232.107 278.094 232.112C278.053 232.118 278.013 232.131 277.977 232.152C277.907 232.193 277.855 232.259 277.833 232.336C277.81 232.414 277.818 232.498 277.856 232.569L279.167 234.94L278.82 237.449C278.807 237.498 278.807 237.549 278.82 237.597L279.593 239.959C278.894 239.927 278.194 239.979 277.509 240.115C277.509 240.115 276.293 242.468 275.043 245.004L274.105 244.361C274.055 244.328 273.996 244.31 273.935 244.31C273.875 244.31 273.816 244.328 273.766 244.361L270.814 246.219L268.105 246.02C268.064 246.016 268.023 246.021 267.984 246.033C267.945 246.046 267.91 246.066 267.879 246.093C267.848 246.12 267.823 246.152 267.805 246.189C267.787 246.226 267.777 246.266 267.775 246.306C267.771 246.36 267.78 246.414 267.803 246.462C267.826 246.511 267.861 246.553 267.905 246.584C267.949 246.619 268.005 246.638 268.061 246.636L270.875 246.853C270.943 246.861 271.011 246.842 271.066 246.801L273.922 244.995L274.791 245.568C273.844 247.505 272.924 249.441 272.55 250.457L269.772 250.292C269.704 250.288 269.637 250.306 269.581 250.344C269.524 250.381 269.482 250.436 269.459 250.5L267.905 254.772L265.908 255.354C265.868 255.366 265.832 255.386 265.8 255.412C265.768 255.438 265.742 255.47 265.722 255.506C265.703 255.543 265.691 255.582 265.687 255.623C265.683 255.664 265.687 255.706 265.699 255.745C265.707 255.779 265.722 255.812 265.743 255.84C265.764 255.868 265.79 255.892 265.821 255.91C265.858 255.936 265.901 255.954 265.946 255.961C265.991 255.969 266.037 255.966 266.081 255.953L268.226 255.328C268.274 255.316 268.318 255.292 268.354 255.258C268.39 255.225 268.418 255.184 268.434 255.137L269.963 250.926L272.368 251.073C272.108 252.721 272.012 254.391 272.081 256.058C272.085 256.463 272.188 256.861 272.381 257.217C272.574 257.573 272.852 257.877 273.189 258.101C273.527 258.324 273.915 258.462 274.318 258.501C274.722 258.54 275.128 258.479 275.503 258.324L280.027 256.492L280.895 258.454L277.509 261.389C277.472 261.424 277.444 261.466 277.426 261.512C277.408 261.559 277.401 261.609 277.404 261.658L277.595 263.881C277.6 263.927 277.614 263.972 277.636 264.012C277.659 264.052 277.689 264.088 277.726 264.116C277.788 264.155 277.861 264.174 277.934 264.168C278.015 264.159 278.09 264.119 278.142 264.055C278.194 263.992 278.219 263.911 278.212 263.829L278.038 261.763L281.512 258.775C281.562 258.731 281.597 258.672 281.611 258.606C281.625 258.54 281.618 258.472 281.59 258.411L280.617 256.257L280.965 256.11L284.377 252.15L285.558 252.966L284.889 256.283C284.872 256.346 284.872 256.412 284.889 256.474L286.096 259.027C286.121 259.075 286.157 259.117 286.201 259.149C286.248 259.176 286.302 259.191 286.357 259.191C286.412 259.191 286.466 259.176 286.513 259.149C286.577 259.113 286.626 259.056 286.652 258.988C286.679 258.92 286.682 258.845 286.661 258.775Z" fill="#263238"/>
<path d="M273.301 250.596L276.435 251.031L277.043 252.785L278.815 252.567L280.473 255.711L287.307 247.149L281.315 246.559L278.016 240.949L273.301 250.596Z" fill="#7A7A7A"/>
<path d="M280.298 255.961C280.255 255.936 280.219 255.9 280.194 255.857L278.639 252.905L277.085 253.087C277.014 253.095 276.941 253.079 276.88 253.042C276.818 253.004 276.771 252.946 276.747 252.879L276.208 251.307L273.256 250.899C273.207 250.894 273.16 250.876 273.121 250.847C273.081 250.818 273.05 250.779 273.03 250.734C273.007 250.691 272.994 250.644 272.994 250.595C272.994 250.546 273.007 250.499 273.03 250.456L277.745 240.818C277.772 240.769 277.812 240.728 277.86 240.7C277.908 240.671 277.963 240.656 278.019 240.656C278.074 240.656 278.129 240.671 278.177 240.7C278.226 240.728 278.265 240.769 278.292 240.818L281.514 246.288L287.349 246.861C287.405 246.865 287.459 246.885 287.504 246.919C287.548 246.953 287.582 246.999 287.601 247.052C287.622 247.103 287.629 247.159 287.621 247.214C287.614 247.269 287.592 247.321 287.557 247.365L280.715 255.9C280.684 255.942 280.643 255.975 280.596 255.996C280.549 256.017 280.497 256.026 280.446 256.022C280.392 256.016 280.34 255.995 280.298 255.961ZM278.978 252.306C279.019 252.337 279.055 252.375 279.082 252.418L280.515 255.136L286.698 247.399L281.279 246.87C281.23 246.865 281.183 246.849 281.142 246.821C281.101 246.794 281.068 246.757 281.045 246.713L278.032 241.608L273.768 250.343L276.477 250.717C276.535 250.724 276.589 250.747 276.634 250.784C276.678 250.821 276.711 250.87 276.729 250.925L277.259 252.444L278.778 252.253C278.849 252.246 278.92 252.265 278.978 252.306Z" fill="#263238"/>
<path d="M278.613 241.746L281.314 246.557L286.116 246.8L283.988 242.389L278.613 241.746Z" fill="#7A7A7A"/>
<path d="M281.141 246.818C281.103 246.79 281.07 246.754 281.045 246.714L278.345 241.894C278.315 241.846 278.299 241.791 278.299 241.734C278.299 241.677 278.315 241.621 278.345 241.573C278.378 241.527 278.423 241.49 278.475 241.466C278.526 241.442 278.583 241.431 278.64 241.434L284.024 242.077C284.075 242.084 284.124 242.103 284.167 242.134C284.209 242.164 284.243 242.204 284.267 242.25L286.386 246.662C286.411 246.71 286.425 246.763 286.425 246.818C286.425 246.872 286.411 246.926 286.386 246.974C286.353 247.017 286.311 247.052 286.263 247.076C286.215 247.101 286.162 247.113 286.108 247.113L281.314 246.87C281.252 246.872 281.192 246.854 281.141 246.818ZM279.187 242.129L281.505 246.254L285.604 246.462L283.789 242.693L279.187 242.129Z" fill="#263238"/>
<path d="M136.572 321.084L133.88 320.841L131.275 318.54C131.229 318.502 131.172 318.477 131.112 318.47C131.052 318.462 130.991 318.471 130.937 318.497L129.521 319.183L127.594 313.73C126.62 313.581 125.633 313.537 124.65 313.599L125.475 311.976C125.484 311.93 125.484 311.883 125.475 311.837L125.518 309.31L127.177 307.165C127.226 307.098 127.247 307.014 127.236 306.931C127.225 306.849 127.182 306.774 127.116 306.722C127.084 306.697 127.047 306.678 127.007 306.668C126.968 306.657 126.926 306.654 126.886 306.66C126.845 306.666 126.806 306.68 126.771 306.701C126.736 306.722 126.706 306.75 126.682 306.783L124.945 309.006C124.902 309.057 124.877 309.121 124.876 309.188V311.793L123.912 313.695L123.391 313.764L122.644 312.219L121.515 312.766L120.977 311.654C121.09 310.447 121.689 304.977 123.321 302.771C123.351 302.739 123.373 302.7 123.386 302.659C123.4 302.617 123.404 302.573 123.399 302.529C123.395 302.486 123.381 302.444 123.359 302.406C123.337 302.368 123.307 302.335 123.272 302.309C123.236 302.284 123.196 302.266 123.153 302.257C123.11 302.248 123.066 302.248 123.023 302.257C122.98 302.266 122.94 302.284 122.905 302.31C122.869 302.336 122.84 302.369 122.818 302.407C121.081 304.699 120.508 310.031 120.369 311.481L118.294 312.479C117.087 311.611 113.24 309.006 110.566 308.424C110.525 308.415 110.483 308.414 110.442 308.422C110.402 308.429 110.363 308.445 110.328 308.467C110.293 308.49 110.263 308.519 110.24 308.554C110.217 308.588 110.2 308.627 110.192 308.667C110.176 308.748 110.192 308.831 110.235 308.901C110.279 308.97 110.347 309.02 110.427 309.041C113.101 309.622 117.165 312.436 118.103 313.104L118.676 314.303L117.616 314.815L118.224 316.083C117.832 316.456 117.478 316.866 117.165 317.307L114.56 316.76L112.528 315.197C112.478 315.153 112.413 315.128 112.346 315.128L109.532 315.084C109.448 315.084 109.368 315.117 109.308 315.175C109.248 315.234 109.213 315.313 109.211 315.397C109.211 315.48 109.244 315.559 109.302 315.618C109.361 315.676 109.441 315.709 109.524 315.709L112.233 315.753L114.23 317.298C114.268 317.329 114.312 317.35 114.36 317.359L116.8 317.863C116.436 318.454 116.144 319.086 115.932 319.747C115.932 319.747 117.373 321.97 118.954 324.323L117.929 324.81C117.876 324.839 117.833 324.882 117.802 324.934C117.772 324.985 117.755 325.045 117.755 325.105L117.912 328.578L116.383 330.818C116.349 330.876 116.334 330.944 116.34 331.011C116.346 331.078 116.373 331.141 116.417 331.192C116.462 331.243 116.521 331.279 116.586 331.294C116.652 331.31 116.721 331.304 116.783 331.279C116.829 331.251 116.87 331.216 116.904 331.174L118.485 328.839C118.52 328.781 118.538 328.715 118.537 328.648L118.389 325.27L119.301 324.827C120.508 326.607 121.741 328.37 122.436 329.169L120.907 331.496C120.87 331.551 120.849 331.616 120.849 331.682C120.849 331.749 120.87 331.814 120.907 331.869L123.842 335.342L123.356 337.357C123.338 337.438 123.352 337.522 123.396 337.592C123.44 337.662 123.51 337.712 123.591 337.73C123.658 337.752 123.731 337.752 123.799 337.73C123.839 337.709 123.874 337.679 123.903 337.643C123.931 337.607 123.952 337.566 123.964 337.522L124.485 335.351C124.497 335.303 124.497 335.253 124.487 335.205C124.476 335.157 124.455 335.112 124.424 335.073L121.533 331.652L122.852 329.637C124.149 330.688 125.548 331.604 127.029 332.373C127.383 332.569 127.78 332.675 128.184 332.683C128.589 332.69 128.989 332.599 129.35 332.417C129.711 332.234 130.023 331.967 130.257 331.637C130.491 331.307 130.641 330.924 130.693 330.523L131.345 325.695L133.49 325.895L134.358 330.289C134.365 330.337 134.385 330.382 134.416 330.421C134.446 330.459 134.486 330.488 134.531 330.506L136.555 331.452C136.597 331.472 136.643 331.482 136.689 331.482C136.736 331.482 136.782 331.472 136.824 331.452C136.887 331.419 136.939 331.368 136.972 331.305C137.004 331.228 137.006 331.142 136.977 331.065C136.948 330.987 136.89 330.924 136.815 330.888L134.94 330.02L134.071 325.556C134.06 325.489 134.026 325.428 133.976 325.382C133.925 325.337 133.861 325.309 133.793 325.304L131.44 325.079L131.492 324.705L129.756 319.782L131.041 319.157L133.594 321.38C133.642 321.429 133.707 321.457 133.776 321.458L136.572 321.71C136.623 321.723 136.677 321.723 136.728 321.71C136.777 321.684 136.818 321.647 136.848 321.601C136.878 321.556 136.897 321.504 136.902 321.449C136.914 321.402 136.914 321.352 136.902 321.305C136.891 321.258 136.867 321.214 136.835 321.178C136.802 321.142 136.761 321.115 136.715 321.098C136.669 321.082 136.62 321.077 136.572 321.084Z" fill="#263238"/>
<path d="M122.847 328.617L124.783 326.108L126.606 326.455L127.301 324.814L130.853 324.936L126.815 314.75L123.333 319.656L116.82 319.734L122.847 328.617Z" fill="#7A7A7A"/>
<path d="M130.98 325.183C130.931 325.196 130.88 325.196 130.832 325.183L127.498 325.061L126.89 326.512C126.86 326.576 126.81 326.629 126.747 326.662C126.684 326.695 126.612 326.706 126.542 326.694L124.91 326.39L123.086 328.743C123.057 328.782 123.019 328.812 122.975 328.832C122.931 328.852 122.883 328.86 122.835 328.856C122.785 328.856 122.737 328.844 122.693 328.821C122.649 328.799 122.612 328.766 122.583 328.726L116.6 319.904C116.568 319.856 116.551 319.8 116.551 319.743C116.551 319.686 116.568 319.63 116.6 319.582C116.625 319.532 116.663 319.49 116.711 319.461C116.758 319.432 116.813 319.417 116.869 319.417L123.217 319.339L126.612 314.563C126.642 314.516 126.685 314.479 126.736 314.455C126.787 314.432 126.843 314.424 126.898 314.433C126.954 314.438 127.008 314.458 127.052 314.492C127.097 314.526 127.131 314.572 127.15 314.624L131.188 324.818C131.212 324.864 131.224 324.915 131.224 324.966C131.224 325.017 131.212 325.068 131.188 325.114C131.16 325.14 131.127 325.159 131.092 325.171C131.056 325.183 131.017 325.187 130.98 325.183ZM127.159 324.497C127.208 324.488 127.258 324.488 127.307 324.497L130.38 324.601L126.733 315.388L123.547 319.825C123.518 319.867 123.481 319.901 123.437 319.925C123.393 319.949 123.345 319.962 123.295 319.964L117.373 320.034L122.826 328.075L124.502 325.912C124.538 325.868 124.585 325.835 124.639 325.815C124.692 325.795 124.75 325.79 124.806 325.8L126.377 326.095L126.977 324.688C126.992 324.648 127.017 324.613 127.049 324.584C127.08 324.556 127.118 324.535 127.159 324.523V324.497Z" fill="#363636"/>
<path d="M117.807 319.603L123.329 319.655L125.917 315.609L121.037 315.262L117.807 319.603Z" fill="#7A7A7A"/>
<path d="M123.459 319.973C123.414 319.982 123.366 319.982 123.321 319.973L117.807 319.921C117.749 319.921 117.693 319.904 117.644 319.874C117.596 319.844 117.556 319.801 117.53 319.75C117.504 319.699 117.493 319.642 117.497 319.585C117.501 319.527 117.521 319.473 117.555 319.426L120.785 315.084C120.817 315.042 120.859 315.008 120.908 314.986C120.956 314.965 121.01 314.957 121.063 314.963L125.943 315.31C125.996 315.315 126.047 315.334 126.091 315.364C126.136 315.394 126.171 315.436 126.195 315.484C126.222 315.531 126.237 315.585 126.237 315.64C126.237 315.695 126.222 315.749 126.195 315.796L123.59 319.834C123.561 319.893 123.516 319.941 123.459 319.973ZM118.423 319.339H123.156L125.37 315.866L121.184 315.562L118.423 319.339Z" fill="#363636"/>
<defs>
<linearGradient id="paint0_linear_728_20832" x1="252.287" y1="105.804" x2="270.911" y2="108.335" gradientUnits="userSpaceOnUse">
<stop stop-color="#88E2FF"/>
<stop offset="1" stop-color="#00B5E7"/>
</linearGradient>
<linearGradient id="paint1_linear_728_20832" x1="248.985" y1="103.459" x2="269.581" y2="106.333" gradientUnits="userSpaceOnUse">
<stop stop-color="#88E2FF"/>
<stop offset="1" stop-color="#00B5E7"/>
</linearGradient>
<linearGradient id="paint2_linear_728_20832" x1="288.791" y1="147.541" x2="316.102" y2="182.642" gradientUnits="userSpaceOnUse">
<stop stop-color="#88E2FF"/>
<stop offset="1" stop-color="#00B5E7"/>
</linearGradient>
<linearGradient id="paint3_linear_728_20832" x1="112.517" y1="156.937" x2="135.289" y2="186.277" gradientUnits="userSpaceOnUse">
<stop stop-color="#88E2FF"/>
<stop offset="1" stop-color="#00B5E7"/>
</linearGradient>
<linearGradient id="paint4_linear_728_20832" x1="368.478" y1="236.569" x2="390.651" y2="223.972" gradientUnits="userSpaceOnUse">
<stop stop-color="#88E2FF"/>
<stop offset="1" stop-color="#00B5E7"/>
</linearGradient>
<linearGradient id="paint5_linear_728_20832" x1="372.784" y1="215.874" x2="397.37" y2="222.646" gradientUnits="userSpaceOnUse">
<stop stop-color="#88E2FF"/>
<stop offset="1" stop-color="#00B5E7"/>
</linearGradient>
<linearGradient id="paint6_linear_728_20832" x1="368.484" y1="207.748" x2="390.657" y2="195.152" gradientUnits="userSpaceOnUse">
<stop stop-color="#88E2FF"/>
<stop offset="1" stop-color="#00B5E7"/>
</linearGradient>
<linearGradient id="paint7_linear_728_20832" x1="379.674" y1="290.678" x2="381.623" y2="291.156" gradientUnits="userSpaceOnUse">
<stop stop-color="#88E2FF"/>
<stop offset="1" stop-color="#00B5E7"/>
</linearGradient>
<linearGradient id="paint8_linear_728_20832" x1="343.629" y1="316.534" x2="345.05" y2="323.564" gradientUnits="userSpaceOnUse">
<stop stop-color="#88E2FF"/>
<stop offset="1" stop-color="#00B5E7"/>
</linearGradient>
<linearGradient id="paint9_linear_728_20832" x1="90.5079" y1="219.139" x2="324.048" y2="330.659" gradientUnits="userSpaceOnUse">
<stop stop-color="#88E2FF"/>
<stop offset="1" stop-color="#00B5E7"/>
</linearGradient>
<linearGradient id="paint10_linear_728_20832" x1="118.284" y1="230.57" x2="127.971" y2="231.887" gradientUnits="userSpaceOnUse">
<stop stop-color="#88E2FF"/>
<stop offset="1" stop-color="#00B5E7"/>
</linearGradient>
<linearGradient id="paint11_linear_728_20832" x1="116.569" y1="229.354" x2="127.269" y2="230.846" gradientUnits="userSpaceOnUse">
<stop stop-color="#88E2FF"/>
<stop offset="1" stop-color="#00B5E7"/>
</linearGradient>
<linearGradient id="paint12_linear_728_20832" x1="118.284" y1="260.015" x2="127.971" y2="261.332" gradientUnits="userSpaceOnUse">
<stop stop-color="#88E2FF"/>
<stop offset="1" stop-color="#00B5E7"/>
</linearGradient>
<linearGradient id="paint13_linear_728_20832" x1="116.569" y1="258.799" x2="127.269" y2="260.292" gradientUnits="userSpaceOnUse">
<stop stop-color="#88E2FF"/>
<stop offset="1" stop-color="#00B5E7"/>
</linearGradient>
<linearGradient id="paint14_linear_728_20832" x1="118.284" y1="289.46" x2="127.971" y2="290.777" gradientUnits="userSpaceOnUse">
<stop stop-color="#88E2FF"/>
<stop offset="1" stop-color="#00B5E7"/>
</linearGradient>
<linearGradient id="paint15_linear_728_20832" x1="116.569" y1="288.233" x2="127.269" y2="289.724" gradientUnits="userSpaceOnUse">
<stop stop-color="#88E2FF"/>
<stop offset="1" stop-color="#00B5E7"/>
</linearGradient>
<linearGradient id="paint16_linear_728_20832" x1="298.669" y1="300.202" x2="308.346" y2="301.517" gradientUnits="userSpaceOnUse">
<stop stop-color="#88E2FF"/>
<stop offset="1" stop-color="#00B5E7"/>
</linearGradient>
<linearGradient id="paint17_linear_728_20832" x1="296.95" y1="298.975" x2="307.661" y2="300.47" gradientUnits="userSpaceOnUse">
<stop stop-color="#88E2FF"/>
<stop offset="1" stop-color="#00B5E7"/>
</linearGradient>
<linearGradient id="paint18_linear_728_20832" x1="298.669" y1="230.355" x2="308.346" y2="231.668" gradientUnits="userSpaceOnUse">
<stop stop-color="#88E2FF"/>
<stop offset="1" stop-color="#00B5E7"/>
</linearGradient>
<linearGradient id="paint19_linear_728_20832" x1="296.95" y1="229.135" x2="307.661" y2="230.63" gradientUnits="userSpaceOnUse">
<stop stop-color="#88E2FF"/>
<stop offset="1" stop-color="#00B5E7"/>
</linearGradient>
<linearGradient id="paint20_linear_728_20832" x1="298.669" y1="328.277" x2="308.346" y2="329.591" gradientUnits="userSpaceOnUse">
<stop stop-color="#88E2FF"/>
<stop offset="1" stop-color="#00B5E7"/>
</linearGradient>
<linearGradient id="paint21_linear_728_20832" x1="296.95" y1="327.061" x2="307.66" y2="328.556" gradientUnits="userSpaceOnUse">
<stop stop-color="#88E2FF"/>
<stop offset="1" stop-color="#00B5E7"/>
</linearGradient>
<linearGradient id="paint22_linear_728_20832" x1="168.54" y1="250.421" x2="248.161" y2="275.663" gradientUnits="userSpaceOnUse">
<stop stop-color="#88E2FF"/>
<stop offset="1" stop-color="#00B5E7"/>
</linearGradient>
</defs>
</svg>
