<svg width="116" height="216" viewBox="0 0 116 216" fill="none" xmlns="http://www.w3.org/2000/svg">
<path d="M42.8655 65.1699C42.8655 65.1699 42.8655 65.2454 42.9007 65.4013C42.936 65.5573 42.951 65.7987 42.9863 66.0955C43.0567 66.7143 43.1573 67.6047 43.2881 68.7567C43.4189 69.9087 43.5648 71.3273 43.761 72.9622C43.9572 74.5972 44.1634 76.4836 44.43 78.5361C44.9331 82.6611 45.582 87.5659 46.3618 93.009C47.1415 98.452 48.0872 104.418 49.1537 110.666C50.2202 116.914 51.342 122.86 52.4034 128.273C53.4649 133.686 54.4861 138.51 55.3815 142.57C56.277 146.63 57.0165 149.91 57.5447 152.173C57.8012 153.3 58.0024 154.185 58.1433 154.784C58.2037 155.076 58.254 155.287 58.2892 155.463C58.3244 155.639 58.3345 155.7 58.3345 155.7C58.307 155.626 58.2834 155.55 58.264 155.473C58.2238 155.307 58.1634 155.086 58.088 154.799C57.9421 154.191 57.7258 153.32 57.4441 152.198C56.8857 149.945 56.116 146.665 55.2004 142.61C54.2849 138.556 53.2536 133.711 52.1821 128.323C51.1106 122.936 49.9838 116.99 48.9072 110.717C47.8307 104.443 46.89 98.4822 46.1052 93.0492C45.3204 87.6162 44.7017 82.6913 44.2238 78.5612C43.9723 76.4987 43.7761 74.6273 43.595 72.9874C43.4139 71.3474 43.273 69.9288 43.1623 68.7718C43.0517 67.6148 42.9712 66.7244 42.9158 66.1056C42.889 65.8105 42.8689 65.5791 42.8555 65.4114C42.8655 65.2504 42.8655 65.1699 42.8655 65.1699Z" fill="url(#paint0_linear_42_989)"/>
<path d="M47.3106 106.968C36.2434 103.919 25.624 95.2015 17.8618 86.7804C10.0997 78.3593 5.46152 66.6934 6.96565 55.3194C8.46978 43.9453 16.745 33.3811 27.8625 30.6194C39.7699 27.6614 52.7537 34.1156 59.555 44.3125C66.3563 54.5094 65.9991 70.0237 61.6377 81.4933C56.7178 94.447 55.4853 98.6274 47.2905 106.953" fill="url(#paint1_linear_42_989)"/>
<g opacity="0.3">
<path d="M49.6627 34.7201L47.0921 33.2109C44.4661 38.7948 43.8272 45.1937 44.6673 51.3209C45.5075 57.4481 47.7813 63.2886 50.704 68.7165C53.5312 73.9433 56.1823 81.0112 60.1665 85.418L64.6135 73.4553C64.6135 73.4553 52.2283 36.2041 49.6627 34.7201Z" fill="black"/>
</g>
<path d="M52.0447 108.08C50.2494 107.047 48.7654 105.549 47.7486 103.744L46.9538 105.102C45.998 106.521 45.7011 109.907 45.7514 111.612C45.7514 112.115 45.9074 112.704 46.3803 112.844C46.8531 112.985 47.3461 112.492 47.5323 111.999C47.6343 111.484 47.8472 110.996 48.1561 110.571C48.2277 111.117 48.4202 111.642 48.7195 112.105C48.8553 112.355 49.0803 112.545 49.3498 112.637C49.6192 112.728 49.9134 112.715 50.1735 112.6C50.4337 112.484 50.6408 112.275 50.7535 112.013C50.8663 111.752 50.8765 111.458 50.782 111.189C50.6382 110.648 50.3752 110.147 50.0123 109.72C50.5059 110.202 51.1217 110.539 51.7931 110.696C52.4773 110.792 53.2771 110.369 53.3275 109.69C53.3778 109.011 52.6584 108.463 52.0447 108.08Z" fill="url(#paint2_linear_42_989)"/>
<path d="M49.1374 105.042C49.2933 105.107 48.9361 106.003 47.92 106.46C46.9038 106.918 45.9933 106.601 46.0536 106.46C46.114 106.32 46.8485 106.284 47.6584 105.902C48.4683 105.52 48.9814 104.946 49.1374 105.042Z" fill="url(#paint3_linear_42_989)"/>
<g opacity="0.2">
<path d="M58.5324 50.0739C58.2249 49.9663 57.8958 49.9349 57.5735 49.9826C57.2512 50.0302 56.9452 50.1554 56.682 50.3474C56.4187 50.5394 56.206 50.7924 56.0622 51.0848C55.9183 51.3771 55.8476 51.7 55.8562 52.0258V51.9503C55.9075 53.1762 56.2526 54.3717 56.8623 55.4365C57.5112 56.4124 58.8745 57.011 59.8806 56.4426C60.8867 55.8741 61.0628 54.375 60.8112 53.1928C60.5295 51.8648 59.8051 50.5116 58.5324 50.0739Z" fill="black"/>
</g>
<path d="M17.4243 38.2812C17.4243 38.2812 17.3639 38.3718 17.2231 38.5227L16.6094 39.1717L16.1616 39.6345C16.0007 39.8055 15.8447 40.0067 15.6586 40.213C15.3065 40.6355 14.8789 41.0933 14.4814 41.6618L13.8375 42.5321C13.6162 42.8389 13.415 43.176 13.1936 43.513C12.7308 44.1821 12.3334 44.9568 11.8857 45.7516C10.986 47.5149 10.2501 49.3571 9.68733 51.255C9.15718 53.1633 8.80687 55.1169 8.64098 57.0905C8.5957 58.001 8.53031 58.8663 8.56552 59.6762C8.56552 60.0837 8.56552 60.476 8.56552 60.8533C8.56552 61.2306 8.62589 61.5878 8.65104 61.9349C8.68626 62.6241 8.80698 63.2378 8.88244 63.7811C8.92269 64.0528 8.95287 64.3093 8.99814 64.5407C9.04342 64.7721 9.09373 64.9784 9.13397 65.1695C9.2044 65.5217 9.26477 65.8084 9.31004 66.0449C9.33893 66.1463 9.35415 66.2512 9.35532 66.3567C9.30896 66.2621 9.27351 66.1626 9.24967 66.0599C9.1893 65.8285 9.10882 65.5569 9.01324 65.1947C8.96294 65.0035 8.9076 64.7973 8.85226 64.5709C8.79692 64.3445 8.76171 64.0678 8.71141 63.8113C8.58659 63.1976 8.49257 62.5781 8.4297 61.955C8.39281 61.6196 8.35759 61.2574 8.32405 60.8684C8.28884 60.4911 8.29387 60.0937 8.27878 59.6812C8.22847 58.8612 8.27878 57.9909 8.32405 57.0653C8.60099 53.0608 9.71857 49.1595 11.604 45.6158C12.0618 44.8159 12.4743 44.0412 12.9522 43.3722C13.1785 43.0351 13.3848 42.693 13.6162 42.3912L14.2853 41.526C14.6651 41.0282 15.0715 40.5513 15.5026 40.0973C15.6888 39.8961 15.8548 39.6999 16.0057 39.5288L16.4786 39.0861L17.1376 38.4774C17.2248 38.4006 17.3211 38.3347 17.4243 38.2812Z" fill="white"/>
<path d="M26.1375 33.8047C26.1727 33.8852 25.0962 34.4386 23.7379 35.0423C22.3797 35.6459 21.2227 36.0786 21.2227 35.9981C21.2227 35.9176 22.2589 35.3642 23.6222 34.7555C24.9855 34.1468 26.1023 33.7243 26.1375 33.8047Z" fill="white"/>
<g opacity="0.1">
<path d="M19.8918 39.3287C9.92632 48.2881 8.61335 60.8796 14.3985 72.973C16.2397 76.8264 19.0215 80.4333 23.2824 81.7614C24.4058 82.1192 25.5893 82.2492 26.7636 82.1437C32.7046 81.5954 34.7571 76.0517 34.4804 71.1721C34.2792 67.5652 33.0467 64.0991 32.3978 60.5425C31.7488 56.9859 31.7639 53.052 33.7912 50.0639C35.8186 47.0757 39.7021 45.1893 39.2846 41.1045C39.1535 40.1342 38.799 39.2076 38.2491 38.3975C37.6991 37.5875 36.9687 36.9161 36.1154 36.4361C34.8038 35.6658 33.3388 35.1935 31.8243 35.0527C27.9613 34.7145 24.1192 35.9007 21.1193 38.3578L19.8918 39.3287Z" fill="white"/>
</g>
<path d="M75.3908 64.375C75.4612 64.375 71.6531 85.0606 66.8841 110.535C62.1152 136.01 58.1964 156.66 58.126 156.65C58.0555 156.64 61.8586 135.97 66.6276 110.485C71.3965 85.0003 75.3204 64.375 75.3908 64.375Z" fill="url(#paint4_linear_42_989)"/>
<path d="M70.0288 89.8598C60.1941 80.9356 53.7399 66.3521 50.1078 53.5795C46.4757 40.8069 47.7736 26.3139 55.2691 15.3473C62.7647 4.38074 76.8552 -2.25959 89.8039 0.708435C103.673 3.87265 113.734 17.3394 115.46 31.4602C117.185 45.5809 108.699 61.4322 98.1998 71.0204C86.3328 81.8512 82.8768 85.5335 70.0288 89.8598Z" fill="#C6C6C6"/>
<path d="M74.3561 93.4867C73.1135 91.4494 72.1929 89.1454 72.1778 86.7559L70.6687 87.762C68.9382 88.7278 66.8606 92.0782 66.0205 93.8691C65.774 94.3721 65.608 95.0814 66.0205 95.4738C66.433 95.8662 67.2077 95.6147 67.6554 95.2021C68.1031 94.7896 68.4703 94.2363 69.0488 94.0502C68.8377 94.6534 68.7638 95.2962 68.8325 95.9316C68.8398 96.2634 68.9725 96.5801 69.2039 96.818C69.4353 97.056 69.7482 97.1975 70.0796 97.214C70.4111 97.2306 70.7365 97.121 70.9905 96.9074C71.2444 96.6937 71.4081 96.3918 71.4484 96.0624C71.58 95.4255 71.5679 94.7673 71.4132 94.1357C71.6735 94.8932 72.1342 95.5659 72.7463 96.0825C73.4053 96.5352 74.4567 96.5201 74.8642 95.836C75.2716 95.1518 74.7887 94.2061 74.3561 93.4867Z" fill="#C6C6C6"/>
<path d="M72.931 88.8233C73.0618 88.9742 72.2217 89.7187 70.9188 89.6583C69.6159 89.598 68.8563 88.7981 68.9972 88.6522C69.138 88.5063 69.9127 88.8887 70.954 88.9138C71.9954 88.939 72.8204 88.6422 72.931 88.8233Z" fill="url(#paint5_linear_42_989)"/>
<g opacity="0.2">
<path d="M108.379 49.6824C108.063 49.3605 107.658 49.1406 107.216 49.0509C106.774 48.9613 106.315 49.006 105.899 49.1793C104.289 49.8132 103.585 51.3576 102.88 52.7862C97.0035 64.3787 86.8433 73.2271 74.5534 77.456C72.7827 78.0547 70.6547 78.925 70.4435 80.7762C70.2925 82.1546 71.4043 83.4173 72.7022 83.9052C73.8489 84.3096 75.079 84.4186 76.2789 84.2221C77.5128 84.0406 78.699 83.6184 79.7701 82.9796C92.4873 75.4891 100.536 66.7108 107.997 53.7672C108.731 52.5045 109.415 50.7941 108.379 49.6824Z" fill="black"/>
</g>
<g opacity="0.2">
<path d="M111.383 36.8533C111.123 36.5773 110.799 36.3693 110.44 36.2476C110.08 36.1259 109.697 36.0942 109.322 36.1553C108.948 36.2163 108.594 36.3683 108.292 36.5979C107.99 36.8275 107.749 37.1276 107.59 37.4721L107.615 37.3866C107.112 38.6492 106.67 40.1735 106.83 41.5166C106.991 42.8598 108.098 44.2029 109.451 44.1275C110.805 44.052 111.755 42.6183 112.113 41.25C112.51 39.7258 112.47 37.9651 111.383 36.8533Z" fill="black"/>
</g>
<path d="M75.0069 3.16406C74.9025 3.22586 74.7911 3.27484 74.6749 3.30995L73.699 3.65706L72.9947 3.90355C72.7382 3.99913 72.4917 4.11987 72.1747 4.24563C71.5912 4.49716 70.9071 4.74869 70.2028 5.12598L69.081 5.6894C68.6886 5.89062 68.3063 6.13712 67.8988 6.36852C67.0738 6.82127 66.2538 7.40984 65.3835 8.00345C61.6366 10.6914 58.4769 14.1148 56.0971 18.0645C55.5941 18.9801 55.0508 19.8454 54.6634 20.7006C54.4622 21.1282 54.2459 21.5306 54.0799 21.933C53.9139 22.3355 53.7529 22.7228 53.5768 23.0951C53.2549 23.8296 53.0738 24.5288 52.8474 25.1073C52.7518 25.4091 52.6512 25.6858 52.5707 25.9474C52.4902 26.209 52.4449 26.4505 52.3846 26.6718C52.2739 27.0709 52.1834 27.4063 52.1129 27.6779C52.0892 27.7987 52.0485 27.9156 51.9922 28.025C51.9942 27.9027 52.0111 27.7811 52.0425 27.6628C52.0978 27.3912 52.1632 27.0541 52.2488 26.6567C52.294 26.4303 52.3494 26.1889 52.4047 25.9223C52.46 25.6556 52.5657 25.3739 52.6562 25.0671C52.8468 24.366 53.0752 23.6758 53.3404 22.9995L53.7931 21.8173C53.9591 21.4048 54.1704 20.9974 54.3666 20.5647C54.7439 19.6944 55.262 18.8191 55.7852 17.8834C56.9928 15.89 58.3929 14.0197 59.9656 12.2995C61.555 10.6108 63.3037 9.07945 65.1873 7.72677C66.0777 7.1382 66.9128 6.55465 67.7529 6.10693C68.1654 5.88056 68.5578 5.63406 68.9552 5.4429L70.0971 4.89457C70.8165 4.52734 71.5107 4.29091 72.1094 4.05447C72.4112 3.93877 72.6879 3.82809 72.9444 3.73754L73.6638 3.52626L74.6699 3.23952C74.779 3.20155 74.8921 3.17623 75.0069 3.16406Z" fill="white"/>
<path d="M86.3702 3.08224C86.3702 3.18285 84.9616 3.19291 83.2361 3.11242C81.5107 3.03193 80.1122 2.87598 80.1172 2.77537C80.1222 2.67476 81.5258 2.65967 83.2512 2.74519C84.9767 2.83071 86.3752 3.00175 86.3702 3.08224Z" fill="white"/>
<g opacity="0.1">
<path d="M77.0166 5.51876C62.0205 9.58345 54.0823 21.9284 53.7503 37.4627C53.6396 42.4178 54.6357 47.6043 58.3482 51.2062C59.3236 52.1625 60.4796 52.9149 61.7489 53.4196C68.188 55.9601 73.2085 51.2917 75.4722 46.1052C77.1524 42.2619 77.6856 38.0312 78.8779 34.0319C80.0701 30.0326 82.1276 25.9529 85.7949 23.9155C89.4622 21.8781 94.4575 21.9636 96.1578 17.5166C96.5305 16.4439 96.6485 15.2991 96.5027 14.1729C96.3569 13.0466 95.9512 11.9697 95.3177 11.0272C94.3657 9.54465 93.098 8.29068 91.6052 7.35491C87.8423 4.92013 83.1891 4.28125 78.7974 5.17668L77.0166 5.51876Z" fill="white"/>
</g>
<path d="M113.339 200.035C113.221 199.82 113.033 199.653 112.806 199.562C112.62 199.533 112.431 199.573 112.273 199.674C112.114 199.775 111.998 199.93 111.946 200.11C111.853 200.477 111.853 200.86 111.946 201.227C111.417 200.542 110.748 199.978 109.984 199.572C109.22 199.167 108.377 198.93 107.514 198.878C105.78 198.784 104.057 199.191 102.549 200.05C101.316 200.709 100.204 201.559 98.9366 202.173C97.8724 202.714 96.66 202.891 95.4856 202.676L95.1335 202.565C92.3767 201.529 90.0023 199.31 89.1622 196.488C88.3473 193.746 89.2779 190.859 89.6653 188.027C90.274 183.781 92.2158 172.09 89.4942 165.736L84.031 180.778C81.2139 186.382 79.8959 191.176 80.1575 197.444C80.3369 200.575 81.2768 203.616 82.8957 206.303C84.5147 208.989 86.764 211.241 89.449 212.863C95.2643 216.384 105.728 217.782 111.282 212.546L111.307 212.515C111.56 212.27 111.797 212.007 112.016 211.731C113.178 210.448 114.053 209.376 114.109 207.485C114.109 207.424 114.109 207.359 114.109 207.299C114.773 204.854 114.738 202.132 113.339 200.035Z" fill="#C6C6C6"/>
<path d="M105.892 206.236C105.892 206.236 105.892 206.297 105.806 206.392C105.715 206.538 105.614 206.677 105.505 206.81C105.091 207.306 104.604 207.737 104.061 208.088C103.234 208.623 102.33 209.027 101.38 209.285C100.183 209.605 98.9664 209.842 97.7375 209.994V209.748C99.0193 210.007 100.279 210.365 101.505 210.819C102.392 211.152 103.26 211.531 104.106 211.956L104.458 212.132L104.071 212.198C101.635 212.604 99.1537 212.663 96.7012 212.374C95.7856 212.263 95.0612 212.127 94.5632 212.016C94.3167 211.966 94.1306 211.911 93.9998 211.881C93.9329 211.869 93.8684 211.847 93.8086 211.815C94.0689 211.836 94.3276 211.873 94.5833 211.926C95.0864 212.011 95.8057 212.117 96.7163 212.208C99.1538 212.443 101.612 212.353 104.026 211.941L103.99 212.182C103.151 211.767 102.292 211.394 101.415 211.066C100.2 210.617 98.9544 210.259 97.6872 209.994L96.9829 209.843L97.6972 209.748C98.9178 209.604 100.128 209.38 101.319 209.079C102.254 208.836 103.149 208.458 103.975 207.957C104.708 207.497 105.356 206.915 105.892 206.236Z" fill="url(#paint6_linear_42_989)"/>
<path d="M62.106 175.631C59.7716 177.283 58.0293 179.641 57.1354 182.358C56.2416 185.075 56.2435 188.007 57.1408 190.723C57.8753 193.072 59.153 195.673 57.8954 197.574C57.2968 198.47 56.1951 199.083 55.6166 199.979C55.4629 200.234 55.3678 200.52 55.3381 200.817C55.3085 201.113 55.345 201.412 55.4451 201.693C55.5452 201.974 55.7064 202.228 55.917 202.439C56.1276 202.65 56.3824 202.811 56.6629 202.912C57.5868 203.213 58.5921 203.143 59.4649 202.715C63.0819 201.256 65.3054 198.505 67.3428 195.808C71.0855 190.855 74.6069 185.784 77.9069 180.596L62.106 175.631Z" fill="#C6C6C6"/>
<g opacity="0.3">
<path d="M62.106 175.631C59.7716 177.283 58.0293 179.641 57.1354 182.358C56.2416 185.075 56.2435 188.007 57.1408 190.723C57.8753 193.072 59.153 195.673 57.8954 197.574C57.2968 198.47 56.1951 199.083 55.6166 199.979C55.4629 200.234 55.3678 200.52 55.3381 200.817C55.3085 201.113 55.345 201.412 55.4451 201.693C55.5452 201.974 55.7064 202.228 55.917 202.439C56.1276 202.65 56.3824 202.811 56.6629 202.912C57.5868 203.213 58.5921 203.143 59.4649 202.715C63.0819 201.256 65.3054 198.505 67.3428 195.808C71.0855 190.855 74.6069 185.784 77.9069 180.596L62.106 175.631Z" fill="black"/>
</g>
<path d="M65.5957 145.176C32.057 132.897 22.4336 160.56 22.4336 160.56L35.8651 175.209C55.2831 182.432 65.5001 180.652 68.4128 186.92C71.3255 193.188 77.0352 193.188 77.0352 193.188L83.4189 188.298C92.5041 180.581 98.2389 157.124 65.5957 145.176Z" fill="#C6C6C6"/>
<path d="M83.871 187.869L67.1344 177.355C63.9098 180.61 61.9529 189.841 62.9087 196.416C63.0295 197.266 62.6673 199.299 62.8081 200.149C62.9766 201.603 62.5664 203.065 61.6662 204.219C60.474 205.516 59.0805 206.13 58.8189 207.81C58.5774 209.375 58.9799 211.377 61.3342 212.227C61.7211 212.362 62.1233 212.448 62.5315 212.484C63.9409 212.568 65.3431 212.226 66.5559 211.503C70.5049 209.405 72.9598 205.466 72.9598 205.466C74.4689 203.414 74.7959 199.43 76.0586 196.009C77.3213 192.588 80.41 191.195 83.871 187.869Z" fill="#C6C6C6"/>
<path d="M61.2 143.752C59.3488 143.053 55.6664 142.338 52.8594 142.746C56.5317 144.844 59.1023 148.018 59.6305 149.059C65.7325 161.133 62.1206 169.554 55.5507 180.923C57.4817 181.658 59.5013 182.135 61.5572 182.341C67.121 171.023 72.0811 151.751 61.2 143.752Z" fill="url(#paint7_linear_42_989)"/>
<g opacity="0.3">
<path d="M69.2592 173.539C67.6581 174.506 66.3306 175.867 65.4027 177.491C64.4748 179.115 63.9771 180.95 63.957 182.82C64.8638 180.433 66.2702 178.267 68.0821 176.467C71.04 173.293 76.634 172.945 81.5187 172.181C77.2276 171.049 72.6247 171.557 69.2592 173.539Z" fill="black"/>
</g>
<path d="M73.1765 173.709C73.075 173.767 72.9669 173.813 72.8545 173.845C72.6482 173.93 72.3263 174.031 71.9289 174.192C70.8108 174.652 69.7573 175.256 68.7948 175.988C67.3814 177.083 66.2027 178.452 65.3288 180.012C64.8055 180.932 64.379 181.903 64.0561 182.91C63.6949 183.987 63.4356 185.095 63.2814 186.22C63.0135 188.404 62.9092 190.605 62.9695 192.805C62.9695 194.842 63.0399 196.673 62.9997 198.218C62.9831 199.435 62.9025 200.651 62.7582 201.86C62.7129 202.288 62.6425 202.615 62.6073 202.841C62.5942 202.956 62.5689 203.069 62.5318 203.178C62.5206 203.063 62.5206 202.946 62.5318 202.831C62.5318 202.604 62.6073 202.277 62.6324 201.85C62.723 200.995 62.7833 199.752 62.7934 198.213C62.8035 196.673 62.7431 194.847 62.7079 192.81C62.6327 190.596 62.7319 188.379 63.0047 186.18C63.158 185.04 63.4208 183.918 63.7895 182.829C64.1222 181.809 64.5606 180.826 65.0974 179.897C66.5927 177.214 68.9952 175.152 71.8736 174.081C72.281 173.935 72.603 173.85 72.8193 173.779C72.9362 173.746 73.0557 173.722 73.1765 173.709Z" fill="url(#paint8_linear_42_989)"/>
<path d="M86.0071 184.641C85.9785 184.757 85.9415 184.872 85.8964 184.983L85.7505 185.4C85.6801 185.561 85.5795 185.732 85.4738 185.933C84.8103 187.034 83.959 188.01 82.9585 188.816C81.7462 189.877 80.1565 190.969 78.597 192.393C77.7732 193.122 77.0791 193.986 76.5446 194.948C76.0336 196.015 75.6941 197.156 75.5385 198.329C75.3692 199.524 75.0948 200.703 74.7185 201.85C74.3498 202.903 73.8727 203.914 73.2948 204.868C72.7754 205.739 72.1848 206.565 71.5291 207.338C70.9493 208.003 70.3258 208.628 69.6628 209.21C68.7076 210.056 67.6674 210.801 66.559 211.433C66.1766 211.67 65.8547 211.816 65.6484 211.936C65.5429 211.997 65.4317 212.048 65.3164 212.087C65.4111 212.011 65.514 211.945 65.6233 211.891C65.8245 211.765 66.1263 211.609 66.5086 211.388C67.5817 210.723 68.592 209.962 69.527 209.114C70.1735 208.528 70.7818 207.902 71.348 207.238C71.9977 206.449 72.5831 205.61 73.0987 204.728C73.6625 203.771 74.1277 202.76 74.4871 201.709C74.8547 200.578 75.124 199.416 75.292 198.238C75.4532 197.04 75.8047 195.875 76.3333 194.787C76.8837 193.803 77.5983 192.92 78.4461 192.176C80.0408 190.743 81.6355 189.661 82.8579 188.655C83.8422 187.867 84.6917 186.924 85.3732 185.863C85.4788 185.667 85.5895 185.501 85.665 185.36L85.836 184.963C85.8798 184.849 85.9372 184.741 86.0071 184.641Z" fill="url(#paint9_linear_42_989)"/>
<path d="M54.741 165.49L42.4766 177.916C43.4357 183.282 44.3982 188.648 45.3641 194.013C45.5804 195.211 45.9225 196.569 47.2103 197.142C48.7849 197.837 50.8021 196.906 51.9189 195.719C53.906 193.601 54.3034 190.814 54.4895 188.173C55.0479 180.174 56.7331 173.272 54.741 165.49Z" fill="#C6C6C6"/>
<path d="M32.5115 162.541L23.1094 172.129C24.0803 177.804 24.8902 188.162 25.8611 193.836C26.0774 195.104 26.4245 196.537 27.6872 197.151C29.2265 197.896 31.2086 196.925 32.2851 195.672C34.2168 193.449 34.5891 190.506 34.7551 187.724C35.261 179.265 34.5048 170.777 32.5115 162.541Z" fill="#C6C6C6"/>
<g opacity="0.3">
<path d="M34.684 176.293L22.4648 176.666C24.4519 179.297 27.6916 180.776 30.9614 181.193C34.2313 181.611 37.5514 181.133 40.771 180.423C43.3819 179.845 46.375 178.411 48.7746 177.239C51.1742 176.067 57.7743 170.01 58.1868 166.172C51.5666 167.314 41.3042 175.182 34.684 176.293Z" fill="black"/>
</g>
<path d="M28.4745 141.846C28.4745 141.846 15.9837 143.702 13.2269 155.011L12.5176 162.335C12.5176 162.335 11.8888 169.615 16.0994 174.66C19.7415 179.022 23.4339 180.697 34.5213 179.837C42.0671 179.258 49.1098 176.532 53.4713 171.873C55.2471 169.972 57.3499 167.638 58.6176 165.61C62.5313 159.337 58.2705 151.157 56.213 148.642C53.4261 145.176 44.2101 138.501 28.4745 141.846Z" fill="#C6C6C6"/>
<path d="M25.7304 143.662C25.7304 143.662 18.8637 141.041 17.4954 140.478C13.7779 138.968 9.15981 137.645 8.1537 140.875C7.36894 143.39 14.5475 156.243 14.5475 156.243L21.7362 148.159L25.7304 143.662Z" fill="#C6C6C6"/>
<g opacity="0.3">
<path d="M23.9815 145.011C23.9815 145.011 10.399 139.2 9.56898 140.352C8.73894 141.504 14.9114 152.139 14.9114 152.139C14.9114 152.139 23.1213 149.347 23.9815 145.011Z" fill="black"/>
</g>
<path d="M13.7578 152.671C14.1653 150.533 15.6392 148.214 16.9925 146.549C16.8177 147.406 16.9163 148.296 17.2742 149.094C19.6989 146.498 22.2796 143.807 25.6601 142.766L25.157 145.281L19.9756 153.274L13.7578 152.671Z" fill="#C6C6C6"/>
<path opacity="0.3" d="M35.9154 158.114C35.012 157.68 33.9963 157.536 33.0077 157.702L29.6775 158.205C29.0426 158.297 28.4323 158.514 27.8816 158.844C27.263 159.216 26.7299 159.715 26.3171 160.308C25.4582 161.641 24.9973 163.192 24.9884 164.777C24.9795 166.363 25.423 167.919 26.2668 169.262C27.0996 170.589 28.3271 171.623 29.7771 172.218C31.227 172.812 32.8267 172.938 34.3518 172.577C35.8768 172.217 37.2508 171.388 38.2809 170.207C39.311 169.026 39.9457 167.552 40.0958 165.992C40.2531 164.413 39.9402 162.823 39.1964 161.421C38.4526 160.02 37.3111 158.869 35.9154 158.114Z" fill="white"/>
<path d="M33.8115 159.075C33.0443 158.86 32.2416 158.802 31.4515 158.905C30.6615 159.008 29.9003 159.269 29.2136 159.673C28.7558 159.859 28.4137 160.639 28.8011 160.966L31.1151 162.918C31.2187 163.011 31.3531 163.063 31.4924 163.063C31.6318 163.063 31.7662 163.011 31.8697 162.918L34.6969 160.201C35.0842 159.789 34.4856 159.17 33.8115 159.075Z" fill="url(#paint10_linear_42_989)"/>
<path d="M31.4486 161.842C31.4196 161.986 31.4112 162.133 31.4234 162.279C31.4407 162.678 31.5066 163.074 31.6196 163.457C31.7893 164.03 32.0658 164.566 32.4345 165.036C32.8843 165.61 33.4804 166.051 34.16 166.314C34.8316 166.582 35.5693 166.636 36.2729 166.47C36.8414 166.326 37.3619 166.034 37.782 165.625C38.0685 165.349 38.2976 165.019 38.4561 164.654C38.521 164.521 38.5635 164.378 38.5819 164.231C38.3693 164.713 38.0652 165.149 37.6864 165.514C37.2737 165.891 36.7715 166.156 36.2276 166.284C35.5561 166.437 34.854 166.38 34.2154 166.123C33.5688 165.87 32.9986 165.454 32.5603 164.915C32.2003 164.465 31.9227 163.954 31.7403 163.406C31.5943 162.895 31.4966 162.371 31.4486 161.842Z" fill="url(#paint11_linear_42_989)"/>
<path d="M25.7617 165.253C25.8271 165.372 25.9083 165.482 26.0032 165.58C26.2375 165.864 26.4949 166.128 26.7729 166.37C27.1801 166.744 27.6836 166.996 28.2267 167.099C28.5604 167.145 28.8999 167.125 29.2255 167.038C29.5511 166.952 29.8562 166.802 30.1232 166.596C30.663 166.186 31.0705 165.626 31.2953 164.986C31.4815 164.466 31.5851 163.919 31.6022 163.367C31.6157 162.996 31.6023 162.624 31.5619 162.255C31.5563 162.119 31.5309 161.985 31.4865 161.857C31.4462 161.857 31.5267 162.436 31.4613 163.367C31.4241 163.9 31.3088 164.426 31.1192 164.926C30.8928 165.526 30.5002 166.05 29.9874 166.435C29.4908 166.827 28.8603 167.007 28.2317 166.938C27.7168 166.85 27.2354 166.624 26.8383 166.284C26.139 165.676 25.7617 165.223 25.7617 165.253Z" fill="url(#paint12_linear_42_989)"/>
<path d="M29.8828 168.704C29.8828 168.704 30.0589 168.985 30.4915 169.267C31.0617 169.623 31.7264 169.799 32.3981 169.77C33.0668 169.742 33.7111 169.511 34.2443 169.106C34.6467 168.794 34.8178 168.517 34.7977 168.497C34.7775 168.477 34.5562 168.699 34.1437 168.96C33.6164 169.302 33.0067 169.494 32.379 169.518C31.7513 169.542 31.1287 169.396 30.577 169.096C30.1444 168.885 29.913 168.673 29.8828 168.704Z" fill="url(#paint13_linear_42_989)"/>
<path d="M37.5508 161.923C37.5508 161.994 46.0474 161.808 56.516 161.506C66.9845 161.204 75.4761 160.907 75.4711 160.837C75.466 160.766 66.9795 160.958 56.5059 161.254C46.0323 161.551 37.5508 161.853 37.5508 161.923Z" fill="url(#paint14_linear_42_989)"/>
<path d="M37.582 163.185C37.6855 163.214 37.7918 163.23 37.899 163.235L38.8095 163.341C39.6043 163.426 40.7513 163.532 42.1749 163.648C45.0172 163.884 48.9511 164.151 53.2975 164.282C57.6439 164.412 61.5777 164.438 64.4301 164.397C65.8537 164.372 67.0057 164.347 67.8005 164.312L68.7161 164.272C68.8226 164.275 68.929 164.265 69.033 164.241C68.9277 164.23 68.8214 164.23 68.7161 164.241H64.425C61.5777 164.241 57.6439 164.201 53.3025 164.055C48.9611 163.909 45.0272 163.683 42.185 163.497L38.8195 163.27L37.904 163.21C37.7981 163.188 37.69 163.18 37.582 163.185Z" fill="url(#paint15_linear_42_989)"/>
<path d="M0.320341 168.723C0.320341 168.793 6.4224 167.616 13.9028 166.102C21.3832 164.587 27.4853 163.295 27.4501 163.229C27.4149 163.164 21.3531 164.336 13.8676 165.855C6.38216 167.374 0.305249 168.657 0.320341 168.723Z" fill="url(#paint16_linear_42_989)"/>
<path d="M6.04304 171.983C6.06819 172.049 10.6661 170.353 16.3104 168.2C21.9547 166.047 26.5174 164.246 26.4922 164.176C26.4671 164.106 21.8742 165.806 16.2249 167.959C10.5756 170.112 6.02291 171.918 6.04304 171.983Z" fill="url(#paint17_linear_42_989)"/>
<path d="M23.3906 143.118C26.2279 141.659 28.6777 140.568 31.8621 140.326C33.0361 137.582 35.1874 135.372 37.8987 134.124L35.1118 139.572C36.3608 138.267 37.9176 137.296 39.6393 136.75C38.6338 137.749 37.9536 139.029 37.6874 140.422C39.1925 140.468 40.6939 140.597 42.1847 140.809C42.1847 140.809 51.8686 129.46 56.7331 130.944C60.2998 132.031 57.8901 151.806 57.8901 151.806" fill="#C6C6C6"/>
<path d="M57.894 151.806C57.8884 151.739 57.8884 151.672 57.894 151.605C57.894 151.459 57.9242 151.263 57.9443 151.016C57.9947 150.488 58.06 149.728 58.1456 148.762C58.3065 146.805 58.5329 143.968 58.5782 140.452C58.621 138.541 58.5319 136.63 58.3116 134.732C58.2448 134.214 58.1491 133.7 58.0248 133.193C57.9088 132.675 57.7137 132.178 57.4463 131.719C57.3179 131.493 57.1367 131.301 56.9181 131.16C56.681 131.042 56.4228 130.972 56.1585 130.954C55.6013 130.905 55.0397 130.961 54.5035 131.12C53.3763 131.463 52.3064 131.971 51.3292 132.629C50.2952 133.307 49.304 134.048 48.3611 134.848C46.3864 136.551 44.5277 138.385 42.7974 140.336L42.2943 140.915L42.244 140.965H42.1736C40.6903 140.747 39.1951 140.62 37.6964 140.583H37.5404L37.5706 140.432C37.6979 139.717 37.9427 139.029 38.295 138.394C38.6525 137.786 39.0741 137.218 39.5527 136.699L39.6885 136.905C37.9894 137.446 36.4521 138.402 35.2163 139.687L34.6428 140.291L35.0201 139.551C36.0262 137.635 36.9368 135.814 37.8121 134.108L37.958 134.259C35.2567 135.487 33.1061 137.671 31.9213 140.392V140.437H31.871C29.6752 140.627 27.5308 141.207 25.5375 142.147C24.8383 142.464 24.3051 142.726 23.9429 142.897L23.5354 143.088C23.4915 143.114 23.4441 143.135 23.3945 143.148C23.4354 143.117 23.4792 143.09 23.5253 143.068L23.9227 142.851C24.2799 142.67 24.8031 142.394 25.5023 142.067C27.4941 141.084 29.6493 140.475 31.861 140.271L31.7905 140.321C32.9667 137.551 35.1308 135.317 37.8624 134.053L38.1542 133.922L38.0083 134.204L35.2364 139.657L35.0403 139.516C36.3013 138.196 37.8736 137.214 39.613 136.659L40.0507 136.518L39.7438 136.865C39.2757 137.369 38.8641 137.922 38.5164 138.515C38.1814 139.127 37.9487 139.79 37.8272 140.477L37.6964 140.321C39.2122 140.356 40.7243 140.485 42.2239 140.708L42.1082 140.754L42.6112 140.17C44.3551 138.22 46.2291 136.389 48.2203 134.692C49.1688 133.884 50.1686 133.138 51.2135 132.458C52.2132 131.788 53.3066 131.269 54.4582 130.919C55.0257 130.752 55.6197 130.694 56.2088 130.748C56.3531 130.765 56.496 130.792 56.6364 130.828C56.7868 130.853 56.9306 130.908 57.059 130.989C57.3066 131.151 57.5133 131.368 57.6626 131.623C57.9354 132.107 58.137 132.627 58.2613 133.168C58.3846 133.684 58.4804 134.206 58.548 134.732C58.7614 136.643 58.8404 138.566 58.7844 140.487C58.714 144.009 58.4575 146.846 58.2814 148.803C58.1858 149.779 58.1003 150.538 58.0349 151.051C57.9997 151.298 57.9745 151.494 57.9544 151.635C57.938 151.693 57.9179 151.75 57.894 151.806Z" fill="url(#paint18_linear_42_989)"/>
<g opacity="0.3">
<path d="M54.6049 148.888C54.6049 148.888 55.7469 134.349 54.0717 133.992C52.3965 133.635 42.6523 143.173 42.6523 143.173C42.6523 143.173 49.2474 149.672 54.6049 148.888Z" fill="black"/>
</g>
<path d="M42.5508 142.596C44.6536 142.239 47.3097 142.843 49.3219 143.562C48.4734 143.694 47.6902 144.096 47.0883 144.709C50.3431 146.133 53.7337 147.662 55.9019 150.534L53.3866 150.912L44.2008 148.728L42.5508 142.596Z" fill="#C6C6C6"/>
<path d="M26.49 160.851C26.3089 160.907 26.0171 160.288 25.5643 159.408C25.3164 158.918 24.9959 158.468 24.6136 158.075C24.2057 157.645 23.658 157.376 23.0692 157.315C22.4718 157.314 21.8912 157.512 21.4192 157.878C20.9863 158.21 20.6092 158.609 20.3024 159.061C19.7339 159.87 19.3969 160.454 19.2158 160.384C19.0347 160.313 19.0749 159.654 19.4874 158.613C19.7495 157.977 20.1479 157.407 20.6545 156.943C21.3317 156.319 22.2246 155.984 23.1446 156.007C23.6018 156.044 24.0465 156.174 24.4514 156.39C24.8563 156.605 25.2128 156.901 25.4989 157.26C25.9369 157.786 26.253 158.403 26.4246 159.066C26.7012 160.147 26.656 160.806 26.49 160.851Z" fill="url(#paint19_linear_42_989)"/>
<path d="M45.0159 157.601C44.87 157.722 44.3619 157.269 43.5923 156.636C43.1743 156.281 42.7044 155.992 42.1988 155.78C41.6559 155.548 41.0487 155.514 40.4834 155.685C39.9316 155.916 39.473 156.325 39.1805 156.847C38.9172 157.318 38.7273 157.827 38.617 158.356C38.4108 159.327 38.3303 159.996 38.1391 160.001C37.948 160.006 37.7166 159.387 37.6964 158.265C37.681 157.572 37.8238 156.884 38.114 156.253C38.4927 155.416 39.1816 154.757 40.0357 154.417C40.4717 154.273 40.9325 154.219 41.3901 154.259C41.8476 154.299 42.2922 154.431 42.6968 154.648C43.3051 154.964 43.8372 155.409 44.2563 155.951C44.9304 156.872 45.1467 157.496 45.0159 157.601Z" fill="url(#paint20_linear_42_989)"/>
<g opacity="0.3">
<path d="M33.978 152.728C34.129 153.432 33.0273 154.272 31.4628 154.428C29.8983 154.584 28.6658 153.99 28.6758 153.271C28.6859 152.552 29.8127 151.968 31.1911 151.822C32.5695 151.676 33.807 152.018 33.978 152.728Z" fill="white"/>
</g>
<path d="M62.1674 159.805C62.1234 159.931 62.0661 160.053 61.9964 160.167C61.8706 160.403 61.6845 160.74 61.443 161.173C60.94 162.043 60.2307 163.296 59.2548 164.795C58.1226 166.555 56.8722 168.235 55.512 169.826C53.8459 171.783 51.9528 173.536 49.8728 175.047C47.7875 176.564 45.4702 177.733 43.0111 178.508C41.0041 179.12 38.9443 179.542 36.8588 179.771C35.083 179.982 33.6392 180.068 32.6432 180.128L31.4962 180.183C31.3624 180.197 31.2276 180.197 31.0938 180.183C31.2245 180.154 31.3574 180.136 31.4912 180.128L32.6331 180.027C33.6392 179.937 35.0679 179.821 36.8336 179.585C38.9023 179.332 40.9443 178.896 42.9357 178.282C45.3658 177.497 47.6562 176.332 49.7219 174.831C51.7856 173.332 53.6679 171.598 55.3309 169.665C56.6923 168.084 57.9525 166.419 59.1038 164.679C60.11 163.195 60.8394 161.963 61.3525 161.108C61.604 160.695 61.8002 160.368 61.9461 160.101C62.092 159.835 62.1624 159.805 62.1674 159.805Z" fill="url(#paint21_linear_42_989)"/>
<g opacity="0.3">
<path d="M31.1978 190.947C30.8825 190.877 30.5523 190.927 30.2722 191.088C29.7661 191.381 29.3287 191.779 28.9894 192.256C28.6502 192.732 28.4169 193.276 28.3052 193.85C28.2196 194.151 28.2271 194.471 28.3268 194.769C28.4264 195.066 28.6136 195.326 28.8636 195.515C29.1833 195.676 29.542 195.743 29.8982 195.708C30.2543 195.673 30.5934 195.538 30.8759 195.319C31.3965 194.891 31.7811 194.321 31.9826 193.679C32.2034 193.19 32.2902 192.652 32.2341 192.119C32.1923 191.845 32.0723 191.588 31.8885 191.381C31.7047 191.173 31.4649 191.022 31.1978 190.947Z" fill="black"/>
</g>
<path d="M28.3945 190.452C28.9914 189.788 29.7753 189.319 30.6432 189.109C31.481 188.809 32.3873 188.757 33.254 188.958C32.4056 189.019 31.564 189.154 30.7388 189.36C29.9205 189.639 29.1346 190.005 28.3945 190.452Z" fill="url(#paint22_linear_42_989)"/>
<path d="M55.7315 171.963C55.7697 172.128 55.7833 172.297 55.7717 172.466C55.7717 172.778 55.7717 173.236 55.7717 173.794C55.7717 174.916 55.6812 176.47 55.5504 178.176C55.4196 179.881 55.2385 181.43 55.0826 182.542C55.0071 183.095 54.9367 183.548 54.8813 183.855C54.8645 184.019 54.8256 184.18 54.7656 184.333C54.7707 183.727 54.8144 183.122 54.8964 182.522C55.0071 181.405 55.153 179.861 55.2888 178.155C55.4246 176.45 55.5152 174.906 55.5856 173.789C55.5964 173.178 55.6451 172.568 55.7315 171.963Z" fill="url(#paint23_linear_42_989)"/>
<defs>
<linearGradient id="paint0_linear_42_989" x1="50.595" y1="65.1699" x2="50.595" y2="155.7" gradientUnits="userSpaceOnUse">
<stop stop-color="#555555"/>
<stop offset="1" stop-color="#2C2C2C"/>
</linearGradient>
<linearGradient id="paint1_linear_42_989" x1="35.7456" y1="29.8984" x2="35.7456" y2="106.968" gradientUnits="userSpaceOnUse">
<stop stop-color="#555555"/>
<stop offset="1" stop-color="#2C2C2C"/>
</linearGradient>
<linearGradient id="paint2_linear_42_989" x1="49.538" y1="103.744" x2="49.538" y2="112.869" gradientUnits="userSpaceOnUse">
<stop stop-color="#555555"/>
<stop offset="1" stop-color="#2C2C2C"/>
</linearGradient>
<linearGradient id="paint3_linear_42_989" x1="47.6116" y1="105.031" x2="47.6116" y2="106.699" gradientUnits="userSpaceOnUse">
<stop stop-color="#555555"/>
<stop offset="1" stop-color="#2C2C2C"/>
</linearGradient>
<linearGradient id="paint4_linear_42_989" x1="66.7584" y1="64.375" x2="66.7584" y2="156.65" gradientUnits="userSpaceOnUse">
<stop stop-color="#555555"/>
<stop offset="1" stop-color="#2C2C2C"/>
</linearGradient>
<linearGradient id="paint5_linear_42_989" x1="70.9624" y1="88.6191" x2="70.9624" y2="89.6618" gradientUnits="userSpaceOnUse">
<stop stop-color="#555555"/>
<stop offset="1" stop-color="#2C2C2C"/>
</linearGradient>
<linearGradient id="paint6_linear_42_989" x1="99.8503" y1="206.236" x2="99.8503" y2="212.554" gradientUnits="userSpaceOnUse">
<stop stop-color="#555555"/>
<stop offset="1" stop-color="#2C2C2C"/>
</linearGradient>
<linearGradient id="paint7_linear_42_989" x1="60.2604" y1="142.627" x2="60.2604" y2="182.341" gradientUnits="userSpaceOnUse">
<stop stop-color="#555555"/>
<stop offset="1" stop-color="#2C2C2C"/>
</linearGradient>
<linearGradient id="paint8_linear_42_989" x1="67.8499" y1="173.709" x2="67.8499" y2="203.178" gradientUnits="userSpaceOnUse">
<stop stop-color="#555555"/>
<stop offset="1" stop-color="#2C2C2C"/>
</linearGradient>
<linearGradient id="paint9_linear_42_989" x1="75.6617" y1="184.641" x2="75.6617" y2="212.087" gradientUnits="userSpaceOnUse">
<stop stop-color="#555555"/>
<stop offset="1" stop-color="#2C2C2C"/>
</linearGradient>
<linearGradient id="paint10_linear_42_989" x1="31.7259" y1="158.855" x2="31.7259" y2="163.063" gradientUnits="userSpaceOnUse">
<stop stop-color="#555555"/>
<stop offset="1" stop-color="#2C2C2C"/>
</linearGradient>
<linearGradient id="paint11_linear_42_989" x1="34.9999" y1="161.842" x2="34.9999" y2="166.564" gradientUnits="userSpaceOnUse">
<stop stop-color="#555555"/>
<stop offset="1" stop-color="#2C2C2C"/>
</linearGradient>
<linearGradient id="paint12_linear_42_989" x1="28.6845" y1="161.857" x2="28.6845" y2="167.123" gradientUnits="userSpaceOnUse">
<stop stop-color="#555555"/>
<stop offset="1" stop-color="#2C2C2C"/>
</linearGradient>
<linearGradient id="paint13_linear_42_989" x1="32.341" y1="168.496" x2="32.341" y2="169.773" gradientUnits="userSpaceOnUse">
<stop stop-color="#555555"/>
<stop offset="1" stop-color="#2C2C2C"/>
</linearGradient>
<linearGradient id="paint14_linear_42_989" x1="56.5109" y1="160.822" x2="56.5109" y2="161.938" gradientUnits="userSpaceOnUse">
<stop stop-color="#555555"/>
<stop offset="1" stop-color="#2C2C2C"/>
</linearGradient>
<linearGradient id="paint15_linear_42_989" x1="53.3075" y1="163.184" x2="53.3075" y2="164.415" gradientUnits="userSpaceOnUse">
<stop stop-color="#555555"/>
<stop offset="1" stop-color="#2C2C2C"/>
</linearGradient>
<linearGradient id="paint16_linear_42_989" x1="13.8853" y1="163.227" x2="13.8853" y2="168.726" gradientUnits="userSpaceOnUse">
<stop stop-color="#555555"/>
<stop offset="1" stop-color="#2C2C2C"/>
</linearGradient>
<linearGradient id="paint17_linear_42_989" x1="16.2676" y1="164.174" x2="16.2676" y2="171.985" gradientUnits="userSpaceOnUse">
<stop stop-color="#555555"/>
<stop offset="1" stop-color="#2C2C2C"/>
</linearGradient>
<linearGradient id="paint18_linear_42_989" x1="41.0982" y1="130.729" x2="41.0982" y2="151.806" gradientUnits="userSpaceOnUse">
<stop stop-color="#555555"/>
<stop offset="1" stop-color="#2C2C2C"/>
</linearGradient>
<linearGradient id="paint19_linear_42_989" x1="22.8683" y1="156.006" x2="22.8683" y2="160.855" gradientUnits="userSpaceOnUse">
<stop stop-color="#555555"/>
<stop offset="1" stop-color="#2C2C2C"/>
</linearGradient>
<linearGradient id="paint20_linear_42_989" x1="41.3737" y1="154.246" x2="41.3737" y2="160.001" gradientUnits="userSpaceOnUse">
<stop stop-color="#555555"/>
<stop offset="1" stop-color="#2C2C2C"/>
</linearGradient>
<linearGradient id="paint21_linear_42_989" x1="46.6306" y1="159.805" x2="46.6306" y2="180.194" gradientUnits="userSpaceOnUse">
<stop stop-color="#555555"/>
<stop offset="1" stop-color="#2C2C2C"/>
</linearGradient>
<linearGradient id="paint22_linear_42_989" x1="30.8243" y1="188.838" x2="30.8243" y2="190.452" gradientUnits="userSpaceOnUse">
<stop stop-color="#555555"/>
<stop offset="1" stop-color="#2C2C2C"/>
</linearGradient>
<linearGradient id="paint23_linear_42_989" x1="55.2707" y1="171.963" x2="55.2707" y2="184.333" gradientUnits="userSpaceOnUse">
<stop stop-color="#555555"/>
<stop offset="1" stop-color="#2C2C2C"/>
</linearGradient>
</defs>
</svg>
