<svg width="335" height="204" viewBox="0 0 335 204" fill="none" xmlns="http://www.w3.org/2000/svg">
<path d="M179.033 100.594H151.371V107.938H179.033V100.594Z" fill="#EBEBEB"/>
<path d="M165.659 115.668C165.659 115.668 165.659 115.62 165.659 115.534V115.156C165.659 114.812 165.659 114.33 165.659 113.723C165.659 112.457 165.636 110.631 165.612 108.333L165.698 108.419L138.036 108.476L138.179 108.333V110.197C138.179 110.823 138.179 111.439 138.179 112.051V115.663L138.041 115.524L157.756 115.586L163.571 115.629H165.148H165.559H165.703C165.66 115.635 165.616 115.635 165.573 115.629H165.182H163.638L157.852 115.668L138.041 115.73H137.902V108.338L138.041 108.199L165.703 108.252H165.789V108.338C165.789 110.66 165.755 112.5 165.741 113.78C165.741 114.387 165.741 114.865 165.741 115.214C165.741 115.362 165.741 115.481 165.741 115.577C165.741 115.672 165.664 115.672 165.659 115.668Z" fill="#E0E0E0"/>
<path d="M319.626 0H291.965V7.34425H319.626V0Z" fill="#EBEBEB"/>
<path d="M306.254 15.0789C306.25 15.0344 306.25 14.9897 306.254 14.9451C306.254 14.8448 306.254 14.7206 306.254 14.5677C306.254 14.2236 306.254 13.741 306.254 13.1342C306.254 11.8631 306.225 10.0426 306.206 7.74425L306.292 7.83026L278.631 7.8876L278.769 7.74425V15.0789L278.631 14.9404L298.341 15.0025L304.161 15.0407H305.733H306.149H306.292H306.163H305.772H304.228L298.442 15.0837L278.631 15.1458H278.492V11.4665C278.492 10.8549 278.492 10.2337 278.492 9.61256V7.75858L278.636 7.61523L306.297 7.67257H306.383V7.75858C306.383 10.0761 306.345 11.9157 306.335 13.1963C306.335 13.8079 306.335 14.281 306.335 14.6298C306.335 14.7779 306.335 14.8974 306.335 14.9881C306.312 15.0213 306.284 15.0518 306.254 15.0789Z" fill="#E0E0E0"/>
<path d="M111.974 15.4824H84.3125V22.8267H111.974V15.4824Z" fill="#EBEBEB"/>
<path d="M189.888 56.8848H162.227V64.229H189.888V56.8848Z" fill="#EBEBEB"/>
<path d="M40.0052 72.373H9.34766V80.4818H40.0052V72.373Z" fill="#EBEBEB"/>
<path d="M39.0952 17.4921C39.0952 17.4921 39.0952 17.4396 39.0952 17.344C39.0952 17.2485 39.0952 17.1003 39.0952 16.9283C39.0952 16.5508 39.0952 16.0157 39.0952 15.3324C39.0952 13.9323 39.0665 11.9207 39.0426 9.38337L39.1382 9.47894L8.48539 9.54106C8.55229 9.46938 8.32771 9.69396 8.6383 9.38337V17.5065L8.48539 17.3536L30.2888 17.4109L36.7347 17.4539H38.4788H38.9566H39.1191C39.0717 17.4622 39.0231 17.4622 38.9757 17.4539H38.5409H36.8303L30.4178 17.4969L8.46628 17.5638H8.30859V17.4109C8.30859 16.108 8.30859 14.7781 8.30859 13.421V9.38815L8.46628 9.23047L39.1191 9.29259H39.2146V9.38815C39.2146 11.9493 39.1764 13.9801 39.1621 15.3945C39.1621 16.0682 39.1621 16.5938 39.1621 16.9713C39.1621 17.1338 39.1621 17.2676 39.1621 17.3679C39.1621 17.4683 39.1 17.4969 39.0952 17.4921Z" fill="#E0E0E0"/>
<path d="M43.2521 9.38473C43.2456 9.33396 43.2456 9.28259 43.2521 9.23182C43.2521 9.11236 43.2521 8.97379 43.2521 8.80177C43.2521 8.4004 43.2521 7.84611 43.2234 7.17237C43.2234 5.73888 43.1899 3.74633 43.1661 1.27595L43.276 1.38585L24.8604 1.42886L25.0133 1.27595V5.44741C25.0133 6.80445 25.0133 8.11848 25.0133 9.37995L24.8652 9.23182L38.0437 9.3035L41.8664 9.34172H42.9033C43.0258 9.33415 43.1487 9.33415 43.2712 9.34172C43.1599 9.35057 43.048 9.35057 42.9367 9.34172H41.9333L38.1106 9.37995L24.8317 9.45162H24.6836V9.38473C24.6836 8.12326 24.6836 6.80922 24.6836 5.45219V1.28073L24.8413 1.12305L43.2568 1.16605H43.3715V1.28073C43.3429 3.77978 43.3237 5.81056 43.3094 7.24883C43.3094 7.92257 43.3094 8.45774 43.2807 8.84956C43.2822 9.02837 43.2726 9.2071 43.2521 9.38473Z" fill="#E0E0E0"/>
<path d="M189.856 17.3415C189.856 17.3415 189.856 17.289 189.856 17.1982C189.856 17.1074 189.856 16.9497 189.856 16.7825C189.856 16.4002 189.856 15.865 189.856 15.1865C189.856 13.7865 189.827 11.77 189.803 9.23277L189.899 9.32833L159.246 9.39045C159.313 9.31878 159.089 9.54814 159.399 9.23277V17.3415L159.246 17.1886L181.093 17.2603L187.496 17.3177H189.24H189.717H189.88C189.834 17.3248 189.787 17.3248 189.741 17.3177H189.302H187.591L181.179 17.3607L159.227 17.4276H159.074V17.2699C159.074 15.9702 159.074 14.637 159.074 13.2848V9.17543C159.385 8.86484 159.16 9.08942 159.232 9.02252L189.885 9.07986H189.98V9.17543C189.956 11.7366 189.942 13.7722 189.928 15.1818C189.928 15.8555 189.928 16.3811 189.928 16.7586C189.928 16.9211 189.928 17.0548 189.928 17.16C189.928 17.2651 189.885 17.3463 189.856 17.3415Z" fill="#E0E0E0"/>
<path d="M194.014 9.23043C194.007 9.17967 194.007 9.12829 194.014 9.07752C194.014 8.96284 194.014 8.8195 194.014 8.64748C194.014 8.2461 194.014 7.69182 193.985 7.02286C193.985 5.58937 193.952 3.59204 193.928 1.12166L194.038 1.23156L175.622 1.27934C175.479 1.41791 175.808 1.08821 175.775 1.12166V5.29311C175.775 6.65015 175.775 7.96418 175.775 9.22565L175.627 9.07752L188.805 9.1492L192.628 9.18743H193.665H194.033C193.922 9.19947 193.81 9.19947 193.698 9.18743H192.695L188.872 9.23043L175.593 9.29733H175.445V9.14442C175.445 7.88295 175.445 6.56892 175.445 5.21188V1.12643L175.603 0.96875L194.019 1.01175H194.133V1.12166C194.105 3.62071 194.085 5.65148 194.071 7.08975C194.071 7.76349 194.071 8.29866 194.042 8.69048C194.044 8.87089 194.035 9.05122 194.014 9.23043Z" fill="#E0E0E0"/>
<path d="M323.255 151.306C323.252 151.257 323.252 151.207 323.255 151.158C323.255 151.048 323.255 150.909 323.255 150.742C323.255 150.36 323.255 149.825 323.231 149.146C323.231 147.746 323.203 145.73 323.179 143.192L323.274 143.288L292.622 143.35C292.689 143.278 292.464 143.508 292.775 143.192V147.302C292.775 148.654 292.775 149.987 292.775 151.292L292.622 151.139L314.468 151.206L320.919 151.249H322.663H323.117C323.171 151.242 323.225 151.242 323.279 151.249H323.136H322.701H320.99L314.578 151.292L292.622 151.363H292.469V143.207C292.779 142.896 292.555 143.121 292.626 143.054L323.279 143.111H323.375V143.207C323.351 145.768 323.337 147.803 323.322 149.213C323.322 149.887 323.322 150.412 323.298 150.79C323.298 150.952 323.298 151.086 323.298 151.191C323.288 151.231 323.273 151.269 323.255 151.306Z" fill="#E0E0E0"/>
<path d="M329.848 81.0113C329.848 81.0113 329.848 80.9587 329.848 80.8632C329.848 80.7676 329.848 80.6195 329.848 80.4475C329.848 80.0652 329.848 79.5348 329.848 78.8515C329.848 77.4515 329.819 75.4398 329.796 72.9025L329.891 72.9981L299.238 73.0554L299.391 72.9025V81.0256L299.238 80.8727L321.085 80.9396L327.531 80.9874H329.275H329.753C329.807 80.9834 329.861 80.9834 329.915 80.9874C329.869 80.9923 329.823 80.9923 329.777 80.9874H329.337H327.626L321.214 81.0304L299.262 81.1021H299.109V80.9492C299.109 79.6447 299.109 78.3116 299.109 76.9593V72.8452L299.267 72.6875L329.92 72.7496H330.015V72.8452C330.015 75.4064 329.977 77.4371 329.963 78.8515C329.963 79.5252 329.963 80.0509 329.963 80.4236C329.963 80.5908 329.963 80.7198 329.963 80.8249C329.945 80.8975 329.905 80.9627 329.848 81.0113Z" fill="#E0E0E0"/>
<path d="M334.009 72.9018C334.006 72.8493 334.006 72.7966 334.009 72.7441C334.009 72.6294 334.009 72.486 334.009 72.314C334.009 71.9174 334.009 71.3584 333.981 70.6894C333.981 69.2559 333.947 67.2586 333.923 64.7882L334.033 64.9029L315.618 64.9459C315.474 65.0844 315.804 64.7548 315.77 64.793V68.9644C315.77 70.3215 315.77 71.6355 315.77 72.897L315.618 72.7488L328.796 72.8157L332.619 72.8588H333.656C333.778 72.8481 333.901 72.8481 334.024 72.8588C333.912 72.8657 333.8 72.8657 333.689 72.8588H332.686L328.863 72.9018L315.584 72.9734H315.436V72.8253C315.436 71.5638 315.436 70.2498 315.436 68.8928V64.7213C315.403 64.75 315.732 64.4203 315.594 64.5636L334.009 64.6066H334.124V64.7165C334.095 67.2156 334.076 69.2464 334.062 70.6846C334.062 71.3584 334.062 71.8935 334.033 72.2853C334.039 72.4911 334.031 72.6971 334.009 72.9018Z" fill="#E0E0E0"/>
<path d="M0.878906 181.371L10.3734 168.656L42.2351 169.813L54.1474 184.277L37.7244 195.955C37.7244 195.955 12.8055 195.439 11.7543 194.736C10.7031 194.034 0.878906 181.371 0.878906 181.371Z" fill="#F5F5F5"/>
<path d="M50.3594 170.701C52.1035 171.399 61.4737 183.751 61.4737 183.751L79.8128 186.948L101.487 180.005L95.4092 168.656L50.3594 170.701Z" fill="#F5F5F5"/>
<path d="M43.4609 197.764L58.5604 186.344L78.9924 189.517L83.8185 195.953L72.3935 202.456L43.4609 197.764Z" fill="#F5F5F5"/>
<path d="M86.9922 188.607L117.874 179.309L135.215 181.368L144.298 192.024L132.783 198.632H111.017L93.763 195.163L86.9922 188.607Z" fill="#F5F5F5"/>
<path d="M330.245 182.909L320.756 170.223L288.908 171.374L276.996 185.814L293.419 197.492C293.419 197.492 318.333 196.981 319.38 196.279C320.426 195.576 330.245 182.909 330.245 182.909Z" fill="#F5F5F5"/>
<path d="M280.785 172.258C279.045 172.951 269.67 185.308 269.67 185.308L251.312 188.504L229.633 181.547L235.711 170.223L280.785 172.258Z" fill="#F5F5F5"/>
<path d="M287.662 199.303L272.558 187.883L252.126 191.056L247.305 197.492L258.725 204L287.662 199.303Z" fill="#F5F5F5"/>
<path d="M244.138 190.152L213.256 180.854L195.916 182.908L186.832 193.569L198.348 200.177H220.113L237.367 196.708L244.138 190.152Z" fill="#F5F5F5"/>
<path d="M121.582 166.71L126.231 175.378L146.415 177.547L157.744 166.256L121.582 166.71Z" fill="#F5F5F5"/>
<path d="M145.375 184.781C145.222 185.311 149.876 192.479 149.876 192.479L166.122 195.953L179.32 194.4L192.35 184.781C192.35 184.781 191.285 177.614 190.525 177.81C189.765 178.005 163.231 177.719 163.231 177.719L145.375 184.781Z" fill="#F5F5F5"/>
<path d="M183.013 168.654L181.938 173.084L195.852 176.314L211.687 175.258V167.928L183.013 168.654Z" fill="#F5F5F5"/>
<path d="M325.465 165.25C325.465 165.322 254.928 165.379 167.929 165.379C80.9305 165.379 10.3789 165.322 10.3789 165.25C10.3789 165.178 80.9018 165.121 167.929 165.121C254.956 165.121 325.465 165.178 325.465 165.25Z" fill="#263238"/>
<path d="M282.975 164.26C287.003 165.473 291.547 163.142 293.673 159.515C295.8 155.888 295.809 151.311 294.586 147.282C293.363 143.254 291.026 139.675 288.613 136.23C286.2 132.785 283.668 129.373 281.962 125.532C278.971 118.77 278.799 110.752 281.775 103.986C284.752 97.2202 290.911 91.8733 298.098 90.1292C305.285 88.3851 313.336 90.4637 318.616 95.6338C324.216 101.115 326.333 109.328 326.405 117.165C326.433 119.783 326.247 122.459 325.258 124.887C324.269 127.314 322.391 129.474 319.873 130.248C316.81 131.203 313.35 129.856 311.181 127.491C309.012 125.125 307.98 121.914 307.602 118.732C307.158 114.991 307.344 110.705 304.625 108.091C301.543 105.124 295.953 106.294 293.401 109.73C290.849 113.165 290.897 117.982 292.364 122C293.831 126.019 296.512 129.455 299.03 132.919C303.168 138.615 307.057 144.865 307.765 151.874C308.148 155.701 307.552 159.562 306.033 163.095C304.514 166.628 302.123 169.717 299.082 172.072C296.042 174.426 292.453 175.97 288.652 176.557C284.852 177.143 280.964 176.755 277.355 175.427" fill="#E0E0E0"/>
<g opacity="0.3">
<path d="M326.407 117.186C326.259 119.8 326.249 122.48 325.26 124.908C324.271 127.335 322.393 129.495 319.875 130.269C316.812 131.225 313.352 129.877 311.183 127.512C309.014 125.147 307.982 121.936 307.604 118.753L306.734 111.973C308.65 108.731 311.116 105.848 314.021 103.453L314.361 107.524C314.361 107.524 319.555 103.401 324.763 105.661C324.763 105.661 326.65 112.928 326.407 117.186Z" fill="white"/>
</g>
<path d="M217.836 155.41C216.35 155.576 214.922 156.08 213.662 156.883C212.401 157.687 211.341 158.768 210.563 160.045C209.025 162.632 208.413 165.665 208.829 168.646C209.253 171.608 210.314 174.443 211.939 176.956C209.794 177.08 208.141 179.149 207.854 181.28C207.672 182.623 207.978 184.118 209.001 185.007C210.023 185.896 211.586 186.006 212.991 185.996C218.495 185.967 223.981 185.418 229.466 184.868L217.836 155.41Z" fill="#E0E0E0"/>
<g opacity="0.3">
<path d="M217.836 155.41C216.35 155.576 214.922 156.08 213.662 156.883C212.401 157.687 211.341 158.768 210.563 160.045C209.025 162.632 208.413 165.665 208.829 168.646C209.253 171.608 210.314 174.443 211.939 176.956C209.794 177.08 208.141 179.149 207.854 181.28C207.672 182.623 207.978 184.118 209.001 185.007C210.023 185.896 211.586 186.006 212.991 185.996C218.495 185.967 223.981 185.418 229.466 184.868L217.836 155.41Z" fill="black"/>
</g>
<path d="M214.355 133.502C212.979 148.281 213.151 163.237 215.621 177.873C214.389 178.584 213.322 179.548 212.491 180.702C211.717 181.887 211.402 183.454 212.013 184.74C212.735 186.293 214.575 187.038 216.285 187.091C217.996 187.143 219.716 186.947 221.422 186.947C223.333 186.947 226.563 187.081 228.37 186.589L229.459 172.211L214.355 133.502Z" fill="#E0E0E0"/>
<path d="M214.355 133.503C214.761 134.525 220.71 149.649 229.574 172.207V172.236C229.235 176.737 228.872 181.582 228.494 186.614V186.704L228.408 186.728C227.255 186.98 226.077 187.103 224.896 187.096C223.702 187.125 222.507 187.096 221.265 187.096C219.645 187.096 218.03 187.263 216.419 187.225C215.6 187.221 214.789 187.058 214.03 186.747C213.276 186.445 212.624 185.934 212.148 185.276C211.697 184.605 211.488 183.801 211.555 182.996C211.615 182.215 211.859 181.458 212.267 180.789C213.113 179.547 214.231 178.514 215.535 177.769L215.478 177.893C213.771 167.365 213.103 156.695 213.486 146.036C213.619 142.089 213.839 138.95 214.016 136.805C214.102 135.73 214.202 134.893 214.255 134.329C214.307 133.766 214.327 133.618 214.336 133.498C214.336 133.77 214.25 134.75 214.102 136.809C213.949 138.96 213.753 142.094 213.624 146.041C213.3 156.694 214.009 167.353 215.741 177.869V177.951L215.669 177.994C214.4 178.722 213.312 179.729 212.487 180.937C212.099 181.571 211.866 182.288 211.808 183.03C211.747 183.78 211.942 184.528 212.363 185.151C212.809 185.771 213.424 186.249 214.135 186.528C214.856 186.83 215.628 186.993 216.41 187.005C218.001 187.044 219.611 186.886 221.25 186.876C222.478 186.876 223.687 186.905 224.877 186.876C226.037 186.882 227.194 186.76 228.327 186.513L228.236 186.628C228.618 181.601 228.986 176.751 229.326 172.25V172.303L214.355 133.503Z" fill="#263238"/>
<path d="M219.274 108.411C219.274 108.411 212.398 129.674 214.319 148.611C216.24 167.547 230.14 184.324 230.14 184.324L255.785 186.947L275.921 179.995L273.054 137.568C266.751 126.267 261.156 115.33 261.586 107.508L219.274 108.411Z" fill="#E0E0E0"/>
<path d="M270.106 153.09C269.628 152.856 251.647 150.318 250.692 167.004C250.692 167.004 249.445 171.926 254.366 176.685C254.366 176.685 249.253 176.36 248.632 183.743C248.597 184.165 248.646 184.591 248.776 184.994C248.906 185.398 249.115 185.772 249.39 186.095C249.666 186.417 250.002 186.682 250.381 186.874C250.759 187.065 251.172 187.18 251.595 187.212C256.884 187.594 267.865 188.1 272.619 186.208C278.965 183.671 283.409 180.183 284.202 169.627C284.995 159.072 281.029 146.692 273.054 137.584C268.218 132.07 270.106 153.09 270.106 153.09Z" fill="#E0E0E0"/>
<path d="M230.768 149.4C231.314 145.456 230.523 141.442 228.522 137.999C227.337 135.973 225.531 134.066 223.199 133.794C220.867 133.522 218.478 135.113 217.274 137.201C216.07 139.289 215.788 141.788 215.745 144.201C215.675 150.255 216.91 156.252 219.366 161.785C221.821 167.319 225.44 172.258 229.975 176.268" fill="white"/>
<path d="M230.978 143.966C230.978 145.165 230.281 174.241 228.465 176.893C226.649 179.545 221.188 177.132 224.47 186.961H240.454C240.454 186.961 243.087 186.722 246.446 176.893C249.805 167.064 252.18 156.041 252.18 156.041L249.991 133.172L230.978 143.966Z" fill="#E0E0E0"/>
<path d="M255.007 140.344C255.007 140.344 255.007 140.43 254.973 140.592L254.854 141.319C254.744 141.964 254.581 142.905 254.376 144.114C253.951 146.551 253.33 150.072 252.56 154.449C252.465 154.999 252.364 155.563 252.259 156.136C252.154 156.709 252.001 157.288 251.867 157.88C251.595 159.07 251.294 160.303 250.979 161.583C250.343 164.135 249.612 166.878 248.8 169.745C247.987 172.612 247.056 175.608 245.933 178.68C245.354 180.245 244.673 181.769 243.892 183.243C243.493 184.006 243.029 184.733 242.507 185.417C242.377 185.592 242.239 185.76 242.091 185.919C241.942 186.088 241.782 186.248 241.613 186.397C241.289 186.729 240.886 186.974 240.443 187.109H224.368L224.344 187.018C223.79 185.496 223.445 183.907 223.317 182.292C223.256 181.484 223.421 180.675 223.795 179.956C224.233 179.292 224.875 178.789 225.625 178.522C226.324 178.264 226.999 177.944 227.641 177.567C227.938 177.369 228.191 177.114 228.387 176.817C228.476 176.666 228.547 176.506 228.597 176.339C228.659 176.172 228.71 176.001 228.75 175.827C229.06 174.449 229.285 173.053 229.424 171.646C230.011 166.156 230.241 161.234 230.456 157.139C230.671 153.044 230.771 149.752 230.852 147.492C230.891 146.369 230.919 145.495 230.938 144.893C230.938 144.606 230.938 144.381 230.938 144.224V143.994C230.943 144.071 230.943 144.147 230.938 144.224V144.897C230.938 145.495 230.91 146.369 230.891 147.492C230.838 149.757 230.747 153.044 230.571 157.144C230.394 161.244 230.169 166.166 229.615 171.67C229.479 173.087 229.255 174.495 228.946 175.885C228.904 176.066 228.852 176.245 228.788 176.42C228.74 176.591 228.672 176.756 228.588 176.912C228.376 177.234 228.101 177.511 227.78 177.724C227.127 178.107 226.439 178.427 225.725 178.68C225.022 178.933 224.421 179.41 224.015 180.037C223.664 180.715 223.511 181.479 223.575 182.24C223.704 183.831 224.046 185.398 224.593 186.899L224.473 186.813H240.443C240.828 186.678 241.178 186.457 241.465 186.168C241.624 186.027 241.772 185.875 241.909 185.714C242.055 185.563 242.19 185.403 242.316 185.236C242.831 184.564 243.288 183.849 243.682 183.1C244.458 181.636 245.136 180.123 245.713 178.57C246.836 175.512 247.753 172.511 248.58 169.654C249.407 166.796 250.133 164.073 250.778 161.531C251.097 160.257 251.398 159.027 251.681 157.842C251.815 157.245 251.949 156.666 252.082 156.098C252.216 155.529 252.288 154.965 252.388 154.421C253.191 150.048 253.822 146.532 254.3 144.095C254.524 142.891 254.701 141.954 254.82 141.309L254.964 140.587C254.983 140.425 255.007 140.344 255.007 140.344Z" fill="#263238"/>
<path d="M227.033 177.721C227.033 177.721 226.956 177.673 226.837 177.563L226.311 177.086C226.082 176.87 225.805 176.608 225.503 176.273C225.202 175.939 224.839 175.585 224.476 175.155C223.731 174.314 222.895 173.268 222.02 172.064C221.09 170.745 220.231 169.376 219.449 167.964C218.684 166.544 217.998 165.083 217.395 163.587C216.906 162.364 216.48 161.117 216.119 159.85C215.952 159.315 215.842 158.818 215.732 158.383C215.622 157.948 215.541 157.576 215.483 157.265C215.426 156.955 215.383 156.749 215.35 156.558C215.327 156.475 215.318 156.39 215.321 156.305C215.357 156.381 215.384 156.461 215.402 156.544L215.579 157.246C215.651 157.552 215.746 157.92 215.87 158.35C215.995 158.78 216.114 159.267 216.291 159.783C216.616 160.858 217.06 162.115 217.61 163.486C218.826 166.457 220.371 169.283 222.216 171.911C223.071 173.12 223.888 174.171 224.605 175.021C224.959 175.456 225.303 175.829 225.599 176.163C225.895 176.498 226.153 176.775 226.368 177L226.846 177.53C226.914 177.587 226.977 177.651 227.033 177.721Z" fill="#263238"/>
<path d="M270.102 153.089H269.973L269.595 153.056C269.261 153.027 268.769 152.951 268.124 152.913C266.272 152.765 264.41 152.853 262.581 153.175C261.287 153.423 260.031 153.838 258.844 154.408C257.456 155.081 256.199 155.995 255.131 157.108C252.843 159.497 251.213 163.033 250.831 167.023C250.675 167.848 250.651 168.694 250.759 169.527C250.857 170.397 251.071 171.25 251.395 172.064C252.088 173.775 253.138 175.318 254.477 176.589L254.697 176.804H254.381C253.568 176.8 252.765 176.985 252.035 177.344C251.306 177.703 250.669 178.226 250.176 178.873C249.163 180.197 248.776 181.931 248.685 183.651C248.633 184.051 248.646 184.456 248.724 184.851C248.809 185.235 248.972 185.597 249.201 185.916C249.437 186.229 249.734 186.491 250.074 186.685C250.414 186.879 250.79 187.001 251.18 187.044C252.78 187.173 254.381 187.264 255.958 187.331C259.093 187.464 262.117 187.498 264.994 187.355C267.87 187.211 270.618 186.929 272.978 185.95C275.2 185.118 277.255 183.896 279.047 182.342C280.483 181.015 281.623 179.4 282.392 177.602C282.954 176.235 283.383 174.818 283.672 173.368C283.892 172.174 284.035 171.237 284.088 170.597C284.126 170.286 284.155 170.047 284.174 169.875C284.193 169.703 284.212 169.627 284.212 169.627C284.212 169.627 284.212 169.713 284.212 169.875C284.212 170.038 284.179 170.291 284.15 170.602C284.112 171.247 283.983 172.183 283.782 173.388C283.509 174.85 283.089 176.281 282.53 177.659C281.77 179.484 280.63 181.126 279.185 182.476C277.369 184.058 275.283 185.301 273.026 186.146C270.637 187.154 267.842 187.407 264.97 187.579C262.098 187.751 259.054 187.703 255.915 187.579C254.348 187.512 252.757 187.426 251.137 187.292C250.713 187.246 250.302 187.113 249.932 186.902C249.561 186.691 249.238 186.406 248.982 186.064C248.722 185.719 248.538 185.324 248.442 184.903C248.357 184.485 248.341 184.056 248.394 183.632C248.407 183.193 248.452 182.756 248.528 182.323L248.657 181.692C248.702 181.479 248.76 181.268 248.829 181.061C249.053 180.222 249.437 179.433 249.961 178.739C250.478 178.059 251.147 177.508 251.914 177.131C252.682 176.755 253.526 176.562 254.381 176.57L254.286 176.785C252.925 175.488 251.856 173.916 251.151 172.174C250.825 171.337 250.61 170.462 250.511 169.57C250.401 168.709 250.429 167.837 250.592 166.985V167.008C250.785 165.061 251.29 163.157 252.088 161.37C252.458 160.54 252.896 159.74 253.397 158.981C253.875 158.266 254.416 157.594 255.012 156.974C256.099 155.849 257.379 154.928 258.792 154.255C259.993 153.685 261.263 153.276 262.571 153.037C264.413 152.724 266.288 152.657 268.147 152.836C268.793 152.884 269.285 152.975 269.619 153.013L269.992 153.07C270.029 153.071 270.066 153.078 270.102 153.089Z" fill="#263238"/>
<path d="M263.443 178.572C262.966 178.442 262.499 178.283 262.043 178.094C259.803 177.319 257.47 176.849 255.105 176.699C254.612 176.692 254.121 176.657 253.633 176.593C254.122 176.508 254.619 176.482 255.114 176.517C257.509 176.567 259.876 177.043 262.105 177.922C262.573 178.089 263.022 178.307 263.443 178.572Z" fill="#263238"/>
<g opacity="0.3">
<path d="M256.145 155.847C257.357 153.986 258.994 152.439 260.922 151.335C262.849 150.231 265.011 149.601 267.23 149.496C269.376 149.415 271.693 149.931 273.103 151.551C273.581 152.072 273.839 152.985 273.246 153.357C273.06 153.432 272.861 153.466 272.661 153.459C272.461 153.451 272.265 153.402 272.085 153.314C267.374 151.819 261.205 152.779 256.364 155.847" fill="black"/>
</g>
<g opacity="0.3">
<path d="M244.356 117.694C248.245 117.144 251.92 115.558 255.704 114.492C250.448 117.928 244.609 120.575 238.412 121.512C232.214 122.448 225.639 121.574 220.254 118.401C220.211 118.401 228.587 119.906 244.356 117.694Z" fill="black"/>
</g>
<path d="M302.947 50.2881C301.905 49.5475 300.759 48.8785 299.507 49.1461C298.265 49.4821 297.148 50.1709 296.291 51.1291C291.809 55.6924 291.178 62.941 287.021 67.8006C285.26 69.8056 282.984 71.2917 280.44 72.0984C277.897 72.9051 275.181 73.0019 272.586 72.3782L269.719 79.3975C277.364 83.1055 287.031 81.3088 293.529 75.8424C300.028 70.3761 304.242 64.5609 305.049 55.506C305.164 54.4452 305.078 51.7837 302.947 50.2881Z" fill="#E0E0E0"/>
<path d="M227.337 57.1188C227.337 57.1188 206.79 55.0259 199.078 72.5575L194.663 85.7742C194.663 85.7742 191.213 93.4195 196.574 102.804C201.223 110.927 208.224 117.091 226.429 118.888C244.133 120.632 263.002 115.209 269.266 102.804C274.752 91.943 273.132 79.2327 270.528 74.5643C266.992 68.1853 253.78 56.2491 227.337 57.1188Z" fill="#E0E0E0"/>
<path d="M222.58 57.7901C222.58 57.7901 212.215 51.5783 210.156 50.2691C204.575 46.7283 197.47 43.2928 194.913 48.2383C192.911 52.123 200.862 74.9681 200.862 74.9681L214.815 63.9302L222.58 57.7901Z" fill="#E0E0E0"/>
<g opacity="0.3">
<path d="M219.36 59.4748C219.36 59.4748 199.057 46.1673 197.351 47.7871C195.645 49.407 202.607 68.4198 202.607 68.4198C202.607 68.4198 216.722 66.2505 219.36 59.4748Z" fill="black"/>
</g>
<path d="M200.531 68.1115C201.797 64.7667 204.832 61.4219 207.522 59.1235C206.997 60.461 206.9 61.9287 207.245 63.3236C211.923 59.8163 216.873 56.1992 222.65 55.4824L221.087 59.4197L210.394 70.8877L200.531 68.1115Z" fill="#E0E0E0"/>
<path d="M220.859 55.8022C220.751 55.7821 220.641 55.7821 220.534 55.8022C220.328 55.8404 220.013 55.8691 219.621 55.9694C218.505 56.2264 217.413 56.5797 216.357 57.0254C212.835 58.4961 209.645 60.6606 206.978 63.3901L207.336 63.4809L207.279 63.2707C207.168 62.5775 207.184 61.8699 207.326 61.1825C207.441 60.4897 207.608 59.8159 207.728 59.147L207.819 58.6261L207.403 58.9272C205.028 60.6675 203.08 62.9258 201.707 65.5308C201.311 66.2939 200.991 67.0941 200.751 67.9199C200.647 68.2148 200.58 68.5213 200.551 68.8326C200.955 67.7462 201.434 66.6893 201.984 65.6694C203.403 63.1563 205.348 60.9788 207.685 59.2856L207.36 59.0657C207.245 59.7156 207.073 60.3941 206.954 61.1061C206.796 61.8498 206.78 62.6165 206.906 63.3662C206.93 63.4522 206.949 63.5382 206.968 63.6147L207.064 63.9778L207.331 63.7055C209.967 61.0188 213.084 58.8516 216.52 57.3169C217.552 56.8477 218.617 56.4548 219.707 56.1414C220.098 56.053 220.482 55.9397 220.859 55.8022Z" fill="#263238"/>
<g opacity="0.4">
<path d="M218.732 84.9234C220.098 83.5776 221.864 82.7123 223.764 82.4578L227.338 57.1328C231.639 56.8986 236.417 57.3239 240.24 57.7874C240.24 57.7874 234.386 66.5508 232.284 82.6775C233.226 83.0483 234.115 83.5433 234.926 84.1493C239.016 87.2217 240.909 93.0847 239.446 98.0828C237.984 103.081 233.282 106.875 228.227 107.162C223.172 107.448 218.111 104.223 216.076 99.4398C215.09 97.0184 214.816 94.3658 215.287 91.7941C215.757 89.2224 216.953 86.8386 218.732 84.9234Z" fill="white"/>
</g>
<path d="M231.218 85.0792C228.465 83.9276 226.54 83.8081 223.601 84.7304C222.803 84.9024 222.024 86.0635 222.559 86.7038L225.746 90.5264C225.892 90.7032 226.099 90.8196 226.326 90.8531C226.552 90.8867 226.784 90.835 226.974 90.708L232.331 87.1195C233.11 86.6035 232.317 85.428 231.218 85.0792Z" fill="#263238"/>
<path d="M226.634 88.8848C226.543 89.1087 226.488 89.3459 226.472 89.5872C226.39 90.2408 226.39 90.9022 226.472 91.5558C226.58 92.532 226.872 93.4789 227.332 94.3464C227.899 95.4032 228.739 96.2891 229.764 96.9123C230.775 97.5365 231.952 97.8366 233.138 97.7724C234.104 97.6929 235.032 97.3635 235.833 96.8167C236.373 96.4472 236.838 95.9786 237.204 95.4358C237.348 95.2421 237.455 95.0234 237.519 94.7907C237.043 95.5118 236.427 96.1307 235.708 96.6113C234.93 97.1003 234.041 97.3862 233.123 97.4427C231.999 97.4865 230.888 97.1936 229.931 96.6017C228.955 96.0102 228.151 95.1733 227.6 94.1743C227.136 93.3527 226.824 92.4545 226.677 91.5224C226.579 90.6466 226.564 89.7633 226.634 88.8848Z" fill="#263238"/>
<path d="M216.406 92.7743C216.474 92.9873 216.574 93.1887 216.703 93.3716C217 93.8986 217.341 94.4004 217.72 94.872C218.277 95.5912 219.021 96.1434 219.871 96.4679C220.401 96.6342 220.959 96.6937 221.513 96.6428C222.066 96.592 222.605 96.4318 223.096 96.1717C224.097 95.6665 224.927 94.879 225.485 93.9068C225.934 93.1145 226.257 92.2568 226.441 91.3647C226.57 90.7684 226.653 90.1629 226.689 89.5537C226.722 89.332 226.722 89.1065 226.689 88.8848C226.627 88.8848 226.584 89.8404 226.211 91.3074C226 92.1621 225.665 92.9815 225.217 93.7395C224.678 94.6509 223.889 95.3887 222.943 95.8659C222.033 96.3391 220.975 96.4434 219.99 96.1573C219.182 95.8633 218.468 95.3585 217.921 94.6952C216.927 93.5723 216.459 92.7361 216.406 92.7743Z" fill="#263238"/>
<path d="M222.133 99.5599C222.308 99.9882 222.593 100.362 222.959 100.645C223.769 101.396 224.791 101.88 225.885 102.029C226.98 102.179 228.094 101.987 229.076 101.481C229.499 101.305 229.869 101.02 230.146 100.654C230.108 100.602 229.697 100.907 228.961 101.213C228.008 101.618 226.964 101.758 225.939 101.618C224.913 101.477 223.945 101.062 223.136 100.415C222.501 99.9231 222.185 99.5026 222.133 99.5599Z" fill="#263238"/>
<path d="M236.5 90.7724C236.5 90.8871 250.295 93.0182 267.344 95.5507C284.393 98.0832 298.231 100.018 298.25 99.9085C298.269 99.7986 284.455 97.6627 267.401 95.1302C250.348 92.5977 236.514 90.6577 236.5 90.7724Z" fill="#263238"/>
<path d="M236.184 92.8164C236.343 92.8948 236.512 92.9541 236.685 92.9932L238.119 93.4233C239.38 93.7912 241.21 94.2929 243.48 94.8902C248.019 96.0848 254.317 97.6186 261.313 99.1047C268.308 100.591 274.692 101.733 279.317 102.483C281.635 102.856 283.508 103.142 284.808 103.319L286.303 103.51C286.476 103.544 286.653 103.558 286.829 103.553C286.662 103.494 286.489 103.452 286.313 103.429L284.827 103.157L279.365 102.201C274.754 101.379 268.375 100.185 261.394 98.7033C254.413 97.222 248.101 95.7312 243.547 94.6083L238.171 93.2942L236.704 92.9406C236.534 92.8855 236.36 92.844 236.184 92.8164Z" fill="#263238"/>
<path d="M174.227 91.1087C174.227 91.2233 184.428 91.0657 197.005 90.7551C209.581 90.4445 219.778 90.1052 219.773 89.9905C219.769 89.8759 209.576 90.0335 196.995 90.3441C184.414 90.6547 174.227 90.994 174.227 91.1087Z" fill="#263238"/>
<path d="M182.57 98.0273C182.594 98.142 190.526 96.718 200.288 94.8449C210.05 92.9719 217.968 91.3711 217.935 91.2564C217.901 91.1418 209.983 92.5705 200.217 94.4388C190.45 96.3071 182.551 97.9174 182.57 98.0273Z" fill="#263238"/>
<path d="M272.238 83.3192C272.238 83.3192 278.406 52.0213 274.24 47.6157C270.073 43.2101 245.465 60.3738 245.465 60.3738L268.487 76.835L272.238 83.3192Z" fill="#E0E0E0"/>
<g opacity="0.3">
<path d="M267.869 74.534C267.869 74.534 273.89 51.3114 271.276 50.2506C268.662 49.1899 250.137 61.8476 250.137 61.8476C250.137 61.8476 258.957 74.2807 267.869 74.534Z" fill="black"/>
</g>
<path d="M249.137 59.3652C252.649 59.3939 256.782 61.138 259.826 62.8773C258.415 62.8465 257.031 63.274 255.884 64.0957C260.743 67.3307 265.803 70.7854 268.494 76.0415L264.341 75.9412L250.092 69.7819L249.137 59.3652Z" fill="#E0E0E0"/>
<path d="M267.195 74.8453C267.195 74.8453 267.195 74.7306 267.09 74.5395C266.985 74.3484 266.889 74.0617 266.693 73.7081C266.152 72.7205 265.511 71.7903 264.782 70.9319C262.366 68.1524 259.423 65.8788 256.124 64.2423L256.033 64.1945L256.061 64.572C257.124 63.8032 258.357 63.3032 259.655 63.1146L260.156 63.0477L259.755 62.7371C257.572 61.0498 254.983 59.9671 252.248 59.5978C251.457 59.4885 250.658 59.4485 249.859 59.4783C249.571 59.4728 249.284 59.5049 249.004 59.5739C249.004 59.6455 250.213 59.5356 252.191 59.8653C254.852 60.3131 257.36 61.4167 259.487 63.0764L259.593 62.6941C258.224 62.8801 256.922 63.4022 255.803 64.2136L255.512 64.4238L255.827 64.5911L255.913 64.6341C259.158 66.2616 262.074 68.4744 264.514 71.1612C266.421 73.2255 267.114 74.8931 267.195 74.8453Z" fill="#263238"/>
<path d="M260.948 111.973C260.948 111.973 260.914 112.001 260.842 112.04L260.522 112.216L259.275 112.885L258.372 113.363C258.038 113.526 257.665 113.688 257.273 113.87C256.475 114.223 255.586 114.663 254.559 115.045L252.958 115.657C252.399 115.872 251.807 116.053 251.195 116.264C249.981 116.703 248.653 117.052 247.258 117.449C241.169 119.04 234.875 119.699 228.589 119.403C227.155 119.307 225.77 119.236 224.489 119.059C223.854 118.982 223.232 118.93 222.64 118.834L220.944 118.548C219.859 118.39 218.898 118.146 218.048 117.965C217.623 117.864 217.226 117.788 216.868 117.692L215.883 117.42L214.531 117.033L214.178 116.928C214.101 116.899 214.058 116.885 214.063 116.88H214.187L214.545 116.966L215.907 117.305L216.896 117.558C217.255 117.64 217.656 117.716 218.077 117.802C218.932 117.969 219.892 118.204 220.977 118.352L222.669 118.619C223.256 118.71 223.877 118.758 224.513 118.83C225.789 118.997 227.16 119.059 228.598 119.15C234.872 119.423 241.152 118.766 247.234 117.2C248.624 116.813 249.957 116.469 251.166 116.044C251.778 115.838 252.37 115.662 252.93 115.451L254.53 114.84C255.558 114.472 256.442 114.046 257.249 113.707C257.646 113.53 258.023 113.377 258.358 113.229L259.27 112.78L260.537 112.164L260.871 112.006C260.895 111.992 260.921 111.981 260.948 111.973Z" fill="#263238"/>
<path d="M216.028 74.8242C214.88 74.3218 213.609 74.1686 212.374 74.3838C211.139 74.599 209.995 75.1729 209.084 76.0341C208.173 76.8953 207.536 78.0056 207.252 79.2266C206.968 80.4475 207.05 81.725 207.487 82.8998C207.924 84.0746 208.698 85.0946 209.711 85.8327C210.724 86.5708 211.932 86.9943 213.184 87.0503C214.437 87.1063 215.678 86.7924 216.753 86.1478C217.828 85.5031 218.689 84.5562 219.23 83.4252C219.585 82.6503 219.784 81.813 219.815 80.9612C219.847 80.1094 219.71 79.2597 219.412 78.4609C219.115 77.662 218.663 76.9296 218.082 76.3056C217.502 75.6816 216.804 75.1782 216.028 74.8242Z" fill="white"/>
<path d="M216.676 73.4593C213.393 71.9016 209.575 73.0627 208.151 76.0587C206.727 79.0547 208.228 82.7483 211.496 84.3108C214.764 85.8733 218.597 84.7122 220.021 81.7162C221.445 78.7202 219.958 75.0218 216.676 73.4593Z" fill="#020611"/>
<path d="M243.116 76.8173C241.948 77.272 240.939 78.0608 240.215 79.0853C239.492 80.1098 239.087 81.3247 239.05 82.5782C239.013 83.8318 239.346 85.0685 240.007 86.1339C240.668 87.1994 241.629 88.0464 242.769 88.5693C243.909 89.0922 245.178 89.2678 246.417 89.0741C247.656 88.8804 248.81 88.3261 249.736 87.4803C250.662 86.6345 251.318 85.5347 251.623 84.3182C251.928 83.1017 251.868 81.8224 251.45 80.64C250.85 79.029 249.636 77.7217 248.074 77.005C246.511 76.2883 244.728 76.2208 243.116 76.8173Z" fill="white"/>
<path d="M242.612 75.394C239.185 76.6077 237.308 80.1293 238.416 83.2591C239.525 86.3889 243.194 87.9323 246.63 86.7186C250.066 85.5049 251.934 81.9785 250.821 78.8535C249.707 75.7285 246.038 74.1803 242.612 75.394Z" fill="#020611"/>
<path d="M272.711 81.3461C272.762 80.8622 272.85 80.383 272.974 79.9126C273.16 79.0286 273.409 77.8101 273.638 76.4579C273.867 75.1056 274.035 73.868 274.154 72.9745C274.191 72.4918 274.265 72.0127 274.374 71.541C274.409 72.0302 274.395 72.5217 274.331 73.008C274.264 73.9063 274.121 75.1534 273.891 76.5152C273.662 77.877 273.385 79.0955 273.151 79.9699C273.051 80.4423 272.904 80.9034 272.711 81.3461Z" fill="#263238"/>
<path d="M220.26 52.5156C217.83 53.7671 215.86 55.7579 214.635 58.2012C213.409 60.6445 212.992 63.4138 213.442 66.1099C213.814 68.069 214.875 70.1284 216.787 70.7209C219.094 71.4425 221.508 69.6315 222.611 67.4813C223.715 65.331 223.959 62.8511 224.8 60.5862C225.641 58.3213 227.428 56.085 229.841 55.9608L220.26 52.5156Z" fill="#E0E0E0"/>
<path d="M220.259 52.5143C220.259 52.5143 220.316 52.5143 220.426 52.5573L220.928 52.7246L222.839 53.3888L229.853 55.8639L230.331 56.0359L229.82 56.0598C228.617 56.1622 227.5 56.7275 226.705 57.6367C225.793 58.6304 225.115 59.8158 224.722 61.1057C224.272 62.4484 223.99 63.9058 223.546 65.3775C223.325 66.128 223.037 66.8572 222.686 67.5564C222.311 68.271 221.819 68.9172 221.229 69.4677C220.551 70.1319 219.716 70.6121 218.801 70.863C217.897 71.1037 216.936 70.9981 216.106 70.5667C215.326 70.1337 214.683 69.4895 214.252 68.708C213.835 67.9756 213.535 67.1824 213.364 66.3571C213.052 64.8369 213.041 63.2705 213.33 61.746C213.576 60.4229 214.019 59.144 214.644 57.952C215.16 56.9678 215.803 56.0553 216.555 55.238C217.116 54.6181 217.739 54.0577 218.414 53.5656C218.843 53.2562 219.293 52.9784 219.762 52.7341L220.13 52.5526C220.167 52.5274 220.21 52.5096 220.254 52.5L220.134 52.5764L219.781 52.7867C219.327 53.0435 218.889 53.3292 218.472 53.642C216.944 54.8199 215.695 56.319 214.811 58.0333C214.205 59.2135 213.778 60.4778 213.545 61.7842C213.269 63.2803 213.288 64.816 213.602 66.3045C213.769 67.1051 214.061 67.8744 214.467 68.5838C214.878 69.3221 215.487 69.9311 216.226 70.3422C217.001 70.7466 217.9 70.8439 218.744 70.6145C219.617 70.373 220.414 69.9143 221.061 69.2814C221.627 68.744 222.102 68.1178 222.466 67.4274C222.809 66.7416 223.09 66.0268 223.307 65.2915C223.752 63.858 224.038 62.3767 224.497 60.991C224.907 59.6696 225.607 58.4566 226.547 57.4408C227.387 56.5001 228.558 55.9199 229.815 55.8209L229.787 56.012L222.853 53.4987L220.942 52.7819L220.464 52.5908L220.259 52.5143Z" fill="#263238"/>
<path d="M252.329 54.7617H241.912C239.15 59.4158 237.301 65.3791 239.729 70.2577C240.617 72.04 242.189 73.7411 244.182 73.7937C246.6 73.8654 248.435 71.4667 248.912 69.1014C249.39 66.7361 248.96 64.2753 249.156 61.867C249.352 59.4588 250.68 56.8594 252.329 54.7617Z" fill="#E0E0E0"/>
<path d="M252.328 54.7605L252.256 54.8704L252.012 55.2192C251.802 55.5203 251.496 55.9646 251.138 56.5571C250.703 57.2804 250.324 58.036 250.005 58.8173C249.578 59.8447 249.317 60.9333 249.231 62.0426C249.145 63.2802 249.231 64.642 249.231 66.109C249.246 66.8703 249.209 67.6318 249.121 68.3882C249.033 69.1988 248.814 69.9897 248.471 70.7296C248.115 71.5132 247.607 72.2181 246.976 72.8034C246.641 73.1012 246.268 73.3535 245.867 73.5536C245.23 73.8549 244.522 73.9743 243.821 73.8984C243.121 73.8225 242.454 73.5543 241.897 73.1235C241.122 72.5587 240.472 71.8416 239.985 71.0163C239.171 69.6245 238.669 68.0724 238.513 66.4673C238.392 64.9612 238.498 63.4454 238.829 61.971C239.427 59.4066 240.432 56.9545 241.806 54.7079L241.834 54.6602H241.892L249.537 54.7223L251.606 54.7462H252.136C252.194 54.7413 252.251 54.7413 252.308 54.7462H252.113H251.553L249.451 54.7701L241.892 54.8322L241.978 54.7796C240.633 57.0167 239.65 59.4516 239.063 61.9948C238.744 63.4451 238.644 64.9349 238.767 66.4148C238.92 67.9804 239.409 69.4945 240.2 70.8538C240.668 71.6505 241.294 72.3432 242.04 72.8894C242.754 73.4198 243.632 73.6805 244.52 73.6252C244.948 73.5901 245.367 73.4802 245.757 73.3003C246.138 73.1123 246.491 72.8745 246.809 72.5931C247.414 72.0304 247.901 71.3531 248.242 70.6006C248.578 69.884 248.794 69.1173 248.882 68.3309C248.975 67.5844 249.017 66.8324 249.007 66.0803C249.007 64.6229 248.921 63.2515 249.007 62.0044C249.102 60.8766 249.378 59.7715 249.824 58.7313C250.17 57.9556 250.58 57.2093 251.047 56.4998C251.42 55.9073 251.74 55.4725 251.964 55.181C252.074 55.0376 252.16 54.9373 252.222 54.8656C252.285 54.794 252.323 54.7605 252.328 54.7605Z" fill="#263238"/>
<g opacity="0.3">
<path d="M229.144 56.9398L217.309 55.2148C218.78 58.0818 221.643 60.0648 224.715 61.0492C227.787 62.0335 231.075 62.1147 234.3 61.9809C236.918 61.9242 239.52 61.5569 242.051 60.8867C244.589 60.2126 246.921 58.9188 248.836 57.1214L229.144 56.9398Z" fill="black"/>
</g>
<path d="M232.093 23.3527C232.093 23.3527 219.879 22.1103 215.292 32.5318L212.678 40.3921C212.678 40.3921 210.629 44.941 213.825 50.5173C216.587 55.3386 220.749 59.0084 231.572 60.0739C242.084 61.1108 253.313 57.8855 257.04 50.5173C260.299 44.0571 259.339 36.5026 257.786 33.7264C255.669 29.9324 247.813 22.8414 232.093 23.3527Z" fill="#E0E0E0"/>
<path d="M229.264 23.7533C229.264 23.7533 223.105 20.0597 221.901 19.2808C218.585 17.1784 214.356 15.1381 212.822 18.0767C211.628 20.3846 216.358 33.9693 216.358 33.9693L224.653 27.404L229.264 23.7533Z" fill="#E0E0E0"/>
<g opacity="0.3">
<path d="M227.345 24.7588C227.345 24.7588 215.28 16.8412 214.253 17.7968C213.226 18.7525 217.388 30.0627 217.388 30.0627C217.388 30.0627 225.778 28.7869 227.345 24.7588Z" fill="black"/>
</g>
<path d="M216.164 31.036C216.919 29.0435 218.735 27.0605 220.321 25.6939C220.008 26.4879 219.95 27.3595 220.154 28.1881C222.935 26.1048 225.888 23.9546 229.314 23.5293L228.387 25.8707L222.027 32.6845L216.164 31.036Z" fill="#E0E0E0"/>
<path opacity="0.3" d="M236.612 39.418C235.818 38.8438 234.864 38.5315 233.884 38.5244L230.587 38.448C229.961 38.4269 229.337 38.5308 228.752 38.7538C228.092 39.0092 227.493 39.3998 226.994 39.9006C225.942 41.0369 225.235 42.4493 224.957 43.9725C224.679 45.4957 224.84 47.0666 225.422 48.5015C225.995 49.9278 227.002 51.138 228.3 51.9614C229.599 52.7847 231.123 53.1796 232.657 53.0904C234.192 53.0012 235.66 52.4323 236.854 51.4641C238.048 50.4959 238.908 49.1771 239.312 47.694C239.726 46.2019 239.69 44.621 239.21 43.149C238.73 41.677 237.826 40.3793 236.612 39.418Z" fill="white"/>
<path d="M234.401 39.981C233.699 39.642 232.936 39.4486 232.158 39.4125C231.379 39.3763 230.602 39.4982 229.871 39.7708C229.394 39.8711 228.916 40.564 229.255 40.9463L231.166 43.2207C231.253 43.326 231.376 43.395 231.512 43.4144C231.647 43.4339 231.784 43.4023 231.897 43.3258L235.085 41.1947C235.524 40.8841 235.056 40.1865 234.401 39.981Z" fill="#263238"/>
<path d="M231.68 42.2422C231.627 42.3767 231.595 42.5185 231.584 42.6627C231.534 43.0513 231.534 43.4447 231.584 43.8334C231.643 44.4187 231.812 44.9877 232.081 45.5105C232.417 46.1358 232.911 46.6615 233.515 47.0348C234.116 47.4062 234.816 47.5846 235.522 47.5461C236.095 47.5016 236.646 47.309 237.123 46.987C237.444 46.7681 237.72 46.489 237.935 46.1652C238.024 46.0521 238.089 45.922 238.126 45.7829C237.841 46.2123 237.474 46.581 237.046 46.8676C236.582 47.1518 236.055 47.316 235.512 47.3454C234.839 47.3745 234.173 47.1996 233.601 46.8437C233.02 46.4954 232.541 46.0012 232.21 45.4102C231.941 44.9171 231.761 44.3799 231.68 43.8238C231.63 43.2978 231.63 42.7682 231.68 42.2422Z" fill="#263238"/>
<path d="M225.594 44.5549C225.636 44.6803 225.696 44.7993 225.771 44.9085C225.949 45.2204 226.152 45.5176 226.377 45.7972C226.705 46.2289 227.147 46.56 227.653 46.7529C227.968 46.8506 228.298 46.8853 228.626 46.8549C228.954 46.8246 229.273 46.7298 229.565 46.5761C230.164 46.2765 230.662 45.8081 230.998 45.2286C231.267 44.7591 231.459 44.2493 231.567 43.7187C231.644 43.3646 231.695 43.0052 231.72 42.6436C231.737 42.5103 231.737 42.3754 231.72 42.2422C231.681 42.2422 231.657 42.8108 231.438 43.6757C231.311 44.18 231.112 44.663 230.845 45.1092C230.527 45.6523 230.059 46.0921 229.498 46.3754C228.951 46.6636 228.314 46.7286 227.72 46.557C227.24 46.3809 226.814 46.0809 226.487 45.6873C225.904 45.0327 225.627 44.5549 225.594 44.5549Z" fill="#263238"/>
<path d="M229.003 48.5876C228.979 48.5876 229.122 48.8886 229.48 49.2326C229.966 49.6788 230.576 49.9671 231.229 50.0593C231.885 50.1496 232.553 50.0345 233.141 49.7296C233.391 49.6289 233.61 49.4641 233.776 49.2517C233.752 49.2183 233.508 49.3999 233.069 49.5814C232.503 49.817 231.885 49.901 231.277 49.8251C230.669 49.7329 230.095 49.4861 229.609 49.1084C229.222 48.8074 229.031 48.5637 229.003 48.5876Z" fill="#263238"/>
<path d="M237.539 43.3661C237.539 43.433 245.739 44.6992 255.878 46.1948C266.018 47.6904 274.241 48.8515 274.251 48.7847C274.26 48.7178 266.051 47.4515 255.912 45.9511C245.772 44.4507 237.549 43.2992 237.539 43.3661Z" fill="#263238"/>
<path d="M237.352 44.582C237.446 44.6278 237.546 44.6631 237.648 44.6872L238.508 44.9404C239.258 45.1602 240.348 45.4565 241.695 45.8101C244.395 46.522 248.136 47.4347 252.298 48.3187C256.46 49.2027 260.254 49.8812 263.001 50.3256C264.378 50.5501 265.491 50.7174 266.265 50.8034L267.154 50.9181C267.257 50.934 267.36 50.9436 267.464 50.9467C267.366 50.9093 267.263 50.8836 267.159 50.8703L266.279 50.7078L263.03 50.1344C260.287 49.6566 256.508 48.9398 252.346 48.0606C248.184 47.1814 244.443 46.2927 241.738 45.6237L238.532 44.8305L237.657 44.6203C237.557 44.595 237.455 44.5821 237.352 44.582Z" fill="#263238"/>
<path d="M200.516 43.5655C200.516 43.6324 206.584 43.5416 214.057 43.3552C221.531 43.1689 227.599 42.9682 227.594 42.8774C227.589 42.7866 221.531 42.9013 214.053 43.0877C206.575 43.274 200.516 43.4986 200.516 43.5655Z" fill="#263238"/>
<path d="M205.481 47.6779C205.481 47.7448 210.206 46.899 215.993 45.7665C221.779 44.6341 226.505 43.6975 226.481 43.6306C226.457 43.5637 221.755 44.4143 215.969 45.542C210.182 46.6696 205.466 47.611 205.481 47.6779Z" fill="#263238"/>
<path d="M258.788 38.9363C258.788 38.9363 262.453 20.3296 259.977 17.7063C257.502 15.083 242.871 25.2943 242.871 25.2943L256.556 35.0802L258.788 38.9363Z" fill="#E0E0E0"/>
<g opacity="0.3">
<path d="M256.193 33.71C256.193 33.71 259.772 19.9007 258.219 19.27C256.666 18.6392 245.652 26.1651 245.652 26.1651C245.652 26.1651 250.899 33.5619 256.193 33.71Z" fill="black"/>
</g>
<path d="M245.648 25.5938C247.737 25.5938 250.193 26.6498 252.008 27.6819C251.169 27.6663 250.346 27.9209 249.662 28.4082C252.529 30.3195 255.559 32.3837 257.159 35.5183L254.689 35.4609L246.212 31.7912L245.648 25.5938Z" fill="#E0E0E0"/>
<path d="M227.068 40.4465C226.882 40.4465 226.71 39.8253 226.418 38.8935C226.263 38.3837 226.031 37.9004 225.73 37.46C225.413 36.9779 224.933 36.6254 224.378 36.4661C223.801 36.3618 223.206 36.4526 222.687 36.7242C222.215 36.9754 221.785 37.2978 221.411 37.6798C220.728 38.3631 220.298 38.8696 220.14 38.7741C219.982 38.6785 220.14 38.043 220.704 37.1112C221.064 36.5435 221.546 36.0622 222.113 35.7016C222.869 35.2157 223.785 35.0443 224.665 35.2238C225.099 35.3373 225.506 35.5382 225.86 35.8143C226.214 36.0903 226.508 36.4357 226.724 36.8293C227.056 37.4162 227.255 38.0686 227.307 38.7406C227.388 39.8014 227.231 40.4274 227.068 40.4465Z" fill="#020611"/>
<path d="M245.465 40.4735C245.303 40.5643 244.892 40.0387 244.261 39.298C243.919 38.8853 243.514 38.5289 243.062 38.242C242.582 37.9195 242.001 37.782 241.427 37.855C240.863 37.9862 240.358 38.3024 239.994 38.7533C239.654 39.1649 239.381 39.6278 239.186 40.1247C238.828 41.023 238.632 41.6537 238.446 41.6251C238.259 41.5964 238.15 40.9609 238.317 39.8762C238.426 39.2123 238.68 38.5808 239.062 38.027C239.57 37.2863 240.346 36.7722 241.227 36.5935C241.671 36.5284 242.124 36.5545 242.558 36.6704C242.991 36.7862 243.397 36.9893 243.75 37.2673C244.281 37.6742 244.717 38.1929 245.025 38.7868C245.508 39.7759 245.608 40.3923 245.465 40.4735Z" fill="#020611"/>
<path d="M216.387 53.8945C219.387 57.5547 224.065 59.552 228.763 60.1445C233.46 60.7371 243.68 61.6402 252.988 55.2468" fill="#E0E0E0"/>
<path d="M252.988 55.2479C252.891 55.3396 252.783 55.4197 252.668 55.4868L251.712 56.1223C251.301 56.4138 250.757 56.6957 250.135 57.0445C249.514 57.3933 248.774 57.723 247.966 58.1053C246.036 58.9319 244.027 59.5595 241.969 59.9784C239.453 60.4854 236.89 60.7209 234.324 60.6808C232.957 60.6808 231.624 60.5709 230.339 60.4467C229.105 60.3332 227.878 60.1497 226.664 59.8972C224.603 59.4543 222.623 58.6968 220.792 57.6514C219.565 56.9466 218.44 56.0786 217.447 55.0711L216.969 54.5932L216.659 54.2205C216.569 54.1191 216.486 54.0122 216.41 53.9004C216.514 53.9853 216.61 54.0796 216.697 54.1823C216.788 54.2874 216.898 54.4069 217.022 54.5407L217.5 55.0185C218.516 55.9917 219.653 56.83 220.883 57.5128C222.705 58.5265 224.67 59.258 226.712 59.6821C227.919 59.9312 229.14 60.1083 230.368 60.2125C231.643 60.3368 232.967 60.4323 234.329 60.4419C236.883 60.4826 239.434 60.2568 241.941 59.7681C243.978 59.3501 245.971 58.7356 247.89 57.9333C248.697 57.5653 249.447 57.2643 250.064 56.9107C250.68 56.5571 251.239 56.3134 251.655 56.0363L252.639 55.439C252.751 55.3679 252.868 55.304 252.988 55.2479Z" fill="#263238"/>
<g opacity="0.3">
<path d="M235.664 33.8938C235.693 34.5963 234.484 35.2222 232.969 35.1075C231.454 34.9929 230.346 34.2092 230.48 33.5164C230.613 32.8235 231.799 32.4556 233.156 32.5607C234.513 32.6658 235.635 33.1867 235.664 33.8938Z" fill="white"/>
</g>
<path d="M243.167 18.9523C243.096 18.7039 242.776 18.6465 242.513 18.6465C241.496 18.6506 240.489 18.8485 239.545 19.2295C239.954 17.4782 240.255 15.7038 240.449 13.916C239.364 13.9468 238.302 14.2328 237.349 14.7509C236.396 15.269 235.579 16.0045 234.963 16.8977C234.82 17.1079 234.619 17.3755 234.371 17.2991C234.122 17.2226 234.089 17.041 234.022 16.8547L233.219 14.6136C231.537 14.3891 229.989 20.1517 233.071 25.2836L239.593 24.8058C240.367 22.7176 242.336 21.461 243.11 19.3537C243.174 19.2303 243.195 19.0888 243.167 18.9523Z" fill="#E0E0E0"/>
<path d="M147.96 177.735C141.505 177.099 141.701 173.205 142.117 170.262C142.532 167.318 144.104 164.7 145.461 162.043C146.818 159.386 147.373 155.482 147.373 153.509C147.373 150.088 147.339 147.378 143.942 145.5C142.723 144.827 140.449 145.061 138.313 146.934C137.267 147.847 136.684 151.311 137.052 154.861C137.634 160.48 134.495 162.444 134.237 166.993C133.979 171.542 134.266 175.933 137.41 179.23C140.554 182.527 145.624 184.1 149.9 182.518L147.96 177.735Z" fill="#E0E0E0"/>
<path d="M180.904 172.865C181.67 172.951 182.405 173.211 183.055 173.625C183.704 174.039 184.25 174.596 184.65 175.254C185.444 176.585 185.759 178.145 185.544 179.679C185.325 181.203 184.779 182.662 183.943 183.956C185.047 184.018 185.898 185.083 186.046 186.182C186.109 186.525 186.088 186.878 185.985 187.211C185.882 187.544 185.699 187.847 185.453 188.094C184.913 188.572 184.125 188.605 183.399 188.6C180.565 188.6 177.741 188.304 174.922 188.022L180.904 172.865Z" fill="#E0E0E0"/>
<g opacity="0.3">
<path d="M180.904 172.865C181.67 172.951 182.405 173.211 183.055 173.625C183.704 174.039 184.25 174.596 184.65 175.254C185.444 176.585 185.759 178.145 185.544 179.679C185.325 181.203 184.779 182.662 183.943 183.956C185.047 184.018 185.898 185.083 186.046 186.182C186.109 186.525 186.088 186.878 185.985 187.211C185.882 187.544 185.699 187.847 185.453 188.094C184.913 188.572 184.125 188.605 183.399 188.6C180.565 188.6 177.741 188.304 174.922 188.022L180.904 172.865Z" fill="black"/>
</g>
<path d="M182.716 161.582C183.489 169.191 183.271 176.869 182.066 184.422C182.696 184.784 183.244 185.272 183.676 185.856C183.887 186.154 184.021 186.5 184.065 186.863C184.109 187.226 184.063 187.594 183.929 187.934C183.557 188.732 182.611 189.115 181.731 189.143C180.852 189.172 179.959 189.076 179.075 189.076C178.09 189.076 176.427 189.143 175.5 188.89L174.941 181.493L182.716 161.582Z" fill="#E0E0E0"/>
<path d="M182.717 161.582L180.547 167.249L175.052 181.584V181.531C175.229 183.849 175.42 186.343 175.616 188.928L175.525 188.818C176.724 189.007 177.94 189.066 179.152 188.995C179.998 188.995 180.829 189.081 181.642 189.067C182.029 189.083 182.414 189.008 182.768 188.849C183.121 188.689 183.432 188.45 183.677 188.149C183.867 187.829 183.962 187.461 183.95 187.088C183.938 186.716 183.82 186.355 183.61 186.047C183.191 185.432 182.637 184.92 181.99 184.551L181.923 184.508V184.427C182.81 179.019 183.174 173.539 183.013 168.061C182.965 166.031 182.87 164.42 182.798 163.312C182.736 162.327 182.707 161.854 182.693 161.606C182.693 161.701 182.717 161.816 182.741 162.026C182.764 162.237 182.831 162.753 182.879 163.307C182.975 164.411 183.094 166.026 183.166 168.057C183.38 173.546 183.043 179.043 182.162 184.465L182.11 184.346C182.79 184.733 183.371 185.271 183.811 185.918C184.027 186.27 184.156 186.668 184.188 187.079C184.223 187.508 184.112 187.935 183.873 188.293C183.606 188.627 183.264 188.894 182.874 189.072C182.485 189.251 182.06 189.336 181.632 189.32C180.801 189.32 179.969 189.258 179.138 189.253C177.886 189.253 176.629 189.339 175.444 189.062H175.358V188.966C175.167 186.381 174.981 183.887 174.809 181.57V181.541V181.517C177.121 175.683 179.109 170.694 180.5 167.144C181.828 163.77 182.506 162.065 182.717 161.582Z" fill="#263238"/>
<path d="M180.165 148.666C180.165 148.713 183.003 152.531 183.51 161.409C183.849 167.473 174.584 187.742 174.584 187.742L161.381 189.1L151.008 185.511L152.489 163.674C155.729 157.854 158.61 152.206 158.385 148.197L180.165 148.666Z" fill="#E0E0E0"/>
<path d="M154.001 171.655C154.245 171.535 163.5 170.221 163.992 178.822C163.992 178.822 164.633 181.355 162.081 183.806C162.081 183.806 164.714 183.639 165.025 187.438C165.043 187.655 165.018 187.874 164.951 188.082C164.884 188.29 164.777 188.483 164.635 188.649C164.493 188.815 164.32 188.952 164.125 189.05C163.93 189.149 163.718 189.208 163.5 189.225C160.777 189.421 155.124 189.703 152.687 188.709C149.423 187.399 147.135 185.608 146.724 180.175C146.313 174.742 148.358 168.367 152.458 163.68C154.971 160.842 154.001 171.655 154.001 171.655Z" fill="#E0E0E0"/>
<path d="M174.146 166.965C174.146 167.582 174.504 182.552 175.436 183.919C176.368 185.285 179.187 184.038 177.495 189.098H169.267C169.267 189.098 167.91 188.974 166.185 183.919C164.46 178.863 163.223 173.182 163.223 173.182L164.346 161.408L174.146 166.965Z" fill="#E0E0E0"/>
<path d="M161.771 165.1C161.787 165.14 161.798 165.181 161.805 165.224C161.805 165.319 161.853 165.444 161.886 165.597C161.953 165.941 162.044 166.418 162.163 167.03C162.402 168.296 162.737 170.102 163.157 172.344C163.339 173.471 163.673 174.685 163.993 175.999C164.313 177.313 164.7 178.713 165.13 180.185C165.561 181.656 166.038 183.195 166.612 184.767C166.908 185.564 167.258 186.34 167.658 187.089C167.86 187.473 168.093 187.839 168.356 188.184C168.485 188.355 168.629 188.515 168.786 188.661C168.923 188.797 169.085 188.904 169.264 188.977H177.478L177.358 189.063C177.632 188.292 177.806 187.489 177.874 186.674C177.908 186.293 177.833 185.91 177.659 185.57C177.454 185.259 177.154 185.022 176.804 184.896C176.435 184.759 176.08 184.588 175.743 184.385C175.573 184.267 175.426 184.12 175.308 183.95C175.213 183.773 175.144 183.583 175.103 183.386C174.944 182.668 174.829 181.94 174.759 181.207C174.467 178.374 174.362 175.841 174.281 173.729C174.2 171.617 174.157 169.907 174.133 168.76C174.133 168.191 174.133 167.747 174.133 167.422V167.078C174.125 167.038 174.125 166.998 174.133 166.958C174.137 166.998 174.137 167.038 174.133 167.078C174.133 167.169 174.133 167.283 174.133 167.422C174.133 167.742 174.166 168.191 174.19 168.76C174.243 169.94 174.319 171.627 174.415 173.724C174.51 175.822 174.649 178.364 174.955 181.183C175.027 181.905 175.144 182.621 175.303 183.329C175.341 183.496 175.402 183.657 175.485 183.807C175.584 183.951 175.709 184.075 175.853 184.175C176.181 184.364 176.524 184.524 176.88 184.652C177.274 184.799 177.609 185.069 177.836 185.422C178.032 185.802 178.12 186.228 178.089 186.655C178.021 187.491 177.845 188.315 177.564 189.106L177.54 189.192H169.254C169.011 189.122 168.791 188.99 168.614 188.81C168.439 188.654 168.279 188.483 168.136 188.298C167.864 187.944 167.625 187.567 167.419 187.171C167.017 186.409 166.664 185.622 166.363 184.815C165.79 183.228 165.322 181.68 164.892 180.209C164.461 178.737 164.103 177.342 163.773 176.008C163.444 174.675 163.138 173.471 162.966 172.339C162.584 170.093 162.273 168.282 162.053 167.011C161.953 166.399 161.872 165.917 161.819 165.577L161.762 165.205C161.761 165.169 161.765 165.134 161.771 165.1Z" fill="#263238"/>
<path d="M146.848 176.304C146.848 176.391 146.84 176.477 146.824 176.562C146.824 176.73 146.776 176.978 146.747 177.308C146.656 178.263 146.677 179.225 146.809 180.175C146.899 181.546 147.198 182.895 147.698 184.174C148.021 184.947 148.474 185.66 149.036 186.281C149.674 186.957 150.426 187.515 151.258 187.93C152.139 188.422 153.092 188.772 154.082 188.967C155.151 189.148 156.233 189.251 157.317 189.273C158.43 189.311 159.577 189.297 160.752 189.273C161.335 189.273 161.928 189.225 162.525 189.187L163.424 189.129C163.71 189.135 163.993 189.073 164.25 188.948C164.502 188.809 164.706 188.599 164.836 188.343C164.966 188.088 165.017 187.799 164.981 187.514C164.969 186.922 164.859 186.336 164.656 185.78C164.463 185.244 164.111 184.779 163.648 184.447C163.197 184.133 162.659 183.966 162.11 183.969H161.799L162.014 183.754C162.697 183.109 163.235 182.325 163.591 181.455C163.92 180.643 164.021 179.755 163.882 178.889V178.818C163.787 177.828 163.532 176.859 163.127 175.951C162.94 175.531 162.722 175.126 162.477 174.737C162.231 174.378 161.955 174.04 161.651 173.729C160.623 172.671 159.283 171.969 157.828 171.727C157.546 171.663 157.261 171.618 156.973 171.593L156.208 171.555C155.989 171.541 155.769 171.541 155.549 171.555L154.999 171.598L154.249 171.65C154.163 171.658 154.077 171.658 153.991 171.65L154.244 171.607L154.995 171.521L155.549 171.464C155.77 171.45 155.992 171.45 156.213 171.464H156.987C157.278 171.487 157.567 171.528 157.852 171.588C159.34 171.816 160.714 172.518 161.77 173.59C162.085 173.907 162.371 174.251 162.626 174.618C162.879 175.015 163.106 175.428 163.304 175.855C163.725 176.784 163.991 177.775 164.093 178.789V178.818C164.25 179.729 164.149 180.666 163.801 181.522C163.436 182.425 162.882 183.24 162.176 183.911L162.086 183.696C162.693 183.694 163.286 183.881 163.782 184.232C164.285 184.587 164.668 185.087 164.881 185.665C165.097 186.247 165.215 186.86 165.23 187.481C165.267 187.813 165.204 188.149 165.049 188.445C164.894 188.741 164.654 188.985 164.36 189.144C164.072 189.287 163.755 189.361 163.433 189.359L162.53 189.416C161.933 189.449 161.34 189.478 160.748 189.497C159.572 189.54 158.421 189.55 157.298 189.497C156.202 189.47 155.11 189.363 154.029 189.177C153.024 188.969 152.057 188.606 151.162 188.102C150.312 187.672 149.545 187.095 148.898 186.396C148.322 185.756 147.863 185.02 147.541 184.222C147.044 182.923 146.757 181.554 146.69 180.165C146.572 179.213 146.572 178.25 146.69 177.298C146.728 176.973 146.771 176.72 146.805 176.558C146.813 176.472 146.828 176.388 146.848 176.304Z" fill="#263238"/>
<path d="M157.43 184.777C158.961 183.905 160.732 183.55 162.48 183.764C162.48 183.84 161.314 183.83 159.924 184.117C158.533 184.404 157.463 184.848 157.43 184.777Z" fill="#263238"/>
<g opacity="0.3">
<path d="M161.183 173.086C160.56 172.127 159.717 171.33 158.725 170.761C157.733 170.192 156.62 169.867 155.478 169.813C154.374 169.77 153.179 170.038 152.453 170.869C152.219 171.137 152.076 171.614 152.381 171.801C152.477 171.838 152.58 171.855 152.683 171.851C152.785 171.847 152.886 171.822 152.979 171.777C155.406 171.008 158.579 171.5 161.073 173.081" fill="black"/>
</g>
<g opacity="0.3">
<path d="M182.034 160.705C180.811 160.099 179.258 160.705 178.398 161.79C177.538 162.875 177.222 164.241 176.964 165.584C176.071 170.334 175.708 175.222 176.434 180C177.289 179.088 183.081 165.503 183.21 164.026C183.334 162.712 183.195 161.293 182.034 160.705Z" fill="white"/>
</g>
<path d="M175.203 182.297C175.3 182.047 175.418 181.805 175.557 181.576C175.8 181.122 176.144 180.457 176.565 179.664C177.401 178.02 178.51 175.727 179.637 173.147C180.765 170.566 181.711 168.206 182.366 166.481C182.676 165.649 182.93 164.957 183.126 164.431C183.2 164.174 183.298 163.925 183.417 163.686C183.369 163.95 183.302 164.21 183.216 164.464C183.068 164.942 182.839 165.669 182.538 166.543C181.921 168.287 181.009 170.671 179.872 173.233C178.734 175.794 177.602 178.102 176.723 179.726C176.283 180.539 175.915 181.188 175.643 181.638C175.515 181.87 175.368 182.09 175.203 182.297Z" fill="#263238"/>
<path d="M147.045 149.562C146.86 148.288 146.344 147.086 145.55 146.074C144.255 144.506 142.205 143.732 140.203 143.431C137.718 143.063 134.947 143.398 133.121 145.108C132.948 145.243 132.827 145.434 132.777 145.648C132.779 145.818 132.842 145.981 132.956 146.107C133.069 146.233 133.225 146.313 133.394 146.332C133.731 146.359 134.069 146.301 134.378 146.164C133.849 146.732 133.447 147.407 133.2 148.143C132.952 148.879 132.865 149.659 132.945 150.431C133.114 151.982 133.722 153.453 134.698 154.67C135.463 155.664 136.395 156.528 137.087 157.565C137.78 158.602 138.272 159.897 137.962 161.111L147.165 153.394C147.269 152.116 147.229 150.831 147.045 149.562Z" fill="#E0E0E0"/>
<path d="M177.274 111.638C177.079 111.501 176.842 111.436 176.605 111.456C176.011 111.461 175.428 111.617 174.911 111.908C174.393 112.2 173.959 112.618 173.647 113.124C173.556 112.014 173.285 110.926 172.844 109.903C172.758 109.618 172.564 109.377 172.304 109.23C171.889 109.058 171.44 109.378 171.138 109.708C169.667 111.356 169.304 113.807 169.896 115.919C170.558 118.047 171.866 119.916 173.638 121.266L175.358 121.476C175.085 118.607 175.701 115.723 177.121 113.215C177.427 112.713 177.713 112.011 177.274 111.638Z" fill="#E0E0E0"/>
<path d="M179.438 117.095C179.438 117.095 192.139 115.804 196.908 126.651L198.518 131.482C199.33 133.866 199.649 136.39 199.455 138.901C199.261 141.413 198.559 143.858 197.39 146.089C197.304 146.252 197.5 145.946 197.39 146.089C194.046 150.509 191.236 154.184 179.983 155.292C169.036 156.363 157.391 153.018 153.497 145.344C150.104 138.626 151.108 130.765 152.718 127.884C154.921 123.937 163.092 116.559 179.438 117.095Z" fill="#E0E0E0"/>
<path d="M179.438 117.223C179.438 117.223 185.028 111.25 186.127 110.013C189.109 106.668 193.08 103.151 195.536 106.29C197.447 108.756 196.176 126.211 196.176 126.211L185.42 120.434L179.438 117.223Z" fill="#E0E0E0"/>
<g opacity="0.3">
<path d="M181.762 117.939C181.762 117.939 192.527 105.435 193.889 106.338C195.251 107.241 193.951 121.815 193.951 121.815C193.951 121.815 184.59 122.374 181.762 117.939Z" fill="black"/>
</g>
<path d="M194.602 122.226C193.37 120.387 191.062 118.81 189.127 117.797C189.632 118.53 189.897 119.401 189.886 120.291C186.575 118.834 183.087 117.353 179.508 117.735L181.003 119.885L189.05 125.304L194.602 122.226Z" fill="#E0E0E0"/>
<path d="M180.633 117.657C180.697 117.635 180.765 117.625 180.833 117.628C181.024 117.608 181.215 117.598 181.407 117.599C182.115 117.595 182.821 117.652 183.519 117.771C185.846 118.165 188.07 119.021 190.06 120.289L189.86 120.395C189.86 120.352 189.86 120.304 189.86 120.256C189.827 119.823 189.717 119.399 189.535 119.004C189.368 118.603 189.176 118.225 189.009 117.833L188.88 117.537L189.172 117.661C190.848 118.371 192.339 119.457 193.529 120.834C193.879 121.236 194.188 121.671 194.452 122.134C194.556 122.297 194.639 122.471 194.7 122.655C194.311 122.056 193.88 121.486 193.41 120.949C192.201 119.634 190.723 118.596 189.076 117.905L189.243 117.728C189.406 118.101 189.602 118.488 189.774 118.899C189.976 119.325 190.094 119.785 190.123 120.256C190.123 120.309 190.123 120.361 190.123 120.414V120.643L189.927 120.519C187.961 119.273 185.78 118.406 183.495 117.962C182.808 117.826 182.111 117.74 181.412 117.704C181.151 117.705 180.891 117.689 180.633 117.657Z" fill="#263238"/>
<path opacity="0.3" d="M184.756 134.383C184.267 133.892 183.686 133.504 183.045 133.241C182.408 132.979 181.722 132.853 181.033 132.873L177.55 132.954C176.543 132.966 175.565 133.29 174.75 133.881C173.492 134.883 172.556 136.232 172.06 137.762C171.564 139.291 171.529 140.933 171.959 142.482C172.387 144.019 173.284 145.383 174.526 146.384C175.767 147.385 177.291 147.972 178.883 148.065C180.475 148.157 182.056 147.749 183.404 146.898C184.753 146.047 185.802 144.795 186.404 143.318C187.006 141.826 187.17 140.193 186.878 138.611C186.586 137.029 185.85 135.562 184.756 134.383Z" fill="white"/>
<path d="M177.038 134.382C177.768 134.031 178.562 133.83 179.371 133.793C180.181 133.756 180.99 133.884 181.749 134.167C182.227 134.272 182.705 134.994 182.389 135.39L180.421 137.756C180.33 137.864 180.202 137.935 180.062 137.955C179.922 137.975 179.779 137.943 179.661 137.866L176.35 135.648C175.867 135.338 176.359 134.602 177.038 134.382Z" fill="#263238"/>
<path d="M179.873 136.738C179.927 136.878 179.96 137.024 179.974 137.173C180.021 137.578 180.021 137.987 179.974 138.392C179.904 138.995 179.722 139.58 179.438 140.117C179.087 140.77 178.567 141.317 177.933 141.703C177.31 142.09 176.582 142.275 175.85 142.233C175.252 142.189 174.677 141.988 174.182 141.65C173.848 141.425 173.561 141.136 173.337 140.8C173.248 140.679 173.181 140.543 173.141 140.398C173.435 140.844 173.815 141.228 174.259 141.526C174.741 141.828 175.291 142.004 175.859 142.037C176.554 142.064 177.24 141.884 177.833 141.521C178.43 141.151 178.923 140.634 179.266 140.021C179.548 139.507 179.736 138.947 179.821 138.368C179.888 137.827 179.905 137.282 179.873 136.738Z" fill="#263238"/>
<path d="M186.199 139.16C186.152 139.29 186.09 139.414 186.013 139.528C185.827 139.853 185.616 140.163 185.382 140.455C185.038 140.9 184.579 141.242 184.054 141.444C183.726 141.546 183.381 141.582 183.039 141.551C182.697 141.519 182.364 141.419 182.061 141.258C181.443 140.945 180.93 140.459 180.585 139.858C180.304 139.369 180.102 138.838 179.987 138.286C179.907 137.918 179.856 137.544 179.834 137.168C179.816 137.03 179.816 136.89 179.834 136.752C179.873 136.752 179.901 137.34 180.131 138.252C180.259 138.78 180.465 139.286 180.742 139.753C181.075 140.317 181.562 140.773 182.147 141.067C182.715 141.369 183.378 141.437 183.996 141.258C184.495 141.075 184.937 140.763 185.277 140.355C185.874 139.638 186.166 139.117 186.199 139.16Z" fill="#263238"/>
<path d="M182.653 143.336C182.548 143.6 182.373 143.831 182.147 144.005C181.646 144.47 181.014 144.77 180.337 144.864C179.66 144.957 178.97 144.839 178.363 144.525C178.101 144.417 177.873 144.241 177.703 144.014C177.727 143.981 177.975 144.172 178.434 144.358C179.022 144.605 179.665 144.692 180.298 144.611C180.931 144.518 181.529 144.261 182.032 143.866C182.429 143.56 182.625 143.312 182.653 143.336Z" fill="#263238"/>
<path d="M152.657 130.737C152.657 130.737 150.067 112.102 152.151 109.794C154.234 107.486 165.988 118.925 165.988 118.925L154.583 127.173L152.657 130.737Z" fill="#E0E0E0"/>
<g opacity="0.3">
<path d="M154.892 125.865C154.892 125.865 152.268 111.969 153.554 111.501C154.839 111.033 163.674 119.51 163.674 119.51C163.674 119.51 159.226 126.257 154.892 125.865Z" fill="black"/>
</g>
<path d="M164.273 119.286C162.443 119.176 160.231 119.941 158.578 120.719C159.314 120.753 160.02 121.024 160.589 121.494C157.942 123.013 155.185 124.638 153.594 127.29L155.763 127.385L163.408 124.662L164.273 119.286Z" fill="#E0E0E0"/>
<path d="M154.328 126.737C154.341 126.682 154.364 126.63 154.395 126.584C154.448 126.488 154.514 126.34 154.629 126.163C154.943 125.666 155.308 125.204 155.719 124.782C157.075 123.413 158.689 122.326 160.468 121.586L160.516 121.562L160.492 121.758C159.964 121.32 159.338 121.016 158.667 120.874L158.409 120.821L158.629 120.673C159.826 119.87 161.213 119.396 162.652 119.297C163.065 119.26 163.481 119.26 163.894 119.297C164.045 119.306 164.194 119.331 164.339 119.373C164.339 119.412 163.708 119.311 162.666 119.416C161.26 119.557 159.913 120.05 158.748 120.85L158.71 120.649C159.414 120.793 160.07 121.11 160.621 121.571L160.764 121.691L160.592 121.767H160.549C158.795 122.501 157.192 123.553 155.819 124.868C155.269 125.447 154.77 126.072 154.328 126.737Z" fill="#263238"/>
<path d="M158.656 151.01C158.754 151.037 158.849 151.076 158.938 151.124L159.727 151.497C160.066 151.664 160.482 151.865 160.979 152.066C161.475 152.266 162.025 152.544 162.66 152.763L163.65 153.136C163.998 153.265 164.366 153.375 164.739 153.499C165.489 153.762 166.311 153.977 167.171 154.206C170.923 155.172 174.797 155.576 178.668 155.406C179.557 155.353 180.402 155.315 181.191 155.215C181.583 155.172 181.965 155.143 182.328 155.086L183.374 154.928C184.043 154.837 184.641 154.694 185.166 154.593C185.692 154.493 186.122 154.388 186.509 154.292L187.355 154.092C187.453 154.063 187.554 154.045 187.656 154.039C187.565 154.085 187.468 154.121 187.369 154.144L186.533 154.393C186.17 154.498 185.725 154.622 185.2 154.737C184.674 154.852 184.077 155.004 183.408 155.105L182.357 155.282C181.993 155.344 181.606 155.377 181.215 155.425C180.421 155.54 179.571 155.583 178.677 155.645C176.733 155.726 174.785 155.671 172.848 155.482C170.914 155.267 168.998 154.916 167.114 154.431C166.254 154.187 165.427 153.953 164.677 153.695C164.304 153.566 163.931 153.451 163.587 153.318L162.598 152.926C161.963 152.687 161.413 152.415 160.921 152.195C160.429 151.975 160.018 151.765 159.688 151.578L158.919 151.163C158.827 151.12 158.739 151.069 158.656 151.01Z" fill="#263238"/>
<g opacity="0.3">
<path d="M168.921 154.545C166.532 154.205 164.248 153.226 161.906 152.566C165.151 154.688 168.763 156.327 172.595 156.905C176.428 157.483 180.494 156.943 183.834 154.994C183.834 154.984 178.673 155.911 168.921 154.545Z" fill="black"/>
</g>
<path d="M153.065 132.332C152.48 133.632 151.544 134.743 150.362 135.539C149.18 136.335 147.799 136.785 146.375 136.838C147.143 138.405 148.498 139.606 150.145 140.183L147.245 140.885C150.112 144.321 156.758 148.808 160.844 150.442L153.065 132.332Z" fill="#E0E0E0"/>
<path d="M204.218 134.77C202.534 135.028 200.814 134.671 199.373 133.765C197.931 132.858 196.864 131.463 196.367 129.834L189.562 151.136C194.556 148.202 201.776 142.793 204.041 138.922L201.064 138.712C202.593 137.864 203.726 136.448 204.218 134.77Z" fill="#E0E0E0"/>
<path opacity="0.3" d="M168.677 139.637C168.677 140.425 167.597 141.07 166.288 141.07C164.978 141.07 163.898 140.435 163.898 139.637C163.898 138.839 164.978 138.203 166.288 138.203C167.597 138.203 168.677 138.839 168.677 139.637Z" fill="black"/>
<path opacity="0.3" d="M193.228 137.301C193.228 138.089 192.152 138.734 190.838 138.734C189.524 138.734 188.449 138.094 188.449 137.301C188.449 136.507 189.524 135.867 190.838 135.867C192.152 135.867 193.228 136.512 193.228 137.301Z" fill="black"/>
<path d="M188.098 126.939C188.989 126.706 189.929 126.745 190.798 127.053C191.666 127.36 192.422 127.921 192.968 128.662C193.514 129.404 193.825 130.292 193.861 131.213C193.896 132.133 193.655 133.043 193.168 133.825C192.681 134.606 191.97 135.224 191.128 135.597C190.286 135.97 189.351 136.082 188.445 135.919C187.539 135.755 186.702 135.323 186.044 134.679C185.386 134.035 184.936 133.208 184.753 132.305C184.62 131.733 184.601 131.14 184.697 130.561C184.793 129.982 185.002 129.427 185.313 128.928C185.624 128.43 186.03 127.998 186.507 127.656C186.985 127.315 187.526 127.071 188.098 126.939Z" fill="white"/>
<path d="M188.052 126.737C190.398 126.259 192.658 127.611 193.093 129.752C193.528 131.892 191.98 134.019 189.629 134.497C187.278 134.974 185.028 133.627 184.593 131.482C184.158 129.336 185.706 127.214 188.052 126.737Z" fill="#020611"/>
<path d="M171.194 129.48C171.933 129.989 172.502 130.708 172.829 131.544C173.156 132.379 173.226 133.294 173.03 134.169C172.834 135.045 172.38 135.842 171.728 136.458C171.075 137.074 170.253 137.481 169.368 137.626C168.482 137.772 167.574 137.649 166.758 137.274C165.943 136.9 165.258 136.29 164.792 135.523C164.326 134.756 164.099 133.868 164.142 132.972C164.184 132.075 164.494 131.212 165.03 130.493C165.714 129.542 166.747 128.901 167.903 128.711C169.058 128.521 170.242 128.797 171.194 129.48Z" fill="white"/>
<path d="M171.439 129.155C173.35 130.589 173.856 133.169 172.552 134.923C171.247 136.676 168.629 136.934 166.708 135.506C164.787 134.077 164.29 131.492 165.595 129.738C166.899 127.984 169.518 127.722 171.439 129.155Z" fill="#020611"/>
<path d="M60.0549 152.064C56.3708 154.291 51.344 153.574 47.9753 150.894C44.6066 148.213 42.8004 143.894 42.5233 139.598C42.2462 135.302 43.3691 131.021 45.0128 127.04C46.4463 123.624 48.2238 120.351 49.4232 116.867C50.6225 113.384 51.1864 109.504 50.0539 105.982C48.9215 102.461 46.1166 99.57 42.8387 97.7972C35.0262 93.5876 24.7433 95.5849 18.1158 101.491C11.4883 107.397 8.40625 116.122 8.40625 125.416C8.40625 134.289 11.5408 142.919 15.7266 150.741L17.3942 144.476C17.2446 147.41 17.7468 150.341 18.8646 153.057C19.9825 155.774 21.6882 158.209 23.8593 160.188C24.2288 158.48 24.5999 156.776 24.9726 155.075C29.261 161.928 36.0526 166.839 43.9044 168.765C51.7561 170.69 60.0492 169.478 67.0217 165.386L60.0549 152.064Z" fill="#E0E0E0"/>
<g opacity="0.3">
<path d="M50.1954 105.986C49.0534 102.441 46.2533 99.5738 42.9754 97.801C35.1629 93.5913 24.8178 95.4119 18.1856 101.308C13.9339 105.203 10.9394 110.277 9.58462 115.882C8.91822 118.766 8.52782 121.707 8.41871 124.665C8.29448 127.211 10.6788 128.592 13.197 127.876C15.2947 127.269 16.8476 125.544 18.2859 123.891C18.736 127.274 19.6945 130.57 21.129 133.667C21.3488 134.145 21.645 134.67 22.1563 134.799C22.8205 134.967 23.4226 134.388 23.8431 133.844C25.2702 132.013 26.4749 130.019 27.4316 127.904C29.5101 132.96 37.2892 136.481 42.3876 138.455C42.3876 138.455 42.6791 131.498 44.9488 127.527C46.3823 124.11 48.3749 120.359 49.5742 116.871C50.7736 113.383 51.3231 109.508 50.1954 105.986Z" fill="white"/>
</g>
<path d="M116.558 151.145C118.022 151.311 119.43 151.809 120.672 152.603C121.914 153.396 122.959 154.463 123.725 155.722C125.245 158.277 125.85 161.273 125.441 164.218C125.022 167.146 123.972 169.949 122.363 172.432C124.485 172.551 126.119 174.596 126.406 176.704C126.583 178.027 126.282 179.509 125.273 180.388C124.265 181.267 122.712 181.372 121.327 181.367C115.884 181.339 110.461 180.794 105.047 180.254L116.558 151.145Z" fill="#E0E0E0"/>
<g opacity="0.3">
<path d="M116.558 151.146C118.022 151.313 119.43 151.811 120.672 152.605C121.914 153.398 122.959 154.465 123.725 155.724C125.245 158.279 125.85 161.275 125.441 164.22C125.022 167.148 123.972 169.951 122.363 172.434C124.485 172.553 126.119 174.598 126.406 176.706C126.583 178.029 126.282 179.51 125.273 180.39C124.265 181.269 122.712 181.374 121.327 181.369C115.884 181.341 110.461 180.796 105.047 180.256L116.558 151.146Z" fill="black"/>
</g>
<path d="M119.995 129.479C121.357 144.086 121.184 158.87 118.748 173.334C119.964 174.034 121.018 174.985 121.839 176.124C122.604 177.3 122.914 178.848 122.317 180.119C121.605 181.653 119.789 182.389 118.098 182.441C116.406 182.494 114.696 182.312 113.004 182.312C111.093 182.312 107.92 182.446 106.133 181.959L105.062 167.748L119.995 129.479Z" fill="#E0E0E0"/>
<path d="M119.994 129.479L105.182 167.796V167.743C105.521 172.187 105.884 176.98 106.262 181.949L106.166 181.834C107.287 182.077 108.431 182.196 109.578 182.188C110.753 182.217 111.967 182.188 113.161 182.188C114.781 182.188 116.377 182.35 117.94 182.317C118.712 182.312 119.475 182.159 120.19 181.868C120.894 181.592 121.502 181.119 121.944 180.506C122.358 179.891 122.548 179.152 122.484 178.413C122.429 177.681 122.201 176.972 121.82 176.344C121.004 175.148 119.927 174.153 118.671 173.434L118.604 173.391V173.31C120.301 162.922 120.989 152.394 120.659 141.873C120.549 137.974 120.358 134.878 120.181 132.752C120.037 130.716 119.966 129.751 119.947 129.479C119.947 129.598 119.98 129.823 120.028 130.3C120.076 130.778 120.181 131.686 120.262 132.747C120.439 134.868 120.659 137.97 120.788 141.869C121.168 152.403 120.509 162.948 118.819 173.353L118.766 173.229C120.055 173.967 121.159 174.988 121.996 176.215C122.4 176.877 122.641 177.626 122.699 178.399C122.765 179.194 122.557 179.988 122.111 180.649C121.641 181.297 120.994 181.795 120.248 182.083C119.505 182.39 118.71 182.552 117.906 182.561C116.32 182.599 114.724 182.441 113.128 182.432C111.924 182.432 110.739 182.465 109.539 182.432C108.371 182.438 107.206 182.315 106.066 182.064H105.98V181.973C105.607 177.003 105.249 172.211 104.914 167.762V167.734L119.994 129.479Z" fill="#263238"/>
<path d="M115.134 104.677C115.134 104.677 123.434 110.435 121.537 129.152C119.64 147.868 104.398 179.706 104.398 179.706L79.0344 182.31L59.1328 175.439L61.9998 133.509C68.2116 122.343 73.7592 111.529 73.3244 103.803L115.134 104.677Z" fill="#E0E0E0"/>
<path d="M64.8979 148.834C65.3757 148.6 83.1414 146.096 84.0827 162.586C84.0827 162.586 85.3155 167.45 80.456 172.142C80.456 172.142 85.5019 171.817 86.0992 179.114C86.1351 179.532 86.0875 179.953 85.9592 180.352C85.8309 180.751 85.6244 181.121 85.3519 181.44C85.0793 181.759 84.746 182.02 84.3714 182.209C83.9969 182.398 83.5885 182.51 83.1701 182.54C77.9426 182.917 67.0911 183.419 62.4179 181.551C56.144 179.042 51.7528 175.597 50.95 165.166C50.1473 154.735 54.0894 142.498 61.9688 133.495C66.7662 128.058 64.8979 148.834 64.8979 148.834Z" fill="#E0E0E0"/>
<path d="M103.573 139.818C103.573 141.003 104.261 169.744 106.057 172.363C107.854 174.981 113.249 172.601 110.009 182.311H94.212C94.212 182.311 91.603 182.077 88.2869 172.363C84.9707 162.648 82.6055 151.754 82.6055 151.754L84.7605 129.152L103.573 139.818Z" fill="#E0E0E0"/>
<path d="M79.8226 136.242C79.8226 136.242 79.8465 136.319 79.88 136.481C79.9134 136.644 79.9612 136.887 80.0186 137.193C80.138 137.833 80.3148 138.756 80.5346 139.945C80.979 142.335 81.6145 145.827 82.4077 150.147C82.5033 150.687 82.6084 151.241 82.7087 151.81C82.8091 152.379 82.9715 152.942 83.1053 153.53C83.3825 154.702 83.6803 155.919 83.9989 157.181C84.6344 159.699 85.3511 162.394 86.173 165.218C86.9949 168.042 87.9123 171.004 89.0161 174.024C89.5877 175.56 90.258 177.057 91.023 178.506C91.4155 179.244 91.8677 179.949 92.3752 180.613C92.5 180.78 92.634 180.94 92.7766 181.091C92.9133 181.25 93.0602 181.4 93.2162 181.54C93.5002 181.825 93.8449 182.043 94.2244 182.176H109.993L109.869 182.262C110.408 180.78 110.746 179.232 110.872 177.66C110.937 176.908 110.788 176.153 110.442 175.482C110.039 174.862 109.445 174.391 108.75 174.139C108.044 173.888 107.364 173.568 106.72 173.183C106.401 172.973 106.13 172.7 105.922 172.38C105.825 172.217 105.748 172.042 105.692 171.86C105.627 171.687 105.574 171.51 105.535 171.329C105.228 169.955 105.008 168.564 104.875 167.163C104.307 161.725 104.096 156.865 103.92 152.828C103.743 148.79 103.652 145.526 103.604 143.271C103.604 142.162 103.566 141.298 103.556 140.705V140.041C103.552 139.965 103.552 139.888 103.556 139.812V140.041L103.58 140.705C103.58 141.298 103.628 142.139 103.666 143.271C103.748 145.503 103.862 148.752 104.058 152.804C104.254 156.856 104.498 161.715 105.081 167.139C105.213 168.529 105.435 169.91 105.745 171.272C105.784 171.444 105.834 171.613 105.893 171.778C105.945 171.945 106.016 172.105 106.103 172.256C106.296 172.551 106.546 172.803 106.839 172.997C107.473 173.368 108.14 173.68 108.832 173.929C109.573 174.198 110.207 174.701 110.638 175.362C111.011 176.071 111.177 176.871 111.116 177.67C110.993 179.266 110.654 180.838 110.108 182.343L110.079 182.434H94.2005C93.7625 182.3 93.3649 182.059 93.0442 181.732C92.8749 181.583 92.7153 181.423 92.5664 181.254C92.4208 181.102 92.2837 180.943 92.1554 180.776C91.6403 180.1 91.1816 179.382 90.7841 178.63C90.0137 177.171 89.3401 175.663 88.7676 174.115C87.6638 171.076 86.7607 168.113 85.9341 165.285C85.1074 162.456 84.4098 159.756 83.7839 157.233C83.4685 155.972 83.177 154.749 82.9046 153.578C82.7709 152.99 82.6418 152.412 82.5176 151.853C82.3934 151.294 82.3169 150.73 82.2166 150.185C81.4616 145.861 80.85 142.378 80.4247 139.969C80.224 138.775 80.0616 137.848 79.9469 137.207C79.8991 136.897 79.8609 136.663 79.8322 136.491C79.8035 136.319 79.8226 136.242 79.8226 136.242Z" fill="#263238"/>
<path d="M64.9012 148.833C64.9427 148.818 64.9862 148.81 65.0303 148.809L65.3982 148.752C65.7279 148.713 66.2105 148.623 66.8317 148.575C68.669 148.4 70.5213 148.468 72.3411 148.776C73.6342 149.01 74.8907 149.415 76.0777 149.98C77.4744 150.643 78.7402 151.553 79.8143 152.665C80.4031 153.28 80.9386 153.943 81.4151 154.648C81.9062 155.4 82.3376 156.189 82.7052 157.009C83.4986 158.772 84.0036 160.652 84.2008 162.575C84.3634 163.418 84.3924 164.28 84.2868 165.132C84.1873 166.013 83.972 166.877 83.6465 167.702C82.9516 169.425 81.8958 170.98 80.5502 172.261L80.4546 172.046C81.2998 172.04 82.1348 172.231 82.8936 172.603C83.6523 172.976 84.3142 173.519 84.8268 174.191C85.8732 175.558 86.2603 177.326 86.3558 179.041C86.4094 179.46 86.3932 179.885 86.308 180.298C86.1649 180.92 85.8318 181.482 85.3548 181.905C84.8779 182.329 84.2808 182.594 83.6465 182.663C82.041 182.792 80.4689 182.878 78.916 182.945C75.8149 183.074 72.8189 183.098 69.9662 182.945C67.1136 182.792 64.3804 182.51 62.0056 181.512C59.789 180.67 57.7428 179.435 55.9658 177.866C54.5287 176.53 53.396 174.9 52.6449 173.088C52.0933 171.726 51.6803 170.313 51.4121 168.868C51.2114 167.679 51.0872 166.747 51.0442 166.116C51.0442 165.805 51.0012 165.567 50.9868 165.394C50.9725 165.222 50.9868 165.151 50.9868 165.151C51.0037 165.231 51.0165 165.313 51.0251 165.394C51.049 165.567 51.0728 165.801 51.1111 166.106C51.1684 166.742 51.307 167.664 51.522 168.849C51.8096 170.28 52.2336 171.68 52.7883 173.03C53.55 174.808 54.6783 176.406 56.0996 177.718C57.8715 179.251 59.9021 180.456 62.0964 181.278C64.4282 182.233 67.1614 182.496 69.9901 182.668C72.8189 182.84 75.8197 182.778 78.916 182.644C80.4594 182.577 82.041 182.491 83.6274 182.362C84.209 182.298 84.7563 182.055 85.1937 181.666C85.6311 181.278 85.937 180.763 86.0691 180.193C86.1468 179.803 86.1597 179.402 86.1073 179.008C86.0166 177.321 85.6295 175.606 84.6356 174.296C84.1482 173.657 83.5191 173.14 82.7977 172.785C82.0763 172.43 81.2824 172.247 80.4785 172.251H80.1631L80.3877 172.036C81.7064 170.779 82.7438 169.256 83.4315 167.569C83.7501 166.762 83.9605 165.917 84.0574 165.055C84.1649 164.233 84.1423 163.4 83.9906 162.585C83.5892 158.643 81.9741 155.126 79.7188 152.789C78.6521 151.7 77.4018 150.807 76.0251 150.152C74.8568 149.582 73.6203 149.165 72.3458 148.909C70.5373 148.591 68.6956 148.504 66.8651 148.651C66.2296 148.685 65.7422 148.766 65.4316 148.79L65.0589 148.828C65.0068 148.836 64.9538 148.838 64.9012 148.833Z" fill="#263238"/>
<path d="M71.4844 174.044C71.8971 173.781 72.3399 173.567 72.8032 173.409C75.0062 172.536 77.3482 172.067 79.7174 172.023C80.2059 171.992 80.6964 172.016 81.1796 172.095C80.6966 172.162 80.2098 172.199 79.7222 172.205C78.5556 172.28 77.3952 172.432 76.2483 172.659C75.1022 172.894 73.9722 173.202 72.8653 173.581C72.4148 173.763 71.9537 173.918 71.4844 174.044Z" fill="#263238"/>
<g opacity="0.3">
<path d="M78.6895 151.556C77.4929 149.716 75.8755 148.187 73.9711 147.096C72.0667 146.005 69.93 145.383 67.7376 145.282C65.6161 145.2 63.3225 145.712 61.932 147.308C61.4828 147.824 61.2105 148.741 61.7934 149.095C61.9758 149.169 62.1718 149.204 62.3685 149.197C62.5652 149.19 62.7584 149.143 62.9354 149.056C67.5991 147.58 73.6914 148.526 78.4792 151.556" fill="black"/>
</g>
<g opacity="0.3">
<path d="M90.367 113.836C86.5205 113.296 82.889 111.729 79.1523 110.678C84.3368 114.07 90.1138 116.689 96.2395 117.611C102.365 118.533 108.864 117.673 114.206 114.543C114.206 114.553 105.949 116.034 90.367 113.836Z" fill="black"/>
</g>
<path d="M126.399 124.136C125.863 118.903 123.818 114.316 120.416 112.295L110.73 149.609C116.699 144.386 120.387 138.098 122.633 130.495C122.736 131.457 123.004 132.393 123.426 133.262C124.788 129.158 125.094 124.183 123.938 121.407C124.76 122.315 125.577 123.228 126.399 124.136Z" fill="#E0E0E0"/>
<path d="M53.9541 134.86L58.2068 134.693C55.384 136.77 52.857 139.222 50.6953 141.98L55.3876 140.131C50.4277 145.186 48.8604 156.755 51.8946 163.148L68.2364 121.959C64.9574 127.66 59.9577 132.176 53.9541 134.86Z" fill="#E0E0E0"/>
<path d="M68.2344 121.96C69.4665 119.827 70.4295 117.55 71.1014 115.18L68.2344 121.96Z" fill="#E0E0E0"/>
<path d="M105.609 169.265C105.66 169.132 105.722 169.004 105.796 168.883L106.379 167.808C106.637 167.33 106.947 166.776 107.291 166.107C107.635 165.438 108.051 164.673 108.476 163.837C110.201 160.463 112.476 155.743 114.788 150.458C117.101 145.173 119.056 140.294 120.403 136.749C121.067 134.976 121.583 133.528 121.937 132.53C122.104 132.052 122.238 131.66 122.338 131.378C122.381 131.241 122.432 131.107 122.491 130.977C122.468 131.118 122.433 131.257 122.386 131.392L122.032 132.563C121.707 133.571 121.215 135.029 120.57 136.811C119.271 140.375 117.354 145.259 115.023 150.563C112.691 155.867 110.407 160.597 108.634 163.942C108.204 164.788 107.779 165.538 107.42 166.197C107.062 166.857 106.737 167.425 106.465 167.879C106.192 168.333 105.987 168.673 105.844 168.931C105.774 169.048 105.696 169.16 105.609 169.265Z" fill="#263238"/>
<path d="M110.464 142.244C110.464 142.244 110.407 142.187 110.311 142.067C110.215 141.948 110.077 141.762 109.914 141.518C109.445 140.819 109.034 140.082 108.686 139.315C107.49 136.694 106.996 133.808 107.253 130.939L107.439 131.063C106.691 131.589 106.043 132.247 105.528 133.003C105.22 133.412 104.871 133.788 104.486 134.126C104.099 134.451 103.655 134.702 103.177 134.866C102.699 135.026 102.183 135.026 101.705 134.866C101.251 134.696 100.873 134.369 100.64 133.944C100.268 133.177 100.041 132.348 99.9708 131.498C99.8774 130.769 99.8406 130.034 99.8609 129.3C99.8904 128.239 100.043 127.186 100.315 126.16C100.385 125.882 100.471 125.607 100.573 125.339C100.601 125.241 100.639 125.146 100.688 125.057C100.678 125.158 100.655 125.257 100.621 125.353C100.568 125.539 100.496 125.831 100.41 126.184C100.178 127.208 100.055 128.254 100.042 129.305C100.037 130.028 100.084 130.752 100.181 131.469C100.259 132.288 100.484 133.086 100.845 133.825C101.056 134.202 101.395 134.49 101.801 134.637C102.227 134.773 102.685 134.764 103.105 134.613C103.554 134.458 103.971 134.222 104.333 133.916C104.703 133.587 105.041 133.224 105.342 132.831C105.879 132.045 106.558 131.366 107.344 130.829L107.554 130.705V130.948C107.295 133.778 107.754 136.628 108.887 139.234C109.22 140 109.605 140.742 110.039 141.456C110.297 141.967 110.478 142.235 110.464 142.244Z" fill="#263238"/>
<path d="M103.706 37.8291C103.394 37.6101 103.015 37.507 102.635 37.5376C101.686 37.5461 100.755 37.7951 99.9285 38.2614C99.102 38.7277 98.4073 39.396 97.9095 40.2039C97.7649 38.4288 97.3324 36.6891 96.6289 35.0529C96.4883 34.5973 96.1789 34.2127 95.764 33.9778C95.0998 33.7006 94.3831 34.2167 93.9005 34.7519C91.5495 37.3799 90.9666 41.3077 91.9127 44.7051C92.8588 48.1024 95.1715 51.0076 97.9238 53.2152L100.676 53.5545C100.237 48.967 101.221 44.3555 103.495 40.3473C103.949 39.5493 104.408 38.4216 103.706 37.8291Z" fill="#E0E0E0"/>
<path d="M107.161 53.9827C107.161 53.9827 127.469 51.9185 135.09 69.2446L137.661 76.9615C138.958 80.7738 139.467 84.8101 139.157 88.8252C138.846 92.8403 137.723 96.7504 135.855 100.318C135.721 100.576 136.036 100.084 135.855 100.318C130.508 107.385 126.026 113.253 108.031 115.03C90.5325 116.755 71.8876 111.394 65.6949 99.1376C60.2715 88.4008 61.8723 75.8386 64.4478 71.2276C67.9742 64.9202 81.0285 53.1513 107.161 53.9827Z" fill="#E0E0E0"/>
<path d="M107.164 54.1894C107.164 54.1894 116.104 44.6328 117.867 42.6593C122.646 37.3029 128.982 31.6931 132.905 36.7104C135.987 40.6524 133.932 68.5577 133.932 68.5577L116.73 59.3213L107.164 54.1894Z" fill="#E0E0E0"/>
<g opacity="0.3">
<path d="M110.91 55.3363C110.91 55.3363 128.112 35.3487 130.296 36.7869C132.479 38.2252 130.396 61.529 130.396 61.529C130.396 61.529 115.407 62.4225 110.91 55.3363Z" fill="black"/>
</g>
<path d="M131.407 62.1891C129.433 59.2504 125.745 56.7275 122.658 55.1076C123.464 56.2767 123.887 57.6678 123.867 59.088C118.577 56.7657 113.001 54.3957 107.281 55.0025L109.67 58.4429L122.514 67.0725L131.407 62.1891Z" fill="#E0E0E0"/>
<path d="M109.078 54.9079C109.182 54.8752 109.29 54.8591 109.398 54.8601C109.703 54.8269 110.009 54.811 110.316 54.8124C111.448 54.8065 112.578 54.9009 113.694 55.0943C117.414 55.7204 120.971 57.0869 124.154 59.1128L123.824 59.2801C123.824 59.2132 123.824 59.1415 123.824 59.065C123.773 58.3722 123.598 57.6942 123.308 57.0629C123.04 56.4226 122.73 55.8158 122.467 55.1946L122.261 54.7168L122.739 54.9175C125.41 56.0576 127.786 57.7915 129.687 59.9873C130.243 60.6304 130.738 61.3247 131.163 62.061C131.328 62.3215 131.461 62.6006 131.56 62.8925C130.934 61.9395 130.244 61.0296 129.496 60.1688C127.563 58.0706 125.201 56.4118 122.572 55.3045L122.835 55.0226C123.093 55.6199 123.408 56.2363 123.685 56.8957C124.005 57.5759 124.193 58.3103 124.24 59.0603C124.24 59.1463 124.24 59.2323 124.24 59.3135V59.6862L123.924 59.4808C120.782 57.4876 117.294 56.1018 113.641 55.3953C112.538 55.1788 111.42 55.0399 110.297 54.9796C109.889 54.9846 109.482 54.9606 109.078 54.9079Z" fill="#263238"/>
<path opacity="0.3" d="M115.67 81.5987C114.888 80.8123 113.958 80.19 112.932 79.7687C111.913 79.3488 110.817 79.1501 109.716 79.1857L104.149 79.3147C102.541 79.3333 100.978 79.8509 99.677 80.796C95.6298 83.8302 93.7615 89.6215 95.2093 94.5623C96.6571 99.503 101.302 103.254 106.295 103.536C111.288 103.818 116.291 100.626 118.308 95.8906C119.268 93.5034 119.53 90.8923 119.063 88.3618C118.596 85.8313 117.419 83.4858 115.67 81.5987Z" fill="white"/>
<path d="M103.333 81.624C106.052 80.482 107.954 80.3673 110.859 81.28C111.647 81.4472 112.417 82.5988 111.891 83.2295L108.737 87.0091C108.594 87.1849 108.39 87.3008 108.166 87.3344C107.941 87.3679 107.712 87.3167 107.524 87.1907L102.229 83.6452C101.46 83.1292 102.249 81.968 103.333 81.624Z" fill="#263238"/>
<path d="M107.857 85.3828C107.947 85.6037 108.002 85.8375 108.019 86.0757C108.101 86.7229 108.101 87.378 108.019 88.0252C107.915 88.9902 107.626 89.9261 107.169 90.7823C106.61 91.8243 105.786 92.6998 104.779 93.3196C103.778 93.9382 102.61 94.2335 101.435 94.1653C100.482 94.0941 99.5641 93.7745 98.7731 93.2383C98.2378 92.8751 97.7784 92.4109 97.4208 91.8717C97.2764 91.6818 97.1694 91.4661 97.1055 91.2362C97.579 91.9483 98.1878 92.5604 98.8973 93.0377C99.6667 93.5218 100.546 93.8029 101.454 93.8547C102.564 93.8975 103.661 93.6098 104.607 93.0281C105.567 92.4422 106.36 91.6195 106.911 90.6389C107.36 89.8191 107.661 88.9261 107.799 88.0013C107.902 87.1323 107.921 86.2555 107.857 85.3828Z" fill="#263238"/>
<path d="M117.973 89.2293C117.899 89.4384 117.8 89.6374 117.677 89.8219C117.381 90.3404 117.044 90.8341 116.669 91.2984C116.123 92.0155 115.386 92.5638 114.542 92.88C114.018 93.0446 113.467 93.1037 112.92 93.0536C112.373 93.0036 111.841 92.8455 111.355 92.5885C110.369 92.0865 109.55 91.3077 109 90.3475C108.553 89.5658 108.231 88.7195 108.044 87.8389C107.917 87.2486 107.834 86.6496 107.796 86.047C107.761 85.827 107.761 85.6029 107.796 85.3828C107.853 85.3828 107.896 86.3385 108.273 87.772C108.484 88.6117 108.816 89.4165 109.258 90.1611C109.792 91.0597 110.571 91.7874 111.503 92.2588C112.411 92.7415 113.471 92.8496 114.456 92.5598C115.254 92.2736 115.96 91.7786 116.502 91.1263C117.457 90.0178 117.916 89.1911 117.973 89.2293Z" fill="#263238"/>
<path d="M112.304 95.9348C112.133 96.3573 111.853 96.7267 111.492 97.0051C110.686 97.745 109.675 98.2232 108.592 98.3765C107.511 98.5195 106.412 98.3295 105.443 97.8318C105.024 97.6609 104.659 97.3803 104.387 97.0194C104.425 96.9621 104.831 97.2679 105.557 97.5689C106.499 97.9629 107.527 98.1013 108.539 97.9703C109.552 97.82 110.508 97.4101 111.315 96.7805C111.941 96.2979 112.257 95.8918 112.304 95.9348Z" fill="#263238"/>
<path d="M64.3578 75.7883C64.3578 75.7883 60.215 46.0339 63.5454 42.3164C66.8759 38.5988 85.6403 56.9141 85.6403 56.9141L67.4111 70.0974L64.3578 75.7883Z" fill="#E0E0E0"/>
<g opacity="0.3">
<path d="M67.9416 68.01C67.9416 68.01 63.7462 45.7957 65.8009 45.0312C67.8555 44.2666 81.9802 57.8274 81.9802 57.8274C81.9802 57.8274 74.8701 68.6073 67.9416 68.01Z" fill="black"/>
</g>
<path d="M82.9275 57.4898C79.9984 57.313 76.4624 58.5362 73.82 59.8168C74.9977 59.8701 76.1262 60.3044 77.0358 61.0544C72.807 63.477 68.3967 66.0764 65.8594 70.3195L69.3236 70.4724L81.5561 66.1194L82.9275 57.4898Z" fill="#E0E0E0"/>
<path d="M67.0273 69.4009C67.0476 69.3126 67.0832 69.2284 67.1325 69.1524C67.2465 68.923 67.3725 68.6997 67.51 68.4835C68.0113 67.6876 68.5942 66.9461 69.2493 66.2711C71.4186 64.0823 74.0011 62.346 76.8468 61.1631L76.9184 61.1297L76.8754 61.4402C76.0365 60.7327 75.0376 60.2406 73.9654 60.0068L73.5449 59.9207L73.8985 59.6866C75.8116 58.4007 78.0302 57.6425 80.3301 57.4886C80.9941 57.4427 81.6607 57.4539 82.3227 57.522C82.5617 57.5322 82.7981 57.5756 83.0251 57.6511C83.0251 57.7084 82.0216 57.5507 80.354 57.7132C78.1096 57.937 75.9565 58.7171 74.0897 59.9829L74.0276 59.6579C75.1585 59.8899 76.2142 60.3988 77.1 61.1392L77.3341 61.3303L77.057 61.4498L76.9853 61.4832C74.1818 62.6551 71.619 64.335 69.4261 66.4383C68.5407 67.3532 67.738 68.3446 67.0273 69.4009Z" fill="#263238"/>
<path d="M73.9492 108.199C73.9492 108.199 73.9922 108.199 74.0687 108.242L74.3984 108.395L75.6503 109.002L76.5486 109.446C76.8831 109.604 77.251 109.757 77.6428 109.924C78.4313 110.263 79.3152 110.684 80.333 111.047L81.9146 111.649C82.4641 111.859 83.0567 112.031 83.6539 112.237C84.8533 112.657 86.1673 112.997 87.5435 113.379C93.5476 114.921 99.747 115.565 105.94 115.29C107.373 115.199 108.716 115.142 109.978 114.975C110.608 114.903 111.22 114.855 111.803 114.765L113.475 114.502C114.546 114.358 115.497 114.124 116.342 113.962C116.763 113.871 117.155 113.799 117.513 113.718L118.469 113.47L119.816 113.13L120.17 113.049C120.211 113.045 120.253 113.045 120.294 113.049L120.179 113.092L119.83 113.202L118.493 113.584L117.537 113.852C117.178 113.943 116.787 114.024 116.366 114.12C115.525 114.301 114.579 114.54 113.499 114.698L111.822 114.98C111.239 115.075 110.627 115.128 109.997 115.204C108.735 115.381 107.373 115.448 105.945 115.543C99.7261 115.842 93.4983 115.19 87.4766 113.608C86.1004 113.221 84.7816 112.872 83.5823 112.442C82.9802 112.232 82.3925 112.055 81.843 111.84L80.2613 111.219C79.2436 110.846 78.35 110.412 77.5807 110.063C77.1889 109.881 76.821 109.723 76.4913 109.561L75.5977 109.083L74.3649 108.433L74.0496 108.257L73.9492 108.199Z" fill="#263238"/>
<path d="M62.6036 79.5332C61.6646 81.6113 60.1644 83.3861 58.2719 84.6582C56.3793 85.9304 54.1694 86.6493 51.8906 86.7341C53.1156 89.2453 55.2803 91.1731 57.9161 92.1001L53.2811 93.2278C57.8826 98.7181 68.4904 105.89 75.0224 108.48L62.6036 79.5332Z" fill="#E0E0E0"/>
<path d="M149.823 83.678C145.326 84.3374 139.239 82.1968 137.27 75.7891L126.395 109.844C134.379 105.152 145.914 96.4982 149.536 90.3151L144.758 89.9758C147.211 88.6276 149.032 86.3637 149.823 83.678Z" fill="#E0E0E0"/>
<path opacity="0.3" d="M86.1169 92.2831C88.244 92.2831 89.9683 91.2626 89.9683 90.0039C89.9683 88.7451 88.244 87.7246 86.1169 87.7246C83.9899 87.7246 82.2656 88.7451 82.2656 90.0039C82.2656 91.2626 83.9899 92.2831 86.1169 92.2831Z" fill="black"/>
<path opacity="0.3" d="M125.39 88.5644C127.517 88.5644 129.242 87.5439 129.242 86.2851C129.242 85.0263 127.517 84.0059 125.39 84.0059C123.263 84.0059 121.539 85.0263 121.539 86.2851C121.539 87.5439 123.263 88.5644 125.39 88.5644Z" fill="black"/>
<path d="M93.1892 48.8936C92.3029 48.2466 91.2085 47.9504 90.1168 48.0622C89.1611 48.2629 88.5543 49.209 88.301 50.1455C87.6512 52.5347 88.7789 55.1245 90.2936 57.0979C91.0103 58.0154 91.9086 58.8993 93.0554 59.0761C94.3504 59.2673 95.6309 58.4645 96.4002 57.3942C97.1696 56.3238 97.4849 54.2071 97.8003 52.936C96.4238 51.4158 94.8766 50.0593 93.1892 48.8936Z" fill="#EBEBEB"/>
<path d="M101.366 47.2903C101.819 46.289 102.631 45.4932 103.64 45.0588C104.567 44.7721 105.552 45.2929 106.24 45.9906C107.989 47.7777 108.275 50.5586 107.898 53.0338C107.726 54.1758 107.372 55.3943 106.464 56.1015C105.427 56.9042 103.917 56.8325 102.737 56.2639C101.557 55.6953 100.233 54.0086 99.3398 53.0577C99.7922 51.064 100.472 49.1289 101.366 47.2903Z" fill="#EBEBEB"/>
<path d="M95.7539 50.882C96.5041 50.2991 97.5219 50.2179 98.468 50.1605C98.7388 50.1224 99.0147 50.1452 99.2755 50.2274C99.4808 50.3384 99.6607 50.4909 99.8038 50.6751C99.9469 50.8594 100.05 51.0714 100.107 51.2978C100.373 52.034 100.519 52.8086 100.537 53.5913C100.59 54.0958 100.465 54.603 100.183 55.0248C100.041 55.1921 99.8662 55.3279 99.6686 55.4233C99.4711 55.5188 99.2558 55.5719 99.0366 55.5791C98.5385 55.5721 98.0519 55.4279 97.6304 55.1624C97.2089 54.8969 96.8688 54.5202 96.6474 54.0739C96.2166 53.1765 95.9712 52.2014 95.9259 51.207" fill="#EBEBEB"/>
<path d="M100.48 54.7157C100.561 53.9429 100.53 53.1624 100.389 52.3982C100.172 51.6542 99.8501 50.9448 99.4336 50.291C99.4336 50.291 99.6725 50.4344 99.9114 50.7688C100.253 51.2325 100.498 51.7594 100.634 52.3189C100.769 52.8784 100.791 53.4593 100.7 54.0276C100.689 54.2724 100.613 54.5099 100.48 54.7157Z" fill="#263238"/>
<path d="M97.256 54.7395C97.1795 54.7395 97.1126 53.7839 96.6634 52.7422C96.2143 51.7005 95.6027 50.9599 95.66 50.9121C96.1975 51.3874 96.6203 51.9782 96.8967 52.6403C97.1731 53.3023 97.2959 54.0184 97.256 54.7347V54.7395Z" fill="#263238"/>
<path d="M96.3848 52.6131C95.7219 52.6635 95.0564 52.6731 94.3923 52.6417C93.7343 52.6958 93.0735 52.707 92.4141 52.6752C93.7143 52.3077 95.0881 52.2863 96.3992 52.6131H96.3848Z" fill="#263238"/>
<path d="M93.8438 55.8016C94.1108 55.1262 94.5274 54.5201 95.0622 54.0288C95.5353 53.4778 96.1287 53.0429 96.7967 52.7578C96.8397 52.8199 96.0513 53.3647 95.2438 54.1913C94.4363 55.0179 93.9106 55.8398 93.8438 55.8016Z" fill="#263238"/>
<path d="M104.141 49.4785C103.09 50.5227 101.847 51.3535 100.48 51.925C101.049 51.4583 101.653 51.0366 102.287 50.6635C102.874 50.2224 103.494 49.8263 104.141 49.4785Z" fill="#263238"/>
<path d="M104.45 52.8278C104.45 52.8995 103.575 52.6988 102.505 52.5889C101.435 52.479 100.556 52.4885 100.551 52.4169C101.197 52.2475 101.871 52.2182 102.529 52.3308C103.197 52.3611 103.851 52.5304 104.45 52.8278Z" fill="#263238"/>
<path d="M126.9 82.1712C124.372 84.7228 120.134 84.6224 117.43 81.9466C114.725 79.2707 114.591 75.0324 117.119 72.4808C119.647 69.9291 123.885 70.0295 126.585 72.7053C129.284 75.3812 129.428 79.6195 126.9 82.1712Z" fill="white"/>
<path d="M127.134 82.4033C124.607 84.9596 120.669 85.1556 118.338 82.8476C116.006 80.5397 116.173 76.5976 118.701 74.046C121.228 71.4944 125.166 71.2985 127.493 73.6064C129.82 75.9143 129.686 79.8516 127.134 82.4033Z" fill="#020611"/>
<path d="M94.1981 84.5756C93.2237 85.5039 91.9941 86.1199 90.6672 86.3444C89.3403 86.5689 87.9765 86.3918 86.751 85.8357C85.5255 85.2796 84.4941 84.37 83.7892 83.2236C83.0844 82.0771 82.7382 80.7462 82.7951 79.4016C82.852 78.057 83.3095 76.7602 84.1088 75.6774C84.908 74.5947 86.0126 73.7755 87.2808 73.325C88.5489 72.8746 89.9228 72.8133 91.226 73.1492C92.5292 73.4851 93.7023 74.2028 94.5947 75.2102C95.1837 75.8511 95.6406 76.6018 95.9395 77.4194C96.2383 78.2369 96.3732 79.1054 96.3363 79.9751C96.2995 80.8448 96.0917 81.6987 95.7248 82.488C95.3579 83.2774 94.8391 83.9868 94.1981 84.5756Z" fill="white"/>
<path d="M94.6024 85.0283C91.9122 87.4174 87.9701 87.3505 85.796 84.8945C83.6218 82.4384 84.0423 78.5154 86.7516 76.1358C89.4609 73.7563 93.3839 73.8136 95.558 76.2696C97.7322 78.7257 97.2925 82.6487 94.6024 85.0283Z" fill="#020611"/>
</svg>
