<svg width="95" height="152" viewBox="0 0 95 152" fill="none" xmlns="http://www.w3.org/2000/svg">
<path d="M89.3089 108.444C88.2011 117.035 72.4555 146.339 65.997 147.033C59.5385 147.727 54.0344 146.188 47.5017 146.188C40.969 146.188 35.46 147.74 29.0065 147.033C22.5529 146.325 6.80723 117.025 5.69949 108.444C4.59175 99.8624 18.4978 74.5591 19.5808 70.3143C20.6638 66.0695 23.2403 54.9062 23.2403 54.9062L47.5165 54.9384L72.2428 54.9062C72.2428 54.9062 74.3594 66.1108 75.4374 70.3373C76.5155 74.5637 90.4117 99.8441 89.3089 108.444Z" fill="#C6C6C6"/>
<path d="M60.5781 12.9735C63.026 9.87258 75.0727 -0.0548985 77.3129 0.000228677C79.5531 0.0553558 82.634 15.3577 83.0395 18.6148C83.445 21.8719 81.2839 32.6539 81.2839 32.6539L60.5781 12.9735Z" fill="#C6C6C6"/>
<path d="M61.1367 13.506C63.0753 11.0528 72.0806 2.93994 73.851 2.99047C75.6214 3.041 78.0594 15.1368 78.3808 17.691C78.7023 20.2453 77.0852 28.6384 77.0852 28.6384L61.1367 13.506Z" fill="#FF9BBC"/>
<path d="M66.4883 20.9536C69.1637 18.2891 73.377 16.4148 77.3233 17.4347C78.6125 17.779 79.7922 18.4096 80.7603 19.2722C80.4685 19.1298 80.1767 18.9828 79.8998 18.8128C79.6231 18.6566 79.3298 18.5273 79.0245 18.4269C74.7468 16.6675 70.039 18.5648 66.4883 20.9398V20.9536Z" fill="#263238"/>
<path d="M65.2773 19.5326C69.1791 14.5574 76.2459 11.4105 82.8429 12.9633C83.765 13.1845 84.6703 13.4623 85.5529 13.7948C77.9273 11.6907 70.6726 14.3644 65.2773 19.5234V19.5326Z" fill="#263238"/>
<path d="M34.3202 12.9735C31.8723 9.87258 19.8257 -0.0548985 17.5805 0.000228677C15.3354 0.0553558 12.2644 15.3577 11.8688 18.6148C11.4732 21.8719 13.6293 32.6539 13.6293 32.6539L34.3202 12.9735Z" fill="#C6C6C6"/>
<path d="M33.7552 13.506C31.8216 11.0528 22.8163 2.93994 21.041 2.99047C19.2656 3.041 16.8326 15.1368 16.5111 17.691C16.1897 20.2453 17.8018 28.643 17.8018 28.643L33.7552 13.506Z" fill="#FF9BBC"/>
<path d="M26.5806 20.9535C23.0299 18.5784 18.3171 16.6811 14.0444 18.4406C13.7387 18.5401 13.4453 18.6694 13.1691 18.8265C12.8872 18.9735 12.6004 19.1205 12.3086 19.2859C13.2767 18.4233 14.4563 17.7926 15.7455 17.4483C19.7017 16.4285 23.9052 18.3028 26.5806 20.9673V20.9535Z" fill="#263238"/>
<path d="M27.7833 19.5346C22.4029 14.3756 15.1482 11.7249 7.50781 13.806C8.38531 13.471 9.28566 13.1901 10.203 12.9653C16.8148 11.4033 23.8766 14.5502 27.7833 19.5346Z" fill="#263238"/>
<path d="M84.4526 37.7752C84.6702 41.2803 77.188 51.5248 70.1806 58.3514H24.8821C17.8747 51.5248 10.3925 41.2803 10.6101 37.7752C10.7733 35.1612 25.3667 16.0643 29.2389 12.9174C31.489 11.0798 39.6239 10.3816 47.5363 10.377C55.4487 10.3724 63.5787 11.0936 65.8337 12.9174C69.696 16.0643 84.2894 35.152 84.4526 37.7752Z" fill="#C6C6C6"/>
<path d="M59.4122 78.5339C57.988 86.8811 53.1169 107.099 47.509 107.172C41.9011 107.099 37.03 86.8811 35.6058 78.5339C34.32 70.9861 39.8686 55.7618 41.3225 53.8048C37.1932 50.1297 35.497 43.4776 36.036 40.7626C36.7679 37.0875 43.355 35.4888 43.355 35.4888C43.355 35.4888 44.443 25.5613 47.509 25.4648C50.5751 25.5613 51.663 35.4888 51.663 35.4888C51.663 35.4888 58.2501 37.0829 58.982 40.7626C59.521 43.4776 57.8248 50.1251 53.6955 53.8048C55.1494 55.7618 60.698 70.9861 59.4122 78.5339Z" fill="white"/>
<path d="M60.2775 30.333C63.4276 29.7771 65.47 31.7387 66.009 34.3619C66.1161 34.9461 66.097 35.5443 65.9527 36.1216C65.8084 36.6989 65.5418 37.2438 65.1685 37.7244C64.7952 38.205 64.3226 38.6118 63.7784 38.921C63.2341 39.2302 62.629 39.4357 61.9984 39.5255C58.9769 40.0584 56.5833 37.8441 56.1729 35.8503C56.0461 35.2371 56.0521 34.6066 56.1905 33.9956C56.3289 33.3846 56.5971 32.8054 56.9792 32.2917C57.3613 31.7781 57.8498 31.3403 58.4161 31.004C58.9824 30.6677 59.6152 30.4396 60.2775 30.333Z" fill="#263238"/>
<path d="M33.8967 30.2795C37.1061 30.2795 38.7331 32.5397 38.748 35.2088C38.7384 35.8006 38.6024 36.3847 38.3479 36.9272C38.0934 37.4698 37.7255 37.96 37.2654 38.3694C36.8054 38.7788 36.2624 39.0993 35.668 39.3122C35.0736 39.5251 34.4395 39.6263 33.8027 39.6098C30.7268 39.6098 28.8031 37.0418 28.7932 35.0159C28.7872 34.392 28.9152 33.7732 29.1696 33.1958C29.4241 32.6183 29.7998 32.0938 30.275 31.6528C30.7502 31.2118 31.3152 30.8633 31.937 30.6275C32.5589 30.3917 33.2251 30.2734 33.8967 30.2795Z" fill="#263238"/>
<path d="M50.1838 35.4135C50.1393 35.7811 47.7557 37.1638 47.4788 37.1638C47.2019 37.1638 44.7688 35.8086 44.7045 35.4365C44.6402 35.0644 46.8656 34.9266 47.4343 34.922C48.003 34.9174 50.2333 35.046 50.1838 35.4135Z" fill="#263238"/>
<path d="M53.7302 37.7264C53.3922 38.4513 52.9515 39.1311 52.4197 39.7477C52.1497 40.0658 51.8316 40.3458 51.4752 40.5792C51.0921 40.8603 50.6056 40.9906 50.1202 40.9421C49.6566 40.8301 49.2398 40.5917 48.9234 40.2576C48.6293 39.9547 48.3661 39.6271 48.1371 39.2791C47.8739 38.8741 47.6393 38.4536 47.4349 38.0204C47.2268 38.4528 46.9906 38.8732 46.7277 39.2791C46.5003 39.6282 46.237 39.9559 45.9414 40.2576C45.6268 40.5937 45.2093 40.8325 44.7447 40.9421C44.2593 40.9901 43.773 40.8599 43.3897 40.5792C43.0354 40.3434 42.7176 40.0636 42.4451 39.7477C41.9179 39.1349 41.4806 38.4598 41.1445 37.7401C41.591 38.3894 42.108 38.9944 42.6874 39.5456C42.9662 39.8126 43.2802 40.0457 43.6221 40.2392C43.7793 40.3218 43.9449 40.3895 44.1166 40.4414C44.2028 40.46 44.2904 40.4723 44.3787 40.4781H44.5073H44.626C44.963 40.3597 45.2589 40.1579 45.4815 39.8947C45.7351 39.6089 45.9586 39.3012 46.1491 38.9759C46.5406 38.3154 46.8715 37.6254 47.1382 36.9132L47.4151 36.2012L47.6871 36.9132C47.9538 37.6254 48.2846 38.3154 48.6761 38.9759C48.8664 39.3024 49.0918 39.6103 49.3487 39.8947C49.5713 40.1579 49.8672 40.3597 50.2042 40.4781H50.318H50.4367C50.5232 40.4719 50.6092 40.4596 50.6938 40.4414C50.8746 40.3926 51.0488 40.3248 51.2131 40.2392C51.5556 40.0446 51.8712 39.8116 52.1527 39.5456C52.7437 38.9905 53.2723 38.381 53.7302 37.7264Z" fill="#263238"/>
<path d="M67.6367 38.3676C68.7197 38.239 69.8077 38.1701 70.8956 38.0966C71.9836 38.0231 73.0716 38.0047 74.1645 37.9863C76.3453 37.9495 78.5262 37.9863 80.7021 38.1057C82.878 38.2252 85.0539 38.4043 87.215 38.6846C88.298 38.8132 89.3711 38.9832 90.4492 39.144C90.9833 39.2267 91.5174 39.3277 92.0514 39.4334L93.6537 39.7458C91.4976 39.4426 89.3464 39.1302 87.1804 38.9281C86.1023 38.8132 85.0193 38.7213 83.9363 38.6249C82.8533 38.5284 81.7703 38.4687 80.6823 38.4227C78.5163 38.2895 76.3404 38.2436 74.1645 38.2298C71.9885 38.216 69.8126 38.2344 67.6367 38.3676Z" fill="#263238"/>
<path d="M68.4844 39.5449C70.4625 39.5449 72.4109 39.6276 74.3742 39.7608C76.3374 39.8941 78.2859 40.11 80.2343 40.3489C82.1827 40.5877 84.1213 40.9047 86.045 41.2676C87.9687 41.6306 89.8775 42.09 91.7617 42.5999C90.7974 42.4253 89.8479 42.1956 88.8835 42.0348L87.4395 41.7592L85.9955 41.5157C85.0312 41.3503 84.0619 41.2033 83.0976 41.0563C82.1333 40.9093 81.1591 40.7761 80.1848 40.6613C78.2463 40.3994 76.2979 40.2019 74.3495 40.0043C73.3604 39.9078 72.3714 39.8252 71.4169 39.7471C70.4625 39.669 69.4635 39.6092 68.4844 39.5449Z" fill="#263238"/>
<path d="M67.8906 40.666C69.5226 40.813 71.1396 41.0565 72.7518 41.3367C74.364 41.617 75.9613 41.9569 77.5537 42.3152C79.146 42.6736 80.7236 43.0916 82.2813 43.551C83.0676 43.7761 83.8391 44.0104 84.6155 44.2631C85.3919 44.5157 86.1584 44.7822 86.9249 45.0532C85.3474 44.6352 83.7847 44.1942 82.2071 43.7945C80.6296 43.3948 79.0521 42.9951 77.4646 42.6322C75.8772 42.2693 74.2898 41.9156 72.6974 41.5848C71.9012 41.4148 71.1001 41.2586 70.299 41.1254C69.4978 40.9922 68.6967 40.813 67.8906 40.666Z" fill="#263238"/>
<path d="M27.4222 38.3676C26.3392 38.239 25.2512 38.1701 24.1633 38.0966C23.0753 38.0231 21.9874 38.0047 20.8944 37.9863C18.7136 37.9495 16.5327 37.9863 14.3568 38.1057C12.1809 38.2252 10.005 38.4043 7.84392 38.6846C6.76091 38.8132 5.6878 38.9832 4.60974 39.144C4.07565 39.2267 3.54155 39.3277 3.00746 39.4334L1.41016 39.7458C3.56134 39.4426 5.71252 39.1302 7.87854 38.9281C8.95661 38.8132 10.0396 38.7213 11.1226 38.6249C12.2056 38.5284 13.2887 38.4687 14.3766 38.4227C16.5476 38.2895 18.7185 38.2436 20.8944 38.2298C23.0704 38.216 25.2463 38.2344 27.4222 38.3676Z" fill="#263238"/>
<path d="M26.5703 39.5449C24.5922 39.5449 22.6437 39.6276 20.6854 39.7608C18.7271 39.8941 16.7688 40.11 14.8204 40.3489C12.8719 40.5877 10.9334 40.9047 9.00968 41.2676C7.08598 41.6306 5.17711 42.09 3.29297 42.5999C4.25729 42.4253 5.20677 42.1956 6.17604 42.0348L7.61511 41.7592L9.06407 41.5157C10.0234 41.3503 10.9927 41.2033 11.962 41.0563C12.9313 40.9093 13.8956 40.7761 14.8698 40.6613C16.8083 40.3994 18.7568 40.2019 20.7101 40.0043C21.6992 39.9078 22.6586 39.8252 23.6377 39.7471C24.6169 39.669 25.5911 39.6092 26.5703 39.5449Z" fill="#263238"/>
<path d="M27.17 40.666C25.538 40.813 23.9209 41.0565 22.3088 41.3367C20.6966 41.617 19.0993 41.9569 17.5069 42.3152C15.9146 42.6736 14.342 43.0916 12.7793 43.551C11.9979 43.7761 11.2215 44.0104 10.4451 44.2631C9.66871 44.5157 8.90219 44.7822 8.14062 45.0532C9.71322 44.6352 11.2759 44.1942 12.8535 43.7945C14.431 43.3948 16.0085 42.9951 17.5959 42.6322C19.1834 42.2693 20.7708 41.9156 22.3632 41.5848C23.1594 41.4148 23.9605 41.2586 24.7616 41.1254C25.5628 40.9922 26.3639 40.813 27.17 40.666Z" fill="#263238"/>
<path d="M30.6583 23.8347C30.8314 23.3591 31.1219 22.9277 31.5066 22.5751C31.8913 22.2225 32.3595 21.9585 32.8738 21.8042C33.373 21.6185 33.9106 21.539 34.4471 21.5716C34.9837 21.6042 35.5056 21.748 35.9745 21.9925C35.5325 22.2181 35.0749 22.4161 34.6046 22.5851C33.3112 23.0677 31.9905 23.4849 30.6484 23.8347H30.6583Z" fill="#263238"/>
<path d="M65.2766 24.8765C63.958 24.4629 62.6653 23.9813 61.4045 23.434C60.947 23.2405 60.5027 23.0211 60.0742 22.777C60.5566 22.5549 61.0866 22.4363 61.625 22.43C62.1634 22.4236 62.6964 22.5297 63.1848 22.7403C63.6886 22.9202 64.1401 23.2071 64.5033 23.578C64.8665 23.9489 65.1314 24.3936 65.2766 24.8765Z" fill="#263238"/>
<path d="M50.174 55.6376C49.1386 54.5711 48.3463 53.321 47.8448 51.9625C47.8102 51.8614 47.5778 51.8522 47.5135 51.9625C47.3305 52.2381 46.8261 53.0053 46.7569 53.1201C46.7222 53.042 45.8519 51.108 47.1574 47.2077C47.1574 47.2077 47.0981 47.171 47.0832 47.2077C44.4128 50.8829 46.3662 53.8873 46.5887 54.1308C46.742 54.2916 47.5184 53.0742 47.6124 52.918C48.0112 54.0994 48.8699 55.1002 50.0207 55.7249C50.1048 55.7249 50.2185 55.6881 50.174 55.6376Z" fill="#263238"/>
<path d="M26.1616 143.418C26.1616 143.418 25.0241 145.844 24.9401 146.312C24.856 146.781 24.8066 148.15 25.1527 148.384C25.4989 148.618 29.1584 149.762 31.6706 149.762C34.1828 149.762 37.234 148.944 37.4763 148.71C37.7186 148.476 37.3378 146.133 36.7691 145.453C36.0257 144.722 35.2221 144.047 34.3657 143.432L26.1616 143.418Z" fill="#C6C6C6"/>
<path d="M26.1616 143.418C26.1616 143.418 25.0241 145.844 24.9401 146.312C24.856 146.781 24.8066 148.15 25.1527 148.384C25.4989 148.618 29.1584 149.762 31.6706 149.762C34.1828 149.762 37.234 148.944 37.4763 148.71C37.7186 148.476 37.3378 146.133 36.7691 145.453C36.0257 144.722 35.2221 144.047 34.3657 143.432L26.1616 143.418Z" fill="white"/>
<path d="M30.6602 145.926C32.5245 147.446 31.3673 149.9 31.3673 149.9C31.0212 147.704 30.6602 145.926 30.6602 145.926Z" fill="#263238"/>
<path d="M33.7305 145.627C35.5998 147.143 34.4426 149.601 34.4426 149.601C34.1211 147.396 33.7305 145.627 33.7305 145.627Z" fill="#263238"/>
<path d="M10.8499 91.0801C6.53763 92.9452 0 103.603 0 109.341C0 115.079 6.09749 138.591 11.7697 141.691C17.4419 144.792 21.5119 145.78 26.6747 145.927C31.8375 146.074 39.9972 146.193 43.449 142.201C47.1925 137.869 43.449 119.746 37.5394 112.405C31.5705 104.995 16.4628 101.421 16.4628 101.421L10.8499 91.0801Z" fill="#C6C6C6"/>
<path d="M11.5625 100.846C19.0101 100.796 29.2566 104.82 34.9684 109.244C41.1846 114.118 43.6226 123.545 44.8589 130.743C45.2743 133.899 45.6106 137.111 44.8292 140.257C44.6444 141.08 44.2605 141.853 43.7066 142.518C39.6862 146.579 32.1793 146.413 26.7147 145.94C31.9567 146.06 39.4438 146 43.1231 142.077C43.5864 141.483 43.8991 140.8 44.038 140.078C44.6907 137.074 44.3792 133.899 43.9391 130.863C42.8956 124.785 41.1104 118.583 37.6487 113.305C33.3364 106.984 19.5244 101.25 11.5872 100.846H11.5625Z" fill="#263238"/>
<path d="M13.3906 100.268C14.5258 100.334 15.6078 100.738 16.4765 101.421C15.41 101.13 14.3765 100.744 13.3906 100.268Z" fill="#263238"/>
<path d="M68.8568 143.418C68.8568 143.418 69.9892 145.844 70.0733 146.312C70.1574 146.781 70.2068 148.15 69.8656 148.384C69.5244 148.618 65.855 149.762 63.3428 149.762C60.8306 149.762 57.7844 148.944 57.5371 148.71C57.2898 148.476 57.6756 146.133 58.2492 145.453C58.9912 144.723 59.7931 144.047 60.6477 143.432L68.8568 143.418Z" fill="#C6C6C6"/>
<path d="M68.8568 143.418C68.8568 143.418 69.9892 145.844 70.0733 146.312C70.1574 146.781 70.2068 148.15 69.8656 148.384C69.5244 148.618 65.855 149.762 63.3428 149.762C60.8306 149.762 57.7844 148.944 57.5371 148.71C57.2898 148.476 57.6756 146.133 58.2492 145.453C58.9912 144.723 59.7931 144.047 60.6477 143.432L68.8568 143.418Z" fill="white"/>
<path d="M64.3668 145.926C62.5025 147.446 63.6597 149.9 63.6597 149.9C63.991 147.704 64.3668 145.926 64.3668 145.926Z" fill="#263238"/>
<path d="M61.283 145.627C59.4186 147.143 60.5708 149.601 60.5708 149.601C60.9071 147.396 61.283 145.627 61.283 145.627Z" fill="#263238"/>
<path d="M84.1626 91.0801C88.4749 92.9452 94.9977 103.617 94.9977 109.341C94.9977 115.065 88.9002 138.591 83.228 141.691C77.5557 144.792 73.4858 145.78 68.3279 145.927C63.17 146.074 55.0004 146.193 51.5487 142.201C47.8101 137.869 51.5487 119.746 57.483 112.405C63.4469 104.995 78.5596 101.421 78.5596 101.421L84.1626 91.0801Z" fill="#C6C6C6"/>
<path d="M83.449 100.846C75.5118 101.255 61.7146 106.974 57.3875 113.305C53.9258 118.588 52.1455 124.79 51.1021 130.863C50.657 133.899 50.3504 137.074 50.9982 140.078C51.1365 140.801 51.4511 141.485 51.918 142.077C55.5973 146.005 63.0745 146.055 68.3264 145.94C62.8619 146.4 55.3451 146.579 51.3345 142.518C50.7791 141.853 50.3936 141.081 50.207 140.257C49.4306 137.111 49.7619 133.899 50.1773 130.743C51.3889 123.545 53.8269 114.123 60.0431 109.244C65.7647 104.815 75.9866 100.796 83.449 100.846Z" fill="#263238"/>
<path d="M81.6199 100.268C80.6357 100.744 79.6039 101.13 78.5391 101.421C79.4058 100.739 80.4862 100.334 81.6199 100.268Z" fill="#263238"/>
<path d="M34.2734 61.0996C34.2734 61.0996 44.0156 144.916 44.0156 145.316C44.0156 145.715 45.5733 146.74 46.2508 147.429C46.9283 148.118 47.4278 150.185 47.0767 150.346C45.3025 150.8 43.494 151.128 41.6666 151.329C40.6775 151.329 35.8609 150.53 35.5839 150.052C35.3167 149.44 35.2496 148.769 35.391 148.122C35.5443 147.87 36.5285 145.573 36.5285 145.426C36.5285 145.279 27.1572 121.344 25.1544 114.495C24.1653 111.15 15.4023 88.7183 15.4023 88.7183C16.1392 86.9221 21.1537 64.7104 34.2734 61.0996Z" fill="#C6C6C6"/>
<path d="M39.8438 147.74C41.7081 149.261 40.5509 151.714 40.5509 151.714C40.2196 149.509 39.8438 147.74 39.8438 147.74Z" fill="#263238"/>
<path d="M42.9297 147.443C44.794 148.959 43.6418 151.417 43.6418 151.417C43.3105 149.212 42.9297 147.443 42.9297 147.443Z" fill="#263238"/>
<path d="M35.3732 149.313C35.2081 148.634 35.3062 147.923 35.6501 147.305L36.3919 145.376C35.665 143.938 34.7847 141.402 34.033 139.588C28.6378 125.843 23.5046 111.905 18.9648 97.9023C24.6469 111.537 29.8197 125.466 34.6512 139.39C35.3237 141.411 36.1348 143.447 36.6886 145.482L35.8183 147.37C35.4293 147.949 35.2718 148.637 35.3732 149.313Z" fill="#263238"/>
<path d="M36.7414 80.9727C39.036 96.3256 40.9795 113.686 42.6361 129.209C43.1307 134.579 43.6994 139.945 44.1197 145.324C44.4408 145.741 44.807 146.126 45.2126 146.473C45.6356 146.834 46.0321 147.22 46.3995 147.631C46.2138 147.428 46.0085 147.242 45.7863 147.075C45.1483 146.514 44.3472 146.064 43.9071 145.347C43.1257 140 42.4581 134.644 41.7608 129.292C39.9064 113.792 37.9184 96.4726 36.7266 80.991L36.7414 80.9727Z" fill="#263238"/>
<path d="M60.7851 61.0996C60.7851 61.0996 51.0677 144.916 51.0282 145.316C50.9886 145.715 49.4704 146.74 48.7929 147.429C48.1154 148.118 47.6159 150.185 47.967 150.346C49.751 150.801 51.5694 151.129 53.4068 151.329C54.3959 151.329 59.2076 150.53 59.4845 150.052C59.7518 149.44 59.8189 148.769 59.6774 148.122C59.5241 147.87 58.54 145.573 58.54 145.426C58.54 145.279 67.9113 121.344 69.9141 114.495C70.9031 111.15 79.6711 88.7183 79.6711 88.7183C78.9194 86.9221 73.9049 64.7104 60.7851 61.0996Z" fill="#C6C6C6"/>
<path d="M55.2145 147.74C53.3501 149.261 54.5073 151.714 54.5073 151.714C54.8386 149.509 55.2145 147.74 55.2145 147.74Z" fill="#263238"/>
<path d="M52.1267 147.443C50.2624 148.959 51.4146 151.417 51.4146 151.417C51.7509 149.212 52.1267 147.443 52.1267 147.443Z" fill="#263238"/>
<path d="M59.6857 149.313C59.8638 148.601 59.5621 147.999 59.2456 147.37L58.3555 145.482C58.9192 143.447 59.7204 141.411 60.3929 139.39C65.2294 125.466 70.3972 111.537 76.0793 97.9023C71.5395 111.9 66.4063 125.843 61.0111 139.588C60.2594 141.398 59.3791 143.947 58.6571 145.376L59.394 147.305C59.7375 147.924 59.8355 148.634 59.6709 149.313H59.6857Z" fill="#263238"/>
<path d="M58.3185 80.9735C57.1217 96.432 55.1337 113.788 53.2793 129.274C52.582 134.626 51.9144 139.982 51.133 145.33C50.6979 146.056 49.8868 146.492 49.2538 147.057C49.0316 147.225 48.8263 147.411 48.6406 147.613C49.0104 147.205 49.4067 146.818 49.8275 146.455C50.2321 146.107 50.5982 145.723 50.9204 145.307C51.3556 139.927 51.9094 134.562 52.404 129.191C54.0656 113.668 56.0041 96.3493 58.3037 80.9551L58.3185 80.9735Z" fill="#263238"/>
</svg>
