<svg width="460" height="449" viewBox="0 0 460 449" fill="none" xmlns="http://www.w3.org/2000/svg">
<path d="M211.139 449C318.705 449 405.904 435.947 405.904 419.847C405.904 403.746 318.705 390.693 211.139 390.693C103.574 390.693 16.375 403.746 16.375 419.847C16.375 435.947 103.574 449 211.139 449Z" fill="#EBEBEB"/>
<path d="M317.722 381.604C391.769 381.604 451.796 370.321 451.796 356.403C451.796 342.484 391.769 331.201 317.722 331.201C243.675 331.201 183.648 342.484 183.648 356.403C183.648 370.321 243.675 381.604 317.722 381.604Z" fill="#EBEBEB"/>
<path d="M8.38672 320.432C152.988 319.768 315.192 319.757 459.793 320.432C315.192 321.107 152.988 321.096 8.38672 320.432Z" fill="#263238"/>
<path d="M161.23 156.353C159.401 142.201 152.151 102.695 149.592 99.3094C147.034 95.9238 118.752 109.847 106.875 136.714L161.23 156.353Z" fill="#05C067"/>
<path d="M158.07 155.208C156.698 143.68 151.288 111.664 149.361 108.855C147.434 106.046 126.043 118.511 117.258 140.425L158.07 155.208Z" fill="#FF9BBC"/>
<path d="M140.272 153.218C139.401 144.629 142.166 134.711 149.699 129.769C152.179 128.177 155.005 127.202 157.94 126.928C157.265 127.204 156.59 127.454 155.915 127.679C155.234 127.892 154.577 128.177 153.956 128.528C144.626 132.882 141.175 143.627 140.272 153.218Z" fill="#05C067"/>
<path d="M135.985 152.991C132.774 138.752 137.389 122.14 149.734 113.627C151.475 112.455 153.293 111.404 155.177 110.48C140.35 119.864 134.635 135.987 136.029 152.991H135.985Z" fill="#05C067"/>
<path d="M69.5902 147.851C62.7102 141.886 31.6302 124.827 26.8511 126.079C22.0721 127.331 23.4982 164.181 24.3255 171.801C25.1529 179.421 35.4839 203.371 35.4839 203.371L69.5902 147.851Z" fill="#05C067"/>
<path d="M68.6221 149.364C63.179 144.64 39.5887 130.303 35.8112 131.271C32.0337 132.24 33.155 161.393 33.819 167.468C34.4831 173.542 42.3973 192.114 42.3973 192.114L68.6221 149.364Z" fill="#FF9BBC"/>
<path d="M58.1245 170.004C50.3191 164.376 39.9446 159.891 30.539 164.06C29.8628 164.283 29.2159 164.587 28.6121 164.964C27.9916 165.323 27.3602 165.66 26.707 165.998C28.8568 163.95 31.472 162.456 34.3273 161.643C43.0363 159.238 52.2895 163.668 58.1789 169.982L58.1245 170.004Z" fill="#05C067"/>
<path d="M60.7817 166.629C48.9267 154.393 32.9567 148.069 16.1484 153.054C18.0746 152.256 20.0533 151.59 22.0705 151.062C36.6035 147.372 52.149 154.84 60.7491 166.629H60.7817Z" fill="#05C067"/>
<path d="M29.8242 220.647C29.8242 223.085 38.2066 234.799 52.6852 241.679C52.6852 241.679 31.6531 281.489 31.4027 297.013C30.9999 322.367 51.934 360.153 75.4917 371.888C91.2222 379.748 246.405 381.403 253.764 381.403C261.123 381.403 322.836 350.834 321.617 342.093C319.864 329.574 297.831 256.244 260.524 241.679C250.726 237.879 232.634 238.478 205.179 248.21C205.179 248.21 184.604 238.097 166.119 236.693C166.119 236.693 193.269 201.215 187.891 176.1C186.868 171.321 139.176 134.875 130.804 131.63C122.433 128.386 63.5931 140.503 53.7302 156.037C47.6884 165.584 29.9113 214.452 29.8242 220.647Z" fill="#05C067"/>
<path d="M29.8242 220.647C29.8242 223.085 38.2066 234.799 52.6852 241.679C52.6852 241.679 31.6531 281.489 31.4027 297.013C30.9999 322.367 51.934 360.153 75.4917 371.888C91.2222 379.748 246.405 381.403 253.764 381.403C261.123 381.403 322.836 350.834 321.617 342.093C319.864 329.574 297.831 256.244 260.524 241.679C250.726 237.879 232.634 238.478 205.179 248.21C205.179 248.21 184.604 238.097 166.119 236.693C166.119 236.693 193.269 201.215 187.891 176.1C186.868 171.321 139.176 134.875 130.804 131.63C122.433 128.386 63.5931 140.503 53.7302 156.037C47.6884 165.584 29.9113 214.452 29.8242 220.647Z" fill="#05C067"/>
<path d="M205.185 248.189C196.357 252.544 187.463 257.573 178.395 261.46C186.548 255.701 195.475 250.682 205.185 248.189Z" fill="#263238"/>
<path opacity="0.1" d="M52.6948 247.633C51.6715 251.595 62.0569 256.244 73.9337 255.057C89.4247 253.522 96.664 245.902 96.1523 243.659C95.2706 239.827 90.0561 244.247 72.8559 245.739C67.8265 246.12 53.4568 244.617 52.6948 247.633Z" fill="black"/>
<path opacity="0.1" d="M42.4938 266.499C41.1657 271.649 55.1435 277.777 71.0809 276.362C91.8517 274.523 101.497 264.681 100.778 261.764C99.5591 256.778 91.438 263.778 69.7963 265.171C58.7033 265.89 43.4953 262.667 42.4938 266.499Z" fill="black"/>
<path opacity="0.1" d="M37.3885 292.572C36.3979 298.157 53.5654 303.73 72.2243 301.118C96.5222 297.71 106.81 286.552 105.634 283.482C103.642 278.246 94.8348 286.269 69.481 289.263C56.4284 290.809 38.1397 288.414 37.3885 292.572Z" fill="black"/>
<path opacity="0.1" d="M290.534 283.873C290.099 280.084 279.517 279.518 269.578 284.493C256.624 291.025 252.868 300.049 254.066 301.824C256.112 304.861 259.171 299.276 273.661 292.244C277.852 290.187 290.85 286.692 290.534 283.873Z" fill="black"/>
<path opacity="0.1" d="M279.428 263.961C278.873 259.04 264.666 258.365 251.276 264.908C233.858 273.442 228.731 285.221 230.32 287.518C233.053 291.448 237.777 282.652 256.121 274.215C265.548 269.926 279.809 267.662 279.428 263.961Z" fill="black"/>
<path opacity="0.1" d="M262.659 246.022C261.669 240.829 244.882 241.667 229.544 250.202C209.546 261.273 204.331 274.413 206.367 276.688C209.85 280.575 214.825 270.657 235.89 259.597C246.7 253.914 263.399 249.887 262.659 246.022Z" fill="black"/>
<path opacity="0.1" d="M141.192 375.601C142.879 381.044 157.521 379.324 169.626 369.679C185.455 357.105 187.98 343.041 185.847 340.744C182.178 336.803 179.315 347.471 162.594 360.088C153.983 366.566 139.94 371.573 141.192 375.601Z" fill="black"/>
<path opacity="0.1" d="M41.9377 321.27C41.6002 327.889 62.3274 331.808 83.5446 326.016C111.195 318.461 121.461 304.004 119.654 300.619C116.562 294.849 107.549 305.463 78.6023 312.692C63.7318 316.404 42.188 316.338 41.9377 321.27Z" fill="black"/>
<path opacity="0.1" d="M94.3584 370.484C95.3273 376.668 114.443 376.515 132.144 367.218C155.223 355.167 161.537 339.894 159.36 337.096C155.528 332.306 149.562 343.791 125.264 355.777C112.756 361.939 93.6617 365.868 94.3584 370.484Z" fill="black"/>
<path opacity="0.1" d="M54.4653 346.565C54.0952 353.967 77.3263 358.354 101.036 351.866C131.986 343.419 140.869 326.153 138.844 322.376C135.393 315.909 125.9 326.295 95.5061 336.952C79.3402 342.635 54.7701 341.045 54.4653 346.565Z" fill="black"/>
<path d="M321.623 342.092C328.297 345.009 350.679 336.801 366.692 335.658C383.021 334.493 395.704 350.452 394.071 359.031C391.404 373.052 361.412 400.768 324.628 409.445C287.844 418.121 216.126 426.471 181.736 418.458C147.347 410.446 141.653 387.977 144.908 373.727C149.012 355.689 174.878 346 210.302 349.015C233.816 351.018 274.802 358.16 298.85 359.499L321.623 342.092Z" fill="#05C067"/>
<path d="M144.191 378.648C144.964 357.595 166.726 350.344 184.47 348.026C221.211 343.671 256.874 355.548 293.19 358.378C311.251 360.011 329.507 361.764 347.621 359.467C329.67 362.94 311.153 361.905 293.016 360.708C274.88 359.51 256.711 356.56 238.792 353.534C212.665 349.767 183.49 345.511 158.942 357.399C154.894 359.399 151.423 362.397 148.855 366.112C146.287 369.826 144.709 374.133 144.268 378.627L144.191 378.648Z" fill="#263238"/>
<path d="M130.256 185.159C116.899 187.14 113.165 201.281 112 202.718C110.835 204.155 95.2354 227.604 102.203 238.98C107.663 239.64 113.163 239.927 118.662 239.84C126.13 239.557 154.238 236.204 164.7 236.465C164.7 236.465 169.947 206.213 153.389 196.676C153.389 196.676 145.181 182.938 130.256 185.159Z" fill="white"/>
<path d="M166.127 236.669C151.006 237.366 136.244 240.011 121.2 241.448C112.066 242.156 102.857 240.784 93.9844 238.672C101.539 238.944 108.996 239.358 116.486 239.021C132.913 237.475 149.558 234.133 166.094 236.669H166.127Z" fill="#263238"/>
<path d="M148.089 169.47C152.727 167.892 156.635 171.745 158.464 177.156C159.944 181.51 158.714 186.953 154.251 188.467C149.788 189.98 145.259 185.636 143.866 181.521C142.472 177.406 143.071 171.168 148.089 169.47Z" fill="#263238"/>
<path d="M95.1583 183.644C88.104 183.895 84.7511 189.436 84.9797 195.761C85.0584 197.162 85.415 198.533 86.0288 199.795C86.6426 201.057 87.5013 202.184 88.5549 203.111C89.6085 204.038 90.836 204.747 92.1659 205.195C93.4958 205.643 94.9016 205.822 96.3013 205.721C103.062 205.482 107.035 199.19 106.872 194.378C106.82 192.9 106.475 191.447 105.856 190.104C105.237 188.76 104.356 187.554 103.266 186.555C102.175 185.556 100.897 184.784 99.5049 184.284C98.1128 183.784 96.6352 183.567 95.1583 183.644Z" fill="#263238"/>
<path d="M125.056 189.774C125.35 190.602 131.185 192.626 131.784 192.496C132.383 192.365 136.889 188.032 136.835 187.151C136.781 186.269 131.925 187.02 130.706 187.292C129.487 187.564 124.762 188.947 125.056 189.774Z" fill="#263238"/>
<path d="M142.002 192.375C141.459 193.771 140.841 195.137 140.152 196.468C139.827 197.103 139.428 197.699 138.965 198.242C138.798 198.457 138.571 198.616 138.312 198.699C138.059 198.71 137.807 198.654 137.583 198.536C137.005 198.203 136.492 197.768 136.069 197.252C135.596 196.711 135.163 196.136 134.774 195.532C133.966 194.31 133.239 193.037 132.597 191.721L131.443 189.305L131.127 191.972C130.911 193.748 130.547 195.503 130.038 197.219C129.791 198.058 129.471 198.874 129.08 199.657C128.748 200.377 128.22 200.988 127.556 201.421L127.317 201.519L127.067 201.584C126.874 201.595 126.682 201.595 126.49 201.584C126.075 201.57 125.664 201.497 125.27 201.367C124.435 201.11 123.637 200.744 122.897 200.278C121.362 199.287 119.936 198.138 118.641 196.849C119.745 198.341 121.045 199.677 122.505 200.822C123.253 201.421 124.081 201.912 124.965 202.281C125.935 202.735 127.043 202.797 128.057 202.455C128.993 201.975 129.754 201.213 130.234 200.278C130.715 199.438 131.109 198.552 131.41 197.633C131.993 195.836 132.405 193.988 132.64 192.113L131.171 192.364C131.858 193.744 132.651 195.069 133.544 196.326C134.003 196.965 134.508 197.569 135.057 198.133C135.624 198.756 136.318 199.25 137.093 199.581C137.555 199.771 138.063 199.817 138.551 199.712C138.999 199.541 139.38 199.232 139.64 198.83C140.091 198.179 140.457 197.473 140.729 196.729C141.291 195.321 141.717 193.863 142.002 192.375Z" fill="#263238"/>
<path d="M164.703 181.739C168.426 180.704 172.182 179.812 175.959 178.995C179.737 178.179 183.504 177.417 187.314 176.818C189.219 176.47 191.124 176.208 193.029 175.915C194.934 175.621 196.85 175.414 198.766 175.196C202.598 174.717 206.452 174.445 210.305 174.107C208.368 174.107 206.441 174.107 204.503 174.205C202.565 174.303 200.638 174.401 198.712 174.576C194.847 174.891 191.015 175.425 187.194 176.023C183.373 176.622 179.574 177.439 175.818 178.386C173.945 178.857 172.077 179.358 170.212 179.888C168.372 180.498 166.51 181.053 164.703 181.739Z" fill="#263238"/>
<path d="M166.672 183.634C168.403 183.383 170.123 183.133 171.854 182.915C173.585 182.697 175.294 182.469 177.025 182.273C180.486 181.87 183.937 181.489 187.41 181.184C189.141 181.01 190.872 180.89 192.603 180.77L197.817 180.487L200.419 180.368L203.032 180.302C204.763 180.215 206.504 180.302 208.246 180.194C204.773 179.943 201.279 179.823 197.795 179.889C194.312 179.954 190.817 180.128 187.345 180.4C183.872 180.673 180.399 181.097 176.948 181.63C173.497 182.164 170.068 182.817 166.672 183.634Z" fill="#263238"/>
<path d="M166.117 185.974C167.576 185.974 169.024 185.898 170.472 185.887C171.92 185.876 173.367 185.887 174.826 185.887C177.722 185.887 180.618 185.887 183.535 185.985C186.453 186.083 189.326 186.159 192.244 186.29C195.161 186.42 198.035 186.595 200.953 186.725C199.516 186.497 198.079 186.301 196.598 186.116C195.118 185.931 193.714 185.811 192.244 185.691C189.348 185.419 186.442 185.299 183.535 185.212C180.628 185.125 177.711 185.212 174.826 185.288C171.941 185.365 169.002 185.582 166.117 185.974Z" fill="#263238"/>
<path d="M79.3622 207.355C76.9781 207.584 74.6049 207.954 72.2317 208.313C69.8586 208.673 67.5071 209.163 65.1557 209.652C60.4529 210.632 55.8045 211.83 51.1779 213.125C46.5513 214.421 42.0009 215.945 37.5049 217.643C35.2514 218.47 33.0307 219.385 30.8208 220.299C29.7321 220.756 28.6435 221.257 27.5549 221.758L24.2891 223.26C28.7524 221.507 33.2048 219.733 37.7444 218.209C39.9978 217.414 42.2839 216.674 44.5482 215.923C46.8125 215.172 49.1204 214.497 51.4283 213.865C56.0114 212.494 60.6597 211.329 65.319 210.229C69.9783 209.13 74.6376 208.107 79.3622 207.355Z" fill="#263238"/>
<path d="M78.1775 210.479C73.9537 211.404 69.7843 212.58 65.6475 213.853C61.5108 215.127 57.4285 216.564 53.3788 218.066C49.3292 219.568 45.323 221.256 41.404 223.063C37.485 224.87 33.6095 226.83 29.832 228.941C31.8133 228.06 33.7293 227.069 35.7214 226.22L38.6716 224.881L41.6435 223.618C43.6248 222.758 45.6279 221.953 47.62 221.125C49.6122 220.298 51.637 219.536 53.6619 218.796C57.6897 217.239 61.7612 215.802 65.8435 214.441C67.8901 213.715 69.9403 213.04 71.9942 212.416C74.0625 211.709 76.1091 211.099 78.1775 210.479Z" fill="#263238"/>
<path d="M80.0479 212.797C76.6188 213.885 73.2767 215.29 69.9673 216.716C66.6579 218.142 63.4356 219.72 60.1698 221.321C56.9039 222.921 53.7796 224.663 50.6662 226.492C49.0986 227.395 47.5636 228.342 46.0286 229.279C44.4937 230.215 42.9914 231.227 41.5 232.229C44.657 230.487 47.7813 228.712 50.9601 227.014C54.1388 225.316 57.3067 223.629 60.5181 222.017C63.7296 220.406 66.9627 218.817 70.2068 217.26C71.8289 216.476 73.4727 215.736 75.1056 214.996C76.7385 214.256 78.415 213.515 80.0479 212.797Z" fill="#263238"/>
<path d="M151.095 155.701C150.475 154.687 149.626 153.832 148.617 153.205C147.608 152.577 146.465 152.194 145.282 152.087C144.116 151.907 142.924 151.989 141.794 152.328C140.664 152.667 139.624 153.254 138.75 154.047C139.823 154.347 140.914 154.58 142.016 154.743C145.041 155.228 148.09 155.548 151.149 155.701H151.095Z" fill="#263238"/>
<path d="M77.3281 175.023C79.9366 173.421 82.4551 171.676 84.8722 169.798C85.7521 169.126 86.5884 168.399 87.3761 167.62C86.2255 167.343 85.0272 167.328 83.8701 167.576C82.7129 167.825 81.6267 168.331 80.6919 169.057C79.6998 169.715 78.8776 170.599 78.2929 171.636C77.7082 172.673 77.3776 173.834 77.3281 175.023Z" fill="#263238"/>
<path d="M130.302 230.858C133.305 229.246 135.952 227.047 138.086 224.391C138.238 224.195 138.728 224.391 138.783 224.62C138.935 225.36 139.37 227.439 139.425 227.755C139.556 227.613 142.919 223.945 143.355 214.289C143.355 214.223 143.496 214.289 143.518 214.289C146.076 224.489 139.621 229.714 138.946 230.074C138.5 230.313 137.857 227.026 137.857 226.601C136.085 228.944 133.497 230.537 130.607 231.064C130.379 231.108 130.172 230.934 130.302 230.858Z" fill="#263238"/>
<path d="M366.068 406.258C364.98 409.328 362.585 409.437 362.585 409.437C362.585 409.437 364.446 411.788 362.781 414.009C361.115 416.23 358.176 414.836 358.176 414.836C358.59 415.552 358.734 416.392 358.582 417.205C358.43 418.018 357.993 418.749 357.349 419.267C355.498 421.053 352.657 418.723 352.657 418.723C353.036 419.601 353.106 420.581 352.857 421.504C352.608 422.427 352.054 423.239 351.285 423.807C350.142 424.754 347.954 423.807 347.725 423.937C340.236 428.716 324.679 438.253 300.632 422.163C282.365 409.927 283.105 388.274 290.061 371.716C290.17 371.466 288.831 370.835 289.495 369.017C289.614 368.558 289.863 368.144 290.213 367.825C290.563 367.506 290.998 367.296 291.466 367.22C291.16 366.697 291.048 366.084 291.15 365.487C291.251 364.89 291.56 364.347 292.021 363.955C292.465 363.516 293.045 363.241 293.665 363.174C294.286 363.106 294.911 363.251 295.439 363.584C295.33 362.779 294.013 361.091 295.853 358.98C296.384 358.396 297.097 358.01 297.876 357.883C298.655 357.757 299.453 357.898 300.142 358.283C299.955 357.622 299.971 356.921 300.186 356.269C300.401 355.617 300.807 355.045 301.35 354.625C301.862 354.211 304.159 354.886 304.616 354.788C287.024 335.814 253.124 323.839 247.268 318.646C228.075 301.664 262.28 289.613 279.186 303.406C280.275 304.266 277.422 305.866 276.17 305.278C255.106 295.372 239.158 307.521 250.936 315.936C258.557 321.379 291.955 333.049 307.773 351.61C309.068 353.134 310.941 351.207 311.529 350.935C325.594 344.316 348.324 349.149 359.254 361.766C373.221 377.867 369.117 394.044 365.579 402.459C365.997 402.988 366.263 403.622 366.35 404.291C366.436 404.96 366.339 405.64 366.068 406.258Z" fill="#455A64"/>
<path d="M351.439 411.84C349.958 400.138 341.478 390.068 332.671 382.818C323.283 375.092 312.08 369.888 300.121 367.697C299.229 367.534 299.327 366.108 300.23 366.271C312.846 368.558 324.637 374.13 334.413 382.426C343.122 389.861 351.363 399.844 352.843 411.59C352.963 412.493 351.558 412.755 351.439 411.84Z" fill="#263238"/>
<path d="M359.133 401.403C354.771 390.658 347.938 381.091 339.189 373.479C330.439 365.866 320.02 360.422 308.774 357.587C307.881 357.358 308.371 356.019 309.253 356.237C320.684 359.142 331.272 364.696 340.16 372.449C349.049 380.203 355.988 389.939 360.418 400.87C360.766 401.654 359.482 402.22 359.133 401.403Z" fill="#263238"/>
<path d="M349.13 423.633L349.533 421.216C349.685 420.312 348.259 420.204 348.107 421.107C348.041 421.521 347.976 421.934 347.9 422.348C347.806 422.38 347.721 422.432 347.65 422.501C338.026 431.014 324.897 430.23 313.445 426.398C314.219 426.097 314.95 425.698 315.622 425.211C315.697 425.304 315.795 425.375 315.905 425.418C321.181 427.693 327.033 428.272 332.652 427.075C338.271 425.877 343.379 422.962 347.268 418.734L347.366 419.039C347.617 419.921 349.021 419.67 348.771 418.788C341.564 393.413 320.728 373.36 293.785 371.51C293.606 371.513 293.436 371.583 293.306 371.706C293.176 371.829 293.097 371.995 293.083 372.173C293.07 372.351 293.123 372.528 293.232 372.669C293.342 372.81 293.5 372.905 293.676 372.936C297.382 373.191 301.054 373.811 304.638 374.786C297.802 376.709 291.58 380.37 286.578 385.411C285.936 386.065 286.85 387.164 287.493 386.5C292.625 381.283 299.096 377.58 306.195 375.799C306.306 375.775 306.409 375.723 306.494 375.649C306.58 375.575 306.645 375.481 306.685 375.374C307.948 375.766 309.178 376.213 310.397 376.692C309.058 377.138 307.752 377.628 306.456 378.139C306.298 378.153 306.149 378.218 306.032 378.324C299.892 380.809 294.152 384.184 288.995 388.34L288.919 388.394C288.44 388.797 287.95 389.178 287.471 389.592C286.774 390.19 287.688 391.29 288.385 390.68C288.453 390.616 288.526 390.558 288.603 390.506C287.95 403.896 291.281 416.84 303.789 423.916C303.894 423.974 304.012 424.004 304.132 424.004C304.252 424.004 304.37 423.974 304.475 423.916C304.517 423.959 304.564 423.995 304.616 424.025C304.592 424.116 304.59 424.211 304.61 424.304C304.63 424.396 304.671 424.482 304.73 424.555C304.79 424.628 304.866 424.686 304.952 424.725C305.038 424.763 305.132 424.781 305.226 424.776C307.319 424.757 309.36 424.119 311.091 422.943C312.823 421.768 314.168 420.106 314.958 418.168C314.973 418.111 314.973 418.051 314.958 417.994C315.972 418.27 317.001 418.488 318.039 418.647C318.033 418.683 318.033 418.72 318.039 418.756C317.693 420.726 316.647 422.505 315.092 423.763C313.537 425.022 311.58 425.675 309.581 425.603C308.666 425.603 308.546 427.007 309.472 427.029C310.224 427.039 310.976 426.969 311.714 426.822C311.725 426.947 311.772 427.066 311.849 427.165C311.926 427.264 312.031 427.338 312.15 427.378C324.027 431.525 337.798 432.505 347.965 424.036C348.064 424.102 348.178 424.144 348.296 424.16C348.415 424.175 348.535 424.163 348.648 424.124C348.761 424.085 348.863 424.02 348.947 423.935C349.03 423.85 349.093 423.746 349.13 423.633ZM293.959 386.402C289.757 398.083 294.819 411.691 302.254 421.303C291.705 413.966 289.245 401.839 290.094 389.309C291.324 388.296 292.598 387.316 293.959 386.402ZM299.946 382.733C297.697 388.779 296.806 395.246 297.336 401.674C297.867 408.103 299.806 414.336 303.016 419.931C295.679 410.199 290.845 396.504 296.049 385.096C297.29 384.236 298.586 383.452 299.914 382.733H299.946ZM307.24 423.208L306.859 423.273C302.568 417.425 299.842 410.577 298.939 403.379C298.036 396.182 298.986 388.873 301.699 382.146C301.729 382.031 301.729 381.911 301.699 381.797C302.788 381.242 303.942 380.709 305.085 380.197C302.224 387.074 300.93 394.502 301.297 401.942C301.664 409.381 303.683 416.646 307.207 423.208H307.24ZM316.406 379.468C311.093 391.697 309.853 405.31 312.868 418.298C312.908 418.478 313.018 418.635 313.173 418.734C312.766 419.473 312.257 420.151 311.66 420.748C307.24 408.383 307.507 394.827 312.411 382.646C312.759 381.786 311.409 381.307 311.072 382.156C306.004 394.771 305.776 408.813 310.43 421.586C310.457 421.649 310.494 421.708 310.539 421.76C309.946 422.199 309.303 422.564 308.623 422.849C305.019 416.228 302.999 408.863 302.721 401.33C302.444 393.797 303.916 386.303 307.022 379.435C308.492 378.847 309.983 378.292 311.507 377.813C311.618 377.781 311.719 377.722 311.803 377.643C311.886 377.563 311.949 377.465 311.986 377.356L312.738 377.693C312.476 378.357 312.204 379.01 311.943 379.674C311.605 380.524 312.944 381.013 313.282 380.164L314.033 378.281C314.806 378.662 315.59 379.054 316.374 379.468H316.406ZM313.739 393.217C313.87 392.487 314.022 391.769 314.175 391.04C317.811 393.739 320.906 397.1 323.297 400.946C323.302 401.047 323.332 401.145 323.385 401.231C323.439 401.317 323.513 401.387 323.602 401.436C326.393 406.079 328.119 411.285 328.653 416.676C327.665 416.978 326.658 417.211 325.638 417.373C324.468 408.215 320.268 399.712 313.706 393.217H313.739ZM324.201 417.526C322.542 417.687 320.87 417.669 319.215 417.471C321.003 416.318 322.412 414.663 323.264 412.714C323.661 414.299 323.962 415.905 324.168 417.526H324.201ZM331.494 415.555C331.015 415.784 330.526 416.002 330.014 416.187C329.927 415.446 329.829 414.706 329.709 414.009C329.814 413.982 329.912 413.93 329.992 413.857C331.58 412.537 332.713 410.753 333.232 408.755C333.752 406.757 333.631 404.646 332.888 402.72C333.713 402.322 334.588 402.037 335.49 401.871C336.033 404.24 335.969 406.708 335.303 409.045C334.636 411.382 333.39 413.513 331.679 415.239C331.58 415.323 331.505 415.432 331.462 415.555H331.494ZM329.393 412.431C329.034 410.716 328.558 409.029 327.967 407.38C328.103 407.331 328.215 407.234 328.283 407.108C329.096 405.629 330.245 404.361 331.636 403.406C332.192 404.967 332.273 406.657 331.868 408.264C331.463 409.87 330.59 411.321 329.361 412.431H329.393ZM312.901 399.248C313.01 397.811 313.162 396.374 313.391 394.893C314.449 396.014 315.441 397.196 316.363 398.431C316.292 398.465 316.229 398.513 316.178 398.573C315.782 399.031 315.247 399.345 314.654 399.468C314.061 399.59 313.445 399.512 312.901 399.248ZM317.19 399.596C318.188 401.005 319.093 402.478 319.901 404.005C319.901 404.005 319.846 404.005 319.824 404.07C319.04 405.174 317.959 406.033 316.707 406.547C315.455 407.062 314.082 407.211 312.748 406.977C312.65 404.898 312.672 402.818 312.748 400.739C313.52 401.001 314.351 401.032 315.139 400.829C315.928 400.626 316.641 400.198 317.19 399.596ZM321.403 407.216C320.598 408.644 319.38 409.795 317.91 410.52C316.44 411.244 314.785 411.508 313.162 411.277H313.097C312.988 410.33 312.89 409.383 312.825 408.436C314.272 408.634 315.745 408.459 317.106 407.927C318.466 407.396 319.668 406.525 320.597 405.398C320.891 405.997 321.174 406.574 321.403 407.216ZM322.492 383.267C320.008 383.238 317.591 384.073 315.655 385.629C316.232 383.8 316.907 381.982 317.669 380.186C319.313 381.124 320.908 382.145 322.448 383.245L322.492 383.267ZM328.076 387.73C326.275 388.063 324.59 388.852 323.181 390.022C321.773 391.193 320.688 392.705 320.031 394.414C318.461 392.72 316.733 391.178 314.871 389.809C314.762 389.726 314.628 389.68 314.49 389.679C314.643 389.084 314.806 388.485 314.98 387.883C315.077 387.901 315.177 387.893 315.269 387.858C315.361 387.824 315.442 387.764 315.503 387.687C316.504 386.608 317.746 385.781 319.126 385.27C320.506 384.76 321.987 384.581 323.45 384.747C323.575 384.767 323.702 384.747 323.816 384.69C323.929 384.634 324.021 384.543 324.081 384.432C325.409 385.455 326.748 386.554 328.033 387.708L328.076 387.73ZM334.325 394.262C332.289 394.081 330.243 394.478 328.422 395.406C326.601 396.334 325.077 397.756 324.027 399.509C323.143 398.168 322.176 396.885 321.131 395.666C321.654 393.895 322.694 392.32 324.118 391.143C325.541 389.966 327.283 389.24 329.121 389.058C329.209 389.048 329.293 389.022 329.372 388.982C331.094 390.628 332.718 392.373 334.238 394.207L334.325 394.262ZM336.905 397.593C332.474 396.809 328.914 399.77 325.942 402.797C325.605 402.143 325.246 401.501 324.854 400.87C325.779 399.036 327.272 397.55 329.11 396.634C330.948 395.718 333.033 395.42 335.054 395.786C335.2 395.814 335.352 395.787 335.479 395.71C335.936 396.276 336.415 396.907 336.861 397.539L336.905 397.593ZM338.821 400.358C336.583 400.08 334.312 400.457 332.284 401.442C330.255 402.427 328.555 403.979 327.39 405.91C327.14 405.322 326.89 404.723 326.617 404.146C329.372 401.251 332.855 397.92 337.199 399.106C337.314 399.141 337.436 399.144 337.553 399.115C337.67 399.086 337.777 399.027 337.863 398.943C338.146 399.357 338.462 399.836 338.777 400.304L338.821 400.358ZM338.603 410.548C337.381 411.742 336.063 412.834 334.662 413.813C335.831 412.052 336.634 410.074 337.023 407.996C337.412 405.918 337.379 403.784 336.927 401.719C337.758 401.686 338.59 401.744 339.409 401.893C339.823 403.203 339.965 404.584 339.824 405.951C339.684 407.318 339.264 408.642 338.592 409.84C338.541 409.941 338.514 410.053 338.514 410.167C338.514 410.28 338.541 410.392 338.592 410.493L338.603 410.548ZM342.391 406.465L340.889 408.163C341.231 406.968 341.374 405.725 341.314 404.484C341.64 405.083 342 405.736 342.348 406.411L342.391 406.465ZM344.841 411.832C344.698 411.87 344.572 411.955 344.482 412.072C341.525 416.095 337.491 419.2 332.845 421.028C328.198 422.857 323.13 423.333 318.224 422.403C318.832 421.349 319.259 420.201 319.487 419.006C319.487 419.006 319.487 419.006 319.487 418.952C322.784 419.301 326.118 418.975 329.285 417.994C335.087 416.187 339.18 412.289 343.066 407.848C343.665 409.089 344.242 410.428 344.797 411.778L344.841 411.832ZM316.755 424.275C316.958 424.079 317.151 423.872 317.332 423.654C317.375 423.683 317.423 423.705 317.473 423.72C322.644 424.798 328.016 424.382 332.96 422.522C337.904 420.662 342.217 417.434 345.396 413.215C345.908 414.532 346.365 415.882 346.789 417.243L346.681 417.33C343.044 421.483 338.19 424.384 332.81 425.621C327.43 426.858 321.797 426.368 316.711 424.221L316.755 424.275ZM316.929 417.155C315.912 416.938 314.909 416.662 313.924 416.328C313.685 415.152 313.489 413.966 313.325 412.779C314.998 412.967 316.692 412.708 318.231 412.027C319.771 411.346 321.102 410.268 322.089 408.904C322.263 409.394 322.426 409.894 322.579 410.395C322.234 411.886 321.537 413.273 320.546 414.439C319.556 415.606 318.3 416.519 316.885 417.101L316.929 417.155Z" fill="#263238"/>
<path d="M368.898 382.09C369.138 381.208 367.81 380.718 367.559 381.6C366.434 385.764 364.172 389.533 361.028 392.486C360.745 391.833 360.462 391.191 360.168 390.548C362.326 388.769 364.096 386.567 365.37 384.076C366.643 381.586 367.392 378.861 367.57 376.07C367.585 375.882 367.524 375.696 367.402 375.554C367.279 375.411 367.105 375.322 366.917 375.308C366.729 375.293 366.544 375.354 366.401 375.477C366.258 375.599 366.17 375.773 366.155 375.961C365.995 378.503 365.326 380.986 364.187 383.264C363.048 385.542 361.463 387.567 359.525 389.22C359.014 388.132 358.437 387.141 357.903 386.118C360.666 383.979 362.724 381.061 363.813 377.741C364.901 374.421 364.97 370.851 364.011 367.492C363.771 366.61 362.367 366.86 362.606 367.753C363.502 370.822 363.462 374.088 362.493 377.134C361.523 380.18 359.668 382.868 357.163 384.855C356.63 383.951 356.074 383.07 355.519 382.199C355.642 382.218 355.767 382.204 355.882 382.158C355.997 382.112 356.097 382.036 356.172 381.937C358.077 379.528 359.402 376.713 360.046 373.71C360.69 370.707 360.634 367.596 359.885 364.618C359.844 364.47 359.759 364.338 359.64 364.241C359.521 364.144 359.376 364.086 359.223 364.075C359.07 364.064 358.917 364.101 358.786 364.181C358.655 364.26 358.552 364.379 358.491 364.52C352.386 362.935 345.937 363.316 340.061 365.608C339.027 364.824 337.971 364.062 336.893 363.344C339.871 361.856 343.125 361.004 346.45 360.841C349.774 360.678 353.096 361.208 356.205 362.397C356.382 362.454 356.574 362.44 356.742 362.358C356.909 362.276 357.037 362.133 357.101 361.958C357.164 361.783 357.158 361.59 357.082 361.421C357.006 361.251 356.867 361.117 356.695 361.047C353.35 359.774 349.775 359.22 346.202 359.421C342.629 359.621 339.138 360.572 335.957 362.212C335.822 362.279 335.714 362.39 335.652 362.527C334.912 362.07 334.172 361.613 333.42 361.178C336.953 357.44 341.553 354.886 346.593 353.862C346.76 353.811 346.904 353.7 346.995 353.55C347.087 353.4 347.12 353.222 347.089 353.049C347.059 352.876 346.966 352.721 346.828 352.612C346.69 352.503 346.518 352.448 346.342 352.458C341.015 353.524 336.15 356.217 332.419 360.165C332.324 360.265 332.26 360.389 332.234 360.524C331.417 360.067 330.579 359.643 329.741 359.218C332.28 355.68 335.643 352.814 339.538 350.868C340.355 350.455 339.756 349.159 338.929 349.573C334.731 351.66 331.115 354.753 328.402 358.576L327.183 358.021C329.19 354.492 332.31 351.728 336.055 350.161C336.904 349.801 336.294 348.506 335.456 348.865C331.387 350.568 328.012 353.595 325.876 357.454C325.125 357.139 324.374 356.845 323.623 356.551C325.588 353.435 328.331 350.884 331.581 349.148C332.386 348.713 331.787 347.417 330.971 347.853C327.385 349.76 324.378 352.595 322.262 356.061C321.086 355.636 319.889 355.255 318.681 354.896C319.884 352.229 322.084 350.138 324.809 349.072C325.659 348.724 325.049 347.439 324.2 347.777C321.104 349.028 318.622 351.444 317.287 354.504C316.797 354.363 316.296 354.243 315.796 354.112C314.914 353.906 314.413 355.201 315.306 355.462C325.355 357.863 334.679 362.648 342.49 369.413C350.3 376.177 356.367 384.722 360.179 394.326C360.494 395.121 361.605 394.653 361.507 393.912C361.577 393.88 361.642 393.84 361.703 393.793C365.167 390.656 367.663 386.596 368.898 382.09ZM349.956 365.02C350.218 367.772 349.653 370.538 348.334 372.967C346.194 370.699 343.898 368.582 341.465 366.632C344.197 365.665 347.06 365.118 349.956 365.009V365.02ZM354.703 365.249C354.84 369.33 353.813 373.367 351.742 376.886C350.958 375.928 350.163 374.97 349.336 374.056C349.368 374.022 349.397 373.986 349.423 373.947C350.956 371.227 351.635 368.109 351.372 364.999C352.485 365.003 353.597 365.072 354.703 365.205V365.249ZM355.084 381.143C355.046 381.196 355.017 381.255 354.997 381.317C354.235 380.228 353.451 379.085 352.624 378.051C352.727 377.996 352.814 377.913 352.874 377.812C355.097 374.104 356.229 369.844 356.14 365.521C356.815 365.641 357.49 365.782 358.165 365.957C358.266 365.982 358.372 365.985 358.476 365.967C358.579 365.948 358.677 365.907 358.763 365.848C359.307 368.511 359.259 371.261 358.623 373.904C357.987 376.547 356.779 379.018 355.084 381.143Z" fill="#263238"/>
<path d="M335.747 376.093C326.211 366.579 313.126 362.954 300.465 359.612C299.583 359.372 300.073 358.033 300.955 358.273C313.909 361.691 327.082 365.458 336.879 375.179C337.5 375.778 336.411 376.681 335.747 376.093Z" fill="#263238"/>
<path d="M296.494 369.713L291.192 368.472C290.299 368.265 290.789 366.926 291.671 367.133L296.973 368.418C297.865 368.592 297.375 369.931 296.494 369.713Z" fill="#263238"/>
<path d="M358.048 414.803C357.214 402.615 351.633 391.241 342.503 383.124C341.828 382.526 342.644 381.35 343.33 381.96C352.758 390.294 358.546 401.991 359.452 414.542C359.518 415.456 358.113 415.718 358.048 414.803Z" fill="#263238"/>
<path d="M351.532 419.495C347.306 406.158 339.871 394.062 329.88 384.267C329.227 383.614 330.326 382.711 330.969 383.353C341.105 393.353 348.63 405.689 352.882 419.277C353.209 420.116 351.805 420.355 351.532 419.495Z" fill="#263238"/>
<path d="M327.969 382.625C327.796 382.555 327.657 382.421 327.582 382.251C327.506 382.081 327.499 381.888 327.563 381.714C327.626 381.539 327.755 381.395 327.922 381.313C328.089 381.232 328.281 381.218 328.458 381.275C328.631 381.345 328.77 381.479 328.845 381.649C328.921 381.818 328.928 382.011 328.864 382.186C328.801 382.361 328.672 382.504 328.505 382.586C328.338 382.668 328.146 382.682 327.969 382.625Z" fill="#263238"/>
<path d="M331.165 377.78C320.987 369.775 308.759 364.802 295.883 363.432C295.706 363.401 295.548 363.305 295.438 363.163C295.329 363.021 295.277 362.843 295.292 362.664C295.307 362.486 295.388 362.319 295.519 362.197C295.651 362.075 295.823 362.007 296.003 362.006C309.132 363.404 321.604 368.466 331.992 376.615C332.711 377.181 331.894 378.346 331.165 377.78Z" fill="#263238"/>
<path d="M338.589 378.541C338.433 378.461 338.312 378.327 338.248 378.163C338.185 378 338.183 377.82 338.243 377.655C338.303 377.491 338.421 377.354 338.575 377.271C338.729 377.187 338.908 377.163 339.079 377.202C339.234 377.282 339.355 377.416 339.419 377.579C339.483 377.742 339.485 377.923 339.424 378.087C339.364 378.252 339.246 378.389 339.092 378.472C338.938 378.556 338.759 378.58 338.589 378.541Z" fill="#263238"/>
<path d="M364.719 401.13C364.788 401.657 364.824 402.188 364.827 402.719C364.827 403.634 363.412 403.514 363.412 402.599C363.406 400.494 362.753 398.442 361.54 396.721C361.017 395.97 362.117 395.055 362.628 395.806C362.737 395.959 362.835 396.111 362.933 396.275C365.173 393.989 366.756 391.142 367.516 388.034C367.734 387.141 369.073 387.631 368.855 388.513C367.999 391.955 366.196 395.088 363.652 397.559C363.928 398.153 364.158 398.769 364.338 399.399C365.088 398.452 365.72 397.418 366.221 396.318C366.591 395.48 367.941 395.959 367.56 396.797C366.851 398.384 365.891 399.847 364.719 401.13Z" fill="#263238"/>
<path d="M312.856 354.866L309.209 354.115C309.094 354.092 308.986 354.041 308.895 353.967C308.804 353.893 308.732 353.798 308.687 353.69C308.221 354.253 307.633 354.701 306.966 354.999C306.3 355.298 305.573 355.438 304.844 355.41C303.929 355.41 304.049 353.962 304.963 353.984C305.593 354 306.213 353.834 306.75 353.505C307.287 353.177 307.717 352.701 307.99 352.133C308.382 351.317 309.732 351.796 309.34 352.623V352.678L312.965 353.418C313.857 353.625 313.749 355.051 312.856 354.866Z" fill="#263238"/>
<path d="M187.279 185.095C186.821 184.399 178.232 175.526 186.658 161.015C195.084 146.504 224.509 143.771 239.031 121.934C253.554 100.096 252.193 84.3982 242.134 81.5787C231.476 78.6068 227.013 99.715 224.64 110.525C220.939 127.42 199.145 135.737 187.039 146.928C175.641 157.455 168.805 177.823 180.442 190.974L187.279 185.095Z" fill="#DBDBDB"/>
<path opacity="0.1" d="M187.279 185.095C186.821 184.399 178.232 175.526 186.658 161.015C195.084 146.504 224.509 143.771 239.031 121.934C253.554 100.096 252.193 84.3982 242.134 81.5787C231.476 78.6068 227.013 99.715 224.64 110.525C220.939 127.42 199.145 135.737 187.039 146.928C175.641 157.455 168.805 177.823 180.442 190.974L187.279 185.095Z" fill="black"/>
<path opacity="0.1" d="M218.227 122.598C221.891 125.561 226.1 127.78 230.615 129.13C231.29 129.336 231.965 129.521 232.629 129.663C235.042 127.339 237.199 124.762 239.063 121.977C253.574 100.14 252.202 84.4528 242.143 81.6332C231.486 78.6613 227.033 99.7805 224.726 110.59C223.611 115.079 221.375 119.21 218.227 122.598Z" fill="black"/>
<path opacity="0.1" d="M206.199 132.917C208.06 134.959 210.145 136.785 212.415 138.36C213.825 139.34 215.314 140.199 216.868 140.929C218.871 139.84 220.885 138.621 222.855 137.337C220.505 136.345 218.265 135.112 216.171 133.657C214.113 132.177 212.383 130.761 210.902 129.455C209.378 130.624 207.81 131.777 206.199 132.917Z" fill="black"/>
<path opacity="0.1" d="M195.629 140.211C197.646 142.563 199.963 144.642 202.52 146.394C203.064 146.753 203.608 147.123 204.175 147.483C206.232 146.394 208.355 145.382 210.51 144.217C209.04 143.484 207.628 142.639 206.286 141.691C204.224 140.224 202.257 138.628 200.397 136.912C198.786 138.022 197.197 139.111 195.629 140.211Z" fill="black"/>
<path opacity="0.1" d="M185.699 148.255C187.719 150.627 190.047 152.718 192.623 154.471C194.356 153.148 196.175 151.941 198.066 150.856C197.522 150.519 196.977 150.171 196.477 149.768C194.183 148.137 192.001 146.355 189.945 144.434C188.943 145.25 187.996 146.056 187.093 146.883C186.603 147.351 186.189 147.787 185.699 148.255Z" fill="black"/>
<path opacity="0.1" d="M178.457 158.499C180.001 159.71 181.635 160.802 183.345 161.765C184.096 162.173 184.87 162.537 185.664 162.854C185.968 162.255 186.317 161.624 186.676 160.981C187.337 159.867 188.106 158.82 188.973 157.857C188.171 157.498 187.39 157.094 186.633 156.649C184.673 155.506 182.975 154.406 181.505 153.383C180.365 155.011 179.346 156.721 178.457 158.499Z" fill="black"/>
<path opacity="0.1" d="M175.815 165.193C175.234 167.163 174.833 169.182 174.617 171.224C176.058 171.925 177.546 172.525 179.07 173.021C180.355 173.454 181.668 173.8 183 174.055C182.926 172.057 183.157 170.06 183.685 168.133C182.923 167.926 182.15 167.697 181.378 167.436C179.276 166.696 177.48 165.988 175.815 165.193Z" fill="black"/>
<path opacity="0.1" d="M174.758 178.77C175.083 180.965 175.721 183.102 176.652 185.116C177.534 185.214 178.437 185.279 179.384 185.312C181.92 185.388 184.456 185.165 186.939 184.648C185.648 183.013 184.639 181.173 183.957 179.205C182.662 179.333 181.359 179.362 180.059 179.292C178.122 179.172 176.391 179.053 174.758 178.77Z" fill="black"/>
<path opacity="0.1" d="M183.098 175.34L176.469 184.702C177.455 186.993 178.804 189.11 180.464 190.972L187.3 185.094C184.966 182.33 183.503 178.935 183.098 175.34Z" fill="black"/>
<path d="M240.62 284.258C233.076 280.393 205.556 272.228 199.601 271.194C193.647 270.16 178.167 270.345 174.313 269.333C164.156 266.666 158.332 243.141 158.844 234.051C159.355 224.961 172.081 186.968 194.441 179.326C216.802 171.684 247.653 193.728 254.892 201.61C254.892 201.61 265.365 203.079 269.044 208.414V264.706L240.62 284.258Z" fill="#DBDBDB"/>
<path opacity="0.1" d="M164.887 213.508C175.479 219.43 186.909 208.185 186.909 208.185C186.909 208.185 187.791 208.827 189.348 209.807C190.077 210.275 190.981 210.797 192.015 211.374C196.792 214.138 201.949 216.185 207.321 217.449C208.301 217.655 209.302 217.819 210.293 217.939C211.206 218.067 212.125 218.147 213.047 218.178C216.748 218.314 220.442 217.749 223.933 216.512C231.401 213.878 238.434 208.108 243.528 198.779C244.334 197.287 245.107 195.709 245.814 194.022C244.944 193.379 244.04 192.748 243.071 192.095C241.623 191.115 240.077 190.114 238.445 189.134C235.348 187.255 232.154 185.544 228.876 184.006C225.858 182.593 222.753 181.374 219.579 180.359C217.047 179.521 214.456 178.873 211.828 178.422C206.01 177.249 199.99 177.56 194.323 179.325C193.996 179.434 193.692 179.554 193.376 179.674C180.334 184.692 170.646 200.074 164.887 213.508Z" fill="black"/>
<path opacity="0.1" d="M223.103 224.295C225.171 225.481 230.789 216.675 236.166 211.656C245.725 202.686 252.104 201.129 252.028 198.854C251.538 198.418 251.004 197.961 250.416 197.482C248.076 197.344 245.737 197.777 243.602 198.745C239.346 200.51 235.441 203.025 232.073 206.169C228.777 209.101 226.034 212.6 223.974 216.5C222.036 220.3 221.612 223.435 223.103 224.295Z" fill="black"/>
<path opacity="0.1" d="M240.621 225.439C242.711 226.528 247.033 219.354 251.562 215.304C259.922 207.847 265.932 207.096 265.05 204.962C264.35 204.55 263.622 204.186 262.873 203.874C259.759 203.558 253.598 204.875 247.077 210.405C240.556 215.936 237.791 223.904 240.621 225.439Z" fill="black"/>
<path opacity="0.1" d="M207.322 217.45C207.454 217.852 207.714 218.2 208.062 218.441C208.574 218.789 209.347 218.561 210.239 217.94C213.505 215.763 219.003 208.937 224.184 204.659C234.211 196.364 241.167 194.165 243.083 192.053C241.635 191.073 240.089 190.072 238.456 189.092C234.167 189.538 227.472 191.879 219.786 197.953C211.23 204.79 206.157 214.021 207.322 217.45Z" fill="black"/>
<path opacity="0.1" d="M179.342 198.845C181.432 200.456 188.54 192.052 194.974 187.556C203.171 181.83 209.126 179.936 211.891 178.379C206.073 177.206 200.053 177.517 194.386 179.282C194.06 179.391 193.755 179.511 193.439 179.631C192.71 180.066 191.959 180.534 191.208 181.035C181.835 187.284 176.555 196.678 179.342 198.845Z" fill="black"/>
<path opacity="0.1" d="M189.346 209.808C189.365 210.155 189.46 210.493 189.626 210.798C189.792 211.103 190.023 211.367 190.304 211.572C190.579 211.701 190.884 211.752 191.186 211.717C191.488 211.682 191.774 211.564 192.013 211.376C195.442 209.536 201.81 200.686 208.407 196.135C219.392 188.656 226.566 186.196 228.939 183.954C225.921 182.54 222.816 181.322 219.642 180.307C215.287 181.286 209.703 183.714 203.487 188.624C194.31 195.907 188.769 205.563 189.346 209.808Z" fill="black"/>
<path d="M305.819 256.4C312.633 260.526 322.725 280.6 323.291 284.04C323.857 287.48 322.572 298.454 317.848 299.575C313.123 300.696 309.596 289.277 309.226 288.689C308.856 288.101 293.506 274.852 285.374 273.938C277.242 273.024 305.819 256.4 305.819 256.4Z" fill="#DBDBDB"/>
<path d="M315.989 293.076C318.231 296.451 315.281 300.13 315.281 300.13C315.738 296.244 315.989 293.076 315.989 293.076Z" fill="#263238"/>
<path d="M319.883 293.066C322.126 296.441 319.176 300.121 319.176 300.121C319.666 296.234 319.883 293.066 319.883 293.066Z" fill="#263238"/>
<path d="M261.306 268.32C267.62 273.176 275.458 294.229 275.643 297.713C275.828 301.197 273.346 311.974 268.556 312.573C263.766 313.171 261.491 301.425 261.176 300.837C260.86 300.249 252.619 289.951 239.055 283.517C231.663 280.034 261.306 268.32 261.306 268.32Z" fill="#DBDBDB"/>
<path d="M267.406 305.908C269.268 309.512 265.926 312.843 265.926 312.843C266.84 309.033 267.406 305.908 267.406 305.908Z" fill="#263238"/>
<path d="M271.285 306.332C273.147 309.935 269.805 313.267 269.805 313.267C270.719 309.456 271.285 306.332 271.285 306.332Z" fill="#263238"/>
<path d="M252.379 208.914C248.874 204.745 232.12 191.757 229.181 192.03C226.242 192.302 223.629 214.194 223.4 218.81C223.172 223.425 227.015 238.503 227.015 238.503L252.379 208.914Z" fill="#DBDBDB"/>
<path d="M251.689 209.72C248.913 206.455 236.328 195.743 234.01 195.96C231.691 196.178 229.655 213.498 229.427 217.145C229.198 220.792 232.159 232.505 232.159 232.505L251.689 209.72Z" fill="#FF9BBC"/>
<path d="M243.884 225.332C239.965 218.234 229.95 213.357 222.809 218.8C224.23 218.34 225.686 217.998 227.163 217.777C233.695 217.167 239.345 221.042 243.906 225.342L243.884 225.332Z" fill="#DBDBDB"/>
<path d="M246.14 223.339C241.383 212.583 228.831 205.148 217.172 208.62C228.885 207.434 239.576 213.944 246.14 223.339Z" fill="#DBDBDB"/>
<path d="M286.941 206.922C290.643 202.927 308.006 190.778 310.891 191.192C313.776 191.606 315.343 213.617 315.354 218.222C315.365 222.827 310.76 237.719 310.76 237.719L286.941 206.922Z" fill="#DBDBDB"/>
<path opacity="0.1" d="M286.941 206.922C290.643 202.927 308.006 190.778 310.891 191.192C313.776 191.606 315.343 213.617 315.354 218.222C315.365 222.827 310.76 237.719 310.76 237.719L286.941 206.922Z" fill="black"/>
<path d="M290.531 211.341C293.46 208.184 306.556 198.136 308.864 198.463C311.171 198.789 312.391 216.207 312.391 219.854C312.391 223.501 308.907 235.095 308.907 235.095L290.531 211.341Z" fill="#FF9BBC"/>
<path d="M298.137 223.491C303.373 220.084 309.643 217.21 315.936 218.951C317.347 219.42 318.716 220.007 320.029 220.704C313.933 214.172 303.231 217.188 298.137 223.491Z" fill="#DBDBDB"/>
<path d="M296.277 221.139C304.377 213.029 316.036 208.468 327.357 211.679C316.471 206.236 302.831 211.374 296.277 221.139Z" fill="#DBDBDB"/>
<path d="M223.809 247.54C223.809 252.525 237.275 267.918 248.259 274.428C252.896 277.183 290.508 275.332 296.985 271.217C303.996 266.765 314.545 249.325 313.935 244.383C313.478 240.703 298.803 211.615 292.86 208.371C285.239 204.202 250.763 205.889 247.715 208.371C240.094 214.544 223.776 243.838 223.809 247.54Z" fill="#DBDBDB"/>
<path opacity="0.1" d="M225.941 241.812C229.708 251.827 248.922 262.191 265.578 254.582C282.702 246.776 280.699 217.71 276.671 205.888C264.304 205.529 249.684 206.791 247.746 208.359C241.803 213.171 230.612 231.949 225.941 241.812Z" fill="black"/>
<path d="M296.023 238.581C299.169 238.243 301.085 241.215 301.466 244.895C301.782 247.867 300.236 251.1 297.21 251.427C294.183 251.753 291.941 248.368 291.647 245.581C291.353 242.794 292.605 238.929 296.023 238.581Z" fill="#263238"/>
<path d="M260.639 240.018C256.154 239.179 253.258 242.195 252.507 246.212C252.358 247.106 252.389 248.021 252.597 248.903C252.805 249.786 253.187 250.618 253.72 251.351C254.253 252.085 254.926 252.705 255.701 253.176C256.476 253.647 257.336 253.958 258.233 254.093C260.072 254.389 261.954 253.967 263.491 252.916C265.028 251.865 266.104 250.264 266.495 248.443C266.672 247.505 266.661 246.54 266.461 245.606C266.261 244.672 265.878 243.787 265.333 243.003C264.788 242.219 264.092 241.551 263.286 241.038C262.48 240.526 261.58 240.179 260.639 240.018Z" fill="#263238"/>
<path d="M288.933 252.154C288.392 252.958 287.807 253.732 287.181 254.473C286.889 254.826 286.557 255.144 286.19 255.42C286.055 255.534 285.887 255.602 285.711 255.616C285.55 255.586 285.4 255.515 285.275 255.409C284.956 255.119 284.693 254.772 284.503 254.385C284.286 253.976 284.094 253.554 283.926 253.123C283.591 252.238 283.314 251.333 283.098 250.412L282.706 248.725L282.129 250.358C281.752 251.45 281.278 252.506 280.714 253.515C280.447 254.014 280.13 254.484 279.767 254.919C279.459 255.326 279.039 255.636 278.559 255.812H278.395H278.232C278.107 255.8 277.983 255.779 277.862 255.746C277.604 255.675 277.355 255.572 277.122 255.441C276.631 255.137 276.181 254.771 275.783 254.353C274.964 253.509 274.234 252.582 273.605 251.588C274.084 252.694 274.71 253.73 275.467 254.668C275.852 255.154 276.307 255.58 276.817 255.931C277.364 256.357 278.055 256.552 278.744 256.476C279.411 256.301 280.005 255.92 280.442 255.387C280.849 254.919 281.213 254.417 281.531 253.885C282.149 252.847 282.671 251.753 283.087 250.619H282.118C282.358 251.585 282.671 252.531 283.055 253.449C283.256 253.918 283.489 254.372 283.751 254.81C284.029 255.279 284.399 255.687 284.84 256.007C285.103 256.196 285.42 256.295 285.744 256.291C286.058 256.253 286.351 256.115 286.582 255.899C286.956 255.553 287.285 255.162 287.562 254.734C288.1 253.919 288.559 253.056 288.933 252.154Z" fill="#263238"/>
<path d="M278.614 248.116C278.69 248.682 282.076 250.783 282.468 250.783C282.86 250.783 286.322 248.693 286.409 248.126C286.496 247.56 283.339 247.354 282.533 247.354C281.728 247.354 278.549 247.56 278.614 248.116Z" fill="#FF9BBC"/>
<path d="M304.738 248.658C307.242 248.527 309.735 248.495 312.228 248.516C314.721 248.538 317.203 248.593 319.696 248.756C320.937 248.756 322.178 248.908 323.419 248.995C324.66 249.083 325.901 249.213 327.142 249.355C329.624 249.594 332.084 249.964 334.556 250.313C333.336 250.04 332.117 249.768 330.887 249.551C329.657 249.333 328.427 249.126 327.186 248.963C324.714 248.614 322.211 248.408 319.718 248.255C317.225 248.103 314.721 248.07 312.217 248.135C310.965 248.135 309.724 248.212 308.472 248.288C307.22 248.364 305.936 248.484 304.738 248.658Z" fill="#263238"/>
<path d="M305.719 250.127C306.807 250.214 307.961 250.302 309.083 250.41C310.204 250.519 311.325 250.606 312.436 250.737C314.613 250.966 316.91 251.216 319.131 251.543C320.219 251.684 321.308 251.858 322.462 252.022L325.782 252.577L327.448 252.871L329.102 253.197C330.191 253.393 331.279 253.665 332.368 253.872C330.191 253.219 328.014 252.653 325.836 252.196C323.659 251.739 321.406 251.368 319.174 251.053C316.942 250.737 314.7 250.497 312.446 250.345C310.193 250.193 307.972 250.095 305.719 250.127Z" fill="#263238"/>
<path d="M305.039 251.523C305.964 251.709 306.879 251.883 307.804 252.09C308.729 252.296 309.633 252.471 310.547 252.688C312.365 253.102 314.194 253.526 315.991 253.984C317.787 254.441 319.616 254.909 321.434 255.399C323.252 255.889 325.037 256.411 326.877 256.901C326.006 256.553 325.124 256.226 324.242 255.911C323.36 255.595 322.457 255.301 321.564 255.029C319.779 254.441 317.961 253.94 316.121 253.494C314.281 253.047 312.463 252.645 310.613 252.307C308.762 251.97 306.911 251.687 305.039 251.523Z" fill="#263238"/>
<path d="M247.336 252.711C245.801 252.515 244.255 252.417 242.709 252.308C241.163 252.199 239.607 252.177 238.061 252.145C234.958 252.145 231.856 252.145 228.753 252.362C225.651 252.58 222.57 252.841 219.5 253.277C217.965 253.484 216.43 253.745 214.906 254.006C214.144 254.137 213.382 254.3 212.631 254.463L210.355 254.942C213.414 254.474 216.473 253.984 219.543 253.658C221.089 253.484 222.624 253.342 224.159 253.19C225.694 253.037 227.24 252.939 228.786 252.863C231.877 252.645 234.969 252.569 238.061 252.536C241.152 252.504 244.244 252.547 247.336 252.711Z" fill="#263238"/>
<path d="M246.138 254.549C243.34 254.549 240.553 254.69 237.766 254.897C234.979 255.104 232.203 255.452 229.427 255.822C226.652 256.193 223.908 256.693 221.176 257.281C218.443 257.869 215.733 258.555 213.055 259.35C214.415 259.067 215.765 258.718 217.148 258.468L219.195 258.043L221.252 257.662C222.613 257.401 223.995 257.172 225.367 256.933C226.739 256.693 228.121 256.497 229.504 256.323C232.258 255.91 235.023 255.583 237.799 255.235C239.192 255.082 240.575 254.941 241.968 254.821C243.362 254.701 244.744 254.647 246.138 254.549Z" fill="#263238"/>
<path d="M246.988 256.27C244.669 256.498 242.372 256.89 240.086 257.358C237.8 257.826 235.525 258.327 233.26 258.882C230.996 259.437 228.764 260.08 226.543 260.798C225.455 261.147 224.366 261.528 223.278 261.887C222.189 262.246 221.1 262.681 220.012 263.106C222.254 262.453 224.475 261.778 226.718 261.157C228.96 260.537 231.192 259.916 233.456 259.361C235.72 258.806 237.963 258.273 240.227 257.728C241.316 257.467 242.503 257.228 243.635 256.988C244.767 256.749 245.845 256.487 246.988 256.27Z" fill="#263238"/>
<path d="M299.854 230.317C299.606 229.59 299.191 228.933 298.643 228.396C298.095 227.859 297.428 227.458 296.697 227.225C295.985 226.942 295.218 226.823 294.453 226.875C293.688 226.928 292.944 227.152 292.277 227.53C292.908 227.867 293.559 228.165 294.226 228.423C296.065 229.158 297.944 229.79 299.854 230.317Z" fill="#263238"/>
<path d="M250.613 232.079C252.483 231.452 254.318 230.725 256.111 229.902C256.758 229.602 257.387 229.263 257.994 228.889C257.305 228.556 256.55 228.383 255.784 228.383C255.019 228.383 254.263 228.556 253.574 228.889C252.859 229.164 252.219 229.602 251.705 230.17C251.19 230.737 250.817 231.417 250.613 232.155V232.079Z" fill="#263238"/>
<path d="M275.944 271.586C278.066 270.999 280.047 269.988 281.768 268.614C281.888 268.506 282.182 268.669 282.171 268.854C282.171 269.344 282.171 270.716 282.171 270.922C282.269 270.846 284.903 269.017 286.525 262.986H286.623C286.798 269.779 281.986 272.163 281.507 272.294C281.028 272.425 281.267 270.215 281.289 269.943C279.842 271.172 277.983 271.81 276.086 271.728C275.955 271.761 275.846 271.586 275.944 271.586Z" fill="#263238"/>
<path d="M307.895 258.654C304.749 262.878 301.755 267.646 297.357 270.629C282.312 276.072 265.548 276.638 249.828 274.156C247.488 273.656 245.212 271.729 243.22 270.303C236.854 265.437 231.337 259.551 226.891 252.885C225.823 251.285 224.974 249.549 224.365 247.725C224.736 244.513 226.477 241.498 227.827 238.537C230.183 233.692 232.781 228.969 235.611 224.385C232.515 228.809 229.687 233.415 227.141 238.178C225.661 241.247 223.745 244.252 223.32 247.736C223.339 248.136 223.439 248.529 223.614 248.89C226.249 255.595 231.235 261.115 236.231 266.09C239.149 268.963 242.318 271.568 245.702 273.873C246.874 274.734 248.213 275.342 249.632 275.659C260.372 277.377 271.318 277.359 282.051 275.604C287.434 274.748 292.704 273.287 297.76 271.25C302.169 267.984 304.977 263.129 307.938 258.633L307.895 258.654Z" fill="#263238"/>
<path d="M296.561 211.832C295.499 210.319 294.184 209.001 292.675 207.935C289.921 206.487 286.742 206.204 283.737 205.757C278.897 205.237 274.029 205.015 269.161 205.093C264.284 205.065 259.41 205.363 254.573 205.986C250.959 206.465 246.953 207.401 244.939 210.809C244.188 211.767 243.48 212.757 242.762 213.77C244.255 211.902 245.949 210.205 247.813 208.708C254.443 206.106 262.074 206.922 269.128 206.596C273.951 206.541 278.784 206.596 283.585 206.9C286.568 206.976 289.525 207.49 292.359 208.424C293.905 209.345 295.307 210.49 296.518 211.821L296.561 211.832Z" fill="#263238"/>
<path d="M250.42 206.923C245.956 202.527 241.171 198.47 236.105 194.785C234.113 193.446 232.077 191.933 229.649 191.443C226.721 190.942 225.872 195.231 225.23 197.223C223.54 204.922 222.748 212.791 222.867 220.672C223.826 226.873 225.245 232.993 227.113 238.983C226.024 232.886 224.576 226.725 224.021 220.585C224.182 212.846 225.057 205.139 226.634 197.561C227.124 195.852 227.494 193.914 228.811 192.803C229.018 192.673 229.116 192.662 229.497 192.738C231.674 193.195 233.557 194.578 235.484 195.721C240.677 199.117 245.554 203.047 250.442 206.901L250.42 206.923Z" fill="#263238"/>
<path opacity="0.1" d="M296.556 271.467C296.707 271.399 296.852 271.318 296.991 271.228C301.552 268.321 307.627 259.928 311.143 253.059C307.632 252.604 304.078 253.482 301.182 255.519C295.848 259.405 295.663 266.144 296.556 271.467Z" fill="black"/>
<path d="M173.953 229.793C178.449 225.199 205.61 213.268 213.143 220.659C220.676 228.051 218.281 254.787 196.367 270.159C196.367 270.159 201.582 271.835 203.062 273.218C204.543 274.6 205.86 278.791 204.946 279.63C204.031 280.468 196.912 280.892 195.148 280.718C190.445 279.364 185.867 277.608 181.464 275.471C180.049 274.47 183.641 271.04 183.641 271.04C183.641 271.04 168.401 273.795 163.11 255.735C161.564 250.237 167.062 236.814 173.953 229.793Z" fill="#DBDBDB"/>
<path d="M163.142 255.691C168.389 273.751 183.663 270.997 183.663 270.997C183.663 270.997 180.07 274.426 181.486 275.417C185.885 277.565 190.464 279.325 195.169 280.675C196.933 280.904 204.042 280.468 204.967 279.586C205.892 278.705 204.575 274.579 203.105 273.196C201.636 271.814 196.4 270.115 196.4 270.115L197.129 269.593C204.861 264.032 210.804 256.337 214.231 247.45C218.586 235.998 217.617 224.971 213.142 220.638C205.587 213.235 178.437 225.166 173.952 229.76C167.072 236.826 161.553 250.248 163.142 255.691Z" fill="#DBDBDB"/>
<path d="M201.203 273.764C201.702 274.126 202.145 274.559 202.521 275.048C202.863 275.602 203.099 276.215 203.217 276.855C203.353 277.575 203.353 278.313 203.217 279.033C203.172 279.643 202.919 280.22 202.499 280.665C202.401 280.742 202.237 280.611 202.303 280.502C202.498 279.327 202.498 278.128 202.303 276.953C202.239 276.437 202.118 275.93 201.944 275.44C201.792 274.874 201.508 274.352 201.116 273.916C201.029 273.84 201.127 273.764 201.203 273.764Z" fill="#263238"/>
<path d="M196.368 273.764C196.94 274.144 197.454 274.606 197.892 275.135C198.31 275.7 198.607 276.345 198.763 277.03C198.969 277.701 198.984 278.416 198.805 279.095C198.626 279.774 198.261 280.39 197.751 280.872C197.696 280.872 197.609 280.872 197.642 280.774C197.967 280.202 198.122 279.549 198.088 278.891C198.106 278.293 198.059 277.694 197.947 277.106C197.815 276.535 197.622 275.98 197.37 275.451C197.119 274.859 196.748 274.325 196.281 273.883C196.183 273.818 196.292 273.764 196.368 273.764Z" fill="#263238"/>
<path d="M178.353 227.04C180.737 225.345 183.261 223.856 185.897 222.587L185.32 222.696C184.166 222.947 183.012 223.23 181.858 223.535C181.782 223.535 181.717 223.447 181.793 223.404C182.822 222.746 183.98 222.315 185.189 222.141C185.8 222.061 186.414 222.014 187.029 222H187.116C190.183 220.609 193.377 219.515 196.652 218.734C202.618 217.319 210.663 215.936 214.626 222C216.259 224.81 217.168 227.982 217.271 231.231C217.533 234.88 217.261 238.547 216.465 242.117C214.751 249.27 211.534 255.976 207.027 261.789C204.914 264.768 202.152 267.228 198.949 268.984C197.421 269.78 195.802 270.386 194.127 270.791C192.432 271.159 190.701 271.338 188.967 271.325C188.869 271.325 188.858 271.172 188.967 271.172C191.941 270.966 194.838 270.135 197.469 268.734C200.228 267.337 202.678 265.401 204.676 263.04C206.913 260.337 208.878 257.42 210.543 254.332C212.225 251.331 213.583 248.16 214.593 244.871C215.64 241.458 216.201 237.914 216.258 234.345C216.375 231.071 215.854 227.806 214.723 224.732C214.226 223.337 213.385 222.09 212.277 221.106C211.17 220.122 209.832 219.433 208.388 219.104C205.231 218.44 201.856 219.039 198.743 219.616C191.59 220.956 184.727 223.535 178.462 227.236C178.353 227.247 178.255 227.105 178.353 227.04Z" fill="#263238"/>
<path opacity="0.1" d="M189.759 255.954C189.661 263.041 195.006 267.929 197.118 269.627C204.85 264.066 210.793 256.371 214.22 247.484C204.564 237.153 189.955 242.836 189.759 255.954Z" fill="black"/>
<path d="M87.5892 418.061C100.119 418.508 121.543 411.965 127.596 411.639C133.649 411.312 155.138 418.072 159.09 417.55C169.508 416.167 183.268 392.239 183.888 383.149C184.509 374.059 175.8 339.082 149.466 325.366C128.489 314.479 100.805 332.072 92.6295 338.984C92.6295 338.984 82.0591 339.148 77.7808 343.981L70.7266 399.838L87.5892 418.061Z" fill="white"/>
<path d="M175.301 352.886C173.452 354.565 171.434 356.05 169.281 357.316C162.571 361.273 154.65 362.655 146.997 361.203C141.715 360.208 136.723 358.041 132.389 354.86C128.056 351.68 124.492 347.568 121.959 342.827C119.139 337.336 117.56 331.294 117.332 325.126C118.203 324.81 119.096 324.516 119.999 324.244C129.633 321.305 140.226 320.554 149.501 325.333C157.794 329.816 164.862 336.264 170.086 344.111C172.011 346.921 173.753 349.852 175.301 352.886Z" fill="#05C067"/>
<path d="M181.547 368.658C176.948 366.726 173.024 363.476 170.269 359.318C169.872 358.683 169.537 358.013 169.267 357.315C167.95 353.951 167.874 349.422 170.062 344.143C171.988 346.931 173.734 349.84 175.287 352.852C177.873 357.909 179.969 363.202 181.547 368.658Z" fill="#05C067"/>
<path opacity="0.4" d="M181.547 368.658C176.948 366.726 173.024 363.476 170.269 359.318C169.872 358.683 169.537 358.013 169.267 357.315C167.95 353.951 167.874 349.422 170.062 344.143C171.988 346.931 173.734 349.84 175.287 352.852C177.873 357.909 179.969 363.202 181.547 368.658Z" fill="black"/>
<path d="M121.96 342.827C120.942 345.558 119.381 348.054 117.372 350.165C115.362 352.275 112.946 353.957 110.268 355.107C102.778 358.275 90.8687 357.796 77.6094 345.309L77.7835 343.959C82.0727 339.126 92.6432 338.963 92.6432 338.963C100.033 332.996 108.371 328.312 117.311 325.104C118.182 324.789 119.075 324.495 119.978 324.223C121.712 326.965 122.792 330.068 123.135 333.294C123.479 336.52 123.077 339.781 121.96 342.827Z" fill="#05C067"/>
<path opacity="0.4" d="M121.96 342.827C120.942 345.558 119.381 348.054 117.372 350.165C115.362 352.275 112.946 353.957 110.268 355.107C102.778 358.275 90.8687 357.796 77.6094 345.309L77.7835 343.959C82.0727 339.126 92.6432 338.963 92.6432 338.963C100.033 332.996 108.371 328.312 117.311 325.104C118.182 324.789 119.075 324.495 119.978 324.223C121.712 326.965 122.792 330.068 123.135 333.294C123.479 336.52 123.077 339.781 121.96 342.827Z" fill="black"/>
<path d="M92.6445 338.983C105.49 328.913 123.888 318.299 140.772 321.565C158.31 325.702 171.352 340.246 178.068 356.401C180.879 362.864 182.875 369.651 184.012 376.606C184.36 379.218 184.883 381.962 184.197 384.585C181.288 395.674 175.217 405.678 166.725 413.379C174.596 405.378 180.659 395.341 183.141 384.367C183.729 381.885 183.141 379.305 182.782 376.747C181.522 369.949 179.491 363.316 176.729 356.978C169.991 341.4 157.461 327.106 140.467 322.991C123.801 319.725 105.915 329.664 92.6445 338.983Z" fill="#263238"/>
<path d="M86.7308 395.223C78.9472 393.514 57.73 400.906 54.9649 402.985C52.1998 405.064 45.4722 413.871 48.0631 417.932C50.654 421.992 61.1265 416.244 61.8123 416.103C62.4982 415.961 84.6733 420.577 97.9326 416.32C105.738 413.827 86.7308 395.223 86.7308 395.223Z" fill="white"/>
<path d="M86.7294 395.222C81.406 394.525 76.1045 396.06 71.0097 397.399C65.8727 398.767 60.8672 400.589 56.0522 402.842C53.8749 404.094 52.2529 406.456 50.805 408.514C49.3572 410.571 48.0944 413.129 47.9964 415.611C48.1053 421.914 57.2387 417.516 60.4611 416.123L61.5497 415.644C61.9081 415.563 62.2799 415.563 62.6383 415.644C72.4358 417.19 82.5055 418.344 92.4011 417.114C94.3491 416.859 96.2696 416.425 98.1381 415.818C103.734 412.999 89.2767 398.019 86.7076 395.211L86.7294 395.222ZM86.7294 395.222C89.7884 398.259 105.083 413.042 98.4647 416.493C96.54 417.162 94.5575 417.65 92.5426 417.952C82.5382 419.378 72.4249 418.191 62.5077 416.722C62.2899 416.722 62.1049 416.722 61.9416 416.635H61.8436C59.1243 418.009 56.242 419.033 53.2653 419.683C50.805 420.194 47.5283 419.683 47.1146 416.624C46.5703 411.66 51.1534 405.64 54.7349 402.581C59.7861 399.837 65.3598 398.357 70.8573 396.833C76.0174 395.668 81.4169 394.242 86.7185 395.178L86.7294 395.222Z" fill="#263238"/>
<path d="M53.9404 414.564C49.9778 415.435 49.5859 420.127 49.5859 420.127C51.8938 416.992 53.9404 414.564 53.9404 414.564Z" fill="#263238"/>
<path d="M51.1982 411.857C47.2357 412.728 46.8438 417.42 46.8438 417.42C49.1081 414.285 51.1982 411.857 51.1982 411.857Z" fill="#263238"/>
<path d="M31.9054 389.854C20.2898 412.714 39.1882 420.531 42.465 421.739C45.7417 422.947 56.7585 423.731 58.7942 419.333C60.8299 414.935 50.2159 409.296 49.7369 408.828C49.2579 408.36 47.244 403.472 53.4165 397.485C59.2623 391.78 31.9054 389.854 31.9054 389.854Z" fill="white"/>
<path d="M31.9088 389.854C27.9027 397.779 26.4004 408.36 33.1824 415.164C35.4686 417.639 38.2963 419.552 41.4444 420.753C44.5925 421.954 47.9758 422.411 51.3297 422.087C53.5069 421.913 55.8583 421.51 57.4259 420.171C61.4647 416.416 52.2115 411.125 49.4899 409.285C49.2095 409.024 49.003 408.694 48.8912 408.327C47.7264 404.778 49.5552 401.044 51.874 398.475C52.4727 397.692 53.6376 396.995 53.8117 396.015C53.2892 391.955 35.7734 390.376 31.9088 389.854ZM31.9088 389.854C36.4831 390.086 41.0387 390.603 45.5491 391.399C48.3142 392.02 51.3623 392.488 53.7138 394.295C55.7277 396.08 53.7138 397.626 52.5054 399.031C50.3282 401.556 48.4666 405.345 50.056 408.491C53.5287 410.777 63.0214 416.165 58.1553 420.988C56.1523 422.621 53.692 422.937 51.395 423.165C47.8961 423.484 44.3711 422.981 41.1013 421.696C37.8314 420.41 34.9072 418.379 32.5619 415.763C25.7145 408.491 27.391 397.898 31.9088 389.886V389.854Z" fill="#263238"/>
<path d="M52.7109 416.252C55.6067 419.093 59.7761 416.883 59.7761 416.883C55.8679 416.633 52.7109 416.252 52.7109 416.252Z" fill="#263238"/>
<path d="M51.9688 420.084C54.8754 422.914 59.0339 420.705 59.0339 420.705C55.1257 420.454 51.9688 420.084 51.9688 420.084Z" fill="#263238"/>
<path d="M78.5859 341.083C81.7647 336.653 97.4626 322.414 100.358 322.457C103.254 322.501 107.598 344.142 108.185 348.715C108.773 353.287 106.095 368.625 106.095 368.625L78.5859 341.083Z" fill="white"/>
<path d="M79.3398 341.824C81.8437 338.329 93.5681 326.703 95.9086 326.746C98.2491 326.79 101.635 343.892 102.103 347.517C102.571 351.142 100.557 363.03 100.557 363.03L79.3398 341.824Z" fill="#FF9BBC"/>
<path d="M80.3672 338.94C84.4826 334.217 88.9437 329.806 93.7136 325.745C95.586 324.254 97.502 322.589 99.8861 321.914C102.771 321.195 103.947 325.408 104.741 327.357C107.011 334.897 108.403 342.674 108.889 350.533C108.404 356.789 107.458 363 106.059 369.116C106.69 362.954 107.648 356.695 107.735 350.544C106.977 342.847 105.52 335.235 103.381 327.803C102.76 326.137 102.237 324.232 100.855 323.231C100.637 323.111 100.539 323.1 100.158 323.231C97.981 323.862 96.2501 325.408 94.4321 326.671C89.5007 330.459 84.9394 334.748 80.3672 338.961V338.94Z" fill="#263238"/>
<path d="M89.8672 357.589C93.133 350.187 102.702 344.526 110.29 349.229C108.84 348.899 107.365 348.688 105.881 348.597C99.349 348.597 94.0366 352.952 89.8672 357.589Z" fill="#263238"/>
<path d="M87.4609 355.835C91.2711 344.709 103.126 336.24 115.046 338.657C103.279 338.493 93.1871 345.907 87.4609 355.835Z" fill="#263238"/>
<path d="M48.5856 343.064C44.9387 339.014 27.7494 326.604 24.8211 326.985C21.8927 327.366 20.042 349.334 19.9658 353.95C19.8896 358.566 24.2659 373.545 24.2659 373.545L48.5856 343.064Z" fill="white"/>
<path d="M48.5884 343.065C46.2514 340.879 43.7672 338.857 41.1532 337.012C36.287 333.626 31.4645 329.947 25.9778 327.617C25.292 327.421 24.813 327.138 24.3776 327.889C23.1148 330.317 22.7773 333.126 22.2765 335.793C21.2552 342.073 20.6768 348.417 20.5456 354.778C21.2315 361.038 23.0821 367.276 24.7259 373.372L23.8986 373.209C30.9093 364.5 41.3165 351.839 48.5884 343.065ZM48.5884 343.065C41.2729 352.46 31.4318 365.349 24.0728 374.526C22.2439 367.994 20.2517 361.615 19.457 354.855C19.4939 351.624 19.7011 348.397 20.0775 345.188C20.5456 342.074 21.6343 326.823 24.9328 326.572C28.1986 327.138 30.844 329.414 33.6417 331.068C39.019 334.559 44.0399 338.57 48.632 343.043L48.5884 343.065Z" fill="#263238"/>
<path d="M44.9268 347.431C42.042 344.23 29.0983 333.997 26.7796 334.291C24.4608 334.585 23.0021 351.97 22.8932 355.617C22.7843 359.264 26.1591 370.858 26.1591 370.858L44.9268 347.431Z" fill="#FF9BBC"/>
<path d="M39.1576 361.376C35.2277 354.279 25.2234 349.402 18.082 354.845C19.5012 354.381 20.9582 354.042 22.4365 353.832C28.9682 353.212 34.6072 357.098 39.1794 361.453L39.1576 361.376Z" fill="#263238"/>
<path d="M41.3986 359.374C36.6414 348.618 24.1005 341.183 12.4414 344.656C24.1223 343.436 34.8669 349.968 41.3986 359.374Z" fill="#263238"/>
<path d="M110.036 377.4C110.385 382.364 98.1703 398.748 87.7305 406.085C83.3107 409.188 45.6663 410.233 38.8842 406.63C31.5578 402.732 20.8459 388.504 20.3777 383.551C19.877 378.108 32.5049 347.344 38.1766 343.642C45.4813 338.907 79.9577 337.938 83.1909 340.17C91.2576 345.743 109.786 373.699 110.036 377.4Z" fill="white"/>
<path d="M73.6429 408.689C63.1051 409.288 52.4366 409.397 41.975 407.796C38.3717 407.361 35.4433 404.803 32.8959 402.43C29.4806 399.163 26.4258 395.539 23.7842 391.62C22.2057 389.127 20.4204 386.547 19.9414 383.531C19.9961 381.718 20.3076 379.922 20.8667 378.197C23.6022 369.167 27.1928 360.418 31.5896 352.07C33.3749 348.968 34.9317 345.636 37.7838 343.285C43.0527 340.368 49.247 340.085 55.0928 339.322C62.1317 338.63 69.2087 338.404 76.2773 338.648C78.7049 338.865 81.1652 338.724 83.4404 339.791C87.2941 342.675 90.1898 346.431 93.1618 350.132C98.9602 357.553 104.176 365.411 108.762 373.636C109.34 374.677 109.817 375.77 110.188 376.902C110.328 378.123 110.113 379.359 109.567 380.461C106.65 386.928 101.947 392.436 97.2332 397.574C100.413 394.119 103.304 390.409 105.877 386.481C107.16 384.533 108.253 382.466 109.143 380.309C109.624 379.292 109.813 378.161 109.687 377.043C107.51 371.654 103.972 366.843 100.793 361.987C95.3499 354.476 90.0919 346.431 82.8743 340.574C80.8713 339.736 78.3783 339.791 76.2011 339.627C69.1818 339.406 62.1554 339.653 55.169 340.368C49.4973 341.13 43.4229 341.456 38.3499 344.167C35.759 346.344 34.137 349.61 32.4605 352.56C28.0989 360.83 24.5305 369.494 21.8029 378.436C21.2649 380.063 20.9464 381.755 20.8558 383.466C21.3022 386.274 22.9786 388.767 24.4701 391.184C27.0444 395.088 30.0258 398.708 33.3641 401.983C35.9005 404.346 38.5568 406.806 42.073 407.307C52.4693 409.07 63.1377 409.125 73.6429 408.689Z" fill="#263238"/>
<path d="M107.315 371.566C100.402 377.401 85.9781 381.363 77.7155 377.978C66.4374 373.308 60.8964 359.003 62.0067 339.31C72.022 338.733 81.6018 339.049 83.1803 340.17C89.3963 344.525 101.817 362.029 107.315 371.566Z" fill="#05C067"/>
<path opacity="0.4" d="M107.315 371.566C100.402 377.401 85.9781 381.363 77.7155 377.978C66.4374 373.308 60.8964 359.003 62.0067 339.31C72.022 338.733 81.6018 339.049 83.1803 340.17C89.3963 344.525 101.817 362.029 107.315 371.566Z" fill="black"/>
<path d="M53.6478 360.854C47.606 367.734 37.5254 369.791 25.1914 367.276C29.2411 357.12 34.891 345.809 38.1895 343.653C41.488 341.498 50.1098 340.17 58.9494 339.506C59.4828 347.268 57.8172 356.096 53.6478 360.854Z" fill="#05C067"/>
<path d="M48.9141 388.07C49.4812 388.855 50.088 389.611 50.7321 390.334C51.0587 390.683 51.4239 390.993 51.8207 391.259C51.9617 391.36 52.1272 391.42 52.2997 391.434C52.4585 391.401 52.6054 391.326 52.7242 391.216C53.0392 390.902 53.2939 390.533 53.4754 390.127C53.6765 389.711 53.851 389.282 53.9979 388.843C54.3065 387.949 54.5574 387.036 54.749 386.11L55.0865 384.412L55.707 386.023C56.1043 387.107 56.5923 388.156 57.1658 389.158C57.4558 389.643 57.7873 390.102 58.1564 390.53C58.4803 390.929 58.9107 391.227 59.3974 391.39H59.5607H59.724C59.8495 391.376 59.9734 391.351 60.0942 391.314C60.352 391.241 60.5977 391.131 60.8235 390.987C61.3069 390.686 61.7464 390.32 62.1299 389.899C62.9296 389.031 63.6374 388.082 64.2418 387.068C63.802 388.204 63.2086 389.273 62.4782 390.247C62.105 390.744 61.6654 391.187 61.1719 391.564C60.6389 392.004 59.9555 392.219 59.2668 392.163C58.5993 392.018 57.994 391.668 57.5359 391.162C57.1018 390.71 56.7118 390.218 56.3711 389.692C55.7202 388.656 55.1663 387.563 54.7164 386.426L55.6744 386.339C55.4679 387.317 55.1877 388.277 54.8361 389.213C54.6457 389.684 54.4239 390.143 54.1721 390.585C53.8999 391.067 53.5289 391.486 53.0835 391.815C52.8263 392.011 52.5141 392.121 52.1908 392.13C51.8751 392.103 51.577 391.973 51.3417 391.76C50.9557 391.442 50.6118 391.077 50.3184 390.672C49.7716 389.849 49.3015 388.978 48.9141 388.07Z" fill="#263238"/>
<path d="M58.8174 383.463C58.8174 384.029 55.4427 386.239 55.0508 386.25C54.6589 386.261 51.197 384.291 51.0664 383.714C50.9358 383.137 54.1145 382.843 54.9201 382.821C55.7257 382.799 58.9153 382.908 58.8174 383.463Z" fill="#263238"/>
<path d="M29.5995 386.109C27.0957 386.175 24.6136 386.338 22.1316 386.545C19.6495 386.752 17.1675 387.002 14.6963 387.361C13.4662 387.503 12.2361 387.699 11.0059 387.884C9.77578 388.069 8.54564 388.298 7.3155 388.526C4.86611 388.951 2.4385 389.517 0 390.05C1.18659 389.691 2.38407 389.321 3.59243 389.016C4.8008 388.711 6.02005 388.406 7.2393 388.145C9.68869 387.612 12.1598 387.209 14.631 386.861C17.1022 386.512 19.606 386.294 22.0989 386.164C23.3545 386.099 24.6064 386.055 25.8546 386.033C27.0957 386.033 28.3367 386.033 29.5995 386.109Z" fill="#263238"/>
<path d="M28.7407 387.656C27.6521 387.83 26.5635 387.994 25.4096 388.19L22.0893 388.767C19.912 389.18 17.6695 389.605 15.4814 390.095C14.3928 390.323 13.3041 390.574 12.2155 390.824L8.94967 391.641L7.31674 392.054L5.68382 392.511C4.5952 392.784 3.50659 393.143 2.41797 393.437C4.519 392.62 6.65269 391.88 8.81904 391.26C10.9854 390.639 13.1735 390.084 15.3507 389.594C17.528 389.104 19.7705 388.712 22.0022 388.386C24.2338 388.059 26.4873 387.787 28.7407 387.656Z" fill="#263238"/>
<path d="M29.5205 388.996C28.6169 389.246 27.7134 389.497 26.8207 389.769C25.928 390.041 25.0245 390.292 24.1318 390.575C22.3356 391.13 20.5503 391.663 18.7758 392.284C17.0014 392.904 15.2705 393.514 13.4634 394.113C11.6563 394.711 9.94715 395.397 8.18359 396.029C9.02183 395.615 9.87095 395.223 10.731 394.842C11.591 394.461 12.4619 394.102 13.3328 393.753C15.0637 393.035 16.8381 392.414 18.6234 391.805C20.4088 391.195 22.205 390.716 24.0665 390.204C25.8634 389.712 27.6836 389.308 29.5205 388.996Z" fill="#263238"/>
<path d="M90.7031 384.801C92.2163 384.485 93.7513 384.267 95.2862 384.039C96.8211 383.81 98.367 383.669 99.9128 383.527C102.994 383.244 106.096 383.092 109.199 383.026C112.301 382.961 115.404 383.026 118.496 383.233C120.052 383.309 121.598 383.451 123.133 383.603C123.906 383.669 124.679 383.777 125.441 383.875L127.749 384.191C124.657 383.952 121.576 383.701 118.485 383.614C116.939 383.549 115.393 383.527 113.847 383.494C112.301 383.462 110.755 383.494 109.21 383.494C106.118 383.494 103.026 383.679 99.9346 383.875C96.8429 384.071 93.773 384.42 90.7031 384.801Z" fill="#263238"/>
<path d="M92.0312 386.567C94.8181 386.339 97.6158 386.273 100.414 386.273C103.211 386.273 105.998 386.393 108.796 386.556C111.594 386.72 114.37 387.003 117.135 387.373C119.9 387.743 122.665 388.222 125.397 388.81C124.004 388.636 122.632 388.385 121.25 388.244L119.17 387.983L117.091 387.754C115.709 387.602 114.315 387.482 112.933 387.351C111.55 387.221 110.157 387.133 108.763 387.057C105.976 386.861 103.19 386.742 100.403 386.665C99.0093 386.665 97.6159 386.589 96.2224 386.578C94.829 386.567 93.4356 386.556 92.0312 386.567Z" fill="#263238"/>
<path d="M91.3242 388.338C93.6539 388.392 95.9726 388.61 98.2914 388.86C100.61 389.111 102.907 389.47 105.204 389.851C107.501 390.232 109.787 390.7 112.051 391.245C113.14 391.506 114.316 391.8 115.448 392.083C116.58 392.366 117.691 392.714 118.801 393.052C116.526 392.573 114.25 392.061 111.975 391.626C109.7 391.19 107.414 390.733 105.117 390.341C102.82 389.949 100.534 389.59 98.2369 389.252C97.1483 389.078 95.94 388.926 94.786 388.773L91.3242 388.338Z" fill="#263238"/>
<path d="M35.0938 368.113C35.2835 367.368 35.6467 366.677 36.1536 366.098C36.6606 365.519 37.2971 365.068 38.0112 364.782C38.7002 364.449 39.4557 364.275 40.2211 364.275C40.9866 364.275 41.742 364.449 42.431 364.782C41.8297 365.166 41.2042 365.512 40.5586 365.816C38.7872 366.689 36.9702 367.467 35.1155 368.146L35.0938 368.113Z" fill="#263238"/>
<path d="M81.5196 365.087C79.6035 364.597 77.7171 363.997 75.8697 363.291C75.199 363.046 74.5445 362.759 73.9102 362.431C74.5628 362.05 75.2917 361.818 76.0446 361.752C76.7976 361.686 77.5557 361.788 78.2646 362.05C78.9985 362.27 79.6703 362.66 80.2262 363.188C80.7821 363.715 81.2064 364.366 81.4652 365.087H81.5196Z" fill="#263238"/>
<path d="M67.7217 406.368C65.5594 405.944 63.5046 405.088 61.6799 403.853C61.5493 403.755 61.2771 403.94 61.2989 404.125C61.2989 404.604 61.4731 405.976 61.4948 406.183C61.386 406.118 58.6209 404.495 56.5198 398.562H56.4219C56.7702 405.345 61.7561 407.348 62.2351 407.446C62.7141 407.544 62.3222 405.355 62.2351 405.094C63.7704 406.253 65.6898 406.782 67.602 406.575C67.7217 406.575 67.8197 406.39 67.7217 406.368Z" fill="#263238"/>
<path d="M34.8711 380.504C36.4496 384.859 40.5101 390.705 43.776 383.999C44.5024 382.466 45.1386 380.892 45.6811 379.285C45.7279 381.043 45.4549 382.795 44.8755 384.456C44.0264 387.428 41.0436 389.845 38.0716 387.722C35.8944 386.024 35.0344 383.117 34.8711 380.504Z" fill="#263238"/>
<path d="M70.2132 377.182C71.3018 382.821 75.6563 390.441 80.7293 383.006C81.8679 381.295 82.869 379.497 83.723 377.628C83.4242 379.733 82.7533 381.767 81.7417 383.637C80.1305 386.99 76.2986 389.08 73.1416 386.206C70.7031 383.898 70.1153 380.317 70.2132 377.182Z" fill="#263238"/>
<path d="M164.654 368.072C162.064 362.183 138.473 362.52 127.641 369.161C118.628 374.68 110.224 391.847 125.344 413.957C125.344 413.957 119.901 413.685 117.996 414.458C116.091 415.231 113.413 418.682 113.979 419.792C114.545 420.903 121.055 423.809 122.775 424.234C127.653 424.624 132.555 424.595 137.428 424.147C139.116 423.711 136.949 419.237 136.949 419.237C136.949 419.237 158.645 424.31 169.923 409.276C173.363 404.693 168.617 377.075 164.654 368.072Z" fill="white"/>
<path d="M119.594 415.632C118.999 415.791 118.431 416.037 117.907 416.361C117.393 416.76 116.957 417.251 116.623 417.809C116.247 418.42 115.988 419.096 115.86 419.801C115.685 420.386 115.719 421.014 115.958 421.576C115.969 421.606 115.99 421.631 116.019 421.646C116.047 421.66 116.081 421.662 116.111 421.652C116.141 421.642 116.166 421.62 116.181 421.592C116.195 421.563 116.197 421.53 116.187 421.5C116.437 420.349 116.871 419.247 117.472 418.234C117.712 417.771 118.008 417.34 118.353 416.949C118.692 416.488 119.137 416.115 119.649 415.861C119.664 415.857 119.678 415.851 119.691 415.842C119.703 415.833 119.714 415.821 119.722 415.808C119.73 415.795 119.735 415.78 119.738 415.765C119.74 415.75 119.74 415.734 119.736 415.719C119.732 415.704 119.726 415.69 119.717 415.678C119.708 415.665 119.696 415.654 119.683 415.646C119.67 415.638 119.656 415.633 119.64 415.63C119.625 415.628 119.609 415.629 119.594 415.632Z" fill="#263238"/>
<path d="M124.132 417.309C123.462 417.456 122.82 417.706 122.226 418.049C121.638 418.428 121.134 418.925 120.746 419.508C120.317 420.063 120.051 420.727 119.978 421.425C119.904 422.123 120.027 422.827 120.332 423.459C120.332 423.514 120.485 423.459 120.463 423.405C120.372 422.755 120.459 422.093 120.713 421.489C120.911 420.925 121.17 420.385 121.486 419.878C121.798 419.389 122.163 418.936 122.575 418.528C123.027 418.063 123.568 417.693 124.164 417.439C124.177 417.442 124.19 417.442 124.203 417.439C124.216 417.435 124.227 417.428 124.236 417.419C124.246 417.41 124.252 417.398 124.256 417.386C124.259 417.373 124.26 417.36 124.256 417.347C124.253 417.334 124.247 417.322 124.238 417.313C124.229 417.303 124.217 417.296 124.205 417.292C124.192 417.289 124.179 417.288 124.166 417.291C124.153 417.294 124.141 417.3 124.132 417.309Z" fill="#263238"/>
<path d="M114.012 418.922C116.341 413.61 120.119 412.956 125.431 413.479L125.039 414.11C113.489 397.4 111.976 370.99 135.643 365.014C142.054 363.451 148.707 363.137 155.238 364.088C143.023 363.566 127.543 365.264 121.262 377.152C115.122 388.746 119.455 402.963 125.769 413.62L126.237 414.372L125.377 414.252C120.141 413.512 116.809 413.827 114.066 418.846L114.012 418.922Z" fill="#263238"/>
<path d="M178.805 393.969C182.277 395.743 190.54 395.057 199.14 394.959C207.914 394.851 210.026 403.004 208.851 407.544C206.978 414.947 192.608 423.351 172.708 426.834C152.809 430.318 118.539 432.92 100.424 427.553C82.3097 422.186 81.1994 412.813 83.3766 405.301C86.1417 395.798 100.272 391.432 119.105 394.165C131.602 395.972 153.277 401.078 166.079 402.558L178.805 393.969Z" fill="white"/>
<path d="M208.858 407.544C206.985 414.947 192.616 423.351 172.716 426.834C160.547 428.881 148.254 430.111 135.92 430.514C122.596 430.927 109.489 430.242 100.421 427.553C82.2951 422.186 81.1956 412.813 83.3837 405.301C86.1488 395.798 100.268 391.432 119.101 394.165C124.196 394.905 130.793 396.179 137.706 397.55C147.775 399.532 158.498 401.676 166.086 402.558L178.801 393.969C182.285 395.743 190.547 395.057 199.136 394.959C207.954 394.851 210.001 403.004 208.858 407.544Z" fill="white"/>
<path d="M135.92 430.525C122.596 430.939 109.489 430.253 100.421 427.564C82.2951 422.198 81.1956 412.825 83.3837 405.313C86.1488 395.809 100.268 391.444 119.101 394.177C124.196 394.917 130.793 396.19 137.706 397.562C140.46 405.139 142.06 416.7 135.92 430.525Z" fill="#05C067"/>
<path opacity="0.4" d="M135.92 430.525C122.596 430.939 109.489 430.253 100.421 427.564C82.2951 422.198 81.1956 412.825 83.3837 405.313C86.1488 395.809 100.268 391.444 119.101 394.177C124.196 394.917 130.793 396.19 137.706 397.562C140.46 405.139 142.06 416.7 135.92 430.525Z" fill="black"/>
<path d="M178.807 393.97C184.25 395.929 190.172 394.862 195.8 394.895C198.631 394.83 201.679 394.481 204.28 395.907C208.918 398.281 210.649 404.616 208.504 409.265C201.82 420.902 181.126 425.997 168.617 427.913C147.836 430.852 100.122 436.426 85.3599 419.509C81.4083 414.98 81.3212 408.132 83.9339 402.918C86.7969 397.638 92.7408 395.167 98.3145 393.991C109.68 391.651 121.23 394.057 132.41 396.234C142.327 398.226 156.185 401.285 166.081 402.559C156.218 401.47 142.197 398.574 132.334 396.756C121.219 394.677 109.734 392.326 98.4887 394.699C93.1327 395.853 87.3848 398.259 84.6959 403.299C82.2683 408.198 82.3336 414.697 86.0893 418.932C100.132 435.076 148.467 429.894 168.53 427.107C180.32 425.485 203.312 419.824 208.406 408.056C209.811 403.843 208.178 398.4 204.128 396.256C201.646 394.83 198.685 395.167 195.833 395.167C190.215 395.047 184.206 396.027 178.839 393.98L178.807 393.97Z" fill="#263238"/>
<path d="M84.8469 418.114C83.3549 415.857 82.4978 413.239 82.3657 410.537C82.2335 407.834 82.8311 405.146 84.0957 402.754C86.8064 397.931 92.0426 395.188 97.2244 393.816C102.406 392.444 107.926 392.727 113.26 393.119C118.594 393.511 123.852 394.208 129.11 395.057C139.593 396.799 150.001 398.9 160.408 400.925C165.568 402.057 170.803 402.814 176.073 403.189C181.266 403.396 186.828 403.32 191.542 400.881C189.234 402.235 186.675 403.106 184.02 403.439C176.084 404.746 167.995 403.439 160.179 402.155C149.707 400.391 139.321 398.279 128.849 396.712C118.561 395.242 107.806 393.087 97.5184 395.079C92.5543 396.233 87.5031 398.715 84.7924 403.2C83.4721 405.471 82.7766 408.051 82.7766 410.679C82.7766 413.306 83.4721 415.886 84.7924 418.157L84.8469 418.114Z" fill="#263238"/>
<path d="M203.481 96.0924C201.413 107.697 191.212 117.201 191.212 117.201C191.212 117.201 177.496 114.686 169.527 106.01C162.865 98.7813 162.854 88.8749 168.874 84.945C177.507 79.3168 184.757 95.1018 184.757 95.1018C184.757 95.1018 182.362 77.8907 192.682 77.9887C199.867 78.054 205.19 86.4146 203.481 96.0924Z" fill="#05C067"/>
<path d="M234.38 50.5975C227.206 55.4745 216.962 54.9519 216.962 54.9519C216.962 54.9519 211.247 46.4281 211.715 37.7736C212.096 30.556 217.31 25.4504 222.47 26.6044C229.873 28.2591 225.29 40.1903 225.29 40.1903C225.29 40.1903 233.128 30.0879 238.353 35.5746C242.033 39.4718 240.356 46.5696 234.38 50.5975Z" fill="#05C067"/>
<path d="M196.676 10.9835C193.769 15.9476 187.51 18.6038 187.51 18.6038C187.51 18.6038 181.675 15.142 179.487 9.89486C177.658 5.46419 179.323 0.935547 182.753 0.0973124C187.651 -0.991304 188.305 7.41282 188.305 7.41282C188.305 7.41282 190.112 -0.849784 194.836 0.935548C198.059 2.13303 199.082 6.85762 196.676 10.9835Z" fill="#05C067"/>
</svg>
