<svg width="156" height="164" viewBox="0 0 156 164" fill="none" xmlns="http://www.w3.org/2000/svg">
<path d="M12.4453 124.106L13.6499 124.356L15.5122 128.562L15.0148 130.963C15.0148 130.963 16.8524 131.464 17.2841 128.274C17.7157 125.084 17.7897 125.935 17.7897 125.935C17.7897 125.935 21.7446 126.757 22.1434 126.465C22.4312 126.264 23.3767 122.354 23.8413 120.245C23.9726 119.737 23.9307 119.199 23.7222 118.718C23.5137 118.236 23.1506 117.838 22.6902 117.585C22.5598 117.52 22.4217 117.472 22.2791 117.441C21.2965 117.236 16.1124 116.989 16.1124 116.989L14.0363 116.578L12.4453 124.106Z" fill="#EBEBEB"/>
<path d="M8.86328 124.059L11.3135 115.984L13.3732 116.412L11.6958 124.478L8.86328 124.059Z" fill="#EBEBEB"/>
<path d="M145.747 71.4863L148.891 77.8553L155.92 78.874L150.833 83.8358L152.035 90.8351L145.747 87.5297L139.466 90.8351L140.661 83.8358L135.574 78.874L142.603 77.8553L145.747 71.4863Z" fill="#E0E0E0"/>
<path d="M145.768 12.6621L147.849 16.8763L152.496 17.5506L149.132 20.8267L149.923 25.4587L145.768 23.2746L141.612 25.4587L142.404 20.8267L139.047 17.5506L143.694 16.8763L145.768 12.6621Z" fill="#F5F5F5"/>
<path d="M108.275 154.656L107.116 154.845L104.008 151.725L103.634 149.406C103.634 149.406 101.821 149.587 102.524 152.588C103.227 155.589 102.873 154.853 102.873 154.853C102.873 154.853 99.0622 155.482 98.7991 155.865C98.61 156.144 99.1156 159.947 99.4075 162.007C99.4629 162.506 99.6842 162.973 100.036 163.332C100.388 163.691 100.85 163.922 101.348 163.988C101.484 164.006 101.623 164.006 101.759 163.988C102.709 163.832 107.441 162.274 107.441 162.274L109.447 161.949L108.275 154.656Z" fill="#EBEBEB"/>
<path d="M111.501 153.486L112.072 161.544L110.082 161.865L108.824 154.082L111.501 153.486Z" fill="#EBEBEB"/>
<path d="M88.3954 8.44219L83.8477 8.4668L83.9701 31.0973L88.5179 31.0726L88.3954 8.44219Z" fill="#E0E0E0"/>
<path d="M56.2345 8.49878L44.457 8.5625L44.5246 21.0589L56.3021 20.9952L56.2345 8.49878Z" fill="#EBEBEB"/>
<path d="M67.9571 8.43628L56.1797 8.5L56.2473 20.9964L68.0247 20.9327L67.9571 8.43628Z" fill="#F5F5F5"/>
<path d="M44.4735 12.0286C52.2967 12.0914 60.1484 12.0286 67.9716 11.9202C68.0049 11.9202 68.0368 11.907 68.0604 11.8834C68.0839 11.8599 68.0972 11.8279 68.0972 11.7947C68.0972 11.7614 68.0839 11.7294 68.0604 11.7059C68.0368 11.6823 68.0049 11.6691 67.9716 11.6691C60.1427 11.6235 52.3081 11.671 44.4678 11.8118C44.439 11.8118 44.4115 11.8232 44.3911 11.8435C44.3708 11.8639 44.3594 11.8914 44.3594 11.9202C44.3594 11.9489 44.3708 11.9765 44.3911 11.9968C44.4115 12.0172 44.439 12.0286 44.4678 12.0286H44.4735Z" fill="#E0E0E0"/>
<path d="M58.5151 20.7866L37.1172 20.9023L37.1723 31.0821L58.5702 30.9663L58.5151 20.7866Z" fill="#EBEBEB"/>
<path d="M79.812 20.6713L58.4141 20.7871L58.4691 30.9668L79.8671 30.851L79.812 20.6713Z" fill="#F5F5F5"/>
<path d="M37.124 23.7494C51.3382 23.9092 65.6094 23.7494 79.8235 23.5383C79.8568 23.5383 79.8888 23.5251 79.9123 23.5015C79.9358 23.478 79.9491 23.4461 79.9491 23.4128C79.9491 23.3795 79.9358 23.3476 79.9123 23.324C79.8888 23.3005 79.8568 23.2872 79.8235 23.2872C65.6037 23.2131 51.3382 23.2188 37.124 23.5326C37.0953 23.5326 37.0677 23.544 37.0474 23.5644C37.027 23.5847 37.0156 23.6123 37.0156 23.641C37.0156 23.6698 37.027 23.6974 37.0474 23.7177C37.0677 23.738 37.0953 23.7494 37.124 23.7494Z" fill="#E0E0E0"/>
<path d="M112.032 31.1035H29.1211V34.7498H112.032V31.1035Z" fill="#E0E0E0"/>
<path d="M46.0581 32.8496H42.6914V45.2948H46.0581V32.8496Z" fill="#E0E0E0"/>
<path d="M96.3081 32.8496H92.9414V45.2948H96.3081V32.8496Z" fill="#E0E0E0"/>
<path d="M92.8525 0.000784552L88.3047 0.0253906L88.4731 31.1522L93.0209 31.1276L92.8525 0.000784552Z" fill="#EBEBEB"/>
<path d="M99.9527 5.79964L92.8828 5.83789L93.0193 31.0646L100.089 31.0264L99.9527 5.79964Z" fill="#F5F5F5"/>
<path d="M99.902 10.6724C98.7288 10.7934 97.5486 10.8335 96.3699 10.7922C95.1892 10.8333 94.0072 10.7933 92.832 10.6724C95.1857 10.505 97.5483 10.505 99.902 10.6724Z" fill="#E0E0E0"/>
<path d="M99.902 9.59444C98.729 9.71921 97.5487 9.76116 96.3699 9.71998C95.1891 9.76105 94.0069 9.7191 92.832 9.59444C95.186 9.43467 97.5481 9.43467 99.902 9.59444Z" fill="#E0E0E0"/>
<path d="M99.902 27.2408C97.5481 27.4006 95.186 27.4006 92.832 27.2408C95.1857 27.0734 97.5483 27.0734 99.902 27.2408Z" fill="#E0E0E0"/>
<path d="M99.902 26.1765C97.5481 26.3362 95.186 26.3362 92.832 26.1765C95.186 26.0167 97.5481 26.0167 99.902 26.1765Z" fill="#E0E0E0"/>
<path d="M96.4849 23.8597C96.4164 23.8597 96.3594 21.3147 96.3594 18.1535C96.3594 14.9922 96.4164 12.4473 96.4849 12.4473C96.5534 12.4473 96.6047 14.9922 96.6047 18.1535C96.6047 21.3147 96.5477 23.8597 96.4849 23.8597Z" fill="#E0E0E0"/>
<path d="M107.669 12.0059H99.9766V31.0474H107.669V12.0059Z" fill="#EBEBEB"/>
<path d="M91.8123 5.33603C91.8135 5.59584 91.7375 5.85014 91.5939 6.06672C91.4504 6.2833 91.2458 6.4524 91.0061 6.55261C90.7664 6.65282 90.5023 6.67963 90.2474 6.62963C89.9924 6.57964 89.758 6.4551 89.5739 6.27178C89.3898 6.08846 89.2642 5.85462 89.2131 5.59988C89.162 5.34514 89.1877 5.08097 89.2869 4.84082C89.386 4.60067 89.5542 4.39536 89.7702 4.2509C89.9861 4.10643 90.2401 4.02931 90.4999 4.02931C90.672 4.02856 90.8425 4.0618 91.0017 4.12713C91.1609 4.19247 91.3057 4.2886 91.4276 4.41002C91.5495 4.53143 91.6463 4.67574 91.7123 4.83465C91.7784 4.99356 91.8123 5.16395 91.8123 5.33603Z" fill="#E0E0E0"/>
<path d="M90.9119 8.92383H90.1016V27.4404H90.9119V8.92383Z" fill="#E0E0E0"/>
<path d="M128.268 42.7227L130.349 46.9369L134.996 47.6111L131.632 50.8872L132.431 55.5192L128.268 53.3351L124.112 55.5192L124.911 50.8872L121.547 47.6111L126.194 46.9369L128.268 42.7227Z" fill="#EBEBEB"/>
<path d="M115.155 110.982H27.7773V145.429H115.155V110.982Z" fill="#F5F5F5"/>
<path d="M115.151 145.43C115.151 145.43 115.151 145.22 115.151 144.817C115.151 144.414 115.151 143.818 115.151 143.037C115.151 141.475 115.151 139.168 115.151 136.196C115.151 130.26 115.127 121.655 115.11 110.983L115.184 111.057L27.811 111.09L27.9179 110.983C27.9179 123.032 27.9179 134.675 27.9179 145.43L27.8151 145.327L90.4149 145.393L108.594 145.421H113.462H114.711H115.143H114.732H113.499H108.656L90.4971 145.45L27.7864 145.5H27.6836V145.397C27.6836 134.642 27.6836 122.999 27.6836 110.95V110.859H27.7946L115.168 110.892H115.242V110.966C115.242 121.655 115.213 130.288 115.205 136.225C115.205 139.189 115.205 141.487 115.184 143.049C115.184 143.826 115.184 144.414 115.184 144.817C115.184 145.22 115.151 145.43 115.151 145.43Z" fill="#263238"/>
<path d="M77.3833 129.357C77.3833 129.415 68.0264 129.464 56.4866 129.464C44.9467 129.464 35.5898 129.415 35.5898 129.357C35.5898 129.3 44.9426 129.246 56.4866 129.246C68.0306 129.246 77.3833 129.312 77.3833 129.357Z" fill="#263238"/>
<path d="M77.4891 133.539C77.4891 133.6 68.0788 133.645 56.4732 133.645C44.8675 133.645 35.4531 133.6 35.4531 133.539C35.4531 133.477 44.8634 133.432 56.4732 133.432C68.0829 133.432 77.4891 133.465 77.4891 133.539Z" fill="#263238"/>
<path d="M38.2209 117.26L39.1541 119.155L41.2467 119.459L39.7338 120.931L40.0914 123.011L38.2209 122.029L36.3544 123.011L36.708 120.931L35.1992 119.459L37.2877 119.155L38.2209 117.26Z" fill="#05C067"/>
<path d="M45.1351 117.26L46.0684 119.155L48.1568 119.459L46.6439 120.931L47.0016 123.011L45.1351 122.029L43.2646 123.011L43.6223 120.931L42.1094 119.459L44.1978 119.155L45.1351 117.26Z" fill="#E0E0E0"/>
<path d="M52.0373 117.26L52.9705 119.155L55.0631 119.459L53.5502 120.931L53.9078 123.011L52.0373 122.029L50.1708 123.011L50.5244 120.931L49.0156 119.459L51.1041 119.155L52.0373 117.26Z" fill="#E0E0E0"/>
<path d="M58.9592 117.26L59.8965 119.155L61.9849 119.459L60.472 120.931L60.8297 123.011L58.9592 122.029L57.0927 123.011L57.4504 120.931L55.9375 119.459L58.0259 119.155L58.9592 117.26Z" fill="#E0E0E0"/>
<path d="M65.8693 117.26L66.8025 119.155L68.8951 119.459L67.3822 120.931L67.7399 123.011L65.8693 122.029L64.0029 123.011L64.3564 120.931L62.8477 119.459L64.9361 119.155L65.8693 117.26Z" fill="#E0E0E0"/>
<path d="M50.4139 139.064C50.4139 139.126 47.1867 139.171 43.2031 139.171C39.2194 139.171 35.9922 139.126 35.9922 139.064C35.9922 139.002 39.2235 138.957 43.2031 138.957C47.1826 138.957 50.4139 139.006 50.4139 139.064Z" fill="#E0E0E0"/>
<path d="M98.2251 141.38C104.746 141.38 110.032 136.094 110.032 129.573C110.032 123.052 104.746 117.766 98.2251 117.766C91.7042 117.766 86.418 123.052 86.418 129.573C86.418 136.094 91.7042 141.38 98.2251 141.38Z" fill="#05C067"/>
<path d="M115.198 27.4688H27.8203V61.9157H115.198V27.4688Z" fill="#F5F5F5"/>
<path d="M115.208 61.9337C115.208 61.9337 115.208 61.7241 115.208 61.3212C115.208 60.9183 115.208 60.3222 115.208 59.5411C115.208 57.9747 115.208 55.6725 115.208 52.7002C115.208 46.7638 115.183 38.1592 115.166 27.4868L115.24 27.5608L27.8672 27.5937L27.9741 27.4868C27.9741 39.5365 27.9741 51.175 27.9741 61.9337L27.8713 61.831L90.508 61.8762L108.691 61.905H113.559H114.817H115.249H114.838H113.604H108.757L90.5985 61.9337L27.8918 61.9831H27.7891V61.9337C27.7891 51.175 27.7891 39.5365 27.7891 27.4868V27.3594H27.9001L115.208 27.4005H115.282V27.4745C115.282 38.1633 115.253 46.7967 115.24 52.7331C115.24 55.6972 115.24 57.9953 115.24 59.5575C115.24 60.3304 115.24 60.9224 115.24 61.3253C115.24 61.7282 115.208 61.9337 115.208 61.9337Z" fill="#263238"/>
<path d="M77.3833 45.1518C77.3833 45.2135 68.0264 45.2587 56.4866 45.2587C44.9467 45.2587 35.5898 45.2135 35.5898 45.1518C35.5898 45.0901 44.9426 45.0449 56.4866 45.0449C68.0306 45.0449 77.3833 45.0778 77.3833 45.1518Z" fill="#263238"/>
<path d="M77.4891 49.3237C77.4891 49.3854 68.0788 49.4306 56.4732 49.4306C44.8675 49.4306 35.4531 49.3854 35.4531 49.3237C35.4531 49.262 44.8634 49.2168 56.4732 49.2168C68.0829 49.2168 77.4891 49.2661 77.4891 49.3237Z" fill="#263238"/>
<path d="M38.2209 33.041L39.1541 34.9362L41.2467 35.2405L39.7338 36.7122L40.0914 38.7924L38.2209 37.8099L36.3544 38.7924L36.708 36.7122L35.1992 35.2405L37.2877 34.9362L38.2209 33.041Z" fill="#05C067"/>
<path d="M45.1351 33.041L46.0684 34.9362L48.1568 35.2405L46.6439 36.7122L47.0016 38.7924L45.1351 37.8099L43.2646 38.7924L43.6223 36.7122L42.1094 35.2405L44.1978 34.9362L45.1351 33.041Z" fill="#05C067"/>
<path d="M52.0373 33.041L52.9705 34.9362L55.0631 35.2405L53.5502 36.7122L53.9078 38.7924L52.0373 37.8099L50.1708 38.7924L50.5244 36.7122L49.0156 35.2405L51.1041 34.9362L52.0373 33.041Z" fill="#05C067"/>
<path d="M58.9592 33.041L59.8965 34.9362L61.9849 35.2405L60.472 36.7122L60.8297 38.7924L58.9592 37.8099L57.0927 38.7924L57.4504 36.7122L55.9375 35.2405L58.0259 34.9362L58.9592 33.041Z" fill="#05C067"/>
<path d="M65.8693 33.041L66.8025 34.9362L68.8951 35.2405L67.3822 36.7122L67.7399 38.7924L65.8693 37.8099L64.0029 38.7924L64.3564 36.7122L62.8477 35.2405L64.9361 34.9362L65.8693 33.041Z" fill="#05C067"/>
<path d="M50.4139 54.8471C50.4139 54.9047 47.1867 54.954 43.2031 54.954C39.2194 54.954 35.9922 54.9047 35.9922 54.8471C35.9922 54.7896 39.2235 54.7402 43.2031 54.7402C47.1826 54.7402 50.4139 54.7896 50.4139 54.8471Z" fill="#E0E0E0"/>
<path d="M98.2251 57.163C104.746 57.163 110.032 51.8768 110.032 45.3559C110.032 38.835 104.746 33.5488 98.2251 33.5488C91.7042 33.5488 86.418 38.835 86.418 45.3559C86.418 51.8768 91.7042 57.163 98.2251 57.163Z" fill="#05C067"/>
<path d="M115.198 69.1875H27.8203V103.634H115.198V69.1875Z" fill="#F5F5F5"/>
<path d="M115.208 103.63C115.208 103.63 115.208 103.421 115.208 103.022C115.208 102.623 115.208 102.019 115.208 101.242C115.208 99.6754 115.208 97.3691 115.208 94.4009C115.208 88.4603 115.183 79.8599 115.166 69.1875L115.24 69.2615L27.8672 69.2944L27.9741 69.1875C27.9741 81.2371 27.9741 92.8756 27.9741 103.63L27.8713 103.528L90.508 103.577L108.691 103.606H113.559H114.817H115.249H114.838H113.604H108.757L90.5985 103.634L27.8918 103.684H27.7891V103.581C27.7891 92.8263 27.7891 81.1878 27.7891 69.1381V69.0312H27.9001L115.273 69.06H115.347V69.1381C115.347 79.827 115.319 88.4603 115.306 94.3967C115.306 97.3609 115.306 99.659 115.306 101.217C115.306 101.994 115.306 102.586 115.306 102.985C115.306 103.384 115.208 103.63 115.208 103.63Z" fill="#263238"/>
<path d="M77.3833 87.5444C77.3833 87.6019 68.0264 87.6513 56.4866 87.6513C44.9467 87.6513 35.5898 87.6019 35.5898 87.5444C35.5898 87.4868 44.9426 87.4375 56.4866 87.4375C68.0306 87.4375 77.3833 87.4827 77.3833 87.5444Z" fill="#263238"/>
<path d="M77.4891 91.7143C77.4891 91.776 68.0788 91.8212 56.4732 91.8212C44.8675 91.8212 35.4531 91.776 35.4531 91.7143C35.4531 91.6526 44.8634 91.6074 56.4732 91.6074C68.0829 91.6074 77.4891 91.6568 77.4891 91.7143Z" fill="#263238"/>
<path d="M38.2209 75.4316L39.1541 77.3227L41.2467 77.627L39.7338 79.0987L40.0914 81.179L38.2209 80.2005L36.3544 81.179L36.708 79.0987L35.1992 77.627L37.2877 77.3227L38.2209 75.4316Z" fill="#05C067"/>
<path d="M45.1351 75.4316L46.0684 77.3227L48.1568 77.627L46.6439 79.0987L47.0016 81.179L45.1351 80.2005L43.2646 81.179L43.6223 79.0987L42.1094 77.627L44.1978 77.3227L45.1351 75.4316Z" fill="#05C067"/>
<path d="M52.0373 75.4316L52.9705 77.3227L55.0631 77.627L53.5502 79.0987L53.9078 81.179L52.0373 80.2005L50.1708 81.179L50.5244 79.0987L49.0156 77.627L51.1041 77.3227L52.0373 75.4316Z" fill="#05C067"/>
<path d="M58.9592 75.4316L59.8965 77.3227L61.9849 77.627L60.472 79.0987L60.8297 81.179L58.9592 80.2005L57.0927 81.179L57.4504 79.0987L55.9375 77.627L58.0259 77.3227L58.9592 75.4316Z" fill="#E0E0E0"/>
<path d="M65.8693 75.4316L66.8025 77.3227L68.8951 77.627L67.3822 79.0987L67.7399 81.179L65.8693 80.2005L64.0029 81.179L64.3564 79.0987L62.8477 77.627L64.9361 77.3227L65.8693 75.4316Z" fill="#E0E0E0"/>
<path d="M50.4139 97.2338C50.4139 97.2955 47.1867 97.3407 43.2031 97.3407C39.2194 97.3407 35.9922 97.2955 35.9922 97.2338C35.9922 97.1722 39.2235 97.127 43.2031 97.127C47.1826 97.127 50.4139 97.1763 50.4139 97.2338Z" fill="#E0E0E0"/>
<path d="M109.725 90.4277C111.205 84.0771 107.257 77.7289 100.906 76.2488C94.5553 74.7686 88.2072 78.7169 86.727 85.0675C85.2468 91.4182 89.1951 97.7663 95.5458 99.2465C101.896 100.727 108.245 96.7784 109.725 90.4277Z" fill="#05C067"/>
<path d="M102.859 49.8834C102.335 49.6966 101.583 49.6316 101.104 49.5259C100.828 49.465 100.426 49.3106 100.292 49.1522C100.158 48.9897 100.239 47.4906 100.239 47.4906C100.239 47.4906 100.487 47.1006 100.621 46.7594C100.755 46.4181 100.901 45.4837 100.901 45.4837C100.901 45.4837 101.177 45.4837 101.275 45.0003C101.38 44.4722 101.543 44.2528 101.522 43.8587C101.502 43.4931 101.311 43.4728 101.291 43.4728C101.291 43.4728 101.49 42.9203 101.518 41.7503C101.551 40.365 100.491 39 98.5 39C96.5094 39 95.4531 40.3609 95.4816 41.7463C95.5059 42.9122 95.7091 43.4688 95.7091 43.4688C95.6888 43.4688 95.4978 43.4891 95.4775 43.8547C95.4572 44.2487 95.6237 44.46 95.7253 44.9881C95.8228 45.4716 96.0991 45.4756 96.0991 45.4756C96.0991 45.4756 96.2453 46.4141 96.3794 46.7553C96.5134 47.1006 96.7612 47.4866 96.7612 47.4866C96.7612 47.4866 96.8425 48.9856 96.7084 49.1481C96.5744 49.3106 96.1722 49.4609 95.8959 49.5219C95.4125 49.6275 94.665 49.6966 94.1409 49.8834C93.6169 50.0703 92 50.7 92 52H105C105 50.7 103.383 50.0703 102.859 49.8834Z" fill="white"/>
<path d="M100.599 83.7761C100.599 82.2455 99.3532 81 97.8226 81C96.2919 81 95.0465 82.2455 95.0465 83.7761C95.0465 85.3026 96.2919 86.5481 97.8226 86.5481C99.3532 86.5481 100.599 85.3026 100.599 83.7761ZM93 91.6935V92.5323C93 93.3416 93.6584 94 94.4677 94H101.177C101.987 94 102.645 93.3416 102.645 92.5323V91.6935C102.645 89.0348 100.481 86.871 97.8226 86.871C95.1639 86.871 93 89.0348 93 91.6935Z" fill="white"/>
<path d="M101.216 132.462C100.451 132.896 99.5671 133.144 98.6249 133.144C97.6828 133.144 96.7989 132.896 96.0345 132.462C94.0066 133.081 92.4576 134.456 92 136.25H105.25C104.793 134.456 103.244 133.08 101.216 132.462ZM98.6249 123C96.1104 123 94.0721 125.04 94.0721 127.555C94.0721 130.07 96.1104 132.109 98.6249 132.109C101.139 132.109 103.178 130.07 103.178 127.555C103.178 125.04 101.139 123 98.6249 123ZM98.6249 130.97C97.1771 130.97 95.9399 130.074 95.4432 128.797H101.807C101.31 130.074 100.073 130.97 98.6249 130.97Z" fill="white"/>
</svg>
