<svg width="87" height="99" viewBox="0 0 87 99" fill="none" xmlns="http://www.w3.org/2000/svg">
<path d="M62.1056 85.6511C64.4004 86.3426 66.9893 85.0141 68.2006 82.948C69.412 80.8818 69.4175 78.274 68.7206 75.9791C68.0237 73.6843 66.6925 71.6454 65.3178 69.6827C63.9431 67.72 62.5003 65.7763 61.5285 63.5877C59.8244 59.7357 59.7264 55.1679 61.4223 51.3132C63.1183 47.4586 66.6272 44.4124 70.7214 43.4188C74.8156 42.4252 79.4025 43.6094 82.4105 46.5548C85.601 49.6772 86.8069 54.3567 86.8477 58.8211C86.8641 60.3128 86.7579 61.8373 86.1944 63.2202C85.6309 64.603 84.5611 65.8335 83.1265 66.2745C81.3815 66.8189 79.4107 66.0513 78.1748 64.7038C76.9389 63.3563 76.3509 61.527 76.1359 59.714C75.8827 57.5825 75.9889 55.1407 74.4399 53.6516C72.6841 51.9611 69.4991 52.6281 68.0455 54.5853C66.5918 56.5426 66.619 59.2866 67.4547 61.576C68.2905 63.8653 69.8176 65.8226 71.2522 67.7962C73.6096 71.0411 75.8255 74.6017 76.2284 78.5952C76.4467 80.7751 76.1073 82.9748 75.2421 84.9875C74.3768 87.0003 73.0142 88.7601 71.2821 90.1016C69.55 91.4431 67.5054 92.3223 65.3402 92.6567C63.175 92.991 60.9604 92.7695 58.9043 92.0129" fill="#D1D1D1"/>
<path d="M24.9936 80.6078C24.1472 80.7022 23.3337 80.9893 22.6155 81.447C21.8972 81.9048 21.2934 82.521 20.8504 83.2483C19.9739 84.722 19.6254 86.4501 19.8623 88.1483C20.1038 89.8358 20.7084 91.4509 21.6344 92.8822C20.4121 92.953 19.4703 94.1317 19.3069 95.3458C19.2035 96.1108 19.3777 96.9628 19.9602 97.4691C20.5428 97.9755 21.433 98.0381 22.2333 98.0326C25.3693 98.0163 28.4944 97.7032 31.6195 97.3902L24.9936 80.6078Z" fill="#D1D1D1"/>
<g opacity="0.3">
<path d="M24.9934 80.6051C24.1469 80.6995 23.3334 80.9866 22.6152 81.4444C21.897 81.9021 21.2932 82.5183 20.8502 83.2456C19.9737 84.7193 19.6251 86.4475 19.862 88.1456C20.1035 89.8332 20.7081 91.4482 21.6342 92.8795C20.4119 92.9503 19.47 94.129 19.3067 95.3431C19.2032 96.1081 19.3775 96.9601 19.96 97.4664C20.5426 97.9728 21.4327 98.0354 22.233 98.0299C25.369 98.0136 28.4941 97.7006 31.6192 97.3875L24.9934 80.6051Z" fill="black"/>
</g>
<path d="M23.0112 68.1277C22.2272 76.5475 22.3252 85.068 23.7326 93.4061C23.0308 93.8109 22.423 94.3602 21.9496 95.0176C21.5086 95.6927 21.3289 96.5856 21.6773 97.3179C22.0884 98.2026 23.1364 98.6273 24.111 98.6572C25.0855 98.6872 26.0655 98.5756 27.0374 98.5756C28.1263 98.5756 29.9665 98.6518 30.9955 98.3714L31.6161 90.1803L23.0112 68.1277Z" fill="#D1D1D1"/>
<path d="M23.0106 68.128C23.242 68.7105 26.6311 77.3263 31.6808 90.1778V90.1942C31.4876 92.7585 31.2807 95.5188 31.0656 98.3853V98.437L31.0166 98.4506C30.3594 98.5938 29.6884 98.664 29.0158 98.6602C28.3352 98.6766 27.6547 98.6602 26.9469 98.6602C26.0241 98.6602 25.104 98.7555 24.1866 98.7337C23.7196 98.7311 23.2575 98.6387 22.8255 98.4615C22.396 98.289 22.0241 97.9983 21.7529 97.6231C21.4964 97.2411 21.3773 96.7832 21.4154 96.3246C21.4496 95.8792 21.5886 95.4483 21.821 95.0669C22.303 94.3595 22.9398 93.7712 23.683 93.3465L23.6503 93.4173C22.6775 87.4195 22.2973 81.3405 22.5152 75.2683C22.5914 73.0198 22.7166 71.2313 22.8173 70.009C22.8663 69.3965 22.9235 68.9201 22.9534 68.5989C22.9834 68.2777 22.9943 68.1933 22.9997 68.1252C22.9997 68.2804 22.9507 68.8385 22.8663 70.0117C22.7792 71.2367 22.6676 73.0225 22.5941 75.271C22.4096 81.34 22.8135 87.4126 23.8 93.4036V93.4499L23.7592 93.4744C23.0362 93.8896 22.4165 94.4629 21.9462 95.1513C21.725 95.5126 21.5925 95.9212 21.5597 96.3436C21.5246 96.7707 21.636 97.197 21.8755 97.5523C22.1295 97.9055 22.4802 98.1778 22.8854 98.3363C23.296 98.5088 23.7358 98.6012 24.1812 98.6085C25.0877 98.6303 26.005 98.5405 26.9388 98.535C27.6384 98.535 28.3271 98.5513 29.0049 98.535C29.6656 98.5379 30.3247 98.4685 30.9703 98.3281L30.9186 98.3934C31.1364 95.5297 31.346 92.7666 31.5393 90.2023V90.2323L23.0106 68.128Z" fill="#263238"/>
<path d="M25.815 53.8373C25.815 53.8373 21.8977 65.9511 22.992 76.7392C24.0864 87.5273 32.0053 97.0849 32.0053 97.0849L46.6153 98.5794L58.0867 94.6186L56.4534 70.4482C52.8628 64.0101 49.6751 57.779 49.9201 53.3228L25.815 53.8373Z" fill="#D1D1D1"/>
<path d="M54.7731 79.2862C54.5009 79.1528 44.2572 77.7073 43.7128 87.2133C43.7128 87.2133 43.0023 90.0171 45.8062 92.7285C45.8062 92.7285 42.8934 92.5434 42.5395 96.7492C42.5195 96.99 42.5473 97.2324 42.6214 97.4624C42.6955 97.6924 42.8145 97.9054 42.9714 98.0891C43.1284 98.2729 43.3201 98.4237 43.5357 98.533C43.7513 98.6422 43.9863 98.7076 44.2273 98.7255C47.2408 98.9433 53.4964 99.2318 56.205 98.1538C59.8201 96.7083 62.3517 94.7211 62.8036 88.7078C63.2555 82.6944 60.9961 75.6412 56.4527 70.4527C53.6978 67.3112 54.7731 79.2862 54.7731 79.2862Z" fill="#D1D1D1"/>
<path d="M32.3593 77.1841C32.6702 74.9369 32.2197 72.6503 31.0798 70.6889C30.4047 69.5346 29.3757 68.4485 28.0473 68.2933C26.7189 68.1382 25.3578 69.0447 24.6718 70.2343C23.9858 71.4239 23.8252 72.8476 23.8007 74.2223C23.7611 77.6709 24.4646 81.0876 25.8635 84.2399C27.2624 87.3923 29.3237 90.2065 31.9074 92.491" fill="white"/>
<path d="M32.4818 74.0906C32.4818 74.7739 32.0844 91.3385 31.05 92.8493C30.0155 94.3602 26.904 92.9855 28.7742 98.585H37.88C37.88 98.585 39.3799 98.4489 41.2936 92.8493C43.2073 87.2498 44.5603 80.9696 44.5603 80.9696L43.3135 67.9412L32.4818 74.0906Z" fill="#D1D1D1"/>
<path d="M46.1684 72.0261C46.1684 72.0261 46.1684 72.0751 46.1493 72.1677L46.0813 72.5815C46.0187 72.949 45.9261 73.4852 45.8091 74.1739C45.5668 75.5623 45.2129 77.5685 44.7746 80.0621C44.7202 80.3751 44.663 80.6963 44.6031 81.023C44.5432 81.3497 44.4561 81.6791 44.3799 82.0166C44.2247 82.6944 44.0532 83.3968 43.8736 84.1263C43.5115 85.58 43.095 87.1425 42.6323 88.7759C42.1695 90.4092 41.6386 92.116 40.9989 93.8664C40.6694 94.7577 40.2811 95.6262 39.8366 96.4661C39.609 96.9006 39.3449 97.3149 39.0471 97.7047C38.9735 97.8042 38.8944 97.8997 38.8103 97.9905C38.7253 98.0868 38.6344 98.1778 38.5381 98.2627C38.3533 98.4518 38.124 98.5913 37.8711 98.6683H28.7136L28.7 98.6166C28.3844 97.7497 28.1875 96.8441 28.1147 95.9244C28.0799 95.464 28.1742 95.003 28.387 94.5932C28.6365 94.2149 29.0025 93.9282 29.4296 93.7765C29.8278 93.6293 30.2122 93.4471 30.5783 93.2321C30.7471 93.1196 30.8916 92.9742 31.003 92.8047C31.0538 92.7192 31.094 92.6277 31.1228 92.5325C31.1579 92.4373 31.187 92.34 31.2099 92.2412C31.3866 91.4559 31.5148 90.6604 31.5937 89.8593C31.9285 86.7315 32.0592 83.9276 32.1817 81.5947C32.3042 79.2617 32.3614 77.3861 32.4076 76.0985C32.4294 75.4588 32.4458 74.9607 32.4567 74.6177C32.4567 74.4543 32.4567 74.3264 32.4567 74.2366V74.1059C32.4591 74.1494 32.4591 74.193 32.4567 74.2366V74.6204C32.4567 74.9607 32.4403 75.4588 32.4294 76.0985C32.3995 77.3889 32.3478 79.2617 32.247 81.5974C32.1463 83.9331 32.0184 86.7369 31.7026 89.8729C31.6249 90.6803 31.4977 91.4821 31.3215 92.2739C31.2978 92.3773 31.2678 92.4791 31.2317 92.5788C31.2039 92.6761 31.1656 92.7702 31.1173 92.8592C30.9967 93.0428 30.8402 93.2002 30.6573 93.3219C30.2851 93.5398 29.8931 93.7221 29.4867 93.8664C29.0862 94.0107 28.7439 94.2823 28.5122 94.6395C28.3122 95.0259 28.2254 95.4609 28.2617 95.8944C28.335 96.8011 28.5301 97.6939 28.8416 98.5486L28.7735 98.4996H37.8711C38.0907 98.4229 38.2899 98.2972 38.4537 98.1321C38.5441 98.052 38.6288 97.9656 38.7068 97.8735C38.7895 97.7876 38.8668 97.6967 38.9382 97.6012C39.2316 97.2184 39.4921 96.8113 39.7168 96.3844C40.1587 95.5506 40.5452 94.6885 40.8737 93.8038C41.5134 92.0616 42.0361 90.352 42.507 88.7241C42.978 87.0963 43.3918 85.5446 43.7593 84.0964C43.9407 83.3705 44.1122 82.6699 44.2738 81.9948C44.35 81.6546 44.4262 81.3252 44.5024 81.0012C44.5786 80.6773 44.6195 80.3561 44.6766 80.0457C45.134 77.5549 45.4933 75.5514 45.7655 74.1631C45.8935 73.4771 45.9942 72.9435 46.0622 72.576L46.1439 72.165C46.1548 72.0724 46.1684 72.0261 46.1684 72.0261Z" fill="#263238"/>
<path d="M30.233 93.3191C30.233 93.3191 30.1895 93.2919 30.1214 93.2293L29.822 92.957C29.6913 92.8345 29.5334 92.6848 29.3619 92.4943C29.1904 92.3037 28.9835 92.1023 28.7766 91.8573C28.352 91.3782 27.8756 90.782 27.3774 90.096C26.8473 89.3446 26.3584 88.5648 25.9129 87.7603C25.4769 86.9515 25.0861 86.119 24.7423 85.2668C24.4637 84.5702 24.2211 83.8596 24.0155 83.138C23.9202 82.8332 23.8576 82.55 23.795 82.3023C23.7324 82.0546 23.6861 81.8423 23.6534 81.6653C23.6208 81.4884 23.5963 81.3713 23.5772 81.2624C23.5646 81.2154 23.5591 81.1668 23.5609 81.1182C23.5814 81.1617 23.5969 81.2073 23.6072 81.2543L23.7079 81.6544C23.7487 81.8287 23.8032 82.0383 23.874 82.2833C23.9447 82.5283 24.0128 82.8059 24.1135 83.0999C24.2986 83.7124 24.5518 84.4284 24.8648 85.2096C25.5579 86.9022 26.4381 88.512 27.489 90.0089C27.9763 90.6976 28.4418 91.2965 28.8501 91.781C29.0516 92.0288 29.2476 92.2411 29.4164 92.4316C29.5851 92.6222 29.7321 92.7801 29.8546 92.908L30.1269 93.2102C30.1657 93.243 30.2012 93.2794 30.233 93.3191Z" fill="#263238"/>
<path d="M54.7707 79.2874H54.6972L54.4821 79.2683C54.2916 79.252 54.0112 79.2084 53.6437 79.1867C52.589 79.1026 51.5279 79.1529 50.4859 79.3364C49.749 79.4776 49.0334 79.7136 48.3572 80.0387C47.5666 80.4221 46.8504 80.9429 46.242 81.5768C44.9381 82.9379 44.0098 84.9523 43.792 87.2253C43.7032 87.6957 43.6895 88.1771 43.7512 88.6518C43.807 89.1476 43.9287 89.6337 44.1132 90.0973C44.5079 91.072 45.1066 91.951 45.8691 92.6752L45.9943 92.7977H45.8146C45.3514 92.7955 44.8939 92.9008 44.4782 93.1053C44.0625 93.3098 43.7 93.608 43.4191 93.9764C42.842 94.7305 42.6215 95.7186 42.5698 96.6986C42.5399 96.9261 42.5473 97.1568 42.5915 97.3819C42.6403 97.6006 42.7329 97.8071 42.8638 97.9889C42.9978 98.1673 43.1669 98.3164 43.3607 98.4268C43.5546 98.5373 43.769 98.607 43.9908 98.6314C44.9027 98.7049 45.8146 98.7566 46.713 98.7947C48.4987 98.8709 50.2219 98.89 51.8606 98.8083C53.4994 98.7267 55.0647 98.566 56.4095 98.008C57.675 97.5342 58.8458 96.8382 59.8667 95.9527C60.6849 95.1968 61.3343 94.2766 61.7722 93.2523C62.0925 92.4737 62.3368 91.666 62.5018 90.8404C62.627 90.1599 62.7086 89.6263 62.7386 89.2615C62.7604 89.0846 62.7767 88.9485 62.7876 88.8505C62.7985 88.7525 62.8094 88.7089 62.8094 88.7089C62.8094 88.7089 62.8094 88.7579 62.8094 88.8505C62.8094 88.943 62.7903 89.0873 62.774 89.2643C62.7522 89.6318 62.6787 90.1653 62.5644 90.8513C62.4087 91.6844 62.1698 92.4997 61.8512 93.285C61.4183 94.3247 60.7686 95.2602 59.9456 96.029C58.9107 96.9305 57.7222 97.6387 56.4367 98.1196C55.0756 98.694 53.4831 98.8383 51.847 98.9363C50.211 99.0343 48.4769 99.007 46.6885 98.9363C45.7956 98.8982 44.8891 98.8492 43.9663 98.7729C43.7246 98.7466 43.491 98.6709 43.2798 98.5506C43.0686 98.4302 42.8844 98.2678 42.7385 98.0733C42.5907 97.8768 42.4859 97.6515 42.4309 97.4118C42.3826 97.1735 42.3734 96.929 42.4037 96.6877C42.4113 96.4376 42.4368 96.1883 42.4799 95.9418L42.5534 95.5825C42.5794 95.461 42.6121 95.341 42.6514 95.2232C42.7791 94.7447 42.9982 94.2954 43.2966 93.9002C43.5911 93.5124 43.9722 93.1987 44.4093 92.9842C44.8465 92.7696 45.3277 92.6601 45.8146 92.6643L45.7602 92.7868C44.9849 92.0481 44.3761 91.1525 43.9744 90.1599C43.7889 89.6833 43.6663 89.1846 43.6096 88.6763C43.5472 88.186 43.5628 87.6889 43.6559 87.2036V87.2172C43.7656 86.1076 44.0533 85.023 44.508 84.005C44.7193 83.5318 44.9687 83.0766 45.2538 82.6439C45.5265 82.2365 45.8344 81.854 46.174 81.5005C46.7934 80.8597 47.5227 80.3351 48.3272 79.9516C49.0115 79.6269 49.7354 79.3935 50.4805 79.2574C51.5298 79.0794 52.598 79.041 53.6573 79.1431C54.0248 79.1703 54.3052 79.2221 54.4957 79.2438L54.7081 79.2765C54.7294 79.2772 54.7504 79.2809 54.7707 79.2874Z" fill="#263238"/>
<path d="M50.9771 93.8046C50.7058 93.7308 50.4394 93.6399 50.1795 93.5324C48.9038 93.0907 47.5742 92.8233 46.2269 92.7375C45.9465 92.734 45.6665 92.714 45.3884 92.6776C45.6669 92.6288 45.9503 92.6142 46.2323 92.6341C47.5968 92.6625 48.9454 92.9335 50.2149 93.4344C50.4817 93.5297 50.7373 93.6538 50.9771 93.8046Z" fill="#263238"/>
<g opacity="0.3">
<path d="M46.8157 80.855C47.5063 79.7946 48.4392 78.9136 49.5372 78.2846C50.6353 77.6556 51.8671 77.2966 53.1312 77.2372C54.3535 77.1909 55.6737 77.4849 56.4768 78.4077C56.749 78.7045 56.896 79.2244 56.5585 79.4367C56.4526 79.479 56.339 79.4987 56.2251 79.4945C56.1112 79.4903 55.9994 79.4622 55.897 79.4122C53.2129 78.5602 49.6985 79.1073 46.9409 80.855" fill="black"/>
</g>
<g opacity="0.3">
<path d="M40.0986 59.1231C42.3145 58.81 44.4078 57.9062 46.5638 57.2992C43.5694 59.2565 40.2429 60.7646 36.7122 61.2981C33.1815 61.8317 29.4357 61.3335 26.3678 59.526C26.3433 59.526 31.1153 60.3835 40.0986 59.1231Z" fill="black"/>
</g>
<path d="M73.4837 20.7206C72.8902 20.2987 72.2369 19.9176 71.5237 20.07C70.8166 20.2615 70.1802 20.6539 69.6917 21.1997C67.1382 23.7995 66.7789 27.929 64.4106 30.6975C63.4072 31.8398 62.1109 32.6864 60.6616 33.146C59.2124 33.6056 57.6651 33.6607 56.1868 33.3054L54.5535 37.3043C58.909 39.4168 64.416 38.3932 68.1182 35.279C71.8204 32.1648 74.2214 28.8519 74.6815 23.6933C74.7468 23.089 74.6978 21.5727 73.4837 20.7206Z" fill="#D1D1D1"/>
<path d="M30.4051 24.6125C30.4051 24.6125 18.6996 23.4202 14.3059 33.408L11.7906 40.9376C11.7906 40.9376 9.82519 45.2931 12.8795 50.6395C15.5282 55.2673 19.5163 58.7789 29.8879 59.8025C39.9736 60.7961 50.7236 57.7064 54.2924 50.6395C57.4175 44.452 56.4947 37.2109 55.0111 34.5513C52.9967 30.9172 45.4698 24.1171 30.4051 24.6125Z" fill="#D1D1D1"/>
<path d="M27.6975 24.9965C27.6975 24.9965 21.793 21.4576 20.6197 20.7117C17.4402 18.6946 13.3923 16.7373 11.9359 19.5548C10.7953 21.7679 15.325 34.7828 15.325 34.7828L23.2739 28.4945L27.6975 24.9965Z" fill="#D1D1D1"/>
<g opacity="0.3">
<path d="M25.8629 25.9552C25.8629 25.9552 14.2963 18.3738 13.3245 19.2966C12.3526 20.2195 16.3189 31.0511 16.3189 31.0511C16.3189 31.0511 24.3603 29.8152 25.8629 25.9552Z" fill="black"/>
</g>
<path d="M15.1394 30.8756C15.8608 28.97 17.5894 27.0645 19.122 25.7551C18.8227 26.5171 18.7675 27.3532 18.9641 28.1479C21.6291 26.1498 24.4494 24.0891 27.7405 23.6808L26.8503 25.9239L20.758 32.4572L15.1394 30.8756Z" fill="#D1D1D1"/>
<path d="M26.7127 23.8599C26.6515 23.8485 26.5887 23.8485 26.5276 23.8599C26.4105 23.8817 26.2309 23.898 26.0076 23.9552C25.3716 24.1016 24.7496 24.3029 24.1484 24.5568C22.1419 25.3946 20.3246 26.6278 18.8047 28.1828L19.0088 28.2345L18.9762 28.1147C18.9131 27.7198 18.9224 27.3167 19.0034 26.9251C19.0687 26.5304 19.164 26.1465 19.2321 25.7654L19.2838 25.4687L19.047 25.6402C17.6938 26.6317 16.5841 27.9182 15.8021 29.4023C15.5764 29.837 15.394 30.2929 15.2576 30.7634C15.1984 30.9314 15.16 31.106 15.1433 31.2834C15.3734 30.6644 15.6463 30.0623 15.96 29.4813C16.7684 28.0496 17.8761 26.8091 19.2076 25.8444L19.0225 25.7192C18.9571 26.0894 18.8591 26.4759 18.7911 26.8815C18.7013 27.3052 18.6921 27.742 18.7638 28.1691C18.7775 28.2181 18.7883 28.2671 18.7992 28.3107L18.8537 28.5176L19.0061 28.3624C20.5075 26.8318 22.2833 25.5972 24.2409 24.7228C24.829 24.4555 25.4358 24.2317 26.0566 24.0532C26.2792 24.0028 26.4983 23.9382 26.7127 23.8599Z" fill="#263238"/>
<g opacity="0.4">
<path d="M25.5 40.4523C26.2779 39.6856 27.2839 39.1926 28.3664 39.0476L30.4027 24.62C32.8526 24.4866 35.5749 24.7288 37.7526 24.9929C37.7526 24.9929 34.4179 29.9854 33.2201 39.1729C33.757 39.3841 34.2633 39.6661 34.7255 40.0113C37.0557 41.7617 38.1337 45.1018 37.3007 47.9493C36.4677 50.7967 33.7891 52.9581 30.909 53.1215C28.0289 53.2848 25.1461 51.4473 23.9864 48.7224C23.4247 47.3429 23.2688 45.8317 23.5369 44.3666C23.8051 42.9015 24.4861 41.5434 25.5 40.4523Z" fill="white"/>
</g>
<path d="M32.6169 40.5429C31.0489 39.8869 29.9519 39.8188 28.2777 40.3442C27.8231 40.4422 27.3794 41.1037 27.6843 41.4685L29.5 43.6462C29.5832 43.7469 29.7007 43.8132 29.8299 43.8324C29.9591 43.8515 30.0908 43.822 30.1996 43.7497L33.2512 41.7053C33.6949 41.4113 33.243 40.7416 32.6169 40.5429Z" fill="#263238"/>
<path d="M30.0103 42.7091C29.9583 42.8367 29.927 42.9718 29.9178 43.1093C29.8708 43.4816 29.8708 43.8584 29.9178 44.2308C29.9791 44.7869 30.1454 45.3264 30.4077 45.8206C30.731 46.4227 31.2094 46.9274 31.7933 47.2824C32.369 47.638 33.0396 47.809 33.7152 47.7724C34.2655 47.7271 34.7946 47.5395 35.2505 47.228C35.5583 47.0175 35.8235 46.7505 36.0318 46.4413C36.1139 46.3309 36.1748 46.2063 36.2115 46.0738C35.9399 46.4846 35.5892 46.8371 35.1798 47.1109C34.7362 47.3895 34.2299 47.5524 33.7071 47.5846C33.0667 47.6095 32.4335 47.4427 31.8886 47.1055C31.3326 46.7685 30.8746 46.2917 30.5602 45.7226C30.296 45.2545 30.1181 44.7428 30.0348 44.2118C29.9786 43.7128 29.9704 43.2096 30.0103 42.7091Z" fill="#263238"/>
<path d="M24.1821 44.925C24.2208 45.0463 24.2777 45.1611 24.3509 45.2653C24.5206 45.5655 24.7145 45.8514 24.9307 46.12C25.2479 46.5298 25.6717 46.8443 26.1557 47.0292C26.458 47.124 26.776 47.1578 27.0914 47.1289C27.4068 47.0999 27.7133 47.0087 27.9932 46.8605C28.5633 46.5727 29.0365 46.124 29.3543 45.5701C29.6103 45.1188 29.794 44.6301 29.8988 44.1219C29.9727 43.7822 30.02 43.4373 30.0403 43.0902C30.0591 42.9639 30.0591 42.8354 30.0403 42.7091C30.0049 42.7091 29.9804 43.2535 29.7681 44.0893C29.6478 44.5762 29.457 45.043 29.2019 45.4749C28.8944 45.9941 28.4448 46.4144 27.9061 46.6862C27.3875 46.9558 26.7851 47.0153 26.2238 46.8523C25.7636 46.6848 25.3566 46.3972 25.0451 46.0193C24.4789 45.3796 24.2121 44.9032 24.1821 44.925Z" fill="#263238"/>
<path d="M27.4429 48.7921C27.5425 49.036 27.705 49.2492 27.9138 49.41C28.3751 49.8381 28.9572 50.1136 29.5807 50.1988C30.2043 50.2841 30.839 50.175 31.3982 49.8864C31.6397 49.7863 31.8501 49.6238 32.008 49.4154C31.9862 49.3855 31.7521 49.5597 31.3329 49.7339C30.7903 49.9647 30.1953 50.0443 29.611 49.9643C29.0268 49.8843 28.4751 49.6476 28.0145 49.2793C27.6525 48.9989 27.4728 48.7594 27.4429 48.7921Z" fill="#263238"/>
<path d="M35.6252 43.7847C35.6252 43.8501 43.4842 45.0642 53.1971 46.5069C62.9099 47.9497 70.7934 49.0522 70.8043 48.9896C70.8152 48.927 62.9453 47.7102 53.2297 46.2674C43.5142 44.8246 35.6334 43.7194 35.6252 43.7847Z" fill="#263238"/>
<path d="M35.446 44.9501C35.537 44.9947 35.633 45.0285 35.7319 45.0508L36.5485 45.2958C37.2672 45.5054 38.3098 45.7912 39.6028 46.1315C42.1889 46.8121 45.7768 47.6859 49.7621 48.5325C53.7474 49.3791 57.3843 50.0297 60.0194 50.4571C61.3397 50.6694 62.4068 50.8328 63.1472 50.9335L63.9993 51.0424C64.0979 51.0616 64.1983 51.0698 64.2987 51.0669C64.2034 51.0331 64.1049 51.0094 64.0047 50.9961L63.1581 50.8409L60.0466 50.2965C57.4197 49.8283 53.7855 49.1477 49.8084 48.3038C45.8313 47.4599 42.2352 46.6106 39.641 45.9709L36.5785 45.2223L35.7428 45.0208C35.6459 44.9895 35.5467 44.9658 35.446 44.9501Z" fill="#263238"/>
<path d="M0.150391 43.9768C0.150391 44.0421 5.9623 43.9523 13.1271 43.7754C20.292 43.5984 26.1012 43.4051 26.0984 43.3398C26.0957 43.2745 20.2893 43.3643 13.1217 43.5412C5.95413 43.7182 0.150391 43.9115 0.150391 43.9768Z" fill="#263238"/>
<path d="M4.90163 47.9187C4.91524 47.984 9.4341 47.1728 14.9956 46.1057C20.557 45.0386 25.0677 44.1266 25.0487 44.0613C25.0296 43.996 20.5189 44.8099 14.9547 45.8743C9.39055 46.9387 4.89074 47.856 4.90163 47.9187Z" fill="#263238"/>
<path d="M55.9886 39.5397C55.9886 39.5397 59.503 21.7092 57.1292 19.1993C54.7554 16.6895 40.7361 26.4676 40.7361 26.4676L53.8517 35.8456L55.9886 39.5397Z" fill="#D1D1D1"/>
<g opacity="0.3">
<path d="M53.5001 34.5334C53.5001 34.5334 56.93 21.3035 55.441 20.6992C53.952 20.0948 43.3979 27.306 43.3979 27.306C43.3979 27.306 48.4232 34.3892 53.5001 34.5334Z" fill="black"/>
</g>
<path d="M42.8274 25.8932C44.8282 25.9095 47.1829 26.9031 48.917 27.894C48.113 27.8765 47.325 28.12 46.6711 28.5882C49.4396 30.4311 52.3224 32.3993 53.8551 35.3937L51.4895 35.3365L43.3718 31.8276L42.8274 25.8932Z" fill="#D1D1D1"/>
<path d="M53.1154 34.7114C53.1154 34.7114 53.1154 34.646 53.0555 34.5371C52.9956 34.4282 52.9412 34.2649 52.8296 34.0635C52.521 33.5008 52.1562 32.9709 51.7407 32.4819C50.3641 30.8984 48.6877 29.6031 46.808 28.6708L46.7563 28.6436L46.7727 28.8586C47.378 28.4207 48.0804 28.1358 48.8198 28.0283L49.1056 27.9902L48.8769 27.8133C47.6331 26.852 46.1582 26.2352 44.6003 26.0248C44.1495 25.9625 43.6941 25.9398 43.2392 25.9567C43.0751 25.9536 42.9113 25.9719 42.752 26.0112C42.752 26.052 43.4407 25.9894 44.5677 26.1772C46.0837 26.4323 47.5123 27.061 48.7245 28.0066L48.7844 27.7888C48.0044 27.8948 47.2628 28.1922 46.6257 28.6544L46.4596 28.7742L46.6393 28.8695L46.6883 28.894C48.5366 29.8212 50.1978 31.0819 51.5882 32.6125C52.6744 33.7885 53.0691 34.7386 53.1154 34.7114Z" fill="#263238"/>
<path d="M49.5552 55.864C49.5552 55.864 49.5362 55.8804 49.4953 55.9021L49.3129 56.0028L48.6024 56.384L48.0879 56.6562C47.8974 56.7487 47.6851 56.8413 47.4618 56.9447C47.0072 57.1462 46.5009 57.3966 45.9156 57.6144L45.0037 57.9628C44.6852 58.0853 44.3476 58.1888 43.9992 58.3086C43.3078 58.559 42.551 58.7577 41.7561 58.9837C38.2876 59.8906 34.7016 60.266 31.1204 60.097C30.3038 60.0426 29.5143 60.0018 28.7848 59.901C28.4227 59.8575 28.0688 59.8275 27.7313 59.7731L26.7649 59.6098C26.147 59.5199 25.5998 59.3811 25.1153 59.2777C24.873 59.2205 24.647 59.1769 24.4429 59.1225L23.8821 58.9673L23.1117 58.7468L22.9103 58.6869C22.8667 58.6706 22.8422 58.6624 22.8449 58.6597H22.9157L23.1199 58.7087L23.8957 58.902L24.4592 59.0463C24.6634 59.0926 24.892 59.1361 25.1316 59.1851C25.6189 59.2804 26.166 59.4138 26.784 59.4982L27.7476 59.6506C28.0824 59.7023 28.4363 59.7295 28.7984 59.7704C29.5252 59.8657 30.3065 59.901 31.1259 59.9528C34.7002 60.1086 38.2779 59.7344 41.7425 58.8421C42.5347 58.6216 43.2941 58.4256 43.9829 58.1833C44.3313 58.0663 44.6689 57.9656 44.9874 57.8458L45.8993 57.4973C46.4846 57.2877 46.9882 57.0455 47.4482 56.8522C47.6742 56.7515 47.8892 56.6643 48.0798 56.58L48.5997 56.3241L49.3211 55.9729L49.5117 55.8831C49.5254 55.875 49.54 55.8686 49.5552 55.864Z" fill="#263238"/>
<path d="M23.9631 34.6994C23.3089 34.4132 22.5848 34.3259 21.8813 34.4485C21.1777 34.5711 20.5259 34.8981 20.0069 35.3887C19.488 35.8793 19.125 36.5119 18.9632 37.2074C18.8014 37.903 18.848 38.6308 19.0971 39.3001C19.3462 39.9694 19.7869 40.5505 20.3641 40.971C20.9413 41.3915 21.6296 41.6327 22.343 41.6646C23.0564 41.6966 23.7634 41.5177 24.3759 41.1505C24.9883 40.7832 25.4791 40.2437 25.787 39.5994C25.9894 39.158 26.1028 38.681 26.1206 38.1957C26.1385 37.7104 26.0605 37.2263 25.8911 36.7712C25.7217 36.3161 25.4642 35.8989 25.1334 35.5434C24.8026 35.1879 24.4049 34.9011 23.9631 34.6994Z" fill="white"/>
<path d="M24.3343 33.9222C22.4642 33.0347 20.2891 33.6962 19.4779 35.403C18.6667 37.1099 19.5215 39.2141 21.3835 40.1043C23.2454 40.9945 25.4287 40.333 26.2399 38.6261C27.0511 36.9193 26.2045 34.8123 24.3343 33.9222Z" fill="#020611"/>
<path d="M39.397 35.833C38.7312 36.092 38.1564 36.5414 37.7443 37.1251C37.3323 37.7088 37.1013 38.4009 37.0802 39.115C37.0591 39.8292 37.2488 40.5337 37.6256 41.1407C38.0025 41.7477 38.5497 42.2303 39.1991 42.5281C39.8485 42.826 40.5713 42.926 41.2771 42.8157C41.983 42.7054 42.6408 42.3896 43.1683 41.9077C43.6958 41.4259 44.0697 40.7993 44.2433 40.1063C44.4169 39.4132 44.3826 38.6844 44.1446 38.0108C43.803 37.093 43.1113 36.3482 42.2212 35.9399C41.3312 35.5316 40.3154 35.4932 39.397 35.833Z" fill="white"/>
<path d="M39.1113 35.0232C37.1595 35.7146 36.0897 37.7209 36.7212 39.504C37.3528 41.287 39.4434 42.1663 41.4007 41.4748C43.358 40.7834 44.4224 38.7744 43.7881 36.9941C43.1538 35.2138 41.0632 34.3318 39.1113 35.0232Z" fill="#020611"/>
<path d="M56.2554 38.4157C56.2843 38.14 56.3344 37.867 56.4051 37.599C56.5113 37.0954 56.6528 36.4012 56.7835 35.6309C56.9141 34.8605 57.0094 34.1554 57.0775 33.6464C57.0987 33.3714 57.1406 33.0984 57.2027 32.8297C57.223 33.1084 57.2148 33.3884 57.1782 33.6654C57.1401 34.1772 57.0584 34.8877 56.9277 35.6635C56.7971 36.4394 56.6392 37.1335 56.5058 37.6317C56.4491 37.9008 56.3651 38.1635 56.2554 38.4157Z" fill="#263238"/>
<path d="M26.3748 21.9911C24.9904 22.704 23.8682 23.8382 23.17 25.2302C22.4719 26.6221 22.2338 28.1998 22.4902 29.7358C22.7026 30.8519 23.3069 32.0251 24.3958 32.3627C25.7106 32.7737 27.0853 31.742 27.7141 30.517C28.343 29.292 28.4818 27.8792 28.9609 26.5889C29.44 25.2986 30.4581 24.0246 31.8328 23.9538L26.3748 21.9911Z" fill="#D1D1D1"/>
<path d="M26.3771 21.9894C26.3771 21.9894 26.4097 21.9894 26.4723 22.0139L26.7582 22.1091L27.8471 22.4875L31.8433 23.8976L32.1155 23.9956L31.8242 24.0092C31.1386 24.0675 30.5023 24.3896 30.0493 24.9076C29.5299 25.4737 29.1439 26.149 28.9196 26.8839C28.6637 27.6488 28.5031 28.4791 28.2499 29.3175C28.1239 29.7451 27.9599 30.1605 27.7599 30.5589C27.5465 30.966 27.2657 31.3341 26.9297 31.6478C26.5439 32.0261 26.0679 32.2997 25.5468 32.4426C25.0319 32.5798 24.4843 32.5196 24.0115 32.2739C23.5669 32.0271 23.2008 31.6601 22.9553 31.2149C22.7175 30.7977 22.5466 30.3458 22.4489 29.8756C22.2714 29.0096 22.2649 28.1172 22.4299 27.2487C22.5701 26.4949 22.8225 25.7663 23.1785 25.0872C23.4724 24.5265 23.8384 24.0067 24.2674 23.541C24.5867 23.1879 24.9415 22.8686 25.3263 22.5883C25.5704 22.412 25.827 22.2537 26.094 22.1146L26.3036 22.0111C26.3251 21.9968 26.3491 21.9867 26.3743 21.9812L26.3063 22.0248L26.1048 22.1445C25.846 22.2908 25.5969 22.4536 25.359 22.6318C24.489 23.3028 23.7771 24.1569 23.2738 25.1335C22.9282 25.8059 22.6851 26.5262 22.5524 27.2704C22.3949 28.1227 22.406 28.9976 22.585 29.8457C22.6797 30.3018 22.846 30.74 23.0778 31.1441C23.3119 31.5648 23.6589 31.9117 24.0795 32.1459C24.5212 32.3763 25.0334 32.4317 25.5141 32.3011C26.0113 32.1635 26.4655 31.9022 26.8344 31.5416C27.1569 31.2354 27.4272 30.8787 27.6347 30.4854C27.8299 30.0946 27.9902 29.6874 28.1138 29.2685C28.367 28.4519 28.5303 27.608 28.7917 26.8186C29.0253 26.0657 29.4243 25.3747 29.9595 24.796C30.4382 24.2601 31.1051 23.9295 31.8215 23.8731L31.8051 23.982L27.8552 22.5501L26.7663 22.1418L26.4941 22.0329L26.3771 21.9894Z" fill="#263238"/>
<path d="M44.6433 23.2716H38.7089C37.1354 25.923 36.0819 29.3203 37.4648 32.0997C37.9712 33.1151 38.8668 34.0842 40.0019 34.1142C41.3794 34.155 42.4247 32.7884 42.6969 31.4409C42.9691 30.0935 42.7241 28.6915 42.8357 27.3195C42.9473 25.9475 43.7041 24.4667 44.6433 23.2716Z" fill="#D1D1D1"/>
<path d="M44.6452 23.2682L44.6043 23.3308L44.4655 23.5296C44.3457 23.7011 44.1715 23.9542 43.9673 24.2918C43.7196 24.7038 43.504 25.1343 43.3222 25.5794C43.0789 26.1647 42.93 26.7849 42.8812 27.4169C42.8322 28.1219 42.8812 28.8977 42.8812 29.7335C42.8895 30.1672 42.8686 30.601 42.8186 31.032C42.7685 31.4938 42.6435 31.9443 42.4483 32.3658C42.2455 32.8123 41.9558 33.2139 41.5963 33.5473C41.4055 33.717 41.1932 33.8607 40.9647 33.9747C40.6017 34.1464 40.1983 34.2143 39.7991 34.1711C39.3999 34.1279 39.0204 33.9751 38.7026 33.7297C38.2616 33.4079 37.891 32.9994 37.6137 32.5292C37.1498 31.7363 36.8637 30.852 36.7753 29.9376C36.7061 29.0796 36.7666 28.216 36.9549 27.376C37.2957 25.9151 37.8683 24.5182 38.6509 23.2383L38.6672 23.2111H38.6999L43.0554 23.2464L44.2341 23.2601H44.5363C44.5689 23.2573 44.6017 23.2573 44.6343 23.2601H44.5227H44.2042L43.0064 23.2737L38.6999 23.3091L38.7489 23.2791C37.9829 24.5536 37.4225 25.9408 37.0883 27.3896C36.9067 28.2159 36.8498 29.0646 36.9195 29.9077C37.0067 30.7996 37.2852 31.6622 37.7362 32.4366C38.0029 32.8905 38.3596 33.2851 38.7843 33.5963C39.1909 33.8985 39.6914 34.047 40.1971 34.0155C40.4411 33.9955 40.6797 33.9328 40.9021 33.8304C41.1188 33.7233 41.3202 33.5878 41.501 33.4275C41.8457 33.1069 42.1233 32.7211 42.3177 32.2923C42.509 31.8841 42.6323 31.4473 42.6824 30.9993C42.7353 30.574 42.7589 30.1456 42.7532 29.7171C42.7532 28.8869 42.7042 28.1056 42.7532 27.3951C42.8075 26.7526 42.9646 26.123 43.2187 25.5304C43.4163 25.0885 43.6493 24.6633 43.9156 24.2591C44.1279 23.9216 44.3103 23.6738 44.4383 23.5078C44.5009 23.4261 44.5499 23.3689 44.5853 23.3281C44.6207 23.2873 44.6424 23.2682 44.6452 23.2682Z" fill="#263238"/>
<g opacity="0.3">
<path d="M31.438 24.5102L24.6951 23.5275C25.5335 25.1608 27.1641 26.2905 28.9145 26.8513C30.6649 27.4121 32.5377 27.4583 34.3752 27.3821C35.8665 27.3498 37.3487 27.1406 38.7906 26.7587C40.2369 26.3747 41.5651 25.6376 42.6562 24.6136L31.438 24.5102Z" fill="black"/>
</g>
<path d="M33.1194 5.3745C33.1194 5.3745 26.1615 4.66673 23.5482 10.6039L22.0591 15.0819C22.0591 15.0819 20.8913 17.6734 22.7125 20.8502C24.2859 23.5969 26.6569 25.6876 32.8227 26.2947C38.8116 26.8854 45.2088 25.0479 47.3321 20.8502C49.1886 17.1698 48.6415 12.866 47.7567 11.2844C46.5508 9.12298 42.0755 5.08322 33.1194 5.3745Z" fill="#D1D1D1"/>
<path d="M31.5027 5.60264C31.5027 5.60264 27.9937 3.49838 27.3077 3.05466C25.4185 1.85689 23.0094 0.694502 22.1356 2.36866C21.455 3.68348 24.15 11.4227 24.15 11.4227L28.8757 7.68241L31.5027 5.60264Z" fill="#D1D1D1"/>
<g opacity="0.3">
<path d="M30.4124 6.17677C30.4124 6.17677 23.5388 1.66607 22.9535 2.21052C22.3682 2.75496 24.7393 9.19842 24.7393 9.19842C24.7393 9.19842 29.5195 8.47159 30.4124 6.17677Z" fill="black"/>
</g>
<path d="M24.0413 9.75339C24.4714 8.61823 25.5058 7.48852 26.4096 6.70997C26.2314 7.16232 26.1981 7.65886 26.3143 8.13096C27.8986 6.94408 29.5809 5.71908 31.5328 5.47681L31.0047 6.81069L27.3814 10.6926L24.0413 9.75339Z" fill="#D1D1D1"/>
<path opacity="0.3" d="M35.6911 14.5273C35.2385 14.2002 34.6952 14.0223 34.1368 14.0182L32.2584 13.9747C31.9019 13.9626 31.5465 14.0219 31.2131 14.1489C30.8373 14.2944 30.496 14.5169 30.2113 14.8022C29.6121 15.4496 29.2096 16.2542 29.051 17.122C28.8924 17.9897 28.9842 18.8847 29.3157 19.7022C29.6425 20.5148 30.2161 21.2042 30.9557 21.6733C31.6953 22.1423 32.5635 22.3673 33.4378 22.3165C34.3121 22.2657 35.1484 21.9416 35.8287 21.39C36.5089 20.8384 36.9988 20.0871 37.2292 19.2421C37.4647 18.3921 37.4445 17.4915 37.1709 16.6529C36.8973 15.8143 36.3826 15.0749 35.6911 14.5273Z" fill="white"/>
<path d="M34.4308 14.8493C34.031 14.6562 33.5963 14.546 33.1528 14.5254C32.7092 14.5048 32.2661 14.5742 31.8502 14.7295C31.578 14.7867 31.3057 15.1814 31.499 15.3992L32.5879 16.695C32.6375 16.7549 32.7076 16.7943 32.7846 16.8053C32.8616 16.8164 32.9399 16.7984 33.0044 16.7549L34.8201 15.5408C35.0706 15.3638 34.8038 14.9664 34.4308 14.8493Z" fill="#263238"/>
<path d="M32.8806 16.1373C32.8504 16.214 32.8321 16.2947 32.8261 16.3769C32.7975 16.5983 32.7975 16.8224 32.8261 17.0438C32.8596 17.3773 32.9556 17.7015 33.1092 17.9993C33.3004 18.3555 33.5821 18.655 33.9259 18.8677C34.2683 19.0793 34.6673 19.1809 35.0692 19.159C35.3957 19.1336 35.7099 19.0239 35.9811 18.8405C36.1642 18.7158 36.3213 18.5568 36.4439 18.3723C36.4947 18.3078 36.5317 18.2337 36.5528 18.1545C36.3906 18.3991 36.1815 18.6092 35.9376 18.7724C35.6735 18.9343 35.3731 19.0279 35.0638 19.0446C34.6803 19.0612 34.3008 18.9616 33.9749 18.7588C33.6441 18.5604 33.371 18.2788 33.1827 17.9421C33.0291 17.6612 32.9268 17.3552 32.8806 17.0384C32.8521 16.7387 32.8521 16.437 32.8806 16.1373Z" fill="#263238"/>
<path d="M29.4131 17.4549C29.4372 17.5264 29.4711 17.5941 29.5138 17.6563C29.6154 17.834 29.731 18.0033 29.8595 18.1627C30.0461 18.4086 30.2979 18.5972 30.5864 18.7071C30.7656 18.7627 30.954 18.7825 31.1408 18.7652C31.3277 18.7479 31.5093 18.694 31.6752 18.6064C32.0166 18.4357 32.3005 18.1688 32.4919 17.8387C32.6454 17.5712 32.7548 17.2808 32.8158 16.9785C32.86 16.7768 32.8892 16.572 32.9029 16.366C32.9129 16.2901 32.9129 16.2132 32.9029 16.1373C32.8812 16.1373 32.8676 16.4613 32.7423 16.954C32.6704 17.2413 32.5567 17.5164 32.4048 17.7707C32.2238 18.0801 31.9572 18.3306 31.6371 18.492C31.3257 18.6562 30.9627 18.6933 30.6245 18.5955C30.3507 18.4952 30.1084 18.3242 29.9221 18.1C29.59 17.7271 29.4321 17.4549 29.4131 17.4549Z" fill="#263238"/>
<path d="M31.3562 19.7512C31.3426 19.7512 31.4242 19.9227 31.6284 20.1187C31.9052 20.3729 32.2526 20.5371 32.6247 20.5896C32.9984 20.6411 33.3788 20.5755 33.7136 20.4018C33.8561 20.3444 33.981 20.2505 34.0757 20.1296C34.0621 20.1105 33.9232 20.2139 33.6728 20.3174C33.3504 20.4516 32.9985 20.4995 32.652 20.4562C32.3055 20.4037 31.9784 20.2631 31.7019 20.0479C31.4814 19.8764 31.3725 19.7376 31.3562 19.7512Z" fill="#263238"/>
<path d="M36.2185 16.7755C36.2185 16.8136 40.8898 17.535 46.6663 18.3871C52.4429 19.2391 57.1278 19.9006 57.1332 19.8625C57.1387 19.8244 52.4619 19.103 46.6854 18.2482C40.9089 17.3934 36.224 16.7374 36.2185 16.7755Z" fill="#263238"/>
<path d="M36.1121 17.4747C36.166 17.5008 36.2226 17.5209 36.2808 17.5346L36.7708 17.6789C37.1982 17.8041 37.8189 17.9729 38.5865 18.1743C40.1246 18.5799 42.2561 19.0999 44.6271 19.6035C46.9982 20.1071 49.1596 20.4937 50.7249 20.7468C51.5089 20.8748 52.1431 20.97 52.5841 21.019L53.0905 21.0844C53.149 21.0935 53.2081 21.0989 53.2674 21.1007C53.2112 21.0794 53.1528 21.0648 53.0932 21.0572L52.5923 20.9646L50.7412 20.6379C49.1786 20.3657 47.0254 19.9574 44.6543 19.4565C42.2833 18.9556 40.1518 18.4493 38.611 18.0682L36.7844 17.6163L36.2863 17.4965C36.2293 17.4821 36.1708 17.4748 36.1121 17.4747Z" fill="#263238"/>
<path d="M15.1284 16.891C15.1284 16.9291 18.5856 16.8774 22.8431 16.7712C27.1007 16.6651 30.5579 16.5507 30.5552 16.499C30.5524 16.4473 27.1007 16.5126 22.8404 16.6188C18.5802 16.725 15.1284 16.8529 15.1284 16.891Z" fill="#263238"/>
<path d="M17.9563 19.2325C17.9563 19.2706 20.6486 18.7888 23.9452 18.1436C27.2418 17.4984 29.934 16.9649 29.9204 16.9268C29.9068 16.8887 27.2281 17.3732 23.9316 18.0157C20.635 18.6581 17.9482 19.1944 17.9563 19.2325Z" fill="#263238"/>
<path d="M48.3255 14.2536C48.3255 14.2536 50.4134 3.65331 49.0033 2.15882C47.5932 0.664333 39.2578 6.48169 39.2578 6.48169L47.0542 12.0568L48.3255 14.2536Z" fill="#D1D1D1"/>
<g opacity="0.3">
<path d="M46.8487 11.2771C46.8487 11.2771 48.8876 3.40989 48.0029 3.05056C47.1182 2.69123 40.8435 6.97871 40.8435 6.97871C40.8435 6.97871 43.8325 11.1927 46.8487 11.2771Z" fill="black"/>
</g>
<path d="M40.8423 6.651C42.0319 6.651 43.4311 7.25261 44.4655 7.84061C43.9872 7.83172 43.5186 7.97678 43.1289 8.25438C44.7623 9.34326 46.4881 10.5193 47.4001 12.305L45.9927 12.2724L41.1635 10.1817L40.8423 6.651Z" fill="#D1D1D1"/>
<path d="M30.2548 15.1143C30.1486 15.1143 30.0506 14.7604 29.8846 14.2296C29.7958 13.9392 29.6637 13.6638 29.4926 13.4129C29.3116 13.1383 29.0383 12.9374 28.7222 12.8467C28.3935 12.7873 28.0545 12.839 27.7585 12.9937C27.4898 13.1369 27.2446 13.3205 27.0317 13.5382C26.6424 13.9274 26.3974 14.216 26.3076 14.1616C26.2177 14.1071 26.3076 13.7451 26.6288 13.2142C26.8342 12.8908 27.1084 12.6166 27.4319 12.4112C27.8624 12.1344 28.384 12.0367 28.8855 12.139C29.133 12.2036 29.3647 12.3181 29.5664 12.4754C29.7681 12.6326 29.9357 12.8294 30.0588 13.0536C30.2477 13.388 30.361 13.7596 30.3909 14.1425C30.4372 14.7468 30.3473 15.1034 30.2548 15.1143Z" fill="#020611"/>
<path d="M40.7382 15.1294C40.6457 15.1811 40.4116 14.8817 40.0522 14.4597C39.8575 14.2246 39.6269 14.0216 39.369 13.8581C39.0955 13.6744 38.7648 13.596 38.438 13.6376C38.1163 13.7124 37.8289 13.8925 37.6213 14.1494C37.4277 14.3839 37.2724 14.6476 37.1613 14.9307C36.9571 15.4424 36.8455 15.8018 36.7393 15.7854C36.6332 15.7691 36.5705 15.407 36.6658 14.7891C36.7278 14.4109 36.8729 14.0511 37.0905 13.7356C37.3799 13.3136 37.8222 13.0208 38.3237 12.9189C38.5767 12.8818 38.8347 12.8967 39.0819 12.9627C39.329 13.0287 39.5601 13.1444 39.761 13.3028C40.0637 13.5346 40.3119 13.8301 40.4878 14.1684C40.7628 14.7319 40.8199 15.0831 40.7382 15.1294Z" fill="#020611"/>
<path d="M24.1672 22.776C25.8768 24.8612 28.5418 25.9991 31.2177 26.3366C33.8937 26.6742 39.7165 27.1887 45.0193 23.5464" fill="#D1D1D1"/>
<path d="M45.0218 23.5461C44.9665 23.5983 44.9053 23.644 44.8394 23.6822L44.295 24.0443C44.0609 24.2103 43.7506 24.3709 43.3967 24.5697C43.0428 24.7684 42.6208 24.9562 42.1608 25.174C41.0612 25.6449 39.9165 26.0024 38.7444 26.2411C37.3111 26.5299 35.8509 26.6641 34.3889 26.6413C33.6103 26.6413 32.8508 26.5786 32.1186 26.5079C31.4154 26.4432 30.7165 26.3387 30.0252 26.1948C28.851 25.9425 27.7226 25.511 26.6796 24.9154C25.9808 24.5139 25.3398 24.0194 24.7741 23.4454L24.5018 23.1732L24.3249 22.9608C24.274 22.903 24.2267 22.8421 24.1833 22.7784C24.2427 22.8268 24.2973 22.8806 24.3467 22.9391C24.3984 22.9989 24.461 23.067 24.5318 23.1432L24.804 23.4154C25.3828 23.9699 26.0305 24.4475 26.7313 24.8364C27.7695 25.414 28.8893 25.8307 30.0524 26.0723C30.74 26.2142 31.4354 26.3151 32.1349 26.3745C32.8617 26.4453 33.6158 26.4997 34.3916 26.5051C35.8465 26.5284 37.2999 26.3997 38.7281 26.1213C39.8889 25.8832 41.0239 25.5331 42.1172 25.076C42.5773 24.8664 43.0047 24.6949 43.3558 24.4934C43.707 24.292 44.0255 24.1532 44.2623 23.9953L44.8231 23.655C44.8869 23.6145 44.9533 23.5781 45.0218 23.5461Z" fill="#263238"/>
<g opacity="0.3">
<path d="M35.1481 11.3836C35.1644 11.7838 34.4757 12.1404 33.6127 12.075C32.7498 12.0097 32.1182 11.5633 32.1945 11.1686C32.2707 10.7738 32.9458 10.5642 33.7189 10.6241C34.492 10.684 35.1317 10.9807 35.1481 11.3836Z" fill="white"/>
</g>
<path d="M39.4245 2.86921C39.3837 2.72765 39.2013 2.69498 39.0516 2.69498C38.4721 2.69733 37.8984 2.81004 37.3611 3.02709C37.5935 2.02937 37.7653 1.01849 37.8756 0C37.2578 0.0175418 36.6529 0.180498 36.1099 0.475638C35.5669 0.770779 35.1012 1.18979 34.7505 1.69866C34.6688 1.81843 34.5545 1.97088 34.4129 1.92732C34.2714 1.88377 34.2523 1.78032 34.2142 1.67416L33.7569 0.397442C32.7986 0.269498 31.9167 3.55248 33.6725 6.47613L37.3883 6.20391C37.8293 5.0143 38.9508 4.29836 39.3918 3.09787C39.4284 3.02758 39.4399 2.94692 39.4245 2.86921Z" fill="#D1D1D1"/>
</svg>
