<svg width="37" height="27" viewBox="0 0 37 27" fill="none" xmlns="http://www.w3.org/2000/svg">
<path d="M11.9885 0C10.7353 0 6.95687 1.51117 6.27899 1.81317C5.60111 2.11518 4.84869 3.05794 3.99494 4.61389C3.14002 6.16984 2.45399 7.98876 1.33934 10.6643C0.225846 13.3399 -0.0338904 18.4981 0.00338126 20.0724C0.0406529 21.6467 0.223517 22.8765 1.85997 23.8078C3.49527 24.7379 4.94187 25.7117 6.46418 26.2973C7.98766 26.883 9.02661 27.3044 9.73244 26.7188C10.4383 26.1331 10.903 25.1077 10.903 25.1077C10.903 25.1077 11.5716 24.1925 10.309 23.6436C9.04641 23.0936 8.41512 22.7089 8.46986 22.1416C8.52577 21.5744 8.61778 21.2632 8.93343 21.3367C9.24907 21.4102 9.99334 22.7273 12.8528 23.3313C15.7122 23.9353 18.4994 23.8446 18.4994 23.8446C18.4994 23.8446 21.2878 23.9364 24.1472 23.3313C27.0067 22.7273 27.7498 21.4102 28.0654 21.3367C28.3811 21.2632 28.4731 21.5744 28.529 22.1405C28.5849 22.7089 27.9536 23.0936 26.691 23.6436C25.4284 24.1925 26.097 25.1077 26.097 25.1077C26.097 25.1077 26.5617 26.132 27.2676 26.7188C27.9722 27.3044 29.0123 26.883 30.5347 26.2973C32.057 25.7117 33.5047 24.7391 35.14 23.8078C36.7765 22.8765 36.9593 21.6467 36.9966 20.0724C37.0339 18.4992 36.7742 13.3399 35.6595 10.6643C34.546 7.98876 33.8588 6.16984 33.0039 4.61389C32.1513 3.05794 31.3977 2.11518 30.721 1.81203C30.0431 1.51117 26.2636 0 25.0103 0C23.757 0 23.3867 0.861229 23.3867 0.861229L22.9499 1.81317C22.9499 1.81317 20.0147 1.26314 18.5192 1.26199C17.0237 1.26199 14.0501 1.81317 14.0501 1.81317L13.6133 0.860081C13.6133 0.860081 13.243 0 11.9885 0ZM12.1248 11.4233H12.1714C13.9989 11.4233 15.4793 13 15.4793 14.944C15.4793 16.8893 13.9989 18.4648 12.1714 18.4648C10.3439 18.4648 8.86354 16.8893 8.86354 14.944C8.86238 13.0183 10.316 11.4498 12.1248 11.4233ZM24.8286 11.4233H24.8752C26.684 11.4498 28.1365 13.0195 28.1365 14.944C28.1365 16.8893 26.6561 18.4648 24.8286 18.4648C23 18.4648 21.5207 16.8893 21.5207 14.944C21.5207 13 23 11.4233 24.8286 11.4233Z" fill="url(#paint0_linear_0_4490)"/>
<defs>
<linearGradient id="paint0_linear_0_4490" x1="37" y1="27" x2="-4.22042" y2="10.622" gradientUnits="userSpaceOnUse">
<stop stop-color="#6949FF"/>
<stop offset="1" stop-color="#876DFF"/>
</linearGradient>
</defs>
</svg>
