<svg width="209" height="164" viewBox="0 0 209 164" fill="none" xmlns="http://www.w3.org/2000/svg">
<g opacity="0.5">
<path d="M30.607 60.6473C-10.2044 84.2104 -10.2002 122.411 30.607 145.974C71.4142 169.537 137.582 169.537 178.393 145.974C219.204 122.411 219.2 84.2104 178.393 60.6473C137.586 37.0842 71.4185 37.0884 30.607 60.6473Z" fill="#FAFAFA"/>
<path d="M8.28442 101.556L30.8942 88.5044L53.5039 101.556L30.8942 114.611L8.28442 101.556Z" fill="#E0E0E0"/>
<path d="M36.8162 124.734L59.4259 111.678L82.0357 124.734L59.4259 137.789L36.8162 124.734Z" fill="#E0E0E0"/>
<path d="M139.492 57.5764L164.637 43.0573L189.786 57.5764L164.637 72.0956L139.492 57.5764Z" fill="#E0E0E0"/>
<path d="M151.824 85.246L176.974 70.7268L202.123 85.246L176.974 99.7652L151.824 85.246Z" fill="#E0E0E0"/>
<path d="M30.3867 113.395L10.4218 101.854V77.2916L10 77.0469V71.1625L30.3867 82.9314V113.395Z" fill="#E0E0E0"/>
<path opacity="0.15" d="M30.3886 88.823L22.7452 84.4107L10.4237 77.2946V78.1424L30.3886 89.6666V88.823Z" fill="black"/>
<path d="M30.3882 113.395L50.2434 101.939V77.3548L50.7749 77.0469V71.1625L30.3882 82.9314V113.395Z" fill="#F0F0F0"/>
<path opacity="0.1" d="M50.2476 77.353L30.3882 88.8182V89.6618L50.2476 78.2093V77.353Z" fill="black"/>
<path d="M50.7735 71.1617L30.3867 59.3928L10 71.1617L30.3867 82.9306L50.7735 71.1617Z" fill="#FAFAFA"/>
<path d="M38.668 108.622V78.1534L41.9793 76.2426V106.707L38.668 108.622Z" fill="#EBEBEB"/>
<path d="M22.1076 108.622V78.1534L18.7963 76.2426V106.707L22.1076 108.622Z" fill="#E0E0E0"/>
<path opacity="0.15" d="M22.1076 108.622V78.1534L18.7963 76.2426V106.707L22.1076 108.622Z" fill="black"/>
<path d="M41.978 76.2392L21.5912 64.4703L18.2799 66.3812L38.6667 78.1501L41.978 76.2392Z" fill="#F5F5F5"/>
<path opacity="0.25" d="M30.6602 73.5303L33.9715 71.6195L30.6602 69.7086L27.3489 71.6195L30.6602 73.5303Z" fill="black"/>
<path d="M22.1076 78.1501L42.4943 66.3812L39.183 64.4703L18.7963 76.2392L22.1076 78.1501Z" fill="#F5F5F5"/>
<path d="M21.5823 66.2529C21.9029 67.6407 23.9276 71.6733 30.3562 72.112L31.0311 71.5257C31.0311 71.5257 23.5648 69.657 25.1847 63.1145L21.5823 66.2529Z" fill="#E0E0E0"/>
<path d="M31.086 72.8751C31.086 72.8751 31.086 68.9183 29.5843 66.5857C28.0826 64.253 25.1636 63.1267 25.1636 63.1267C23.7177 63.8386 22.4831 64.9161 21.5823 66.2524C23.3807 66.3013 25.1457 66.7494 26.7496 67.5643C29.2806 68.9015 30.3562 72.1116 30.3562 72.1116L31.086 72.8751Z" fill="#EBEBEB"/>
<path d="M26.6762 67.5356L29.2789 66.1647C28.8512 65.6147 28.3567 65.1201 27.8067 64.6925L24.373 66.6582C25.1707 66.8651 25.9431 67.1593 26.6762 67.5356Z" fill="#FAFAFA"/>
<path d="M21.0903 73.5225C21.0903 73.5225 25.49 74.6783 31.0749 72.8771L30.6531 72.1136C30.6531 72.1136 27.7467 72.6029 25.6882 72.1136C23.6297 71.6243 21.8918 68.701 21.8918 68.701L21.0903 73.5225Z" fill="#E0E0E0"/>
<path d="M31.0829 72.8752C31.0829 72.8752 31.0322 71.7911 29.5052 70.3695C27.5016 68.5093 23.5997 68.5093 21.8829 68.6822C21.1876 69.2123 20.7177 69.985 20.5668 70.8462C20.3601 71.905 21.0983 73.5037 21.0983 73.5037C21.662 72.8276 22.3589 72.2749 23.1456 71.8801C23.9323 71.4853 24.7919 71.2568 25.6709 71.2089C27.2846 71.069 28.8898 71.5588 30.1506 72.5756L31.0829 72.8752Z" fill="#EBEBEB"/>
<path d="M25.1555 68.7198C24.5069 68.6491 23.8547 68.6181 23.2024 68.627C22.7175 69.1156 22.3771 69.7287 22.2185 70.3986C22.06 71.0685 22.0895 71.7692 22.3039 72.4234C22.9239 71.992 23.6129 71.6696 24.3413 71.47C24.2975 70.488 24.5842 69.5197 25.1555 68.7198Z" fill="#FAFAFA"/>
<path d="M25.3145 78.6426C25.3145 78.6426 27.6894 78.3558 29.1868 76.6347C30.128 75.5637 30.78 74.27 31.0808 72.8763L30.3511 72.1128C29.7984 73.4115 28.7882 74.4622 27.5122 75.0656C25.8249 75.8122 22.6781 75.8038 22.6781 75.8038L25.3145 78.6426Z" fill="#E0E0E0"/>
<path d="M31.0808 72.8761L30.3511 72.1126C30.3511 72.1126 27.5291 71.5431 26.0063 72.1126C24.4835 72.6821 22.7118 75.0653 22.6781 75.7909C22.874 76.4342 23.213 77.025 23.6695 77.5188C24.1261 78.0126 24.6885 78.3967 25.3145 78.6424C25.3145 78.6424 25.1711 76.044 27.1283 74.5212C28.2697 73.6201 29.6372 73.0509 31.0808 72.8761Z" fill="#EBEBEB"/>
<path d="M28.1379 73.8641L25.6618 72.2906C25.1049 72.6049 24.601 73.0049 24.1686 73.476L26.6025 75.0156C26.7638 74.8363 26.9402 74.6712 27.1298 74.5221C27.4486 74.2774 27.7856 74.0574 28.1379 73.8641Z" fill="#FAFAFA"/>
<path d="M38.2165 65.8661C38.3725 66.6254 37.7946 68.7176 35.9681 70.0843C34.1416 71.451 31.0244 71.991 31.0244 71.991L30.6025 71.721C30.6025 71.721 33.6945 69.7806 34.6984 68.0005C35.7024 66.2204 34.9642 63.3605 34.9642 63.3605L38.2165 65.8661Z" fill="#E0E0E0"/>
<path d="M31.0287 71.9904C31.5913 70.2522 32.6716 68.7275 34.1249 67.6203C36.4407 65.9794 38.2419 65.8655 38.2419 65.8655C37.8845 65.2531 37.4094 64.7174 36.844 64.2895C36.2786 63.8617 35.634 63.55 34.9474 63.3726C34.9474 63.3726 32.2942 64.9291 31.2776 67.3082C30.6879 68.7 30.4434 70.2137 30.5647 71.7205L31.0287 71.9904Z" fill="#EBEBEB"/>
<path d="M35.2723 66.8844C35.7813 66.6034 36.3133 66.3663 36.8626 66.1758C36.0435 65.2663 35.0358 64.5465 33.9098 64.0667C33.3333 64.5285 32.806 65.0487 32.3364 65.619C33.4084 65.7784 34.4203 66.2146 35.2723 66.8844Z" fill="#FAFAFA"/>
<path d="M40.8684 70.8087C39.9657 72.032 36.8273 74.0737 31.3394 72.4075L31.002 71.7663C31.002 71.7663 34.1234 72.0109 36.6966 70.6991C39.2697 69.3872 39.4595 67.6198 39.4595 67.6198L40.8684 70.8087Z" fill="#E0E0E0"/>
<path d="M31.0264 71.7673C31.8679 70.2071 33.2031 68.9698 34.8228 68.2493C36.2777 67.601 37.8879 67.3829 39.4628 67.6208C39.4628 67.6208 41.0826 68.8863 40.8717 70.8098C39.4573 70.131 37.8725 69.8901 36.3203 70.118C33.705 70.4976 31.6802 71.6787 31.3427 72.4085L31.0264 71.7673Z" fill="#EBEBEB"/>
<path d="M38.1933 70.0761C38.8299 70.1322 39.4574 70.2653 40.062 70.4727C39.778 69.3242 39.1441 68.2924 38.2481 67.5199C37.8555 67.5269 37.4638 67.5593 37.0754 67.6169C37.6501 68.3289 38.0347 69.175 38.1933 70.0761Z" fill="#FAFAFA"/>
<path d="M37.4121 79.2591C35.9947 79.297 31.5614 77.2892 31.0847 72.8769L31.5614 71.8181C31.5614 71.8181 32.6075 74.2605 34.6069 75.3783C36.6064 76.4961 39.5212 76.4751 39.5212 76.4751L37.4121 79.2591Z" fill="#E0E0E0"/>
<path d="M31.0264 71.7682C31.0264 71.7682 33.5573 71.7091 35.2952 72.4094C38.3661 73.6748 39.4038 75.1133 39.5388 76.4758C39.1837 77.6223 38.4372 78.6076 37.4297 79.2598C37.4297 79.2598 36.1642 75.978 34.6203 74.5986C32.5534 72.7553 31.0981 72.8776 31.0981 72.8776L31.0264 71.7682Z" fill="#EBEBEB"/>
<path d="M37.0327 78.3686C37.9482 77.6179 38.7237 76.711 39.3232 75.69C39.0258 74.9518 38.5257 74.3127 37.8805 73.8467C37.1371 74.5426 36.2305 75.0402 35.2441 75.2935C35.9576 76.2457 36.5579 77.2777 37.0327 78.3686Z" fill="#FAFAFA"/>
<path d="M58.9192 136.529L38.9543 124.988V107.706L38.5325 107.461V101.577L58.9192 113.346V136.529Z" fill="#E0E0E0"/>
<path opacity="0.15" d="M58.9212 119.233L51.2778 114.821L38.9563 107.709V108.553L58.9212 120.081V119.233Z" fill="black"/>
<path d="M58.9207 136.529L78.7759 125.072V107.765L79.3074 107.461V101.577L58.9207 113.346V136.529Z" fill="#F0F0F0"/>
<path opacity="0.1" d="M78.7759 107.765L58.9207 119.23V120.078L78.7759 108.621V107.765Z" fill="black"/>
<path d="M79.306 101.576L58.9192 89.8071L38.5325 101.576L58.9192 113.345L79.306 101.576Z" fill="#FAFAFA"/>
<path d="M67.1956 131.755V108.568L70.5111 106.657V129.845L67.1956 131.755Z" fill="#EBEBEB"/>
<path d="M50.6399 131.755V108.568L47.3286 106.657V129.845L50.6399 131.755Z" fill="#E0E0E0"/>
<path opacity="0.15" d="M50.6399 131.755V108.568L47.3286 106.657V129.845L50.6399 131.755Z" fill="black"/>
<path d="M70.5106 106.654L50.1238 94.8846L46.8125 96.7955L67.195 108.564L70.5106 106.654Z" fill="#F5F5F5"/>
<path opacity="0.25" d="M59.1927 103.945L62.504 102.034L59.1927 100.123L55.8813 102.034L59.1927 103.945Z" fill="black"/>
<path d="M50.6399 108.564L71.0267 96.7955L67.7154 94.8846L47.3286 106.654L50.6399 108.564Z" fill="#F5F5F5"/>
<path d="M50.1094 96.6715C50.43 98.0593 52.4547 102.092 58.8833 102.531L59.5371 101.957C59.5371 101.957 52.0709 100.088 53.6907 93.5458L50.1094 96.6715Z" fill="#E0E0E0"/>
<path d="M59.6131 103.29C59.6131 103.29 59.6131 99.3374 58.1114 97.0047C56.6097 94.672 53.6907 93.5458 53.6907 93.5458C52.2448 94.2576 51.0102 95.3352 50.1094 96.6715C51.9078 96.7204 53.6728 97.1685 55.2767 97.9834C57.8077 99.3163 58.8833 102.531 58.8833 102.531L59.6131 103.29Z" fill="#EBEBEB"/>
<path d="M55.218 97.9492L57.8206 96.5783C57.3919 96.028 56.8975 95.5322 56.3484 95.1019L52.9148 97.0719C53.7124 97.2787 54.4848 97.573 55.218 97.9492Z" fill="#FAFAFA"/>
<path d="M49.6321 103.939C49.6321 103.939 54.0317 105.091 59.6166 103.29L59.1948 102.53C59.1948 102.53 56.2885 103.02 54.23 102.53C52.1715 102.041 50.4335 99.1177 50.4335 99.1177L49.6321 103.939Z" fill="#E0E0E0"/>
<path d="M59.6197 103.288C59.6197 103.288 59.5691 102.204 58.0421 100.786C56.0384 98.926 52.1366 98.926 50.4197 99.099C49.7232 99.628 49.253 100.401 49.1037 101.263C48.897 102.322 49.6352 103.92 49.6352 103.92C50.2029 103.245 50.9038 102.693 51.6942 102.301C52.4846 101.908 53.3474 101.683 54.2288 101.638C55.8422 101.501 57.4466 101.991 58.7086 103.005L59.6197 103.288Z" fill="#EBEBEB"/>
<path d="M53.6876 99.1371C53.0392 99.0643 52.3869 99.0333 51.7345 99.0443C51.2496 99.5329 50.9092 100.146 50.7506 100.816C50.5921 101.486 50.6216 102.187 50.836 102.841C51.455 102.408 52.1444 102.085 52.8734 101.887C52.8297 100.905 53.1163 99.937 53.6876 99.1371Z" fill="#FAFAFA"/>
<path d="M53.8466 109.067C53.8466 109.067 56.2215 108.776 57.7189 107.059C58.6606 105.986 59.3126 104.691 59.6129 103.296L58.8832 102.537C58.3284 103.836 57.317 104.886 56.0401 105.49C54.3528 106.236 51.2102 106.228 51.2102 106.228L53.8466 109.067Z" fill="#E0E0E0"/>
<path d="M59.6129 103.289L58.8832 102.529C58.8832 102.529 56.0612 101.96 54.5384 102.529C53.0156 103.099 51.244 105.482 51.2102 106.208C51.4061 106.851 51.7451 107.442 52.2016 107.936C52.6582 108.429 53.2206 108.813 53.8466 109.059C53.8466 109.059 53.7032 106.461 55.6604 104.938C56.8009 104.035 58.1687 103.464 59.6129 103.289Z" fill="#EBEBEB"/>
<path d="M56.67 104.273L54.1939 102.7C53.6371 103.016 53.1332 103.417 52.7007 103.889L55.1346 105.429C55.2959 105.25 55.4723 105.085 55.6619 104.936C55.9807 104.69 56.3177 104.468 56.67 104.273Z" fill="#FAFAFA"/>
<path d="M66.75 96.2807C66.9061 97.04 66.3493 99.1323 64.5017 100.499C62.6541 101.866 59.5368 102.389 59.5368 102.389L59.115 102.123C59.115 102.123 62.207 100.178 63.2109 98.4025C64.2148 96.6266 63.4766 93.7625 63.4766 93.7625L66.75 96.2807Z" fill="#E0E0E0"/>
<path d="M59.5396 102.401C60.1029 100.664 61.1832 99.1407 62.6358 98.0346C64.9516 96.3937 66.7528 96.2798 66.7528 96.2798C66.3962 95.6668 65.9213 95.1307 65.3558 94.7027C64.7902 94.2747 64.1452 93.9634 63.4583 93.7869C63.4583 93.7869 60.8177 95.3434 59.8096 97.7183C59.2199 99.1116 58.9753 100.627 59.0967 102.135L59.5396 102.401Z" fill="#EBEBEB"/>
<path d="M63.8105 97.305C64.3194 97.025 64.8515 96.7894 65.4008 96.6006C64.5796 95.6987 63.572 94.9863 62.448 94.5126C61.8755 94.9604 61.351 95.4665 60.8831 96.0227C61.9531 96.1906 62.9616 96.6323 63.8105 97.305Z" fill="#FAFAFA"/>
<path d="M69.4102 101.223C68.5032 102.446 65.3691 104.484 59.8812 102.822L59.5437 102.18C59.5437 102.18 62.6652 102.425 65.2383 101.109C67.8114 99.7929 68.0013 98.0339 68.0013 98.0339L69.4102 101.223Z" fill="#E0E0E0"/>
<path d="M59.5388 102.184C60.3804 100.624 61.7155 99.3864 63.3352 98.6659C64.7965 98.0135 66.4145 97.7953 67.9964 98.0374C67.9964 98.0374 69.6162 99.3028 69.4053 101.226C67.9916 100.545 66.406 100.304 64.8538 100.535C62.2385 100.914 60.2137 102.095 59.8763 102.825L59.5388 102.184Z" fill="#EBEBEB"/>
<path d="M66.7246 100.485C67.3606 100.546 67.9876 100.679 68.5933 100.882C68.3072 99.7344 67.6738 98.7031 66.7794 97.9292C66.3854 97.9343 65.9921 97.9667 65.6025 98.0262C66.1808 98.7365 66.5671 99.5832 66.7246 100.485Z" fill="#FAFAFA"/>
<path d="M65.9441 109.673C64.5267 109.711 60.0934 107.703 59.6167 103.286L60.0934 102.228C60.0934 102.228 61.1395 104.674 63.1389 105.792C65.1384 106.91 68.0532 106.884 68.0532 106.884L65.9441 109.673Z" fill="#E0E0E0"/>
<path d="M59.5388 102.18C59.5388 102.18 62.0698 102.117 63.8077 102.821C66.8786 104.066 67.9162 105.525 68.0512 106.884C67.6961 108.031 66.9497 109.018 65.9421 109.672C65.9421 109.672 64.6766 106.39 63.1328 105.011C61.0658 103.167 59.6105 103.285 59.6105 103.285L59.5388 102.18Z" fill="#EBEBEB"/>
<path d="M65.5695 108.779C66.4859 108.03 67.2615 107.125 67.86 106.104C67.5609 105.367 67.0611 104.729 66.4174 104.261C65.6749 104.957 64.7678 105.454 63.781 105.704C64.4927 106.657 65.0928 107.689 65.5695 108.779Z" fill="#FAFAFA"/>
<path d="M164.122 70.6313L141.917 57.7952V19.9069L141.449 19.6412V13.0945L164.122 26.1837V70.6313Z" fill="#E0E0E0"/>
<path opacity="0.15" d="M164.116 32.7294L155.616 27.8194L141.911 19.906V20.8509L164.116 33.6701V32.7294Z" fill="black"/>
<path d="M164.121 70.6313L186.208 57.888V19.9786L186.794 19.6412V13.0945L164.121 26.1837V70.6313Z" fill="#F0F0F0"/>
<path opacity="0.1" d="M186.208 19.9766L164.121 32.7283V33.669L186.208 20.9299V19.9766Z" fill="black"/>
<path d="M186.795 13.0934L164.122 0L141.449 13.0934L164.122 26.1826L186.795 13.0934Z" fill="#FAFAFA"/>
<path d="M173.331 65.3155V20.8679L177.014 18.7419V63.1895L173.331 65.3155Z" fill="#EBEBEB"/>
<path d="M154.916 65.3155V20.8679L151.234 18.7419V63.1895L154.916 65.3155Z" fill="#E0E0E0"/>
<path opacity="0.15" d="M154.916 65.3155V20.8679L151.234 18.7419V63.1895L154.916 65.3155Z" fill="black"/>
<path d="M177.01 18.7409L154.337 5.64746L150.654 7.77345L173.327 20.8669L177.01 18.7409Z" fill="#F5F5F5"/>
<path opacity="0.25" d="M164.428 15.724L168.11 13.598L164.428 11.4678L160.741 13.598L164.428 15.724Z" fill="black"/>
<path d="M154.916 20.8669L177.589 7.77345L173.907 5.64746L151.234 18.7409L154.916 20.8669Z" fill="#F5F5F5"/>
<path d="M154.325 7.63215C154.688 9.17602 156.937 13.66 164.086 14.1493L164.812 13.5124C164.812 13.5124 156.51 11.4328 158.316 4.1521L154.325 7.63215Z" fill="#E0E0E0"/>
<path d="M164.896 14.9996C164.896 14.9996 164.896 10.6 163.23 8.00579C161.564 5.41157 158.316 4.15454 158.316 4.15454C156.707 4.94901 155.331 6.14825 154.325 7.63459C156.327 7.68736 158.291 8.18598 160.075 9.0941C162.876 10.5789 164.086 14.156 164.086 14.156L164.896 14.9996Z" fill="#EBEBEB"/>
<path d="M160.008 9.05455L162.906 7.53176C162.431 6.91856 161.881 6.36729 161.269 5.89087L157.448 8.07591C158.335 8.30618 159.193 8.63441 160.008 9.05455Z" fill="#FAFAFA"/>
<path d="M153.794 15.7143C153.794 15.7143 158.692 16.9798 164.897 14.9972L164.429 14.1536C164.429 14.1536 161.193 14.6977 158.907 14.1536C156.621 13.6094 154.668 10.3572 154.668 10.3572L153.794 15.7143Z" fill="#E0E0E0"/>
<path d="M164.896 14.9986C164.896 14.9986 164.841 13.7922 163.141 12.2146C160.918 10.1434 156.565 10.1434 154.666 10.3544C153.89 10.9423 153.367 11.8034 153.203 12.763C152.971 13.9399 153.793 15.7157 153.793 15.7157C154.423 14.9682 155.199 14.3579 156.074 13.9225C156.949 13.4872 157.904 13.2361 158.88 13.1848C160.674 13.0312 162.459 13.5751 163.862 14.7034L164.896 14.9986Z" fill="#EBEBEB"/>
<path d="M158.306 10.3604C157.585 10.2776 156.859 10.2423 156.133 10.2549C155.596 10.7987 155.218 11.4798 155.042 12.2238C154.865 12.9678 154.897 13.746 155.134 14.4732C155.823 13.9913 156.591 13.6317 157.403 13.4102C157.354 12.3211 157.671 11.2471 158.306 10.3604Z" fill="#FAFAFA"/>
<path d="M158.489 21.4067C158.489 21.4067 161.13 21.0861 162.792 19.1753C163.841 17.985 164.567 16.5458 164.901 14.995L164.091 14.1514C163.473 15.5906 162.349 16.7536 160.932 17.4205C159.055 18.2641 155.558 18.2641 155.558 18.2641L158.489 21.4067Z" fill="#E0E0E0"/>
<path d="M164.896 14.9986L164.086 14.155C164.086 14.155 160.948 13.5223 159.256 14.155C157.565 14.7877 155.586 17.4326 155.553 18.2467C155.773 18.9637 156.153 19.6214 156.665 20.1702C157.176 20.7189 157.806 21.1444 158.506 21.4146C158.506 21.4146 158.341 18.5293 160.518 16.8336C161.781 15.8319 163.296 15.1971 164.896 14.9986Z" fill="#EBEBEB"/>
<path d="M161.625 16.0943L158.866 14.3438C158.247 14.6953 157.686 15.1407 157.204 15.6641L159.916 17.3767C160.095 17.1781 160.289 16.9947 160.498 16.8283C160.854 16.5548 161.231 16.3094 161.625 16.0943Z" fill="#FAFAFA"/>
<path d="M172.836 7.19885C173.009 8.04249 172.389 10.3667 170.334 11.9022C168.28 13.4376 164.808 14.0113 164.808 14.0113L164.315 13.7329C164.315 13.7329 167.753 11.5689 168.871 9.59059C169.988 7.61223 169.166 4.44434 169.166 4.44434L172.836 7.19885Z" fill="#E0E0E0"/>
<path d="M164.808 14.0086C165.436 12.0758 166.638 10.3804 168.255 9.14923C170.828 7.32273 172.836 7.20041 172.836 7.20041C172.438 6.51868 171.91 5.92242 171.281 5.44604C170.651 4.96965 169.934 4.62256 169.17 4.4248C169.17 4.4248 166.217 6.1585 165.112 8.79912C164.452 10.3558 164.178 12.0491 164.315 13.7345L164.808 14.0086Z" fill="#EBEBEB"/>
<path d="M169.562 8.34224C170.128 8.03178 170.719 7.76933 171.329 7.55765C170.412 6.55218 169.286 5.75898 168.03 5.2334C167.397 5.7371 166.815 6.30228 166.292 6.92069C167.487 7.10458 168.613 7.5943 169.562 8.34224Z" fill="#FAFAFA"/>
<path d="M175.787 12.6993C174.779 14.0618 171.29 16.3312 165.187 14.4794L164.807 13.7623C164.807 13.7623 168.283 14.0365 171.134 12.5769C173.986 11.1174 174.205 9.15173 174.205 9.15173L175.787 12.6993Z" fill="#E0E0E0"/>
<path d="M164.807 13.7609C165.744 12.0285 167.227 10.6539 169.025 9.85056C170.649 9.12565 172.447 8.8826 174.205 9.15034C174.205 9.15034 176.011 10.5677 175.779 12.6979C174.205 11.9432 172.443 11.6758 170.717 11.9302C167.81 12.352 165.541 13.6681 165.182 14.4611L164.807 13.7609Z" fill="#EBEBEB"/>
<path d="M172.793 11.8774C173.502 11.9429 174.202 12.0915 174.876 12.3204C174.555 11.0475 173.85 9.90452 172.856 9.047C172.419 9.05091 171.984 9.08616 171.552 9.15245C172.215 9.83581 172.59 10.9747 172.793 11.8774Z" fill="#FAFAFA"/>
<path d="M171.939 22.0957C170.361 22.1379 165.43 19.9064 164.895 14.9964L165.426 13.8153C165.426 13.8153 166.59 16.5361 168.801 17.7804C171.011 19.0248 174.284 18.9953 174.284 18.9953L171.939 22.0957Z" fill="#E0E0E0"/>
<path d="M164.807 13.7607C164.807 13.7607 167.62 13.6932 169.557 14.4778C172.973 15.8572 174.129 17.4854 174.281 18.9956C173.884 20.2707 173.055 21.3672 171.936 22.096C171.936 22.096 170.535 18.4472 168.81 16.9118C166.511 14.8617 164.891 14.9967 164.891 14.9967L164.807 13.7607Z" fill="#EBEBEB"/>
<path d="M171.52 21.1033C172.533 20.2689 173.391 19.2604 174.051 18.1253C173.719 17.3041 173.162 16.5934 172.443 16.0752C171.618 16.8507 170.609 17.4037 169.512 17.6823C170.311 18.7416 170.984 19.8895 171.52 21.1033Z" fill="#FAFAFA"/>
<path d="M176.464 98.2535L154.255 85.4174V76.4199L153.787 76.1458V69.6033L176.464 82.6925V98.2535Z" fill="#E0E0E0"/>
<path opacity="0.15" d="M176.455 89.2388L167.955 84.3288L154.25 76.4196V77.3602L176.455 90.1795V89.2388Z" fill="black"/>
<path d="M176.469 98.2535L198.552 85.5145V76.4874L199.142 76.1458V69.6033L176.469 82.6925V98.2535Z" fill="#F0F0F0"/>
<path opacity="0.1" d="M198.55 76.4854L176.459 89.2371V90.1778L198.55 77.4387V76.4854Z" fill="black"/>
<path d="M199.137 69.6022L176.464 56.5088L153.787 69.6022L176.464 82.6914L199.137 69.6022Z" fill="#FAFAFA"/>
<path d="M185.675 92.942V77.3767L189.357 75.2507V90.816L185.675 92.942Z" fill="#EBEBEB"/>
<path d="M167.259 92.942V77.3767L163.572 75.2507V90.816L167.259 92.942Z" fill="#E0E0E0"/>
<path opacity="0.15" d="M167.259 92.942V77.3767L163.572 75.2507V90.816L167.259 92.942Z" fill="black"/>
<path d="M189.352 75.2497L166.679 62.1562L162.992 64.2822L185.67 77.3757L189.352 75.2497Z" fill="#F5F5F5"/>
<path opacity="0.25" d="M176.762 72.2328L180.444 70.1068L176.762 67.9766L173.079 70.1068L176.762 72.2328Z" fill="black"/>
<path d="M167.259 77.3757L189.932 64.2822L186.249 62.1562L163.572 75.2497L167.259 77.3757Z" fill="#F5F5F5"/>
<path d="M166.666 64.1406C167.024 65.6844 169.272 70.1684 176.422 70.6578L177.152 70.0208C177.152 70.0208 168.846 67.9412 170.652 60.6605L166.666 64.1406Z" fill="#E0E0E0"/>
<path d="M177.236 71.5225C177.236 71.5225 177.236 67.1229 175.549 64.5286C173.862 61.9344 170.652 60.6605 170.652 60.6605C169.044 61.4551 167.67 62.6544 166.666 64.1406C168.667 64.1988 170.63 64.7032 172.411 65.617C175.216 67.1018 176.422 70.6788 176.422 70.6788L177.236 71.5225Z" fill="#EBEBEB"/>
<path d="M172.343 65.5679L175.236 64.0451C174.763 63.4308 174.213 62.8794 173.6 62.4042L169.778 64.5892C170.667 64.8187 171.527 65.147 172.343 65.5679Z" fill="#FAFAFA"/>
<path d="M166.13 72.2252C166.13 72.2252 171.027 73.4907 177.236 71.5081L176.764 70.6645C176.764 70.6645 173.529 71.2086 171.242 70.6645C168.956 70.1203 167.024 66.868 167.024 66.868L166.13 72.2252Z" fill="#E0E0E0"/>
<path d="M177.234 71.5241C177.234 71.5241 177.175 70.3177 175.479 68.7401C173.252 66.6689 168.903 66.669 167 66.8799C166.226 67.4692 165.703 68.3297 165.537 69.2885C165.309 70.4654 166.127 72.2412 166.127 72.2412C166.756 71.4912 167.532 70.8778 168.407 70.4389C169.282 70 170.237 69.7449 171.214 69.6892C173.009 69.5347 174.793 70.0787 176.196 71.2078L177.234 71.5241Z" fill="#EBEBEB"/>
<path d="M170.654 66.8811C169.933 66.7981 169.208 66.7628 168.482 66.7756C167.945 67.3199 167.568 68.0011 167.392 68.7449C167.216 69.4887 167.247 70.2666 167.482 70.9939C168.172 70.512 168.94 70.1524 169.752 69.9309C169.705 68.8421 170.022 67.7688 170.654 66.8811Z" fill="#FAFAFA"/>
<path d="M170.825 77.92C170.825 77.92 173.466 77.5995 175.132 75.6886C176.181 74.4983 176.907 73.0591 177.241 71.5083L176.427 70.6647C175.811 72.1041 174.689 73.2674 173.272 73.9338C171.395 74.7775 167.898 74.7564 167.898 74.7564L170.825 77.92Z" fill="#E0E0E0"/>
<path d="M177.236 71.5242L176.422 70.6805C176.422 70.6805 173.288 70.0478 171.592 70.6805C169.897 71.3132 167.927 73.9581 167.893 74.7722C168.113 75.4896 168.493 76.1475 169.004 76.6963C169.516 77.2452 170.146 77.6705 170.846 77.9401C170.846 77.9401 170.686 75.0548 172.862 73.3591C174.124 72.3576 175.638 71.7228 177.236 71.5242Z" fill="#EBEBEB"/>
<path d="M173.966 72.6052L171.211 70.8546C170.592 71.2062 170.032 71.6516 169.549 72.1749L172.257 73.8875C172.438 73.691 172.632 73.5078 172.839 73.3392C173.195 73.0657 173.572 72.8203 173.966 72.6052Z" fill="#FAFAFA"/>
<path d="M185.172 63.7121C185.345 64.5557 184.729 66.88 182.67 68.4154C180.612 69.9508 177.149 70.5245 177.149 70.5245L176.655 70.2292C176.655 70.2292 180.097 68.0653 181.211 66.0911C182.324 64.117 181.506 60.9407 181.506 60.9407L185.172 63.7121Z" fill="#E0E0E0"/>
<path d="M177.152 70.5196C177.778 68.5875 178.979 66.8924 180.594 65.6602C183.171 63.8337 185.175 63.7114 185.175 63.7114C184.778 63.0288 184.25 62.4318 183.621 61.9553C182.991 61.4788 182.274 61.1322 181.509 60.9358C181.509 60.9358 178.556 62.6695 177.455 65.3101C176.8 66.8607 176.527 68.5461 176.658 70.2244L177.152 70.5196Z" fill="#EBEBEB"/>
<path d="M181.902 64.8507C182.469 64.5402 183.06 64.2778 183.67 64.0661C182.753 63.0615 181.629 62.2684 180.375 61.7418C179.741 62.2444 179.159 62.8097 178.637 63.4291C179.831 63.612 180.956 64.1019 181.902 64.8507Z" fill="#FAFAFA"/>
<path d="M188.133 69.2077C187.124 70.5702 183.64 72.8396 177.532 70.9878L177.157 70.2707C177.157 70.2707 180.628 70.5449 183.484 69.0854C186.34 67.6259 186.559 65.6602 186.559 65.6602L188.133 69.2077Z" fill="#E0E0E0"/>
<path d="M177.157 70.2577C178.094 68.5255 179.577 67.151 181.375 66.3474C183 65.6217 184.8 65.3786 186.559 65.6472C186.559 65.6472 188.365 67.0645 188.128 69.1947C186.556 68.4393 184.793 68.1719 183.066 68.427C180.16 68.8488 177.891 70.1649 177.532 70.9579L177.157 70.2577Z" fill="#EBEBEB"/>
<path d="M185.137 68.3882C185.844 68.449 186.542 68.5906 187.217 68.81C186.898 67.5385 186.194 66.3966 185.2 65.5409C184.763 65.5448 184.326 65.58 183.893 65.6463C184.572 66.3466 184.931 67.4855 185.137 68.3882Z" fill="#FAFAFA"/>
<path d="M184.279 78.609C182.701 78.6512 177.77 76.4197 177.235 71.5097L177.766 70.3286C177.766 70.3286 178.926 73.0494 181.141 74.2938C183.355 75.5381 186.624 75.5086 186.624 75.5086L184.279 78.609Z" fill="#E0E0E0"/>
<path d="M177.157 70.2594C177.157 70.2594 179.966 70.1919 181.902 70.9765C185.323 72.3559 186.475 73.9841 186.627 75.4942C186.232 76.769 185.404 77.8657 184.286 78.5946C184.286 78.5946 182.881 74.9459 181.16 73.4104C178.861 71.3603 177.241 71.4953 177.241 71.4953L177.157 70.2594Z" fill="#EBEBEB"/>
<path d="M183.855 77.6166C184.875 76.7825 185.739 75.7742 186.407 74.6386C186.072 73.8191 185.516 73.1092 184.8 72.5885C183.968 73.3662 182.952 73.9193 181.847 74.1956C182.646 75.2547 183.32 76.4027 183.855 77.6166Z" fill="#FAFAFA"/>
</g>
<path d="M104.98 142.243L163.718 108.291V66.5531L164.961 65.8395V48.5188L104.98 83.1521V142.243Z" fill="#05C067"/>
<g opacity="0.45">
<path d="M104.99 142.239L163.727 108.287V66.5492L164.97 65.8356V48.5149L104.99 83.1482V142.239Z" fill="white"/>
</g>
<path opacity="0.15" d="M104.98 100.466L127.473 87.4837L163.718 66.5546V69.0484L104.98 102.952V100.466Z" fill="black"/>
<path d="M104.981 142.243L46.5639 108.54V66.7376L45.0002 65.8395V48.5188L104.981 83.1521V142.243Z" fill="#05C067"/>
<path opacity="0.3" d="M104.981 142.243L46.5639 108.54V66.7376L45.0002 65.8395V48.5188L104.981 83.1521V142.243Z" fill="white"/>
<path opacity="0.1" d="M46.5566 66.7395L104.982 100.467V102.953L46.5566 69.2574V66.7395Z" fill="black"/>
<path d="M45.0002 48.5149L104.981 13.8896L164.962 48.5149L104.981 83.1483L45.0002 48.5149Z" fill="#05C067"/>
<g opacity="0.6">
<path d="M45 48.5154L104.981 13.8901L164.962 48.5154L104.981 83.1487L45 48.5154Z" fill="white"/>
</g>
<path d="M80.6252 128.181V69.0824L70.8823 63.4612V122.56L80.6252 128.181Z" fill="#EBEBEB"/>
<path d="M80.6252 128.181V69.0824L70.8823 63.4612V122.56L80.6252 128.181Z" fill="#05C067"/>
<path opacity="0.4" d="M80.6252 128.181V69.0824L70.8823 63.4612V122.56L80.6252 128.181Z" fill="black"/>
<path d="M129.341 128.181V69.0824L139.083 63.4612V122.56L129.341 128.181Z" fill="#05C067"/>
<path opacity="0.15" d="M129.341 128.181V69.0824L139.083 63.4612V122.56L129.341 128.181Z" fill="black"/>
<path d="M70.8823 63.4633L130.863 28.83L140.606 34.4592L80.6252 69.0845L70.8823 63.4633Z" fill="#05C067"/>
<path opacity="0.25" d="M104.194 55.4806L94.4514 49.8514L104.194 44.2302L113.937 49.8514L104.194 55.4806Z" fill="black"/>
<path d="M129.346 69.0845L69.3647 34.4592L79.1076 28.83L139.088 63.4633L129.346 69.0845Z" fill="#05C067"/>
<path d="M102.646 53.8526L116.439 76.5459V116.087L124.971 104.026V71.6544L104.643 49.6748L102.646 53.8526Z" fill="#05C067"/>
<path d="M105.004 51.4731L144.738 52.7L151.594 43.4623L104.916 47.6642L105.004 51.4731Z" fill="#05C067"/>
<path d="M66.4756 33.5507C66.4756 33.5507 68.8812 43.1733 80.0515 46.886C91.2217 50.5988 104.164 51.4808 104.164 51.4808L78.7845 21.1937L66.4756 33.5507Z" fill="#05C067"/>
<path opacity="0.4" d="M66.4756 33.5507C66.4756 33.5507 68.8812 43.1733 80.0515 46.886C91.2217 50.5988 104.164 51.4808 104.164 51.4808L78.7845 21.1937L66.4756 33.5507Z" fill="black"/>
<path d="M104.164 51.4808C104.164 51.4808 104.437 41.9946 99.5372 34.8257C94.6377 27.6569 78.7845 21.1937 78.7845 21.1937C74.1642 24.7628 70.0266 28.9165 66.4756 33.5507C66.4756 33.5507 87.5491 33.3823 102.031 51.1521L104.164 51.4808Z" fill="#05C067"/>
<path opacity="0.1" d="M104.164 51.4808C104.164 51.4808 104.437 41.9946 99.5372 34.8257C94.6377 27.6569 78.7845 21.1937 78.7845 21.1937C74.1642 24.7628 70.0266 28.9165 66.4756 33.5507C66.4756 33.5507 87.5491 33.3823 102.031 51.1521L104.164 51.4808Z" fill="white"/>
<path opacity="0.3" d="M79.7048 35.9914C83.6368 37.2691 87.3924 39.0364 90.8831 41.2518L98.6052 33.6259C96.0312 30.6188 91.7732 27.8122 87.852 25.6071L79.7048 35.9914Z" fill="white"/>
<path d="M104.171 51.4744C101.822 55.7496 98.1701 59.1631 93.7461 61.2173C86.1282 64.9139 73.3783 64.7215 73.3783 64.7215L72.1594 48.6838C73.6235 50.907 75.6178 52.7307 77.9626 53.9906C80.3075 55.2505 82.9291 55.907 85.591 55.9008C91.3153 55.9407 96.8588 53.8972 101.188 50.1513L104.171 51.4744Z" fill="#05C067"/>
<path opacity="0.4" d="M104.171 51.4744C101.822 55.7496 98.1701 59.1631 93.7461 61.2173C86.1282 64.9139 73.3783 64.7215 73.3783 64.7215L72.1594 48.6838C73.6235 50.907 75.6178 52.7307 77.9626 53.9906C80.3075 55.2505 82.9291 55.907 85.591 55.9008C91.3153 55.9407 96.8588 53.8972 101.188 50.1513L104.171 51.4744Z" fill="black"/>
<path d="M104.179 51.4784C96.1999 43.3474 88.7343 42.5615 81.9263 44.1492C74.3887 45.9134 72.1594 48.6638 72.1594 48.6638L73.3783 64.7015C73.3783 64.7015 77.3877 56.8591 88.2773 53.3308C99.1668 49.8025 104.179 51.4784 104.179 51.4784Z" fill="#05C067"/>
<path opacity="0.1" d="M104.179 51.4784C96.1999 43.3474 88.7343 42.5615 81.9263 44.1492C74.3887 45.9134 72.1594 48.6638 72.1594 48.6638L73.3783 64.7015C73.3783 64.7015 77.3877 56.8591 88.2773 53.3308C99.1668 49.8025 104.179 51.4784 104.179 51.4784Z" fill="white"/>
<path opacity="0.3" d="M75.8914 46.1926C77.7437 48.8548 80.7027 53.2091 82.555 55.9595C84.3615 54.8898 86.2785 54.0187 88.2724 53.3614C90.1614 52.752 92.0837 52.2514 94.0299 51.8619L87.1017 43.4902C85.356 43.5249 83.6192 43.7481 81.9215 44.1558C79.8459 44.6224 77.8248 45.305 75.8914 46.1926Z" fill="white"/>
<path d="M103.719 49.6908C103.719 49.6908 114.945 48.0871 122.7 39.7635C130.454 31.44 132.138 19.8207 132.138 19.8207L118.009 11C119.183 14.6044 119.565 18.4198 119.129 22.1855C118.693 25.9512 117.449 29.5785 115.483 32.8192C110.455 41.3994 103.454 43.1555 103.454 43.1555L103.719 49.6908Z" fill="#05C067"/>
<path opacity="0.4" d="M103.719 49.6908C103.719 49.6908 114.945 48.0871 122.7 39.7635C130.454 31.44 132.138 19.8207 132.138 19.8207L118.009 11C119.183 14.6044 119.565 18.4198 119.129 22.1855C118.693 25.9512 117.449 29.5785 115.483 32.8192C110.455 41.3994 103.454 43.1555 103.454 43.1555L103.719 49.6908Z" fill="black"/>
<path d="M103.727 49.6908L105.795 49.2659C106.98 41.1503 110.881 33.6762 116.861 28.0641C127.158 18.6339 132.145 19.8207 132.145 19.8207C128.008 15.667 123.116 13.1009 118.016 11C118.016 11 109.26 16.116 105.386 23.357C100.744 32.0254 102.267 44.8715 103.727 49.6908Z" fill="#05C067"/>
<path opacity="0.1" d="M103.727 49.6908L105.795 49.2659C106.98 41.1503 110.881 33.6762 116.861 28.0641C127.158 18.6339 132.145 19.8207 132.145 19.8207C128.008 15.667 123.116 13.1009 118.016 11C118.016 11 109.26 16.116 105.386 23.357C100.744 32.0254 102.267 44.8715 103.727 49.6908Z" fill="white"/>
<g opacity="0.3">
<path d="M124.566 22.2261L112.642 14.8889C112.072 15.362 111.503 15.8592 110.917 16.4045L122.561 23.5011C123.266 23.028 123.94 22.579 124.566 22.2261Z" fill="white"/>
<path d="M120.784 24.7619L109.253 18.0662C108.153 19.2272 107.157 20.483 106.278 21.819L106.198 21.9312C105.901 22.3883 105.62 22.8614 105.396 23.3345C105.251 23.6152 105.155 23.936 105.019 24.2246L114.641 30.2949C115.323 29.5411 116.053 28.7954 116.847 28.0656C118.266 26.7666 119.565 25.6921 120.784 24.7619Z" fill="white"/>
</g>
<path d="M104.079 51.4634C104.079 51.4634 107.703 55.0799 116.211 56.9242C124.719 58.7685 135.352 57.1568 139.787 51.9445L138.375 37.0455C138.375 37.0455 131.575 46.8285 121.303 48.7851C113.477 50.2686 103.975 47.454 103.975 47.454L104.079 51.4634Z" fill="#05C067"/>
<path opacity="0.4" d="M104.079 51.4634C104.079 51.4634 107.703 55.0799 116.211 56.9242C124.719 58.7685 135.352 57.1568 139.787 51.9445L138.375 37.0455C138.375 37.0455 131.575 46.8285 121.303 48.7851C113.477 50.2686 103.975 47.454 103.975 47.454L104.079 51.4634Z" fill="black"/>
<path d="M103.476 48.0493C103.476 48.0493 111.39 39.2286 120.171 37.6249C132.063 35.4357 138.406 37.0475 138.406 37.0475C140.683 42.364 141.084 47.3196 139.817 51.9465C139.817 51.9465 134.485 46.5578 122.376 46.4937C112.802 46.4456 104.109 51.4654 104.109 51.4654L103.476 48.0493Z" fill="#05C067"/>
<path opacity="0.1" d="M103.476 48.0493C103.476 48.0493 111.39 39.2286 120.171 37.6249C132.063 35.4357 138.406 37.0475 138.406 37.0475C140.683 42.364 141.084 47.3196 139.817 51.9465C139.817 51.9465 134.485 46.5578 122.376 46.4937C112.802 46.4456 104.109 51.4654 104.109 51.4654L103.476 48.0493Z" fill="white"/>
<path opacity="0.3" d="M137.242 50.1242C134.605 48.6575 131.74 47.6438 128.767 47.1251L126.89 36.7007C129.849 36.4184 132.828 36.3969 135.791 36.6365C137.158 40.9931 137.651 45.5766 137.242 50.1242Z" fill="white"/>
<path opacity="0.15" d="M124.966 71.6553L116.434 76.5468V116.088L124.966 104.027V71.6553Z" fill="black"/>
</svg>
