<svg width="1440" height="1018" viewBox="0 0 1440 1018" fill="none" xmlns="http://www.w3.org/2000/svg">
<g opacity="0.6">
<rect x="1" y="1" width="92.3307" height="92.3307" stroke="#E0E0E0" stroke-width="1.84661"/>
<rect x="93.3301" y="1" width="92.3307" height="92.3307" stroke="#E0E0E0" stroke-width="1.84661"/>
<rect x="185.662" y="1" width="92.3307" height="92.3307" fill="#9E9E9E" fill-opacity="0.4" stroke="#E0E0E0" stroke-width="1.84661"/>
<rect x="277.992" y="1" width="92.3307" height="92.3307" stroke="#E0E0E0" stroke-width="1.84661"/>
<rect x="370.322" y="1" width="92.3307" height="92.3307" stroke="#E0E0E0" stroke-width="1.84661"/>
<rect x="462.654" y="1" width="92.3307" height="92.3307" stroke="#E0E0E0" stroke-width="1.84661"/>
<rect x="554.984" y="1" width="92.3307" height="92.3307" stroke="#E0E0E0" stroke-width="1.84661"/>
<rect x="647.314" y="1" width="92.3307" height="92.3307" stroke="#E0E0E0" stroke-width="1.84661"/>
<rect x="739.646" y="1" width="92.3307" height="92.3307" stroke="#E0E0E0" stroke-width="1.84661"/>
<rect x="831.977" y="1" width="92.3307" height="92.3307" fill="#9E9E9E" fill-opacity="0.4" stroke="#E0E0E0" stroke-width="1.84661"/>
<rect x="924.307" y="1" width="92.3307" height="92.3307" stroke="#E0E0E0" stroke-width="1.84661"/>
<rect x="1016.64" y="1" width="92.3307" height="92.3307" stroke="#E0E0E0" stroke-width="1.84661"/>
<rect x="1108.97" y="1" width="92.3307" height="92.3307" stroke="#E0E0E0" stroke-width="1.84661"/>
<rect x="1201.3" y="1" width="92.3307" height="92.3307" stroke="#E0E0E0" stroke-width="1.84661"/>
<rect x="1293.63" y="1" width="92.3307" height="92.3307" stroke="#E0E0E0" stroke-width="1.84661"/>
<rect x="1385.96" y="1" width="92.3307" height="92.3307" stroke="#E0E0E0" stroke-width="1.84661"/>
<rect x="1" y="93.3359" width="92.3307" height="92.3307" stroke="#E0E0E0" stroke-width="1.84661"/>
<rect x="93.3301" y="93.3359" width="92.3307" height="92.3307" stroke="#E0E0E0" stroke-width="1.84661"/>
<rect x="185.662" y="93.3359" width="92.3307" height="92.3307" stroke="#E0E0E0" stroke-width="1.84661"/>
<rect x="277.992" y="93.3359" width="92.3307" height="92.3307" stroke="#E0E0E0" stroke-width="1.84661"/>
<rect x="370.322" y="93.3359" width="92.3307" height="92.3307" stroke="#E0E0E0" stroke-width="1.84661"/>
<rect x="462.654" y="93.3359" width="92.3307" height="92.3307" stroke="#E0E0E0" stroke-width="1.84661"/>
<rect x="554.984" y="93.3359" width="92.3307" height="92.3307" stroke="#E0E0E0" stroke-width="1.84661"/>
<rect x="647.314" y="93.3359" width="92.3307" height="92.3307" stroke="#E0E0E0" stroke-width="1.84661"/>
<rect x="739.646" y="93.3359" width="92.3307" height="92.3307" stroke="#E0E0E0" stroke-width="1.84661"/>
<rect x="831.977" y="93.3359" width="92.3307" height="92.3307" stroke="#E0E0E0" stroke-width="1.84661"/>
<rect x="924.307" y="93.3359" width="92.3307" height="92.3307" stroke="#E0E0E0" stroke-width="1.84661"/>
<rect x="1016.64" y="93.3359" width="92.3307" height="92.3307" stroke="#E0E0E0" stroke-width="1.84661"/>
<rect x="1108.97" y="93.3359" width="92.3307" height="92.3307" stroke="#E0E0E0" stroke-width="1.84661"/>
<rect x="1201.3" y="93.3359" width="92.3307" height="92.3307" stroke="#E0E0E0" stroke-width="1.84661"/>
<rect x="1293.63" y="93.3359" width="92.3307" height="92.3307" stroke="#E0E0E0" stroke-width="1.84661"/>
<rect x="1385.96" y="93.3359" width="92.3307" height="92.3307" stroke="#E0E0E0" stroke-width="1.84661"/>
<rect x="1" y="185.664" width="92.3307" height="92.3307" stroke="#E0E0E0" stroke-width="1.84661"/>
<rect x="93.3301" y="185.664" width="92.3307" height="92.3307" stroke="#E0E0E0" stroke-width="1.84661"/>
<rect x="185.662" y="185.664" width="92.3307" height="92.3307" stroke="#E0E0E0" stroke-width="1.84661"/>
<rect x="277.992" y="185.664" width="92.3307" height="92.3307" stroke="#E0E0E0" stroke-width="1.84661"/>
<rect x="370.322" y="185.664" width="92.3307" height="92.3307" stroke="#E0E0E0" stroke-width="1.84661"/>
<rect x="462.654" y="185.664" width="92.3307" height="92.3307" stroke="#E0E0E0" stroke-width="1.84661"/>
<rect x="554.984" y="185.664" width="92.3307" height="92.3307" stroke="#E0E0E0" stroke-width="1.84661"/>
<rect x="647.314" y="185.664" width="92.3307" height="92.3307" stroke="#E0E0E0" stroke-width="1.84661"/>
<rect x="739.646" y="185.664" width="92.3307" height="92.3307" stroke="#E0E0E0" stroke-width="1.84661"/>
<rect x="831.977" y="185.664" width="92.3307" height="92.3307" stroke="#E0E0E0" stroke-width="1.84661"/>
<rect x="924.307" y="185.664" width="92.3307" height="92.3307" stroke="#E0E0E0" stroke-width="1.84661"/>
<rect x="1016.64" y="185.664" width="92.3307" height="92.3307" stroke="#E0E0E0" stroke-width="1.84661"/>
<rect x="1108.97" y="185.664" width="92.3307" height="92.3307" stroke="#E0E0E0" stroke-width="1.84661"/>
<rect x="1201.3" y="185.664" width="92.3307" height="92.3307" stroke="#E0E0E0" stroke-width="1.84661"/>
<rect x="1293.63" y="185.664" width="92.3307" height="92.3307" stroke="#E0E0E0" stroke-width="1.84661"/>
<rect x="1385.96" y="185.664" width="92.3307" height="92.3307" stroke="#E0E0E0" stroke-width="1.84661"/>
<rect x="1" y="277.992" width="92.3307" height="92.3307" stroke="#E0E0E0" stroke-width="1.84661"/>
<rect x="93.3301" y="277.992" width="92.3307" height="92.3307" stroke="#E0E0E0" stroke-width="1.84661"/>
<rect x="185.662" y="277.992" width="92.3307" height="92.3307" stroke="#E0E0E0" stroke-width="1.84661"/>
<rect x="277.992" y="277.992" width="92.3307" height="92.3307" fill="#9E9E9E" fill-opacity="0.4" stroke="#E0E0E0" stroke-width="1.84661"/>
<rect x="370.322" y="277.992" width="92.3307" height="92.3307" stroke="#E0E0E0" stroke-width="1.84661"/>
<rect x="462.654" y="277.992" width="92.3307" height="92.3307" stroke="#E0E0E0" stroke-width="1.84661"/>
<rect x="554.984" y="277.992" width="92.3307" height="92.3307" stroke="#E0E0E0" stroke-width="1.84661"/>
<rect x="647.314" y="277.992" width="92.3307" height="92.3307" stroke="#E0E0E0" stroke-width="1.84661"/>
<rect x="739.646" y="277.992" width="92.3307" height="92.3307" stroke="#E0E0E0" stroke-width="1.84661"/>
<rect x="831.977" y="277.992" width="92.3307" height="92.3307" stroke="#E0E0E0" stroke-width="1.84661"/>
<rect x="924.307" y="277.992" width="92.3307" height="92.3307" stroke="#E0E0E0" stroke-width="1.84661"/>
<rect x="1016.64" y="277.992" width="92.3307" height="92.3307" stroke="#E0E0E0" stroke-width="1.84661"/>
<rect x="1108.97" y="277.992" width="92.3307" height="92.3307" fill="#9E9E9E" fill-opacity="0.4" stroke="#E0E0E0" stroke-width="1.84661"/>
<rect x="1201.3" y="277.992" width="92.3307" height="92.3307" stroke="#E0E0E0" stroke-width="1.84661"/>
<rect x="1293.63" y="277.992" width="92.3307" height="92.3307" stroke="#E0E0E0" stroke-width="1.84661"/>
<rect x="1385.96" y="277.992" width="92.3307" height="92.3307" stroke="#E0E0E0" stroke-width="1.84661"/>
<rect x="1" y="370.32" width="92.3307" height="92.3307" stroke="#E0E0E0" stroke-width="1.84661"/>
<rect x="93.3301" y="370.32" width="92.3307" height="92.3307" stroke="#E0E0E0" stroke-width="1.84661"/>
<rect x="185.662" y="370.32" width="92.3307" height="92.3307" stroke="#E0E0E0" stroke-width="1.84661"/>
<rect x="277.992" y="370.32" width="92.3307" height="92.3307" stroke="#E0E0E0" stroke-width="1.84661"/>
<rect x="370.322" y="370.32" width="92.3307" height="92.3307" stroke="#E0E0E0" stroke-width="1.84661"/>
<rect x="462.654" y="370.32" width="92.3307" height="92.3307" stroke="#E0E0E0" stroke-width="1.84661"/>
<rect x="554.984" y="370.32" width="92.3307" height="92.3307" stroke="#E0E0E0" stroke-width="1.84661"/>
<rect x="647.314" y="370.32" width="92.3307" height="92.3307" stroke="#E0E0E0" stroke-width="1.84661"/>
<rect x="739.646" y="370.32" width="92.3307" height="92.3307" stroke="#E0E0E0" stroke-width="1.84661"/>
<rect x="831.977" y="370.32" width="92.3307" height="92.3307" stroke="#E0E0E0" stroke-width="1.84661"/>
<rect x="924.307" y="370.32" width="92.3307" height="92.3307" stroke="#E0E0E0" stroke-width="1.84661"/>
<rect x="1016.64" y="370.32" width="92.3307" height="92.3307" stroke="#E0E0E0" stroke-width="1.84661"/>
<rect x="1108.97" y="370.32" width="92.3307" height="92.3307" stroke="#E0E0E0" stroke-width="1.84661"/>
<rect x="1201.3" y="370.32" width="92.3307" height="92.3307" stroke="#E0E0E0" stroke-width="1.84661"/>
<rect x="1293.63" y="370.32" width="92.3307" height="92.3307" stroke="#E0E0E0" stroke-width="1.84661"/>
<rect x="1385.96" y="370.32" width="92.3307" height="92.3307" stroke="#E0E0E0" stroke-width="1.84661"/>
<rect x="1" y="462.652" width="92.3307" height="92.3307" stroke="#E0E0E0" stroke-width="1.84661"/>
<rect x="93.3301" y="462.652" width="92.3307" height="92.3307" stroke="#E0E0E0" stroke-width="1.84661"/>
<rect x="185.662" y="462.652" width="92.3307" height="92.3307" stroke="#E0E0E0" stroke-width="1.84661"/>
<rect x="277.992" y="462.652" width="92.3307" height="92.3307" stroke="#E0E0E0" stroke-width="1.84661"/>
<rect x="370.322" y="462.652" width="92.3307" height="92.3307" stroke="#E0E0E0" stroke-width="1.84661"/>
<rect x="462.654" y="462.652" width="92.3307" height="92.3307" stroke="#E0E0E0" stroke-width="1.84661"/>
<rect x="554.984" y="462.652" width="92.3307" height="92.3307" stroke="#E0E0E0" stroke-width="1.84661"/>
<rect x="647.314" y="462.652" width="92.3307" height="92.3307" stroke="#E0E0E0" stroke-width="1.84661"/>
<rect x="739.646" y="462.652" width="92.3307" height="92.3307" stroke="#E0E0E0" stroke-width="1.84661"/>
<rect x="831.977" y="462.652" width="92.3307" height="92.3307" stroke="#E0E0E0" stroke-width="1.84661"/>
<rect x="924.307" y="462.652" width="92.3307" height="92.3307" stroke="#E0E0E0" stroke-width="1.84661"/>
<rect x="1016.64" y="462.652" width="92.3307" height="92.3307" stroke="#E0E0E0" stroke-width="1.84661"/>
<rect x="1108.97" y="462.652" width="92.3307" height="92.3307" stroke="#E0E0E0" stroke-width="1.84661"/>
<rect x="1201.3" y="462.652" width="92.3307" height="92.3307" stroke="#E0E0E0" stroke-width="1.84661"/>
<rect x="1293.63" y="462.652" width="92.3307" height="92.3307" stroke="#E0E0E0" stroke-width="1.84661"/>
<rect x="1385.96" y="462.652" width="92.3307" height="92.3307" stroke="#E0E0E0" stroke-width="1.84661"/>
<rect x="1" y="554.98" width="92.3307" height="92.3307" stroke="#E0E0E0" stroke-width="1.84661"/>
<rect x="93.3301" y="554.98" width="92.3307" height="92.3307" stroke="#E0E0E0" stroke-width="1.84661"/>
<rect x="185.662" y="554.98" width="92.3307" height="92.3307" stroke="#E0E0E0" stroke-width="1.84661"/>
<rect x="277.992" y="554.98" width="92.3307" height="92.3307" stroke="#E0E0E0" stroke-width="1.84661"/>
<rect x="370.322" y="554.98" width="92.3307" height="92.3307" stroke="#E0E0E0" stroke-width="1.84661"/>
<rect x="462.654" y="554.98" width="92.3307" height="92.3307" stroke="#E0E0E0" stroke-width="1.84661"/>
<rect x="554.984" y="554.98" width="92.3307" height="92.3307" stroke="#E0E0E0" stroke-width="1.84661"/>
<rect x="647.314" y="554.98" width="92.3307" height="92.3307" stroke="#E0E0E0" stroke-width="1.84661"/>
<rect x="739.646" y="554.98" width="92.3307" height="92.3307" fill="#9E9E9E" fill-opacity="0.4" stroke="#E0E0E0" stroke-width="1.84661"/>
<rect x="831.977" y="554.98" width="92.3307" height="92.3307" stroke="#E0E0E0" stroke-width="1.84661"/>
<rect x="924.307" y="554.98" width="92.3307" height="92.3307" stroke="#E0E0E0" stroke-width="1.84661"/>
<rect x="1016.64" y="554.98" width="92.3307" height="92.3307" stroke="#E0E0E0" stroke-width="1.84661"/>
<rect x="1108.97" y="554.98" width="92.3307" height="92.3307" stroke="#E0E0E0" stroke-width="1.84661"/>
<rect x="1201.3" y="554.98" width="92.3307" height="92.3307" stroke="#E0E0E0" stroke-width="1.84661"/>
<rect x="1293.63" y="554.98" width="92.3307" height="92.3307" stroke="#E0E0E0" stroke-width="1.84661"/>
<rect x="1385.96" y="554.98" width="92.3307" height="92.3307" stroke="#E0E0E0" stroke-width="1.84661"/>
<rect x="1" y="647.316" width="92.3307" height="92.3307" stroke="#E0E0E0" stroke-width="1.84661"/>
<rect x="93.3301" y="647.316" width="92.3307" height="92.3307" stroke="#E0E0E0" stroke-width="1.84661"/>
<rect x="185.662" y="647.316" width="92.3307" height="92.3307" stroke="#E0E0E0" stroke-width="1.84661"/>
<rect x="277.992" y="647.316" width="92.3307" height="92.3307" stroke="#E0E0E0" stroke-width="1.84661"/>
<rect x="370.322" y="647.316" width="92.3307" height="92.3307" fill="#9E9E9E" fill-opacity="0.4" stroke="#E0E0E0" stroke-width="1.84661"/>
<rect x="462.654" y="647.316" width="92.3307" height="92.3307" stroke="#E0E0E0" stroke-width="1.84661"/>
<rect x="554.984" y="647.316" width="92.3307" height="92.3307" stroke="#E0E0E0" stroke-width="1.84661"/>
<rect x="647.314" y="647.316" width="92.3307" height="92.3307" stroke="#E0E0E0" stroke-width="1.84661"/>
<rect x="739.645" y="647.316" width="92.3307" height="92.3307" stroke="#E0E0E0" stroke-width="1.84661"/>
<rect x="831.977" y="647.316" width="92.3307" height="92.3307" stroke="#E0E0E0" stroke-width="1.84661"/>
<rect x="924.307" y="647.316" width="92.3307" height="92.3307" stroke="#E0E0E0" stroke-width="1.84661"/>
<rect x="1016.64" y="647.316" width="92.3307" height="92.3307" stroke="#E0E0E0" stroke-width="1.84661"/>
<rect x="1108.97" y="647.316" width="92.3307" height="92.3307" stroke="#E0E0E0" stroke-width="1.84661"/>
<rect x="1201.3" y="647.316" width="92.3307" height="92.3307" stroke="#E0E0E0" stroke-width="1.84661"/>
<rect x="1293.63" y="647.316" width="92.3307" height="92.3307" stroke="#E0E0E0" stroke-width="1.84661"/>
<rect x="1385.96" y="647.316" width="92.3307" height="92.3307" stroke="#E0E0E0" stroke-width="1.84661"/>
<rect x="1" y="739.648" width="92.3307" height="92.3307" stroke="#E0E0E0" stroke-width="1.84661"/>
<rect x="93.3301" y="739.648" width="92.3307" height="92.3307" stroke="#E0E0E0" stroke-width="1.84661"/>
<rect x="185.662" y="739.648" width="92.3307" height="92.3307" stroke="#E0E0E0" stroke-width="1.84661"/>
<rect x="277.992" y="739.648" width="92.3307" height="92.3307" stroke="#E0E0E0" stroke-width="1.84661"/>
<rect x="370.322" y="739.648" width="92.3307" height="92.3307" stroke="#E0E0E0" stroke-width="1.84661"/>
<rect x="462.654" y="739.648" width="92.3307" height="92.3307" stroke="#E0E0E0" stroke-width="1.84661"/>
<rect x="554.984" y="739.648" width="92.3307" height="92.3307" stroke="#E0E0E0" stroke-width="1.84661"/>
<rect x="647.314" y="739.648" width="92.3307" height="92.3307" stroke="#E0E0E0" stroke-width="1.84661"/>
<rect x="739.646" y="739.648" width="92.3307" height="92.3307" stroke="#E0E0E0" stroke-width="1.84661"/>
<rect x="831.977" y="739.648" width="92.3307" height="92.3307" stroke="#E0E0E0" stroke-width="1.84661"/>
<rect x="924.307" y="739.648" width="92.3307" height="92.3307" stroke="#E0E0E0" stroke-width="1.84661"/>
<rect x="1016.64" y="739.648" width="92.3307" height="92.3307" stroke="#E0E0E0" stroke-width="1.84661"/>
<rect x="1108.97" y="739.648" width="92.3307" height="92.3307" stroke="#E0E0E0" stroke-width="1.84661"/>
<rect x="1201.3" y="739.648" width="92.3307" height="92.3307" stroke="#E0E0E0" stroke-width="1.84661"/>
<rect x="1293.63" y="739.648" width="92.3307" height="92.3307" stroke="#E0E0E0" stroke-width="1.84661"/>
<rect x="1385.96" y="739.648" width="92.3307" height="92.3307" stroke="#E0E0E0" stroke-width="1.84661"/>
<rect x="1" y="831.98" width="92.3307" height="92.3307" stroke="#E0E0E0" stroke-width="1.84661"/>
<rect x="93.3301" y="831.98" width="92.3307" height="92.3307" stroke="#E0E0E0" stroke-width="1.84661"/>
<rect x="185.662" y="831.98" width="92.3307" height="92.3307" stroke="#E0E0E0" stroke-width="1.84661"/>
<rect x="277.992" y="831.98" width="92.3307" height="92.3307" stroke="#E0E0E0" stroke-width="1.84661"/>
<rect x="370.322" y="831.98" width="92.3307" height="92.3307" stroke="#E0E0E0" stroke-width="1.84661"/>
<rect x="462.654" y="831.98" width="92.3307" height="92.3307" stroke="#E0E0E0" stroke-width="1.84661"/>
<rect x="554.984" y="831.98" width="92.3307" height="92.3307" stroke="#E0E0E0" stroke-width="1.84661"/>
<rect x="647.314" y="831.98" width="92.3307" height="92.3307" stroke="#E0E0E0" stroke-width="1.84661"/>
<rect x="739.645" y="831.98" width="92.3307" height="92.3307" stroke="#E0E0E0" stroke-width="1.84661"/>
<rect x="831.977" y="831.98" width="92.3307" height="92.3307" stroke="#E0E0E0" stroke-width="1.84661"/>
<rect x="924.307" y="831.98" width="92.3307" height="92.3307" stroke="#E0E0E0" stroke-width="1.84661"/>
<rect x="1016.64" y="831.98" width="92.3307" height="92.3307" stroke="#E0E0E0" stroke-width="1.84661"/>
<rect x="1108.97" y="831.98" width="92.3307" height="92.3307" stroke="#E0E0E0" stroke-width="1.84661"/>
<rect x="1201.3" y="831.98" width="92.3307" height="92.3307" stroke="#E0E0E0" stroke-width="1.84661"/>
<rect x="1293.63" y="831.98" width="92.3307" height="92.3307" stroke="#E0E0E0" stroke-width="1.84661"/>
<rect x="1385.96" y="831.98" width="92.3307" height="92.3307" stroke="#E0E0E0" stroke-width="1.84661"/>
<rect x="1" y="924.312" width="92.3307" height="92.3307" stroke="#E0E0E0" stroke-width="1.84661"/>
<rect x="93.3301" y="924.312" width="92.3307" height="92.3307" stroke="#E0E0E0" stroke-width="1.84661"/>
<rect x="185.662" y="924.312" width="92.3307" height="92.3307" stroke="#E0E0E0" stroke-width="1.84661"/>
<rect x="277.992" y="924.312" width="92.3307" height="92.3307" stroke="#E0E0E0" stroke-width="1.84661"/>
<rect x="370.322" y="924.312" width="92.3307" height="92.3307" stroke="#E0E0E0" stroke-width="1.84661"/>
<rect x="462.654" y="924.312" width="92.3307" height="92.3307" stroke="#E0E0E0" stroke-width="1.84661"/>
<rect x="554.984" y="924.312" width="92.3307" height="92.3307" stroke="#E0E0E0" stroke-width="1.84661"/>
<rect x="647.314" y="924.312" width="92.3307" height="92.3307" stroke="#E0E0E0" stroke-width="1.84661"/>
<rect x="739.646" y="924.312" width="92.3307" height="92.3307" stroke="#E0E0E0" stroke-width="1.84661"/>
<rect x="831.977" y="924.312" width="92.3307" height="92.3307" stroke="#E0E0E0" stroke-width="1.84661"/>
<rect x="924.307" y="924.312" width="92.3307" height="92.3307" stroke="#E0E0E0" stroke-width="1.84661"/>
<rect x="1016.64" y="924.312" width="92.3307" height="92.3307" stroke="#E0E0E0" stroke-width="1.84661"/>
<rect x="1108.97" y="924.312" width="92.3307" height="92.3307" stroke="#E0E0E0" stroke-width="1.84661"/>
<rect x="1201.3" y="924.312" width="92.3307" height="92.3307" stroke="#E0E0E0" stroke-width="1.84661"/>
<rect x="1293.63" y="924.312" width="92.3307" height="92.3307" stroke="#E0E0E0" stroke-width="1.84661"/>
<rect x="1385.96" y="924.312" width="92.3307" height="92.3307" stroke="#E0E0E0" stroke-width="1.84661"/>
</g>
</svg>
