<svg width="37" height="38" viewBox="0 0 37 38" fill="none" xmlns="http://www.w3.org/2000/svg">
<path d="M36.779 23.623C36.5926 25.8757 35.5835 27.973 33.9539 29.4951C32.3243 31.0172 30.1944 31.8517 27.9905 31.8316H23.1337L13.8827 38V31.8316L23.1337 25.6633H27.9905C28.6766 25.6789 29.3433 25.4287 29.8576 24.9626C30.3719 24.4966 30.6962 23.8489 30.7659 23.1485C31.0896 18.4036 31.0434 13.6587 30.7196 8.91385C30.6555 8.29105 30.379 7.71149 29.939 7.27742C29.4989 6.84335 28.9235 6.58268 28.3143 6.54141C21.783 6.13144 15.2334 6.13144 8.70207 6.54141C8.08472 6.5718 7.49831 6.82764 7.04873 7.26271C6.59915 7.69778 6.31605 8.28341 6.25054 8.91385C5.92675 13.6587 5.92675 18.4036 6.20428 23.1485C6.27391 23.8489 6.59819 24.4966 7.11253 24.9626C7.62687 25.4287 8.2935 25.6789 8.9796 25.6633H13.8827V31.8316H9.02586C6.82202 31.8517 4.6921 31.0172 3.06249 29.4951C1.43288 27.973 0.423837 25.8757 0.237348 23.623C-0.0864394 18.5934 -0.0864394 13.5164 0.283603 8.43936C0.454745 6.34275 1.35043 4.37783 2.80918 2.89883C4.26794 1.41984 6.19378 0.524085 8.23952 0.37306C15.0613 -0.124353 21.9089 -0.124353 28.7306 0.37306C30.7846 0.513216 32.7215 1.40416 34.1897 2.88418C35.658 4.3642 36.5603 6.33518 36.7328 8.43936C37.0566 13.5164 37.1028 18.5934 36.779 23.623Z" fill="#FF5100"/>
</svg>
