<svg width="170" height="165" viewBox="0 0 170 165" fill="none" xmlns="http://www.w3.org/2000/svg">
<path d="M7.05152 52.6386C7.88991 51.6604 8.8554 50.7988 9.92228 50.0767L9.5154 46.5316L15.0836 44.5801L16.9673 47.594C18.2521 47.4947 19.5444 47.5669 20.8101 47.8087L23.0253 45.0171L28.3525 47.5676L27.5538 51.0412C28.533 51.8782 29.3959 52.8424 30.1194 53.9082L33.6608 53.5013L35.6123 59.0695L32.5983 60.9532C32.699 62.2366 32.6281 63.5277 32.3874 64.7922L35.179 67.0112L32.6209 72.3271L29.1474 71.5321C28.3101 72.5114 27.3445 73.3731 26.2766 74.094L26.6835 77.6391L21.1153 79.5906L19.2316 76.5767C17.948 76.6759 16.657 76.6037 15.3926 76.362L13.1773 79.1536L7.8389 76.6144L8.6376 73.1408C7.65838 72.3038 6.79552 71.3396 6.07199 70.2738L2.53062 70.6807L0.579102 65.1125L3.59303 63.2288C3.49042 61.9454 3.56138 60.6541 3.80401 59.3898L1.01235 57.1708L3.57043 51.855L7.04398 52.6499L7.05152 52.6386ZM10.9206 58.6476C10.238 60.0664 9.99138 61.6557 10.212 63.2147C10.4327 64.7736 11.1106 66.2321 12.1602 67.4058C13.2098 68.5794 14.5838 69.4154 16.1086 69.8081C17.6333 70.2008 19.2402 70.1325 20.7262 69.6119C22.2121 69.0913 23.5103 68.1418 24.4565 66.8834C25.4028 65.625 25.9546 64.1142 26.0422 62.5422C26.1298 60.9701 25.7493 59.4074 24.9488 58.0516C24.1482 56.6958 22.9636 55.6079 21.5448 54.9254C19.6421 54.0113 17.4545 53.8899 15.4624 54.5878C13.4703 55.2857 11.8368 56.7459 10.9206 58.6476Z" fill="#EBEBEB"/>
<path d="M141.852 107.666C142.678 106.703 143.628 105.855 144.677 105.142L144.278 101.65L149.767 99.7246L151.632 102.705C152.898 102.605 154.171 102.674 155.418 102.912L157.603 100.162L162.844 102.682L162.06 106.107C163.023 106.932 163.872 107.883 164.584 108.932L168.077 108.533L170.002 114.022L167.022 115.887C167.122 117.152 167.052 118.426 166.815 119.673L169.565 121.858L167.059 127.099L163.62 126.307C162.794 127.27 161.844 128.119 160.794 128.832L161.194 132.324L155.704 134.249L153.84 131.269C152.574 131.369 151.301 131.299 150.053 131.062L147.868 133.812L142.628 131.292L143.411 127.867C142.449 127.041 141.6 126.091 140.887 125.042L137.395 125.441L135.47 119.952L138.45 118.087C138.35 116.821 138.419 115.548 138.657 114.301L135.907 112.116L138.427 106.883L141.852 107.666ZM145.664 113.589C144.991 114.987 144.748 116.554 144.965 118.091C145.182 119.628 145.851 121.066 146.885 122.224C147.92 123.381 149.275 124.205 150.778 124.592C152.282 124.979 153.866 124.912 155.331 124.398C156.796 123.885 158.076 122.949 159.008 121.708C159.941 120.467 160.485 118.977 160.571 117.427C160.657 115.877 160.281 114.337 159.491 113C158.702 111.664 157.533 110.592 156.134 109.919C154.259 109.019 152.103 108.9 150.14 109.588C148.177 110.276 146.567 111.715 145.664 113.589Z" fill="#E0E0E0"/>
<path d="M138.804 55.0061C139.441 54.2605 140.176 53.6041 140.989 53.0546L140.68 50.3534L144.926 48.8652L146.369 51.1671C147.347 51.0915 148.332 51.146 149.296 51.3291L150.988 49.2005L155.041 51.1521L154.431 53.7892C155.178 54.4267 155.835 55.1616 156.386 55.9743L159.087 55.6654L160.576 59.9113L158.27 61.3542C158.347 62.3328 158.293 63.3174 158.108 64.2815L160.237 65.9731L158.289 70.0268L155.652 69.4165C155.013 70.1633 154.277 70.8209 153.463 71.3718L153.775 74.073L149.53 75.58L148.087 73.2781C147.108 73.3543 146.123 73.2986 145.159 73.1123L143.468 75.2409L139.414 73.2931L140.021 70.6559C139.276 70.0175 138.62 69.2827 138.069 68.4708L135.368 68.7798L133.876 64.5226L136.178 63.0797C136.102 62.101 136.157 61.1167 136.34 60.1524L134.211 58.4608L136.167 54.3996L138.804 55.0061ZM141.754 59.5873C141.233 60.669 141.044 61.881 141.212 63.0698C141.38 64.2587 141.897 65.3711 142.697 66.2662C143.497 67.1613 144.545 67.799 145.707 68.0986C146.87 68.3981 148.096 68.3461 149.229 67.949C150.362 67.552 151.352 66.8278 152.073 65.868C152.795 64.9083 153.215 63.7561 153.282 62.5573C153.348 61.3585 153.058 60.1669 152.447 59.1332C151.836 58.0996 150.932 57.2703 149.85 56.7504C148.401 56.0562 146.735 55.9651 145.219 56.4968C143.703 57.0286 142.459 58.14 141.761 59.5873H141.754Z" fill="#EBEBEB"/>
<path d="M128.102 35.3849C128.53 34.8827 129.024 34.4405 129.571 34.0701L129.364 32.2542L132.216 31.2559L133.188 32.8043C133.845 32.7506 134.507 32.7873 135.154 32.9135L136.285 31.4819L139.008 32.793L138.602 34.5712C139.102 35.0016 139.544 35.4956 139.916 36.0405L141.728 35.8333L142.731 38.6852L141.186 39.6572C141.236 40.3147 141.199 40.9759 141.077 41.6238L142.508 42.754L141.197 45.4778L139.415 45.0672C138.988 45.5703 138.493 46.0127 137.946 46.382L138.157 48.1979L135.305 49.1963L134.333 47.6479C133.676 47.6998 133.014 47.663 132.366 47.5386L131.236 48.9702L128.512 47.6592L128.923 45.881C128.422 45.4515 127.98 44.9574 127.608 44.4117L125.792 44.6189L124.794 41.7669L126.335 40.7874C126.281 40.13 126.318 39.4683 126.444 38.8208L125.012 37.6906L126.324 34.9668L128.102 35.3774V35.3849ZM130.083 38.4629C129.734 39.1894 129.608 40.0031 129.721 40.8011C129.835 41.5992 130.182 42.3457 130.719 42.9465C131.257 43.5472 131.96 43.9752 132.741 44.1762C133.521 44.3772 134.344 44.3424 135.105 44.076C135.865 43.8096 136.53 43.3236 137.015 42.6796C137.499 42.0355 137.782 41.2622 137.827 40.4574C137.873 39.6527 137.678 38.8526 137.269 38.1583C136.859 37.4639 136.253 36.9066 135.527 36.5566C135.045 36.324 134.521 36.1888 133.986 36.1588C133.451 36.1287 132.916 36.2044 132.41 36.3814C131.905 36.5584 131.439 36.8334 131.04 37.1906C130.64 37.5477 130.315 37.9801 130.083 38.4629Z" fill="#F5F5F5"/>
<path d="M28.8944 134.246C29.3249 133.746 29.8188 133.304 30.3637 132.931L30.1565 131.116L33.0084 130.117L33.9804 131.666C34.6379 131.616 35.2991 131.653 35.947 131.775L37.0772 130.343L39.8011 131.654L39.3904 133.436C39.8936 133.864 40.3359 134.358 40.7053 134.906L42.5212 134.695L43.5195 137.547L41.9824 138.519C42.0362 139.176 41.9995 139.838 41.8732 140.485L43.3048 141.615L41.9824 144.347L40.2042 143.936C39.7748 144.437 39.2807 144.88 38.7349 145.251L38.9421 147.067L36.0902 148.065L35.1182 146.517C34.4607 146.57 33.799 146.534 33.1516 146.407L32.0214 147.839L29.2938 146.528L29.7044 144.75C29.2022 144.321 28.7599 143.827 28.3896 143.281L26.5737 143.488L25.5791 140.625L27.1275 139.653C27.0757 138.995 27.1125 138.334 27.2368 137.686L25.8051 136.556L27.1162 133.843L28.8944 134.25V134.246ZM30.8799 137.324C30.5315 138.051 30.4061 138.864 30.5197 139.662C30.6332 140.459 30.9805 141.205 31.5177 141.805C32.0549 142.406 32.758 142.833 33.5381 143.034C34.3182 143.235 35.1404 143.201 35.9009 142.935C36.6613 142.669 37.3259 142.184 37.8108 141.54C38.2956 140.897 38.5789 140.124 38.625 139.32C38.671 138.516 38.4778 137.716 38.0695 137.021C37.6613 136.327 37.0564 135.769 36.3313 135.418C35.8484 135.184 35.324 135.048 34.7883 135.017C34.2527 134.987 33.7162 135.062 33.2098 135.239C32.7033 135.416 32.2368 135.692 31.8369 136.049C31.4371 136.407 31.1119 136.84 30.8799 137.324Z" fill="#F5F5F5"/>
<path d="M50.4888 144.154C51.136 143.4 51.8795 142.735 52.7002 142.176L52.3875 139.444L56.6824 137.938L58.1441 140.27C59.134 140.192 60.1298 140.247 61.1053 140.432L62.8157 138.28L66.9184 140.247L66.3043 142.929C67.0595 143.575 67.7248 144.319 68.2822 145.141L71.0136 144.828L72.5206 149.123L70.1885 150.585C70.2648 151.575 70.2091 152.571 70.0228 153.546L72.1777 155.256L70.2036 159.359L67.525 158.741C66.8806 159.497 66.1366 160.163 65.3135 160.719L65.6262 163.454L61.3314 164.961L59.8696 162.633C58.8796 162.709 57.8838 162.653 56.9084 162.467L55.198 164.622L51.0953 162.648L51.7094 159.969C50.956 159.321 50.291 158.576 49.7315 157.754L47.0001 158.071L45.4932 153.776L47.8252 152.314C47.749 151.323 47.8048 150.326 47.991 149.349L45.836 147.642L47.8101 143.54L50.4888 144.154ZM53.4725 148.788C52.9457 149.882 52.7552 151.108 52.9253 152.311C53.0953 153.514 53.6182 154.639 54.4278 155.544C55.2375 156.45 56.2975 157.095 57.4737 157.398C58.65 157.701 59.8897 157.648 61.0361 157.247C62.1824 156.845 63.184 156.113 63.9139 155.142C64.6439 154.171 65.0696 153.005 65.1371 151.793C65.2046 150.58 64.9109 149.374 64.2931 148.328C63.6754 147.282 62.7614 146.443 61.6667 145.917C60.1993 145.211 58.5118 145.117 56.9752 145.656C55.4387 146.194 54.1788 147.321 53.4725 148.788Z" fill="#EBEBEB"/>
<path d="M23.5398 85.215C23.4558 85.2547 23.3672 85.2838 23.276 85.3017C23.099 85.3469 22.8428 85.426 22.5 85.4976C21.5437 85.711 20.5727 85.8521 19.5953 85.9196C16.3516 86.1631 13.096 85.6424 10.0901 84.3992C7.08421 83.156 4.41186 81.2251 2.2878 78.7615C1.6467 78.0204 1.06235 77.232 0.539717 76.4031C0.347579 76.113 0.223254 75.8719 0.129069 75.7174C0.0789215 75.6386 0.0360475 75.5553 0.000976562 75.4688C0.0634889 75.5376 0.117848 75.6135 0.162975 75.6948C0.268463 75.8455 0.40409 76.0715 0.603763 76.3616C2.66725 79.4572 5.5076 81.9566 8.84056 83.6095C12.1735 85.2624 15.8821 86.0109 19.5953 85.7802C20.5682 85.7178 21.536 85.592 22.4924 85.4034C22.8353 85.3469 23.0952 85.2753 23.2723 85.2414C23.3606 85.2255 23.45 85.2167 23.5398 85.215Z" fill="#E0E0E0"/>
<path d="M16.1027 87.9584C15.9675 87.9726 15.8311 87.9726 15.6958 87.9584C15.4359 87.9584 15.0591 87.932 14.5958 87.8792C13.3875 87.7511 12.1957 87.4986 11.0393 87.1258C9.88477 86.7467 8.7715 86.2519 7.71646 85.6489C7.31335 85.4154 6.99312 85.2119 6.78214 85.0612C6.66625 84.9908 6.55881 84.9074 6.46191 84.8126C6.48075 84.7824 6.96675 85.0914 7.78428 85.5246C8.84297 86.0886 9.94843 86.56 11.0883 86.9336C12.2335 87.3058 13.4081 87.5805 14.5995 87.7549C15.5301 87.8792 16.1027 87.9245 16.1027 87.9584Z" fill="#E0E0E0"/>
<path d="M60.2265 47.4546C63.8516 45.2657 67.7527 43.5705 71.8263 42.4138L74.2149 30.9307L93.617 30.5879L96.4087 41.9805C100.522 42.9926 104.481 44.5498 108.182 46.6107L117.977 40.1835L131.939 53.6633L125.862 63.6846C128.051 67.3114 129.746 71.2136 130.903 75.2882L142.382 77.6805L142.725 97.079L131.333 99.8744C130.32 103.986 128.763 107.944 126.702 111.644L133.13 121.439L119.654 135.397L109.636 129.32C106.009 131.509 102.107 133.204 98.0324 134.361L95.6439 145.844L76.2417 146.183L73.4501 134.791C69.3364 133.78 65.3768 132.223 61.6769 130.161L51.8816 136.588L37.9121 123.123L43.9927 113.098C41.8075 109.472 40.1172 105.569 38.967 101.494L27.465 99.1058L27.126 79.7036L38.5186 76.912C39.5307 72.8001 41.0879 68.8419 43.1488 65.1426L36.7216 55.3473L50.1976 41.3891L60.2265 47.4659V47.4546ZM66.0923 70.2135C62.4976 73.9379 60.088 78.6445 59.1681 83.7382C58.2482 88.832 58.8594 94.0841 60.9243 98.8306C62.9893 103.577 66.4153 107.604 70.7691 110.404C75.123 113.203 80.2091 114.649 85.3845 114.558C90.5598 114.467 95.5919 112.843 99.8445 109.892C104.097 106.941 107.379 102.795 109.276 97.9791C111.172 93.1629 111.598 87.8925 110.5 82.8343C109.401 77.7761 106.827 73.1572 103.103 69.5618C100.631 67.1741 97.7116 65.2969 94.5133 64.0374C91.3149 62.7779 87.8997 62.1608 84.4628 62.2213C81.026 62.2818 77.6347 63.0188 74.4826 64.3901C71.3306 65.7614 68.4795 67.7402 66.0923 70.2135Z" fill="#EBEBEB"/>
<path d="M66.093 70.2137C66.093 70.2137 66.4697 69.788 67.2797 69.0383C69.3055 67.1615 71.6225 65.6258 74.1402 64.491C75.392 63.9189 76.6886 63.4502 78.0168 63.0895C81.2641 62.2067 84.6499 61.951 87.9929 62.336C92.0537 62.8094 95.9467 64.2288 99.3592 66.4802C102.247 68.3913 104.736 70.8454 106.687 73.7061C107.368 74.7178 107.981 75.7737 108.522 76.8669C110.804 81.5392 111.651 86.7832 110.955 91.9366C110.776 93.2807 110.49 94.6085 110.1 95.9074C109.716 97.2303 109.221 98.5184 108.62 99.7577C106.168 104.875 102.127 109.062 97.0988 111.693C95.8804 112.337 94.6101 112.878 93.3012 113.309C92.0169 113.743 90.7005 114.075 89.3643 114.304C84.2382 115.186 78.9657 114.531 74.2117 112.42C73.102 111.916 72.0261 111.341 70.9906 110.698C68.0636 108.847 65.5238 106.446 63.5123 103.627C61.1487 100.293 59.6003 96.452 58.9914 92.4113C58.4903 89.0841 58.6284 85.6918 59.3983 82.4163C59.7114 81.0654 60.1348 79.7423 60.6641 78.4606C61.0971 77.3911 61.6005 76.3515 62.1711 75.3487C62.9781 73.9624 63.9127 72.6545 64.9627 71.4419C65.6861 70.6168 66.093 70.2137 66.093 70.2137L65.8104 70.5302C65.6296 70.7449 65.332 71.0388 64.9891 71.4645C63.9614 72.6864 63.0448 73.9976 62.2502 75.3826C61.679 76.3838 61.1756 77.4222 60.7432 78.4907C60.224 79.7599 59.8083 81.0689 59.5 82.405C58.7432 85.6663 58.6153 89.0419 59.1233 92.351C59.741 96.3673 61.2892 100.184 63.6441 103.495C64.9531 105.332 66.4942 106.992 68.2291 108.434C69.134 109.188 70.088 109.882 71.0848 110.51C72.114 111.148 73.1837 111.718 74.2871 112.217C80.2725 114.877 87.0371 115.199 93.2485 113.121C94.5468 112.69 95.8069 112.152 97.0159 111.512C102.006 108.9 106.017 104.743 108.45 99.6636C109.048 98.4342 109.541 97.1562 109.923 95.8434C110.309 94.5541 110.592 93.2365 110.771 91.9027C111.463 86.7867 110.626 81.5804 108.367 76.9385C107.83 75.8537 107.222 74.8053 106.547 73.8003C105.888 72.8235 105.161 71.8933 104.374 71.0162C102.872 69.333 101.159 67.8514 99.2763 66.6083C95.8833 64.3651 92.0129 62.946 87.9741 62.4641C84.6489 62.0755 81.2801 62.3223 78.047 63.1912C76.7212 63.5441 75.427 64.0066 74.1778 64.5739C71.6635 65.6951 69.3438 67.2098 67.3061 69.0609C66.8917 69.4188 66.6091 69.7277 66.4019 69.9161L66.093 70.2137Z" fill="#263238"/>
<path d="M60.2279 47.456L50.1839 41.4055H50.2216C46.797 44.9657 42.2573 49.675 36.7607 55.3789V55.3186L43.1954 65.1139L43.2142 65.144L43.1954 65.1741C41.1484 68.8717 39.6003 72.8242 38.5916 76.9285V76.9661H38.5539L27.1651 79.7616L27.2178 79.6937C27.3271 85.8007 27.4438 92.2844 27.5644 99.0959L27.5041 99.0206L38.9684 101.417H39.0136V101.462C40.1708 105.529 41.8647 109.423 44.0506 113.043L44.077 113.088L44.0506 113.133L37.9888 123.17V123.06L51.9509 136.536H51.8378L61.6331 130.109L61.6783 130.075L61.7273 130.105C65.4229 132.157 69.3742 133.711 73.4779 134.724H73.5344V134.777C74.4122 138.349 75.3653 142.24 76.3298 146.17L76.2356 146.098L95.634 145.755L95.5398 145.834C96.2933 142.206 97.1108 138.3 97.9321 134.351V134.291H97.9886C102.051 133.136 105.942 131.446 109.558 129.265L109.611 129.231L109.66 129.265L119.685 135.342H119.565L133.041 121.384V121.504L126.617 111.709L126.583 111.66L126.613 111.607C128.682 107.914 130.248 103.961 131.27 99.8532V99.7967H131.326L142.719 97.005L142.648 97.0992C142.532 90.4761 142.419 84.0087 142.308 77.697L142.38 77.7837L130.893 75.3763H130.84V75.3273C129.689 71.2585 127.997 67.3623 125.811 63.7425L125.785 63.6973L125.811 63.6559L131.892 53.6346V53.7325L117.952 40.2527H118.043L108.247 46.6761L108.213 46.6988L108.176 46.6799C104.481 44.6205 100.528 43.0634 96.4214 42.0498H96.3837V42.0121C95.3741 37.8679 94.4623 34.142 93.5996 30.6194L93.6561 30.6646L74.2539 30.9886L74.2992 30.9547C73.3347 35.5547 72.5473 39.3184 71.8955 42.434C68.8314 43.299 65.8616 44.469 63.0308 45.9264C62.0965 46.4049 61.4146 46.7967 60.9625 47.0567C60.5104 47.3166 60.2881 47.4334 60.2881 47.4334L60.955 47.0303C61.4033 46.7666 62.0852 46.371 63.0158 45.9001C65.8431 44.4264 68.8134 43.2448 71.8805 42.3738L71.8579 42.3964C72.5021 39.277 73.282 35.5133 74.2351 30.9095V30.8756H74.269L93.6712 30.5215H93.7164V30.5667C94.5791 34.0855 95.4984 37.8152 96.5156 41.9556L96.4666 41.9066C100.585 42.9212 104.551 44.4795 108.259 46.5405H108.187C111.303 44.491 114.539 42.37 117.982 40.1095L118.035 40.0756L118.076 40.1171L132.023 53.5969L132.069 53.6421L132.035 53.6986L125.943 63.7312V63.6446C128.137 67.2764 129.836 71.1851 130.995 75.267L130.927 75.2068L142.41 77.5915H142.482V77.6631C142.595 83.9698 142.71 90.4371 142.828 97.0653V97.1406H142.757L131.364 99.9361L131.436 99.8682C130.421 103.988 128.86 107.954 126.794 111.66V111.562C128.914 114.797 131.056 118.062 133.221 121.358L133.267 121.422L133.21 121.478L119.734 135.418L119.681 135.474L119.614 135.433L109.589 129.356H109.69C106.059 131.545 102.153 133.241 98.0753 134.4L98.1469 134.325C97.3256 138.269 96.5081 142.184 95.7546 145.808V145.883H95.6754L76.277 146.222H76.1979L76.1791 146.147C75.2184 142.218 74.2615 138.326 73.3874 134.754L73.459 134.826C69.339 133.808 65.3725 132.247 61.6633 130.185H61.7612L51.9659 136.612L51.9057 136.649L51.8529 136.601L37.9135 123.117L37.8645 123.072L37.9022 123.011L43.979 112.986V113.077C41.7884 109.443 40.092 105.533 38.9345 101.451L38.9947 101.507L27.4514 99.1826H27.3911V99.1185C27.2743 92.3108 27.1613 85.8271 27.0596 79.7201V79.6636H27.1161L38.5087 76.8757L38.4598 76.9247C39.4796 72.7987 41.0442 68.8268 43.1125 65.1139V65.1741L36.7079 55.3789L36.6853 55.345L36.7154 55.3186L50.2028 41.3792H50.2216H50.2442L60.2279 47.456Z" fill="#263238"/>
<path d="M64.1311 22.1043C64.0183 19.0327 62.883 16.0868 60.9053 13.7339C58.9277 11.381 56.221 9.75589 53.2146 9.11639C50.2082 8.47688 47.0744 8.85962 44.3103 10.2039C41.5462 11.5481 39.3102 13.7769 37.957 16.5366C36.6037 19.2963 36.2108 22.4289 36.8405 25.4373C37.4703 28.4458 39.0866 31.1577 41.433 33.143C43.7795 35.1283 46.7217 36.2732 49.7929 36.396C52.8641 36.5188 55.8883 35.6125 58.3858 33.8209L63.3889 35.667L61.6634 30.4943C63.3799 28.042 64.2465 25.0954 64.1311 22.1043Z" fill="#FAFAFA"/>
<path d="M64.1335 22.105C64.1361 22.1552 64.1361 22.2055 64.1335 22.2557C64.1335 22.3612 64.1335 22.5119 64.1335 22.704C64.1334 23.2858 64.0981 23.867 64.028 24.4446C63.7483 26.6323 62.9458 28.7206 61.6885 30.5327V30.4799L63.4554 35.6488L63.5006 35.7882L63.365 35.7393L58.3581 33.9008H58.3166V33.8593L58.441 33.9083C56.8202 35.0758 54.9654 35.8779 53.0046 36.2592C52.4865 36.3597 51.9633 36.4314 51.4373 36.4739C50.9061 36.5229 50.3636 36.5003 49.8211 36.4965C49.6855 36.4965 49.5499 36.4965 49.4105 36.4965L49.0036 36.4513L48.1785 36.3571C47.9035 36.3194 47.636 36.2441 47.361 36.1913C47.086 36.1386 46.8072 36.0896 46.5397 35.9954C45.9936 35.8359 45.4576 35.6434 44.9348 35.419C44.6711 35.3022 44.4036 35.193 44.1436 35.0687L43.3901 34.6429L43.0134 34.4282L42.6367 34.1758L41.9058 33.6295L41.2276 33.0682L40.8848 32.7781L40.5721 32.4578C40.3611 32.2431 40.1502 32.0321 39.943 31.8136L39.3741 31.1053C39.2799 30.9848 39.1782 30.8718 39.0915 30.7286L38.8391 30.3519C38.6733 30.0919 38.4925 29.8433 38.3418 29.5984C38.0353 29.0613 37.7635 28.505 37.528 27.9332C37.4188 27.6431 37.2794 27.3643 37.1927 27.0629C37.1061 26.7615 37.0157 26.4639 36.9253 26.1663C36.1213 23.102 36.3871 19.8551 37.6787 16.9625C38.2823 15.599 39.0987 14.34 40.0974 13.2327C41.0747 12.1863 42.1991 11.2877 43.4354 10.5654C44.6157 9.89893 45.8839 9.40179 47.2028 9.08858L48.171 8.90775C48.4904 8.85586 48.8123 8.82065 49.1354 8.80226C49.7617 8.74566 50.391 8.73182 51.0192 8.76082C53.1236 8.86875 55.1753 9.45729 57.0169 10.4813C58.8585 11.5053 60.4411 12.9375 61.6433 14.6681C61.8655 15.0223 62.1066 15.35 62.295 15.6891L62.8564 16.6762C63.0033 17.0001 63.1238 17.3241 63.2331 17.6255C63.2896 17.7762 63.3612 17.9232 63.4064 18.0701C63.4516 18.217 63.4931 18.364 63.5307 18.5071C63.6136 18.7859 63.6927 19.0534 63.7643 19.3058L63.8999 20.0216C63.9414 20.2439 63.979 20.4511 64.013 20.6395C64.0469 20.8278 64.0431 21.0162 64.0582 21.1556C64.0808 21.4608 64.0958 21.6906 64.1071 21.8563C64.1184 22.0221 64.1071 22.0975 64.1071 22.0975C64.1071 22.0975 64.1071 22.0146 64.077 21.8601C64.0469 21.7056 64.0356 21.4608 64.0054 21.1594C64.0054 21.0049 63.9791 20.8354 63.9527 20.647C63.9263 20.4586 63.8736 20.2703 63.8321 20.0329L63.7153 19.3133C63.64 19.0647 63.5609 18.801 63.4742 18.5222C63.4328 18.379 63.3876 18.2359 63.3424 18.0889C63.2971 17.942 63.2293 17.7988 63.1691 17.6481C63.041 17.3505 62.9204 17.0303 62.7697 16.7063L62.2498 15.7268C62.0577 15.3915 61.8203 15.0675 61.5943 14.7171C60.3953 13.0085 58.8215 11.5968 56.9931 10.5899C55.1648 9.58302 53.1304 9.00763 51.0455 8.90775C50.4173 8.88089 49.788 8.896 49.1618 8.95296C48.8425 8.97135 48.5243 9.00656 48.2087 9.05844L47.2555 9.24305C45.9459 9.54963 44.6872 10.0432 43.5182 10.7086C42.2998 11.4251 41.1909 12.3133 40.2255 13.3458C39.2373 14.4466 38.431 15.6981 37.837 17.0529C36.5608 19.903 36.295 23.1032 37.0835 26.1248C37.1701 26.4224 37.2568 26.7163 37.3472 27.0139C37.4376 27.3116 37.5695 27.5828 37.6787 27.8691C37.9192 28.4255 38.196 28.9654 38.5076 29.4854C38.6583 29.7453 38.8353 29.9902 38.9973 30.2388L39.246 30.6156C39.3289 30.7361 39.4306 30.8492 39.521 30.9659L40.0861 31.6629C40.2933 31.8777 40.4968 32.0924 40.704 32.3034L41.0129 32.6198L41.352 32.9062L42.0226 33.4713L42.7346 34.0063L43.0887 34.2549L43.4655 34.4659L44.219 34.8878C44.4752 35.0084 44.7389 35.1176 44.9951 35.2344C45.5116 35.4563 46.0413 35.6463 46.5811 35.8033C46.8449 35.8975 47.1199 35.9314 47.3911 35.9992C47.6624 36.067 47.9261 36.1273 48.1974 36.1612L49.0111 36.2554L49.4142 36.3044C49.5461 36.3044 49.6817 36.3044 49.8173 36.3044C50.3523 36.3044 50.8873 36.3345 51.411 36.3044C51.9304 36.2627 52.4473 36.1936 52.9594 36.0972C54.8985 35.7231 56.7338 34.934 58.3392 33.784L58.4334 33.7162L58.4636 33.8292L58.4146 33.7727L63.4139 35.63L63.3198 35.7167L61.6093 30.5402V30.5139V30.4875C62.867 28.6947 63.6805 26.6286 63.9828 24.4596C64.0589 23.8849 64.103 23.3063 64.1147 22.7266C64.1147 22.5345 64.1147 22.3875 64.1147 22.2783C64.1147 22.169 64.1335 22.105 64.1335 22.105Z" fill="#263238"/>
<path d="M44.8716 14.7812L46.4389 16.0735L46.7214 17.0831L51.4496 22.1842L50.9296 22.6853L46.3259 17.5917L45.32 17.1472L44.1182 15.4971L44.8716 14.7812Z" fill="#E0E0E0"/>
<path d="M44.8739 14.791C44.8149 14.8635 44.752 14.9327 44.6855 14.9982L44.1468 15.5445V15.4918L45.3712 17.108L45.341 17.0854L46.3507 17.5186L50.8716 22.4916L50.9696 22.5971H50.8302L51.399 22.1111V22.2467C49.5568 20.2462 47.9104 18.4529 46.6935 17.1268C46.5918 16.7501 46.5014 16.4185 46.4223 16.1134L46.4411 16.1397L45.3109 15.1753L45.0095 14.9078C44.9716 14.8768 44.9363 14.8428 44.904 14.8061C45.0495 14.9006 45.1891 15.0038 45.3222 15.115L46.5089 16.0531C46.5956 16.3583 46.6935 16.6898 46.799 17.059V17.0326L51.5497 22.1111L51.6176 22.1827L51.546 22.2467L51.0261 22.7516L50.9545 22.8194L50.8867 22.744L50.7887 22.6385L46.2716 17.6429L46.298 17.6618L45.2958 17.2097H45.277L44.0978 15.5445L44.0752 15.5144L44.1016 15.488L44.6855 14.9643C44.7434 14.9014 44.8064 14.8434 44.8739 14.791Z" fill="#263238"/>
<path d="M51.6718 20.7937L52.154 21.3098C52.1197 21.3852 52.1075 21.4688 52.1188 21.5508C52.1302 21.6329 52.1646 21.71 52.2181 21.7732C52.2857 21.8286 52.3644 21.8687 52.449 21.8908C52.5335 21.9129 52.6218 21.9165 52.7078 21.9013L57.4661 27.1343C57.5791 27.2592 57.6661 27.4054 57.7222 27.5642C57.7783 27.7231 57.8023 27.8915 57.7928 28.0597C57.7834 28.2279 57.7406 28.3925 57.6671 28.5441C57.5935 28.6956 57.4906 28.8311 57.3644 28.9426L57.0818 29.195C56.8315 29.4139 56.5056 29.5265 56.1736 29.509C55.8415 29.4914 55.5294 29.345 55.3036 29.1009L50.534 23.9018C50.5599 23.814 50.5583 23.7203 50.5293 23.6334C50.5003 23.5465 50.4455 23.4706 50.372 23.4158C50.3119 23.3666 50.2409 23.3323 50.1649 23.316C50.0889 23.2996 50.0101 23.3015 49.935 23.3216L49.4867 22.8093C49.4048 22.7169 49.3624 22.596 49.3688 22.4727C49.3751 22.3494 49.4296 22.2335 49.5206 22.15L51.0238 20.7749C51.1141 20.6953 51.2312 20.653 51.3515 20.6565C51.4718 20.6599 51.5863 20.709 51.6718 20.7937Z" fill="#FF725E"/>
<g opacity="0.3">
<path d="M56.9602 27.7555L52.5297 22.9181C52.5072 22.896 52.4893 22.8696 52.477 22.8405C52.4648 22.8114 52.4585 22.7802 52.4585 22.7486C52.4585 22.717 52.4648 22.6857 52.477 22.6566C52.4893 22.6275 52.5072 22.6011 52.5297 22.579C52.5518 22.5565 52.5782 22.5386 52.6073 22.5263C52.6364 22.5141 52.6677 22.5078 52.6993 22.5078C52.7308 22.5078 52.7621 22.5141 52.7912 22.5263C52.8203 22.5386 52.8467 22.5565 52.8688 22.579L57.3068 27.4164C57.3514 27.4615 57.3765 27.5225 57.3765 27.5859C57.3765 27.6494 57.3514 27.7103 57.3068 27.7555C57.2846 27.7792 57.2578 27.7981 57.228 27.811C57.1982 27.824 57.166 27.8306 57.1335 27.8306C57.101 27.8306 57.0689 27.824 57.0391 27.811C57.0093 27.7981 56.9824 27.7792 56.9602 27.7555Z" fill="black"/>
</g>
<g opacity="0.3">
<path d="M56.3252 28.3547L51.8872 23.5022C51.8428 23.4577 51.8179 23.3975 51.8179 23.3346C51.8179 23.2717 51.8428 23.2114 51.8872 23.1669C51.9093 23.1444 51.9357 23.1265 51.9648 23.1142C51.9939 23.102 52.0252 23.0957 52.0567 23.0957C52.0883 23.0957 52.1196 23.102 52.1487 23.1142C52.1778 23.1265 52.2042 23.1444 52.2263 23.1669L56.6794 28.0194C56.7018 28.0411 56.7196 28.0672 56.7318 28.096C56.744 28.1248 56.7503 28.1557 56.7503 28.187C56.7503 28.2183 56.744 28.2492 56.7318 28.278C56.7196 28.3068 56.7018 28.3329 56.6794 28.3547C56.6568 28.3791 56.6294 28.3986 56.5989 28.4119C56.5685 28.4252 56.5356 28.4321 56.5023 28.4321C56.469 28.4321 56.4361 28.4252 56.4057 28.4119C56.3752 28.3986 56.3478 28.3791 56.3252 28.3547Z" fill="black"/>
</g>
<g opacity="0.3">
<path d="M55.6356 28.9707L51.1938 24.1333C51.1712 24.1112 51.1533 24.0849 51.1411 24.0558C51.1289 24.0266 51.1226 23.9954 51.1226 23.9638C51.1226 23.9322 51.1289 23.901 51.1411 23.8719C51.1533 23.8427 51.1712 23.8164 51.1938 23.7943C51.2389 23.7496 51.2999 23.7246 51.3633 23.7246C51.4268 23.7246 51.4877 23.7496 51.5329 23.7943L55.9709 28.6316C56.0155 28.6768 56.0405 28.7377 56.0405 28.8012C56.0405 28.8646 56.0155 28.9256 55.9709 28.9707C55.9264 29.0151 55.8661 29.04 55.8032 29.04C55.7404 29.04 55.6801 29.0151 55.6356 28.9707Z" fill="black"/>
</g>
<path d="M52.153 21.3106C52.153 21.3106 51.6633 21.7703 51.0492 22.3241C50.4351 22.8779 49.9189 23.3224 49.9189 23.3149C49.9189 23.3074 50.4087 22.8553 51.0228 22.3015C51.6369 21.7477 52.153 21.3031 52.153 21.3106Z" fill="#263238"/>
<path d="M52.7172 21.9043C52.7172 21.9043 52.2387 22.3639 51.6322 22.914C51.0256 23.464 50.5321 23.9048 50.5283 23.9011C50.5246 23.8973 51.0219 23.4565 51.6096 22.8914C52.1973 22.3263 52.7097 21.9006 52.7172 21.9043Z" fill="#263238"/>
<path d="M50.7763 23.6116C50.7556 23.5788 50.7368 23.5448 50.7198 23.5099C50.6743 23.4271 50.6144 23.353 50.5428 23.2914C50.4723 23.2296 50.3921 23.18 50.3054 23.1444C50.2666 23.1339 50.2288 23.1201 50.1924 23.103C50.2323 23.0959 50.2731 23.0959 50.3129 23.103C50.4059 23.135 50.4916 23.185 50.5654 23.2499C50.6398 23.3133 50.7002 23.3916 50.7424 23.4797C50.7645 23.5202 50.7761 23.5655 50.7763 23.6116Z" fill="#263238"/>
<path d="M50.9636 23.3893C50.9636 23.3893 50.8657 23.265 50.73 23.1256C50.5944 22.9862 50.4739 22.8845 50.4776 22.877C50.5812 22.9365 50.6741 23.0129 50.7526 23.103C50.8398 23.1848 50.9113 23.2818 50.9636 23.3893Z" fill="#263238"/>
<path d="M51.1746 23.2318C51.0827 23.1531 50.9982 23.0661 50.9222 22.9719C50.8365 22.8841 50.7595 22.7882 50.6924 22.6855C50.7849 22.7651 50.8694 22.8534 50.9448 22.9493C51.0299 23.0362 51.1068 23.1308 51.1746 23.2318Z" fill="#263238"/>
<path d="M51.4243 22.9867C51.3278 22.9162 51.2405 22.834 51.1644 22.7418C51.0798 22.6571 51.0029 22.5651 50.9346 22.4668C51.0254 22.544 51.1098 22.6284 51.187 22.7192C51.2736 22.8014 51.353 22.8909 51.4243 22.9867Z" fill="#263238"/>
<path d="M51.6217 22.7649C51.5168 22.7207 51.4248 22.6507 51.3542 22.5614C51.2755 22.4787 51.2185 22.3777 51.1885 22.2676C51.1885 22.2676 51.2601 22.4032 51.3806 22.5388C51.4553 22.6201 51.5358 22.6956 51.6217 22.7649Z" fill="#263238"/>
<path d="M51.9552 22.5505C51.8357 22.5061 51.7294 22.4323 51.6462 22.3357C51.5558 22.2457 51.4897 22.1342 51.4541 22.0117C51.5206 22.1167 51.5935 22.2173 51.6726 22.3131C51.7599 22.4001 51.8544 22.4796 51.9552 22.5505Z" fill="#263238"/>
<path d="M52.062 22.2451C51.9637 22.2154 51.8786 22.1529 51.8209 22.068C51.7538 21.991 51.7129 21.8947 51.7041 21.793C51.7441 21.8825 51.792 21.9682 51.8473 22.0492C51.9124 22.1212 51.9843 22.1868 52.062 22.2451Z" fill="#263238"/>
<path d="M52.5026 22.1167C52.4618 22.1271 52.4191 22.1271 52.3783 22.1167C52.28 22.0965 52.1882 22.0525 52.1108 21.9886C52.0336 21.9242 51.974 21.8412 51.9375 21.7475C51.9201 21.7097 51.9111 21.6686 51.9111 21.627C51.9111 21.627 51.9111 21.6722 51.9601 21.74C52.0081 21.8234 52.0736 21.8954 52.1522 21.951C52.2257 22.0129 52.3119 22.0579 52.4047 22.0828L52.5026 22.1167Z" fill="#263238"/>
<path d="M58.6592 16.1566L58.5198 16.0022L56.7303 17.8595L55.099 16.2245L56.8207 14.4387L56.6813 14.2842C56.1476 14.218 55.6058 14.2868 55.1056 14.4842C54.6053 14.6817 54.1627 15.0015 53.8181 15.4145C52.7821 16.5861 53.317 18.1308 53.317 18.1308L51.3994 20.0408L53.0571 21.5968L54.9785 19.7131C54.9785 19.7131 56.7717 20.2631 57.9208 18.9973C58.9719 17.8294 58.6592 16.1566 58.6592 16.1566Z" fill="#263238"/>
<path d="M50.0924 24.3531L48.4347 22.8047L46.2911 24.9295C46.2911 24.9295 44.3245 24.5528 43.3487 25.6416C42.7198 26.3714 42.3984 27.3168 42.4521 28.2787C42.4521 28.4068 42.6141 28.4483 42.6141 28.4483L44.543 26.7492L46.1743 28.3805L44.2906 30.0117L44.4488 30.1662C44.9902 30.3083 45.5609 30.2938 46.0944 30.1244C46.6279 29.955 47.1024 29.6377 47.4627 29.2093C48.5025 28.0376 47.9676 26.4968 47.9676 26.4968L50.0924 24.3531Z" fill="#263238"/>
<path d="M58.518 16.0003L56.5929 17.7032L54.9578 16.0681L56.672 14.2824C56.1306 14.1403 55.5599 14.1548 55.0264 14.3242C54.4929 14.4936 54.0184 14.8109 53.6581 15.2393C52.622 16.411 53.157 17.9556 53.157 17.9556L51.2432 19.8845L52.9008 21.4405L54.8222 19.5568C54.8222 19.5568 56.6155 20.1068 57.7646 18.841C58.8307 17.6768 58.518 16.0003 58.518 16.0003Z" fill="#455A64"/>
<path d="M49.9271 24.2125L48.2732 22.6641L46.122 24.7776C46.122 24.7776 44.1517 24.4008 43.1797 25.4934C42.8546 25.8803 42.6187 26.334 42.4885 26.8223C42.3583 27.3106 42.337 27.8215 42.4262 28.3189L44.3551 26.6161L45.9864 28.2474L44.2647 30.0331C44.8058 30.1752 45.3761 30.161 45.9095 29.9923C46.4429 29.8237 46.9176 29.5073 47.2786 29.08C48.3147 27.9045 47.7797 26.3637 47.7797 26.3637L49.9271 24.2125Z" fill="#455A64"/>
<path fill-rule="evenodd" clip-rule="evenodd" d="M79.5584 3.19039C78.0637 3.05962 76.746 4.16528 76.6153 5.65995L76.5405 6.51483L84.1337 13.1219C84.8002 13.7018 85.7644 13.7861 86.5214 13.3308L95.1466 8.14266L95.2214 7.28777C95.3521 5.7931 94.2465 4.47543 92.7518 4.34466L79.5584 3.19039ZM95.0002 9.81585L87.2216 14.4948C85.9599 15.2537 84.3528 15.1131 83.2421 14.1466L76.3941 8.18802L75.6238 16.9928C75.493 18.4874 76.5987 19.8051 78.0933 19.9359L91.2868 21.0901C92.7814 21.2209 94.0991 20.1152 94.2299 18.6206L95.0002 9.81585Z" fill="url(#paint0_linear_0_4215)"/>
<path fill-rule="evenodd" clip-rule="evenodd" d="M86.0413 49.396C85.5971 48.7866 84.8935 48.423 84.1405 48.4098C83.3875 48.3967 82.6716 48.7356 82.2064 49.3291C82.2064 49.3291 79.0732 53.3151 76.4569 56.6435C74.8447 58.6947 72.2518 59.7156 69.6741 59.3168L60.4793 57.888C59.7352 57.7715 58.9802 58.0111 58.4368 58.5334C57.8958 59.0583 57.63 59.8045 57.7205 60.5521C57.7205 60.5521 58.3233 65.5877 58.8275 69.7912C59.1361 72.3813 58.0253 74.937 55.9191 76.4765L48.4085 81.9673C47.7991 82.4115 47.4355 83.1151 47.4223 83.8682C47.4092 84.6212 47.748 85.3371 48.3416 85.8023C48.3416 85.8023 52.3276 88.9355 55.656 91.5518C57.7072 93.164 58.728 95.7568 58.3293 98.3346L56.9005 107.529C56.784 108.273 57.0236 109.028 57.5459 109.572C58.0708 110.113 58.817 110.379 59.5646 110.288C59.5646 110.288 64.6001 109.685 68.8037 109.181C71.3938 108.873 73.9495 109.983 75.489 112.09L80.9798 119.6C81.424 120.21 82.1276 120.573 82.8807 120.586C83.6337 120.599 84.3496 120.261 84.8148 119.667C84.8148 119.667 87.948 115.681 90.5643 112.353C92.1764 110.301 94.7694 109.281 97.3471 109.679L106.542 111.108C107.286 111.225 108.041 110.985 108.584 110.463C109.125 109.938 109.391 109.192 109.301 108.444C109.301 108.444 108.698 103.409 108.194 99.205C107.885 96.6149 108.996 94.0592 111.102 92.5196L118.613 87.0289C119.222 86.5846 119.586 85.881 119.599 85.128C119.612 84.375 119.273 83.6591 118.68 83.1939C118.68 83.1939 114.694 80.0607 111.365 77.4444C109.314 75.8322 108.293 73.2393 108.692 70.6616L110.121 61.4668C110.237 60.7227 109.998 59.9677 109.475 59.4243C108.95 58.8833 108.204 58.6176 107.457 58.708C107.457 58.708 102.421 59.3108 98.2175 59.815C95.6274 60.1236 93.0717 59.0128 91.5321 56.9067L86.0413 49.396Z" fill="#52CE5C"/>
<path fill-rule="evenodd" clip-rule="evenodd" d="M89.1828 75.6757L74.4956 89.8591C73.5409 90.781 73.5143 92.3063 74.4362 93.261C75.3581 94.2157 76.8834 94.2423 77.8381 93.3204L92.5254 79.137C93.4801 78.2151 93.5067 76.6898 92.5848 75.7351C91.6629 74.7804 90.1375 74.7538 89.1828 75.6757ZM77.6638 74.7695C79.6558 74.8043 81.2444 76.4493 81.2096 78.4414C81.1748 80.4334 79.5298 82.022 77.5378 81.9872C75.5457 81.9524 73.9572 80.3074 73.9919 78.3154C74.0267 76.3233 75.6717 74.7348 77.6638 74.7695Z" fill="white"/>
<path d="M89.3574 94.2266C91.3505 94.2614 92.9944 92.6738 93.0292 90.6807C93.064 88.6876 91.4764 87.0437 89.4833 87.0089C87.4902 86.9741 85.8463 88.5616 85.8115 90.5547C85.7767 92.5478 87.3643 94.1918 89.3574 94.2266Z" fill="white"/>
<path fill-rule="evenodd" clip-rule="evenodd" d="M59.5058 80.1274C59.8397 79.882 60.1554 79.6224 60.4576 79.3465C60.9449 78.8962 60.9789 78.1361 60.5287 77.6465C60.0809 77.1569 59.3184 77.1251 58.8288 77.573C58.5945 77.7902 58.3466 77.9934 58.0851 78.1847C57.5481 78.5765 57.4312 79.3282 57.8252 79.8653C58.217 80.4023 58.9687 80.5191 59.5058 80.1274ZM63.121 75.5941C63.8777 73.8392 64.1769 71.8874 63.9415 69.9216L62.9759 61.8528C62.8975 61.1922 62.2971 60.723 61.6388 60.8014C60.9782 60.8797 60.5089 61.4801 60.5873 62.1384L61.553 70.2072C61.7382 71.7434 61.5018 73.2699 60.9109 74.6403C60.6489 75.2512 60.9293 75.9592 61.5402 76.2234C62.1488 76.4853 62.8568 76.2026 63.121 75.5941Z" fill="#8BDD91"/>
<path fill-rule="evenodd" clip-rule="evenodd" d="M99.6283 59.6447L98.5842 66.3746C98.1831 68.9523 99.2039 71.5452 101.255 73.1574C104.584 75.7737 108.57 78.9093 108.57 78.9093C109.163 79.3745 109.502 80.0904 109.489 80.841C109.476 81.5941 109.112 82.2977 108.503 82.7419L100.992 88.235C98.8857 89.7746 97.775 92.3303 98.086 94.9204C98.5878 99.1215 99.1906 104.159 99.1906 104.159C99.281 104.907 99.0153 105.653 98.4743 106.176C97.9309 106.698 97.1759 106.938 96.4319 106.824L87.2371 105.395C84.6594 104.994 82.0664 106.014 80.4543 108.066L76.3587 113.279L80.9798 119.6C81.424 120.21 82.1276 120.573 82.8806 120.586C83.6337 120.599 84.3495 120.261 84.8147 119.667C84.8147 119.667 87.9479 115.681 90.5643 112.353C92.1764 110.301 94.7693 109.281 97.3471 109.679L106.542 111.108C107.286 111.225 108.041 110.985 108.584 110.463C109.125 109.938 109.391 109.192 109.301 108.444C109.301 108.444 108.698 103.408 108.194 99.205C107.885 96.6149 108.996 94.0592 111.102 92.5196L118.613 87.0288C119.222 86.5846 119.586 85.881 119.599 85.128C119.612 84.3749 119.273 83.6591 118.68 83.1939C118.68 83.1939 114.694 80.0607 111.365 77.4443C109.314 75.8322 108.293 73.2393 108.692 70.6616L110.121 61.4667C110.237 60.7227 109.998 59.9677 109.475 59.4243C108.95 58.8833 108.204 58.6176 107.457 58.708L99.6283 59.6447Z" fill="#43C14E"/>
<path fill-rule="evenodd" clip-rule="evenodd" d="M104.046 59.1154L102.729 67.5878C102.33 70.1655 103.351 72.7584 105.402 74.3706C108.731 76.9869 112.717 80.1201 112.717 80.1201C113.31 80.5853 113.649 81.3012 113.636 82.0542C113.623 82.8072 113.259 83.5108 112.65 83.9551L105.139 89.4458C103.033 90.9854 101.922 93.5435 102.231 96.1336C102.735 100.335 103.338 105.37 103.338 105.37C103.428 106.118 103.162 106.867 102.621 107.389C102.078 107.911 101.323 108.151 100.579 108.034L91.3841 106.608C88.8064 106.207 86.2135 107.228 84.6013 109.279C81.985 112.607 78.8518 116.593 78.8518 116.593L78.815 116.638L80.9797 119.6C81.424 120.21 82.1276 120.573 82.8806 120.586C83.6336 120.6 84.3495 120.261 84.8147 119.667C84.8147 119.667 87.9479 115.681 90.5642 112.353C92.1764 110.302 94.7693 109.281 97.347 109.679L106.542 111.108C107.286 111.225 108.041 110.985 108.584 110.463C109.125 109.938 109.391 109.192 109.301 108.444C109.301 108.444 108.698 103.409 108.194 99.205C107.885 96.6149 108.996 94.0592 111.102 92.5197L118.613 87.0289C119.222 86.5847 119.586 85.8811 119.599 85.128C119.612 84.375 119.273 83.6591 118.68 83.1939C118.68 83.1939 114.694 80.0607 111.365 77.4444C109.314 75.8323 108.293 73.2394 108.692 70.6616L110.121 61.4668C110.237 60.7228 109.998 59.9677 109.475 59.4244C108.95 58.8833 108.204 58.6176 107.456 58.7081L104.046 59.1154Z" fill="#2CB738"/>
<defs>
<linearGradient id="paint0_linear_0_4215" x1="76.8455" y1="2.93962" x2="97.9841" y2="11.4867" gradientUnits="userSpaceOnUse">
<stop stop-color="#93FB9D"/>
<stop offset="1" stop-color="#09C7FB"/>
</linearGradient>
</defs>
</svg>
