<svg width="416" height="373" viewBox="0 0 416 373" fill="none" xmlns="http://www.w3.org/2000/svg">
<path d="M386.679 26.3839C352.622 -2.2191 295.287 -6.62791 253.142 8.63032C221.748 20.0222 197.436 45.4197 167.333 59.9185C146.108 70.1071 122.673 74.5553 100.047 81.1143C75.5177 88.2256 51.9744 97.4081 35.8581 118.298C18.0158 141.417 13.2716 171.944 21.458 199.758C30.029 228.864 51.3235 253.216 77.0563 269.283C102.789 285.35 132.743 293.654 162.865 297.531C203.61 302.758 245.844 300.065 284.458 285.991C326.869 270.496 362.633 241.222 384.272 201.286C403.446 165.888 419.908 115.527 414.138 74.8907C411.396 55.5787 401.513 38.8509 386.679 26.3839Z" fill="url(#paint0_linear_798_18090)"/>
<path opacity="0.7" d="M386.679 26.3839C352.622 -2.2191 295.287 -6.62791 253.142 8.63032C221.748 20.0222 197.436 45.4197 167.333 59.9185C146.108 70.1071 122.673 74.5553 100.047 81.1143C75.5177 88.2256 51.9744 97.4081 35.8581 118.298C18.0158 141.417 13.2716 171.944 21.458 199.758C30.029 228.864 51.3235 253.216 77.0563 269.283C102.789 285.35 132.743 293.654 162.865 297.531C203.61 302.758 245.844 300.065 284.458 285.991C326.869 270.496 362.633 241.222 384.272 201.286C403.446 165.888 419.908 115.527 414.138 74.8907C411.396 55.5787 401.513 38.8509 386.679 26.3839Z" fill="white"/>
<path d="M199.662 372.847C309.898 372.847 399.262 360.112 399.262 344.402C399.262 328.692 309.898 315.957 199.662 315.957C89.4263 315.957 0.0625 328.692 0.0625 344.402C0.0625 360.112 89.4263 372.847 199.662 372.847Z" fill="url(#paint1_linear_798_18090)"/>
<path opacity="0.5" d="M199.662 372.847C309.898 372.847 399.262 360.112 399.262 344.402C399.262 328.692 309.898 315.957 199.662 315.957C89.4263 315.957 0.0625 328.692 0.0625 344.402C0.0625 360.112 89.4263 372.847 199.662 372.847Z" fill="white"/>
<path d="M103.47 232.401C100.124 233.287 97.1108 235.131 94.7998 237.707C92.7793 239.866 91.0213 242.256 89.5625 244.828C88.5762 246.456 87.7576 248.142 86.9685 249.849C86.4556 250.963 86.0611 252.354 85.5778 253.626C84.8775 254.76 84.1773 255.924 83.6052 257.009C85.6962 249.464 92.482 235.577 92.5708 231.631C92.7089 227.331 88.6255 233.722 86.2978 242.481C84.9965 247.434 84.0082 252.464 83.3389 257.542C83.1022 257.996 82.8951 258.42 82.7077 258.824C82.2836 259.702 81.5636 261.191 80.6068 263.144C82.7077 256.733 83.4671 249.129 82.2047 248.182C80.3701 246.821 79.7093 250.154 79.7192 256.329C79.5394 260.738 78.8138 265.108 77.5591 269.338C76.4052 271.617 75.1131 274.132 73.7323 276.785C75.1821 272.169 76.0205 265.521 76.8095 260.54C77.9635 253.291 77.4704 251.032 75.123 254.514C72.7755 257.996 73.1503 263.045 73.7421 269.22C73.9413 273.166 73.2256 277.106 71.6511 280.73C69.8856 284.083 68.0117 287.555 66.1179 290.968C67.7245 287.47 68.7409 283.731 69.1262 279.902C69.9448 271.528 68.8698 263.834 66.9267 266.014C64.9837 268.194 66.1377 274.023 65.8812 281.115C65.7407 285.421 65.2558 289.708 64.4314 293.937L63.8396 294.982C64.6192 291.381 64.8256 287.68 64.4511 284.014C64.8357 282.614 64.6976 281.716 64.2341 281.292C64.165 279.714 64.2933 277.347 63.6226 276.134C61.9261 273.106 60.0719 277.179 60.0521 278.787C60.0537 280.018 60.1394 281.247 60.3086 282.466C59.6478 283.08 59.0767 283.784 58.6121 284.557C58.3557 284.991 58.0894 285.464 57.8033 285.987C57.8033 285.484 57.8625 284.942 57.8822 284.458C57.971 283.092 57.6845 281.728 57.0537 280.513C58.0722 278.48 58.8057 276.316 59.2335 274.082C59.4318 273.343 59.3798 272.559 59.0855 271.853C58.9875 271.635 58.8474 271.439 58.6732 271.275C58.4991 271.112 58.2943 270.984 58.0707 270.9C57.8471 270.815 57.6091 270.776 57.3702 270.784C57.1314 270.792 56.8965 270.847 56.6789 270.946C56.5739 270.996 56.4718 271.052 56.3732 271.113C53.1578 272.82 52.2997 276.923 51.9249 280.217C51.5715 283.059 50.9978 285.868 50.2087 288.62C49.5479 291.096 48.966 293.335 48.5912 294.893C48.3358 293.231 47.9867 291.585 47.5457 289.962C47.1808 288.611 46.8356 287.309 46.5002 286.017C46.1912 281.447 47.0856 276.877 49.0942 272.761C52.9014 264.929 55.6532 261.24 53.0395 261.112C50.4257 260.984 46.5693 265.058 46.0268 271.508C45.6192 275.417 45.5367 279.352 45.7802 283.275C44.9419 280.316 44.1134 277.446 43.2553 274.566C42.592 271.385 42.7549 268.088 43.7287 264.988C45.5238 259.672 50.8893 250.194 48.0684 250.973C45.2476 251.752 41.8547 257.197 41.4701 262.996C41.3679 266.026 41.7001 269.055 42.4564 271.991C41.8448 269.979 41.1873 267.888 40.4837 265.718C40.1878 264.732 39.8722 263.746 39.5664 262.759C39.5783 262.582 39.5513 262.403 39.4876 262.237C39.0943 259.24 39.6351 256.195 41.0361 253.518C43.7386 248.665 48.7589 244.493 45.7999 243.378C42.841 242.264 38.373 250.154 38.1067 254.1C38.0471 255.601 38.1663 257.104 38.4618 258.577L38.0969 257.66C37.4558 255.392 36.8344 253.153 36.2919 251.17C36.1751 248.243 36.7637 245.33 38.0081 242.678C40.6514 236.622 44.0048 229.708 40.5823 231.464C37.8207 232.894 34.842 241.051 35.424 247.945C35.1971 247.038 34.9801 246.268 34.8125 245.637C34.3686 241.692 33.5204 232.401 34.8125 226.897C35.6607 223.208 37.0514 219.707 37.4755 215.91C37.561 215.489 37.5303 215.052 37.3867 214.647C36.4596 212.359 33.4415 216.817 32.9878 217.547C31.1449 220.483 30.202 223.895 30.2754 227.361C30.2777 230.314 30.6287 233.258 31.3209 236.129C31.7417 237.964 32.2513 239.778 32.8497 241.573C33.2245 242.727 33.8952 244.02 34.4081 245.272C34.6645 246.584 34.9505 247.915 35.2563 249.109C31.6365 242.106 27.0502 227.321 24.4858 224.313C21.6551 221.088 23.026 228.594 27.2672 236.533C29.7061 241.069 32.4271 245.447 35.4141 249.642C35.5522 250.135 35.6903 250.628 35.8284 251.012C36.1144 251.94 36.6075 253.528 37.2388 255.609C34.3587 249.523 29.7625 243.408 28.1943 243.576C25.9356 243.832 27.7307 246.722 31.9423 251.229C34.8014 254.573 37.2363 258.257 39.1916 262.197C39.9018 264.663 40.681 267.365 41.4799 270.246C39.3791 265.886 35.4535 260.451 32.6031 256.279C28.5 250.194 26.5965 248.872 27.2573 253.015C27.9181 257.157 31.6562 260.58 36.3018 264.712C39.1249 267.476 41.2775 270.85 42.5944 274.575C43.5807 278.225 44.567 282.042 45.5534 285.839C44.342 282.182 42.5358 278.75 40.2075 275.68C35.0787 268.983 29.0425 264.101 29.1115 267.01C29.1806 269.92 33.9938 273.412 38.6689 278.738C41.5053 281.972 44.0686 285.436 46.3326 289.094C46.4312 289.469 46.52 289.853 46.6087 290.228C44.5177 286.391 41.1741 283.265 37.9292 280.365C36.785 279.32 35.059 277.12 33.5894 276.647C30.2951 275.601 31.7154 279.842 32.8004 281.026C36.3215 284.872 41.2826 287.25 44.5375 291.303C45.7652 292.827 46.8638 294.45 47.8219 296.156C48.0487 297.487 48.2164 298.73 48.3545 299.894C47.1052 298.71 45.7901 297.593 44.4092 296.541C40.464 293.868 38.1265 290.189 35.059 286.677C34.1418 285.632 32.5834 284.33 31.1138 284.261C29.0228 284.172 28.4014 286.362 29.0228 288.088C31.4392 295.199 40.533 295.515 45.869 299.213C46.8425 299.837 47.7424 300.568 48.5518 301.393C48.7785 303.588 48.8379 305.797 48.7293 308.001H36.499V313.101H40.1287L43.0876 331.249H67.5382L70.4972 313.101H74.1268V308.001H55.7913C56.6296 306.956 57.5272 305.911 58.4346 304.717L62.3009 304.835C62.3009 304.835 75.7443 305.417 80.6759 302.735C85.6074 300.052 81.2085 297.507 76.4841 298.878C71.7596 300.249 62.4883 304.401 60.4368 304.401L58.7009 304.352C59.6872 303.1 60.6735 301.807 61.5414 300.486C65.2428 299.556 68.8828 298.396 72.4402 297.014C76.2967 295.485 80.8139 294.252 84.0984 291.658C84.7365 291.238 85.221 290.622 85.4792 289.903C85.6292 289.445 85.592 288.946 85.3759 288.516C85.1597 288.085 84.782 287.758 84.3252 287.605C84.2192 287.569 84.1103 287.543 83.9998 287.526C80.4786 286.539 77.0462 288.985 74.5805 291.136C72.41 292.973 70.1019 294.642 67.6763 296.126C65.4966 297.468 63.5437 298.73 62.222 299.588C63.2083 298.138 64.096 296.689 64.8555 295.278C65.5163 294.035 66.1574 292.852 66.759 291.698C69.6633 288.164 73.4358 285.445 77.7071 283.807C85.8343 280.671 90.3417 279.862 88.5565 277.978C86.7713 276.094 81.1197 276.44 76.3263 280.789C73.3545 283.366 70.603 286.187 68.1004 289.222C69.5306 286.46 70.8719 283.817 72.2035 281.134C73.8977 278.354 76.2742 276.052 79.1076 274.447C84.0392 271.804 94.4152 268.529 91.8409 267.178C89.2666 265.827 83.0529 267.474 78.8315 271.459C76.6849 273.606 74.858 276.051 73.4068 278.718C74.3339 276.814 75.2808 274.852 76.2769 272.8C76.701 271.893 77.1646 270.966 77.638 269.999C77.7367 269.851 77.8451 269.713 77.9339 269.555C79.694 267.097 82.171 265.244 85.0255 264.249C90.2628 262.542 96.8612 262.917 95.4212 260.057C93.9812 257.197 85.3411 259.939 82.4512 262.651C81.3885 263.716 80.4489 264.897 79.6501 266.172C79.7783 265.876 79.9066 265.561 80.0249 265.245C81.0704 263.154 82.1159 261.063 83.1614 259.327C85.0645 257.1 87.4816 255.37 90.2036 254.287C96.2694 251.673 103.45 248.902 99.7413 247.846C96.7823 246.998 88.9905 250.924 84.7296 256.368L85.854 254.277C88.2212 251.072 93.9418 243.704 98.6761 240.538C101.813 238.437 105.215 236.8 108.095 234.314C108.411 234.077 108.668 233.77 108.845 233.417C109.614 231.01 104.397 232.233 103.47 232.401ZM48.749 295.85C49.538 294.647 50.9288 292.428 52.4674 289.577C52.9413 290.876 53.4811 292.15 54.0849 293.394C52.6647 296.353 51.3627 298.858 50.6131 299.509L49.3112 300.653C49.2224 299.095 48.9956 297.497 48.7687 295.89L48.749 295.85ZM57.6258 304.323C56.6714 305.591 55.6439 306.803 54.5485 307.952H49.8142C49.7452 305.98 49.6071 303.622 49.3802 301.048L52.2898 298.484C52.2898 298.484 53.5622 297.438 55.2488 295.752C56.0759 297.378 56.7178 299.091 57.1622 300.861C57.4764 302.015 57.6454 303.205 57.6652 304.401L57.6258 304.323ZM61.571 294.252C61.4317 296.208 61.1282 298.148 60.6636 300.052C59.9239 301.186 59.194 302.212 58.5036 303.188C58.4444 301.433 57.971 298.257 57.9217 298.04C57.5965 296.618 57.418 295.168 57.3891 293.71C58.7817 292.277 60.0985 290.772 61.3343 289.202C61.6147 290.883 61.7106 292.59 61.6204 294.292L61.571 294.252Z" fill="#263238"/>
<path d="M370.757 44.1073V235.688C370.757 240.62 367.078 244.565 362.511 244.565H15.5074C10.9506 244.565 7.25195 240.62 7.25195 235.688V44.1073C7.25195 39.1757 10.9506 35.2305 15.5074 35.2305H362.541C367.107 35.2403 370.757 39.2053 370.757 44.1073Z" fill="white" stroke="#263238" stroke-width="1.06897" stroke-linecap="round" stroke-linejoin="round"/>
<path d="M107.402 68.793H26.5242C23.0979 68.793 20.3203 71.5705 20.3203 74.9969V211.374C20.3203 214.8 23.0979 217.578 26.5242 217.578H107.402C110.828 217.578 113.606 214.8 113.606 211.374V74.9969C113.606 71.5705 110.828 68.793 107.402 68.793Z" fill="url(#paint2_linear_798_18090)"/>
<path d="M55.322 101.835C55.322 104.665 54.4826 107.432 52.9101 109.786C51.3375 112.139 49.1024 113.974 46.4873 115.057C43.8723 116.14 40.9947 116.423 38.2186 115.871C35.4425 115.319 32.8924 113.956 30.8909 111.954C28.8894 109.953 27.5264 107.403 26.9742 104.627C26.422 101.851 26.7054 98.9731 27.7886 96.3581C28.8718 93.743 30.7061 91.5079 33.0596 89.9353C35.4131 88.3628 38.1801 87.5234 41.0106 87.5234C42.8904 87.5221 44.7519 87.8914 46.4888 88.6102C48.2258 89.3289 49.804 90.3831 51.1331 91.7123C52.4623 93.0414 53.5165 94.6196 54.2352 96.3565C54.954 98.0935 55.3233 99.955 55.322 101.835Z" fill="white" stroke="#263238" stroke-width="1.06897" stroke-linecap="round" stroke-linejoin="round"/>
<path d="M99.6097 93.6094H69.7344V96.4401H99.6097V93.6094Z" fill="#263238"/>
<path d="M103.259 100.414H69.7344V103.245H103.259V100.414Z" fill="#263238"/>
<path d="M99.6097 107.223H69.7344V110.053H99.6097V107.223Z" fill="#263238"/>
<path d="M105.182 114.016H69.7344V116.846H105.182V114.016Z" fill="#263238"/>
<path d="M97.975 132.887H35.8275C32.9133 132.887 30.5508 135.249 30.5508 138.163V150.946C30.5508 153.86 32.9133 156.223 35.8275 156.223H97.975C100.889 156.223 103.252 153.86 103.252 150.946V138.163C103.252 135.249 100.889 132.887 97.975 132.887Z" fill="white" stroke="#263238" stroke-width="1.06897" stroke-linecap="round" stroke-linejoin="round"/>
<path d="M97.975 163.984H35.8275C32.9133 163.984 30.5508 166.347 30.5508 169.261V182.044C30.5508 184.958 32.9133 187.32 35.8275 187.32H97.975C100.889 187.32 103.252 184.958 103.252 182.044V169.261C103.252 166.347 100.889 163.984 97.975 163.984Z" fill="white" stroke="#263238" stroke-width="1.06897" stroke-linecap="round" stroke-linejoin="round"/>
<path d="M260.121 68.3711V226.625" stroke="#263238" stroke-width="1.06897" stroke-linecap="round" stroke-linejoin="round"/>
<path d="M370.757 43.5036V56.3256H7.25195V43.5036C7.25195 41.3132 8.1214 39.2124 9.66931 37.6626C11.2172 36.1129 13.317 35.2409 15.5074 35.2383H362.541C364.726 35.2461 366.819 36.121 368.359 37.6708C369.9 39.2205 370.762 41.3184 370.757 43.5036Z" fill="#263238"/>
<path d="M32.1108 49.0692C33.9356 49.0692 35.4149 47.5899 35.4149 45.7651C35.4149 43.9403 33.9356 42.4609 32.1108 42.4609C30.286 42.4609 28.8066 43.9403 28.8066 45.7651C28.8066 47.5899 30.286 49.0692 32.1108 49.0692Z" fill="white"/>
<path d="M50.6688 45.7651C50.6688 46.4186 50.4751 47.0574 50.112 47.6008C49.7489 48.1441 49.2329 48.5676 48.6291 48.8177C48.0254 49.0678 47.361 49.1332 46.7201 49.0057C46.0791 48.8782 45.4904 48.5636 45.0283 48.1015C44.5662 47.6394 44.2515 47.0506 44.124 46.4097C43.9965 45.7687 44.062 45.1044 44.3121 44.5006C44.5621 43.8969 44.9856 43.3809 45.529 43.0178C46.0724 42.6547 46.7112 42.4609 47.3647 42.4609C48.241 42.4609 49.0814 42.8091 49.7011 43.4287C50.3207 44.0483 50.6688 44.8888 50.6688 45.7651Z" fill="white"/>
<path d="M65.743 45.7651C65.743 46.4186 65.5493 47.0574 65.1862 47.6008C64.8231 48.1441 64.3071 48.5676 63.7033 48.8177C63.0996 49.0678 62.4352 49.1332 61.7943 49.0057C61.1534 48.8782 60.5646 48.5636 60.1025 48.1015C59.6404 47.6394 59.3257 47.0506 59.1983 46.4097C59.0708 45.7687 59.1362 45.1044 59.3863 44.5006C59.6364 43.8969 60.0599 43.3809 60.6032 43.0178C61.1466 42.6547 61.7854 42.4609 62.4389 42.4609C63.3152 42.4609 64.1556 42.8091 64.7753 43.4287C65.3949 44.0483 65.743 44.8888 65.743 45.7651Z" fill="white"/>
<path d="M353.548 83.0664H274.189V85.6999H353.548V83.0664Z" fill="url(#paint3_linear_798_18090)"/>
<path d="M312.517 91.2852H274.189V93.9186H312.517V91.2852Z" fill="url(#paint4_linear_798_18090)"/>
<path d="M335.538 99.5H274.189V102.133H335.538V99.5Z" fill="url(#paint5_linear_798_18090)"/>
<path d="M328.989 107.48H274.189V110.341H328.989V107.48Z" fill="url(#paint6_linear_798_18090)"/>
<path d="M327.273 115.934H274.189V118.567H327.273V115.934Z" fill="url(#paint7_linear_798_18090)"/>
<path d="M308.681 124.148H274.189V126.782H308.681V124.148Z" fill="url(#paint8_linear_798_18090)"/>
<path opacity="0.2" d="M353.548 83.0664H274.189V85.6999H353.548V83.0664Z" fill="black"/>
<path opacity="0.2" d="M312.517 91.2852H274.189V93.9186H312.517V91.2852Z" fill="black"/>
<path opacity="0.2" d="M335.538 99.5H274.189V102.133H335.538V99.5Z" fill="black"/>
<path opacity="0.2" d="M328.989 107.48H274.189V110.341H328.989V107.48Z" fill="black"/>
<path opacity="0.2" d="M327.273 115.934H274.189V118.567H327.273V115.934Z" fill="black"/>
<path opacity="0.2" d="M308.681 124.148H274.189V126.782H308.681V124.148Z" fill="black"/>
<path d="M41.0128 109.44C45.5504 109.44 49.2288 105.761 49.2288 101.224C49.2288 96.6862 45.5504 93.0078 41.0128 93.0078C36.4753 93.0078 32.7969 96.6862 32.7969 101.224C32.7969 105.761 36.4753 109.44 41.0128 109.44Z" fill="#263238"/>
<path d="M49.2185 113.583C46.7421 115.295 43.789 116.183 40.779 116.121C37.769 116.059 34.855 115.05 32.4512 113.238C33.8024 110.525 36.3964 106.333 39.6907 106.333C43.8135 106.274 46.6245 108.089 49.2185 113.583Z" fill="#263238"/>
<path d="M347.95 41.1992H268.788C266.528 41.1992 264.695 43.0318 264.695 45.2924V46.2393C264.695 48.4999 266.528 50.3325 268.788 50.3325H347.95C350.21 50.3325 352.043 48.4999 352.043 46.2393V45.2924C352.043 43.0318 350.21 41.1992 347.95 41.1992Z" fill="white"/>
<path d="M269.877 42.7578V48.5573" stroke="#263238" stroke-width="1.06897" stroke-linecap="round" stroke-linejoin="round"/>
<path d="M98.0096 196.039H78.2045C76.0529 196.039 74.3086 197.783 74.3086 199.935V204.936C74.3086 207.087 76.0529 208.832 78.2045 208.832H98.0096C100.161 208.832 101.906 207.087 101.906 204.936V199.935C101.906 197.783 100.161 196.039 98.0096 196.039Z" fill="url(#paint9_linear_798_18090)"/>
<path d="M354.511 196.225H280.844V157.621" stroke="#263238" stroke-width="1.06897" stroke-linecap="round" stroke-linejoin="round"/>
<path d="M283.822 180.31L286.988 187.381L303.608 165.387L307.079 175.999L313.648 172.311L328.828 187.381L340.16 176.927L344.54 181.533L352.095 166.679" stroke="#263238" stroke-width="1.06897" stroke-linecap="round" stroke-linejoin="round"/>
<path d="M279.119 193.797H273.783V196.213H279.119V193.797Z" fill="url(#paint10_linear_798_18090)"/>
<path d="M279.119 184.961H273.783V187.377H279.119V184.961Z" fill="url(#paint11_linear_798_18090)"/>
<path d="M279.119 176.113H273.783V178.53H279.119V176.113Z" fill="url(#paint12_linear_798_18090)"/>
<path d="M279.119 167.266H273.783V169.682H279.119V167.266Z" fill="url(#paint13_linear_798_18090)"/>
<path d="M279.119 158.43H273.783V160.846H279.119V158.43Z" fill="url(#paint14_linear_798_18090)"/>
<path d="M316.814 198.168V213.406H319.191V198.168H316.814Z" fill="url(#paint15_linear_798_18090)"/>
<path d="M325.277 198.168V213.406H327.654V198.168H325.277Z" fill="url(#paint16_linear_798_18090)"/>
<path d="M333.742 198.179V213.418H336.119V198.179H333.742Z" fill="url(#paint17_linear_798_18090)"/>
<path d="M342.205 198.179V213.418H344.582V198.179H342.205Z" fill="url(#paint18_linear_798_18090)"/>
<path d="M350.664 198.179V213.418H353.041V198.179H350.664Z" fill="url(#paint19_linear_798_18090)"/>
<path d="M308.137 198.179V213.418H310.514V198.179H308.137Z" fill="url(#paint20_linear_798_18090)"/>
<path d="M299.459 198.179V213.418H301.836V198.179H299.459Z" fill="url(#paint21_linear_798_18090)"/>
<path d="M290.768 198.168V213.406H293.145V198.168H290.768Z" fill="url(#paint22_linear_798_18090)"/>
<path d="M282.086 198.179V213.418H284.463V198.179H282.086Z" fill="url(#paint23_linear_798_18090)"/>
<path d="M214.573 75.3047C210.633 75.3047 206.855 76.8696 204.069 79.6553C201.284 82.4409 199.719 86.219 199.719 90.1585C199.719 94.098 201.284 97.8761 204.069 100.662C206.855 103.447 210.633 105.012 214.573 105.012C216.523 105.052 218.463 104.707 220.28 103.997C222.097 103.287 223.757 102.226 225.164 100.874C226.571 99.5231 227.698 97.9078 228.481 96.1208C229.264 94.3337 229.688 92.41 229.727 90.4594C229.767 88.5087 229.422 86.5694 228.712 84.7521C228.002 82.9349 226.941 81.2752 225.589 79.868C224.238 78.4607 222.623 77.3335 220.836 76.5505C219.049 75.7675 217.125 75.3442 215.174 75.3047H214.573Z" fill="#263238"/>
<path d="M223.994 85.3944C223.884 84.9759 223.666 84.5939 223.361 84.2872C223.056 83.9805 222.676 83.7602 222.258 83.6486C220.719 83.2344 214.565 83.2344 214.565 83.2344C214.565 83.2344 208.41 83.2344 206.881 83.6486C206.462 83.7596 206.08 83.9796 205.773 84.2862C205.466 84.5928 205.246 84.9752 205.135 85.3944C204.593 88.5505 204.593 91.776 205.135 94.932C205.246 95.3512 205.466 95.7336 205.773 96.0402C206.08 96.3469 206.462 96.5668 206.881 96.6778C208.41 97.092 214.565 97.092 214.565 97.092C214.565 97.092 220.719 97.092 222.258 96.6778C222.675 96.5644 223.055 96.3435 223.359 96.0371C223.664 95.7307 223.883 95.3496 223.994 94.932C224.547 91.7769 224.547 88.5495 223.994 85.3944Z" fill="white"/>
<path d="M212.553 93.0871V87.2383L217.701 90.1578L212.553 93.0871Z" fill="#263238"/>
<path d="M156.056 75.3438C153.13 75.3438 150.27 76.2115 147.837 77.8371C145.404 79.4628 143.508 81.7734 142.388 84.4767C141.268 87.1801 140.975 90.1548 141.546 93.0247C142.117 95.8946 143.526 98.5308 145.595 100.6C147.664 102.669 150.3 104.078 153.17 104.649C156.04 105.22 159.015 104.927 161.718 103.807C164.421 102.687 166.732 100.791 168.358 98.3579C169.983 95.9249 170.851 93.0645 170.851 90.1384C170.851 86.2146 169.292 82.4515 166.518 79.677C163.743 76.9025 159.98 75.3438 156.056 75.3438Z" fill="#263238"/>
<path d="M153.562 99.6669H157.399V90.0603H160.072L160.358 86.8449H157.399V85.0005C157.399 84.2411 157.547 83.9452 158.287 83.9452H160.358V80.6016H157.715C154.864 80.6016 153.572 81.864 153.572 84.2608V86.8252H151.6V90.0702H153.572L153.562 99.6669Z" fill="white"/>
<path d="M155.967 135.559C153.03 135.559 150.158 136.43 147.716 138.061C145.273 139.693 143.369 142.012 142.245 144.726C141.12 147.439 140.826 150.426 141.398 153.307C141.97 156.188 143.384 158.834 145.46 160.912C147.537 162.99 150.183 164.405 153.063 164.98C155.944 165.554 158.93 165.261 161.645 164.138C164.359 163.016 166.679 161.113 168.313 158.672C169.946 156.231 170.819 153.36 170.821 150.422C170.821 146.482 169.256 142.703 166.471 139.916C163.686 137.128 159.908 135.561 155.967 135.559Z" fill="#263238"/>
<path d="M155.97 143.32C158.278 143.32 158.554 143.32 159.471 143.32C160.021 143.329 160.565 143.433 161.079 143.626C161.452 143.762 161.789 143.981 162.065 144.267C162.353 144.543 162.575 144.88 162.716 145.253C162.908 145.768 163.008 146.312 163.012 146.861C163.012 147.778 163.012 148.084 163.012 150.352C163.012 152.621 163.012 152.946 163.012 153.854C163.009 154.403 162.909 154.947 162.716 155.462C162.579 155.836 162.356 156.174 162.065 156.448C161.79 156.736 161.453 156.959 161.079 157.099C160.563 157.284 160.02 157.384 159.471 157.395C158.554 157.395 158.278 157.395 155.97 157.395C153.662 157.395 153.386 157.395 152.469 157.395C151.92 157.386 151.377 157.286 150.861 157.099C150.487 156.959 150.15 156.736 149.875 156.448C149.584 156.174 149.361 155.836 149.224 155.462C149.032 154.947 148.931 154.403 148.928 153.854C148.928 152.946 148.869 152.67 148.869 150.352C148.869 148.035 148.869 147.778 148.928 146.861C148.932 146.312 149.033 145.768 149.224 145.253C149.361 144.878 149.584 144.541 149.875 144.267C150.151 143.981 150.488 143.762 150.861 143.626C151.376 143.435 151.919 143.332 152.469 143.32C153.386 143.32 153.652 143.32 155.97 143.32ZM155.97 141.762C153.623 141.762 153.317 141.762 152.4 141.762C151.693 141.769 150.993 141.895 150.328 142.137C149.755 142.359 149.234 142.698 148.799 143.133C148.365 143.567 148.025 144.088 147.803 144.661C147.553 145.334 147.416 146.044 147.399 146.762C147.399 147.689 147.34 147.985 147.34 150.333C147.34 152.68 147.34 152.976 147.399 153.903C147.414 154.621 147.551 155.332 147.803 156.004C148.021 156.584 148.359 157.113 148.794 157.554C149.229 157.996 149.751 158.342 150.328 158.568C151.003 158.814 151.712 158.951 152.429 158.973C153.356 158.973 153.652 158.973 156 158.973C158.347 158.973 158.643 158.973 159.57 158.973C160.287 158.951 160.997 158.814 161.671 158.568C162.245 158.344 162.765 158.003 163.2 157.567C163.635 157.13 163.974 156.608 164.196 156.034C164.449 155.361 164.585 154.651 164.6 153.933C164.6 153.016 164.659 152.72 164.659 150.362C164.659 148.005 164.659 147.719 164.6 146.792C164.584 146.077 164.447 145.37 164.196 144.701C163.976 144.125 163.637 143.602 163.202 143.166C162.767 142.729 162.246 142.389 161.671 142.166C160.998 141.915 160.288 141.779 159.57 141.762C158.643 141.762 158.347 141.762 156 141.762" fill="white"/>
<path d="M155.972 145.934C155.092 145.932 154.231 146.191 153.499 146.678C152.766 147.165 152.195 147.858 151.856 148.67C151.518 149.483 151.428 150.377 151.597 151.24C151.767 152.103 152.189 152.897 152.81 153.52C153.43 154.144 154.222 154.569 155.084 154.743C155.947 154.916 156.842 154.83 157.655 154.495C158.469 154.16 159.165 153.592 159.655 152.861C160.145 152.131 160.408 151.272 160.41 150.392C160.41 149.215 159.943 148.086 159.11 147.253C158.278 146.421 157.149 145.953 155.972 145.953M155.972 153.262C155.4 153.264 154.84 153.096 154.364 152.78C153.887 152.463 153.515 152.013 153.295 151.485C153.075 150.957 153.016 150.376 153.126 149.814C153.237 149.253 153.511 148.737 153.915 148.332C154.319 147.927 154.834 147.651 155.395 147.538C155.955 147.426 156.537 147.483 157.066 147.701C157.594 147.92 158.046 148.29 158.364 148.765C158.682 149.241 158.852 149.8 158.852 150.372C158.852 151.137 158.549 151.87 158.009 152.412C157.469 152.954 156.737 153.259 155.972 153.262Z" fill="white"/>
<path d="M215.128 164.17C213.269 164.172 211.428 163.806 209.71 163.096C207.993 162.385 206.432 161.342 205.117 160.028C203.803 158.713 202.76 157.152 202.049 155.435C201.339 153.717 200.973 151.876 200.975 150.017C200.975 146.263 202.466 142.663 205.12 140.009C207.774 137.354 211.374 135.863 215.128 135.863C218.882 135.863 222.482 137.354 225.136 140.009C227.791 142.663 229.282 146.263 229.282 150.017C229.283 151.876 228.918 153.717 228.207 155.435C227.496 157.152 226.454 158.713 225.139 160.028C223.825 161.342 222.264 162.385 220.546 163.096C218.828 163.806 216.987 164.172 215.128 164.17Z" fill="#263238" stroke="#263238" stroke-width="1.06897" stroke-linecap="round" stroke-linejoin="round"/>
<path d="M207.594 154.809C209.005 155.718 210.65 156.198 212.328 156.19C213.527 156.199 214.715 155.961 215.818 155.492C216.921 155.024 217.917 154.333 218.742 153.464C219.568 152.595 220.206 151.566 220.618 150.44C221.03 149.314 221.206 148.115 221.136 146.919C221.733 146.473 222.25 145.929 222.665 145.311C222.101 145.563 221.502 145.729 220.889 145.804C221.532 145.414 222.012 144.804 222.24 144.088C221.631 144.454 220.964 144.714 220.268 144.857C219.801 144.364 219.185 144.039 218.514 143.93C217.844 143.822 217.156 143.937 216.558 144.258C215.959 144.578 215.483 145.087 215.201 145.705C214.92 146.323 214.85 147.016 215.001 147.678C213.772 147.615 212.569 147.295 211.471 146.737C210.374 146.18 209.406 145.398 208.629 144.443C208.236 145.128 208.119 145.937 208.302 146.705C208.485 147.473 208.955 148.142 209.616 148.576C209.125 148.559 208.645 148.427 208.215 148.191C208.21 148.908 208.454 149.606 208.905 150.163C209.357 150.721 209.988 151.105 210.691 151.248C210.234 151.362 209.757 151.362 209.3 151.248C209.496 151.864 209.88 152.403 210.399 152.789C210.917 153.174 211.544 153.388 212.19 153.399C211.554 153.924 210.821 154.32 210.032 154.562C209.244 154.804 208.415 154.888 207.594 154.809Z" fill="white"/>
<path d="M214.653 198.871C211.713 198.869 208.838 199.739 206.392 201.371C203.947 203.003 202.04 205.324 200.914 208.04C199.787 210.756 199.491 213.745 200.064 216.629C200.636 219.512 202.051 222.162 204.129 224.242C206.208 226.321 208.856 227.738 211.74 228.312C214.623 228.886 217.612 228.593 220.329 227.468C223.045 226.343 225.367 224.438 227.001 221.994C228.635 219.549 229.507 216.675 229.507 213.735C229.507 209.794 227.942 206.015 225.157 203.228C222.371 200.441 218.593 198.874 214.653 198.871Z" fill="#263238"/>
<path d="M210.313 209.836H207.049V220.389H210.313V209.836Z" fill="white"/>
<path d="M208.668 208.457C209.058 208.457 209.439 208.341 209.764 208.125C210.088 207.908 210.341 207.6 210.49 207.239C210.64 206.879 210.679 206.482 210.603 206.099C210.527 205.717 210.339 205.365 210.063 205.089C209.787 204.814 209.435 204.626 209.053 204.55C208.67 204.474 208.273 204.513 207.913 204.662C207.553 204.811 207.245 205.064 207.028 205.388C206.811 205.713 206.695 206.094 206.695 206.484C206.695 207.008 206.903 207.509 207.273 207.879C207.643 208.249 208.145 208.457 208.668 208.457Z" fill="white"/>
<path d="M215.541 214.858C215.541 213.368 216.222 212.49 217.514 212.49C218.806 212.49 219.289 213.339 219.289 214.858V220.391H222.544V213.733C222.544 210.912 220.936 209.531 218.687 209.531C218.052 209.525 217.425 209.683 216.868 209.99C216.311 210.298 215.844 210.745 215.512 211.287V209.877H212.365V220.43H215.512L215.541 214.858Z" fill="white"/>
<path d="M155.957 228.526C152.018 228.526 148.24 226.961 145.454 224.176C142.668 221.39 141.104 217.612 141.104 213.672C141.104 209.732 142.668 205.953 145.453 203.166C148.239 200.378 152.017 198.811 155.957 198.809C159.899 198.809 163.68 200.375 166.468 203.162C169.255 205.95 170.821 209.73 170.821 213.672C170.818 217.613 169.251 221.391 166.464 224.176C163.677 226.961 159.898 228.526 155.957 228.526Z" fill="#263238"/>
<path d="M153.77 219.305C154.197 219.215 154.6 219.037 154.953 218.782C155.33 218.487 155.635 218.109 155.843 217.679C156.052 217.248 156.159 216.775 156.157 216.296C156.172 215.758 156.031 215.228 155.752 214.767C155.467 214.334 155.043 214.01 154.549 213.85C154.851 213.705 155.122 213.505 155.348 213.258C155.684 212.818 155.852 212.273 155.821 211.72C155.84 211.153 155.674 210.596 155.348 210.132C155.017 209.747 154.6 209.446 154.13 209.254C153.66 209.062 153.151 208.984 152.646 209.027H147.605V219.423H152.281C152.78 219.433 153.279 219.393 153.77 219.305ZM149.687 210.832H151.945C152.363 210.818 152.78 210.874 153.178 211C153.37 211.076 153.53 211.215 153.633 211.394C153.735 211.573 153.773 211.782 153.74 211.986C153.759 212.163 153.729 212.342 153.655 212.503C153.58 212.665 153.463 212.803 153.316 212.903C152.978 213.086 152.596 213.175 152.212 213.16H149.687V210.832ZM149.687 217.638V214.856H152.241C152.597 214.849 152.951 214.906 153.287 215.024C153.5 215.12 153.679 215.28 153.799 215.481C153.919 215.682 153.974 215.915 153.957 216.148C153.983 216.409 153.931 216.672 153.809 216.903C153.686 217.135 153.497 217.325 153.267 217.45C152.932 217.585 152.573 217.649 152.212 217.638H149.687Z" fill="white"/>
<path d="M157.883 218.762C158.642 219.402 159.603 219.752 160.596 219.748C161.141 219.791 161.69 219.712 162.201 219.518C162.713 219.323 163.175 219.018 163.555 218.624C163.948 218.259 164.209 217.773 164.294 217.243H162.233C162.133 217.442 161.996 217.619 161.829 217.766C161.508 218.014 161.109 218.14 160.704 218.121C160.313 218.131 159.927 218.032 159.59 217.835C159.328 217.655 159.116 217.411 158.976 217.126C158.836 216.841 158.772 216.525 158.791 216.207H164.403C164.423 215.697 164.403 215.186 164.344 214.679C164.241 214.072 163.998 213.498 163.633 213.002C163.305 212.506 162.843 212.113 162.302 211.868C161.73 211.618 161.111 211.494 160.487 211.503C159.98 211.483 159.474 211.568 159.001 211.751C158.528 211.934 158.097 212.212 157.735 212.568C157.016 213.413 156.661 214.509 156.749 215.616C156.683 216.192 156.751 216.776 156.948 217.322C157.145 217.867 157.465 218.36 157.883 218.762ZM159.323 213.633C159.484 213.483 159.673 213.366 159.88 213.289C160.087 213.213 160.307 213.179 160.527 213.189C160.966 213.178 161.395 213.329 161.73 213.613C161.897 213.769 162.03 213.956 162.122 214.165C162.214 214.374 162.261 214.599 162.262 214.827H158.791C158.839 214.383 159.025 213.965 159.323 213.633Z" fill="white"/>
<path d="M162.656 209.621H158.129V210.676H162.656V209.621Z" fill="white"/>
<path d="M172.014 69.75H140.097C137.64 69.75 135.648 71.7416 135.648 74.1983V106.115C135.648 108.572 137.64 110.564 140.097 110.564H172.014C174.47 110.564 176.462 108.572 176.462 106.115V74.1983C176.462 71.7416 174.47 69.75 172.014 69.75Z" stroke="url(#paint24_linear_798_18090)" stroke-width="1.06897" stroke-miterlimit="10"/>
<path d="M230.826 69.75H198.909C196.453 69.75 194.461 71.7416 194.461 74.1983V106.115C194.461 108.572 196.453 110.564 198.909 110.564H230.826C233.283 110.564 235.274 108.572 235.274 106.115V74.1983C235.274 71.7416 233.283 69.75 230.826 69.75Z" stroke="url(#paint25_linear_798_18090)" stroke-width="1.06897" stroke-miterlimit="10"/>
<path d="M172.014 129.531H140.097C137.64 129.531 135.648 131.523 135.648 133.98V165.897C135.648 168.353 137.64 170.345 140.097 170.345H172.014C174.47 170.345 176.462 168.353 176.462 165.897V133.98C176.462 131.523 174.47 129.531 172.014 129.531Z" stroke="url(#paint26_linear_798_18090)" stroke-width="1.06897" stroke-miterlimit="10"/>
<path d="M230.826 129.531H198.909C196.453 129.531 194.461 131.523 194.461 133.98V165.897C194.461 168.353 196.453 170.345 198.909 170.345H230.826C233.283 170.345 235.274 168.353 235.274 165.897V133.98C235.274 131.523 233.283 129.531 230.826 129.531Z" stroke="url(#paint27_linear_798_18090)" stroke-width="1.06897" stroke-miterlimit="10"/>
<path d="M172.014 192.273H140.097C137.64 192.273 135.648 194.265 135.648 196.722V228.639C135.648 231.095 137.64 233.087 140.097 233.087H172.014C174.47 233.087 176.462 231.095 176.462 228.639V196.722C176.462 194.265 174.47 192.273 172.014 192.273Z" stroke="url(#paint28_linear_798_18090)" stroke-width="1.06897" stroke-miterlimit="10"/>
<path d="M230.826 192.273H198.909C196.453 192.273 194.461 194.265 194.461 196.722V228.639C194.461 231.095 196.453 233.087 198.909 233.087H230.826C233.283 233.087 235.274 231.095 235.274 228.639V196.722C235.274 194.265 233.283 192.273 230.826 192.273Z" stroke="url(#paint29_linear_798_18090)" stroke-width="1.06897" stroke-miterlimit="10"/>
<path d="M229.735 176.008H200.975V184.737H229.735V176.008Z" fill="url(#paint30_linear_798_18090)"/>
<path d="M229.735 116.129H200.975V124.858H229.735V116.129Z" fill="url(#paint31_linear_798_18090)"/>
<path d="M170.349 116.129H141.588V124.858H170.349V116.129Z" fill="url(#paint32_linear_798_18090)"/>
<path d="M170.349 176.008H141.588V184.737H170.349V176.008Z" fill="url(#paint33_linear_798_18090)"/>
<path d="M229.735 176.008H200.975V184.737H229.735V176.008Z" fill="#263238"/>
<path d="M229.735 116.129H200.975V124.858H229.735V116.129Z" fill="#263238"/>
<path d="M170.349 116.129H141.588V124.858H170.349V116.129Z" fill="#263238"/>
<path d="M170.349 176.008H141.588V184.737H170.349V176.008Z" fill="#263238"/>
<path d="M35.4121 73.1641H99.6012" stroke="#263238" stroke-width="1.06897" stroke-linecap="round" stroke-linejoin="round"/>
<path d="M338.943 330.058C344.786 328.121 349.805 324.269 353.185 319.125C356.336 314.007 356.992 308.113 356.674 302.419C356.356 296.724 355.123 291.059 354.686 285.364C354.547 283.376 354.606 281.14 356.336 279.699C358.721 277.712 363.154 278.397 365.519 280.385C367.884 282.373 368.67 285.215 369.246 287.918C371.154 296.923 371.671 306.205 369.316 315.15C366.821 324.682 361.051 333.031 353.016 338.734C343.765 345.175 332.46 347.972 321.273 346.586L319.186 331.111C325.741 332.606 332.584 332.241 338.943 330.058Z" fill="url(#paint34_linear_798_18090)"/>
<g opacity="0.3">
<path d="M338.943 330.058C344.786 328.121 349.805 324.269 353.185 319.125C356.336 314.007 356.992 308.113 356.674 302.419C356.356 296.724 355.123 291.059 354.686 285.364C354.547 283.376 354.606 281.14 356.336 279.699C358.721 277.712 363.154 278.397 365.519 280.385C367.884 282.373 368.67 285.215 369.246 287.918C371.154 296.923 371.671 306.205 369.316 315.15C366.821 324.682 361.051 333.031 353.016 338.734C343.765 345.175 332.46 347.972 321.273 346.586L319.186 331.111C325.741 332.606 332.584 332.241 338.943 330.058Z" fill="white"/>
</g>
<path opacity="0.3" d="M330.767 331.844C330.767 331.844 325.56 339.417 325.977 339.695C326.394 339.973 330.847 347.368 330.847 347.368L333.828 346.741V331.406L330.767 331.844Z" fill="black"/>
<path d="M326.614 339.37C326.415 339.937 332.01 343.097 330.847 347.371C329.685 351.645 330.261 351.456 328.8 351.833C327.339 352.211 300.406 355.64 298.776 354.338C297.146 353.036 265.164 349.14 264.935 349.697C264.707 350.253 253.009 353.036 249.033 353.036C245.058 353.036 239.701 353.97 238.528 350.054C237.356 346.139 238.767 343.982 242.732 341.11C246.698 338.237 248.099 337.263 248.099 337.263C248.099 337.263 240.049 336.707 240.685 330.386C241.165 325.863 242.248 321.424 243.905 317.188C244.591 315.468 255.335 290.791 255.335 290.791L244.134 259.186C244.134 259.186 245.535 250.818 244.362 245.61C243.19 240.403 242.504 237.809 242.504 237.809H298.299C298.299 237.809 308.337 260.22 313.525 272.822C318.713 285.424 333.859 291.377 333.859 319.354C333.869 329.064 326.614 339.37 326.614 339.37Z" fill="url(#paint35_linear_798_18090)"/>
<path opacity="0.3" d="M326.614 339.37C326.415 339.937 332.01 343.097 330.847 347.371C329.685 351.645 330.261 351.456 328.8 351.833C327.339 352.211 300.406 355.64 298.776 354.338C297.146 353.036 265.164 349.14 264.935 349.697C264.707 350.253 253.009 353.036 249.033 353.036C245.058 353.036 239.701 353.97 238.528 350.054C237.356 346.139 238.767 343.982 242.732 341.11C246.698 338.237 248.099 337.263 248.099 337.263C248.099 337.263 240.049 336.707 240.685 330.386C241.165 325.863 242.248 321.424 243.905 317.188C244.591 315.468 255.335 290.791 255.335 290.791L244.134 259.186C244.134 259.186 245.535 250.818 244.362 245.61C243.19 240.403 242.504 237.809 242.504 237.809H298.299C298.299 237.809 308.337 260.22 313.525 272.822C318.713 285.424 333.859 291.377 333.859 319.354C333.869 329.064 326.614 339.37 326.614 339.37Z" fill="white"/>
<path opacity="0.3" d="M271.36 350.133C271.211 350.133 272.682 298.373 272.732 297.797C273.278 292.201 279.987 295.103 278.953 300.858L277.959 350.501L271.36 350.133Z" fill="black"/>
<path d="M243.523 260.039C243.523 260.039 241.297 264.651 240.81 276.01C240.323 287.37 241.804 310.09 245.72 318.309C249.636 326.528 257.527 339.07 257.03 346.137C257.03 346.137 253.571 352.388 256.036 355.618C258.501 358.848 266.521 356.393 266.521 356.393C268.266 354.43 269.866 352.344 271.312 350.152C272.852 347.588 273.23 319.213 273.23 319.213L271.242 286.933L243.523 260.039Z" fill="url(#paint36_linear_798_18090)"/>
<path opacity="0.3" d="M243.523 260.039C243.523 260.039 241.297 264.651 240.81 276.01C240.323 287.37 241.804 310.09 245.72 318.309C249.636 326.528 257.527 339.07 257.03 346.137C257.03 346.137 253.571 352.388 256.036 355.618C258.501 358.848 266.521 356.393 266.521 356.393C268.266 354.43 269.866 352.344 271.312 350.152C272.852 347.588 273.23 319.213 273.23 319.213L271.242 286.933L243.523 260.039Z" fill="white"/>
<g opacity="0.3">
<path d="M295.312 347.916C303.263 327.88 311.731 307.605 314.195 286.188C317.823 297.547 314.901 309.98 310.409 321.022C305.917 332.064 297.429 342.529 294.428 354.078L295.312 347.916Z" fill="black"/>
</g>
<path d="M278.989 300.242C278.989 300.242 277.518 340.443 275.252 347.39C272.986 354.337 270.969 354.566 275.252 358.69C279.536 362.815 295.626 360.837 295.626 357.269C295.626 353.701 294.811 347.172 295.626 346.526C296.441 345.88 305.992 321.103 307.9 312.188C309.808 303.273 312.541 301.107 309.54 293.722C306.539 286.338 303.805 277.821 302.991 277.642C302.176 277.463 278.989 300.242 278.989 300.242Z" fill="url(#paint37_linear_798_18090)"/>
<path opacity="0.3" d="M278.989 300.242C278.989 300.242 277.518 340.443 275.252 347.39C272.986 354.337 270.969 354.566 275.252 358.69C279.536 362.815 295.626 360.837 295.626 357.269C295.626 353.701 294.811 347.172 295.626 346.526C296.441 345.88 305.992 321.103 307.9 312.188C309.808 303.273 312.541 301.107 309.54 293.722C306.539 286.338 303.805 277.821 302.991 277.642C302.176 277.463 278.989 300.242 278.989 300.242Z" fill="white"/>
<path opacity="0.3" d="M252.351 352.727C253.221 350.171 253.592 347.472 253.444 344.776C252.956 338.972 251.213 333.343 248.336 328.278C245.217 322.687 243.482 316.43 243.277 310.031L245.195 316.501C245.568 317.741 246.044 318.948 246.617 320.109C250.652 328.268 256.824 339.569 256.366 346.118L255.184 352.21L252.351 352.727Z" fill="black"/>
<path opacity="0.3" d="M256.772 207.624C260.386 205.439 264.572 204.39 268.79 204.611C273.007 204.833 277.06 206.315 280.425 208.867C287.512 213.955 298.464 221.2 302.41 229.33C305.341 235.393 305.719 245.609 303.99 248.75C300.462 255.16 296.536 265.516 281.896 272.046C267.257 278.575 253.303 269.541 246.803 263.598C240.304 257.655 242.013 252.825 242.639 249.068C243.265 245.311 236.736 224.967 243.166 217.265C249.596 209.562 256.772 207.624 256.772 207.624Z" fill="black"/>
<path d="M276.689 190.759C276.689 190.759 292.541 169.133 297.232 170.027C301.923 170.921 312.299 198.113 305.183 212.216L298.892 216.758L281.599 202.526L276.689 190.759Z" fill="url(#paint38_linear_798_18090)"/>
<path opacity="0.3" d="M276.689 190.759C276.689 190.759 292.541 169.133 297.232 170.027C301.923 170.921 312.299 198.113 305.183 212.216L298.892 216.758L281.599 202.526L276.689 190.759Z" fill="white"/>
<path d="M252.222 196.174C251.825 195.747 226.114 172.401 220.727 182.827C215.34 193.252 224.911 223.644 230.298 230.124C235.684 236.604 252.222 196.174 252.222 196.174Z" fill="url(#paint39_linear_798_18090)"/>
<path opacity="0.3" d="M252.222 196.174C251.825 195.747 226.114 172.401 220.727 182.827C215.34 193.252 224.911 223.644 230.298 230.124C235.684 236.604 252.222 196.174 252.222 196.174Z" fill="white"/>
<path d="M262.518 191.495C262.518 191.495 280.587 186.347 292.96 199.108C300.056 206.423 308.583 216.471 310.253 226.191C311.495 233.446 310.323 245.074 306.705 247.946C299.35 253.84 289.809 263.848 267.815 266.919C245.822 269.99 231.46 256.632 225.507 248.562C219.554 240.492 223.837 235.821 226.332 231.965C228.827 228.109 228.926 204.674 240.644 198.174C252.361 191.674 262.518 191.495 262.518 191.495Z" fill="url(#paint40_linear_798_18090)"/>
<path opacity="0.3" d="M262.518 191.495C262.518 191.495 280.587 186.347 292.96 199.108C300.056 206.423 308.583 216.471 310.253 226.191C311.495 233.446 310.323 245.074 306.705 247.946C299.35 253.84 289.809 263.848 267.815 266.919C245.822 269.99 231.46 256.632 225.507 248.562C219.554 240.492 223.837 235.821 226.332 231.965C228.827 228.109 228.926 204.674 240.644 198.174C252.361 191.674 262.518 191.495 262.518 191.495Z" fill="white"/>
<path d="M282.217 238.008C290.132 236.094 298.2 234.88 306.328 234.38C314.438 233.943 322.667 233.794 330.687 235.255L327.646 235.036C312.46 234.4 297.234 235.781 282.217 238.017V238.008Z" fill="url(#paint41_linear_798_18090)"/>
<path d="M282.502 241.795C289.64 241.757 296.772 242.201 303.85 243.127C310.896 244.121 318.062 245.244 324.661 247.987C310.956 244.25 296.585 243.336 282.502 241.795Z" fill="url(#paint42_linear_798_18090)"/>
<path d="M230.645 242.014C222.614 242.154 214.672 243.722 207.19 246.646L205.59 247.282C205.063 247.52 204.537 247.749 204 247.958C204.994 247.322 205.988 246.765 206.982 246.208C214.263 242.458 222.508 240.996 230.635 242.014H230.645Z" fill="url(#paint43_linear_798_18090)"/>
<path d="M231.173 246.535C223.361 248.236 215.742 250.727 208.434 253.969C215.198 249.472 223.059 246.902 231.173 246.535Z" fill="url(#paint44_linear_798_18090)"/>
<path d="M244.284 215.178C244.161 215.272 244.018 215.336 243.866 215.366C243.715 215.395 243.558 215.389 243.409 215.347C242.031 214.975 240.583 214.953 239.194 215.283C237.806 215.613 236.522 216.284 235.458 217.235C235.358 217.344 235.236 217.432 235.1 217.491C234.964 217.551 234.817 217.582 234.668 217.582C234.52 217.582 234.373 217.551 234.237 217.491C234.101 217.432 233.979 217.344 233.878 217.235C233.672 216.995 233.564 216.687 233.573 216.371C233.582 216.055 233.709 215.753 233.928 215.526C235.249 214.304 236.856 213.435 238.602 212.999C240.348 212.563 242.176 212.574 243.916 213.031C244.133 213.101 244.327 213.23 244.476 213.404C244.624 213.578 244.721 213.789 244.756 214.015C244.791 214.241 244.763 214.472 244.674 214.683C244.585 214.893 244.44 215.075 244.254 215.208L244.284 215.178Z" fill="url(#paint45_linear_798_18090)"/>
<path d="M244.986 228.327C245.334 232.422 243.515 236.059 240.921 236.467C238.327 236.874 235.952 233.893 235.584 229.798C235.216 225.703 237.045 222.066 239.649 221.658C242.253 221.251 244.628 224.242 244.986 228.327Z" fill="#262626"/>
<path d="M239.658 231.118C239.658 232.509 239.24 233.632 238.664 233.642C238.087 233.652 237.67 232.519 237.67 231.138C237.67 229.756 238.097 228.623 238.664 228.613C239.23 228.603 239.658 229.736 239.658 231.118Z" fill="white"/>
<path d="M275.714 213.069C275.574 213.132 275.421 213.165 275.267 213.165C275.113 213.165 274.96 213.132 274.82 213.069C273.558 212.416 272.153 212.087 270.732 212.111C269.312 212.135 267.919 212.512 266.68 213.208C266.557 213.291 266.417 213.348 266.271 213.375C266.124 213.402 265.974 213.398 265.829 213.363C265.684 213.329 265.548 213.264 265.429 213.174C265.311 213.084 265.212 212.97 265.14 212.84C264.993 212.561 264.954 212.237 265.031 211.93C265.108 211.624 265.295 211.357 265.557 211.18C267.109 210.271 268.864 209.768 270.662 209.715C272.46 209.663 274.242 210.065 275.843 210.882C276.116 211.032 276.319 211.281 276.412 211.577C276.505 211.874 276.479 212.194 276.34 212.472C276.209 212.739 275.987 212.951 275.714 213.069Z" fill="url(#paint46_linear_798_18090)"/>
<path d="M276.521 225.116C276.869 229.211 275.05 232.859 272.456 233.266C269.862 233.674 267.487 230.682 267.119 226.597C266.752 222.513 268.58 218.855 271.184 218.458C273.788 218.06 276.163 221.022 276.521 225.116Z" fill="#262626"/>
<path d="M270.728 227.922C270.728 229.304 270.311 230.437 269.734 230.437C269.158 230.437 268.74 229.324 268.74 227.932C268.74 226.541 269.158 225.418 269.734 225.418C270.311 225.418 270.718 226.531 270.728 227.922Z" fill="white"/>
<path d="M251.692 234.619C252.321 234.283 252.989 234.026 253.68 233.854C256.592 232.999 260.945 232.641 261.154 233.993C260.752 235.328 259.996 236.53 258.967 237.471C258.564 237.831 258.092 238.104 257.579 238.275C257.066 238.446 256.524 238.511 255.986 238.465C255.227 238.418 254.489 238.197 253.829 237.819C253.173 237.431 252.835 237.054 252.169 236.666C251.837 236.478 251.538 236.236 251.285 235.951C251.187 235.716 251.175 235.455 251.249 235.211C251.323 234.968 251.48 234.759 251.692 234.619Z" fill="url(#paint47_linear_798_18090)"/>
<path opacity="0.3" d="M265.241 241.893C265.241 241.893 261.156 246.077 259.278 244.388L257.4 242.708C257.4 242.708 255.601 246.316 252.718 245.401C251.866 245.116 251.09 244.638 250.451 244.006C249.812 243.374 249.326 242.603 249.031 241.754C249.031 241.754 251.486 244.567 253.792 243.434C256.098 242.301 256.475 236.477 256.475 236.477C256.475 236.477 258.055 242.231 261.166 242.499C264.277 242.768 265.241 241.893 265.241 241.893Z" fill="black"/>
<path d="M266.217 239.142C264.04 245.602 258.674 244.349 256.497 238.665L257.431 238.545C257.263 239.739 256.928 240.903 256.437 242.004C255.275 244.459 252.134 245.532 250.176 243.276C249.462 242.361 248.667 241.513 247.801 240.742C248.789 241.356 249.7 242.086 250.514 242.918C252.273 244.687 254.718 243.614 255.593 241.577C256.171 240.047 256.575 238.456 256.795 236.836C257.378 238.322 258.118 239.741 259.001 241.07C261.754 244.439 264.627 242.292 266.257 239.142H266.217Z" fill="url(#paint48_linear_798_18090)"/>
<path opacity="0.3" d="M297.303 207.814C297.303 207.814 292.532 204.156 292.144 201.592C291.893 200.114 292.09 198.594 292.711 197.229L288.636 200.29L284.064 194.437C284.064 194.437 294.003 176.14 296.557 179.161C299.111 182.182 301.914 193.264 301.119 201.026C300.324 208.788 297.303 207.814 297.303 207.814Z" fill="black"/>
<g opacity="0.3">
<path d="M224.644 190.371C224.558 189.862 224.574 189.342 224.692 188.84C224.81 188.339 225.027 187.865 225.33 187.449C226.215 186.534 227.705 186.673 228.948 186.992C233.51 188.184 238.608 192.328 241.411 196.135C236.103 201.701 233.46 206.372 230.18 213.03C226.882 205.908 225.002 198.212 224.644 190.371Z" fill="black"/>
</g>
<defs>
<linearGradient id="paint0_linear_798_18090" x1="415.308" y1="300.006" x2="-31.6958" y2="128.183" gradientUnits="userSpaceOnUse">
<stop stop-color="#6949FF"/>
<stop offset="1" stop-color="#876DFF"/>
</linearGradient>
<linearGradient id="paint1_linear_798_18090" x1="399.262" y1="372.847" x2="299.063" y2="168.993" gradientUnits="userSpaceOnUse">
<stop stop-color="#6949FF"/>
<stop offset="1" stop-color="#876DFF"/>
</linearGradient>
<linearGradient id="paint2_linear_798_18090" x1="113.606" y1="217.578" x2="-2.87752" y2="196.403" gradientUnits="userSpaceOnUse">
<stop stop-color="#6949FF"/>
<stop offset="1" stop-color="#876DFF"/>
</linearGradient>
<linearGradient id="paint3_linear_798_18090" x1="353.548" y1="85.6999" x2="352.224" y2="74.1352" gradientUnits="userSpaceOnUse">
<stop stop-color="#6949FF"/>
<stop offset="1" stop-color="#876DFF"/>
</linearGradient>
<linearGradient id="paint4_linear_798_18090" x1="312.517" y1="93.9186" x2="309.889" y2="82.8254" gradientUnits="userSpaceOnUse">
<stop stop-color="#6949FF"/>
<stop offset="1" stop-color="#876DFF"/>
</linearGradient>
<linearGradient id="paint5_linear_798_18090" x1="335.538" y1="102.133" x2="333.841" y2="90.6686" gradientUnits="userSpaceOnUse">
<stop stop-color="#6949FF"/>
<stop offset="1" stop-color="#876DFF"/>
</linearGradient>
<linearGradient id="paint6_linear_798_18090" x1="328.989" y1="110.341" x2="326.77" y2="98.0148" gradientUnits="userSpaceOnUse">
<stop stop-color="#6949FF"/>
<stop offset="1" stop-color="#876DFF"/>
</linearGradient>
<linearGradient id="paint7_linear_798_18090" x1="327.273" y1="118.567" x2="325.325" y2="107.184" gradientUnits="userSpaceOnUse">
<stop stop-color="#6949FF"/>
<stop offset="1" stop-color="#876DFF"/>
</linearGradient>
<linearGradient id="paint8_linear_798_18090" x1="308.681" y1="126.782" x2="305.796" y2="115.825" gradientUnits="userSpaceOnUse">
<stop stop-color="#6949FF"/>
<stop offset="1" stop-color="#876DFF"/>
</linearGradient>
<linearGradient id="paint9_linear_798_18090" x1="101.906" y1="208.832" x2="76.3178" y2="192.827" gradientUnits="userSpaceOnUse">
<stop stop-color="#6949FF"/>
<stop offset="1" stop-color="#876DFF"/>
</linearGradient>
<linearGradient id="paint10_linear_798_18090" x1="279.119" y1="196.213" x2="274.237" y2="193.088" gradientUnits="userSpaceOnUse">
<stop stop-color="#6949FF"/>
<stop offset="1" stop-color="#876DFF"/>
</linearGradient>
<linearGradient id="paint11_linear_798_18090" x1="279.119" y1="187.377" x2="274.237" y2="184.252" gradientUnits="userSpaceOnUse">
<stop stop-color="#6949FF"/>
<stop offset="1" stop-color="#876DFF"/>
</linearGradient>
<linearGradient id="paint12_linear_798_18090" x1="279.119" y1="178.53" x2="274.237" y2="175.404" gradientUnits="userSpaceOnUse">
<stop stop-color="#6949FF"/>
<stop offset="1" stop-color="#876DFF"/>
</linearGradient>
<linearGradient id="paint13_linear_798_18090" x1="279.119" y1="169.682" x2="274.237" y2="166.556" gradientUnits="userSpaceOnUse">
<stop stop-color="#6949FF"/>
<stop offset="1" stop-color="#876DFF"/>
</linearGradient>
<linearGradient id="paint14_linear_798_18090" x1="279.119" y1="160.846" x2="274.237" y2="157.721" gradientUnits="userSpaceOnUse">
<stop stop-color="#6949FF"/>
<stop offset="1" stop-color="#876DFF"/>
</linearGradient>
<linearGradient id="paint15_linear_798_18090" x1="319.191" y1="198.168" x2="310.99" y2="202.58" gradientUnits="userSpaceOnUse">
<stop stop-color="#6949FF"/>
<stop offset="1" stop-color="#876DFF"/>
</linearGradient>
<linearGradient id="paint16_linear_798_18090" x1="327.654" y1="198.168" x2="319.453" y2="202.58" gradientUnits="userSpaceOnUse">
<stop stop-color="#6949FF"/>
<stop offset="1" stop-color="#876DFF"/>
</linearGradient>
<linearGradient id="paint17_linear_798_18090" x1="336.119" y1="198.179" x2="327.918" y2="202.592" gradientUnits="userSpaceOnUse">
<stop stop-color="#6949FF"/>
<stop offset="1" stop-color="#876DFF"/>
</linearGradient>
<linearGradient id="paint18_linear_798_18090" x1="344.582" y1="198.179" x2="336.381" y2="202.592" gradientUnits="userSpaceOnUse">
<stop stop-color="#6949FF"/>
<stop offset="1" stop-color="#876DFF"/>
</linearGradient>
<linearGradient id="paint19_linear_798_18090" x1="353.041" y1="198.179" x2="344.84" y2="202.592" gradientUnits="userSpaceOnUse">
<stop stop-color="#6949FF"/>
<stop offset="1" stop-color="#876DFF"/>
</linearGradient>
<linearGradient id="paint20_linear_798_18090" x1="310.514" y1="198.179" x2="302.312" y2="202.592" gradientUnits="userSpaceOnUse">
<stop stop-color="#6949FF"/>
<stop offset="1" stop-color="#876DFF"/>
</linearGradient>
<linearGradient id="paint21_linear_798_18090" x1="301.836" y1="198.179" x2="293.635" y2="202.592" gradientUnits="userSpaceOnUse">
<stop stop-color="#6949FF"/>
<stop offset="1" stop-color="#876DFF"/>
</linearGradient>
<linearGradient id="paint22_linear_798_18090" x1="293.145" y1="198.168" x2="284.943" y2="202.58" gradientUnits="userSpaceOnUse">
<stop stop-color="#6949FF"/>
<stop offset="1" stop-color="#876DFF"/>
</linearGradient>
<linearGradient id="paint23_linear_798_18090" x1="284.463" y1="198.179" x2="276.262" y2="202.592" gradientUnits="userSpaceOnUse">
<stop stop-color="#6949FF"/>
<stop offset="1" stop-color="#876DFF"/>
</linearGradient>
<linearGradient id="paint24_linear_798_18090" x1="176.462" y1="110.564" x2="127.898" y2="96.4827" gradientUnits="userSpaceOnUse">
<stop stop-color="#6949FF"/>
<stop offset="1" stop-color="#876DFF"/>
</linearGradient>
<linearGradient id="paint25_linear_798_18090" x1="235.274" y1="110.564" x2="186.71" y2="96.4827" gradientUnits="userSpaceOnUse">
<stop stop-color="#6949FF"/>
<stop offset="1" stop-color="#876DFF"/>
</linearGradient>
<linearGradient id="paint26_linear_798_18090" x1="176.462" y1="170.345" x2="127.898" y2="156.264" gradientUnits="userSpaceOnUse">
<stop stop-color="#6949FF"/>
<stop offset="1" stop-color="#876DFF"/>
</linearGradient>
<linearGradient id="paint27_linear_798_18090" x1="235.274" y1="170.345" x2="186.71" y2="156.264" gradientUnits="userSpaceOnUse">
<stop stop-color="#6949FF"/>
<stop offset="1" stop-color="#876DFF"/>
</linearGradient>
<linearGradient id="paint28_linear_798_18090" x1="176.462" y1="233.087" x2="127.898" y2="219.006" gradientUnits="userSpaceOnUse">
<stop stop-color="#6949FF"/>
<stop offset="1" stop-color="#876DFF"/>
</linearGradient>
<linearGradient id="paint29_linear_798_18090" x1="235.274" y1="233.087" x2="186.71" y2="219.006" gradientUnits="userSpaceOnUse">
<stop stop-color="#6949FF"/>
<stop offset="1" stop-color="#876DFF"/>
</linearGradient>
<linearGradient id="paint30_linear_798_18090" x1="229.735" y1="184.737" x2="210.338" y2="166.206" gradientUnits="userSpaceOnUse">
<stop stop-color="#6949FF"/>
<stop offset="1" stop-color="#876DFF"/>
</linearGradient>
<linearGradient id="paint31_linear_798_18090" x1="229.735" y1="124.858" x2="210.338" y2="106.327" gradientUnits="userSpaceOnUse">
<stop stop-color="#6949FF"/>
<stop offset="1" stop-color="#876DFF"/>
</linearGradient>
<linearGradient id="paint32_linear_798_18090" x1="170.349" y1="124.858" x2="150.952" y2="106.327" gradientUnits="userSpaceOnUse">
<stop stop-color="#6949FF"/>
<stop offset="1" stop-color="#876DFF"/>
</linearGradient>
<linearGradient id="paint33_linear_798_18090" x1="170.349" y1="184.737" x2="150.952" y2="166.206" gradientUnits="userSpaceOnUse">
<stop stop-color="#6949FF"/>
<stop offset="1" stop-color="#876DFF"/>
</linearGradient>
<linearGradient id="paint34_linear_798_18090" x1="370.887" y1="346.933" x2="307.249" y2="332.991" gradientUnits="userSpaceOnUse">
<stop stop-color="#6949FF"/>
<stop offset="1" stop-color="#876DFF"/>
</linearGradient>
<linearGradient id="paint35_linear_798_18090" x1="333.859" y1="354.631" x2="216.971" y2="326.86" gradientUnits="userSpaceOnUse">
<stop stop-color="#6949FF"/>
<stop offset="1" stop-color="#876DFF"/>
</linearGradient>
<linearGradient id="paint36_linear_798_18090" x1="273.23" y1="357.286" x2="231.685" y2="353.26" gradientUnits="userSpaceOnUse">
<stop stop-color="#6949FF"/>
<stop offset="1" stop-color="#876DFF"/>
</linearGradient>
<linearGradient id="paint37_linear_798_18090" x1="310.875" y1="361" x2="262.534" y2="354.588" gradientUnits="userSpaceOnUse">
<stop stop-color="#6949FF"/>
<stop offset="1" stop-color="#876DFF"/>
</linearGradient>
<linearGradient id="paint38_linear_798_18090" x1="307.605" y1="216.758" x2="269.139" y2="209.384" gradientUnits="userSpaceOnUse">
<stop stop-color="#6949FF"/>
<stop offset="1" stop-color="#876DFF"/>
</linearGradient>
<linearGradient id="paint39_linear_798_18090" x1="252.222" y1="230.827" x2="211.018" y2="223.028" gradientUnits="userSpaceOnUse">
<stop stop-color="#6949FF"/>
<stop offset="1" stop-color="#876DFF"/>
</linearGradient>
<linearGradient id="paint40_linear_798_18090" x1="310.732" y1="267.369" x2="208.253" y2="233.276" gradientUnits="userSpaceOnUse">
<stop stop-color="#6949FF"/>
<stop offset="1" stop-color="#876DFF"/>
</linearGradient>
<linearGradient id="paint41_linear_798_18090" x1="330.687" y1="238.017" x2="326.132" y2="221.768" gradientUnits="userSpaceOnUse">
<stop stop-color="#6949FF"/>
<stop offset="1" stop-color="#876DFF"/>
</linearGradient>
<linearGradient id="paint42_linear_798_18090" x1="324.661" y1="247.987" x2="313.55" y2="226.06" gradientUnits="userSpaceOnUse">
<stop stop-color="#6949FF"/>
<stop offset="1" stop-color="#876DFF"/>
</linearGradient>
<linearGradient id="paint43_linear_798_18090" x1="230.645" y1="247.958" x2="217.027" y2="231.146" gradientUnits="userSpaceOnUse">
<stop stop-color="#6949FF"/>
<stop offset="1" stop-color="#876DFF"/>
</linearGradient>
<linearGradient id="paint44_linear_798_18090" x1="231.173" y1="253.969" x2="214.755" y2="239.408" gradientUnits="userSpaceOnUse">
<stop stop-color="#6949FF"/>
<stop offset="1" stop-color="#876DFF"/>
</linearGradient>
<linearGradient id="paint45_linear_798_18090" x1="244.771" y1="217.582" x2="234.73" y2="210.932" gradientUnits="userSpaceOnUse">
<stop stop-color="#6949FF"/>
<stop offset="1" stop-color="#876DFF"/>
</linearGradient>
<linearGradient id="paint46_linear_798_18090" x1="276.467" y1="213.393" x2="268.319" y2="206.03" gradientUnits="userSpaceOnUse">
<stop stop-color="#6949FF"/>
<stop offset="1" stop-color="#876DFF"/>
</linearGradient>
<linearGradient id="paint47_linear_798_18090" x1="261.154" y1="238.479" x2="251.179" y2="233.135" gradientUnits="userSpaceOnUse">
<stop stop-color="#6949FF"/>
<stop offset="1" stop-color="#876DFF"/>
</linearGradient>
<linearGradient id="paint48_linear_798_18090" x1="266.257" y1="244.513" x2="250.235" y2="233.344" gradientUnits="userSpaceOnUse">
<stop stop-color="#6949FF"/>
<stop offset="1" stop-color="#876DFF"/>
</linearGradient>
</defs>
</svg>
