<svg width="503" height="382" viewBox="0 0 503 382" fill="none" xmlns="http://www.w3.org/2000/svg">
<path d="M73.3956 343.627C171.248 394.791 329.903 394.791 427.755 343.627C525.608 292.464 525.608 209.627 427.755 158.511C329.903 107.395 171.248 107.348 73.3956 158.511C-24.4574 209.674 -24.4574 292.499 73.3956 343.627Z" fill="#F5F5F5"/>
<path d="M127.447 108.478L151.03 94.8657L127.447 81.2539L103.65 94.8657L127.447 108.478Z" stroke="#EBEBEB" stroke-width="1.08419" stroke-linecap="round" stroke-linejoin="round"/>
<path d="M109.135 94.878L127.458 41.918V105.456L109.135 94.878Z" fill="#E0E0E0"/>
<path d="M127.457 105.456L145.769 94.878L127.457 41.918V105.456Z" fill="#E6E6E6"/>
<path d="M98.625 125.091L122.208 111.479L98.625 97.8672L74.8281 111.479L98.625 125.091Z" stroke="#EBEBEB" stroke-width="1.08419" stroke-linecap="round" stroke-linejoin="round"/>
<path d="M80.3125 111.489L98.6242 32.8398V122.066L80.3125 111.489Z" fill="#E0E0E0"/>
<path d="M98.625 122.066L116.937 111.489L98.625 32.8398V122.066Z" fill="#E6E6E6"/>
<path d="M69.8069 141.696L93.3896 128.084L69.8069 114.473L45.998 128.084L69.8069 141.696Z" stroke="#EBEBEB" stroke-width="1.08419" stroke-linecap="round" stroke-linejoin="round"/>
<path d="M51.4961 128.098L69.8078 81.2539V138.676L51.4961 128.098Z" fill="#E0E0E0"/>
<path d="M69.8086 138.676L88.1203 128.098L69.8086 81.2539V138.676Z" fill="#E6E6E6"/>
<path d="M40.9905 158.31L64.5732 144.698L40.9905 131.086L17.1816 144.698L40.9905 158.31Z" stroke="#EBEBEB" stroke-width="1.08419" stroke-linecap="round" stroke-linejoin="round"/>
<path d="M22.666 144.709L40.9896 65.1797V155.287L22.666 144.709Z" fill="#E0E0E0"/>
<path d="M40.9922 155.287L59.3039 144.709L40.9922 65.1797V155.287Z" fill="#E6E6E6"/>
<path d="M355.289 90.3789L481.056 162.983" stroke="#EBEBEB" stroke-width="1.08419" stroke-miterlimit="10" stroke-linecap="round"/>
<path d="M481.055 155.286C480.903 146.171 480.264 137.072 479.14 128.026C477.95 118.198 475.57 101.612 466.111 96.1383C456.652 90.665 453.082 100.565 451.714 105.431C449.929 111.749 440.66 107.751 439.375 97.3401C438.09 86.9289 437.245 53.756 426.132 47.3666C415.019 40.9771 411.438 56.3856 410.176 60.6928C407.689 69.1526 400.396 66.8205 398.016 61.2164C395.636 55.6122 389.14 54.2438 386.689 62.1325C384.238 70.0212 382.727 79.0759 374.79 74.4236C367.818 70.3425 371.018 62.9059 364.224 59.3721C358.846 56.5879 356.348 69.8665 356.348 83.2999L481.055 155.286Z" fill="#E0E0E0"/>
<path d="M471.917 86.0493C471.917 87.5009 470.608 87.9174 469.014 87.0012L459.495 81.4803C458.713 81.0368 458.043 80.4182 457.54 79.6731C457.036 78.9279 456.712 78.0763 456.592 77.1849C456.592 75.7452 457.901 75.3169 459.495 76.245L469.014 81.7658C469.796 82.2067 470.465 82.823 470.969 83.5663C471.473 84.3095 471.797 85.1595 471.917 86.0493Z" fill="#E6E6E6"/>
<path d="M432.843 39.3735C432.843 40.8251 431.546 41.2416 429.94 40.3254L420.421 34.8045C419.637 34.3631 418.966 33.7452 418.462 32.9996C417.958 32.2541 417.635 31.4014 417.518 30.5092C417.518 29.0694 418.815 28.6411 420.421 29.5692L429.94 35.0901C430.723 35.5295 431.393 36.1454 431.897 36.8889C432.401 37.6324 432.725 38.4831 432.843 39.3735Z" fill="#E6E6E6"/>
<path d="M401.895 47.9634C401.895 49.415 400.598 49.8314 399.004 48.9152L389.485 43.3943C388.701 42.953 388.03 42.335 387.526 41.5895C387.023 40.8439 386.699 39.9912 386.582 39.099C386.582 37.6593 387.879 37.2309 389.485 38.159L399.004 43.6799C399.785 44.1215 400.452 44.7382 400.954 45.4815C401.455 46.2247 401.778 47.0743 401.895 47.9634Z" fill="#E6E6E6"/>
<path d="M372.554 50.8071C372.554 52.2587 371.257 52.6752 369.65 51.7471L360.132 46.2381C359.351 45.7939 358.683 45.175 358.182 44.4298C357.68 43.6846 357.358 42.8333 357.24 41.9427C357.24 40.503 358.537 40.0747 360.132 41.0028L369.65 46.5118C370.433 46.9546 371.103 47.5729 371.607 48.3182C372.111 49.0635 372.435 49.9154 372.554 50.8071Z" fill="#E6E6E6"/>
<path d="M350.055 79.6607V1" stroke="#EBEBEB" stroke-width="1.08419" stroke-miterlimit="10" stroke-linecap="round"/>
<path d="M45.2036 253.653C45.2036 253.653 47.1549 236.186 41.7411 219.552C36.6486 203.822 26.4159 195.482 20.2168 192.983C8.49686 188.307 7.4498 201.217 16.2309 210.152C22.6679 216.72 38.1597 230.261 40.825 253.225L45.2036 253.653Z" fill="url(#paint0_linear_798_17859)"/>
<path opacity="0.7" d="M45.2036 253.653C45.2036 253.653 47.1549 236.186 41.7411 219.552C36.6486 203.822 26.4159 195.482 20.2168 192.983C8.49686 188.307 7.4498 201.217 16.2309 210.152C22.6679 216.72 38.1597 230.261 40.825 253.225L45.2036 253.653Z" fill="white"/>
<path d="M17.0527 196.586C24.1323 201.345 43.158 215.088 43.8481 253.52" stroke="#FAFAFA" stroke-width="1.08419" stroke-miterlimit="10" stroke-linecap="round"/>
<path d="M40.2188 265.589C36.5779 247.979 29.1414 241.59 15.8508 234.784C10.1633 231.88 3.50018 228.644 1.09669 224.944C-1.3068 221.243 -0.093157 216.27 8.09298 216.377C23.0493 216.579 40.0879 234.605 42.3605 254.357L40.2188 265.589Z" fill="url(#paint1_linear_798_17859)"/>
<path opacity="0.8" d="M40.2188 265.589C36.5779 247.979 29.1414 241.59 15.8508 234.784C10.1633 231.88 3.50018 228.644 1.09669 224.944C-1.3068 221.243 -0.093157 216.27 8.09298 216.377C23.0493 216.579 40.0879 234.605 42.3605 254.357L40.2188 265.589Z" fill="white"/>
<path d="M6.83203 220.207C18.1237 221.742 35.9595 234.902 41.6231 258.282" stroke="#FAFAFA" stroke-width="1.08419" stroke-miterlimit="10" stroke-linecap="round"/>
<path d="M457.366 245.407C461.947 236.602 465.505 211.901 459.615 200.479C453.725 189.056 444.968 189.972 443.612 193.673C442.422 197.087 445.361 203.191 449.168 210.461C452.976 217.731 456.188 233.306 452.583 240.564L457.366 245.407Z" fill="url(#paint2_linear_798_17859)"/>
<path opacity="0.7" d="M457.366 245.407C461.947 236.602 465.505 211.901 459.615 200.479C453.725 189.056 444.968 189.972 443.612 193.673C442.422 197.087 445.361 203.191 449.168 210.461C452.976 217.731 456.188 233.306 452.583 240.564L457.366 245.407Z" fill="white"/>
<path d="M449.395 194.27C453.143 197.28 463.875 215.687 456.367 240.947" stroke="#FAFAFA" stroke-width="1.08419" stroke-miterlimit="10" stroke-linecap="round"/>
<path d="M455.914 254.736C453.154 249.215 447.109 240.077 451.226 233.806C455.343 227.536 459.65 233.08 462.958 228.987C466.266 224.894 462.482 218.279 465.338 214.709C470.859 207.689 474.857 215.84 479.188 214.769C482.317 213.995 485.803 207.058 494.81 207.903C503.817 208.748 503.365 215.887 499.355 219.242C495.346 222.598 490.586 225.941 493.68 230.974C496.417 235.436 497.832 243.682 488.468 246.883C479.521 249.94 483.947 253.819 482.519 258.198C481.091 262.577 472.643 266.729 463.66 263.35L455.914 254.736Z" fill="url(#paint3_linear_798_17859)"/>
<path opacity="0.8" d="M455.914 254.736C453.154 249.215 447.109 240.077 451.226 233.806C455.343 227.536 459.65 233.08 462.958 228.987C466.266 224.894 462.482 218.279 465.338 214.709C470.859 207.689 474.857 215.84 479.188 214.769C482.317 213.995 485.803 207.058 494.81 207.903C503.817 208.748 503.365 215.887 499.355 219.242C495.346 222.598 490.586 225.941 493.68 230.974C496.417 235.436 497.832 243.682 488.468 246.883C479.521 249.94 483.947 253.819 482.519 258.198C481.091 262.577 472.643 266.729 463.66 263.35L455.914 254.736Z" fill="white"/>
<path d="M496.05 211.949C486.293 214.567 462.924 233.557 460.949 257.389" stroke="#FAFAFA" stroke-width="1.08419" stroke-miterlimit="10" stroke-linecap="round"/>
<path d="M489.016 236.972C484.197 235.877 471.954 235.722 467.373 237.947" stroke="#FAFAFA" stroke-width="1.08419" stroke-miterlimit="10" stroke-linecap="round"/>
<path d="M470.096 216.805C470.096 216.805 473.665 223.718 473.154 229.536" stroke="#FAFAFA" stroke-width="1.08419" stroke-miterlimit="10" stroke-linecap="round"/>
<path d="M337.005 149.279C335.41 143.757 332.56 138.679 328.677 134.441C324.087 129.436 318.719 125.205 312.78 121.912C305.884 118.006 298.552 114.927 290.935 112.738C282.544 110.317 273.936 108.722 265.234 107.979C256.246 107.158 247.201 107.158 238.213 107.979C229.515 108.722 220.911 110.316 212.524 112.738C204.902 114.925 197.565 118.004 190.666 121.912C184.727 125.234 179.363 129.493 174.782 134.525C170.902 138.764 168.052 143.842 166.453 149.362C165.031 154.468 165.031 159.866 166.453 164.973C168.039 170.495 170.891 175.571 174.782 179.798C179.367 184.834 184.735 189.097 190.678 192.422C197.569 196.328 204.898 199.403 212.512 201.584C220.902 204.017 229.51 205.627 238.213 206.391C247.202 207.2 256.245 207.2 265.234 206.391C273.941 205.624 282.552 204.01 290.947 201.572C298.561 199.391 305.889 196.316 312.78 192.411C318.726 189.088 324.094 184.825 328.677 179.786C332.562 175.555 335.413 170.48 337.005 164.961C338.429 159.83 338.429 154.409 337.005 149.279Z" fill="#37474F"/>
<path d="M165.381 149.301H338.063V158.106L165.381 157.618V149.301Z" fill="#37474F"/>
<path d="M238.212 100.09L251.705 149.278L212.523 104.897C220.909 102.459 229.513 100.849 238.212 100.09Z" fill="#455A64"/>
<path d="M265.232 100.091L251.739 149.279L238.246 100.067C247.223 99.2562 256.256 99.2642 265.232 100.091Z" fill="#455A64"/>
<path d="M290.932 104.897L251.738 149.278L265.231 100.066C273.935 100.833 282.543 102.451 290.932 104.897Z" fill="#455A64"/>
<path d="M328.664 126.672C332.545 130.915 335.395 135.997 336.993 141.521L251.752 149.279L328.664 126.672Z" fill="#455A64"/>
<path d="M337.004 141.531C338.414 146.635 338.414 152.026 337.004 157.13L251.752 149.277L337.004 141.531Z" fill="#455A64"/>
<path d="M337.004 157.133C335.41 162.655 332.559 167.733 328.675 171.97L251.752 149.363L337.004 157.133Z" fill="#455A64"/>
<path d="M328.676 171.968C324.093 177.002 318.724 181.262 312.779 184.58L251.729 149.277L328.676 171.968Z" fill="#455A64"/>
<path d="M251.74 149.336L290.946 193.753C282.551 196.176 273.939 197.77 265.233 198.513L251.729 149.301L251.74 149.336Z" fill="#455A64"/>
<path d="M251.73 149.352L265.234 198.564C256.246 199.385 247.201 199.385 238.213 198.564L251.73 149.352Z" fill="#455A64"/>
<path d="M251.702 149.336L238.185 198.548C229.479 197.806 220.867 196.212 212.473 193.789L251.702 149.336Z" fill="#455A64"/>
<path d="M251.704 149.336L212.439 193.753C204.826 191.562 197.498 188.483 190.605 184.579L251.704 149.336Z" fill="#455A64"/>
<path d="M251.694 149.277L174.77 171.884C170.881 167.651 168.03 162.572 166.441 157.047L251.694 149.277Z" fill="#455A64"/>
<path d="M251.694 149.277L166.453 157.13C165.031 152.028 165.031 146.634 166.453 141.531L251.694 149.277Z" fill="#455A64"/>
<path d="M251.692 149.276L166.451 141.482C168.052 135.959 170.902 130.879 174.78 126.633L251.692 149.276Z" fill="#455A64"/>
<path d="M190.664 114.082L251.691 149.278L174.779 126.671C179.362 121.647 184.726 117.396 190.664 114.082Z" fill="#455A64"/>
<path d="M312.777 114.084L251.738 149.28L290.932 104.875C298.552 107.07 305.886 110.161 312.777 114.084Z" fill="#455A64"/>
<path d="M312.779 114.082C318.719 117.393 324.083 121.645 328.664 126.671L251.752 149.278L312.779 114.082Z" fill="#455A64"/>
<path d="M251.705 149.277L190.642 184.532C184.699 181.211 179.332 176.952 174.746 171.92L251.67 149.313L251.705 149.277Z" fill="#455A64"/>
<path d="M212.523 104.898L251.705 149.28L190.666 114.036C197.564 110.136 204.902 107.068 212.523 104.898Z" fill="#455A64"/>
<path d="M251.738 149.336L312.777 184.579C305.885 188.483 298.556 191.562 290.944 193.753L251.738 149.336Z" fill="#455A64"/>
<path d="M199.506 99.6358L247.992 127.621L245.612 88.0586C227.777 88.8201 212.63 92.6276 199.506 99.6358Z" fill="url(#paint4_linear_798_17859)"/>
<path opacity="0.2" d="M199.506 99.6358L247.992 127.621L245.612 88.0586C227.777 88.8201 212.63 92.6276 199.506 99.6358Z" fill="white"/>
<path d="M247.992 127.622V142.9L199.506 114.902V99.6367L247.992 127.622Z" fill="url(#paint5_linear_798_17859)"/>
<path opacity="0.1" d="M247.992 127.622V142.9L199.506 114.902V99.6367L247.992 127.622Z" fill="black"/>
<path d="M310.85 103.566L255.201 128.672V143.938L310.85 118.832V103.566Z" fill="url(#paint6_linear_798_17859)"/>
<path opacity="0.3" d="M310.85 103.566L255.201 128.672V143.938L310.85 118.832V103.566Z" fill="black"/>
<path d="M310.854 103.564C295.874 93.3675 275.897 87.9894 252.742 87.918L254.229 112.655L255.205 128.67L310.854 103.564Z" fill="url(#paint7_linear_798_17859)"/>
<path opacity="0.1" d="M310.854 103.564C295.874 93.3675 275.897 87.9894 252.742 87.918L254.229 112.655L255.205 128.67L310.854 103.564Z" fill="black"/>
<path d="M252.729 87.918V103.184L255.203 143.936V128.67L252.729 87.918Z" fill="#263238"/>
<path d="M266.519 158.07L294.968 185.437C296.563 184.83 298.038 184.247 299.728 183.438C319.324 174.609 329.569 161.378 329.557 148.028V132.917C327.403 127.17 321.478 127.182 315.279 122.125L257.179 148.302L256.596 148.563L266.519 158.07Z" fill="url(#paint8_linear_798_17859)"/>
<path opacity="0.6" d="M266.519 158.07L294.968 185.437C296.563 184.83 298.038 184.247 299.728 183.438C319.324 174.609 329.569 161.378 329.557 148.028V132.917C327.403 127.17 321.478 127.182 315.279 122.125L257.179 148.302L256.596 148.563L266.519 158.07Z" fill="white"/>
<path d="M266.519 142.805L294.968 170.172C296.562 169.565 298.038 168.982 299.727 168.161C332.531 153.347 339.099 126.219 315.302 106.812L257.202 132.989L256.619 133.251L266.519 142.805Z" fill="url(#paint9_linear_798_17859)"/>
<path opacity="0.8" d="M266.519 142.805L294.968 170.172C296.562 169.565 298.038 168.982 299.727 168.161C332.531 153.347 339.099 126.219 315.302 106.812L257.202 132.989L256.619 133.251L266.519 142.805Z" fill="white"/>
<path d="M294.919 185.416V170.139L256.559 133.289V148.555L294.919 185.416Z" fill="url(#paint10_linear_798_17859)"/>
<path opacity="0.6" d="M294.919 185.416V170.139L256.559 133.289V148.555L294.919 185.416Z" fill="white"/>
<path d="M194.461 117.82C186.287 122.972 177.208 126.221 173.9 132.479V147.757C173.9 155.717 177.601 163.784 185.275 171.161C195.984 181.429 212.939 188.688 233.083 191.579C251.726 194.331 270.745 192.946 288.792 187.521V172.256L263.746 163.451L249.039 149.28L194.461 117.82Z" fill="url(#paint11_linear_798_17859)"/>
<path opacity="0.6" d="M194.461 117.82C186.287 122.972 177.208 126.221 173.9 132.479V147.757C173.9 155.717 177.601 163.784 185.275 171.161C195.984 181.429 212.939 188.688 233.083 191.579C251.726 194.331 270.745 192.946 288.792 187.521V172.256L263.746 163.451L249.039 149.28L194.461 117.82Z" fill="black"/>
<path d="M194.461 102.555C170.974 117.333 167.19 138.512 185.276 155.884C195.984 166.164 212.94 173.41 233.084 176.313C251.726 179.059 270.745 177.674 288.792 172.256L263.746 148.185L249.04 134.062L194.461 102.555Z" fill="url(#paint12_linear_798_17859)"/>
<path opacity="0.3" d="M194.461 102.555C170.974 117.333 167.19 138.512 185.276 155.884C195.984 166.164 212.94 173.41 233.084 176.313C251.726 179.059 270.745 177.674 288.792 172.256L263.746 148.185L249.04 134.062L194.461 102.555Z" fill="black"/>
<path d="M466.997 269.034C465.402 263.512 462.552 258.434 458.669 254.196C454.089 249.163 448.725 244.904 442.784 241.584C435.888 237.678 428.556 234.599 420.939 232.41C412.548 229.988 403.94 228.394 395.238 227.651C386.249 226.83 377.205 226.83 368.216 227.651C359.519 228.395 350.915 229.989 342.528 232.41C334.91 234.599 327.578 237.678 320.682 241.584C314.737 244.902 309.369 249.162 304.786 254.196C300.906 258.436 298.056 263.514 296.457 269.034C295.035 274.14 295.035 279.538 296.457 284.645C298.043 290.167 300.895 295.243 304.786 299.47C309.371 304.506 314.738 308.769 320.682 312.094C327.575 315.995 334.903 319.07 342.516 321.256C350.912 323.672 359.523 325.266 368.228 326.016C377.217 326.825 386.261 326.825 395.25 326.016C403.955 325.267 412.566 323.673 420.962 321.256C428.579 319.076 435.908 315.996 442.796 312.082C448.745 308.765 454.117 304.506 458.704 299.47C462.587 295.237 465.437 290.163 467.033 284.645C468.438 279.534 468.425 274.138 466.997 269.034Z" fill="#37474F"/>
<path d="M295.371 269.027H468.053V277.832L295.371 277.344V269.027Z" fill="#37474F"/>
<path d="M368.204 219.812L381.709 269.025L342.516 224.619C350.901 222.183 359.505 220.573 368.204 219.812Z" fill="#455A64"/>
<path d="M395.224 219.814L381.731 269.026L368.227 219.814C377.207 218.994 386.244 218.994 395.224 219.814Z" fill="#455A64"/>
<path d="M420.922 224.619L381.729 269.025L395.221 219.812C403.925 220.571 412.533 222.181 420.922 224.619Z" fill="#455A64"/>
<path d="M458.654 246.406C462.537 250.648 465.388 255.73 466.983 261.256L381.742 269.049L458.654 246.406Z" fill="#455A64"/>
<path d="M466.996 261.254C468.412 266.357 468.412 271.75 466.996 276.853L381.756 269.047L466.996 261.254Z" fill="#455A64"/>
<path d="M466.995 276.852C465.396 282.372 462.546 287.45 458.666 291.689L381.742 269.082L466.995 276.852Z" fill="#455A64"/>
<path d="M458.678 291.69C454.085 296.719 448.714 300.977 442.77 304.302L381.719 269.047L458.678 291.69Z" fill="#455A64"/>
<path d="M381.731 269.063L420.936 313.48C412.54 315.897 403.929 317.491 395.224 318.239L381.719 269.027L381.731 269.063Z" fill="#455A64"/>
<path d="M381.72 269.07L395.225 318.235C386.236 319.05 377.192 319.05 368.203 318.235L381.72 269.07Z" fill="#455A64"/>
<path d="M381.709 269.059L368.205 318.235C359.5 317.486 350.888 315.892 342.492 313.476L381.709 269.059Z" fill="#455A64"/>
<path d="M381.708 269.059L342.443 313.476C334.832 311.281 327.504 308.202 320.609 304.302L381.708 269.059Z" fill="#455A64"/>
<path d="M381.684 269.047L304.761 291.654C300.872 287.421 298.02 282.341 296.432 276.817L381.684 269.047Z" fill="#455A64"/>
<path d="M381.684 269.047L296.443 276.853C295.021 271.75 295.021 266.356 296.443 261.254L381.684 269.047Z" fill="#455A64"/>
<path d="M381.682 269.037L296.441 261.244C298.04 255.72 300.89 250.639 304.77 246.395L381.682 269.037Z" fill="#455A64"/>
<path d="M320.666 233.758L381.681 268.989L304.77 246.382C309.352 241.343 314.72 237.08 320.666 233.758Z" fill="#455A64"/>
<path d="M442.768 233.756L381.729 268.987L420.922 224.582C428.541 226.765 435.874 229.845 442.768 233.756Z" fill="#455A64"/>
<path d="M442.771 233.758C448.712 237.073 454.076 241.328 458.656 246.358L381.756 268.965L442.771 233.758Z" fill="#455A64"/>
<path d="M381.707 269.039L320.656 304.306C314.716 300.981 309.348 296.723 304.76 291.694L381.683 269.087L381.707 269.039Z" fill="#455A64"/>
<path d="M342.515 224.621L381.709 269.026L320.67 233.759C327.565 229.861 334.898 226.793 342.515 224.621Z" fill="#455A64"/>
<path d="M381.729 269.059L442.768 304.302C435.875 308.206 428.547 311.285 420.934 313.476L381.729 269.059Z" fill="#455A64"/>
<path d="M305.651 249.715V274.44C305.025 272.181 304.704 269.847 304.699 267.503V249.715H305.651Z" fill="url(#paint13_linear_798_17859)"/>
<path opacity="0.3" d="M305.651 249.715V274.44C305.025 272.181 304.704 269.847 304.699 267.503V249.715H305.651Z" fill="black"/>
<path d="M381.682 249.738L305.651 256.687C304.39 252.136 304.39 247.328 305.651 242.777L381.682 249.738Z" fill="url(#paint14_linear_798_17859)"/>
<path d="M381.683 249.711L305.652 242.751C307.081 237.824 309.626 233.292 313.089 229.508L381.683 249.711Z" fill="url(#paint15_linear_798_17859)"/>
<path d="M327.261 218.289L381.684 249.713L313.09 229.486C317.182 225.017 321.967 221.236 327.261 218.289Z" fill="url(#paint16_linear_798_17859)"/>
<path d="M346.751 210.102L381.709 249.7L327.262 218.288C333.412 214.799 339.954 212.051 346.751 210.102Z" fill="url(#paint17_linear_798_17859)"/>
<path d="M369.666 205.82L381.708 249.702L346.75 210.104C354.23 207.928 361.906 206.493 369.666 205.82Z" fill="url(#paint18_linear_798_17859)"/>
<path d="M393.833 205.821L381.733 249.702L369.691 205.821C377.722 205.081 385.803 205.081 393.833 205.821Z" fill="url(#paint19_linear_798_17859)"/>
<path d="M416.686 210.104L381.729 249.702L393.829 205.82C401.57 206.497 409.226 207.932 416.686 210.104Z" fill="url(#paint20_linear_798_17859)"/>
<g opacity="0.2">
<path d="M381.68 249.734L305.649 256.683C304.388 252.132 304.388 247.324 305.649 242.773L381.68 249.734Z" fill="white"/>
<path d="M381.682 249.711L305.65 242.751C307.079 237.824 309.624 233.292 313.087 229.508L381.682 249.711Z" fill="white"/>
<path d="M327.259 218.289L381.683 249.713L313.088 229.486C317.18 225.017 321.965 221.236 327.259 218.289Z" fill="white"/>
<path d="M346.749 210.102L381.707 249.7L327.26 218.288C333.41 214.799 339.952 212.051 346.749 210.102Z" fill="white"/>
<path d="M369.664 205.816L381.706 249.698L346.748 210.1C354.228 207.924 361.904 206.489 369.664 205.816Z" fill="white"/>
<path d="M393.826 205.817L381.725 249.698L369.684 205.817C377.714 205.077 385.795 205.077 393.826 205.817Z" fill="white"/>
<path d="M416.684 210.1L381.727 249.698L393.827 205.816C401.568 206.493 409.224 207.928 416.684 210.1Z" fill="white"/>
</g>
<path d="M446.183 261.589L434.773 272.298L426.099 280.496L417.829 288.278L416.723 289.313V307.077C423.519 305.13 430.06 302.386 436.212 298.903C441.513 295.931 446.302 292.126 450.395 287.635C453.857 283.862 456.395 279.337 457.808 274.416C458.439 272.157 458.763 269.824 458.772 267.479V249.727L446.183 261.589Z" fill="url(#paint21_linear_798_17859)"/>
<path opacity="0.3" d="M446.183 261.589L434.773 272.298L426.099 280.496L417.829 288.278L416.723 289.313V307.077C423.519 305.13 430.06 302.386 436.212 298.903C441.513 295.931 446.302 292.126 450.395 287.635C453.857 283.862 456.395 279.337 457.808 274.416C458.439 272.157 458.763 269.824 458.772 267.479V249.727L446.183 261.589Z" fill="black"/>
<path d="M450.349 229.531C453.807 233.319 456.351 237.849 457.785 242.774L381.742 249.735L450.349 229.531Z" fill="url(#paint22_linear_798_17859)"/>
<path d="M458.737 249.747C458.728 252.096 458.403 254.433 457.773 256.696L434.738 254.578L381.742 249.723L446.149 243.774L457.773 242.715C458.41 245.005 458.734 247.37 458.737 249.747Z" fill="url(#paint23_linear_798_17859)"/>
<path d="M457.773 256.7C456.357 261.62 453.82 266.144 450.361 269.919L426.064 262.78L381.742 249.691L434.738 254.546L457.773 256.7Z" fill="url(#paint24_linear_798_17859)"/>
<path d="M450.362 269.918C446.269 274.409 441.48 278.213 436.179 281.186L417.796 270.549L381.756 249.75L426.078 262.838L450.362 269.918Z" fill="url(#paint25_linear_798_17859)"/>
<path d="M436.176 218.291L381.729 249.727L416.686 210.129C423.481 212.075 430.022 214.815 436.176 218.291Z" fill="url(#paint26_linear_798_17859)"/>
<path d="M436.178 218.289C441.473 221.253 446.258 225.05 450.349 229.533L381.742 249.761L436.178 218.289Z" fill="url(#paint27_linear_798_17859)"/>
<path d="M436.179 281.186C430.027 284.665 423.485 287.405 416.69 289.348L381.756 249.75L417.796 270.549L436.179 281.186Z" fill="url(#paint28_linear_798_17859)"/>
<g opacity="0.2">
<path d="M450.349 229.535C453.807 233.323 456.351 237.853 457.785 242.778L381.742 249.739L450.349 229.535Z" fill="white"/>
<path d="M458.737 249.751C458.728 252.1 458.403 254.437 457.773 256.699L434.738 254.582L381.742 249.727L446.149 243.778L457.773 242.719C458.41 245.009 458.734 247.374 458.737 249.751Z" fill="white"/>
<path d="M457.773 256.7C456.357 261.62 453.82 266.144 450.361 269.919L426.064 262.78L381.742 249.691L434.738 254.546L457.773 256.7Z" fill="white"/>
<path d="M450.358 269.918C446.265 274.409 441.476 278.213 436.175 281.186L417.792 270.549L381.752 249.75L426.074 262.838L450.358 269.918Z" fill="white"/>
<path d="M436.176 218.291L381.729 249.727L416.686 210.129C423.481 212.075 430.022 214.815 436.176 218.291Z" fill="white"/>
<path d="M436.178 218.289C441.473 221.253 446.258 225.05 450.349 229.533L381.742 249.761L436.178 218.289Z" fill="white"/>
<path d="M436.175 281.186C430.023 284.665 423.481 287.405 416.686 289.348L381.752 249.75L417.792 270.549L436.175 281.186Z" fill="white"/>
</g>
<path d="M416.698 289.361V307.125L381.705 267.479V249.703L416.698 289.361Z" fill="#263238"/>
<path d="M381.707 267.479L305.652 274.464V256.688L381.707 249.703V267.479Z" fill="url(#paint29_linear_798_17859)"/>
<path opacity="0.1" d="M381.707 267.479L305.652 274.464V256.688L381.707 249.703V267.479Z" fill="black"/>
<path d="M207.026 269.034C205.431 263.512 202.581 258.434 198.697 254.196C194.116 249.165 188.752 244.906 182.813 241.584C175.914 237.676 168.577 234.596 160.956 232.41C152.569 229.988 143.965 228.394 135.267 227.651C126.278 226.83 117.234 226.83 108.245 227.651C99.5438 228.395 90.9359 229.989 82.5447 232.41C74.9193 234.597 67.5787 237.676 60.6753 241.584C54.7347 244.904 49.3705 249.163 44.7909 254.196C40.9075 258.434 38.0569 263.512 36.462 269.034C35.0517 274.142 35.0517 279.536 36.462 284.645C38.0542 290.164 40.9053 295.239 44.7909 299.47C49.3696 304.508 54.7338 308.771 60.6753 312.094C67.566 315.999 74.895 319.075 82.509 321.256C90.9051 323.673 99.5166 325.267 108.222 326.016C117.211 326.825 126.254 326.825 135.243 326.016C143.948 325.267 152.559 323.673 160.956 321.256C168.572 319.076 175.901 315.996 182.789 312.082C188.739 308.766 194.112 304.507 198.697 299.47C202.583 295.239 205.434 290.164 207.026 284.645C208.437 279.536 208.437 274.142 207.026 269.034Z" fill="#37474F"/>
<path d="M35.3906 269.027H208.073V277.832L35.3906 277.344V269.027Z" fill="#37474F"/>
<path d="M108.267 219.812L121.76 269.025L82.5664 224.619C90.956 222.183 99.5639 220.573 108.267 219.812Z" fill="#455A64"/>
<path d="M135.243 219.813L121.75 269.025L108.27 219.813C117.242 218.995 126.271 218.995 135.243 219.813Z" fill="#455A64"/>
<path d="M160.93 224.619L121.748 269.025L135.241 219.812C143.94 220.571 152.544 222.181 160.93 224.619Z" fill="#455A64"/>
<path d="M198.699 246.406C202.582 250.648 205.433 255.73 207.028 261.256L121.775 269.049L198.699 246.406Z" fill="#455A64"/>
<path d="M207.028 261.254C208.438 266.358 208.438 271.749 207.028 276.853L121.775 269.047L207.028 261.254Z" fill="#455A64"/>
<path d="M207.028 276.852C205.433 282.374 202.583 287.452 198.699 291.689L121.775 269.082L207.028 276.852Z" fill="#455A64"/>
<path d="M198.698 291.69C194.109 296.719 188.742 300.977 182.801 304.302L121.738 269.047L198.698 291.69Z" fill="#455A64"/>
<path d="M121.748 269.063L160.954 313.48C152.558 315.897 143.946 317.491 135.241 318.239L121.725 269.027L121.748 269.063Z" fill="#455A64"/>
<path d="M121.727 269.07L135.243 318.235C126.27 319.047 117.242 319.047 108.27 318.235L121.727 269.07Z" fill="#455A64"/>
<path d="M121.714 269.059L108.269 318.235C99.5642 317.487 90.9527 315.893 82.5566 313.476L121.714 269.059Z" fill="#455A64"/>
<path d="M121.715 269.059L82.45 313.476C74.8578 311.281 67.5497 308.202 60.6758 304.302L121.715 269.059Z" fill="#455A64"/>
<path d="M121.704 269.047L44.7801 291.654C40.8964 287.417 38.0457 282.339 36.4512 276.817L121.704 269.047Z" fill="#455A64"/>
<path d="M121.7 269.047L36.448 276.853C35.0382 271.749 35.0382 266.358 36.448 261.254L121.7 269.047Z" fill="#455A64"/>
<path d="M121.704 269.037L36.4512 261.244C38.046 255.718 40.8965 250.636 44.7801 246.395L121.704 269.037Z" fill="#455A64"/>
<path d="M60.6735 233.758L121.701 268.989L44.7891 246.382C49.3669 241.343 54.7313 237.08 60.6735 233.758Z" fill="#455A64"/>
<path d="M182.787 233.756L121.748 268.987L160.93 224.582C168.553 226.763 175.89 229.843 182.787 233.756Z" fill="#455A64"/>
<path d="M182.789 233.758C188.739 237.088 194.111 241.359 198.697 246.406L121.785 269.013L182.789 233.758Z" fill="#455A64"/>
<path d="M121.715 269.039L60.6756 304.306C54.7331 300.984 49.3654 296.725 44.7793 291.694L121.703 269.087L121.715 269.039Z" fill="#455A64"/>
<path d="M82.5214 224.621L121.715 269.026L60.6758 233.759C67.5709 229.861 74.904 226.793 82.5214 224.621Z" fill="#455A64"/>
<path d="M121.748 269.059L182.787 304.302C175.894 308.206 168.566 311.285 160.953 313.476L121.748 269.059Z" fill="#455A64"/>
<path d="M144.691 238.516L154.531 227.355C154.531 214.267 138.539 213.946 131.472 213.315C124.404 212.685 112.279 208.627 112.279 223.524L115.658 235.851C125.416 235.224 135.211 236.123 144.691 238.516Z" fill="url(#paint30_linear_798_17859)"/>
<path opacity="0.6" d="M144.691 238.516L154.531 227.355C154.531 214.267 138.539 213.946 131.472 213.315C124.404 212.685 112.279 208.627 112.279 223.524L115.658 235.851C125.416 235.224 135.211 236.123 144.691 238.516Z" fill="white"/>
<path d="M144.691 220.989L154.531 209.84C140.752 206.254 126.478 204.96 112.279 206.009L115.658 218.288C125.417 217.673 135.213 218.584 144.691 220.989Z" fill="url(#paint31_linear_798_17859)"/>
<path opacity="0.8" d="M144.691 220.989L154.531 209.84C140.752 206.254 126.478 204.96 112.279 206.009L115.658 218.288C125.417 217.673 135.213 218.584 144.691 220.989Z" fill="white"/>
<path d="M115.658 218.339V235.877L112.279 223.55V206.012L115.658 218.339Z" fill="url(#paint32_linear_798_17859)"/>
<path d="M154.529 209.844L144.689 220.993V238.543L154.529 227.382V209.844Z" fill="url(#paint33_linear_798_17859)"/>
<g opacity="0.6">
<path d="M115.658 218.335V235.873L112.279 223.546V206.008L115.658 218.335Z" fill="white"/>
<path d="M154.529 209.84L144.689 220.989V238.539L154.529 227.378V209.84Z" fill="white"/>
</g>
<path d="M149.494 222.405V239.943C153.6 241.269 157.562 243.003 161.321 245.119C164.602 246.982 167.615 249.279 170.281 251.949L189.58 246.273C185.743 242.356 181.373 239 176.599 236.302C171.328 233.28 165.688 221.025 149.494 222.405Z" fill="url(#paint34_linear_798_17859)"/>
<path opacity="0.6" d="M149.494 222.405V239.943C153.6 241.269 157.562 243.003 161.321 245.119C164.602 246.982 167.615 249.279 170.281 251.949L189.58 246.273C185.743 242.356 181.373 239 176.599 236.302C171.328 233.28 165.688 221.025 149.494 222.405Z" fill="black"/>
<path d="M159.334 211.27L149.494 222.406C153.604 223.722 157.567 225.456 161.321 227.582C164.602 229.445 167.615 231.742 170.281 234.412L189.58 228.736C185.749 224.813 181.378 221.455 176.599 218.766C171.129 215.657 165.341 213.144 159.334 211.27Z" fill="url(#paint35_linear_798_17859)"/>
<path opacity="0.3" d="M159.334 211.27L149.494 222.406C153.604 223.722 157.567 225.456 161.321 227.582C164.602 229.445 167.615 231.742 170.281 234.412L189.58 228.736C185.749 224.813 181.378 221.455 176.599 218.766C171.129 215.657 165.341 213.144 159.334 211.27Z" fill="black"/>
<path d="M170.285 234.41L189.584 228.723V246.273L170.285 251.948V234.41Z" fill="url(#paint36_linear_798_17859)"/>
<path opacity="0.6" d="M170.285 234.41L189.584 228.723V246.273L170.285 251.948V234.41Z" fill="black"/>
<path d="M199.27 249.975H192.749C192.511 249.666 192.309 249.356 192.071 249.047L172.748 237.148V254.699C176.865 259.993 178.424 265.776 177.353 271.452L198.699 273.439C199.06 271.669 199.239 269.867 199.234 268.061L199.27 249.975Z" fill="url(#paint37_linear_798_17859)"/>
<path opacity="0.6" d="M199.27 249.975H192.749C192.511 249.666 192.309 249.356 192.071 249.047L172.748 237.148V254.699C176.865 259.993 178.424 265.776 177.353 271.452L198.699 273.439C199.06 271.669 199.239 269.867 199.234 268.061L199.27 249.975Z" fill="black"/>
<path d="M177.339 253.984L198.697 255.9C200.434 247.654 198.233 239.17 192.057 231.508L172.734 237.183C176.851 242.478 178.469 248.273 177.339 253.984Z" fill="url(#paint38_linear_798_17859)"/>
<path opacity="0.3" d="M177.339 253.984L198.697 255.9C200.434 247.654 198.233 239.17 192.057 231.508L172.734 237.183C176.851 242.478 178.469 248.273 177.339 253.984Z" fill="black"/>
<path d="M198.698 255.901V273.451L177.34 271.488V253.949L198.698 255.901Z" fill="url(#paint39_linear_798_17859)"/>
<path opacity="0.6" d="M198.698 255.901V273.451L177.34 271.488V253.949L198.698 255.901Z" fill="black"/>
<path d="M110.328 236.373V218.823C98.4292 213.338 76.2742 218.906 68.8496 235.243L84.1272 244.072C92.3333 239.968 101.206 237.361 110.328 236.373Z" fill="url(#paint40_linear_798_17859)"/>
<path opacity="0.3" d="M110.328 236.373V218.823C98.4292 213.338 76.2742 218.906 68.8496 235.243L84.1272 244.072C92.3333 239.968 101.206 237.361 110.328 236.373Z" fill="black"/>
<path d="M110.326 218.827L106.934 206.465C92.5492 208.083 79.3776 212.045 68.8594 217.709L84.137 226.526C92.3394 222.423 101.208 219.816 110.326 218.827Z" fill="url(#paint41_linear_798_17859)"/>
<path opacity="0.1" d="M110.326 218.827L106.934 206.465C92.5492 208.083 79.3776 212.045 68.8594 217.709L84.137 226.526C92.3394 222.423 101.208 219.816 110.326 218.827Z" fill="black"/>
<path d="M84.1272 226.524V244.074L68.8496 235.245V217.707L84.1272 226.524Z" fill="#263238"/>
<path d="M68.1474 228.734L65.0062 237.432C54.7378 243.786 48.2531 251.437 45.5879 259.444L67.0051 261.396C68.9684 255.91 73.4422 250.687 80.3671 246.285V228.734H68.1474Z" fill="url(#paint42_linear_798_17859)"/>
<path opacity="0.3" d="M68.1474 228.734L65.0062 237.432C54.7378 243.786 48.2531 251.437 45.5879 259.444L67.0051 261.396C68.9684 255.91 73.4422 250.687 80.3671 246.285V228.734H68.1474Z" fill="black"/>
<path d="M80.3195 228.735L65.0062 219.895C54.7378 226.236 48.2531 233.899 45.5879 241.895L67.0051 243.858C68.9208 238.373 73.3946 233.138 80.3195 228.735Z" fill="url(#paint43_linear_798_17859)"/>
<path opacity="0.1" d="M80.3195 228.735L65.0062 219.895C54.7378 226.236 48.2531 233.899 45.5879 241.895L67.0051 243.858C68.9208 238.373 73.3946 233.138 80.3195 228.735Z" fill="black"/>
<path d="M45.5879 241.895V259.445L66.9575 261.396V243.858L45.5879 241.895Z" fill="#263238"/>
<path d="M66.1103 264.481V246.931L59.7565 246.359L44.1934 250.417V267.943C44.293 274.907 46.8176 281.618 51.3324 286.921L70.6555 281.246C66.622 275.951 65.0514 270.156 66.1103 264.481Z" fill="url(#paint44_linear_798_17859)"/>
<path opacity="0.3" d="M66.1103 264.481V246.931L59.7565 246.359L44.1934 250.417V267.943C44.293 274.907 46.8176 281.618 51.3324 286.921L70.6555 281.246C66.622 275.951 65.0514 270.156 66.1103 264.481Z" fill="black"/>
<path d="M51.4062 269.383L70.7293 263.695V281.246L51.4062 286.921V269.383Z" fill="#263238"/>
<path d="M66.1243 246.928L44.7071 244.977C42.9699 253.234 45.1712 261.706 51.3465 269.38L70.6696 263.693C66.6241 258.398 65.0535 252.603 66.1243 246.928Z" fill="url(#paint45_linear_798_17859)"/>
<path opacity="0.1" d="M66.1243 246.928L44.7071 244.977C42.9699 253.234 45.1712 261.706 51.3465 269.38L70.6696 263.693C66.6241 258.398 65.0535 252.603 66.1243 246.928Z" fill="black"/>
<path d="M88.9804 286.895C79.9257 281.671 75.4043 274.83 75.4043 267.988V250.414H168.058V267.952C168.058 274.806 163.536 281.648 154.481 286.871C136.396 297.342 107.078 297.342 88.9804 286.895Z" fill="#37474F"/>
<path d="M121.739 277.187C147.321 277.187 168.059 265.211 168.059 250.439C168.059 235.667 147.321 223.691 121.739 223.691C96.1565 223.691 75.418 235.667 75.418 250.439C75.418 265.211 96.1565 277.187 121.739 277.187Z" fill="#455A64"/>
<path d="M84.1289 291.916V289.679L53.8711 272.152V289.679C57.7097 293.599 62.0842 296.956 66.8642 299.65C72.3345 302.759 78.1225 305.272 84.1289 307.146L93.957 296.009C90.577 294.909 87.2905 293.54 84.1289 291.916Z" fill="url(#paint46_linear_798_17859)"/>
<path opacity="0.3" d="M84.1289 291.916V289.679L53.8711 272.152V289.679C57.7097 293.599 62.0842 296.956 66.8642 299.65C72.3345 302.759 78.1225 305.272 84.1289 307.146L93.957 296.009C90.577 294.909 87.2905 293.54 84.1289 291.916Z" fill="black"/>
<path d="M82.0891 273.294C78.8049 271.437 75.7871 269.143 73.1177 266.477L53.8184 272.152C57.66 276.069 62.034 279.426 66.8115 282.123C72.2842 285.227 78.0717 287.74 84.0761 289.619L93.9043 278.47C89.7987 277.155 85.8394 275.421 82.0891 273.294Z" fill="url(#paint47_linear_798_17859)"/>
<path opacity="0.1" d="M82.0891 273.294C78.8049 271.437 75.7871 269.143 73.1177 266.477L53.8184 272.152C57.66 276.069 62.034 279.426 66.8115 282.123C72.2842 285.227 78.0717 287.74 84.0761 289.619L93.9043 278.47C89.7987 277.155 85.8394 275.421 82.0891 273.294Z" fill="black"/>
<path d="M84.127 307.16V289.622L93.9551 278.473V296.023L84.127 307.16Z" fill="#263238"/>
<path d="M88.9336 291.039V308.589C102.712 312.175 116.986 313.47 131.185 312.421V294.882L88.9336 291.039Z" fill="url(#paint48_linear_798_17859)"/>
<path opacity="0.1" d="M88.9336 291.039V308.589C102.712 312.175 116.986 313.47 131.185 312.421V294.882L88.9336 291.039Z" fill="black"/>
<path d="M98.7502 279.887L88.9102 291.036C102.689 294.62 116.962 295.918 131.162 294.879L127.806 282.54C118.042 283.173 108.238 282.278 98.7502 279.887Z" fill="url(#paint49_linear_798_17859)"/>
<path opacity="0.2" d="M98.7502 279.887L88.9102 291.036C102.689 294.62 116.962 295.918 131.162 294.879L127.806 282.54C118.042 283.173 108.238 282.278 98.7502 279.887Z" fill="white"/>
<path d="M163.146 289.678L178.472 298.531C188.74 292.189 195.225 284.526 197.89 276.519V258.98L176.473 274.567C174.545 280.053 170.071 285.288 163.146 289.678Z" fill="url(#paint50_linear_798_17859)"/>
<path opacity="0.1" d="M163.146 289.678L178.472 298.531C188.74 292.189 195.225 284.526 197.89 276.519V258.98L176.473 274.567C174.545 280.053 170.071 285.288 163.146 289.678Z" fill="black"/>
<path d="M163.146 272.142L178.472 280.995C188.74 274.641 195.225 266.99 197.89 258.983L176.473 257.031C174.545 262.516 170.071 267.74 163.146 272.142Z" fill="url(#paint51_linear_798_17859)"/>
<path opacity="0.2" d="M163.146 272.142L178.472 280.995C188.74 274.641 195.225 266.99 197.89 258.983L176.473 257.031C174.545 262.516 170.071 267.74 163.146 272.142Z" fill="white"/>
<path d="M178.46 280.993V298.531L163.146 289.691V272.141L178.46 280.993Z" fill="url(#paint52_linear_798_17859)"/>
<path opacity="0.3" d="M178.46 280.993V298.531L163.146 289.691V272.141L178.46 280.993Z" fill="black"/>
<path d="M136.526 294.439V299.199C135.395 299.377 134.277 299.532 133.135 299.663L136.526 312.013C150.388 310.467 163.642 306.719 174.601 300.793V283.195L136.526 294.439Z" fill="url(#paint53_linear_798_17859)"/>
<path opacity="0.1" d="M136.526 294.439V299.199C135.395 299.377 134.277 299.532 133.135 299.663L136.526 312.013C150.388 310.467 163.642 306.719 174.601 300.793V283.195L136.526 294.439Z" fill="black"/>
<path d="M133.135 282.065L136.526 294.44C150.388 292.893 163.642 289.157 174.601 283.231L159.288 274.379C151.102 278.491 142.243 281.094 133.135 282.065Z" fill="url(#paint54_linear_798_17859)"/>
<path opacity="0.2" d="M133.135 282.065L136.526 294.44C150.388 292.893 163.642 289.157 174.601 283.231L159.288 274.379C151.102 278.491 142.243 281.094 133.135 282.065Z" fill="white"/>
<path d="M136.526 294.405V311.943L133.135 299.617V282.066L136.526 294.405Z" fill="url(#paint55_linear_798_17859)"/>
<path opacity="0.3" d="M136.526 294.405V311.943L133.135 299.617V282.066L136.526 294.405Z" fill="black"/>
<path d="M433.46 177.047C433.418 176.273 433.194 175.52 432.808 174.848C432.422 174.176 431.883 173.605 431.235 173.18L399.014 154.582C397.824 153.868 396.789 154.451 396.789 155.879V187.017C396.829 187.792 397.052 188.545 397.439 189.217C397.825 189.889 398.365 190.46 399.014 190.884L412.507 198.666L416.767 215.907C416.752 216.222 416.864 216.531 417.077 216.764C417.29 216.997 417.587 217.136 417.903 217.15C418.218 217.165 418.527 217.053 418.76 216.84C418.993 216.627 419.132 216.33 419.146 216.014L423.049 204.746L431.295 209.506C432.484 210.219 433.52 209.636 433.52 208.221L433.46 177.047Z" fill="url(#paint56_linear_798_17859)"/>
<path opacity="0.5" d="M433.46 177.047C433.418 176.273 433.194 175.52 432.808 174.848C432.422 174.176 431.883 173.605 431.235 173.18L399.014 154.582C397.824 153.868 396.789 154.451 396.789 155.879V187.017C396.829 187.792 397.052 188.545 397.439 189.217C397.825 189.889 398.365 190.46 399.014 190.884L412.507 198.666L416.767 215.907C416.752 216.222 416.864 216.531 417.077 216.764C417.29 216.997 417.587 217.136 417.903 217.15C418.218 217.165 418.527 217.053 418.76 216.84C418.993 216.627 419.132 216.33 419.146 216.014L423.049 204.746L431.295 209.506C432.484 210.219 433.52 209.636 433.52 208.221L433.46 177.047Z" fill="white"/>
<path d="M408.996 168.768C409.653 169.142 410.261 169.598 410.804 170.124C411.29 170.597 411.725 171.119 412.101 171.683C412.428 172.182 412.695 172.717 412.898 173.277C413.066 173.754 413.174 174.249 413.22 174.753C413.22 175.264 413.279 175.8 413.279 176.359C413.279 176.918 413.279 177.43 413.22 177.906C413.191 178.289 413.081 178.662 412.898 179C412.72 179.313 412.438 179.553 412.101 179.679C411.677 179.795 411.229 179.795 410.804 179.679C410.164 179.53 409.553 179.277 408.996 178.929C408.335 178.559 407.723 178.107 407.175 177.584C406.688 177.125 406.256 176.61 405.89 176.05C405.268 175.13 404.88 174.072 404.76 172.968C404.76 172.456 404.76 171.921 404.76 171.362C404.76 170.802 404.76 170.291 404.76 169.827C404.796 169.439 404.91 169.063 405.093 168.72C405.265 168.403 405.549 168.161 405.89 168.042C406.306 167.911 406.749 167.89 407.175 167.982C407.824 168.135 408.44 168.401 408.996 168.768ZM420.371 176.014C420.492 175.924 420.636 175.871 420.787 175.859C421.003 175.873 421.212 175.943 421.394 176.061L423.095 177.049C423.29 177.16 423.461 177.31 423.595 177.489C423.706 177.642 423.769 177.824 423.774 178.013C423.778 178.052 423.778 178.092 423.774 178.132C423.753 178.176 423.725 178.216 423.69 178.251L409.674 188.602C409.552 188.693 409.408 188.75 409.257 188.769C409.039 188.755 408.829 188.681 408.651 188.555L406.949 187.579C406.751 187.467 406.581 187.313 406.449 187.127C406.335 186.98 406.268 186.801 406.259 186.615C406.25 186.572 406.25 186.528 406.259 186.485C406.276 186.438 406.304 186.397 406.342 186.366L420.371 176.014ZM410.495 176.014C410.512 175.84 410.512 175.664 410.495 175.49V173.955C410.511 173.769 410.511 173.582 410.495 173.396C410.456 172.978 410.331 172.573 410.126 172.206C409.852 171.761 409.461 171.399 408.996 171.159C408.448 170.838 408.068 170.755 407.806 170.898C407.693 170.988 407.602 171.102 407.538 171.231C407.474 171.361 407.44 171.503 407.437 171.647C407.437 171.754 407.437 171.921 407.437 172.171C407.437 172.421 407.437 172.659 407.437 172.92C407.437 173.182 407.437 173.444 407.437 173.694C407.437 173.944 407.437 174.134 407.437 174.265C407.481 174.682 407.607 175.086 407.806 175.455C408.098 175.907 408.51 176.27 408.996 176.502C409.543 176.823 409.924 176.906 410.126 176.763C410.234 176.677 410.321 176.569 410.383 176.446C410.445 176.322 410.479 176.187 410.483 176.05L410.495 176.014ZM421.275 185.783C421.936 186.157 422.548 186.612 423.095 187.139C423.578 187.611 424.008 188.134 424.38 188.698C424.716 189.191 424.984 189.727 425.178 190.292C425.343 190.77 425.455 191.265 425.511 191.767C425.511 192.279 425.511 192.815 425.511 193.374C425.511 193.933 425.511 194.445 425.511 194.921C425.474 195.304 425.361 195.676 425.178 196.015C425.096 196.175 424.984 196.318 424.847 196.434C424.71 196.551 424.551 196.639 424.38 196.693C423.961 196.816 423.515 196.816 423.095 196.693C422.451 196.545 421.836 196.292 421.275 195.944C420.618 195.574 420.01 195.122 419.466 194.599C418.978 194.137 418.543 193.622 418.169 193.064C417.84 192.567 417.573 192.032 417.372 191.47C417.206 190.993 417.098 190.498 417.051 189.995C417.051 189.471 417.051 188.936 417.051 188.376C417.051 187.817 417.051 187.306 417.051 186.841C417.078 186.454 417.188 186.077 417.372 185.735C417.547 185.42 417.83 185.179 418.169 185.057C418.595 184.952 419.04 184.952 419.466 185.057C420.109 185.202 420.721 185.46 421.275 185.818V185.783ZM422.786 193.064C422.796 192.89 422.796 192.715 422.786 192.541V191.042C422.786 190.804 422.786 190.613 422.786 190.494C422.736 190.079 422.611 189.675 422.417 189.304C422.122 188.855 421.711 188.493 421.227 188.257C420.68 187.936 420.299 187.853 420.097 187.996C419.984 188.086 419.893 188.2 419.829 188.33C419.766 188.459 419.731 188.601 419.728 188.745C419.716 188.92 419.716 189.094 419.728 189.269C419.728 189.507 419.728 189.757 419.728 190.018C419.728 190.28 419.728 190.542 419.728 190.804C419.717 190.99 419.717 191.177 419.728 191.363C419.765 191.781 419.891 192.187 420.097 192.553C420.368 193.001 420.759 193.364 421.227 193.6C421.775 193.921 422.155 194.004 422.417 193.862C422.529 193.768 422.619 193.651 422.683 193.52C422.746 193.389 422.782 193.246 422.786 193.1V193.064Z" fill="#FAFAFA"/>
<path d="M294.071 57.6582C294.028 56.8847 293.804 56.132 293.418 55.4605C293.032 54.789 292.493 54.2173 291.846 53.7912L259.625 35.2058C258.436 34.4919 257.4 35.063 257.4 36.4908V67.6291C257.442 68.4047 257.665 69.1597 258.051 69.8334C258.438 70.5071 258.977 71.0807 259.625 71.508L273.118 79.2896L277.378 96.4948C277.425 96.7613 277.561 97.0039 277.764 97.1827C277.967 97.3615 278.225 97.4658 278.495 97.4782C278.765 97.4907 279.032 97.4107 279.251 97.2514C279.469 97.092 279.627 96.8629 279.698 96.6018L283.601 85.334L291.846 90.0934C293.036 90.8073 294.071 90.2362 294.071 88.8083V57.6582Z" fill="url(#paint57_linear_798_17859)"/>
<path opacity="0.5" d="M294.071 57.6582C294.028 56.8847 293.804 56.132 293.418 55.4605C293.032 54.789 292.493 54.2173 291.846 53.7912L259.625 35.2058C258.436 34.4919 257.4 35.063 257.4 36.4908V67.6291C257.442 68.4047 257.665 69.1597 258.051 69.8334C258.438 70.5071 258.977 71.0807 259.625 71.508L273.118 79.2896L277.378 96.4948C277.425 96.7613 277.561 97.0039 277.764 97.1827C277.967 97.3615 278.225 97.4658 278.495 97.4782C278.765 97.4907 279.032 97.4107 279.251 97.2514C279.469 97.092 279.627 96.8629 279.698 96.6018L283.601 85.334L291.846 90.0934C293.036 90.8073 294.071 90.2362 294.071 88.8083V57.6582Z" fill="white"/>
<path d="M269.609 49.4252C270.267 49.7992 270.874 50.255 271.417 50.7816C271.9 51.2569 272.335 51.7791 272.714 52.3403C273.046 52.8363 273.314 53.372 273.512 53.9347C273.679 54.4113 273.787 54.9069 273.833 55.4101C273.833 55.9217 273.892 56.4572 273.892 57.0164C273.892 57.5756 273.892 58.0872 273.833 58.5632C273.805 58.9506 273.696 59.3279 273.512 59.6697C273.339 59.9841 273.054 60.2219 272.714 60.336C272.295 60.4727 271.847 60.4932 271.417 60.3955C270.775 60.2473 270.164 59.9897 269.609 59.634C268.946 59.268 268.333 58.8159 267.788 58.2895C267.301 57.8305 266.869 57.3153 266.503 56.7546C266.167 56.2613 265.899 55.725 265.706 55.1602C265.541 54.6823 265.429 54.1874 265.373 53.6848C265.373 53.1613 265.373 52.6258 265.373 52.0785C265.373 51.5312 265.373 50.9957 265.373 50.5317C265.41 50.1444 265.523 49.7683 265.706 49.4252C265.878 49.1078 266.163 48.866 266.503 48.7469C266.925 48.6416 267.367 48.6416 267.788 48.7469C268.43 48.8662 269.046 49.0957 269.609 49.4252ZM280.984 56.6713C281.108 56.5872 281.251 56.5342 281.4 56.5166C281.618 56.5309 281.828 56.605 282.007 56.7308L283.709 57.7065C283.901 57.8208 284.071 57.9701 284.208 58.1467C284.318 58.2997 284.38 58.4819 284.387 58.6703C284.391 58.7138 284.391 58.7576 284.387 58.8012C284.363 58.8435 284.335 58.8833 284.303 58.9201L270.287 69.2718C270.163 69.3559 270.02 69.4089 269.871 69.4265C269.653 69.4122 269.443 69.3381 269.264 69.2123L267.562 68.2366C267.365 68.1289 267.194 67.9785 267.063 67.7964C266.953 67.6434 266.89 67.4612 266.884 67.2728C266.873 67.234 266.873 67.1927 266.884 67.1539C266.9 67.1039 266.929 67.0588 266.967 67.023L280.984 56.6713ZM271.108 56.6713C271.125 56.4972 271.125 56.3219 271.108 56.1478V54.6129C271.124 54.4308 271.124 54.2476 271.108 54.0655C271.073 53.6468 270.947 53.2408 270.739 52.8757C270.469 52.4237 270.078 52.0568 269.609 51.8167C269.062 51.5074 268.681 51.4122 268.419 51.5669C268.309 51.6593 268.219 51.7738 268.156 51.9028C268.092 52.0319 268.056 52.1728 268.05 52.3165C268.05 52.4117 268.05 52.5901 268.05 52.8281C268.05 53.0661 268.05 53.316 268.05 53.5896C268.05 53.8633 268.05 54.1131 268.05 54.363C268.05 54.6129 268.05 54.8033 268.05 54.9222C268.097 55.3386 268.222 55.7424 268.419 56.1121C268.711 56.5647 269.123 56.9272 269.609 57.1592C270.156 57.4804 270.537 57.5637 270.739 57.4209C270.849 57.336 270.939 57.2281 271.003 57.1048C271.066 56.9815 271.102 56.8457 271.108 56.707V56.6713ZM281.888 66.44C282.552 66.8141 283.165 67.2741 283.709 67.8083C284.194 68.2739 284.625 68.7928 284.994 69.3551C285.327 69.8497 285.595 70.3857 285.791 70.9495C285.955 71.4277 286.067 71.9225 286.124 72.4249C286.124 72.9484 286.124 73.4838 286.124 74.0431C286.124 74.6023 286.124 75.1139 286.124 75.578C286.087 75.9652 285.974 76.3414 285.791 76.6845C285.619 77.0019 285.334 77.2437 284.994 77.3627C284.573 77.4806 284.129 77.4806 283.709 77.3627C283.065 77.2144 282.45 76.9612 281.888 76.6131C281.236 76.236 280.629 75.7849 280.08 75.2686C279.594 74.7999 279.16 74.2814 278.783 73.7218C278.456 73.2231 278.188 72.688 277.985 72.1274C277.818 71.6508 277.71 71.1552 277.664 70.652C277.664 70.1404 277.605 69.6049 277.605 69.0457C277.605 68.4865 277.605 67.9749 277.664 67.4989C277.693 67.1117 277.802 66.7348 277.985 66.3924C278.164 66.083 278.446 65.8469 278.783 65.726C279.202 65.5911 279.648 65.5665 280.08 65.6547C280.725 65.822 281.337 66.0997 281.888 66.4757V66.44ZM283.399 73.7218C283.409 73.5474 283.409 73.3727 283.399 73.1983V71.6991C283.399 71.4611 283.399 71.2707 283.399 71.1517C283.358 70.7342 283.233 70.3294 283.03 69.9619C282.739 69.5057 282.327 69.1391 281.841 68.9029C281.293 68.5936 280.912 68.4984 280.71 68.6531C280.596 68.7417 280.503 68.8554 280.439 68.9852C280.375 69.1151 280.342 69.2579 280.341 69.4027C280.328 69.573 280.328 69.744 280.341 69.9143C280.341 70.1523 280.341 70.4021 280.341 70.6758C280.341 70.9495 280.341 71.1993 280.341 71.4492C280.33 71.6354 280.33 71.8222 280.341 72.0084C280.376 72.4271 280.502 72.8332 280.71 73.1983C280.98 73.6503 281.372 74.0172 281.841 74.2572C282.388 74.5666 282.784 74.6499 283.03 74.5071C283.143 74.4167 283.234 74.3027 283.298 74.1732C283.362 74.0437 283.396 73.9018 283.399 73.7575V73.7218Z" fill="#FAFAFA"/>
<path d="M72.8542 176.082C72.8965 175.308 73.1199 174.555 73.5064 173.883C73.8928 173.212 74.4316 172.64 75.0793 172.215L107.3 153.617C108.49 152.904 109.525 153.487 109.525 154.914V186.053C109.485 186.827 109.262 187.58 108.876 188.252C108.489 188.924 107.949 189.496 107.3 189.92L93.8074 197.701L89.5478 214.918C89.562 215.234 89.4502 215.542 89.2371 215.775C89.024 216.008 88.727 216.147 88.4115 216.162C88.0959 216.176 87.7876 216.064 87.5544 215.851C87.3213 215.638 87.1823 215.341 87.1681 215.025L83.2773 203.758L75.0317 208.517C73.8418 209.231 72.8066 208.648 72.8066 207.232L72.8542 176.082Z" fill="url(#paint58_linear_798_17859)"/>
<g opacity="0.5">
<path d="M72.8542 176.082C72.8965 175.308 73.1199 174.555 73.5064 173.883C73.8928 173.212 74.4316 172.64 75.0793 172.215L107.3 153.617C108.49 152.904 109.525 153.487 109.525 154.914V186.053C109.485 186.827 109.262 187.58 108.876 188.252C108.489 188.924 107.949 189.496 107.3 189.92L93.8074 197.701L89.5478 214.918C89.562 215.234 89.4502 215.542 89.2371 215.775C89.024 216.008 88.727 216.147 88.4115 216.162C88.0959 216.176 87.7876 216.064 87.5544 215.851C87.3213 215.638 87.1823 215.341 87.1681 215.025L83.2773 203.758L75.0317 208.517C73.8418 209.231 72.8066 208.648 72.8066 207.232L72.8542 176.082Z" fill="white"/>
</g>
<path d="M84.111 173.764C84.755 173.364 85.4635 173.078 86.2051 172.919C86.703 172.819 87.2182 172.843 87.7043 172.991C88.0954 173.132 88.4213 173.411 88.6205 173.776C88.8333 174.169 88.9591 174.603 88.9893 175.049C89.0369 175.596 89.0607 176.191 89.0607 176.834C89.0607 177.476 89.0369 178.095 88.9893 178.69C88.9372 179.274 88.8133 179.85 88.6205 180.403C88.3925 181.05 88.0847 181.665 87.7043 182.236C87.2738 182.885 86.7708 183.484 86.2051 184.02C85.5728 184.623 84.8696 185.146 84.111 185.579C83.4591 185.978 82.7484 186.271 82.0049 186.448C81.5124 186.557 80.9998 186.537 80.5176 186.388C80.1266 186.247 79.8007 185.968 79.6015 185.603C79.3849 185.211 79.255 184.777 79.2207 184.33C79.2207 183.782 79.2207 183.14 79.2207 182.545C79.2207 181.95 79.2207 181.284 79.2207 180.689C79.2776 180.104 79.4055 179.529 79.6015 178.975C79.8245 178.327 80.1326 177.711 80.5176 177.143C80.9503 176.495 81.4487 175.893 82.0049 175.346C82.6399 174.735 83.3472 174.204 84.111 173.764ZM97.1993 166.97C97.3343 166.71 97.4937 166.463 97.6752 166.232C97.8754 166.004 98.1128 165.811 98.3772 165.661L100.352 164.471C100.516 164.35 100.722 164.299 100.924 164.328C101.066 164.328 101.138 164.483 101.138 164.674C101.146 164.737 101.146 164.801 101.138 164.864L101.042 165.114L84.8368 195.788C84.7018 196.045 84.5425 196.288 84.3608 196.514C84.1632 196.745 83.9254 196.938 83.6588 197.085L81.6956 198.275C81.5267 198.395 81.318 198.446 81.1126 198.418C80.9698 198.418 80.8984 198.263 80.8984 198.073C80.89 198.009 80.89 197.945 80.8984 197.882L80.9936 197.632L97.1993 166.97ZM85.8482 180.213C85.8644 179.999 85.8644 179.784 85.8482 179.57V177.798C85.8654 177.596 85.8654 177.393 85.8482 177.191C85.8416 177.024 85.8001 176.861 85.7263 176.711C85.6526 176.561 85.5481 176.429 85.4198 176.322C85.1818 176.156 84.7416 176.322 84.111 176.62C83.6243 176.865 83.2088 177.231 82.9046 177.683C82.6004 178.135 82.4176 178.658 82.3738 179.202C82.3564 179.419 82.3564 179.638 82.3738 179.856C82.3738 180.142 82.3738 180.439 82.3738 180.748C82.3738 181.058 82.3738 181.343 82.3738 181.629C82.3552 181.827 82.3552 182.026 82.3738 182.224C82.3738 182.392 82.4124 182.557 82.4867 182.708C82.561 182.859 82.6689 182.99 82.8021 183.092C83.0401 183.259 83.4685 183.152 84.111 182.795C84.6479 182.525 85.1006 182.114 85.4198 181.605C85.6568 181.175 85.8026 180.701 85.8482 180.213ZM98.3058 177.119C98.9552 176.718 99.6671 176.429 100.412 176.263C100.906 176.162 101.417 176.187 101.899 176.334C102.29 176.475 102.616 176.754 102.815 177.119C103.032 177.512 103.162 177.946 103.196 178.392C103.196 178.94 103.256 179.582 103.256 180.177C103.256 180.772 103.256 181.438 103.196 182.033C103.14 182.618 103.012 183.193 102.815 183.747C102.59 184.398 102.282 185.018 101.899 185.591C100.988 186.967 99.7649 188.108 98.3296 188.923C97.6835 189.324 96.9761 189.617 96.2355 189.791C95.7396 189.907 95.2215 189.887 94.7363 189.732C94.3429 189.595 94.0157 189.314 93.8201 188.946C93.6059 188.554 93.48 188.119 93.4513 187.673C93.4513 187.138 93.3799 186.483 93.3799 185.9C93.3799 185.317 93.3799 184.627 93.4513 184.032C93.5026 183.452 93.6266 182.88 93.8201 182.331C94.048 181.681 94.3558 181.061 94.7363 180.487C95.1696 179.835 95.6723 179.233 96.2355 178.69C96.8516 178.065 97.5478 177.525 98.3058 177.084V177.119ZM100.043 183.521C100.059 183.307 100.059 183.092 100.043 182.878V181.117C100.06 180.915 100.06 180.712 100.043 180.51C100.044 180.342 100.006 180.176 99.9314 180.026C99.857 179.875 99.7486 179.743 99.6147 179.642C99.3767 179.475 98.9483 179.57 98.3058 179.939C97.771 180.212 97.319 180.623 96.997 181.129C96.7672 181.553 96.6218 182.018 96.5687 182.497C96.5572 182.711 96.5572 182.926 96.5687 183.14C96.5687 183.437 96.5687 183.735 96.5687 184.032C96.5687 184.33 96.5687 184.639 96.5687 184.913C96.5563 185.111 96.5563 185.31 96.5687 185.508C96.5752 185.674 96.6167 185.838 96.6905 185.988C96.7643 186.137 96.8687 186.27 96.997 186.376C97.235 186.543 97.6752 186.448 98.3058 186.079C98.8431 185.81 99.2959 185.398 99.6147 184.889C99.8601 184.459 100.006 183.979 100.043 183.485V183.521Z" fill="#FAFAFA"/>
<defs>
<linearGradient id="paint0_linear_798_17859" x1="45.546" y1="253.653" x2="1.43872" y2="246.368" gradientUnits="userSpaceOnUse">
<stop stop-color="#6949FF"/>
<stop offset="1" stop-color="#876DFF"/>
</linearGradient>
<linearGradient id="paint1_linear_798_17859" x1="42.3605" y1="265.589" x2="-9.07829" y2="252.751" gradientUnits="userSpaceOnUse">
<stop stop-color="#6949FF"/>
<stop offset="1" stop-color="#876DFF"/>
</linearGradient>
<linearGradient id="paint2_linear_798_17859" x1="462.7" y1="245.407" x2="437.996" y2="242.851" gradientUnits="userSpaceOnUse">
<stop stop-color="#6949FF"/>
<stop offset="1" stop-color="#876DFF"/>
</linearGradient>
<linearGradient id="paint3_linear_798_17859" x1="502.088" y1="264.587" x2="439.165" y2="247.789" gradientUnits="userSpaceOnUse">
<stop stop-color="#6949FF"/>
<stop offset="1" stop-color="#876DFF"/>
</linearGradient>
<linearGradient id="paint4_linear_798_17859" x1="247.992" y1="127.621" x2="192.46" y2="107.888" gradientUnits="userSpaceOnUse">
<stop stop-color="#6949FF"/>
<stop offset="1" stop-color="#876DFF"/>
</linearGradient>
<linearGradient id="paint5_linear_798_17859" x1="247.992" y1="142.9" x2="191.421" y2="124.517" gradientUnits="userSpaceOnUse">
<stop stop-color="#6949FF"/>
<stop offset="1" stop-color="#876DFF"/>
</linearGradient>
<linearGradient id="paint6_linear_798_17859" x1="310.85" y1="143.938" x2="248.953" y2="119.2" gradientUnits="userSpaceOnUse">
<stop stop-color="#6949FF"/>
<stop offset="1" stop-color="#876DFF"/>
</linearGradient>
<linearGradient id="paint7_linear_798_17859" x1="310.854" y1="128.67" x2="246.836" y2="102.202" gradientUnits="userSpaceOnUse">
<stop stop-color="#6949FF"/>
<stop offset="1" stop-color="#876DFF"/>
</linearGradient>
<linearGradient id="paint8_linear_798_17859" x1="329.557" y1="185.437" x2="244.893" y2="157.148" gradientUnits="userSpaceOnUse">
<stop stop-color="#6949FF"/>
<stop offset="1" stop-color="#876DFF"/>
</linearGradient>
<linearGradient id="paint9_linear_798_17859" x1="329.548" y1="170.172" x2="244.902" y2="141.922" gradientUnits="userSpaceOnUse">
<stop stop-color="#6949FF"/>
<stop offset="1" stop-color="#876DFF"/>
</linearGradient>
<linearGradient id="paint10_linear_798_17859" x1="294.919" y1="185.416" x2="247.591" y2="175.318" gradientUnits="userSpaceOnUse">
<stop stop-color="#6949FF"/>
<stop offset="1" stop-color="#876DFF"/>
</linearGradient>
<linearGradient id="paint11_linear_798_17859" x1="288.792" y1="192.955" x2="164.935" y2="138.042" gradientUnits="userSpaceOnUse">
<stop stop-color="#6949FF"/>
<stop offset="1" stop-color="#876DFF"/>
</linearGradient>
<linearGradient id="paint12_linear_798_17859" x1="288.792" y1="177.686" x2="164.937" y2="122.77" gradientUnits="userSpaceOnUse">
<stop stop-color="#6949FF"/>
<stop offset="1" stop-color="#876DFF"/>
</linearGradient>
<linearGradient id="paint13_linear_798_17859" x1="305.651" y1="274.44" x2="304.423" y2="274.426" gradientUnits="userSpaceOnUse">
<stop stop-color="#6949FF"/>
<stop offset="1" stop-color="#876DFF"/>
</linearGradient>
<linearGradient id="paint14_linear_798_17859" x1="381.682" y1="256.687" x2="353.905" y2="212.115" gradientUnits="userSpaceOnUse">
<stop stop-color="#6949FF"/>
<stop offset="1" stop-color="#876DFF"/>
</linearGradient>
<linearGradient id="paint15_linear_798_17859" x1="381.683" y1="249.711" x2="336.911" y2="200.859" gradientUnits="userSpaceOnUse">
<stop stop-color="#6949FF"/>
<stop offset="1" stop-color="#876DFF"/>
</linearGradient>
<linearGradient id="paint16_linear_798_17859" x1="381.684" y1="249.713" x2="318.508" y2="209.728" gradientUnits="userSpaceOnUse">
<stop stop-color="#6949FF"/>
<stop offset="1" stop-color="#876DFF"/>
</linearGradient>
<linearGradient id="paint17_linear_798_17859" x1="381.709" y1="249.7" x2="321.107" y2="225.54" gradientUnits="userSpaceOnUse">
<stop stop-color="#6949FF"/>
<stop offset="1" stop-color="#876DFF"/>
</linearGradient>
<linearGradient id="paint18_linear_798_17859" x1="381.708" y1="249.702" x2="338.898" y2="239.814" gradientUnits="userSpaceOnUse">
<stop stop-color="#6949FF"/>
<stop offset="1" stop-color="#876DFF"/>
</linearGradient>
<linearGradient id="paint19_linear_798_17859" x1="393.833" y1="249.702" x2="363.446" y2="244.915" gradientUnits="userSpaceOnUse">
<stop stop-color="#6949FF"/>
<stop offset="1" stop-color="#876DFF"/>
</linearGradient>
<linearGradient id="paint20_linear_798_17859" x1="416.686" y1="249.702" x2="373.877" y2="239.814" gradientUnits="userSpaceOnUse">
<stop stop-color="#6949FF"/>
<stop offset="1" stop-color="#876DFF"/>
</linearGradient>
<linearGradient id="paint21_linear_798_17859" x1="458.772" y1="307.077" x2="406.876" y2="296.045" gradientUnits="userSpaceOnUse">
<stop stop-color="#6949FF"/>
<stop offset="1" stop-color="#876DFF"/>
</linearGradient>
<linearGradient id="paint22_linear_798_17859" x1="457.785" y1="249.735" x2="413.014" y2="200.876" gradientUnits="userSpaceOnUse">
<stop stop-color="#6949FF"/>
<stop offset="1" stop-color="#876DFF"/>
</linearGradient>
<linearGradient id="paint23_linear_798_17859" x1="458.737" y1="256.696" x2="430.757" y2="212.018" gradientUnits="userSpaceOnUse">
<stop stop-color="#6949FF"/>
<stop offset="1" stop-color="#876DFF"/>
</linearGradient>
<linearGradient id="paint24_linear_798_17859" x1="457.773" y1="269.919" x2="412.944" y2="221.062" gradientUnits="userSpaceOnUse">
<stop stop-color="#6949FF"/>
<stop offset="1" stop-color="#876DFF"/>
</linearGradient>
<linearGradient id="paint25_linear_798_17859" x1="450.362" y1="281.186" x2="387.168" y2="241.197" gradientUnits="userSpaceOnUse">
<stop stop-color="#6949FF"/>
<stop offset="1" stop-color="#876DFF"/>
</linearGradient>
<linearGradient id="paint26_linear_798_17859" x1="436.176" y1="249.727" x2="375.574" y2="225.567" gradientUnits="userSpaceOnUse">
<stop stop-color="#6949FF"/>
<stop offset="1" stop-color="#876DFF"/>
</linearGradient>
<linearGradient id="paint27_linear_798_17859" x1="450.349" y1="249.761" x2="387.113" y2="209.792" gradientUnits="userSpaceOnUse">
<stop stop-color="#6949FF"/>
<stop offset="1" stop-color="#876DFF"/>
</linearGradient>
<linearGradient id="paint28_linear_798_17859" x1="436.179" y1="289.348" x2="375.597" y2="265.206" gradientUnits="userSpaceOnUse">
<stop stop-color="#6949FF"/>
<stop offset="1" stop-color="#876DFF"/>
</linearGradient>
<linearGradient id="paint29_linear_798_17859" x1="381.707" y1="274.464" x2="326.995" y2="225.738" gradientUnits="userSpaceOnUse">
<stop stop-color="#6949FF"/>
<stop offset="1" stop-color="#876DFF"/>
</linearGradient>
<linearGradient id="paint30_linear_798_17859" x1="154.531" y1="238.516" x2="109.821" y2="217.592" gradientUnits="userSpaceOnUse">
<stop stop-color="#6949FF"/>
<stop offset="1" stop-color="#876DFF"/>
</linearGradient>
<linearGradient id="paint31_linear_798_17859" x1="154.531" y1="220.989" x2="121.264" y2="194.41" gradientUnits="userSpaceOnUse">
<stop stop-color="#6949FF"/>
<stop offset="1" stop-color="#876DFF"/>
</linearGradient>
<linearGradient id="paint32_linear_798_17859" x1="115.658" y1="235.877" x2="111.304" y2="235.734" gradientUnits="userSpaceOnUse">
<stop stop-color="#6949FF"/>
<stop offset="1" stop-color="#876DFF"/>
</linearGradient>
<linearGradient id="paint33_linear_798_17859" x1="154.529" y1="238.543" x2="141.961" y2="237.293" gradientUnits="userSpaceOnUse">
<stop stop-color="#6949FF"/>
<stop offset="1" stop-color="#876DFF"/>
</linearGradient>
<linearGradient id="paint34_linear_798_17859" x1="189.58" y1="251.949" x2="144.758" y2="234.38" gradientUnits="userSpaceOnUse">
<stop stop-color="#6949FF"/>
<stop offset="1" stop-color="#876DFF"/>
</linearGradient>
<linearGradient id="paint35_linear_798_17859" x1="189.58" y1="234.412" x2="148.287" y2="213.674" gradientUnits="userSpaceOnUse">
<stop stop-color="#6949FF"/>
<stop offset="1" stop-color="#876DFF"/>
</linearGradient>
<linearGradient id="paint36_linear_798_17859" x1="189.584" y1="251.948" x2="166.055" y2="246.28" gradientUnits="userSpaceOnUse">
<stop stop-color="#6949FF"/>
<stop offset="1" stop-color="#876DFF"/>
</linearGradient>
<linearGradient id="paint37_linear_798_17859" x1="199.27" y1="273.439" x2="166.528" y2="266.501" gradientUnits="userSpaceOnUse">
<stop stop-color="#6949FF"/>
<stop offset="1" stop-color="#876DFF"/>
</linearGradient>
<linearGradient id="paint38_linear_798_17859" x1="199.271" y1="255.9" x2="168.138" y2="246.079" gradientUnits="userSpaceOnUse">
<stop stop-color="#6949FF"/>
<stop offset="1" stop-color="#876DFF"/>
</linearGradient>
<linearGradient id="paint39_linear_798_17859" x1="198.698" y1="273.451" x2="173.671" y2="265.504" gradientUnits="userSpaceOnUse">
<stop stop-color="#6949FF"/>
<stop offset="1" stop-color="#876DFF"/>
</linearGradient>
<linearGradient id="paint40_linear_798_17859" x1="110.328" y1="244.072" x2="65.5219" y2="224.33" gradientUnits="userSpaceOnUse">
<stop stop-color="#6949FF"/>
<stop offset="1" stop-color="#876DFF"/>
</linearGradient>
<linearGradient id="paint41_linear_798_17859" x1="110.326" y1="226.526" x2="70.9716" y2="202.94" gradientUnits="userSpaceOnUse">
<stop stop-color="#6949FF"/>
<stop offset="1" stop-color="#876DFF"/>
</linearGradient>
<linearGradient id="paint42_linear_798_17859" x1="80.3671" y1="261.396" x2="39.4082" y2="248.75" gradientUnits="userSpaceOnUse">
<stop stop-color="#6949FF"/>
<stop offset="1" stop-color="#876DFF"/>
</linearGradient>
<linearGradient id="paint43_linear_798_17859" x1="80.3195" y1="243.858" x2="42.2419" y2="227.857" gradientUnits="userSpaceOnUse">
<stop stop-color="#6949FF"/>
<stop offset="1" stop-color="#876DFF"/>
</linearGradient>
<linearGradient id="paint44_linear_798_17859" x1="70.6555" y1="286.921" x2="37.7" y2="280.688" gradientUnits="userSpaceOnUse">
<stop stop-color="#6949FF"/>
<stop offset="1" stop-color="#876DFF"/>
</linearGradient>
<linearGradient id="paint45_linear_798_17859" x1="70.6696" y1="269.38" x2="39.5337" y2="259.564" gradientUnits="userSpaceOnUse">
<stop stop-color="#6949FF"/>
<stop offset="1" stop-color="#876DFF"/>
</linearGradient>
<linearGradient id="paint46_linear_798_17859" x1="93.957" y1="307.146" x2="47.386" y2="291.678" gradientUnits="userSpaceOnUse">
<stop stop-color="#6949FF"/>
<stop offset="1" stop-color="#876DFF"/>
</linearGradient>
<linearGradient id="paint47_linear_798_17859" x1="93.9043" y1="289.619" x2="52.6109" y2="268.881" gradientUnits="userSpaceOnUse">
<stop stop-color="#6949FF"/>
<stop offset="1" stop-color="#876DFF"/>
</linearGradient>
<linearGradient id="paint48_linear_798_17859" x1="131.185" y1="312.773" x2="89.8236" y2="289.46" gradientUnits="userSpaceOnUse">
<stop stop-color="#6949FF"/>
<stop offset="1" stop-color="#876DFF"/>
</linearGradient>
<linearGradient id="paint49_linear_798_17859" x1="131.162" y1="295.226" x2="97.8845" y2="268.65" gradientUnits="userSpaceOnUse">
<stop stop-color="#6949FF"/>
<stop offset="1" stop-color="#876DFF"/>
</linearGradient>
<linearGradient id="paint50_linear_798_17859" x1="197.89" y1="298.531" x2="155.803" y2="287.811" gradientUnits="userSpaceOnUse">
<stop stop-color="#6949FF"/>
<stop offset="1" stop-color="#876DFF"/>
</linearGradient>
<linearGradient id="paint51_linear_798_17859" x1="197.89" y1="280.995" x2="159.803" y2="264.984" gradientUnits="userSpaceOnUse">
<stop stop-color="#6949FF"/>
<stop offset="1" stop-color="#876DFF"/>
</linearGradient>
<linearGradient id="paint52_linear_798_17859" x1="178.46" y1="298.531" x2="159.25" y2="295.3" gradientUnits="userSpaceOnUse">
<stop stop-color="#6949FF"/>
<stop offset="1" stop-color="#876DFF"/>
</linearGradient>
<linearGradient id="paint53_linear_798_17859" x1="174.601" y1="312.013" x2="129.042" y2="293.006" gradientUnits="userSpaceOnUse">
<stop stop-color="#6949FF"/>
<stop offset="1" stop-color="#876DFF"/>
</linearGradient>
<linearGradient id="paint54_linear_798_17859" x1="174.601" y1="294.44" x2="135.247" y2="270.854" gradientUnits="userSpaceOnUse">
<stop stop-color="#6949FF"/>
<stop offset="1" stop-color="#876DFF"/>
</linearGradient>
<linearGradient id="paint55_linear_798_17859" x1="136.526" y1="311.943" x2="132.156" y2="311.8" gradientUnits="userSpaceOnUse">
<stop stop-color="#6949FF"/>
<stop offset="1" stop-color="#876DFF"/>
</linearGradient>
<linearGradient id="paint56_linear_798_17859" x1="433.52" y1="217.152" x2="387.461" y2="209.35" gradientUnits="userSpaceOnUse">
<stop stop-color="#6949FF"/>
<stop offset="1" stop-color="#876DFF"/>
</linearGradient>
<linearGradient id="paint57_linear_798_17859" x1="294.071" y1="97.4795" x2="248.095" y2="89.6682" gradientUnits="userSpaceOnUse">
<stop stop-color="#6949FF"/>
<stop offset="1" stop-color="#876DFF"/>
</linearGradient>
<linearGradient id="paint58_linear_798_17859" x1="109.525" y1="216.163" x2="63.4815" y2="208.364" gradientUnits="userSpaceOnUse">
<stop stop-color="#6949FF"/>
<stop offset="1" stop-color="#876DFF"/>
</linearGradient>
</defs>
</svg>
