<svg width="46" height="45" viewBox="0 0 46 45" fill="none" xmlns="http://www.w3.org/2000/svg">
<path d="M45.0955 0H0.765625V44.3298H45.0955V0Z" fill="#FF26BE"/>
<path d="M43.1437 1.95117H2.71484V42.3801H43.1437V1.95117Z" fill="#2E001F"/>
<path d="M23.7804 11.8691H20.3176L16.6004 19.6436L12.8333 11.8691H9.2661L14.3145 21.9641L9.08594 32.3008H12.611L16.3947 24.3791L20.2224 32.3008H24.0379L18.6487 21.8426L23.7804 11.8691ZM33.3533 11.8691V17.0644C33.3533 17.0644 32.7543 17.0644 32.3554 17.0644C28.9502 17.0644 24.8336 19.2603 24.8336 24.8693C24.8336 29.2053 27.0306 32.4645 31.7101 32.4645C35.1557 32.4645 36.7789 31.2726 36.7789 31.2726V11.8691H33.3533ZM33.3499 29.4799C33.3499 29.4799 32.9555 29.6534 32.0249 29.6534C31.0943 29.6534 28.2393 29.2434 28.2393 24.7164C28.2393 20.1898 31.5202 19.8268 32.3086 19.8268C33.0975 19.8268 33.3498 20.0477 33.3498 20.0477V29.4799H33.3499Z" fill="#FFD9F2"/>
</svg>
