<svg width="52" height="45" viewBox="0 0 52 45" fill="none" xmlns="http://www.w3.org/2000/svg">
<g opacity="0.88">
<path d="M25.9853 3.32987L8.06248 7.95798C7.06579 8.21541 6.88749 9.55491 7.7825 10.0638L23.8431 19.199C25.2541 20.0017 26.9184 20.2356 28.4961 19.853L46.4528 15.4983C47.4531 15.256 47.6514 13.9196 46.7638 13.3974L30.8115 4.00788C29.3561 3.15129 27.6202 2.90733 25.9851 3.32958" fill="#FCB400"/>
<path d="M27.162 23.4218L24.7939 40.2716C24.6813 41.0728 25.4123 41.7354 26.1987 41.5448L46.1852 36.8519C46.6419 36.7412 46.9846 36.363 47.0499 35.8977L49.418 19.0481C49.5306 18.2467 48.7996 17.5844 48.0132 17.775L28.0266 22.4679C27.5701 22.5787 27.2274 22.9569 27.1619 23.4221" fill="#18BFFF"/>
<path d="M22.6175 23.6683L16.6111 25.5936L16.0012 25.7894L3.32821 29.8098C2.52479 30.0672 1.64097 29.3836 1.75848 28.5475L3.98108 12.7329C4.02359 12.4304 4.2154 12.191 4.45101 12.0238C4.54828 11.9508 4.65529 11.8918 4.76893 11.8485C5.07635 11.7181 5.48744 11.7295 5.81241 11.914L22.8149 21.5786C23.679 22.0703 23.5707 23.3628 22.6175 23.6685" fill="#F82B60"/>
<path d="M22.6177 23.668L16.6113 25.5933L4.45122 12.0233C4.5485 11.9504 4.6555 11.8915 4.76911 11.8483C5.07653 11.7179 5.48762 11.7293 5.81259 11.9137L22.815 21.5783C23.6792 22.0701 23.5709 23.3626 22.6177 23.6683" fill="black" fill-opacity="0.25"/>
</g>
</svg>
