<svg width="55" height="33" viewBox="0 0 55 33" fill="none" xmlns="http://www.w3.org/2000/svg">
<path d="M15.5779 11.8748C15.517 13.8066 16.4739 14.662 16.4975 15.2053C16.4863 15.3159 16.4489 15.4221 16.3886 15.5152C16.3283 15.6082 16.2468 15.6853 16.151 15.7401L15.069 16.5043C14.929 16.6033 14.7639 16.6601 14.5931 16.668C14.5568 16.6663 13.9008 16.8241 12.862 14.4838C12.2282 15.282 11.4218 15.9234 10.5045 16.3588C9.58719 16.7941 8.58333 17.0119 7.56975 16.9955C6.19364 17.0714 2.4643 16.2075 2.65618 12.2014C2.52178 8.93654 5.53518 6.90836 8.6517 7.07979C9.25184 7.08149 10.4775 7.11134 12.6236 7.61455V6.28233C12.851 4.02558 11.3811 2.27458 8.83597 2.53728C8.6331 2.53813 7.19614 2.49463 4.96124 3.39955C4.33912 3.68783 4.25966 3.64007 4.05257 3.64007C3.42622 3.64007 3.68403 1.80805 3.80406 1.57606C4.24445 1.03021 6.83521 0.0110036 9.37779 0.0255028C11.0778 -0.126204 12.7688 0.403206 14.0851 1.4993C14.6202 2.10322 15.0284 2.81031 15.2851 3.57785C15.5418 4.3454 15.6417 5.15748 15.5787 5.96506L15.5779 11.8748ZM8.27302 14.6373C11.0142 14.5972 12.1748 12.9341 12.4394 12.0385C12.6473 11.1814 12.6126 10.6389 12.6126 9.70158C11.7953 9.50371 10.6186 9.28793 9.26875 9.28623C7.98816 9.189 5.64929 9.7664 5.74058 12.0377C5.63576 13.4697 6.68052 14.7157 8.27302 14.6373ZM22.7204 16.6032C22.056 16.6646 21.7467 16.1887 21.6486 15.7188L17.4392 1.67585C17.3572 1.43875 17.3031 1.19397 17.2769 0.944069C17.2613 0.841042 17.287 0.736009 17.3482 0.652049C17.4093 0.568089 17.501 0.51207 17.6031 0.4963C17.6234 0.492888 17.4231 0.4963 19.4839 0.4963C20.226 0.421245 20.4678 1.0106 20.5447 1.38075L23.564 13.3921L26.3669 1.38075C26.4117 1.10612 26.6154 0.436598 27.4489 0.507388H28.8994C29.0828 0.492036 29.8385 0.464743 29.9712 1.39184L32.7961 13.5567L35.9126 1.39184C35.9532 1.20591 36.1425 0.422099 36.9844 0.507388H38.6513C38.7231 0.4963 39.1711 0.438303 39.0951 1.23917C39.0587 1.39696 39.3833 0.329986 34.6362 15.7298C34.539 16.1998 34.2288 16.6757 33.5644 16.6143H31.9846C31.0599 16.7124 30.9272 15.7904 30.9128 15.6974L28.1099 4.00169L25.3391 15.6855C25.3256 15.7785 25.1928 16.7004 24.2673 16.6023H22.7204V16.6032ZM45.8369 17.0834C45.3399 17.0842 42.9698 17.0578 40.9885 16.0352C40.7911 15.9509 40.623 15.8093 40.5055 15.6285C40.3879 15.4476 40.3263 15.2356 40.3283 15.0194V14.1025C40.3283 13.3818 40.8524 13.514 41.0747 13.6002C41.9233 13.9464 42.4677 14.2091 43.5099 14.4189C46.6078 15.0612 47.9704 14.2228 48.3043 14.0368C49.4158 13.3707 49.5037 11.8466 48.7481 11.056C47.8622 10.3063 47.4396 10.2781 44.2571 9.2649C43.8649 9.15488 40.5633 8.10411 40.5557 4.79915C40.5041 2.39058 42.6731 0.0075917 46.432 0.0272083C47.503 0.0263554 50.3566 0.379454 51.1292 1.35943C51.2433 1.53768 51.2999 1.7475 51.2915 1.95987V2.82214C51.2915 3.20083 51.1546 3.39017 50.8798 3.39017C50.2281 3.31682 49.0718 2.43749 46.7245 2.47331C46.1421 2.4426 43.3527 2.55092 43.4778 4.60298C43.4414 6.22007 45.7271 6.82648 45.9883 6.89642C49.0701 7.83204 50.1005 7.98727 51.3236 9.41928C52.7724 11.317 51.9914 13.5388 51.6913 14.1477C50.0785 17.3452 45.908 17.0851 45.8369 17.0834ZM49.2349 26.0268C43.3155 30.438 34.7225 32.786 27.3855 32.786C17.4857 32.8519 7.91953 29.1789 0.567508 22.489C0.0155449 21.9867 0.502422 21.2984 1.17357 21.6813C9.32915 26.3886 18.563 28.8619 27.9586 28.8559C34.975 28.8179 41.9148 27.3817 48.3795 24.6298C49.3753 24.2033 50.2197 25.295 49.2349 26.0268ZM51.7023 23.1875C50.9449 22.205 46.6915 22.7287 44.7871 22.9581C44.2132 23.0238 44.116 22.5214 44.6358 22.1504C48.0228 19.7478 53.5856 20.4361 54.2246 21.2438C54.8628 22.0515 54.0513 27.6755 50.8807 30.3621C50.3938 30.7774 49.9281 30.5583 50.1445 30.0124C50.8579 28.2 52.4597 24.1709 51.7023 23.1875Z" fill="black"/>
</svg>
