<svg width="31" height="30" viewBox="0 0 31 30" fill="none" xmlns="http://www.w3.org/2000/svg">
<path d="M23 8.75H5.5C5.16848 8.75 4.85054 8.8817 4.61612 9.11612C4.3817 9.35054 4.25 9.66848 4.25 10V20C4.25 20.3315 4.3817 20.6495 4.61612 20.8839C4.85054 21.1183 5.16848 21.25 5.5 21.25H23C23.3315 21.25 23.6495 21.1183 23.8839 20.8839C24.1183 20.6495 24.25 20.3315 24.25 20V10C24.25 9.66848 24.1183 9.35054 23.8839 9.11612C23.6495 8.8817 23.3315 8.75 23 8.75ZM26.75 13.75V16.25V13.75ZM8.625 12.5V17.5V12.5ZM12.375 12.5V17.5V12.5ZM16.125 12.5V17.5V12.5ZM19.875 12.5V17.5V12.5Z" fill="url(#paint0_linear_33_4122)" fill-opacity="0.25"/>
<path d="M26.75 13.75V16.25M8.625 12.5V17.5M12.375 12.5V17.5M16.125 12.5V17.5M19.875 12.5V17.5M23 8.75H5.5C5.16848 8.75 4.85054 8.8817 4.61612 9.11612C4.3817 9.35054 4.25 9.66848 4.25 10V20C4.25 20.3315 4.3817 20.6495 4.61612 20.8839C4.85054 21.1183 5.16848 21.25 5.5 21.25H23C23.3315 21.25 23.6495 21.1183 23.8839 20.8839C24.1183 20.6495 24.25 20.3315 24.25 20V10C24.25 9.66848 24.1183 9.35054 23.8839 9.11612C23.6495 8.8817 23.3315 8.75 23 8.75Z" stroke="#FBBC05" stroke-width="1.5625" stroke-linecap="round" stroke-linejoin="round"/>
<defs>
<linearGradient id="paint0_linear_33_4122" x1="15.5" y1="8.75" x2="15.5" y2="21.25" gradientUnits="userSpaceOnUse">
<stop stop-color="#FBBC05"/>
<stop offset="1" stop-color="white" stop-opacity="0"/>
</linearGradient>
</defs>
</svg>
