<svg width="80" height="80" viewBox="0 0 80 80" fill="none" xmlns="http://www.w3.org/2000/svg">
<g filter="url(#filter0_di_582_266)">
<rect x="8" y="3" width="64" height="64" rx="4" fill="url(#paint0_linear_582_266)"/>
<rect x="8.51978" y="3.51978" width="62.9604" height="62.9604" rx="3.48022" stroke="white" stroke-width="1.03957"/>
</g>
<path d="M28.2583 21C27.5668 21 27 21.568 27 22.2583V48.2798C27 48.9713 27.5668 49.5357 28.2583 49.5357H51.7417C52.4332 49.5357 53 48.9713 53 48.2798V22.2595C53 21.568 52.4332 21 51.7417 21H28.2583ZM28.2583 21.6339H51.7417C52.0928 21.6339 52.3673 21.9084 52.3673 22.2595V48.2798C52.3673 48.631 52.0928 48.903 51.7417 48.903H28.2583C28.176 48.9043 28.0944 48.8891 28.0181 48.8582C27.9419 48.8274 27.8726 48.7816 27.8144 48.7235C27.7561 48.6653 27.7102 48.5961 27.6792 48.5199C27.6482 48.4437 27.6328 48.3621 27.6339 48.2798V22.2595C27.6339 21.9084 27.9072 21.6339 28.2583 21.6339ZM36.5115 23.5346C36.4273 23.5346 36.3465 23.568 36.287 23.6276C36.2274 23.6871 36.194 23.7679 36.194 23.8521C36.194 23.9363 36.2274 24.0171 36.287 24.0767C36.3465 24.1363 36.4273 24.1697 36.5115 24.1697H37.7806C37.8648 24.1697 37.9456 24.1363 38.0052 24.0767C38.0647 24.0171 38.0982 23.9363 38.0982 23.8521C38.0982 23.7679 38.0647 23.6871 38.0052 23.6276C37.9456 23.568 37.8648 23.5346 37.7806 23.5346H36.5115ZM39.3649 23.5346C39.2806 23.5346 39.1999 23.568 39.1403 23.6276C39.0807 23.6871 39.0473 23.7679 39.0473 23.8521C39.0473 23.9363 39.0807 24.0171 39.1403 24.0767C39.1999 24.1363 39.2806 24.1697 39.3649 24.1697H40.6327C40.717 24.1697 40.7977 24.1363 40.8573 24.0767C40.9169 24.0171 40.9503 23.9363 40.9503 23.8521C40.9503 23.7679 40.9169 23.6871 40.8573 23.6276C40.7977 23.568 40.717 23.5346 40.6327 23.5346H39.3649ZM42.2206 23.5346C42.1364 23.5346 42.0556 23.568 41.996 23.6276C41.9365 23.6871 41.903 23.7679 41.903 23.8521C41.903 23.9363 41.9365 24.0171 41.996 24.0767C42.0556 24.1363 42.1364 24.1697 42.2206 24.1697H43.4885C43.5727 24.1697 43.6535 24.1363 43.713 24.0767C43.7726 24.0171 43.806 23.9363 43.806 23.8521C43.806 23.7679 43.7726 23.6871 43.713 23.6276C43.6535 23.568 43.5727 23.5346 43.4885 23.5346H42.2206ZM30.7713 26.0727C30.0798 26.0727 29.513 26.6408 29.513 27.3322V29.7469L31.1907 28.0692C31.2412 28.0181 31.3075 27.9855 31.3789 27.9769C31.4265 27.9714 31.4747 27.9768 31.5199 27.9925C31.5652 28.0083 31.6063 28.0341 31.6401 28.068L33.953 30.3809L36.901 27.4329C36.9589 27.3766 37.036 27.3445 37.1167 27.343C37.1592 27.342 37.2015 27.3496 37.241 27.3652C37.2805 27.3809 37.3165 27.4043 37.3468 27.4341L39.0245 29.1118V27.3322C39.0245 26.6408 38.4589 26.0739 37.7674 26.0739L30.7713 26.0727ZM41.2367 26.7079C41.195 26.7099 41.1541 26.7202 41.1164 26.738C41.0786 26.7559 41.0448 26.7809 41.0167 26.8119C40.9887 26.8428 40.967 26.879 40.9529 26.9183C40.9389 26.9576 40.9327 26.9993 40.9347 27.041C40.9368 27.0827 40.947 27.1236 40.9649 27.1614C40.9827 27.1991 41.0078 27.2329 41.0388 27.261C41.0697 27.289 41.1059 27.3107 41.1452 27.3248C41.1845 27.3389 41.2262 27.3451 41.2679 27.343H43.8048C43.8891 27.343 43.9698 27.3095 44.0294 27.25C44.089 27.1904 44.1224 27.1096 44.1224 27.0254C44.1224 26.9412 44.089 26.8604 44.0294 26.8009C43.9698 26.7413 43.8891 26.7079 43.8048 26.7079H41.2679C41.2575 26.7074 41.2471 26.7074 41.2367 26.7079ZM46.3418 26.7079C46.3001 26.7077 46.2588 26.7158 46.2202 26.7316C46.1816 26.7474 46.1465 26.7707 46.1169 26.8C46.0873 26.8294 46.0638 26.8643 46.0477 26.9028C46.0316 26.9413 46.0232 26.9825 46.023 27.0242V29.5612C46.0229 29.6031 46.031 29.6446 46.047 29.6834C46.063 29.7221 46.0864 29.7573 46.1161 29.7869C46.1457 29.8166 46.1809 29.8401 46.2196 29.856C46.2584 29.872 46.2999 29.8801 46.3418 29.8799H50.1455C50.1874 29.8801 50.2289 29.872 50.2676 29.856C50.3064 29.8401 50.3416 29.8166 50.3712 29.7869C50.4009 29.7573 50.4243 29.7221 50.4403 29.6834C50.4563 29.6446 50.4644 29.6031 50.4642 29.5612V27.0242C50.4641 26.9825 50.4557 26.9413 50.4396 26.9028C50.4235 26.8643 50.4 26.8294 50.3704 26.8C50.3408 26.7707 50.3057 26.7474 50.2671 26.7316C50.2285 26.7158 50.1872 26.7077 50.1455 26.7079H46.3418ZM37.1227 28.1087L34.4024 30.8315L34.8098 31.2389C34.8413 31.2678 34.8665 31.3028 34.8841 31.3417C34.9017 31.3806 34.9113 31.4227 34.9123 31.4654C34.9132 31.5081 34.9056 31.5505 34.8898 31.5902C34.874 31.6299 34.8503 31.666 34.8202 31.6963C34.7902 31.7266 34.7543 31.7505 34.7147 31.7666C34.6752 31.7828 34.6328 31.7908 34.5901 31.7902C34.5474 31.7895 34.5053 31.7803 34.4662 31.763C34.4272 31.7457 34.392 31.7207 34.3628 31.6895L33.7349 31.0616L31.416 28.7427L29.513 30.6457V31.7914C29.513 32.4828 30.0798 33.0497 30.7713 33.0497H37.7674C38.4589 33.0497 39.0257 32.4828 39.0257 31.7914V30.0094L37.1227 28.1087ZM41.2367 29.2448C41.1525 29.2489 41.0734 29.2864 41.0167 29.3489C40.9601 29.4113 40.9306 29.4937 40.9347 29.578C40.9389 29.6622 40.9763 29.7413 41.0388 29.798C41.1012 29.8546 41.1837 29.8841 41.2679 29.8799H43.8048C43.8891 29.8799 43.9698 29.8465 44.0294 29.7869C44.089 29.7274 44.1224 29.6466 44.1224 29.5624C44.1224 29.4782 44.089 29.3974 44.0294 29.3378C43.9698 29.2783 43.8891 29.2448 43.8048 29.2448H41.2679C41.2575 29.2443 41.2471 29.2443 41.2367 29.2448ZM41.2679 31.7806C41.1837 31.7806 41.1029 31.8141 41.0433 31.8736C40.9838 31.9332 40.9503 32.0139 40.9503 32.0982C40.9503 32.1824 40.9838 32.2632 41.0433 32.3227C41.1029 32.3823 41.1837 32.4157 41.2679 32.4157H50.1455C50.2297 32.4157 50.3105 32.3823 50.37 32.3227C50.4296 32.2632 50.463 32.1824 50.463 32.0982C50.463 32.0139 50.4296 31.9332 50.37 31.8736C50.3105 31.8141 50.2297 31.7806 50.1455 31.7806H41.2679ZM37.9064 34.9515C37.8222 34.9558 37.7431 34.9934 37.6866 35.056C37.6301 35.1185 37.6008 35.201 37.605 35.2853C37.6093 35.3695 37.6469 35.4485 37.7095 35.5051C37.7721 35.5616 37.8546 35.5909 37.9388 35.5866H39.2079C39.2921 35.5866 39.3729 35.5532 39.4324 35.4936C39.492 35.4341 39.5254 35.3533 39.5254 35.2691C39.5254 35.1848 39.492 35.1041 39.4324 35.0445C39.3729 34.985 39.2921 34.9515 39.2079 34.9515H37.9388C37.928 34.951 37.9172 34.951 37.9064 34.9515ZM40.7622 34.9515C40.6779 34.9555 40.5987 34.9928 40.542 35.0551C40.4853 35.1175 40.4556 35.1998 40.4596 35.2841C40.4635 35.3683 40.5008 35.4475 40.5632 35.5042C40.6255 35.561 40.7079 35.5906 40.7921 35.5866H42.0612C42.1454 35.5866 42.2262 35.5532 42.2858 35.4936C42.3453 35.4341 42.3788 35.3533 42.3788 35.2691C42.3788 35.1848 42.3453 35.1041 42.2858 35.0445C42.2262 34.985 42.1454 34.9515 42.0612 34.9515H40.7921C40.7821 34.951 40.7721 34.951 40.7622 34.9515ZM42.5717 38.1224C42.5597 38.1217 42.5477 38.1217 42.5358 38.1224H29.8449C29.8342 38.1219 29.8234 38.1219 29.8126 38.1224C29.7328 38.1321 29.6597 38.1718 29.608 38.2333C29.5563 38.2948 29.5298 38.3736 29.5339 38.4539C29.538 38.5341 29.5724 38.6098 29.6301 38.6658C29.6878 38.7217 29.7646 38.7536 29.8449 38.7551H42.5358C42.5789 38.7605 42.6227 38.7569 42.6644 38.7446C42.7061 38.7323 42.7448 38.7116 42.7781 38.6837C42.8115 38.6559 42.8388 38.6215 42.8583 38.5826C42.8778 38.5438 42.8892 38.5014 42.8917 38.458C42.8941 38.4146 42.8877 38.3712 42.8727 38.3304C42.8577 38.2896 42.8344 38.2523 42.8044 38.2208C42.7745 38.1894 42.7383 38.1644 42.6983 38.1475C42.6583 38.1305 42.6152 38.122 42.5717 38.1224ZM50.1898 38.1224C50.1778 38.1217 50.1658 38.1217 50.1539 38.1224H45.0775C45.0667 38.1219 45.0559 38.1219 45.0452 38.1224C44.9654 38.1321 44.8923 38.1718 44.8406 38.2333C44.7888 38.2948 44.7624 38.3736 44.7665 38.4539C44.7706 38.5341 44.805 38.6098 44.8627 38.6658C44.9204 38.7217 44.9972 38.7536 45.0775 38.7551H50.1551C50.1982 38.7605 50.242 38.7569 50.2836 38.7446C50.3253 38.7323 50.3641 38.7116 50.3974 38.6837C50.4308 38.6559 50.4581 38.6215 50.4776 38.5826C50.4971 38.5438 50.5085 38.5014 50.5109 38.458C50.5134 38.4146 50.5069 38.3712 50.4919 38.3304C50.4769 38.2896 50.4537 38.2523 50.4237 38.2208C50.3937 38.1894 50.3576 38.1644 50.3176 38.1475C50.2775 38.1305 50.2345 38.122 50.191 38.1224H50.1898ZM29.8449 40.6582C29.8031 40.6582 29.7617 40.6664 29.7231 40.6825C29.6845 40.6985 29.6495 40.722 29.62 40.7516C29.5905 40.7812 29.5671 40.8164 29.5512 40.855C29.5353 40.8937 29.5272 40.9351 29.5274 40.9769V43.5115C29.5272 43.5533 29.5353 43.5948 29.5512 43.6334C29.5671 43.6721 29.5905 43.7072 29.62 43.7368C29.6495 43.7665 29.6845 43.79 29.7231 43.806C29.7617 43.822 29.8031 43.8303 29.8449 43.8303H50.1551C50.1969 43.8303 50.2382 43.822 50.2769 43.806C50.3155 43.79 50.3505 43.7665 50.38 43.7368C50.4095 43.7072 50.4329 43.6721 50.4488 43.6334C50.4647 43.5948 50.4728 43.5533 50.4726 43.5115V40.9769C50.4728 40.9351 50.4647 40.8937 50.4488 40.855C50.4329 40.8164 50.4095 40.7812 50.38 40.7516C50.3505 40.722 50.3155 40.6985 50.2769 40.6825C50.2382 40.6664 50.1969 40.6582 50.1551 40.6582H29.8449ZM39.3349 46.3673C39.2507 46.3712 39.1715 46.4085 39.1147 46.4709C39.058 46.5332 39.0283 46.6156 39.0323 46.6998C39.0363 46.784 39.0735 46.8632 39.1359 46.92C39.1983 46.9767 39.2806 47.0064 39.3649 47.0024H40.6327C40.717 47.0024 40.7977 46.9689 40.8573 46.9094C40.9169 46.8498 40.9503 46.769 40.9503 46.6848C40.9503 46.6006 40.9169 46.5198 40.8573 46.4603C40.7977 46.4007 40.717 46.3673 40.6327 46.3673H39.3649C39.3549 46.3668 39.3449 46.3668 39.3349 46.3673Z" fill="#05C067"/>
<defs>
<filter id="filter0_di_582_266" x="0.723045" y="0.92087" width="78.5539" height="78.5539" filterUnits="userSpaceOnUse" color-interpolation-filters="sRGB">
<feFlood flood-opacity="0" result="BackgroundImageFix"/>
<feColorMatrix in="SourceAlpha" type="matrix" values="0 0 0 0 0 0 0 0 0 0 0 0 0 0 0 0 0 0 127 0" result="hardAlpha"/>
<feOffset dy="5.19782"/>
<feGaussianBlur stdDeviation="3.63848"/>
<feComposite in2="hardAlpha" operator="out"/>
<feColorMatrix type="matrix" values="0 0 0 0 0 0 0 0 0 0 0 0 0 0 0 0 0 0 0.14 0"/>
<feBlend mode="normal" in2="BackgroundImageFix" result="effect1_dropShadow_582_266"/>
<feBlend mode="normal" in="SourceGraphic" in2="effect1_dropShadow_582_266" result="shape"/>
<feColorMatrix in="SourceAlpha" type="matrix" values="0 0 0 0 0 0 0 0 0 0 0 0 0 0 0 0 0 0 127 0" result="hardAlpha"/>
<feOffset dx="-304.124" dy="4.15826"/>
<feGaussianBlur stdDeviation="1.01375"/>
<feComposite in2="hardAlpha" operator="arithmetic" k2="-1" k3="1"/>
<feColorMatrix type="matrix" values="0 0 0 0 1 0 0 0 0 1 0 0 0 0 1 0 0 0 1 0"/>
<feBlend mode="normal" in2="shape" result="effect2_innerShadow_582_266"/>
</filter>
<linearGradient id="paint0_linear_582_266" x1="40" y1="3" x2="40" y2="67" gradientUnits="userSpaceOnUse">
<stop stop-color="#FAFAFA"/>
<stop offset="1" stop-color="white"/>
</linearGradient>
</defs>
</svg>
