<svg width="80" height="80" viewBox="0 0 80 80" fill="none" xmlns="http://www.w3.org/2000/svg">
<g filter="url(#filter0_di_515_544)">
<rect x="8" y="3" width="64" height="64" rx="4" fill="url(#paint0_linear_515_544)"/>
<rect x="8.51978" y="3.51978" width="62.9604" height="62.9604" rx="3.48022" stroke="white" stroke-width="1.03957"/>
</g>
<g opacity="0.9">
<path d="M58.983 42.8633V39.9249C58.5999 40.1735 58.1899 40.3761 57.7613 40.5286C56.4265 41.0218 54.6768 41.2934 52.8088 41.2934C50.9409 41.2934 49.1854 41.0218 47.8505 40.5286C47.4227 40.3761 47.0136 40.1735 46.6315 39.9249V42.9617C46.6315 43.6355 48.7348 44.8927 52.8072 44.8927C56.8797 44.8927 58.983 43.6355 58.983 42.9617V42.8633ZM52.8004 35.4306C56.8728 35.4306 59.0031 34.1733 59.0031 33.4995C59.0031 32.8256 56.8732 31.5684 52.8004 31.5684C48.7275 31.5684 46.5977 32.8255 46.5977 33.4995C46.5977 34.1734 48.728 35.4306 52.8004 35.4306Z" fill="#05C067"/>
<path d="M52.6911 45.8522C50.7822 45.8522 48.9886 45.5805 47.6246 45.087C47.1874 44.9344 46.7693 44.7317 46.3787 44.483V47.5543C46.3787 48.2285 48.5355 49.4863 52.6972 49.4863C53.7397 49.4908 54.7804 49.397 55.8053 49.2061C56.8294 49.0096 57.6803 48.7208 58.2719 48.3729C58.7411 48.0966 59 47.7986 59 47.5544V44.483C58.6085 44.7317 58.1896 44.9344 57.7516 45.087C56.3876 45.5805 54.5998 45.8522 52.6911 45.8522ZM58.9999 35.015C58.6083 35.2637 58.1893 35.4665 57.7513 35.6192C56.387 36.1126 54.5993 36.3847 52.6911 36.3847C50.7829 36.3847 48.9892 36.1129 47.6249 35.6192C47.1877 35.4665 46.7696 35.2638 46.379 35.015V38.0539C46.379 38.7281 48.5282 39.986 52.6894 39.986C56.8507 39.986 58.9999 38.7281 58.9999 38.0539V35.015ZM27.7409 26.4702C29.6892 27.1752 32.291 27.5634 35.0674 27.5634C37.8437 27.5634 40.4456 27.1751 42.3938 26.4702C44.1101 25.8492 45.1348 25.031 45.1348 24.2818C45.1348 23.5325 44.1101 22.7144 42.3938 22.0933C40.4456 21.3883 37.8437 21 35.0674 21C32.2911 21 29.6892 21.3883 27.7409 22.0933C26.0246 22.7144 25 23.5325 25 24.2818C25 25.0311 26.0246 25.8492 27.7409 26.4702ZM45.1654 38.7115V33.5778C44.4407 34.1064 43.6431 34.527 42.7975 34.8264C40.7294 35.5746 37.9777 35.9867 35.0725 35.9867C32.1672 35.9867 29.4335 35.5746 27.3654 34.8264C26.3796 34.4698 25.5868 34.0476 25.0205 33.5778V38.8632C25.0205 39.613 26.0386 40.4314 27.755 41.0522C29.7026 41.7569 32.2983 42.1449 35.0754 42.1449C37.8525 42.1449 40.4623 41.7566 42.41 41.0522C44.1256 40.4314 45.1654 39.6131 45.1654 38.8632V38.7115Z" fill="#05C067"/>
<path d="M45.2158 26.5137C44.4885 27.0372 43.6879 27.4537 42.8392 27.7502C40.7632 28.4915 38.0019 28.8997 35.0874 28.8997C32.1728 28.8997 29.4295 28.4911 27.3535 27.7502C26.3645 27.3968 25.5683 26.979 25 26.5137V31.7481C25 32.4906 26.0217 33.3008 27.7442 33.9156C29.6986 34.6134 32.3034 34.9976 35.0903 34.9976C37.8771 34.9976 40.4962 34.6131 42.4507 33.9156C44.1727 33.3008 45.2162 32.4906 45.2162 31.7481L45.2158 26.5137ZM35.0874 43.3384C32.172 43.3384 29.4286 42.9304 27.3532 42.1895C26.364 41.8364 25.5683 41.4184 25 40.9531V46.237C25 46.9795 26.0217 47.7897 27.7442 48.4044C29.6986 49.1022 32.3033 49.4864 35.0903 49.4864C36.7331 49.4931 38.3729 49.3483 39.9884 49.0539C43.0556 48.4733 45.2158 47.3146 45.2158 46.2366V40.9531C44.4886 41.4766 43.6881 41.8931 42.8395 42.1895C40.7642 42.9304 38.0028 43.3384 35.0874 43.3384Z" fill="#05C067"/>
</g>
<defs>
<filter id="filter0_di_515_544" x="0.723045" y="0.92087" width="78.5539" height="78.5539" filterUnits="userSpaceOnUse" color-interpolation-filters="sRGB">
<feFlood flood-opacity="0" result="BackgroundImageFix"/>
<feColorMatrix in="SourceAlpha" type="matrix" values="0 0 0 0 0 0 0 0 0 0 0 0 0 0 0 0 0 0 127 0" result="hardAlpha"/>
<feOffset dy="5.19782"/>
<feGaussianBlur stdDeviation="3.63848"/>
<feComposite in2="hardAlpha" operator="out"/>
<feColorMatrix type="matrix" values="0 0 0 0 0 0 0 0 0 0 0 0 0 0 0 0 0 0 0.14 0"/>
<feBlend mode="normal" in2="BackgroundImageFix" result="effect1_dropShadow_515_544"/>
<feBlend mode="normal" in="SourceGraphic" in2="effect1_dropShadow_515_544" result="shape"/>
<feColorMatrix in="SourceAlpha" type="matrix" values="0 0 0 0 0 0 0 0 0 0 0 0 0 0 0 0 0 0 127 0" result="hardAlpha"/>
<feOffset dx="-304.124" dy="4.15826"/>
<feGaussianBlur stdDeviation="1.01375"/>
<feComposite in2="hardAlpha" operator="arithmetic" k2="-1" k3="1"/>
<feColorMatrix type="matrix" values="0 0 0 0 1 0 0 0 0 1 0 0 0 0 1 0 0 0 1 0"/>
<feBlend mode="normal" in2="shape" result="effect2_innerShadow_515_544"/>
</filter>
<linearGradient id="paint0_linear_515_544" x1="40" y1="3" x2="40" y2="67" gradientUnits="userSpaceOnUse">
<stop stop-color="#FAFAFA"/>
<stop offset="1" stop-color="white"/>
</linearGradient>
</defs>
</svg>
