<svg width="45" height="45" viewBox="0 0 45 45" fill="none" xmlns="http://www.w3.org/2000/svg">
<path d="M7.32703 42.3491H13.9147V35.7707H7.32703V42.3491ZM1.82087 30.2645V35.7708H7.32703V30.2645H1.82087ZM43.492 15.0958C41.4361 8.46352 36.1267 3.18077 29.4944 1.09824C14.2901 -3.64816 0.265625 7.65906 0.265625 22.1572H8.82878C8.82878 13.0578 17.8566 6.02324 27.4298 9.49139C30.9781 10.7696 33.8206 13.612 35.0989 17.1516C38.5937 26.7159 31.5502 35.7257 22.4598 35.7438V35.7707H22.4331V44.3336C36.9669 44.3336 48.2474 30.3181 43.492 15.0958ZM22.4598 35.7438V27.2252H13.9146V35.7707H22.433V35.7438H22.4598Z" fill="#0080FF"/>
</svg>
