<svg width="15" height="15" viewBox="0 0 15 15" fill="none" xmlns="http://www.w3.org/2000/svg">
<g clip-path="url(#clip0_75_626)">
<path d="M12.2673 3.45734C11.3725 3.04677 10.413 2.74429 9.40971 2.57104C9.39144 2.5677 9.37319 2.57605 9.36378 2.59276C9.24038 2.81225 9.10369 3.09858 9.00797 3.32363C7.92891 3.16209 6.8554 3.16209 5.79847 3.32363C5.70273 3.09358 5.56108 2.81225 5.43712 2.59276C5.42771 2.57661 5.40946 2.56825 5.39119 2.57104C4.3885 2.74373 3.42898 3.04622 2.53364 3.45734C2.52589 3.46068 2.51924 3.46626 2.51483 3.47349C0.69482 6.19256 0.196242 8.84478 0.440828 11.4641C0.441935 11.4769 0.449128 11.4892 0.459089 11.497C1.65988 12.3788 2.82306 12.9142 3.96463 13.269C3.9829 13.2746 4.00226 13.2679 4.01388 13.2529C4.28392 12.8841 4.52464 12.4953 4.73103 12.0864C4.74321 12.0624 4.73158 12.034 4.70669 12.0245C4.32487 11.8797 3.96131 11.7031 3.61158 11.5026C3.58392 11.4864 3.58171 11.4468 3.60715 11.4279C3.68075 11.3728 3.75436 11.3154 3.82464 11.2574C3.83735 11.2469 3.85507 11.2446 3.87001 11.2513C6.16756 12.3003 8.65492 12.3003 10.9254 11.2513C10.9403 11.2441 10.958 11.2463 10.9713 11.2569C11.0416 11.3148 11.1152 11.3728 11.1893 11.4279C11.2148 11.4468 11.2131 11.4864 11.1854 11.5026C10.8357 11.707 10.4722 11.8797 10.0898 12.024C10.0649 12.0335 10.0538 12.0624 10.066 12.0864C10.2768 12.4947 10.5175 12.8835 10.7826 13.2523C10.7937 13.2679 10.8136 13.2746 10.8318 13.269C11.979 12.9142 13.1421 12.3788 14.3429 11.497C14.3534 11.4892 14.3601 11.4775 14.3612 11.4647C14.6539 8.43643 13.8709 5.80595 12.2855 3.47405C12.2816 3.46626 12.275 3.46068 12.2673 3.45734ZM5.07413 9.86922C4.38241 9.86922 3.81246 9.23417 3.81246 8.45427C3.81246 7.67436 4.37136 7.03931 5.07413 7.03931C5.78242 7.03931 6.34686 7.67994 6.33578 8.45427C6.33578 9.23417 5.77688 9.86922 5.07413 9.86922ZM9.73895 9.86922C9.04725 9.86922 8.4773 9.23417 8.4773 8.45427C8.4773 7.67436 9.03618 7.03931 9.73895 7.03931C10.4473 7.03931 11.0117 7.67994 11.0006 8.45427C11.0006 9.23417 10.4473 9.86922 9.73895 9.86922Z" fill="#05C067"/>
</g>
<defs>
<clipPath id="clip0_75_626">
<rect width="14.1674" height="14.1674" fill="white" transform="translate(0.320312 0.396484)"/>
</clipPath>
</defs>
</svg>
