<svg width="16" height="12" viewBox="0 0 16 12" fill="none" xmlns="http://www.w3.org/2000/svg">
<path d="M7.99817 5.03429L15.301 0.342857C15.0074 0.122637 14.6509 0.00245774 14.2839 0H1.71246C1.34545 0.00245774 0.988917 0.122637 0.695312 0.342857L7.99817 5.03429Z" fill="#05C067"/>
<path d="M8.30857 6.19387L8.21143 6.23959H8.16572C8.1131 6.26309 8.05723 6.27851 8 6.2853C7.95257 6.29128 7.90457 6.29128 7.85714 6.2853H7.81143L7.71429 6.23959L0.0571428 1.29102C0.0205589 1.42904 0.00136269 1.57109 0 1.71387V9.71387C0 10.1685 0.180612 10.6046 0.502103 10.9261C0.823594 11.2475 1.25963 11.4282 1.71429 11.4282H14.2857C14.7404 11.4282 15.1764 11.2475 15.4979 10.9261C15.8194 10.6046 16 10.1685 16 9.71387V1.71387C15.9986 1.57109 15.9794 1.42904 15.9429 1.29102L8.30857 6.19387Z" fill="#05C067"/>
</svg>
