<svg width="80" height="80" viewBox="0 0 80 80" fill="none" xmlns="http://www.w3.org/2000/svg">
<g filter="url(#filter0_di_582_265)">
<rect x="8" y="3" width="64" height="64" rx="4" fill="url(#paint0_linear_582_265)"/>
<rect x="8.51978" y="3.51978" width="62.9604" height="62.9604" rx="3.48022" stroke="white" stroke-width="1.03957"/>
</g>
<path d="M39.4991 38.6413C39.2059 38.6413 38.9247 38.5248 38.7173 38.3174C38.51 38.1101 38.3935 37.8289 38.3935 37.5356C38.3828 36.6435 38.695 35.7777 39.2725 35.0977C39.3554 35.0092 39.4715 34.9042 39.6097 34.777C40.2952 34.1634 41.7104 32.8808 41.7104 31.4601C41.73 31.1646 41.6862 30.8684 41.582 30.5913C41.4777 30.3141 41.3155 30.0624 41.1061 29.853C40.8968 29.6437 40.6451 29.4814 40.3679 29.3772C40.0908 29.273 39.7946 29.2292 39.4991 29.2488C39.2037 29.2292 38.9075 29.273 38.6303 29.3772C38.3532 29.4814 38.1015 29.6437 37.8921 29.853C37.6827 30.0624 37.5205 30.3141 37.4163 30.5913C37.3121 30.8684 37.2683 31.1646 37.2878 31.4601C37.2878 31.7533 37.1713 32.0345 36.964 32.2419C36.7566 32.4492 36.4754 32.5657 36.1822 32.5657C35.8889 32.5657 35.6077 32.4492 35.4004 32.2419C35.193 32.0345 35.0765 31.7533 35.0765 31.4601C35.0573 30.8741 35.1585 30.2904 35.374 29.7451C35.5894 29.1999 35.9145 28.7046 36.3291 28.29C36.7437 27.8755 37.2389 27.5504 37.7842 27.3349C38.3295 27.1195 38.9131 27.0182 39.4991 27.0375C40.0851 27.0182 40.6688 27.1195 41.2141 27.3349C41.7593 27.5504 42.2546 27.8755 42.6692 28.29C43.0837 28.7046 43.4088 29.1999 43.6243 29.7451C43.8397 30.2904 43.941 30.8741 43.9217 31.4601C43.9217 33.8649 42.0145 35.5952 41.0968 36.4355L40.8314 36.6732C40.6795 36.943 40.6014 37.2481 40.6048 37.5577C40.599 37.8471 40.48 38.1227 40.2732 38.3253C40.0665 38.5279 39.7886 38.6413 39.4991 38.6413ZM39.4991 41.9638C39.2072 41.964 38.9269 41.8487 38.7196 41.6431C38.616 41.5403 38.5338 41.418 38.4776 41.2833C38.4215 41.1486 38.3926 41.0041 38.3926 40.8581C38.3926 40.7121 38.4215 40.5676 38.4776 40.4329C38.5338 40.2982 38.616 40.1759 38.7196 40.0731C38.9314 39.8761 39.2099 39.7666 39.4991 39.7666C39.7884 39.7666 40.0669 39.8761 40.2786 40.0731C40.3309 40.1249 40.3773 40.1824 40.4168 40.2445C40.4572 40.304 40.4923 40.3669 40.5219 40.4324C40.5479 40.5006 40.5683 40.5709 40.5827 40.6425C40.6122 40.7847 40.6122 40.9315 40.5827 41.0737C40.5683 41.1435 40.5479 41.2119 40.5219 41.2782C40.4934 41.3461 40.4582 41.4109 40.4168 41.4717C40.3773 41.5338 40.3309 41.5913 40.2786 41.6431C40.0713 41.8487 39.7911 41.964 39.4991 41.9638Z" fill="#05C067"/>
<path d="M43.0491 48H35.9509C33.3117 48 30.7807 46.9516 28.9145 45.0855C27.0484 43.2193 26 40.6883 26 38.0491V30.9509C26 28.3117 27.0484 25.7807 28.9145 23.9145C30.7807 22.0484 33.3117 21 35.9509 21H43.0491C45.6883 21 48.2193 22.0484 50.0855 23.9145C51.9516 25.7807 53 28.3117 53 30.9509V38.0491C53 40.6883 51.9516 43.2193 50.0855 45.0855C48.2193 46.9516 45.6883 48 43.0491 48ZM35.9509 23.2113C33.8982 23.2113 31.9296 24.0267 30.4782 25.4782C29.0267 26.9296 28.2113 28.8982 28.2113 30.9509V38.0491C28.2113 40.1018 29.0267 42.0704 30.4782 43.5218C31.9296 44.9733 33.8982 45.7887 35.9509 45.7887H43.0491C45.1018 45.7887 47.0704 44.9733 48.5218 43.5218C49.9733 42.0704 50.7887 40.1018 50.7887 38.0491V30.9509C50.7887 28.8982 49.9733 26.9296 48.5218 25.4782C47.0704 24.0267 45.1018 23.2113 43.0491 23.2113H35.9509Z" fill="#05C067"/>
<defs>
<filter id="filter0_di_582_265" x="0.723045" y="0.92087" width="78.5539" height="78.5539" filterUnits="userSpaceOnUse" color-interpolation-filters="sRGB">
<feFlood flood-opacity="0" result="BackgroundImageFix"/>
<feColorMatrix in="SourceAlpha" type="matrix" values="0 0 0 0 0 0 0 0 0 0 0 0 0 0 0 0 0 0 127 0" result="hardAlpha"/>
<feOffset dy="5.19782"/>
<feGaussianBlur stdDeviation="3.63848"/>
<feComposite in2="hardAlpha" operator="out"/>
<feColorMatrix type="matrix" values="0 0 0 0 0 0 0 0 0 0 0 0 0 0 0 0 0 0 0.14 0"/>
<feBlend mode="normal" in2="BackgroundImageFix" result="effect1_dropShadow_582_265"/>
<feBlend mode="normal" in="SourceGraphic" in2="effect1_dropShadow_582_265" result="shape"/>
<feColorMatrix in="SourceAlpha" type="matrix" values="0 0 0 0 0 0 0 0 0 0 0 0 0 0 0 0 0 0 127 0" result="hardAlpha"/>
<feOffset dx="-304.124" dy="4.15826"/>
<feGaussianBlur stdDeviation="1.01375"/>
<feComposite in2="hardAlpha" operator="arithmetic" k2="-1" k3="1"/>
<feColorMatrix type="matrix" values="0 0 0 0 1 0 0 0 0 1 0 0 0 0 1 0 0 0 1 0"/>
<feBlend mode="normal" in2="shape" result="effect2_innerShadow_582_265"/>
</filter>
<linearGradient id="paint0_linear_582_265" x1="40" y1="3" x2="40" y2="67" gradientUnits="userSpaceOnUse">
<stop stop-color="#FAFAFA"/>
<stop offset="1" stop-color="white"/>
</linearGradient>
</defs>
</svg>
