<svg width="30" height="45" viewBox="0 0 30 45" fill="none" xmlns="http://www.w3.org/2000/svg">
<path d="M7.61097 44.3294C11.6893 44.3294 14.9993 41.0194 14.9993 36.941V29.5527H7.61097C3.53262 29.5527 0.222656 32.8627 0.222656 36.941C0.222656 41.0194 3.53262 44.3294 7.61097 44.3294Z" fill="#0ACF83"/>
<path d="M0.222656 22.1657C0.222656 18.0873 3.53262 14.7773 7.61097 14.7773H14.9993V29.554H7.61097C3.53262 29.554 0.222656 26.244 0.222656 22.1657Z" fill="#A259FF"/>
<path d="M0.222656 7.38831C0.222656 3.30996 3.53262 0 7.61097 0H14.9993V14.7766H7.61097C3.53262 14.7766 0.222656 11.4667 0.222656 7.38831Z" fill="#F24E1E"/>
<path d="M15 0H22.3883C26.4667 0 29.7766 3.30996 29.7766 7.38831C29.7766 11.4667 26.4667 14.7766 22.3883 14.7766H15V0Z" fill="#FF7262"/>
<path d="M29.7766 22.1657C29.7766 26.244 26.4667 29.554 22.3883 29.554C18.31 29.554 15 26.244 15 22.1657C15 18.0873 18.31 14.7773 22.3883 14.7773C26.4667 14.7773 29.7766 18.0873 29.7766 22.1657Z" fill="#1ABCFE"/>
</svg>
