<svg width="91" height="18" viewBox="0 0 91 18" fill="none" xmlns="http://www.w3.org/2000/svg">
<rect width="16.6892" height="16.6892" transform="translate(0.152344 0.65625)" fill="url(#paint0_linear_33_3898)"/>
<path d="M8.49747 12.0689L11.0356 11.3893L12.0961 14.8426L8.49747 12.0689ZM14.3387 7.60536H9.87085L8.49747 3.16016L7.12409 7.60536H2.65625L6.27225 10.3607L4.89886 14.8059L8.51486 12.0506L10.7401 10.3607L14.3387 7.60536Z" fill="white"/>
<rect width="16.6892" height="16.6892" transform="translate(18.5117 0.65625)" fill="url(#paint1_linear_33_3898)"/>
<path d="M26.8568 12.0689L29.395 11.3893L30.4555 14.8426L26.8568 12.0689ZM32.6981 7.60536H28.2302L26.8568 3.16016L25.4835 7.60536H21.0156L24.6316 10.3607L23.2582 14.8059L26.8742 12.0506L29.0995 10.3607L32.6981 7.60536Z" fill="white"/>
<rect width="16.6892" height="16.6892" transform="translate(36.8672 0.65625)" fill="url(#paint2_linear_33_3898)"/>
<path d="M45.2123 12.0689L47.7505 11.3893L48.8109 14.8426L45.2123 12.0689ZM51.0535 7.60536H46.5857L45.2123 3.16016L43.8389 7.60536H39.3711L42.9871 10.3607L41.6137 14.8059L45.2297 12.0506L47.4549 10.3607L51.0535 7.60536Z" fill="white"/>
<rect width="16.6892" height="16.6892" transform="translate(55.2266 0.65625)" fill="url(#paint3_linear_33_3898)"/>
<path d="M63.5717 12.0689L66.1098 11.3893L67.1703 14.8426L63.5717 12.0689ZM69.4129 7.60536H64.9451L63.5717 3.16016L62.1983 7.60536H57.7305L61.3465 10.3607L59.9731 14.8059L63.5891 12.0506L65.8143 10.3607L69.4129 7.60536Z" fill="white"/>
<rect width="16.6892" height="16.6892" transform="translate(73.5859 0.65625)" fill="url(#paint4_linear_33_3898)"/>
<path d="M81.9311 12.0689L84.4692 11.3893L85.5297 14.8426L81.9311 12.0689ZM87.7723 7.60536H83.3044L81.9311 3.16016L80.5577 7.60536H76.0898L79.7058 10.3607L78.3325 14.8059L81.9485 12.0506L84.1737 10.3607L87.7723 7.60536Z" fill="white"/>
<defs>
<linearGradient id="paint0_linear_33_3898" x1="-3.76722" y1="-2.22793" x2="19.6868" y2="19.8893" gradientUnits="userSpaceOnUse">
<stop stop-color="#05C067"/>
<stop offset="1" stop-color="#50EA48"/>
</linearGradient>
<linearGradient id="paint1_linear_33_3898" x1="-3.76722" y1="-2.22793" x2="19.6868" y2="19.8893" gradientUnits="userSpaceOnUse">
<stop stop-color="#05C067"/>
<stop offset="1" stop-color="#50EA48"/>
</linearGradient>
<linearGradient id="paint2_linear_33_3898" x1="-3.76722" y1="-2.22793" x2="19.6868" y2="19.8893" gradientUnits="userSpaceOnUse">
<stop stop-color="#05C067"/>
<stop offset="1" stop-color="#50EA48"/>
</linearGradient>
<linearGradient id="paint3_linear_33_3898" x1="-3.76722" y1="-2.22793" x2="19.6868" y2="19.8893" gradientUnits="userSpaceOnUse">
<stop stop-color="#05C067"/>
<stop offset="1" stop-color="#50EA48"/>
</linearGradient>
<linearGradient id="paint4_linear_33_3898" x1="-3.76722" y1="-2.22793" x2="19.6868" y2="19.8893" gradientUnits="userSpaceOnUse">
<stop stop-color="#05C067"/>
<stop offset="1" stop-color="#50EA48"/>
</linearGradient>
</defs>
</svg>
