<svg width="61" height="57" viewBox="0 0 61 57" fill="none" xmlns="http://www.w3.org/2000/svg">
<g filter="url(#filter0_d_37_4288)">
<path d="M30.2519 47.616L38.3707 22.6289H22.1328L30.2517 47.616H30.2519Z" fill="#E24329"/>
<path d="M30.2434 47.616L22.1243 22.6289H10.7461L30.2434 47.616Z" fill="#FC6D26"/>
<path d="M10.7488 22.6289L8.28162 30.2224C8.05658 30.915 8.30304 31.6736 8.89212 32.1017L30.2461 47.6162L10.7486 22.6291L10.7488 22.6289Z" fill="#FCA326"/>
<path d="M10.7461 22.6311H22.1248L17.2349 7.58077C16.9832 6.80632 15.8877 6.80649 15.6362 7.58077L10.7461 22.6311Z" fill="#E24329"/>
<path d="M30.2463 47.616L38.3651 22.6289H49.7435L30.2461 47.616H30.2463Z" fill="#FC6D26"/>
<path d="M49.7434 22.6289L52.2105 30.2224C52.4355 30.915 52.189 31.6737 51.5999 32.1017L30.2461 47.6162L49.7434 22.6289Z" fill="#FCA326"/>
<path d="M49.7383 22.6311H38.3594L43.2495 7.58077C43.5011 6.80632 44.5967 6.80649 44.8482 7.58077L49.7383 22.6311Z" fill="#E24329"/>
</g>
<defs>
<filter id="filter0_d_37_4288" x="0.199219" y="0" width="60.0938" height="56.6152" filterUnits="userSpaceOnUse" color-interpolation-filters="sRGB">
<feFlood flood-opacity="0" result="BackgroundImageFix"/>
<feColorMatrix in="SourceAlpha" type="matrix" values="0 0 0 0 0 0 0 0 0 0 0 0 0 0 0 0 0 0 127 0" result="hardAlpha"/>
<feOffset dy="1"/>
<feGaussianBlur stdDeviation="4"/>
<feColorMatrix type="matrix" values="0 0 0 0 0.988235 0 0 0 0 0.427451 0 0 0 0 0.14902 0 0 0 0.24 0"/>
<feBlend mode="normal" in2="BackgroundImageFix" result="effect1_dropShadow_37_4288"/>
<feBlend mode="normal" in="SourceGraphic" in2="effect1_dropShadow_37_4288" result="shape"/>
</filter>
</defs>
</svg>
