<svg width="80" height="80" viewBox="0 0 80 80" fill="none" xmlns="http://www.w3.org/2000/svg">
<g filter="url(#filter0_di_582_260)">
<rect x="8" y="3" width="64" height="64" rx="4" fill="url(#paint0_linear_582_260)"/>
<rect x="8.51978" y="3.51978" width="62.9604" height="62.9604" rx="3.48022" stroke="white" stroke-width="1.03957"/>
</g>
<path d="M52.0516 43.6704H51.2785V43.0409H52.0516V43.6704ZM50.61 43.0409H49.8367V43.6704H50.61V43.0409ZM52.0516 41.5889H51.2785V42.2184H52.0516V41.5889ZM39.5637 45.4888H40.3512V44.8593H39.5637V45.4888ZM38.0954 45.4888H38.8829V44.8593H38.0954V45.4888ZM36.6271 45.4888H37.4146V44.8593H36.6271V45.4888ZM35.1588 45.4888H35.9463V44.8593H35.1588V45.4888ZM26.9072 46.158H27.5367V45.0705H26.9072V46.158ZM24.9827 44.1539H25.6122V43.0662H24.9827V44.1539ZM54 19V50.3689H32.7927C32.06 50.3681 31.3575 50.0767 30.8394 49.5586C30.3213 49.0405 30.0299 48.3381 30.0291 47.6054V41.8041H29.3861V47.2888H28.7566V41.489H28.7643V40.1151C28.3425 40.0142 27.9314 39.873 27.5367 39.6934V44.0759H26.9072V39.3695C26.8566 39.34 26.8043 39.3142 26.7544 39.2833L25.6122 40.4258V42.0718H24.9827V39.899L23.3269 38.2432L24.5207 37.0497C24.1367 36.429 23.8559 35.7503 23.689 35.0398H22V31.8806H23.689C23.8558 31.17 24.1367 30.4912 24.5207 29.8704L23.3269 28.6769L25.5609 26.4433L26.7544 27.6368C27.375 27.2528 28.0538 26.9719 28.7643 26.805V25.116H30.0291V21.7636C30.0299 21.0309 30.3213 20.3284 30.8394 19.8103C31.3575 19.2922 32.06 19.0008 32.7927 19H54ZM30.2606 36.1337C30.7993 36.1337 31.326 35.974 31.7739 35.6747C32.2218 35.3754 32.571 34.9499 32.7771 34.4522C32.9833 33.9545 33.0373 33.4068 32.9321 32.8784C32.827 32.35 32.5676 31.8647 32.1867 31.4837C31.8057 31.1028 31.3204 30.8433 30.792 30.7382C30.2636 30.6331 29.7159 30.6871 29.2182 30.8932C28.7204 31.0994 28.295 31.4485 27.9957 31.8965C27.6964 32.3444 27.5367 32.8711 27.5367 33.4098C27.5374 34.132 27.8247 34.8244 28.3353 35.3351C28.846 35.8457 29.5384 36.133 30.2606 36.1337ZM53.3705 19.6295H32.7927C32.2269 19.6302 31.6845 19.8552 31.2844 20.2553C30.8844 20.6554 30.6593 21.1978 30.6586 21.7636V25.116H31.9234V26.805C32.6341 26.9718 33.3129 27.2527 33.9336 27.6368L35.1272 26.4433L37.3608 28.6769L36.1673 29.8704C36.5514 30.4912 36.8323 31.17 36.999 31.8806H38.688V35.0398H36.999C36.8322 35.7503 36.5513 36.429 36.1673 37.0497L37.3608 38.2432L35.1272 40.4772L33.9336 39.2833C33.3129 39.6674 32.6341 39.9483 31.9234 40.1151V41.8041H30.6586V45.8715C30.915 45.5516 31.2397 45.2931 31.609 45.115C31.9783 44.9369 32.3827 44.8436 32.7927 44.8422H34.4774V45.4717H32.7927C32.5121 45.4712 32.2343 45.526 31.9749 45.633C31.7156 45.7401 31.4799 45.8972 31.2814 46.0954C31.0829 46.2936 30.9254 46.529 30.8179 46.7881C30.7104 47.0473 30.6551 47.325 30.6551 47.6056C30.6551 47.8861 30.7104 48.1639 30.8179 48.423C30.9254 48.6822 31.0829 48.9176 31.2814 49.1158C31.4799 49.314 31.7156 49.4711 31.9749 49.5781C32.2343 49.6851 32.5121 49.74 32.7927 49.7395H53.3705V48.7018H48.1624V48.0723H53.3705V46.9304H50.7677V46.3009H53.3705V45.4716H41.0247V44.8421H53.3705V19.6295ZM49.083 29.9163H42.5474V30.5457H49.083L49.083 29.9163ZM41.2199 29.9163H39.9575V30.5457H41.2199L41.2199 29.9163ZM49.083 31.5656H39.9575V32.1951H49.083V31.5656ZM49.415 28.0622H37.0999V23.9102H49.415V28.0622ZM48.7855 24.5397H37.7294V27.4327H48.7855V24.5397Z" fill="#05C067"/>
<defs>
<filter id="filter0_di_582_260" x="0.723045" y="0.92087" width="78.5539" height="78.5539" filterUnits="userSpaceOnUse" color-interpolation-filters="sRGB">
<feFlood flood-opacity="0" result="BackgroundImageFix"/>
<feColorMatrix in="SourceAlpha" type="matrix" values="0 0 0 0 0 0 0 0 0 0 0 0 0 0 0 0 0 0 127 0" result="hardAlpha"/>
<feOffset dy="5.19782"/>
<feGaussianBlur stdDeviation="3.63848"/>
<feComposite in2="hardAlpha" operator="out"/>
<feColorMatrix type="matrix" values="0 0 0 0 0 0 0 0 0 0 0 0 0 0 0 0 0 0 0.14 0"/>
<feBlend mode="normal" in2="BackgroundImageFix" result="effect1_dropShadow_582_260"/>
<feBlend mode="normal" in="SourceGraphic" in2="effect1_dropShadow_582_260" result="shape"/>
<feColorMatrix in="SourceAlpha" type="matrix" values="0 0 0 0 0 0 0 0 0 0 0 0 0 0 0 0 0 0 127 0" result="hardAlpha"/>
<feOffset dx="-304.124" dy="4.15826"/>
<feGaussianBlur stdDeviation="1.01375"/>
<feComposite in2="hardAlpha" operator="arithmetic" k2="-1" k3="1"/>
<feColorMatrix type="matrix" values="0 0 0 0 1 0 0 0 0 1 0 0 0 0 1 0 0 0 1 0"/>
<feBlend mode="normal" in2="shape" result="effect2_innerShadow_582_260"/>
</filter>
<linearGradient id="paint0_linear_582_260" x1="40" y1="3" x2="40" y2="67" gradientUnits="userSpaceOnUse">
<stop stop-color="#FAFAFA"/>
<stop offset="1" stop-color="white"/>
</linearGradient>
</defs>
</svg>
