<svg width="80" height="80" viewBox="0 0 80 80" fill="none" xmlns="http://www.w3.org/2000/svg">
<g filter="url(#filter0_di_582_259)">
<rect x="8" y="3" width="64" height="64" rx="4" fill="url(#paint0_linear_582_259)"/>
<rect x="8.51978" y="3.51978" width="62.9604" height="62.9604" rx="3.48022" stroke="white" stroke-width="1.03957"/>
</g>
<path d="M52.8988 45.0627C52.3157 45.0627 51.759 45.2217 51.2819 45.5398L45.212 39.4434C45.7157 38.8602 46.1398 38.1976 46.4313 37.4554C46.4843 37.3229 46.5373 37.1904 46.5904 37.0578C46.8024 36.4217 46.9614 35.7855 47.0145 35.0964H49.7976C50.0892 36.4217 51.2554 37.4289 52.6867 37.4289C54.3036 37.4289 55.6289 36.1036 55.6289 34.4867C55.6289 32.8699 54.3036 31.5446 52.6867 31.5446C51.2554 31.5446 50.0892 32.5518 49.7976 33.8771H47.041C46.988 33.2145 46.8554 32.5518 46.6169 31.9157C46.5639 31.7831 46.5108 31.6506 46.4578 31.5181C46.1398 30.7759 45.7422 30.1133 45.2386 29.5301L51.3349 23.4602C51.812 23.7783 52.3687 23.9373 52.9518 23.9373C53.747 23.9373 54.4892 23.6193 55.0458 23.0627C55.6024 22.506 55.9205 21.7639 55.9205 20.9687C55.9205 20.1735 55.6024 19.4313 55.0458 18.8747C54.4892 18.3181 53.747 18 52.9518 18C52.1566 18 51.4145 18.3181 50.8578 18.8747C50.3012 19.4313 49.9831 20.1735 49.9831 20.9687C49.9831 21.5518 50.1422 22.1084 50.4602 22.5855L44.3639 28.6554C43.1711 27.6217 41.6602 26.9855 40.0169 26.853V24.1494C41.3422 23.8578 42.3494 22.6916 42.3494 21.2602C42.3494 19.6434 41.0241 18.3181 39.4072 18.3181C37.7904 18.3181 36.4651 19.6434 36.4651 21.2602C36.4651 22.6916 37.4723 23.8578 38.7976 24.1494V26.9325C37.1807 27.0651 35.6699 27.7012 34.4506 28.7349L28.3807 22.6386C28.6988 22.1614 28.8578 21.6048 28.8578 21.0217C28.8578 20.2265 28.5398 19.4843 27.9831 18.9277C27.506 18.3711 26.7639 18.0795 25.9687 18.0795C25.1735 18.0795 24.4313 18.3711 23.8747 18.9277C23.3181 19.4843 23 20.2265 23 21.0217C23 21.8169 23.3181 22.559 23.8747 23.1157C24.4313 23.6723 25.1735 23.9904 25.9687 23.9904C26.5518 23.9904 27.1084 23.8313 27.5855 23.5133L33.6554 29.6096C33.1518 30.1928 32.7277 30.8554 32.4361 31.5976C32.3831 31.7301 32.3301 31.8627 32.2771 31.9952C32.0651 32.6313 31.906 33.2675 31.853 33.9566H29.0699C28.7783 32.6313 27.612 31.6241 26.1807 31.6241C24.5639 31.6241 23.2386 32.9494 23.2386 34.5663C23.2386 36.1831 24.5639 37.5084 26.1807 37.5084C27.612 37.5084 28.7783 36.5012 29.0699 35.1759H31.853C31.906 35.8386 32.0386 36.5012 32.2771 37.1374C32.3301 37.2699 32.3831 37.4024 32.4361 37.5349C32.7542 38.2771 33.1518 38.9398 33.6554 39.5229L27.559 45.5928C27.0819 45.2747 26.5253 45.1157 25.9422 45.1157C25.147 45.1157 24.4048 45.4337 23.8482 45.9904C23.2916 46.441 23 47.1831 23 47.9783C23 48.7735 23.3181 49.5157 23.8747 50.0723C24.4313 50.6289 25.1735 50.947 25.9687 50.947C26.7639 50.947 27.506 50.6289 28.0627 50.0723C28.6193 49.5157 28.9373 48.7735 28.9373 47.9783C28.9373 47.3952 28.7783 46.8386 28.4602 46.3614L34.5566 40.2916C35.7494 41.3253 37.2602 41.9614 38.9036 42.094V44.8771C37.5783 45.1687 36.5711 46.3349 36.5711 47.7663C36.5711 49.3831 37.8964 50.7084 39.5133 50.7084C41.1301 50.7084 42.4554 49.3831 42.4554 47.7663C42.4554 46.3349 41.4482 45.1687 40.1229 44.8771V42.1205C41.7398 41.988 43.2506 41.3518 44.4699 40.3181L50.5398 46.4145C50.2217 46.8916 50.0627 47.4482 50.0627 48.0313C50.0627 48.8265 50.3807 49.5687 50.9374 50.1253C51.494 50.6819 52.2361 51 53.0313 51C53.8265 51 54.5687 50.6819 55.1253 50.1253C55.6819 49.5687 56 48.8265 56 48.0313C56 47.2361 55.6819 46.494 55.1253 45.9374C54.4361 45.3807 53.694 45.0627 52.8988 45.0627ZM51.706 19.8024C52.0506 19.4578 52.4747 19.2988 52.9518 19.2988C53.4289 19.2988 53.853 19.4843 54.1976 19.8024C54.8867 20.4916 54.8867 21.5783 54.1976 22.2675C53.853 22.612 53.4289 22.7711 52.9518 22.7711C52.4747 22.7711 52.0506 22.5855 51.706 22.2675C51.0169 21.6048 51.0169 20.4916 51.706 19.8024ZM27.2145 22.241C26.5253 22.9301 25.412 22.9301 24.7494 22.241C24.4048 21.8964 24.2458 21.4723 24.2458 20.9952C24.2458 20.5181 24.4313 20.094 24.7494 19.7494C25.4386 19.0602 26.5253 19.0602 27.2145 19.7494C27.559 20.094 27.7181 20.5181 27.7181 20.9952C27.7181 21.4723 27.5325 21.9229 27.2145 22.241ZM27.1614 49.2241C26.8169 49.5687 26.3928 49.7277 25.9157 49.7277C25.4386 49.7277 25.0145 49.5422 24.6699 49.2241C23.9807 48.5349 23.9807 47.4482 24.6699 46.759C25.0145 46.4145 25.4386 46.2554 25.9157 46.2554C26.3928 46.2554 26.8169 46.441 27.1614 46.759C27.8506 47.4217 27.8506 48.5349 27.1614 49.2241ZM54.1446 49.2506C53.4554 49.9398 52.3687 49.9398 51.6795 49.2506C51.3349 48.906 51.1759 48.4819 51.1759 48.0048C51.1759 47.5277 51.3614 47.1036 51.6795 46.759C52.3687 46.0699 53.4819 46.0699 54.1446 46.759C54.4892 47.1036 54.6482 47.5277 54.6482 48.0048C54.6482 48.4819 54.4627 48.9325 54.1446 49.2506Z" fill="#05C067"/>
<defs>
<filter id="filter0_di_582_259" x="0.723045" y="0.92087" width="78.5539" height="78.5539" filterUnits="userSpaceOnUse" color-interpolation-filters="sRGB">
<feFlood flood-opacity="0" result="BackgroundImageFix"/>
<feColorMatrix in="SourceAlpha" type="matrix" values="0 0 0 0 0 0 0 0 0 0 0 0 0 0 0 0 0 0 127 0" result="hardAlpha"/>
<feOffset dy="5.19782"/>
<feGaussianBlur stdDeviation="3.63848"/>
<feComposite in2="hardAlpha" operator="out"/>
<feColorMatrix type="matrix" values="0 0 0 0 0 0 0 0 0 0 0 0 0 0 0 0 0 0 0.14 0"/>
<feBlend mode="normal" in2="BackgroundImageFix" result="effect1_dropShadow_582_259"/>
<feBlend mode="normal" in="SourceGraphic" in2="effect1_dropShadow_582_259" result="shape"/>
<feColorMatrix in="SourceAlpha" type="matrix" values="0 0 0 0 0 0 0 0 0 0 0 0 0 0 0 0 0 0 127 0" result="hardAlpha"/>
<feOffset dx="-304.124" dy="4.15826"/>
<feGaussianBlur stdDeviation="1.01375"/>
<feComposite in2="hardAlpha" operator="arithmetic" k2="-1" k3="1"/>
<feColorMatrix type="matrix" values="0 0 0 0 1 0 0 0 0 1 0 0 0 0 1 0 0 0 1 0"/>
<feBlend mode="normal" in2="shape" result="effect2_innerShadow_582_259"/>
</filter>
<linearGradient id="paint0_linear_582_259" x1="40" y1="3" x2="40" y2="67" gradientUnits="userSpaceOnUse">
<stop stop-color="#FAFAFA"/>
<stop offset="1" stop-color="white"/>
</linearGradient>
</defs>
</svg>
