<svg width="80" height="80" viewBox="0 0 80 80" fill="none" xmlns="http://www.w3.org/2000/svg">
<g filter="url(#filter0_di_515_537)">
<rect x="8" y="3" width="64" height="64" rx="4" fill="url(#paint0_linear_515_537)"/>
<rect x="8.51978" y="3.51978" width="62.9604" height="62.9604" rx="3.48022" stroke="white" stroke-width="1.03957"/>
</g>
<g opacity="0.9">
<path fill-rule="evenodd" clip-rule="evenodd" d="M31.2639 21.813C27.2504 25.8265 26.7929 32.1782 30.1898 36.7254L30.1937 36.7307L30.1978 36.736L38.2157 47.1827C39.1133 48.3523 40.8777 48.3471 41.7685 47.1724L49.7081 36.7027L48.8988 36.089L49.7121 36.6974C53.1253 32.1344 52.668 25.7569 48.6387 21.7276L48.388 21.4769C43.7521 16.841 36.2359 16.841 31.6 21.4769L31.2639 21.813ZM48.0875 35.478L48.0856 35.4807L40.15 45.9451C40.069 46.0518 39.9086 46.0523 39.827 45.946L31.8132 35.5046C29.0247 31.7664 29.402 26.5476 32.7002 23.2494L33.0363 22.9132C36.8789 19.0706 43.109 19.0706 46.9516 22.9132L47.2024 23.1639C50.5168 26.4784 50.8937 31.7239 48.0875 35.478ZM33.8358 29.7536C33.8358 26.3881 36.5641 23.6598 39.9296 23.6598C43.295 23.6598 46.0233 26.3881 46.0233 29.7536C46.0233 33.1191 43.295 35.8473 39.9296 35.8473C36.5641 35.8473 33.8358 33.1191 33.8358 29.7536ZM39.9296 21.6286C35.4423 21.6286 31.8046 25.2662 31.8046 29.7536C31.8046 34.2409 35.4423 37.8786 39.9296 37.8786C44.4169 37.8786 48.0546 34.2409 48.0546 29.7536C48.0546 25.2662 44.4169 21.6286 39.9296 21.6286ZM37.289 26.5036C37.8499 26.5036 38.3046 26.9583 38.3046 27.5192V32.8004C38.3046 33.3613 37.8499 33.8161 37.289 33.8161C36.7281 33.8161 36.2733 33.3613 36.2733 32.8004V27.5192C36.2733 26.9583 36.7281 26.5036 37.289 26.5036ZM41.9608 31.3786H41.1483V32.8004C41.1483 33.3613 40.6936 33.8161 40.1327 33.8161C39.5718 33.8161 39.1171 33.3613 39.1171 32.8004V31.3786V30.3629V29.9567V27.8146C39.1171 27.0905 39.7041 26.5036 40.4281 26.5036H41.9608C43.307 26.5036 44.3983 27.5949 44.3983 28.9411C44.3983 30.2872 43.307 31.3786 41.9608 31.3786ZM41.1483 29.3473H41.9608C42.1852 29.3473 42.3671 29.1654 42.3671 28.9411C42.3671 28.7167 42.1852 28.5348 41.9608 28.5348H41.1483V29.3473ZM27.6086 44.3197C27.7096 44.1075 27.9237 43.9723 28.1587 43.9723H31.3983C31.9593 43.9723 32.414 43.5176 32.414 42.9567C32.414 42.3958 31.9593 41.9411 31.3983 41.9411H28.1587C27.1402 41.9411 26.2125 42.5268 25.7746 43.4464L23.2597 48.7276C22.4253 50.4799 23.703 52.5036 25.6439 52.5036H54.6215C56.5624 52.5036 57.8401 50.4799 57.0057 48.7276L54.4908 43.4464C54.0529 42.5268 53.1252 41.9411 52.1067 41.9411H48.664C48.1031 41.9411 47.6483 42.3958 47.6483 42.9567C47.6483 43.5176 48.1031 43.9723 48.664 43.9723H52.1067C52.3417 43.9723 52.5558 44.1075 52.6569 44.3197L55.1717 49.6009C55.3643 50.0053 55.0694 50.4723 54.6215 50.4723H25.6439C25.196 50.4723 24.9011 50.0053 25.0937 49.6009L27.6086 44.3197Z" fill="#05C067"/>
</g>
<defs>
<filter id="filter0_di_515_537" x="0.723045" y="0.92087" width="78.5539" height="78.5539" filterUnits="userSpaceOnUse" color-interpolation-filters="sRGB">
<feFlood flood-opacity="0" result="BackgroundImageFix"/>
<feColorMatrix in="SourceAlpha" type="matrix" values="0 0 0 0 0 0 0 0 0 0 0 0 0 0 0 0 0 0 127 0" result="hardAlpha"/>
<feOffset dy="5.19782"/>
<feGaussianBlur stdDeviation="3.63848"/>
<feComposite in2="hardAlpha" operator="out"/>
<feColorMatrix type="matrix" values="0 0 0 0 0 0 0 0 0 0 0 0 0 0 0 0 0 0 0.14 0"/>
<feBlend mode="normal" in2="BackgroundImageFix" result="effect1_dropShadow_515_537"/>
<feBlend mode="normal" in="SourceGraphic" in2="effect1_dropShadow_515_537" result="shape"/>
<feColorMatrix in="SourceAlpha" type="matrix" values="0 0 0 0 0 0 0 0 0 0 0 0 0 0 0 0 0 0 127 0" result="hardAlpha"/>
<feOffset dx="-304.124" dy="4.15826"/>
<feGaussianBlur stdDeviation="1.01375"/>
<feComposite in2="hardAlpha" operator="arithmetic" k2="-1" k3="1"/>
<feColorMatrix type="matrix" values="0 0 0 0 1 0 0 0 0 1 0 0 0 0 1 0 0 0 1 0"/>
<feBlend mode="normal" in2="shape" result="effect2_innerShadow_515_537"/>
</filter>
<linearGradient id="paint0_linear_515_537" x1="40" y1="3" x2="40" y2="67" gradientUnits="userSpaceOnUse">
<stop stop-color="#FAFAFA"/>
<stop offset="1" stop-color="white"/>
</linearGradient>
</defs>
</svg>
