<svg width="31" height="30" viewBox="0 0 31 30" fill="none" xmlns="http://www.w3.org/2000/svg">
<path d="M16.1997 26.025C15.9954 26.1708 15.7507 26.2492 15.4997 26.2492C15.2487 26.2492 15.004 26.1708 14.7997 26.025C8.76347 21.7225 2.35723 12.8725 8.83348 6.4775C10.6108 4.72765 13.0056 3.74783 15.4997 3.75C17.9997 3.75 20.3985 4.73125 22.166 6.47625C28.6422 12.8713 22.236 21.72 16.1997 26.025Z" fill="url(#paint0_linear_33_4114)" fill-opacity="0.25" stroke="#EA4335" stroke-width="1.5625" stroke-linecap="round" stroke-linejoin="round"/>
<path d="M15.5 15C16.163 15 16.7989 14.7366 17.2678 14.2678C17.7366 13.7989 18 13.163 18 12.5C18 11.837 17.7366 11.2011 17.2678 10.7322C16.7989 10.2634 16.163 10 15.5 10C14.837 10 14.2011 10.2634 13.7322 10.7322C13.2634 11.2011 13 11.837 13 12.5C13 13.163 13.2634 13.7989 13.7322 14.2678C14.2011 14.7366 14.837 15 15.5 15Z" fill="url(#paint1_linear_33_4114)" fill-opacity="0.25" stroke="#EA4335" stroke-width="1.5625" stroke-linecap="round" stroke-linejoin="round"/>
<defs>
<linearGradient id="paint0_linear_33_4114" x1="15.4997" y1="3.75" x2="15.4997" y2="26.2492" gradientUnits="userSpaceOnUse">
<stop stop-color="#EA4335"/>
<stop offset="1" stop-color="white" stop-opacity="0"/>
</linearGradient>
<linearGradient id="paint1_linear_33_4114" x1="15.5" y1="10" x2="15.5" y2="15" gradientUnits="userSpaceOnUse">
<stop stop-color="#EA4335"/>
<stop offset="1" stop-color="white" stop-opacity="0"/>
</linearGradient>
</defs>
</svg>
