<svg width="23" height="48" viewBox="0 0 23 48" fill="none" xmlns="http://www.w3.org/2000/svg">
<path fill-rule="evenodd" clip-rule="evenodd" d="M20.7561 15.6621C21.3882 17.4894 21.8426 19.3548 21.9925 21.2877C22.178 23.6863 22.0935 26.0684 21.5876 28.4274L21.5227 28.6159C21.364 28.6164 21.2022 28.5963 21.0472 28.6205C19.7371 28.8266 18.4286 29.0399 17.1196 29.2521C15.7662 29.4716 14.4119 29.6823 13.0611 29.9162C12.5825 29.9986 11.9901 29.9002 11.7969 30.5617L11.7042 30.5931L11.7696 26.6377L11.7031 17.0938L12.3337 16.9856C13.3645 16.8171 14.3954 16.6456 15.4278 16.4812C16.659 16.286 17.8913 16.0954 19.1235 15.9048C19.6676 15.8213 20.2121 15.7435 20.7561 15.6621Z" fill="#439934"/>
<path fill-rule="evenodd" clip-rule="evenodd" d="M10.3997 42.1232C9.73462 41.5514 9.04636 41.0048 8.4091 40.4031C4.97914 37.1679 2.46977 33.3593 1.2339 28.7676C0.893372 27.5044 0.6667 26.2201 0.593547 24.9147C0.54203 24.0008 0.468361 23.0792 0.533272 22.1699C0.704822 19.7522 1.05462 17.3578 1.76348 15.0287L1.80264 14.9746C1.87167 15.0663 1.97058 15.1477 2.00561 15.2513C2.69799 17.2892 3.3847 19.3293 4.06833 21.3709C6.21605 27.7852 8.36119 34.201 10.5125 40.6143C10.5548 40.7395 10.6635 40.842 10.7418 40.9548L10.3997 42.1232Z" fill="#45A538"/>
<path fill-rule="evenodd" clip-rule="evenodd" d="M20.7558 15.6635C20.2113 15.7444 19.6668 15.8227 19.1233 15.9061C17.891 16.0968 16.6587 16.2874 15.4275 16.4826C14.3956 16.6464 13.3648 16.818 12.3334 16.987L11.7029 17.0951L11.6977 16.684C11.6766 16.3461 11.6416 16.0082 11.6369 15.6702L11.5663 9.20284C11.5499 7.85362 11.5251 6.50441 11.4978 5.15571C11.4808 4.31754 11.4628 3.47885 11.4252 2.64171C11.4046 2.19197 11.3319 1.74429 11.3031 1.29455C11.2861 1.03594 11.3088 0.775268 11.3144 0.515625C11.6359 1.13846 11.9507 1.76593 12.2809 2.38413C12.8027 3.36139 13.6347 4.08159 14.3843 4.86722C17.3444 7.97417 19.4458 11.5844 20.7558 15.6635Z" fill="#46A037"/>
<path fill-rule="evenodd" clip-rule="evenodd" d="M11.7052 30.5939L11.7979 30.5625C11.9911 29.901 12.5836 29.9994 13.0622 29.917C14.4129 29.6831 15.7673 29.4724 17.1206 29.2529C18.4297 29.0412 19.7382 28.8279 21.0482 28.6213C21.2033 28.5971 21.3651 28.6172 21.5237 28.6167C21.279 29.4904 21.0864 30.3832 20.7757 31.2327C20.4228 32.1961 19.9963 33.1368 19.5434 34.0589C18.8665 35.437 18.0232 36.7228 17.0433 37.901C16.2881 38.8087 15.4463 39.6489 14.603 40.4778C14.1363 40.9358 13.5871 41.3093 13.075 41.7214L12.9421 41.6308L12.4646 41.2228L11.9705 40.1389C11.63 38.8705 11.4518 37.5795 11.4219 36.2669L11.4312 36.0464L11.4986 35.0913C11.5208 34.7652 11.5507 34.4396 11.5646 34.1135C11.614 32.941 11.6583 31.7675 11.7052 30.5939Z" fill="#409433"/>
<path fill-rule="evenodd" clip-rule="evenodd" d="M11.7008 30.5945C11.6544 31.768 11.6101 32.9421 11.5602 34.1156C11.5463 34.4422 11.5169 34.7678 11.4942 35.0934L11.1934 35.2073C10.5247 33.2388 9.85549 31.291 9.20123 29.3385C8.11888 26.1079 7.04991 22.8727 5.9691 19.6411C5.09692 17.0333 4.21702 14.4271 3.33249 11.8229C3.29076 11.7014 3.17227 11.6055 3.08984 11.4979L5.01656 7.95508C5.08301 8.06996 5.17008 8.17763 5.2118 8.30127C6.10304 10.9389 6.99273 13.5771 7.87469 16.2178C9.02247 19.6539 10.1625 23.0916 11.3093 26.5283C11.3551 26.6653 11.4303 26.792 11.5025 26.9461L11.7662 26.639C11.7441 27.9579 11.7224 29.2757 11.7008 30.5945Z" fill="#4FAA41"/>
<path fill-rule="evenodd" clip-rule="evenodd" d="M3.08869 11.4941C3.17163 11.6018 3.29012 11.6976 3.33133 11.8192C4.21587 14.4234 5.09577 17.0291 5.96794 19.6373C7.04876 22.869 8.11772 26.1042 9.20008 29.3348C9.85434 31.2873 10.5235 33.2346 11.1922 35.2035L11.4931 35.0897L11.4256 36.0448L11.3643 36.2648C11.2597 37.31 11.1716 38.3574 11.0439 39.4006C10.98 39.9235 10.8435 40.4366 10.7399 40.9538C10.6621 40.841 10.5529 40.7385 10.5107 40.6133C8.35882 34.2 6.21419 27.7841 4.06647 21.3698C3.38285 19.3282 2.69562 17.2882 2.00376 15.2502C1.96873 15.1467 1.86981 15.0653 1.80078 14.9736L3.08869 11.4941Z" fill="#4AA73C"/>
<path fill-rule="evenodd" clip-rule="evenodd" d="M11.7692 26.6385L11.5054 26.9456C11.4333 26.7915 11.3581 26.6648 11.3123 26.5278C10.1655 23.0911 9.02544 19.6534 7.87766 16.2173C6.9957 13.5766 6.10601 10.9384 5.21478 8.30076C5.17305 8.17712 5.08599 8.06945 5.01953 7.95457L7.40216 4.82031C7.47738 4.92025 7.58453 5.00938 7.62317 5.1222C8.28464 7.05922 8.93993 8.99778 9.59213 10.9379C10.2011 12.7502 10.8007 14.5646 11.4168 16.3739C11.4581 16.495 11.6018 16.5805 11.6976 16.6835L11.7028 17.0946L11.7692 26.6385Z" fill="#57AE47"/>
<path fill-rule="evenodd" clip-rule="evenodd" d="M11.6939 16.6831C11.5975 16.5806 11.4543 16.495 11.4131 16.3735C10.7975 14.5642 10.1973 12.7498 9.5884 10.9374C8.9362 8.99734 8.28091 7.05878 7.61944 5.12176C7.5808 5.00894 7.47365 4.91982 7.39844 4.81988C8.17324 4.06104 8.92384 3.2749 9.73007 2.55109C10.4467 1.90817 11.0226 1.21888 11.0494 0.202459L11.1061 0L11.3101 0.514134C11.3049 0.773776 11.2817 1.03445 11.2987 1.29306C11.3281 1.7428 11.4007 2.19048 11.4208 2.64022C11.4584 3.47736 11.4765 4.31604 11.4935 5.15422C11.5208 6.50292 11.5455 7.85213 11.562 9.20135L11.6326 15.6687C11.6377 16.0072 11.6733 16.3451 11.6939 16.6831Z" fill="#60B24F"/>
<path fill-rule="evenodd" clip-rule="evenodd" d="M10.741 40.9568C10.8446 40.4396 10.9811 39.9265 11.045 39.4036C11.1727 38.3609 11.2608 37.3131 11.3654 36.2678L11.3917 36.2637L11.4174 36.2683C11.4473 37.5809 11.6256 38.8719 11.9661 40.1403C11.8965 40.232 11.7992 40.3129 11.7621 40.4159C11.4762 41.2226 11.2062 42.0361 10.9188 42.8423C10.8796 42.9526 10.7694 43.0386 10.6926 43.1349L10.3984 42.1252L10.741 40.9568Z" fill="#A9AA88"/>
<path fill-rule="evenodd" clip-rule="evenodd" d="M10.6914 43.1333C10.7682 43.0365 10.8784 42.951 10.9176 42.8407C11.205 42.0345 11.475 41.221 11.7609 40.4143C11.7975 40.3113 11.8953 40.2304 11.9649 40.1387L12.4589 41.2226C12.3616 41.3606 12.2266 41.4858 12.1725 41.6399L11.2267 44.4176C11.1875 44.5294 11.0551 44.6077 10.9655 44.702L10.6914 43.1333Z" fill="#B6B598"/>
<path fill-rule="evenodd" clip-rule="evenodd" d="M10.9688 44.704C11.0579 44.6098 11.1908 44.5314 11.2299 44.4197L12.1758 41.6419C12.2294 41.4879 12.3648 41.3627 12.4622 41.2246L12.9403 41.6321C12.7095 41.8603 12.5812 42.1241 12.6585 42.4574L12.5132 42.9329C12.4473 43.0143 12.3514 43.0854 12.319 43.1786C11.9888 44.1245 11.674 45.0755 11.3412 46.0208C11.299 46.1403 11.182 46.2346 11.1001 46.3407L10.9688 44.704Z" fill="#C2C1A7"/>
<path fill-rule="evenodd" clip-rule="evenodd" d="M11.1 46.3395C11.1824 46.2333 11.2993 46.1391 11.3411 46.0195C11.6739 45.0742 11.9892 44.1232 12.3189 43.1774C12.3513 43.0841 12.4471 43.0136 12.5131 42.9316L12.3127 45.1139C12.2591 45.1757 12.1818 45.2298 12.1561 45.3014L11.4894 47.2116C11.4426 47.342 11.3529 47.4584 11.2829 47.5805C11.2205 47.4991 11.1093 47.4203 11.1041 47.3358C11.0845 47.005 11.0984 46.6717 11.1 46.3395Z" fill="#CECDB7"/>
<path fill-rule="evenodd" clip-rule="evenodd" d="M11.2812 47.5818C11.3513 47.4597 11.4409 47.3433 11.4878 47.213L12.1545 45.3028C12.1802 45.2306 12.258 45.1771 12.3111 45.1152L12.3162 46.5474L11.8366 47.7771L11.2812 47.5818Z" fill="#DBDAC7"/>
<path fill-rule="evenodd" clip-rule="evenodd" d="M11.8398 47.7746L12.3195 46.5449L12.4184 47.9997L11.8398 47.7746Z" fill="#EBE9DC"/>
<path fill-rule="evenodd" clip-rule="evenodd" d="M12.6551 42.4581C12.5784 42.1253 12.7061 41.8615 12.9369 41.6328L13.0698 41.7235L12.6551 42.4581Z" fill="#CECDB7"/>
<path fill-rule="evenodd" clip-rule="evenodd" d="M11.4192 36.2693L11.3935 36.2647L11.3672 36.2688L11.4285 36.0488L11.4192 36.2693Z" fill="#4FAA41"/>
</svg>
