<svg width="46" height="50" viewBox="0 0 46 50" fill="none" xmlns="http://www.w3.org/2000/svg">
<path d="M22.9205 50C22.2557 50 21.581 49.8215 20.9957 49.4841L14.8741 45.8628C13.9613 45.3468 14.4078 45.1684 14.7055 45.069C15.9257 44.6424 16.1737 44.5532 17.4734 43.809C17.6124 43.7298 17.791 43.7593 17.9298 43.8488L22.6327 46.6366C22.8014 46.7357 23.0393 46.7357 23.1981 46.6366L41.5234 36.0601C41.6922 35.9608 41.8011 35.7624 41.8011 35.5641V14.4111C41.8011 14.2028 41.6922 14.0143 41.5136 13.9053L23.1982 3.3386C23.0296 3.23936 22.8015 3.23936 22.6328 3.3386L4.32738 13.9151C4.14868 14.0143 4.03966 14.2127 4.03966 14.421V35.5641C4.03966 35.7624 4.14868 35.9608 4.32738 36.0503L9.34784 38.9473C12.0763 40.3065 13.7431 38.7092 13.7431 37.0921V16.2168C13.7431 15.9192 13.9811 15.691 14.2789 15.691H16.6006C16.8883 15.691 17.1362 15.9192 17.1362 16.2168V37.102C17.1362 40.7332 15.1519 42.8168 11.7093 42.8168C10.6475 42.8168 9.81414 42.8168 7.4925 41.6659L2.69042 38.8978C1.49976 38.2131 0.765625 36.9332 0.765625 35.5543V14.4111C0.765625 13.042 1.49976 11.7522 2.69042 11.0677L20.9957 0.491089C22.1565 -0.163696 23.6944 -0.163696 24.8453 0.491089L43.1708 11.0774C44.3614 11.762 45.0955 13.0419 45.0955 14.421V35.5641C45.0955 36.9332 44.3614 38.2131 43.1708 38.9077L24.8453 49.4841C24.2599 49.8215 23.595 50 22.9205 50ZM37.7138 29.1548C37.7138 25.196 35.0349 24.1443 29.4094 23.4003C23.7142 22.6462 23.1389 22.2592 23.1389 20.9298C23.1389 19.8286 23.6251 18.3601 27.8417 18.3601C31.6022 18.3601 32.9912 19.1737 33.5665 21.7137C33.6162 21.9517 33.8347 22.1303 34.0824 22.1303H36.4639C36.6125 22.1303 36.7514 22.0709 36.8508 21.9616C36.9501 21.8526 36.9996 21.7037 36.9894 21.5548C36.6225 17.1795 33.7153 15.1455 27.8417 15.1455C22.6131 15.1455 19.4978 17.3481 19.4978 21.0489C19.4978 25.0572 22.6031 26.1686 27.6135 26.6644C33.6162 27.2499 34.0824 28.1329 34.0824 29.3136C34.0824 31.3576 32.4357 32.2305 28.5761 32.2305C23.7244 32.2305 22.6627 31.0101 22.3055 28.5994C22.2658 28.3414 22.0475 28.1529 21.7797 28.1529H19.4083C19.1107 28.1529 18.8827 28.3911 18.8827 28.6786C18.8827 31.7645 20.5594 35.4454 28.5861 35.4454C34.3801 35.4354 37.7138 33.1431 37.7138 29.1548Z" fill="#539E43"/>
</svg>
