<svg width="45" height="40" viewBox="0 0 45 40" fill="none" xmlns="http://www.w3.org/2000/svg">
<path d="M22.1721 23.639C24.3597 23.639 26.1332 21.8656 26.1332 19.6779C26.1332 17.4903 24.3597 15.7168 22.1721 15.7168C19.9844 15.7168 18.2109 17.4903 18.2109 19.6779C18.2109 21.8656 19.9844 23.639 22.1721 23.639Z" fill="#00D8FF"/>
<path d="M22.1728 28.7513C16.6099 28.7513 11.7492 28.0964 8.11162 26.8497C5.75231 26.0448 3.74808 24.9717 2.31986 23.7486C0.80485 22.4545 0 21.0421 0 19.677C0 17.0573 2.87221 14.4928 7.69342 12.82C11.6388 11.447 16.7835 10.6816 22.1649 10.6816C27.4517 10.6816 32.5254 11.4234 36.4471 12.7806C38.7433 13.5696 40.6765 14.5954 42.0495 15.7317C43.5408 16.9784 44.3299 18.3435 44.3299 19.677C44.3299 22.3993 41.1184 25.1532 35.9421 26.8654C32.2808 28.0806 27.3886 28.7513 22.1728 28.7513ZM22.1728 12.5754C17.0676 12.5754 12.0175 13.3171 8.32467 14.6033C3.89011 16.1499 1.90165 18.2646 1.90165 19.677C1.90165 21.1447 4.04003 23.4567 8.7271 25.0585C12.1674 26.2342 16.8229 26.8575 22.1728 26.8575C27.1913 26.8575 31.8705 26.2263 35.3503 25.0664C40.2188 23.4488 42.444 21.1368 42.444 19.677C42.444 18.9274 41.8759 18.0436 40.8422 17.1836C39.6507 16.1893 37.9147 15.2819 35.8395 14.5639C32.1072 13.2856 27.2544 12.5754 22.1728 12.5754Z" fill="#00D8FF"/>
<path d="M13.1856 39.4209C12.3807 39.4209 11.6706 39.2473 11.0709 38.9001C8.80626 37.5902 8.01719 33.8185 8.97197 28.8079C9.75314 24.6969 11.6627 19.8678 14.3534 15.2044C16.9968 10.6278 20.1688 6.60352 23.3014 3.88123C25.1321 2.28732 26.9864 1.1195 28.6592 0.504022C30.482 -0.166686 32.0601 -0.166686 33.2121 0.496131C35.5715 1.85333 36.3526 6.01961 35.2479 11.3537C34.4668 15.1412 32.6046 19.7099 30.0006 24.2313C27.2231 29.0446 24.2247 32.9268 21.3288 35.4598C19.4508 37.101 17.5176 38.3004 15.7501 38.9238C14.8269 39.2552 13.9589 39.4209 13.1856 39.4209ZM15.1662 15.6778L15.9868 16.1512C13.4381 20.57 11.5522 25.3123 10.8263 29.163C9.95041 33.779 10.7947 36.5566 12.0099 37.2588C12.3097 37.4324 12.7043 37.5271 13.1856 37.5271C14.7558 37.5271 17.2256 36.5329 20.0821 34.0394C22.8201 31.6486 25.6844 27.9242 28.3594 23.2923C30.8686 18.9446 32.6519 14.5731 33.3936 10.9829C34.4273 5.95648 33.5357 2.87912 32.2653 2.14528C31.6182 1.77442 30.5688 1.82177 29.3063 2.28732C27.8465 2.82388 26.1973 3.87334 24.5403 5.31734C21.5655 7.90548 18.5276 11.7561 15.9868 16.1591L15.1662 15.6778Z" fill="#00D8FF"/>
<path d="M31.1625 39.4435C29.0162 39.4435 26.2939 38.1494 23.4533 35.7033C20.2812 32.9731 17.0539 28.9094 14.3553 24.246C11.704 19.6694 9.81026 14.9114 9.0133 10.8319C8.54775 8.44889 8.46095 6.26317 8.7608 4.50355C9.09221 2.58611 9.87339 1.22102 11.0333 0.550313C13.3847 -0.814775 17.3853 0.589766 21.4569 4.21159C24.3449 6.77606 27.3749 10.6741 29.9867 15.1875C32.7722 20.0008 34.6422 24.538 35.384 28.3097C35.8653 30.7559 35.9442 33.0284 35.6049 34.8748C35.2419 36.8396 34.4213 38.2362 33.2377 38.9227C32.6459 39.2699 31.9436 39.4435 31.1625 39.4435ZM15.9966 23.2992C18.5531 27.7179 21.7252 31.7185 24.6921 34.2672C28.2508 37.3288 31.0757 37.9916 32.2987 37.2814C33.5691 36.5476 34.5002 33.5413 33.5375 28.6806C32.8274 25.114 31.0362 20.7741 28.3534 16.1423C25.8362 11.7945 22.9404 8.06224 20.2023 5.63191C16.3674 2.22314 13.2585 1.45774 11.9881 2.19158C11.3411 2.56244 10.8597 3.50143 10.6309 4.82706C10.3705 6.35786 10.4494 8.31474 10.8755 10.4689C11.633 14.3432 13.4479 18.8962 15.9966 23.2992Z" fill="#00D8FF"/>
</svg>
