<svg width="19" height="18" viewBox="0 0 19 18" fill="none" xmlns="http://www.w3.org/2000/svg">
<mask id="mask0_63_369" style="mask-type:luminance" maskUnits="userSpaceOnUse" x="0" y="0" width="19" height="18">
<path d="M18.2516 0.169922H0.277344V17.3272H18.2516V0.169922Z" fill="white"/>
</mask>
<g mask="url(#mask0_63_369)">
<path d="M9.26451 17.3272C14.228 17.3272 18.2516 13.4864 18.2516 8.74857C18.2516 4.01072 14.228 0.169922 9.26451 0.169922C4.30104 0.169922 0.277344 4.01072 0.277344 8.74857C0.277344 13.4864 4.30104 17.3272 9.26451 17.3272Z" fill="#FF492C"/>
<path d="M13.1579 6.74373H11.6229C11.6642 6.51383 11.8134 6.38514 12.1154 6.23931L12.3976 6.10204C12.9027 5.85499 13.1723 5.57532 13.1723 5.11893C13.1723 4.83241 13.0554 4.60593 12.8236 4.44294C12.5917 4.27994 12.3185 4.1993 11.9985 4.1993C11.751 4.19652 11.508 4.26272 11.2993 4.38975C11.089 4.51328 10.9327 4.67285 10.8356 4.87188L11.2796 5.29737C11.4521 4.96451 11.702 4.80152 12.0309 4.80152C12.3095 4.80152 12.4803 4.93878 12.4803 5.12923C12.4803 5.28879 12.3976 5.42091 12.0776 5.57532L11.8961 5.65939C11.5024 5.84983 11.2292 6.06774 11.0711 6.3148C10.9129 6.56186 10.8356 6.87241 10.8356 7.24815V7.3511H13.1579V6.74373ZM12.953 8.05112H10.4114L9.14062 10.1512H11.6822L12.953 12.2529L14.2237 10.1512L12.953 8.05112Z" fill="white"/>
<path d="M9.35792 11.5415C7.74024 11.5415 6.42271 10.2839 6.42271 8.73974C6.42271 7.19558 7.74024 5.93795 9.35792 5.93795L10.3627 3.93227C10.0318 3.86944 9.69527 3.83785 9.35792 3.83789C6.52158 3.83789 4.22266 6.03231 4.22266 8.73974C4.22266 11.4472 6.52158 13.6416 9.35792 13.6416C10.4449 13.6435 11.5041 13.3142 12.3812 12.7014L11.2704 10.8621C10.739 11.3003 10.0602 11.5414 9.35792 11.5415Z" fill="white"/>
</g>
</svg>
