<svg width="81" height="15" viewBox="0 0 81 15" fill="none" xmlns="http://www.w3.org/2000/svg">
<path d="M66.1925 5.7571L70.3623 5.08306L72.6076 1.34522L73.3184 2.96466L74.3934 4.0151L74.931 5.08306V12.4186L72.5434 11.1494L68.6302 12.9877L69.1434 8.75963L66.1925 5.7571ZM2.10547 5.87964L6.27529 5.2056L8.45635 1.22266L10.4451 5.14434L14.9356 5.87964L11.7922 8.82091L12.4337 13.1102L8.45635 11.272L4.47898 13.1102L4.99225 8.88217L2.10547 5.87964ZM18.079 5.87964L22.2489 5.2056L24.4301 1.22266L26.4829 5.14434L30.9093 5.87964L27.7659 8.82091L28.4715 13.1102L24.4301 11.272L20.5167 13.1102L21.03 8.88217L18.079 5.87964ZM34.3734 5.87964L38.5433 5.2056L40.7245 1.22266L42.7131 5.14434L47.2037 5.87964L44.0603 8.82091L44.7659 13.1102L40.7245 11.272L36.7471 13.1102L37.2602 8.88217L34.3734 5.87964ZM50.1547 5.87964L54.3245 5.2056L56.5056 1.22266L58.5584 5.14434L62.9849 5.87964L59.8414 8.82091L60.5472 13.1102L56.5056 11.272L52.5924 13.1102L53.1055 8.88217L50.1547 5.87964Z" fill="#FF492C"/>
<path d="M16.1541 5.50483L10.8294 4.76953L8.45593 0.173828L6.08229 4.76953L0.757812 5.50483L4.60681 9.05886L3.70878 14.1448L8.45593 11.755L13.2031 14.1448L12.3049 9.05886L16.1541 5.50483ZM8.45593 10.652L5.12007 12.3678L5.7616 8.81377L3.06726 6.30144L6.85206 5.74996L8.51999 2.50232L10.1879 5.74996L13.9729 6.30144L11.2785 8.81377L11.92 12.3678L8.45593 10.652ZM32.1918 5.50483L26.8673 4.76953L24.4937 0.173828L22.1201 4.76953L16.7956 5.50483L20.6446 9.05886L19.7465 14.1448L24.4937 11.755L29.2408 14.1448L28.3428 9.05886L32.1918 5.50483ZM24.4937 10.652L21.1578 12.3678L21.7994 8.81377L19.105 6.30144L22.89 5.74996L24.5579 2.50232L26.2258 5.74996L30.0108 6.30144L27.3164 8.81377L27.9578 12.3678L24.4937 10.652ZM48.2296 5.50483L42.9051 4.76953L40.5315 0.173828L38.158 4.76953L32.8333 5.50483L36.6825 9.05886L35.7843 14.1448L40.5315 11.755L45.2787 14.1448L44.3806 9.05886L48.2296 5.50483ZM40.5315 10.652L37.1956 12.3678L37.8371 8.81377L35.1428 6.30144L38.9277 5.74996L40.5957 2.50232L42.2636 5.74996L46.0485 6.30144L43.3542 8.81377L43.9957 12.3678L40.5315 10.652ZM64.2675 5.50483L58.9429 4.76953L56.5692 0.173828L54.1957 4.76953L48.8711 5.50483L52.7202 9.05886L51.8221 14.1448L56.5692 11.755L61.3165 14.1448L60.4184 9.05886L64.2675 5.50483ZM56.5692 10.652L53.2334 12.3678L53.8749 8.81377L51.1806 6.30144L54.9655 5.74996L56.6334 2.50232L58.3013 5.74996L62.0863 6.30144L59.3919 8.81377L60.0335 12.3678L56.5692 10.652ZM80.3053 5.50483L74.9806 4.76953L72.6071 0.173828L70.2335 4.76953L64.909 5.50483L68.758 9.05886L67.8598 14.1448L72.6071 11.755L77.3543 14.1448L76.4561 9.05886L80.3053 5.50483ZM72.6071 10.652L69.2713 12.3678L69.9128 8.81377L67.2184 6.30144L71.0033 5.74996L72.6712 2.50232L74.3391 5.74996L78.124 6.30144L75.4297 8.81377L76.0712 12.3678L72.6071 10.652Z" fill="#FF492C"/>
</svg>
