<svg width="80" height="80" viewBox="0 0 80 80" fill="none" xmlns="http://www.w3.org/2000/svg">
<g filter="url(#filter0_di_582_258)">
<rect x="8" y="3" width="64" height="64" rx="4" fill="url(#paint0_linear_582_258)"/>
<rect x="8.51978" y="3.51978" width="62.9604" height="62.9604" rx="3.48022" stroke="white" stroke-width="1.03957"/>
</g>
<path d="M57.3027 33.9327C57.3019 32.6504 57.1542 31.3725 56.8625 30.1238L56.8526 30.0843C55.9507 26.3468 53.815 23.0227 50.7905 20.649C47.7661 18.2754 44.0296 16.9908 40.185 17.0029L40.1652 17.0005H40.1182C36.2688 16.9724 32.5239 18.2512 29.4957 20.6279C26.4676 23.0046 24.3355 26.3385 23.4481 30.0843L23.4382 30.1238C22.7349 33.1607 22.8804 36.3326 23.8587 39.2924C24.0086 39.7505 24.2505 40.1733 24.5694 40.5348C24.8884 40.8962 25.2777 41.1888 25.7136 41.3947C26.2147 41.6379 26.7643 41.7648 27.3213 41.7657C27.7222 41.7656 28.1205 41.7013 28.5011 41.5752L29.9628 41.0707C30.7593 40.8091 31.4411 40.2806 31.8931 39.5745C32.3451 38.8683 32.5395 38.0279 32.4435 37.195L31.9093 32.6441C31.7986 31.8009 31.4025 31.021 30.7869 30.4342C30.1713 29.8474 29.3734 29.4891 28.5258 29.4189L26.2553 29.2606C27.2426 26.411 29.091 23.9385 31.5448 22.1852C33.9987 20.4319 36.9367 19.4844 39.9525 19.4738H40.1652C43.2175 19.4245 46.2065 20.3458 48.7015 22.1047C51.1965 23.8636 53.0686 26.3693 54.0479 29.2606L51.7601 29.4214C50.9129 29.4948 50.1163 29.8561 49.503 30.4451C48.8897 31.0341 48.4965 31.8154 48.3889 32.659L47.8572 37.2099C47.7631 38.0389 47.9571 38.8751 48.4065 39.5781C48.856 40.2811 49.5336 40.8081 50.3255 41.0707L51.8169 41.5851C52.0437 41.6444 52.2756 41.6816 52.5095 41.6964C51.3803 43.4784 49.8722 44.9895 48.0926 46.1224C46.3129 47.2552 44.3055 47.9819 42.2131 48.2507C42.0016 47.9509 41.7221 47.7054 41.3976 47.5344C41.073 47.3633 40.7126 47.2714 40.3457 47.2663C39.9235 47.2604 39.5073 47.3676 39.1404 47.5767C38.7735 47.7859 38.4693 48.0894 38.2592 48.4557C38.0492 48.8221 37.941 49.238 37.9458 49.6602C37.9507 50.0825 38.0684 50.4958 38.2868 50.8573C38.5053 51.2187 38.8164 51.5151 39.188 51.7158C39.5596 51.9164 39.9781 52.014 40.4001 51.9984C40.8221 51.9828 41.2323 51.8545 41.5881 51.627C41.9438 51.3994 42.2322 51.0808 42.4233 50.7042C45.5446 50.3279 48.4981 49.0849 50.9491 47.116C53.4001 45.1472 55.2507 42.5312 56.2912 39.5644C56.3307 39.4729 56.4074 39.4037 56.4396 39.3072C57.0188 37.5757 57.3104 35.761 57.3027 33.9352V33.9327ZM28.3354 31.8799C28.6153 31.9032 28.8788 32.0213 29.0825 32.2147C29.2862 32.408 29.4179 32.6651 29.4558 32.9434L29.985 37.4695C30.0153 37.7417 29.9506 38.0159 29.8019 38.2458C29.6531 38.4757 29.4295 38.6471 29.1689 38.7309L27.7146 39.2305C27.408 39.3289 27.0754 39.3068 26.7846 39.1687C26.648 39.1051 26.5259 39.0141 26.426 38.9013C26.326 38.7886 26.2502 38.6565 26.2034 38.5133C25.4799 36.3165 25.29 33.9791 25.6493 31.6944L28.3354 31.8799ZM53.5136 39.1687C53.23 39.3063 52.9047 39.331 52.6035 39.238L51.1195 38.726C50.8631 38.6421 50.6432 38.4728 50.4965 38.2464C50.3498 38.02 50.2851 37.7502 50.3132 37.4819L50.8449 32.9533C50.8802 32.6758 51.0089 32.4185 51.2098 32.2239C51.4108 32.0292 51.672 31.9088 51.9505 31.8823L54.6513 31.6944C55.0025 33.9141 54.828 36.1853 54.1418 38.3253C54.1344 38.3426 54.1196 38.355 54.1146 38.3748C54.0701 38.5108 54.0009 38.632 53.9514 38.7705C53.8448 38.9394 53.6944 39.0762 53.5161 39.1662L53.5136 39.1687ZM40.1503 27.4724C39.8277 27.4744 39.517 27.3501 39.2847 27.1262C39.1671 27.0096 39.0738 26.8709 39.0101 26.7181C38.9465 26.5653 38.9137 26.4013 38.9137 26.2358C38.9104 26.0736 38.9442 25.9129 39.0126 25.7659C39.0706 25.6142 39.1638 25.4785 39.2847 25.3701C39.5188 25.1492 39.8285 25.0262 40.1503 25.0262C40.4722 25.0262 40.7819 25.1492 41.016 25.3701C41.1351 25.4804 41.2296 25.6144 41.2935 25.7635C41.3574 25.9126 41.3893 26.0736 41.387 26.2358C41.3869 26.4013 41.354 26.5652 41.2904 26.718C41.2267 26.8708 41.1334 27.0095 41.016 27.1262C40.7837 27.3501 40.473 27.4744 40.1503 27.4724ZM36.0694 25.3701C36.1884 25.4804 36.283 25.6144 36.3469 25.7635C36.4108 25.9126 36.4427 26.0736 36.4404 26.2358C36.4402 26.4013 36.4074 26.5652 36.3437 26.718C36.2801 26.8708 36.1868 27.0095 36.0694 27.1262C35.8371 27.3501 35.5264 27.4744 35.2037 27.4724C35.0413 27.4786 34.8799 27.4446 34.7338 27.3735C34.5854 27.321 34.4503 27.2366 34.3381 27.1262C34.2205 27.0096 34.1272 26.8709 34.0635 26.7181C33.9999 26.5653 33.9671 26.4013 33.9671 26.2358C33.9648 26.0736 33.9966 25.9126 34.0606 25.7635C34.1245 25.6144 34.219 25.4804 34.3381 25.3701C34.5722 25.1492 34.8819 25.0262 35.2037 25.0262C35.5256 25.0262 35.8353 25.1492 36.0694 25.3701ZM44.2313 27.1262C44.1046 27.0129 44.0107 26.8677 43.9592 26.7057C43.8882 26.5596 43.8542 26.3982 43.8603 26.2358C43.858 26.0736 43.8899 25.9126 43.9538 25.7635C44.0177 25.6144 44.1122 25.4804 44.2313 25.3701C44.4625 25.1435 44.7733 25.0166 45.097 25.0166C45.4207 25.0166 45.7315 25.1435 45.9626 25.3701C46.0817 25.4804 46.1762 25.6144 46.2401 25.7635C46.3041 25.9126 46.3359 26.0736 46.3336 26.2358C46.3391 26.3981 46.3052 26.5594 46.2347 26.7057C46.1831 26.8676 46.0892 27.0128 45.9626 27.1262C45.7291 27.3482 45.4192 27.472 45.097 27.472C44.7747 27.472 44.4648 27.3482 44.2313 27.1262Z" fill="#05C067"/>
<defs>
<filter id="filter0_di_582_258" x="0.723045" y="0.92087" width="78.5539" height="78.5539" filterUnits="userSpaceOnUse" color-interpolation-filters="sRGB">
<feFlood flood-opacity="0" result="BackgroundImageFix"/>
<feColorMatrix in="SourceAlpha" type="matrix" values="0 0 0 0 0 0 0 0 0 0 0 0 0 0 0 0 0 0 127 0" result="hardAlpha"/>
<feOffset dy="5.19782"/>
<feGaussianBlur stdDeviation="3.63848"/>
<feComposite in2="hardAlpha" operator="out"/>
<feColorMatrix type="matrix" values="0 0 0 0 0 0 0 0 0 0 0 0 0 0 0 0 0 0 0.14 0"/>
<feBlend mode="normal" in2="BackgroundImageFix" result="effect1_dropShadow_582_258"/>
<feBlend mode="normal" in="SourceGraphic" in2="effect1_dropShadow_582_258" result="shape"/>
<feColorMatrix in="SourceAlpha" type="matrix" values="0 0 0 0 0 0 0 0 0 0 0 0 0 0 0 0 0 0 127 0" result="hardAlpha"/>
<feOffset dx="-304.124" dy="4.15826"/>
<feGaussianBlur stdDeviation="1.01375"/>
<feComposite in2="hardAlpha" operator="arithmetic" k2="-1" k3="1"/>
<feColorMatrix type="matrix" values="0 0 0 0 1 0 0 0 0 1 0 0 0 0 1 0 0 0 1 0"/>
<feBlend mode="normal" in2="shape" result="effect2_innerShadow_582_258"/>
</filter>
<linearGradient id="paint0_linear_582_258" x1="40" y1="3" x2="40" y2="67" gradientUnits="userSpaceOnUse">
<stop stop-color="#FAFAFA"/>
<stop offset="1" stop-color="white"/>
</linearGradient>
</defs>
</svg>
