<svg width="15" height="15" viewBox="0 0 15 15" fill="none" xmlns="http://www.w3.org/2000/svg">
<g clip-path="url(#clip0_75_623)">
<path fill-rule="evenodd" clip-rule="evenodd" d="M1.56251 7.06262C5.2233 5.46767 7.6644 4.41619 8.8858 3.90816C12.3732 2.45764 13.0978 2.20567 13.5701 2.19735C13.674 2.19552 13.9063 2.22127 14.0567 2.34335C14.1838 2.44644 14.2187 2.58569 14.2355 2.68343C14.2522 2.78116 14.273 3.00381 14.2565 3.17778C14.0675 5.16342 13.2498 9.98206 12.8337 12.206C12.6577 13.1471 12.3111 13.4626 11.9756 13.4935C11.2463 13.5606 10.6926 13.0115 9.98625 12.5485C8.88102 11.824 8.25664 11.373 7.18382 10.6661C5.944 9.84905 6.74772 9.4 7.4543 8.66613C7.63921 8.47407 10.8523 5.55155 10.9145 5.28643C10.9222 5.25328 10.9295 5.12968 10.856 5.06442C10.7826 4.99915 10.6742 5.02147 10.596 5.03922C10.4852 5.06438 8.71956 6.23139 5.29917 8.54024C4.798 8.88438 4.34406 9.05205 3.93735 9.04327C3.48898 9.03358 2.6265 8.78975 1.98533 8.58133C1.19891 8.3257 0.573878 8.19055 0.628304 7.7564C0.656652 7.53027 0.968054 7.29901 1.56251 7.06262Z" fill="#05C067"/>
</g>
<defs>
<clipPath id="clip0_75_623">
<rect width="14.1674" height="14.1674" fill="white" transform="translate(0.359375 0.396484)"/>
</clipPath>
</defs>
</svg>
