<svg width="119" height="176" viewBox="0 0 119 176" fill="none" xmlns="http://www.w3.org/2000/svg">
<path d="M1.76507 98.5931C0.785605 99.7066 -0.0725845 128.818 1.09344 132.389C2.25947 135.959 9.62409 142.562 9.90393 143.502C10.104 144.397 10.104 145.32 9.90393 146.214C9.792 146.648 7.47393 148.428 6.69969 149.295C6.30324 149.728 5.63161 153.056 6.23328 153.316C6.83495 153.576 11.4011 153.264 12.763 152.064C14.1249 150.863 17.5671 145.898 17.8935 145.131C18.22 144.364 17.2965 138.918 17.0587 137.822C16.8208 136.726 24.6378 121.175 24.6658 115.677C24.6938 110.179 3.81261 96.2707 1.76507 98.5931Z" fill="#A8A8A8"/>
<path d="M10.9863 149.296C10.9912 149.29 10.9984 149.286 11.0063 149.285C11.0142 149.285 11.0221 149.287 11.0283 149.291C11.0344 149.296 11.0384 149.303 11.0393 149.31C11.0402 149.317 11.0379 149.324 11.0329 149.33C10.5665 150.01 10.1701 150.717 9.79694 151.436C9.40272 152.061 9.23894 152.788 9.33053 153.507C9.33053 153.516 9.3266 153.525 9.3196 153.532C9.3126 153.538 9.30311 153.542 9.29321 153.542C9.28332 153.542 9.27383 153.538 9.26683 153.532C9.25983 153.525 9.2559 153.516 9.2559 153.507C9.02239 152.799 9.03544 152.041 9.29321 151.341C9.68948 150.552 10.2675 149.854 10.9863 149.296Z" fill="#263238"/>
<path d="M8.46329 149.247C8.46818 149.244 8.47399 149.242 8.47988 149.242C8.48577 149.242 8.49145 149.244 8.49611 149.248C8.50076 149.251 8.50415 149.256 8.5058 149.261C8.50745 149.266 8.50726 149.272 8.50527 149.277C8.10213 149.95 7.74538 150.646 7.43719 151.361C7.16201 151.959 6.63962 152.882 7.14335 153.484C7.2273 153.588 7.14335 153.618 7.05007 153.532C6.40642 153.012 6.6303 152.076 6.87284 151.422C7.21799 150.594 7.76194 149.85 8.46329 149.247Z" fill="#263238"/>
<path d="M51.3055 97.2245C52.285 98.338 53.1431 127.45 51.9771 131.042C50.8111 134.633 43.4465 141.211 43.1666 142.146C42.9666 143.042 42.9666 143.967 43.1666 144.863C43.2786 145.296 45.8252 147.333 46.3709 147.944C47.1498 148.81 47.924 151.31 47.3037 151.57C46.6834 151.83 41.1751 151.57 40.3075 150.704C39.0156 149.451 35.4988 144.542 35.177 143.771C34.8552 143 35.7787 137.554 36.0119 136.458C36.2451 135.361 28.4234 119.807 28.4141 114.309C28.4047 108.81 49.2579 94.9194 51.3055 97.2245Z" fill="#A8A8A8"/>
<g opacity="0.1">
<path d="M51.3094 97.2245C52.2889 98.338 53.1471 127.45 51.981 131.042C50.815 134.633 43.4504 141.211 43.1705 142.146C42.9705 143.042 42.9705 143.967 43.1705 144.863C43.2825 145.296 45.8291 147.333 46.3748 147.944C47.1537 148.81 47.9279 151.31 47.3076 151.57C46.6873 151.83 41.179 151.57 40.3114 150.704C39.0195 149.451 35.5027 144.542 35.1809 143.771C34.8591 143 35.7826 137.554 36.0158 136.458C36.249 135.361 28.4273 119.807 28.418 114.309C28.4086 108.81 49.2619 94.9194 51.3094 97.2245Z" fill="black"/>
</g>
<path d="M41.9494 147.701C41.9261 147.701 41.8887 147.701 41.9074 147.74C42.4018 148.394 42.8729 149.066 43.3066 149.764C43.7521 150.358 43.9764 151.072 43.9456 151.796C43.9456 151.805 43.9495 151.814 43.9565 151.82C43.9635 151.827 43.973 151.83 43.9829 151.83C43.9928 151.83 44.0023 151.827 44.0093 151.82C44.0163 151.814 44.0202 151.805 44.0202 151.796C44.2026 151.072 44.1324 150.313 43.8197 149.629C43.3579 148.866 42.719 148.207 41.9494 147.701Z" fill="#263238"/>
<path d="M44.4696 147.488C44.4416 147.488 44.4043 147.488 44.423 147.527C44.8776 148.171 45.2873 148.841 45.6497 149.533C45.9668 150.114 46.5592 150.998 46.1161 151.635C46.0368 151.743 46.1161 151.769 46.2093 151.678C46.8157 151.115 46.5218 150.196 46.2327 149.559C45.8191 148.755 45.2167 148.047 44.4696 147.488Z" fill="#263238"/>
<path d="M48.3203 144.919C48.3203 144.919 63.53 154.161 65.4236 154.685C67.3172 155.21 93.203 165.886 95.1992 166.068C96.0061 166.141 104.206 166.704 104.709 166.47C105.213 166.236 102.517 162.792 100.619 161.969C98.7206 161.146 93.245 160.669 92.5267 160.236C91.8084 159.802 76.0671 145.002 75.1716 143.71C74.2761 142.419 71.9067 130.461 71.9067 130.461L48.3203 144.919Z" fill="#A8A8A8"/>
<path d="M98.5687 163.047C98.5407 163.047 98.5081 163.047 98.5314 163.086C99.0958 163.688 99.6414 164.312 100.145 164.962C100.656 165.511 100.959 166.2 101.008 166.925C101.011 166.932 101.016 166.939 101.023 166.944C101.03 166.948 101.039 166.951 101.048 166.951C101.056 166.951 101.065 166.948 101.072 166.944C101.079 166.939 101.084 166.932 101.087 166.925C101.181 166.182 101.018 165.431 100.621 164.78C100.155 164.017 99.343 163.536 98.5687 163.047Z" fill="#263238"/>
<path d="M101.047 162.593C101.023 162.571 100.991 162.593 101.009 162.632C101.535 163.227 102.018 163.854 102.455 164.508C102.838 165.054 103.528 165.877 103.146 166.553C103.08 166.67 103.146 166.687 103.244 166.587C103.78 165.968 103.383 165.08 103.024 164.477C102.527 163.718 101.851 163.074 101.047 162.593Z" fill="#263238"/>
<path opacity="0.1" d="M75.0379 143.446L54.8237 148.796C51.3303 146.73 48.3359 144.897 48.3359 144.897L71.9316 130.447C71.9316 130.447 74.0491 141.301 75.0379 143.446Z" fill="black"/>
<path d="M57.8053 120.14C53.8454 114.074 52.0591 88.7964 45.5433 83.3675C41.812 80.2435 18.8693 64.0477 10.9963 66.0754C8.42638 66.7383 0.572028 92.6612 1.91995 100.807C3.43112 109.906 9.95154 124.637 12.9599 128.103C15.9682 131.569 33.9857 129.776 36.7468 131.188C39.508 132.601 57.8053 120.14 57.8053 120.14Z" fill="#A8A8A8"/>
<path d="M11.9059 127.568C11.8452 127.292 11.7658 127.02 11.668 126.753C11.5048 126.246 11.3229 125.748 11.1363 125.25C10.7679 124.266 10.3714 123.296 9.96562 122.329C9.1494 120.393 8.23524 118.49 7.29775 116.597C6.76604 115.514 6.22034 114.431 5.67931 113.356C5.67931 113.313 5.58136 113.356 5.60002 113.387C7.24178 117.286 8.70632 121.207 10.3994 125.085C10.6373 125.627 10.8658 126.164 11.127 126.701C11.2389 126.944 11.3602 127.182 11.4815 127.42C11.64 127.737 11.8686 128.001 11.9992 128.33C11.9992 128.369 12.0878 128.352 12.0691 128.309C11.99 128.067 11.9353 127.819 11.9059 127.568Z" fill="#263238"/>
<path d="M3.30031 108.428C3.10914 107.232 3.08093 106.017 3.21636 104.814C3.32363 103.588 3.46822 102.362 3.65478 101.145C3.86933 99.7726 4.11653 98.4035 4.39637 97.0372C4.39637 97.0155 4.36373 97.0069 4.35907 97.0372C3.70143 99.4852 3.20703 101.968 2.79659 104.464C2.55667 105.665 2.48145 106.889 2.57272 108.107C2.70907 109.267 3.03462 110.401 3.53818 111.47C4.10854 112.669 4.77424 113.828 5.52976 114.936C5.55308 114.966 5.61371 114.936 5.59971 114.905C4.72753 112.787 3.71076 110.681 3.30031 108.428Z" fill="#263238"/>
<path d="M10.9185 73.8665C8.67041 68.4376 0.270356 57.5494 3.344 44.6248C5.62008 35.0927 17.84 21.4402 17.4063 14.7287C17.0705 9.48178 3.57721 12.727 3.344 6.63516C3.07348 -0.461895 18.9174 -3.33018 24.6356 5.48698C32.1308 17.0598 13.731 38.1603 11.4222 49.1698C8.97824 60.8379 15.0229 69.2955 14.7711 69.8457C14.5192 70.396 10.9185 73.8665 10.9185 73.8665Z" fill="#A8A8A8"/>
<path d="M13.2906 120.917C13.2906 120.917 10.6134 134.348 13.1646 138.854C15.1096 142.321 20.0209 153.833 21.2009 159.933C21.3921 160.934 21.8585 162.862 22.171 163.334C22.4835 163.807 29.3584 165.522 30.1373 165.184C30.6037 164.985 30.5571 162.585 30.2213 162.048C29.7549 161.246 27.7446 159.834 27.6933 159.565C27.6047 159.132 27.0917 145.778 27.2829 144.626C27.4741 143.473 33.4302 134.348 34.321 130.016C35.2119 125.683 14.1954 119.552 13.2906 120.917Z" fill="#A8A8A8"/>
<path d="M25.7901 160.964C25.7857 160.959 25.7791 160.955 25.7717 160.954C25.7643 160.952 25.7566 160.954 25.7504 160.958C25.7442 160.962 25.74 160.968 25.7387 160.975C25.7374 160.982 25.7391 160.989 25.7434 160.995C26.1819 161.684 26.5923 162.39 26.9608 163.113C27.3557 163.74 27.5194 164.468 27.4272 165.189C27.4272 165.198 27.4311 165.207 27.4381 165.213C27.4451 165.22 27.4546 165.224 27.4645 165.224C27.4744 165.224 27.4839 165.22 27.4909 165.213C27.4979 165.207 27.5018 165.198 27.5018 165.189C27.7461 164.485 27.7461 163.727 27.5018 163.022C27.1043 162.226 26.5193 161.523 25.7901 160.964Z" fill="#263238"/>
<path d="M28.3169 160.938C28.2936 160.917 28.2516 160.938 28.2703 160.969C28.6681 161.645 29.0186 162.344 29.3197 163.062C29.5902 163.664 30.1033 164.587 29.5902 165.189C29.5063 165.289 29.5902 165.323 29.6835 165.237C30.3365 164.721 30.1173 163.781 29.8841 163.131C29.5467 162.299 29.0109 161.55 28.3169 160.938Z" fill="#263238"/>
<path d="M16.4144 145.357C16.2092 144.842 16.032 144.318 15.8314 143.798C15.4303 142.758 14.9919 141.731 14.5535 140.704C14.115 139.677 13.6953 138.733 13.2708 137.745C12.8191 136.776 12.5055 135.756 12.338 134.712C12.2369 133.647 12.2291 132.576 12.3147 131.51C12.3707 130.418 12.4453 129.322 12.5386 128.23C12.7205 126.064 13.005 123.897 13.2708 121.731C13.5926 119.287 13.8725 116.839 14.3249 114.409C14.3276 114.394 14.3242 114.378 14.3153 114.366C14.3064 114.353 14.2927 114.344 14.2769 114.34C14.2611 114.336 14.2443 114.338 14.2299 114.345C14.2155 114.352 14.2044 114.364 14.199 114.378C13.63 116.545 13.1216 118.711 12.6692 120.877C12.2648 123.028 11.983 125.198 11.8249 127.377C11.7286 128.486 11.6493 129.596 11.5871 130.708C11.5 131.811 11.4782 132.918 11.5218 134.023C11.6524 136.189 12.5665 138.178 13.49 140.141C14.0264 141.276 14.5441 142.424 15.1178 143.542C15.407 144.101 15.7195 144.647 15.9993 145.21C16.2792 145.773 16.6243 146.35 16.9042 146.943C16.9042 146.978 16.9881 146.943 16.9741 146.913C16.7782 146.406 16.6196 145.877 16.4144 145.357Z" fill="#263238"/>
<path d="M12.8691 111.054C12.8691 111.03 12.8588 111.007 12.8404 110.99C12.8221 110.972 12.7971 110.963 12.7712 110.963C12.7452 110.963 12.7203 110.972 12.7019 110.99C12.6835 111.007 12.6732 111.03 12.6732 111.054C12.5846 112.258 12.482 113.472 12.4727 114.68C12.4727 115.274 12.4727 115.868 12.524 116.461C12.524 116.747 12.5753 117.037 12.5939 117.328C12.5995 117.619 12.6354 117.909 12.7012 118.194C12.7012 118.203 12.7051 118.212 12.7121 118.219C12.7191 118.225 12.7286 118.229 12.7385 118.229C12.7484 118.229 12.7579 118.225 12.7649 118.219C12.7719 118.212 12.7758 118.203 12.7758 118.194C12.8958 117.638 12.9598 117.072 12.9671 116.504C13.009 115.894 13.037 115.278 13.037 114.667C13.037 113.463 12.9484 112.25 12.8691 111.054Z" fill="#263238"/>
<path d="M75.5042 126.115C76.9034 126.158 76.5396 104.646 71.0966 98.9873C70.313 98.1771 57.9905 112.895 57.8179 113.394C57.6453 113.892 72.5891 126.015 75.5042 126.115Z" fill="#A8A8A8"/>
<path opacity="0.1" d="M75.0629 126.019C76.2662 126.058 75.9444 107.7 71.2989 102.869C70.632 102.176 60.1051 114.737 59.9698 115.166C59.8346 115.595 72.5862 125.937 75.0629 126.019Z" fill="black"/>
<path d="M70.7932 124.685C70.8487 124.103 70.939 123.524 71.0637 122.952C71.1832 122.366 71.3389 121.787 71.5301 121.218C71.879 120.094 72.4022 119.023 73.0833 118.038C73.7477 117.047 74.6337 116.201 75.6812 115.556C75.9433 115.398 76.2142 115.253 76.4927 115.122C76.773 114.99 77.0611 114.873 77.3556 114.771C77.948 114.556 78.5599 114.391 79.1839 114.277C77.8965 114.374 76.651 114.748 75.5459 115.369C74.9871 115.675 74.4756 116.049 74.0254 116.483C73.5673 116.91 73.1564 117.379 72.7988 117.882C72.1143 118.9 71.6015 120.009 71.2783 121.171C70.9492 122.317 70.7861 123.499 70.7932 124.685Z" fill="#263238"/>
<path d="M69.9076 124.317C69.8447 123.469 69.8447 122.618 69.9076 121.769C69.9523 120.922 70.0535 120.079 70.2108 119.243C70.498 117.573 71.0349 115.949 71.8059 114.417C72.1907 113.652 72.6432 112.919 73.1585 112.224C73.6814 111.534 74.2632 110.883 74.8982 110.279C75.5345 109.671 76.2275 109.118 76.9691 108.624C77.7116 108.122 78.4908 107.669 79.3011 107.268C77.6119 107.96 76.0652 108.92 74.7303 110.106C74.0632 110.703 73.4573 111.358 72.9206 112.06C72.3893 112.764 71.9213 113.507 71.5214 114.282C70.7435 115.843 70.2155 117.501 69.9542 119.204C69.6776 120.898 69.6619 122.619 69.9076 124.317Z" fill="#263238"/>
<path d="M27.6481 129.906C26.2489 130.071 24.4625 108.624 29.3132 102.514C30.0081 101.648 43.7719 115.227 43.9818 115.708C44.1917 116.189 30.5305 129.581 27.6481 129.906Z" fill="#A8A8A8"/>
<path opacity="0.1" d="M28.0663 129.777C26.8722 129.92 25.3471 111.618 29.4655 106.406C30.0625 105.656 41.7974 117.238 41.984 117.671C42.1705 118.104 30.5242 129.482 28.0663 129.777Z" fill="black"/>
<path d="M44.0403 115.573C43.1075 114.273 38.4947 109.659 37.2727 108.55C36.0507 107.441 34.6841 106.323 33.3595 105.24C32.6661 104.662 31.968 104.094 31.2653 103.537L30.2065 102.718C29.9312 102.453 29.6172 102.226 29.2737 102.042C28.4342 101.695 26.7271 105.768 25.8643 110.4C25.3313 113.504 25.1655 116.652 25.3699 119.789C25.4489 121.55 25.6546 123.305 25.9855 125.04C26.2973 126.758 26.7415 128.452 27.3148 130.11C27.3174 130.116 27.3222 130.122 27.3285 130.126C27.3347 130.13 27.3422 130.132 27.3498 130.132C27.3574 130.132 27.3648 130.13 27.3711 130.126C27.3773 130.122 27.3821 130.116 27.3848 130.11C27.0583 128.615 26.7411 127.12 26.5499 125.612C26.3587 124.104 26.2234 122.627 26.1488 121.132C25.9805 118.129 26.0928 115.118 26.4846 112.133C27.2961 106.366 29.1944 102.718 29.2551 102.766L30.2718 103.632C30.9186 104.195 31.5731 104.754 32.2354 105.309C33.5087 106.375 34.7774 107.449 36.074 108.489C37.4499 109.585 42.7157 114.36 43.9097 115.682C43.9656 115.738 44.1009 115.66 44.0403 115.573Z" fill="#263238"/>
<path d="M32.1809 128.082C32.0612 127.497 31.9055 126.918 31.7145 126.349C31.5412 125.784 31.3325 125.228 31.0895 124.685C30.6278 123.596 29.9994 122.575 29.2239 121.652C28.4599 120.727 27.4934 119.962 26.3881 119.408C26.1119 119.267 25.8269 119.141 25.5346 119.031C25.2407 118.936 24.9469 118.823 24.6391 118.754C24.0287 118.594 23.4045 118.484 22.7734 118.425C24.0644 118.408 25.3417 118.671 26.5047 119.191C27.0911 119.452 27.6383 119.783 28.1325 120.175C28.6327 120.563 29.0876 120.999 29.4897 121.475C30.2832 122.426 30.9126 123.485 31.3554 124.616C31.7976 125.732 32.0753 126.898 32.1809 128.082Z" fill="#263238"/>
<path d="M33.0305 127.636C33.0142 126.785 32.9347 125.937 32.7926 125.097C32.6642 124.258 32.4789 123.427 32.2376 122.61C31.7781 120.971 31.0732 119.4 30.1434 117.943C29.6822 117.216 29.1581 116.525 28.5763 115.877C27.9852 115.236 27.3412 114.639 26.65 114.092C25.9547 113.542 25.2087 113.051 24.4206 112.623C23.6346 112.189 22.8181 111.806 21.9766 111.475C23.7284 112.018 25.365 112.841 26.8132 113.905C27.5356 114.443 28.2038 115.04 28.8095 115.69C29.4121 116.345 29.955 117.045 30.4326 117.783C31.3681 119.269 32.0613 120.875 32.4895 122.549C32.9294 124.212 33.1116 125.925 33.0305 127.636Z" fill="#263238"/>
<path d="M66.4864 145.283C66.9155 145.158 75.7679 139.452 78.7623 131.098C79.2707 129.677 67.6664 114.811 62.0368 112.09C59.1964 110.717 42.3496 112.957 41.3375 113.256C37.3823 114.43 25.778 129.79 26.3191 134.486C26.515 136.219 32.0606 142.944 41.7339 146.687C44.094 147.619 56.244 148.295 66.4864 145.283Z" fill="#A8A8A8"/>
<path d="M29.6197 126.379C28.3692 127.705 27.338 129.196 26.56 130.803C26.1891 131.614 25.9138 132.459 25.7392 133.325C25.5605 134.182 25.4622 135.052 25.4453 135.924C25.448 135.931 25.4527 135.937 25.459 135.941C25.4652 135.945 25.4727 135.947 25.4803 135.947C25.4879 135.947 25.4953 135.945 25.5016 135.941C25.5079 135.937 25.5126 135.931 25.5153 135.924C25.7345 135.08 25.9817 134.248 26.2569 133.42C26.5321 132.593 26.8679 131.813 27.1897 131.015C27.8244 129.394 28.6652 127.85 29.6943 126.414C29.7316 126.392 29.657 126.34 29.6197 126.379Z" fill="#263238"/>
<path d="M30.0896 139.482C29.2263 138.667 28.4543 137.773 27.7855 136.813C27.074 135.687 26.773 134.377 26.9273 133.078C26.9273 133.035 26.862 133.018 26.8573 133.078C26.7062 133.763 26.6219 134.459 26.6055 135.158C26.6343 135.816 26.8241 136.459 27.1605 137.038C27.8181 138.143 28.9189 138.889 30.0243 139.582C30.0802 139.599 30.1269 139.521 30.0896 139.482Z" fill="#263238"/>
<path d="M65.5299 114.331C64.7977 113.69 64.0887 113.031 63.2958 112.446C62.9469 112.17 62.5574 111.941 62.1391 111.766C61.71 111.606 56.8594 111.008 41.9855 112.754C40.9654 112.935 40.0396 113.428 39.355 114.153C38.5388 114.903 37.8065 115.73 37.0229 116.523C36.9856 116.558 37.0229 116.601 37.0742 116.571C37.8065 115.96 38.5388 115.345 39.2804 114.743C40.022 114.14 40.8149 113.516 41.7383 113.399C49.4015 112.407 59.9517 111.701 62.7268 112.594C63.2047 112.82 63.6434 113.112 64.0281 113.46C64.4945 113.785 64.9609 114.088 65.4273 114.422C65.502 114.47 65.5906 114.387 65.5299 114.331Z" fill="#263238"/>
<path d="M78.1513 128.342C77.2642 126.887 76.1743 125.546 74.9098 124.356C74.1869 123.65 73.4219 122.987 72.7083 122.272C72.6757 122.242 72.629 122.272 72.657 122.324C73.4406 123.147 74.1542 124.027 74.8538 124.923C75.5534 125.82 76.1691 126.592 76.7754 127.462C77.3818 128.333 77.8342 129.148 78.3332 130.014C78.8731 130.904 79.2766 131.859 79.5319 132.852C79.5319 132.896 79.6205 132.887 79.6159 132.852C79.452 131.274 78.9543 129.741 78.1513 128.342Z" fill="#263238"/>
<path d="M78.2187 132.441C74.8233 140.058 66.8896 145.171 66.4839 145.283C56.2228 148.316 44.0961 147.623 41.7314 146.705C37.4053 145.036 33.4678 142.606 30.1365 139.547L30.0898 139.491C30.0898 139.491 34.059 138.256 36.2278 138.659C38.3966 139.062 41.5029 141.9 46.1017 141.804C50.7005 141.709 50.9151 139.083 51.9598 137.381C52.4262 136.583 53.7695 135.08 56.9411 135.851C56.9411 135.851 57.6407 128.698 58.4429 128.407C59.4504 128.048 60.8962 135.34 61.0968 135.513C61.2974 135.686 62.1416 134.681 63.2703 135.513C64.399 136.345 65.3924 139.274 68.6527 139.274C72.5985 139.274 72.9436 134.209 75.3177 133.095C76.2228 132.686 77.2123 132.463 78.2187 132.441Z" fill="white"/>
<path d="M67.5746 127.104C70.6202 126.8 72.4766 129.474 72.8544 132.775C73.1622 135.453 71.665 138.36 68.7406 138.65C65.8162 138.941 63.6381 135.908 63.3536 133.399C63.0691 130.89 64.2398 127.416 67.5746 127.104Z" fill="#263238"/>
<path d="M67.3365 127.822C70.2002 127.541 71.9446 130.054 72.2991 133.156C72.5882 135.669 71.1843 138.407 68.4325 138.676C65.6807 138.945 63.6378 136.102 63.3766 133.741C63.1154 131.38 64.2255 128.13 67.3365 127.822Z" fill="white"/>
<path d="M68.0714 130.015C70.3148 129.794 71.6768 131.748 71.9566 134.192C72.1805 136.159 71.0798 138.299 68.9296 138.525C66.7795 138.75 65.1983 136.51 64.9651 134.66C64.7319 132.81 65.6368 130.271 68.0714 130.015Z" fill="#263238"/>
<path d="M66.4078 129.148C67.4246 129.049 68.0449 129.941 68.1708 131.046C68.2734 131.939 67.7744 132.909 66.7949 133.009C65.8155 133.108 65.0925 132.09 64.9946 131.254C64.8966 130.418 65.3024 129.257 66.4078 129.148Z" fill="white"/>
<path d="M45.9641 129.751C42.0136 129.262 39.6256 131.835 39.1545 135.128C39.066 135.861 39.1353 136.602 39.3581 137.309C39.581 138.017 39.953 138.676 40.4525 139.248C40.9521 139.821 41.5692 140.295 42.268 140.644C42.9668 140.993 43.7332 141.21 44.5229 141.281C48.3194 141.749 51.1179 138.837 51.477 136.333C51.5879 135.563 51.5326 134.781 51.3145 134.032C51.0963 133.282 50.7196 132.581 50.2064 131.968C49.6932 131.355 49.0537 130.844 48.3253 130.463C47.5969 130.083 46.7942 129.841 45.9641 129.751Z" fill="#263238"/>
<path d="M46.2465 130.488C42.5152 130.029 40.2858 132.446 39.8427 135.544C39.7608 136.232 39.8268 136.928 40.0369 137.591C40.247 138.255 40.5969 138.873 41.0665 139.41C41.536 139.947 42.1158 140.392 42.7721 140.719C43.4283 141.046 44.148 141.249 44.8893 141.315C48.4573 141.749 51.0925 139.019 51.419 136.666C51.5234 135.944 51.4718 135.21 51.2673 134.506C51.0627 133.803 50.7094 133.144 50.2279 132.569C49.7463 131.994 49.1462 131.514 48.4627 131.156C47.7791 130.799 47.0257 130.572 46.2465 130.488Z" fill="white"/>
<path d="M46.806 132.661C43.8956 132.302 42.1419 134.195 41.7921 136.617C41.7282 137.156 41.7802 137.701 41.945 138.221C42.1098 138.741 42.3841 139.226 42.752 139.647C43.12 140.067 43.5742 140.416 44.0884 140.673C44.6025 140.929 45.1664 141.088 45.7473 141.14C48.5457 141.483 50.5979 139.338 50.8778 137.497C50.9598 136.93 50.919 136.353 50.7577 135.801C50.5963 135.249 50.3178 134.733 49.9384 134.282C49.559 133.831 49.0864 133.456 48.5485 133.178C48.0105 132.899 47.4181 132.724 46.806 132.661Z" fill="#263238"/>
<path d="M44.2528 131.721C42.9328 131.557 42.1353 132.419 41.9813 133.515C41.9516 133.76 41.9746 134.007 42.0489 134.243C42.1231 134.479 42.2472 134.699 42.4139 134.89C42.5806 135.082 42.7865 135.24 43.0197 135.356C43.253 135.473 43.5088 135.545 43.7724 135.569C44.3148 135.624 44.8594 135.484 45.2935 135.176C45.7276 134.869 46.0179 134.419 46.1044 133.918C46.1415 133.66 46.1228 133.398 46.0493 133.148C45.9759 132.897 45.8491 132.662 45.6766 132.457C45.5041 132.253 45.2892 132.082 45.0447 131.956C44.8002 131.829 44.5309 131.75 44.2528 131.721Z" fill="white"/>
<path d="M56.7747 135.751C56.8353 136.054 58.8875 137.099 59.1067 137.09C59.326 137.081 61.2989 135.838 61.3362 135.53C61.3735 135.222 59.5079 135.196 59.0321 135.222C58.5564 135.248 56.7187 135.448 56.7747 135.751Z" fill="#263238"/>
<path d="M62.9494 137.649C62.6463 138.082 62.3384 138.546 62.0166 138.949C61.8535 139.15 61.6674 139.335 61.4616 139.499C61.3827 139.561 61.2879 139.603 61.1864 139.621C61.0914 139.607 61.0016 139.571 60.9252 139.517C60.7363 139.367 60.5782 139.186 60.4588 138.984C60.3172 138.768 60.191 138.543 60.081 138.312C59.8589 137.84 59.6689 137.355 59.512 136.861L59.2275 135.955L58.943 136.861C58.7546 137.465 58.5112 138.054 58.2154 138.62C58.0722 138.897 57.9003 139.161 57.7023 139.408C57.536 139.642 57.2991 139.824 57.0213 139.933H56.9281H56.8301C56.7565 139.932 56.6831 139.924 56.6109 139.911C56.4489 139.882 56.292 139.832 56.1445 139.764C55.8494 139.618 55.5752 139.439 55.3283 139.231C54.8195 138.796 54.36 138.314 53.957 137.792C54.2699 138.378 54.6669 138.922 55.137 139.408C55.3796 139.661 55.659 139.881 55.9673 140.063C56.3015 140.278 56.7134 140.364 57.1146 140.301C57.4975 140.192 57.8336 139.973 58.0754 139.677C58.3088 139.408 58.512 139.118 58.6818 138.81C59.0131 138.22 59.2833 137.602 59.4887 136.965H58.9196C59.0896 137.485 59.3033 137.992 59.5586 138.481C59.6958 138.729 59.8517 138.968 60.025 139.196C60.1998 139.445 60.4286 139.658 60.6967 139.82C60.8571 139.913 61.0442 139.958 61.233 139.95C61.4121 139.917 61.5753 139.832 61.6994 139.707C61.912 139.511 62.0941 139.288 62.2405 139.044C62.5194 138.599 62.7566 138.132 62.9494 137.649Z" fill="#263238"/>
<path d="M74.0391 135.07C75.7088 134.914 77.3786 134.806 79.0483 134.737C80.7181 134.667 82.3971 134.616 84.0669 134.637C84.9064 134.637 85.7413 134.637 86.5762 134.659C87.4111 134.68 88.2506 134.715 89.0855 134.758C90.7599 134.823 92.425 134.975 94.0994 135.109C93.2692 134.984 92.4436 134.854 91.6088 134.758C90.7739 134.663 89.939 134.577 89.1041 134.516C87.4297 134.382 85.7506 134.338 84.0669 134.321C82.3831 134.304 80.7087 134.377 79.0343 134.494C78.1995 134.555 77.3599 134.633 76.525 134.719C75.6902 134.806 74.8599 134.923 74.0391 135.07Z" fill="#263238"/>
<path d="M74.7461 135.959C75.5017 135.959 76.2573 135.99 77.0129 136.02C77.7684 136.05 78.524 136.072 79.2749 136.111C80.7814 136.18 82.288 136.263 83.7898 136.393C84.5454 136.44 85.2963 136.514 86.0472 136.579L88.2953 136.817L89.4194 136.943L90.5388 137.09C91.2897 137.172 92.0313 137.307 92.7822 137.398C91.313 137.069 89.8298 136.783 88.328 136.575C86.8261 136.367 85.329 136.206 83.8178 136.081C82.3066 135.955 80.8001 135.89 79.2843 135.868C77.7684 135.847 76.2573 135.86 74.7461 135.959Z" fill="#263238"/>
<path d="M74.3398 136.852C74.9648 136.934 75.5898 137.016 76.2055 137.112C76.8211 137.207 77.4461 137.289 78.0711 137.389C79.3118 137.592 80.5524 137.787 81.8024 138.013C83.0524 138.238 84.2697 138.468 85.501 138.715C86.7324 138.962 87.9544 139.222 89.1904 139.473C88.5871 139.285 87.9855 139.107 87.3853 138.94C86.779 138.784 86.1727 138.624 85.557 138.481C84.3397 138.177 83.1037 137.935 81.8677 137.705C80.6317 137.475 79.3817 137.298 78.1364 137.151C76.8911 137.003 75.6038 136.886 74.3398 136.852Z" fill="#263238"/>
<path d="M36.7479 140.119C35.7124 140.05 34.6677 140.037 33.6276 140.024C32.5875 140.011 31.5474 140.024 30.5026 140.08C28.4224 140.154 26.3469 140.314 24.276 140.514C22.2052 140.713 20.139 141.016 18.0961 141.38C17.0747 141.558 16.0579 141.77 15.0411 141.987C14.5327 142.095 14.0337 142.221 13.5299 142.347L12.0234 142.723C14.0617 142.329 16.0905 141.922 18.1427 141.619C19.1688 141.454 20.1949 141.311 21.2211 141.185C22.2472 141.06 23.2779 140.925 24.3134 140.83C26.3749 140.592 28.4457 140.44 30.5166 140.314C32.5875 140.189 34.6677 140.124 36.7479 140.119Z" fill="#263238"/>
<path d="M36.0107 141.307C34.145 141.393 32.2794 141.58 30.4137 141.809C28.5481 142.039 26.6825 142.338 24.8541 142.676C23.0258 143.014 21.1788 143.404 19.3691 143.859C17.5595 144.314 15.7591 144.833 13.9961 145.418C14.9056 145.202 15.7964 144.933 16.7059 144.73L18.0679 144.396L19.4298 144.093C20.3626 143.885 21.2581 143.698 22.1676 143.503C23.0771 143.308 24.0006 143.139 24.9194 142.983C26.7524 142.632 28.5994 142.333 30.4511 142.061C31.3839 141.918 32.3167 141.788 33.2495 141.666C34.1823 141.545 35.0825 141.415 36.0107 141.307Z" fill="#263238"/>
<path d="M36.6454 142.35C35.0969 142.571 33.5718 142.887 32.0513 143.216C30.5308 143.545 29.0243 143.97 27.5271 144.39C26.0299 144.811 24.5514 145.292 23.0915 145.811C22.3546 146.063 21.6317 146.336 20.9041 146.609C20.1765 146.882 19.4675 147.176 18.7539 147.475C20.2278 146.999 21.697 146.496 23.1755 146.037C24.654 145.578 26.1372 145.114 27.6297 144.689C29.1222 144.265 30.6147 143.849 32.1166 143.45C32.8675 143.246 33.6184 143.06 34.374 142.874C35.1296 142.688 35.8852 142.523 36.6454 142.35Z" fill="#263238"/>
<path d="M69.7289 155.435C69.7033 155.184 69.7567 154.932 69.8826 154.709C70.0084 154.486 70.2013 154.301 70.4378 154.178C70.2107 154.05 70.0334 153.858 69.932 153.629C69.8305 153.401 69.81 153.148 69.8735 152.909C70.1347 152.12 71.1794 152.202 71.1794 152.202C70.9765 152.042 70.8417 151.819 70.799 151.575C70.7562 151.33 70.8084 151.08 70.9462 150.868C71.31 150.175 72.4294 150.543 72.4294 150.543C72.2169 150.333 72.0874 150.062 72.062 149.775C72.0366 149.488 72.1168 149.201 72.2895 148.961C72.532 148.58 73.3016 148.628 73.3529 148.563C75.1066 146.448 78.7819 142.159 87.8676 144.23C94.7705 145.812 96.9346 152.003 96.6454 157.393C96.6454 157.475 97.1118 157.514 97.1118 158.099C97.1257 158.24 97.0953 158.382 97.0241 158.508C96.9529 158.633 96.844 158.736 96.7107 158.806C96.857 158.922 96.9555 159.082 96.9895 159.258C97.0235 159.434 96.9909 159.615 96.8973 159.772C96.8104 159.941 96.6646 160.078 96.4834 160.16C96.3023 160.243 96.0964 160.266 95.8992 160.227C96.0205 160.443 96.6081 160.786 96.2816 161.57C96.1847 161.789 96.0105 161.971 95.7876 162.086C95.5647 162.201 95.3064 162.242 95.055 162.202C95.1897 162.371 95.2656 162.574 95.2722 162.784C95.2789 162.994 95.2161 163.201 95.0923 163.377C94.985 163.55 94.2108 163.593 94.0802 163.671C101.543 167.246 113.156 167.137 115.512 168.004C123.222 170.833 114.15 177.744 107.494 175.591C107.074 175.456 107.76 174.724 108.203 174.754C115.703 175.391 119.201 170.331 114.7 169.156C111.78 168.398 100.339 168.528 93.4832 164.906C92.9235 164.611 92.5504 165.339 92.4151 165.482C88.8704 168.793 81.4265 169.759 76.7111 167.315C70.6944 164.2 70.1533 159.208 70.3026 156.483C70.1115 156.375 69.9566 156.22 69.8553 156.035C69.754 155.849 69.7102 155.642 69.7289 155.435Z" fill="#455A64"/>
<path d="M73.5614 152.358C75.3011 155.513 78.9857 157.48 82.4698 158.632C86.1758 159.851 90.155 160.173 94.0322 159.568C94.3213 159.52 94.4472 159.936 94.1534 160.001C90.0662 160.649 85.8672 160.285 81.9801 158.944C78.5147 157.735 74.9047 155.755 73.1603 152.597C73.025 152.328 73.4261 152.111 73.5614 152.358Z" fill="#263238"/>
<path d="M72.3737 156.093C74.884 158.685 78.0167 160.69 81.5175 161.946C85.0183 163.203 88.7886 163.675 92.5226 163.324C92.8211 163.294 92.8164 163.723 92.5226 163.758C88.7269 164.108 84.8958 163.624 81.3389 162.344C77.7819 161.065 74.5989 159.026 72.0472 156.392C71.8466 156.193 72.1731 155.889 72.3737 156.093Z" fill="#263238"/>
<path d="M72.9614 148.793L73.106 149.517C73.162 149.79 73.6051 149.673 73.5724 149.404C73.5444 149.278 73.5211 149.153 73.4978 149.031C73.5213 149.011 73.5417 148.988 73.5584 148.962C75.5453 145.569 79.6218 144.447 83.5256 144.356C83.3274 144.519 83.1533 144.706 83.0079 144.911C82.9744 144.891 82.9356 144.881 82.896 144.881C81.0417 144.779 79.1993 145.216 77.6241 146.13C76.0489 147.045 74.8188 148.392 74.1041 149.985C74.1041 149.954 74.0621 149.933 74.0435 149.907C73.8709 149.681 73.4698 149.907 73.6424 150.123C78.633 156.549 87.1683 160.089 95.5637 157.84C95.6255 157.825 95.6784 157.788 95.7108 157.737C95.7432 157.685 95.7523 157.624 95.7362 157.567C95.7202 157.509 95.6802 157.46 95.6251 157.43C95.57 157.4 95.5042 157.392 95.4424 157.407C94.2883 157.715 93.104 157.917 91.907 158.009C93.7726 156.765 95.2591 155.093 96.2213 153.156C96.3472 152.905 95.9461 152.688 95.8249 152.939C94.8398 154.938 93.2808 156.645 91.3193 157.874C91.2886 157.894 91.2633 157.919 91.2455 157.95C91.2276 157.98 91.2178 158.013 91.2167 158.048C90.7876 158.048 90.3678 158.048 89.9434 158.048C90.2979 157.783 90.643 157.511 90.9788 157.233C91.026 157.215 91.0654 157.183 91.0908 157.142C92.6828 155.81 94.0548 154.267 95.1625 152.563C95.1645 152.555 95.1645 152.548 95.1625 152.541C95.2652 152.381 95.3724 152.22 95.4704 152.056C95.4942 152.007 95.4976 151.951 95.48 151.9C95.4624 151.849 95.425 151.806 95.3751 151.779C95.3252 151.752 95.2663 151.743 95.2098 151.754C95.1533 151.765 95.1032 151.796 95.0693 151.839L95.0273 151.913C93.7447 148.061 91.296 144.751 86.7205 144.031C86.6825 144.024 86.6431 144.027 86.6063 144.038C86.5695 144.049 86.5366 144.07 86.5106 144.096C86.4922 144.093 86.4731 144.093 86.4547 144.096C86.452 144.068 86.4422 144.041 86.4261 144.018C86.41 143.994 86.3881 143.974 86.3622 143.96C86.3362 143.945 86.307 143.937 86.2769 143.935C86.2467 143.933 86.2166 143.938 86.1888 143.949C85.5532 144.167 85.0019 144.556 84.6048 145.066C84.2078 145.576 83.9831 146.184 83.9594 146.813C83.9594 146.813 83.9594 146.848 83.9594 146.865C83.6225 146.889 83.2876 146.932 82.9566 146.995C82.9589 146.983 82.9589 146.972 82.9566 146.96C82.8443 146.368 82.9666 145.757 83.301 145.242C83.6353 144.727 84.1591 144.341 84.7756 144.157C85.0554 144.07 84.9342 143.654 84.6543 143.745C84.4229 143.818 84.2008 143.914 83.992 144.031C83.9751 143.997 83.9472 143.968 83.9122 143.949C83.8773 143.929 83.8368 143.92 83.7961 143.923C79.729 143.966 75.4334 145.097 73.2786 148.537C73.2384 148.525 73.1952 148.522 73.1534 148.529C73.1117 148.537 73.0728 148.554 73.0406 148.58C73.0085 148.606 72.9843 148.639 72.9703 148.677C72.9564 148.714 72.9534 148.754 72.9614 148.793ZM93.8519 153.65C93.8519 149.92 90.7969 146.596 87.4808 144.647C91.4966 145.634 93.5814 148.81 94.7101 152.446C94.4349 152.848 94.1598 153.256 93.8519 153.65ZM92.4527 155.301C92.4706 153.363 92.029 151.446 91.1592 149.684C90.2895 147.923 89.0129 146.361 87.4201 145.11C90.7223 147.103 93.7027 150.478 93.3855 154.248C93.0684 154.608 92.7605 154.959 92.434 155.301H92.4527ZM85.7644 144.616L85.8717 144.56C87.821 145.773 89.4049 147.427 90.4733 149.368C91.5417 151.308 92.0593 153.469 91.977 155.647C91.9755 155.682 91.9852 155.717 92.005 155.747C91.7251 156.02 91.4453 156.289 91.1468 156.549C91.2603 154.313 90.8362 152.082 89.9051 150.018C88.9741 147.954 87.5595 146.109 85.7644 144.616ZM87.8026 157.909C88.0693 153.912 86.9442 149.941 84.5937 146.583C84.5623 146.536 84.5121 146.501 84.4538 146.488C84.4952 146.237 84.5754 145.994 84.6916 145.764C87.3996 148.801 88.815 152.655 88.6701 156.596C88.6701 156.654 88.6947 156.709 88.7384 156.749C88.7822 156.79 88.8415 156.813 88.9033 156.813C88.9652 156.813 89.0245 156.79 89.0682 156.749C89.112 156.709 89.1365 156.654 89.1365 156.596C89.2854 152.515 87.8072 148.527 84.9855 145.396L84.9295 145.357C85.0633 145.176 85.2199 145.01 85.3959 144.863C87.2172 146.361 88.6403 148.23 89.5539 150.325C90.4675 152.419 90.8466 154.681 90.6617 156.934C90.2792 157.251 89.8874 157.563 89.477 157.853C89.4477 157.874 89.424 157.901 89.4078 157.931C89.3916 157.962 89.3834 157.996 89.3837 158.03H89.1179C89.1179 157.818 89.1179 157.597 89.1179 157.389C89.1179 157.181 88.6515 157.116 88.6515 157.389C88.6515 157.593 88.6515 157.796 88.6281 157.996C88.3576 157.974 88.0964 157.948 87.7933 157.909H87.8026ZM87.0937 153.754C87.131 153.971 87.1636 154.187 87.1963 154.408C85.7937 154.017 84.4823 153.385 83.3297 152.545C83.3179 152.517 83.2983 152.492 83.273 152.473C83.2476 152.454 83.2173 152.442 83.1851 152.437C81.8257 151.413 80.7267 150.123 79.9669 148.659C80.235 148.473 80.5171 148.305 80.8111 148.156C82.1739 150.618 84.3813 152.588 87.0843 153.754H87.0937ZM81.2355 147.961C81.7218 147.745 82.2315 147.578 82.756 147.463C82.3404 147.972 82.0954 148.584 82.0518 149.222C81.746 148.82 81.4701 148.398 81.2262 147.961H81.2355ZM79.2346 149.261C79.3559 149.148 79.4818 149.036 79.6171 148.927C79.7197 149.131 79.8363 149.33 79.9529 149.521C79.9228 149.539 79.8986 149.565 79.883 149.595C79.5463 150.13 79.3986 150.751 79.4605 151.368C79.5224 151.986 79.7908 152.57 80.2281 153.039C80.0219 153.235 79.7882 153.404 79.5331 153.542C79.1071 152.929 78.8547 152.226 78.7992 151.498C78.7438 150.77 78.8871 150.041 79.216 149.378C79.2321 149.342 79.2385 149.304 79.2346 149.265V149.261ZM80.2188 149.928C80.5169 150.374 80.8473 150.802 81.2076 151.206C81.1734 151.235 81.1504 151.273 81.1423 151.315C81.0578 151.816 80.8486 152.292 80.5313 152.705C80.1917 152.326 79.9801 151.861 79.9229 151.371C79.8656 150.88 79.9653 150.384 80.2094 149.946L80.2188 149.928ZM86.6785 151.96C86.7998 152.394 86.9118 152.805 87.005 153.23C86.559 153.022 86.1261 152.79 85.7084 152.537C85.7276 152.52 85.742 152.499 85.7504 152.476C85.8238 152.31 85.9529 152.171 86.1185 152.079C86.284 151.986 86.4772 151.946 86.6692 151.965L86.6785 151.96ZM85.3353 152.307C84.8753 152.011 84.4374 151.687 84.0247 151.336V151.31C84.1427 150.919 84.3767 150.567 84.7 150.293C85.0232 150.02 85.4228 149.836 85.853 149.764C86.1117 150.342 86.339 150.932 86.534 151.531C86.2731 151.539 86.0202 151.617 85.8058 151.755C85.5915 151.894 85.4248 152.087 85.326 152.311L85.3353 152.307ZM83.2131 150.574C83.2999 150.088 83.5429 149.638 83.91 149.283C84.2771 148.929 84.7512 148.685 85.27 148.585C85.4052 148.841 85.5405 149.096 85.6664 149.361C85.2042 149.452 84.775 149.653 84.4198 149.943C84.0646 150.232 83.7953 150.602 83.6376 151.016C83.493 150.877 83.3484 150.734 83.2038 150.587L83.2131 150.574ZM85.5452 157.45C86.3038 157.205 86.9469 156.722 87.3642 156.085C87.389 156.663 87.389 157.24 87.3642 157.818C86.747 157.729 86.1351 157.611 85.5312 157.463L85.5452 157.45ZM83.353 156.761C83.8641 156.484 84.2897 156.089 84.5888 155.615C84.8878 155.141 85.0501 154.603 85.0601 154.053C85.7254 154.368 86.4201 154.626 87.1356 154.824C87.178 154.837 87.2239 154.837 87.2662 154.824C87.2895 155.011 87.3035 155.197 87.3222 155.383C87.2898 155.387 87.2593 155.4 87.2339 155.419C87.2085 155.438 87.189 155.463 87.1776 155.491C86.9932 155.899 86.7079 156.261 86.3449 156.547C85.9818 156.833 85.5512 157.035 85.0881 157.138C85.0479 157.145 85.0111 157.163 84.9827 157.19C84.9542 157.217 84.9356 157.252 84.9295 157.29C84.3651 157.147 83.8568 156.969 83.339 156.774L83.353 156.761ZM80.7225 155.578C81.3623 155.421 81.9415 155.099 82.3935 154.65C82.8456 154.201 83.1523 153.643 83.2784 153.039C83.6934 153.328 84.128 153.591 84.5797 153.828C84.6163 154.381 84.4743 154.933 84.1719 155.411C83.8695 155.89 83.4204 156.274 82.882 156.514C82.8553 156.525 82.8315 156.541 82.812 156.562C82.0954 156.272 81.3977 155.944 80.7225 155.578ZM79.5705 154.902C81.0023 154.673 81.7626 153.477 82.3269 152.303C82.5042 152.45 82.6814 152.593 82.868 152.736C82.788 153.348 82.4975 153.92 82.0395 154.367C81.5815 154.813 80.9805 155.11 80.326 155.214C80.2784 155.221 80.2352 155.244 80.2048 155.279C79.9902 155.171 79.7803 155.037 79.5705 154.907V154.902ZM78.6843 154.317C79.3953 154.165 80.0438 153.825 80.5519 153.339C81.0599 152.852 81.4058 152.239 81.548 151.575C81.688 151.718 81.8279 151.861 81.9771 152.008C81.4548 153.108 80.7645 154.404 79.3139 154.517C79.2753 154.52 79.2382 154.532 79.2063 154.553C79.1745 154.573 79.1488 154.601 79.132 154.634C78.9781 154.525 78.8335 154.421 78.6843 154.322V154.317ZM77.6255 151.419C77.8631 150.955 78.1441 150.511 78.4651 150.093C78.3042 150.709 78.2783 151.35 78.3888 151.975C78.4994 152.601 78.7442 153.2 79.1087 153.737C78.8602 153.834 78.6004 153.904 78.3345 153.945C78.0561 153.616 77.854 153.237 77.7408 152.832C77.6277 152.427 77.6059 152.005 77.6768 151.592C77.6827 151.562 77.6812 151.531 77.6723 151.502C77.6634 151.473 77.6474 151.446 77.6255 151.423V151.419ZM76.9259 152.957C77.0145 152.744 77.1031 152.524 77.1964 152.324C77.2203 152.697 77.3134 153.064 77.4716 153.407C77.285 153.264 77.1031 153.117 76.9259 152.978V152.957ZM75.5873 151.696C75.6273 151.67 75.6556 151.632 75.6666 151.588C76.1223 150.151 77.0054 148.863 78.2141 147.872C79.4229 146.881 80.9084 146.227 82.4995 145.985C82.4317 146.345 82.4317 146.713 82.4995 147.073C81.4577 147.323 80.4806 147.765 79.6264 148.373C78.0593 149.478 77.2431 150.998 76.5528 152.653C76.2263 152.342 75.9045 152.021 75.5873 151.7V151.696ZM82.7514 145.301C82.7141 145.379 82.6767 145.457 82.6441 145.535H82.5975C80.9057 145.759 79.3178 146.426 78.0193 147.458C76.7209 148.49 75.7657 149.844 75.2655 151.362C74.967 151.037 74.6778 150.704 74.398 150.366C74.4085 150.354 74.4164 150.341 74.4213 150.327C75.0676 148.784 76.2197 147.469 77.7146 146.568C79.2094 145.667 80.9714 145.225 82.7514 145.305V145.301ZM83.4836 147.329C83.8174 147.284 84.1539 147.26 84.4911 147.255C84.6916 147.563 84.8829 147.879 85.0648 148.195C84.5356 148.313 84.0498 148.56 83.6572 148.911C83.2646 149.261 82.9793 149.702 82.8307 150.188C82.7187 150.067 82.6161 149.946 82.5135 149.82C82.4527 149.366 82.509 148.904 82.6776 148.474C82.8463 148.044 83.1226 147.657 83.4836 147.346V147.329Z" fill="#263238"/>
<path d="M71.5363 162.554C71.5596 162.827 72.0027 162.827 72.0027 162.554C71.8798 161.261 72.148 159.961 72.7769 158.802C72.9308 158.958 73.0894 159.114 73.2433 159.261C72.7828 159.985 72.4868 160.788 72.3737 161.622C72.2606 162.456 72.3327 163.303 72.5857 164.11C72.6018 164.164 72.6405 164.211 72.6934 164.239C72.7464 164.267 72.8091 164.274 72.8679 164.259C72.9266 164.244 72.9766 164.208 73.0068 164.159C73.0369 164.11 73.0449 164.052 73.0288 163.997C72.7976 163.263 72.7276 162.493 72.8229 161.733C72.9183 160.973 73.177 160.238 73.5838 159.573C73.8543 159.816 74.1295 160.054 74.414 160.279C73.811 161.167 73.5079 162.203 73.5437 163.252C73.5794 164.301 73.9524 165.317 74.6146 166.168C74.7871 166.393 75.1836 166.168 75.0157 165.951C74.4036 165.178 74.0533 164.252 74.0093 163.293C73.9652 162.334 74.2295 161.385 74.7685 160.565C75.0297 160.769 75.2909 160.96 75.5614 161.15C75.5221 161.156 75.4855 161.172 75.4558 161.197C75.4261 161.222 75.4044 161.253 75.3935 161.289C75.0787 162.164 74.9852 163.095 75.1203 164.01C75.2554 164.924 75.6154 165.798 76.1724 166.562C76.2016 166.599 76.2426 166.628 76.2897 166.643C76.3369 166.658 76.3879 166.659 76.4358 166.646C76.4837 166.634 76.5262 166.607 76.5575 166.571C76.5888 166.535 76.6074 166.491 76.6108 166.445C78.6385 166.275 80.5573 165.517 82.0958 164.279C82.4969 164.391 82.898 164.5 83.3085 164.591C82.568 165.317 81.6732 165.892 80.6808 166.28C79.6884 166.667 78.6201 166.86 77.5436 166.844C77.4818 166.844 77.4225 166.866 77.3787 166.907C77.335 166.948 77.3104 167.003 77.3104 167.06C77.3104 167.118 77.335 167.173 77.3787 167.213C77.4225 167.254 77.4818 167.277 77.5436 167.277C78.7013 167.294 79.8498 167.084 80.9145 166.662C81.9793 166.239 82.9363 165.613 83.7236 164.825C83.7556 164.791 83.7752 164.748 83.7795 164.703C84.0547 164.76 84.3299 164.807 84.6097 164.855C83.9465 166.273 82.8293 167.466 81.4102 168.273C81.3576 168.302 81.3195 168.349 81.3042 168.404C81.2888 168.459 81.2976 168.517 81.3285 168.566C81.3595 168.615 81.41 168.65 81.4691 168.664C81.5281 168.679 81.5908 168.67 81.6434 168.642C83.1456 167.795 84.3273 166.535 85.0249 165.037C85.0364 164.999 85.0364 164.958 85.0249 164.92C85.3234 164.963 85.6265 164.998 85.9297 165.032C85.5422 166.293 84.8334 167.447 83.8635 168.399C83.6583 168.598 83.9848 168.902 84.19 168.702C85.2333 167.681 85.9908 166.437 86.3961 165.08L86.8252 165.11C86.6047 166.312 85.9617 167.412 84.9969 168.239C84.7777 168.429 85.1041 168.733 85.3233 168.542C86.3739 167.646 87.0661 166.445 87.2869 165.136L88.0705 165.162C87.8193 166.245 87.2678 167.247 86.4707 168.07C86.2702 168.273 86.5966 168.577 86.7972 168.373C87.677 167.465 88.2807 166.355 88.5462 165.158C88.9536 165.158 89.3594 165.145 89.7636 165.119C89.6929 165.997 89.2541 166.814 88.5416 167.394C88.3224 167.58 88.6489 167.879 88.8681 167.697C89.671 167.03 90.16 166.096 90.23 165.097L90.7244 165.054C91.0182 165.024 91.0229 164.595 90.7244 164.621C87.4044 164.972 84.0423 164.575 80.9219 163.465C77.8014 162.355 75.0142 160.564 72.7956 158.243C72.6137 158.052 72.3292 158.295 72.4411 158.494C72.4218 158.509 72.406 158.526 72.3944 158.546C71.7072 159.78 71.4097 161.17 71.5363 162.554ZM79.1807 165.431C78.7954 164.681 78.6606 163.84 78.7936 163.018C79.6972 163.442 80.6324 163.806 81.5921 164.105C80.869 164.66 80.059 165.108 79.1901 165.435L79.1807 165.431ZM77.7115 165.864C77.2207 164.723 77.088 163.476 77.3291 162.268C77.6696 162.463 78.0194 162.649 78.3692 162.827V162.862C78.2041 163.788 78.3422 164.739 78.7656 165.591C78.4198 165.698 78.0679 165.786 77.7115 165.856V165.864ZM75.8459 161.41C75.8481 161.392 75.8481 161.373 75.8459 161.354C76.2004 161.592 76.5595 161.826 76.9326 162.043C76.9074 162.07 76.8898 162.103 76.8813 162.138C76.6159 163.414 76.7419 164.734 77.2451 165.947C77.0259 165.981 76.8067 166.007 76.5828 166.029C76.5487 166.032 76.5156 166.041 76.4858 166.057C76.456 166.073 76.4303 166.094 76.4102 166.12C75.9493 165.42 75.6594 164.635 75.5611 163.82C75.4627 163.004 75.5584 162.179 75.8412 161.402L75.8459 161.41Z" fill="#263238"/>
<path d="M82.2786 160.864C86.2244 162.576 90.604 162.255 94.8203 161.904C95.1188 161.878 95.1142 162.307 94.8203 162.337C90.506 162.697 86.0798 162.987 82.0453 161.237C81.7748 161.12 82.0314 160.747 82.2786 160.864Z" fill="#263238"/>
<path d="M94.9122 158.611L96.6612 158.429C96.9597 158.399 96.9551 158.828 96.6612 158.863L94.9122 159.045C94.623 159.088 94.623 158.659 94.9122 158.611Z" fill="#263238"/>
<path d="M71.2257 152.199C72.8217 155.559 75.7723 158.203 79.4438 159.564C79.719 159.664 79.5978 160.08 79.3226 159.976C75.5374 158.586 72.4909 155.871 70.8386 152.415C70.708 152.168 71.1044 151.947 71.2257 152.199Z" fill="#263238"/>
<path d="M72.7051 150.21C75.4583 153.542 79.0486 156.198 83.162 157.944C83.4325 158.061 83.1993 158.429 82.9288 158.316C78.7477 156.532 75.1012 153.823 72.3086 150.426C72.108 150.205 72.5092 149.993 72.7051 150.21Z" fill="#263238"/>
<path d="M83.9207 158.213C83.9826 158.213 84.0419 158.236 84.0856 158.276C84.1294 158.317 84.1539 158.372 84.1539 158.43C84.1539 158.487 84.1294 158.542 84.0856 158.583C84.0419 158.623 83.9826 158.646 83.9207 158.646C83.8589 158.646 83.7995 158.623 83.7558 158.583C83.7121 158.542 83.6875 158.487 83.6875 158.43C83.6875 158.372 83.7121 158.317 83.7558 158.276C83.7995 158.236 83.8589 158.213 83.9207 158.213Z" fill="#263238"/>
<path d="M83.4793 159.911C87.4568 161.127 91.7227 161.277 95.7879 160.344C96.077 160.279 96.203 160.69 95.9138 160.755C91.7679 161.71 87.4163 161.56 83.358 160.322C83.0782 160.231 83.1995 159.815 83.4793 159.911Z" fill="#263238"/>
<path d="M81.1512 160.443C81.213 160.443 81.2724 160.466 81.3161 160.507C81.3598 160.547 81.3844 160.603 81.3844 160.66C81.3844 160.717 81.3598 160.773 81.3161 160.813C81.2724 160.854 81.213 160.877 81.1512 160.877C81.0893 160.877 81.03 160.854 80.9863 160.813C80.9425 160.773 80.918 160.717 80.918 160.66C80.918 160.603 80.9425 160.547 80.9863 160.507C81.03 160.466 81.0893 160.443 81.1512 160.443Z" fill="#263238"/>
<path d="M70.6911 156.738C70.6099 156.599 70.5398 156.454 70.4812 156.305C70.3786 156.045 70.8216 155.932 70.9243 156.192C71.1551 156.788 71.5808 157.302 72.1416 157.661C72.3841 157.817 72.1416 158.19 71.9084 158.034L71.7638 157.93C71.3405 158.807 71.1794 159.774 71.2974 160.729C71.33 161.002 70.8683 161.002 70.831 160.729C70.7151 159.668 70.9185 158.599 71.4187 157.64C71.2687 157.506 71.1314 157.361 71.0082 157.206C70.8815 157.549 70.8031 157.906 70.775 158.268C70.7517 158.545 70.3086 158.545 70.3086 158.268C70.3442 157.742 70.4734 157.225 70.6911 156.738Z" fill="#263238"/>
<path d="M91.5741 164.499L92.7634 164.335C92.8007 164.33 92.8386 164.334 92.8741 164.345C92.9097 164.357 92.942 164.375 92.9687 164.4C93.0501 164.197 93.1795 164.014 93.3474 163.864C93.5154 163.714 93.7175 163.601 93.9388 163.533C94.2186 163.447 94.3399 163.863 94.0601 163.967C93.8672 164.027 93.697 164.137 93.5697 164.285C93.4424 164.432 93.3633 164.61 93.3418 164.798C93.3138 165.071 92.8521 165.071 92.8754 164.798L91.6907 164.959C91.4062 164.95 91.2802 164.538 91.5741 164.499Z" fill="#263238"/>
</svg>
